<?xml version="1.0" encoding="utf-8"?>
<!-- Generator: Adobe Illustrator 17.0.0, SVG Export Plug-In . SVG Version: 6.00 Build 0)  -->
<!DOCTYPE svg PUBLIC "-//W3C//DTD SVG 1.1//EN" "http://www.w3.org/Graphics/SVG/1.1/DTD/svg11.dtd">
<svg version="1.1" id="Слой_1" xmlns="http://www.w3.org/2000/svg" xmlns:xlink="http://www.w3.org/1999/xlink" x="0px" y="0px"
	 width="313.833px" height="72px" viewBox="0 0 313.833 72" enable-background="new 0 0 313.833 72" xml:space="preserve">
<g>
	<path fill="#FF15C2" d="M124.263,49.76c0.831,0,1.53-0.052,2.218,0.009c2.646,0.236,3.735,2.502,2.245,4.701
		c-1.496,2.208-3.712,3.562-5.983,4.808c-6.015,3.3-12.519,4.897-19.317,5.365c-4.09,0.282-8.189,0.656-12.286,0.045
		c-0.2-0.03-0.414-0.012-0.602-0.075c-0.944-0.319-2.101-0.424-2.408-1.589c-0.278-1.052,0.459-1.804,1.091-2.536
		c0.132-0.153,0.263-0.321,0.429-0.429c1.055-0.689,0.79-1.16-0.101-1.858c-12.142-9.509-11.134-25.337-4.106-33.884
		c7.14-8.682,20.645-11.408,31.194-6.238c5.064,2.482,9.225,5.944,11.266,11.373c2.552,6.788,0.892,13.032-2.818,18.93
		c-0.215,0.342-0.46,0.666-0.689,1.001C124.371,49.42,124.364,49.473,124.263,49.76z M104.136,23.837
		c-7.682,0.009-12.716,3.682-14.318,9.832c-1.122,4.31,0.33,8.498,3.671,10.588c3.77,2.358,8.848,2.164,11.966-0.456
		c2.223-1.869,3.065-4.664,2.084-6.925c-0.986-2.272-3.877-3.964-6.306-3.662c-0.69,0.086-1.608,0.116-1.502,1.098
		c0.099,0.918,0.871,0.693,1.558,0.607c1.712-0.216,3.8,0.933,4.563,2.45c0.863,1.716,0.194,3.165-0.902,4.469
		c-3.323,3.953-11.2,2.75-13.081-2.053c-1.524-3.889-0.492-7.415,2.158-10.442c3.426-3.915,9.888-4.959,15.16-2.657
		c2.931,1.279,4.95,3.376,5.681,6.497c1,4.264,0.323,8.282-2.355,11.818c-2.661,3.513-6.4,5.35-10.554,6.467
		c-0.626,0.168-1.47,0.213-1.252,1.146c0.213,0.908,1.005,0.672,1.64,0.511c4.585-1.165,8.607-3.264,11.567-7.081
		c3.982-5.135,4.203-13.174,0.405-17.701C111.459,24.935,107.549,23.922,104.136,23.837z"/>
	<path fill="#00FFA1" d="M90.146,66.466c6.201,0.726,12.331,0.103,18.436-0.975c4.629-0.818,9.265-1.678,13.495-3.828
		c3.955-2.011,7.689-4.398,10.268-8.145c2.629-3.818,3.04-8.122,2.606-12.62c-0.367-3.803-2.409-6.767-4.463-9.779
		c-1.868-2.739-3.325-5.664-3.233-9.115c0.011-0.404-0.092-0.952,0.124-1.186c1.396-1.51,0.672-3.213,0.596-4.881
		c-0.134-2.93-0.29-5.874,0.963-8.662c1.337-2.975,4.037-4.608,7.319-4.136c1.701,0.245,3.274,0.101,4.919-0.32
		c2.386-0.611,4.338,0.501,6.058,2.007c0.752,0.659,1.337,1.508,1.996,2.272c0.768,0.892,0.332,1.76-0.192,2.495
		c-0.58,0.812-1.443,1.376-2.495,0.982c-0.985-0.369-1.913-0.918-1.191-2.249c0.666-1.229,0.137-2.174-0.791-2.918
		c-1.002-0.804-2.196-0.601-3.346-0.352c-0.327,0.071-0.33,0.35-0.155,0.587c0.237,0.322,0.48,0.648,0.764,0.928
		c0.777,0.766,1.235,1.622,0.746,2.711c-0.484,1.076-1.243,1.819-2.521,1.816c-2.466-0.749-0.855-2.894-1.431-4.331
		c-1.466,2.257-1.858,4.606-1.024,7.128c-0.139,1.001,0.362,1.872,0.562,2.804c0.093,0.435,0.373,0.554,0.739,0.632
		c5.895,1.264,9.305,5.527,11.813,10.45c3.905,7.665,4.792,15.787,2.92,24.276c-1.704,7.727-6.921,12.15-13.469,15.647
		c-4.688,2.504-9.64,3.341-14.867,3.296c-7.453-0.064-14.872-0.454-22.287-1.28c-4.365-0.486-8.764-1.022-13.184-0.766
		c-2.937,0.17-5.78,0.926-8.647,1.519c-1.292,0.267-2.57,0.491-3.897,0.364c-0.993-0.095-1.32-0.427-0.607-1.308
		c1.694-2.092,3.582-3.934,6.167-4.903c0.55-0.06,1.115-0.061,1.647-0.193c0.811-0.201,1.488-0.098,2.033,0.575
		C87.454,66.166,88.716,66.526,90.146,66.466z M130.39,11.914c0.137,0.898,0.342,2.091,0.497,3.291
		c0.302,2.341,0.326,2.286,2.519,2.031c1.252-0.145,1.371-0.601,1.3-1.757c-0.185-2.999-0.572-6.051,0.838-8.919
		c0.211-0.43,0.653-0.992,0.304-1.37c-0.395-0.428-1.049-0.143-1.568,0.052C131.717,6.208,130.409,8.358,130.39,11.914z"/>
</g>
<g enable-background="new    ">
	<path fill="#FF15C2" d="M166.938,52.139c-6.441,0-9.104-1.363-9.104-8.733c0-3.468,11.148-29.048,22.978-29.048
		c3.221,0,5.885,3.283,5.885,4.894c0,5.821-11.459,11.024-14.555,11.024c-0.682,0-1.486,0.062-1.549-0.93
		c-0.063-0.743,0.496-1.362,1.425-1.424c1.362-0.124,3.901-1.301,6.38-2.85c3.592-2.354,4.087-5.636,1.795-5.574
		c-9.042,0.124-18.58,18.581-18.209,24.279c0.248,2.478,3.221,2.478,6.38,2.354c11.148-0.496,16.97-5.513,18.209-5.45
		c0.806,0.062,1.053,1.053,1.053,1.672C187.625,43.777,181.803,52.139,166.938,52.139z"/>
	<path fill="#FF15C2" d="M202.616,52.2c-2.787,0.062-4.336-1.115-5.637-3.592c-2.229,1.362-3.469,3.777-9.477,3.901
		c-3.282,0.063-3.84-1.238-3.84-3.468c0-4.584,7.557-11.025,13.192-11.025c3.716,0,5.141,2.292,5.45,5.265
		c0.248,1.734-0.062,4.521,1.797,4.584c2.043,0.062,5.512-2.416,6.441-2.292c1.114,0.124,1.238,0.371,1.238,1.053
		C211.782,48.546,205.711,52.139,202.616,52.2z M194.75,43.157c-2.044-0.062-5.079,2.168-4.955,3.841
		c0.062,0.619,0.929,0.495,1.548,0.495c1.301,0,4.521-1.734,4.521-3.345C195.864,43.591,195.307,43.157,194.75,43.157z"/>
	<path fill="#FF15C2" d="M224.543,41.361c-2.106,0-1.178-1.362-3.593-1.362c-2.292,0-4.149,2.415-5.141,3.964
		c-1.487,2.415-1.239,4.646-1.239,6.813c0,1.858-1.857,3.283-3.901,3.283c-2.478,0-2.354-1.301-2.354-2.416
		c0-1.177,1.548-4.831,1.548-6.379c0.124-4.336-0.805-3.964-0.805-6.937c0-1.239,2.168-2.416,3.158-2.354
		c1.363,0,2.973,1.487,3.098,3.159c1.176-2.539,5.016-4.088,7.494-4.088c2.354,0,5.512,0.743,5.512,2.602
		C228.321,40.37,226.897,41.361,224.543,41.361z"/>
	<path fill="#FF15C2" d="M243.249,52.2c-2.787,0.062-4.335-1.115-5.636-3.592c-2.229,1.362-3.468,3.777-9.476,3.901
		c-3.283,0.063-3.84-1.238-3.84-3.468c0-4.584,7.556-11.025,13.191-11.025c3.717,0,5.141,2.292,5.451,5.265
		c0.247,1.734-0.063,4.521,1.795,4.584c2.045,0.062,5.513-2.416,6.441-2.292c1.115,0.124,1.239,0.371,1.239,1.053
		C252.416,48.546,246.346,52.139,243.249,52.2z M235.383,43.157c-2.044-0.062-5.079,2.168-4.955,3.841
		c0.063,0.619,0.93,0.495,1.549,0.495c1.301,0,4.521-1.734,4.521-3.345C236.499,43.591,235.94,43.157,235.383,43.157z"/>
	<path fill="#FF15C2" d="M253.47,53.191c-3.716,0-5.202-2.292-5.202-4.46c0-6.131,7.061-14.492,11.148-14.431
		c1.362,0,3.654-0.186,3.654,2.168c0,1.92-0.744,2.911-2.602,3.035c-0.558,0.062-5.698,3.901-5.698,6.874
		c0,1.115,0.619,1.239,1.981,1.239c4.894,0,10.529-5.884,11.272-5.884c1.362,0,1.61-0.124,1.61,1.177
		C269.635,44.148,259.54,53.191,253.47,53.191z"/>
	<path fill="#FF15C2" d="M284.5,46.502c-1.238,0-2.973-0.434-4.148-1.424c-0.434,0.557-5.203,9.909-11.273,9.909
		c-1.981,0-5.202-1.858-5.202-5.079c0-6.874,9.849-13.006,12.077-13.006c5.451,0,5.822,2.478,6.008,4.707
		c0.558,0.434,1.734,1.114,3.221,1.114c1.053,0,2.416-0.371,3.098-0.371c0.867,0,0.742,0.929,0.742,1.61
		C289.022,45.697,286.607,46.502,284.5,46.502z M275.458,43.405c-1.796-0.495-5.76,4.212-5.76,5.326c0,0.682,0.31,1.487,1.053,1.549
		c2.354,0.124,5.265-3.53,5.327-5.079C276.079,44.521,276.264,43.653,275.458,43.405z"/>
	<path fill="#FF15C2" d="M291.811,41.919c-0.742,1.981-1.548,3.53-1.486,4.707c0.063,1.053,0.186,1.301,1.239,1.301
		c3.468,0,9.104-5.017,10.281-5.017c0.619,0,0.991,0.743,0.991,1.486c0,1.053-6.813,8.732-12.82,8.732
		c-3.531,0-4.521-2.105-4.521-4.583c0-2.539,2.291-9.29,9.723-23.721c0.248-0.434,7.434-16.289,15.051-16.661
		c2.539-0.124,2.973,1.672,2.911,3.345C312.87,17.083,299.492,32.938,291.811,41.919z M296.147,31.019
		c2.354-2.726,8.671-10.777,8.671-12.325c0-0.31,0.187-0.682-0.124-0.682C303.27,18.012,297.881,27.055,296.147,31.019z"/>
</g>
<g enable-background="new    ">
	<path fill="#00FFA1" d="M30.809,38.369c-5.45,7.246-13.13,14.555-20.811,14.555c-6.441,0-7.804-2.293-7.804-5.266
		c-0.062-6.627,2.973-11.396,6.689-17.775c3.159-5.512,7.618-12.696,10.096-12.696c0.867,0,1.858-0.187,1.858,1.114
		c0,1.486-4.335,6.689-7.804,12.883c-2.416,4.335-4.397,9.042-4.769,13.378c-0.248,2.91,2.416,3.281,4.893,3.281
		c1.115,0,8.361-2.354,14.555-12.077c3.654-5.822,4.645-9.166,5.079-11.829c0.434-2.726,0.619-3.964,3.221-4.026
		c2.044-0.062,2.477,2.229,2.477,4.149C38.489,25.858,35.516,32.113,30.809,38.369z"/>
	<path fill="#00FFA1" d="M58.992,12.232c-0.248,5.512-14.246,21.554-17.156,24.959c-1.548,1.797-2.354,3.098-3.097,4.707
		c1.115-1.176,4.893-5.883,9.228-5.883c3.035,0,3.345,1.487,3.345,3.53c0,2.912-4.459,6.318-6.999,6.875
		c0.619,1.549,2.292,2.23,4.645,2.105c3.468-0.186,9.91-6.998,10.962-6.998c0.743,0,1.486,0.742,1.486,1.424
		c0,1.549-8.671,11.025-15.05,10.777c-5.822-0.186-5.512-2.787-5.946-4.955c-1.982,1.672-4.893,4.025-6.875,4.025
		c-2.354,0-2.354-2.105-2.354-3.777c0-3.035,4.769-13.316,8.856-21.43c4.459-9.042,8.423-18.395,16.104-18.766
		C58.682,8.702,59.054,10.498,58.992,12.232z M41.959,31.742c2.416-2.726,8.733-10.839,8.733-12.388c0-0.31,0.186-0.619-0.124-0.619
		C49.144,18.735,43.694,27.778,41.959,31.742z"/>
	<path fill="#00FFA1" d="M74.107,41.65c-2.106,0-1.177-1.361-3.592-1.361c-2.292,0-4.15,2.414-5.141,3.963
		c-1.487,2.416-1.239,4.646-1.239,6.813c0,1.859-1.858,3.283-3.902,3.283c-2.478,0-2.354-1.301-2.354-2.416
		c0-1.176,1.548-4.83,1.548-6.379c0.124-4.336-0.805-3.963-0.805-6.936c0-1.24,2.167-2.417,3.159-2.355
		c1.362,0,2.973,1.488,3.097,3.16c1.177-2.539,5.017-4.088,7.494-4.088c2.354,0,5.512,0.743,5.512,2.602
		C77.885,40.66,76.46,41.65,74.107,41.65z"/>
</g>
</svg>
