<?xml version="1.0" encoding="utf-8"?>
<!-- Generator: Adobe Illustrator 17.0.0, SVG Export Plug-In . SVG Version: 6.00 Build 0)  -->
<!DOCTYPE svg PUBLIC "-//W3C//DTD SVG 1.1//EN" "http://www.w3.org/Graphics/SVG/1.1/DTD/svg11.dtd">
<svg version="1.1" id="Слой_1" xmlns="http://www.w3.org/2000/svg" xmlns:xlink="http://www.w3.org/1999/xlink" x="0px" y="0px"
	 width="352.417px" height="77.833px" viewBox="0 0 352.417 77.833" enable-background="new 0 0 352.417 77.833"
	 xml:space="preserve">
<g>
	<path fill="#FF15C2" d="M127.263,49.76c0.831,0,1.53-0.052,2.218,0.009c2.646,0.236,3.735,2.502,2.245,4.701
		c-1.496,2.208-3.712,3.562-5.983,4.808c-6.015,3.3-12.519,4.897-19.317,5.365c-4.09,0.282-8.189,0.656-12.286,0.045
		c-0.2-0.03-0.414-0.012-0.602-0.075c-0.944-0.319-2.101-0.424-2.408-1.589c-0.278-1.052,0.459-1.804,1.091-2.536
		c0.132-0.153,0.263-0.321,0.429-0.429c1.055-0.689,0.79-1.16-0.101-1.858c-12.142-9.509-11.134-25.337-4.106-33.884
		c7.14-8.682,20.645-11.408,31.194-6.238c5.064,2.482,9.225,5.944,11.266,11.373c2.552,6.788,0.892,13.032-2.818,18.93
		c-0.215,0.342-0.46,0.666-0.689,1.001C127.371,49.42,127.364,49.473,127.263,49.76z M107.136,23.837
		c-7.682,0.009-12.716,3.682-14.318,9.832c-1.122,4.31,0.33,8.498,3.671,10.588c3.77,2.358,8.848,2.164,11.966-0.456
		c2.223-1.869,3.065-4.664,2.084-6.925c-0.986-2.272-3.877-3.964-6.306-3.662c-0.69,0.086-1.608,0.116-1.502,1.098
		c0.099,0.918,0.871,0.693,1.558,0.607c1.712-0.216,3.8,0.933,4.563,2.45c0.863,1.716,0.194,3.165-0.902,4.469
		c-3.323,3.953-11.2,2.75-13.081-2.053c-1.524-3.889-0.492-7.415,2.158-10.442c3.426-3.915,9.888-4.959,15.16-2.657
		c2.931,1.279,4.95,3.376,5.681,6.497c1,4.264,0.323,8.282-2.355,11.818c-2.661,3.513-6.4,5.35-10.554,6.467
		c-0.626,0.168-1.47,0.213-1.252,1.146c0.213,0.908,1.005,0.672,1.64,0.511c4.585-1.165,8.607-3.264,11.567-7.081
		c3.982-5.135,4.203-13.174,0.405-17.701C114.459,24.935,110.549,23.922,107.136,23.837z"/>
	<path fill="#00FFA1" d="M93.146,66.466c6.201,0.726,12.331,0.103,18.436-0.975c4.629-0.818,9.265-1.678,13.495-3.828
		c3.955-2.011,7.689-4.398,10.268-8.145c2.629-3.818,3.04-8.122,2.606-12.62c-0.367-3.803-2.409-6.767-4.463-9.779
		c-1.868-2.739-3.325-5.664-3.233-9.115c0.011-0.404-0.092-0.952,0.124-1.186c1.396-1.51,0.672-3.213,0.596-4.881
		c-0.134-2.93-0.29-5.874,0.963-8.662c1.337-2.975,4.037-4.608,7.319-4.136c1.701,0.245,3.274,0.101,4.919-0.32
		c2.386-0.611,4.338,0.501,6.058,2.007c0.752,0.659,1.337,1.508,1.996,2.272c0.768,0.892,0.332,1.76-0.192,2.495
		c-0.58,0.812-1.443,1.376-2.495,0.982c-0.985-0.369-1.913-0.918-1.191-2.249c0.666-1.229,0.137-2.174-0.791-2.918
		c-1.002-0.804-2.196-0.601-3.346-0.352c-0.327,0.071-0.33,0.35-0.155,0.587c0.237,0.322,0.48,0.648,0.764,0.928
		c0.777,0.766,1.235,1.622,0.746,2.711c-0.484,1.076-1.243,1.819-2.521,1.816c-2.466-0.749-0.855-2.894-1.431-4.331
		c-1.466,2.257-1.858,4.606-1.024,7.128c-0.139,1.001,0.362,1.872,0.562,2.804c0.093,0.435,0.373,0.554,0.739,0.632
		c5.895,1.264,9.305,5.527,11.813,10.45c3.905,7.665,4.792,15.787,2.92,24.276c-1.704,7.727-6.921,12.15-13.469,15.647
		c-4.688,2.504-9.64,3.341-14.867,3.296c-7.453-0.064-14.872-0.454-22.287-1.28c-4.365-0.486-8.764-1.022-13.184-0.766
		c-2.937,0.17-5.78,0.926-8.647,1.519c-1.292,0.267-2.57,0.491-3.897,0.364c-0.993-0.095-1.32-0.427-0.607-1.308
		c1.694-2.092,3.582-3.934,6.167-4.903c0.55-0.06,1.115-0.061,1.647-0.193c0.811-0.201,1.488-0.098,2.033,0.575
		C90.454,66.166,91.716,66.526,93.146,66.466z M133.39,11.914c0.137,0.898,0.342,2.091,0.497,3.291
		c0.302,2.341,0.326,2.286,2.519,2.031c1.252-0.145,1.371-0.601,1.3-1.757c-0.185-2.999-0.572-6.051,0.838-8.919
		c0.211-0.43,0.653-0.992,0.304-1.37c-0.395-0.428-1.049-0.143-1.568,0.052C134.717,6.208,133.409,8.358,133.39,11.914z"/>
</g>
<g enable-background="new    ">
	<path fill="#FF15C2" d="M188.953,30.337c-3.778,11.024-10.158,23.226-19.138,23.226c-6.132,0-10.467-2.725-10.405-5.45
		c0.062-1.61,1.363-3.778,3.283-3.778c1.239,0,2.354,0.744,3.53,1.858c0.929,0.806,2.292,1.239,4.149,1.239
		c5.822,0,11.458-6.999,13.936-13.564C181.086,37.77,178.981,40,175.265,40c-3.283,0-5.512-2.044-5.512-5.822
		c0-3.654,4.088-9.662,4.645-12.696c0.31-1.858-0.867-4.149-0.557-6.627c0.186-1.61,1.796-2.974,3.22-3.035
		c1.859-0.062,3.221,0.31,3.221,2.787c0,3.158-4.892,14.369-4.892,17.714c0,1.238,0.867,1.733,1.858,1.733
		c1.301,0,6.193-3.158,8.361-5.76c2.044-6.193,4.707-16.165,8.795-16.041c2.601,0.062,3.345,1.425,3.282,3.035
		C197.437,20.49,191.368,27.613,188.953,30.337z"/>
	<path fill="#FF15C2" d="M208.279,53.625c-3.964,0-4.645-2.044-4.645-3.964c0-0.682,1.114-3.778,1.362-4.46
		c-0.806,0.991-5.141,8.424-11.024,8.424c-2.973,0-5.141-2.106-5.141-5.017c0-4.15,1.115-6.008,4.396-6.008
		c2.787,0,2.787,2.478,2.787,3.901c0,1.549,0.434,1.301,1.301,1.301c3.346,0,9.91-12.696,12.573-12.696
		c1.487,0,2.911,0.929,2.911,2.415c0,2.044-3.84,7.68-3.84,8.98c0,0.867,0.123,1.796,0.929,1.796
		c5.946-0.062,12.635-6.379,13.75-6.317c0.806,0.063,1.238,0.496,1.238,1.177C224.877,44.645,214.163,53.625,208.279,53.625z"/>
	<path fill="#FF15C2" d="M239.001,54.183c-4.396,0-5.078-3.778-4.707-6.938c-3.715,3.717-7.803,6.565-11.581,6.565
		c-2.849,0-4.397-2.292-3.841-4.831c0.744-3.53,1.486-4.831,3.717-9.476c0.99-2.044,3.221-2.726,4.211-2.478
		c1.054,0.371,0.867,1.486,0.806,2.291c-0.124,1.549-2.726,5.946-2.726,7.681c0,0.557,0.125,0.681,0.744,0.681
		c1.796,0,4.955-1.672,7.68-3.654c1.857-1.301,3.469-4.583,4.77-4.645c3.715-0.124,2.539,3.158,1.857,4.211
		c-0.557,0.867-0.93,3.964-0.93,5.141c0,0.372,0.248,0.867,0.682,0.867c3.654,0,8.485-2.601,9.6-2.539
		c0.311,0.062,0.559,0.495,0.559,1.177C249.841,49.909,241.789,54.183,239.001,54.183z"/>
	<path fill="#FF15C2" d="M285.333,53.316c-3.097,0-4.954-1.61-4.954-3.53c0-0.682,0-2.54,0.494-3.53
		c-1.733,1.114-6.874,6.564-12.696,6.564c-2.663,0-2.973-2.105-2.973-4.088c0-1.672,0.434-3.53,0.558-4.707
		c-3.717,2.292-9.972,8.857-13.688,9.291c-1.797,0.186-2.539-1.115-2.539-3.53c0.061-2.664,1.053-6.565,1.795-8.609
		c0.744-2.168,2.168-4.831,4.273-4.831c0.867,0,1.549,1.301,1.549,2.478c0,2.354-1.61,5.698-2.044,8.361
		c8.052-5.76,11.335-9.724,14.617-9.724c1.672,0,2.229,1.486,2.292,2.787c0.062,0.805-1.178,4.025-1.178,5.512
		c0,0.806,0.063,1.858,0.867,1.858c2.911,0,10.9-10.281,13.564-10.281c0.805,0,1.981,0.558,1.981,1.486
		c0,1.238-1.981,6.008-1.981,7.433c0,0.866,0.495,2.043,1.362,2.043c4.335,0,10.343-6.564,11.458-6.503
		c0.743,0.063,1.238,0.496,1.238,1.177C299.33,44.025,291.154,53.316,285.333,53.316z"/>
	<path fill="#FF15C2" d="M310.73,53.439c-4.769,0-5.76-3.716-6.193-5.884c-1.981,1.673-5.574,5.884-7.556,5.884
		c-2.354,0-2.106-2.105-2.106-3.777c0-1.425,5.018-16.289,7.186-16.289c2.354,0,2.477,0.929,2.477,2.354
		c0,1.053-3.158,7.804-4.211,10.405c2.91-1.425,11.334-12.759,15.607-12.759c2.354,0,2.602,1.362,2.602,3.406
		c0,3.716-5.945,3.84-10.652,7.804c0.681,1.549,2.043,4.149,4.459,4.149c5.141,0,10.9-7.494,11.953-7.494
		c0.743,0,1.486,0.743,1.486,1.425C325.781,44.211,317.11,53.439,310.73,53.439z"/>
	<path fill="#FF15C2" d="M338.791,53.316c-4.397,0-4.025-2.23-5.326-4.707c-2.23,1.362-3.717,4.521-9.725,4.707
		c-3.282,0.062-3.84-1.239-3.84-3.469c0-4.646,7.805-11.83,13.439-11.83c3.717,0,5.141,2.292,5.451,5.265
		c0.248,1.734-0.93,5.698,1.486,5.698s6.998-3.035,7.928-2.911c1.115,0.124,1.238,0.372,1.238,1.115
		C349.443,48.609,341.887,53.316,338.791,53.316z M331.234,43.158c-2.043-0.062-5.326,2.974-5.202,4.584
		c0.062,0.681,0.929,0.557,1.548,0.557c1.301,0,4.77-2.539,4.77-4.149C332.349,43.591,331.792,43.158,331.234,43.158z"/>
</g>
<g enable-background="new    ">
	<path fill="#00FFA1" d="M31.366,30.626c-3.778,11.024-10.157,23.226-19.138,23.226c-6.132,0-10.467-2.725-10.405-5.45
		c0.062-1.61,1.363-3.778,3.283-3.778c1.239,0,2.354,0.744,3.53,1.858c0.929,0.806,2.292,1.239,4.149,1.239
		c5.822,0,11.458-6.999,13.936-13.564c-3.221,3.902-5.326,6.132-9.042,6.132c-3.283,0-5.512-2.044-5.512-5.822
		c0-3.654,4.088-9.662,4.645-12.696c0.31-1.858-0.867-4.149-0.557-6.627c0.186-1.61,1.796-2.974,3.22-3.035
		c1.858-0.062,3.221,0.31,3.221,2.787c0,3.158-4.893,14.369-4.893,17.714c0,1.238,0.867,1.733,1.858,1.733
		c1.301,0,6.193-3.158,8.361-5.76c2.044-6.193,4.707-16.165,8.795-16.041c2.601,0.062,3.344,1.425,3.282,3.035
		C39.852,20.779,33.782,27.902,31.366,30.626z"/>
	<path fill="#00FFA1" d="M45.676,53.728c-4.769,0-5.76-3.716-6.193-5.884c-1.982,1.673-5.574,5.884-7.556,5.884
		c-2.354,0-2.106-2.105-2.106-3.777c0-1.425,5.017-16.289,7.185-16.289c2.354,0,2.478,0.929,2.478,2.354
		c0,1.053-3.159,7.804-4.211,10.405c2.911-1.425,11.334-12.759,15.607-12.759c2.354,0,2.602,1.362,2.602,3.406
		c0,3.716-5.946,3.84-10.653,7.804c0.681,1.549,2.043,4.149,4.459,4.149c5.141,0,10.901-7.494,11.954-7.494
		c0.743,0,1.486,0.743,1.486,1.425C60.727,44.5,52.056,53.728,45.676,53.728z"/>
	<path fill="#00FFA1" d="M78.443,51.932c-1.858,0.619-7.247,1.177-9.229,1.177c-1.672,0.93-3.84,1.053-5.45,1.053
		c-1.363,0-2.911-0.186-4.088-1.053c-2.973,7.557-3.84,13.192-5.636,19.2c-0.619,1.858-3.344,3.469-4.335,3.469
		c-1.362,0-1.548-2.23-1.548-3.097c0-5.018,7.123-16.599,10.096-26.818c1.115-3.716,0.681-7.37,0.681-9.786
		c0-1.053,1.053-3.468,3.283-3.468c2.292,0,2.292,3.653,1.858,5.821c1.362-1.61,3.84-4.954,6.999-4.954
		c2.973,0,4.274,3.406,4.274,6.317c0,3.964-1.858,7.865-2.973,9.538c2.354,0.31,7.309-1.115,8.423-1.115
		c0.743,0,0.867,0.558,0.867,1.425C81.664,51.189,80.301,51.437,78.443,51.932z M64.941,47.04c-0.805,0-1.548,0.31-1.61,1.177
		c0,0.682,0.681,1.425,1.734,1.425c0.434,0.062,0.991-0.187,1.549-0.496C66.118,48.031,65.375,47.04,64.941,47.04z M68.596,39.236
		c-1.549,0-3.592,2.354-4.212,3.53c1.486-0.063,3.468,0.867,4.645,2.602c0.372-1.363,0.991-3.098,1.053-4.521
		C70.144,39.855,69.339,39.236,68.596,39.236z"/>
</g>
</svg>
