<svg width="311.71mm" height="370.35mm" viewBox="0 0 311.70987 370.35056" xmlns="http://www.w3.org/2000/svg"><path fill="none" d="M761.59 212.415h6.609v5.647h-6.609z"/><path d="M77.82 369.695c-4.895-1.282-8.403-4.077-10.539-8.4-1.278-2.585-1.314-2.768-1.314-6.558 0-3.65.071-4.05 1.123-6.27 2.02-4.263 5.72-7.3 10.381-8.524 1.046-.274 1.663-.58 1.372-.681-.291-.1-1.72-.528-3.175-.95-12.5-3.626-22.81-14.173-26.584-27.196-1.332-4.596-1.761-8.31-1.54-13.336.38-8.698 3.415-15.672 9.382-21.563 4.25-4.196 9.63-7.16 15.791-8.701 3.651-.913 11.396-.813 15.121.196 9.456 2.561 17.111 9.356 21.007 18.642 4.746 11.313 3.684 22.726-2.95 31.73-5.367 7.28-15.156 10.997-24.023 9.119-6.241-1.323-13.213-6.31-16.948-12.125-4.866-7.578-5.326-15.451-1.38-23.632 2.88-5.968 8.067-10.241 14.24-11.73 2.617-.631 7.43-.537 10.231.2 6.913 1.819 12.312 6.96 14.254 13.572.701 2.386.732 7.648.06 10.173-1.302 4.893-4.319 9.142-7.78 10.96-2.454 1.289-6.86 1.333-9.62.096-2.106-.944-2.19-1.224-1.292-4.296.67-2.289 2.286-4.115 3.912-4.42.671-.126 2.222.04 3.653.39 3.182.78 6.161.6 7.654-.464.602-.428 1.447-1.507 1.878-2.399.677-1.397.755-1.977.566-4.205-.812-9.612-8.412-16.393-18.4-16.416-8.642-.02-14.74 4.378-17.299 12.475-1.035 3.276-1.254 8.316-.495 11.36 1.846 7.397 7.688 13.061 15.501 15.027 3.147.792 9.198.626 12.347-.34 7.721-2.366 13.331-8.13 15.504-15.929 3.777-13.55-3.172-28.408-16.008-34.228-8.94-4.053-20.793-3.061-29.203 2.444-13.468 8.815-18.205 24.988-11.781 40.22 4.539 10.763 14.387 18.057 28.479 21.096 2.385.514 4.551.635 11.245.627 7.294-.008 8.735-.106 11.994-.815 11.114-2.417 19.554-6.86 26.217-13.803 9.452-9.847 15.669-24.395 17.946-41.994.24-1.855.433-7.208.433-11.994 0-9.389-.393-13.044-2.18-20.285l-.958-3.88-.226 5.997c-.455 12.063-3.294 19.489-9.982 26.109-4.217 4.173-8.203 6.422-12.978 7.32-10.502 1.978-20.516-10.863-15.424-19.78 2.945-5.157 9.873-6.084 14.474-1.935 1.871 1.687 2.767 3.633 2.777 6.03.013 3.072-1.185 4.657-3.52 4.657-2.695 0-3.381-1.801-2.114-5.551.982-2.909.993-3.841.055-4.779-1.034-1.034-4.316-1.241-6.768-.427-4.025 1.337-5.86 4.785-4.784 8.986 1.641 6.406 8.027 10.412 15.113 9.477 5.737-.756 13.662-6.668 17.197-12.829 1.412-2.46 3.042-7.544 3.548-11.062.53-3.678.245-13.273-.503-16.984-.294-1.46-1.325-5.745-2.29-9.525-2.44-9.546-3.242-14.552-3.473-21.689-.315-9.697 1.013-16.556 4.654-24.034 2.41-4.952 5.172-8.622 9.837-13.076 4.048-3.864 8.166-6.838 13.273-9.584 5.071-2.727 3.443-2.167-2.425.834-12.756 6.524-20.907 15.321-25.005 26.987-2.387 6.794-3.38 13.27-3.949 25.753-.664 14.588-1.441 19.49-3.888 24.518-3.582 7.364-9.116 11.21-16.702 11.608-1.588.083-4.317.01-6.063-.162a90.144 90.144 0 0 0-6.438-.353c-1.795-.02-3.263-.17-3.263-.332s.798-1.489 1.775-2.948c1.952-2.92 4.882-5.402 8.04-6.812 1.033-.46 4.288-1.566 7.232-2.455 6.227-1.88 8.516-2.918 10.734-4.87 3.956-3.483 5.707-8.42 6.267-17.665 1.228-20.28 5.512-33.184 14.526-43.76l2.392-2.806-1.852 1.587c-3.684 3.16-7.113 7.712-9.697 12.876-2.67 5.338-4.118 9.964-6.79 21.696-2.657 11.663-4.72 16.567-8.622 20.49-4.815 4.84-11.752 6.762-17.731 4.916-3.931-1.215-8.686-4.778-10.974-8.226-4.958-7.469-2.957-15.892 4.75-20 3.897-2.076 7.605-1.419 11.28 2.002 2.428 2.26 3.48 4.535 3.484 7.54.007 4.65-2.922 8.105-6.857 8.088-4.549-.02-8.113-3.92-6.973-7.632.352-1.149.332-1.198-.395-.972-1.07.332-2.544 1.417-3.395 2.498-.926 1.177-.954 3.983-.06 5.937 2.283 4.989 10.454 9.453 16.243 8.873 2.767-.277 6.02-1.999 7.96-4.214 3.653-4.168 6.086-10.464 9.319-24.114 2.79-11.782 4.64-16.5 8.937-22.785 8.338-12.2 21.304-19.568 41.37-23.508 2.911-.571 6.8-1.224 8.644-1.451 8.994-1.107 11.36-1.484 14.399-2.298a46.472 46.472 0 0 0 16.238-8.024c2.186-1.678 9.227-8.65 9.227-9.134 0-.172-.874.4-1.943 1.27-8.9 7.249-19.252 11.707-31.218 13.444-6.066.88-17.371.556-24.518-.704-6.749-1.19-15.47-3.446-23.989-6.207-8.043-2.606-11.599-3.434-16.051-3.739-10.563-.721-17.302 4.073-18.928 13.47-1.238 7.148 1.549 12.96 7.563 15.774 3.766 1.763 7.97 1.77 13.028.025 1.516-.523-2.101 1.85-4.662 3.057-4.275 2.018-7.851 2.561-11.425 1.738-5.36-1.236-10.07-5.933-12.07-12.034-1.185-3.62-1.201-9.295-.035-12.683 1.515-4.404 4.161-7.994 7.958-10.8 1.703-1.26 1.71-1.27.957-1.838-1.21-.913-2.137-2.57-2.14-3.828-.002-1.36 1.355-2.83 2.898-3.138.54-.108.973-.295.963-.417-.01-.12-1.77-1.247-3.91-2.501-7.142-4.185-14.372-10.691-20.065-18.057-3.198-4.14-4.447-6.41-7.948-14.444-1.58-3.627-3.3-7.321-3.82-8.209-1.617-2.76-4.598-5.672-7.185-7.02-2.866-1.492-4.037-1.768-7.345-1.729-6.766.079-11.343 4.387-11.728 11.04-.187 3.232.419 5.277 2.145 7.244.88 1.003 3.278 2.588 3.915 2.588.09 0 .336-.812.549-1.805.473-2.205 1.42-3.602 2.844-4.192 1.574-.652 3.765-.245 4.988.927 3.91 3.746.293 9.809-6.143 10.294-1.755.132-2.354-.002-4.299-.959-4.41-2.172-6.837-6.089-7.16-11.558-.327-5.559 2.17-10.54 6.898-13.762 5.087-3.467 11.596-3.58 16.452-.284.693.47 1.26.742 1.26.602s-.812-1.603-1.803-3.253C61.995 58.09 52.507 51.428 41.803 50.91c-4.636-.224-7.893.417-11.914 2.346-6.725 3.226-9.843 8.486-8.39 14.156 1.447 5.65 5.572 9.608 9.97 9.569 1.918-.017 1.922-.015 1.278.71-1.009 1.134-3.299 2.022-5.232 2.026-6.523.016-12.593-8.556-11.162-15.766 1.05-5.294 4.834-9.882 10.426-12.642 4.3-2.123 7.384-2.74 12.554-2.517 8.022.347 16.25 3.86 23.58 10.065 2.622 2.22 2.405 1.609-.734-2.064-7.53-8.814-16.483-13.463-26.022-13.514-6.293-.034-9.433 1.038-14.734 5.033-5.717 4.307-9.672 9.434-11.176 14.484-2.44 8.193 2.747 19.63 10.68 23.55 2.522 1.247 2.857 1.32 6.04 1.318 3-.001 3.574-.109 5.233-.982 2.647-1.392 4.52-3.387 5.14-5.478 1.323-4.454 2.85-5.382 5.306-3.225 1.57 1.378 2.098 3.522 1.462 5.934-.604 2.29-1.095 3.156-2.777 4.903-3.55 3.688-10.711 4.202-17.89 1.286-5.72-2.325-10.086-6.832-12.485-12.892C7.128 67.543 8.997 57.472 16 50.028c3.48-3.7 1.898-2.937-2.774 1.337-1.843 1.687-4.145 3.439-5.115 3.893-2.282 1.07-4.656 1.09-6.629.056l-1.485-.778 1.411-.213c2.333-.353 3.612-1.277 8.08-5.83 3.552-3.62 4.685-4.547 6.738-5.52 2.625-1.242 2.375-1.22 10.67-.933.728.025 2.432-.155 3.787-.4 8.195-1.481 21.567 3.537 29.844 11.2 1.342 1.243 2.44 2.1 2.44 1.904s-.81-1.567-1.8-3.047c-2.051-3.069-4.274-4.912-7.906-6.559-5.373-2.435-6.158-2.876-7.581-4.257-1.277-1.24-3.173-4.59-3.173-5.607 0-.185.55-.074 1.222.246 1.142.545 1.465.541 4.94-.055 4.85-.83 7.213-.614 10.545.968 3.432 1.63 5.905 4.132 7.65 7.74 1.597 3.303 2.466 6.825 3.678 14.918 1.706 11.383 2.802 15.657 5.335 20.814 2.448 4.984 3.14 5.58 1.709 1.473-4.091-11.742-3.507-22.37 1.49-27.119l1.002-.951v2.028c0 2.607 1.222 5.067 5.369 10.811 3.56 4.931 5.599 8.66 5.915 10.816.162 1.105-.027 2.466-.679 4.883-2.82 10.464-1.512 19.86 3.921 28.139 3.862 5.885 16.104 15.248 19.946 15.254 1.825.003 3.6.61 9.272 3.173 5.198 2.348 8.52 3.539 11.26 4.036 1.253.228 1.026.01-2.421-2.333-4.715-3.205-3.854-2.712-8.782-5.024-10.337-4.85-18.574-12.252-23.222-20.87-2.97-5.505-5.018-12.008-6.157-19.554-.9-5.966-.87-24.567.055-32.808 1.91-17.027 3.035-32.772 3.056-42.774L97.632 0h4.757l.201 2.91c.614 8.886-.36 21.692-3.296 43.303-3.887 28.623-2.614 44.161 4.721 57.597 4.417 8.091 12.683 16.302 21.924 21.78 1.348.8 1.326.759-.49-.906-1.045-.958-2.116-1.868-2.378-2.023-.79-.464-7.087-7.568-9.391-10.595-6.648-8.733-11.29-18.83-13.336-29.007-1.09-5.427-1.34-15.045-.535-20.618 2.828-19.567 13.74-36.879 30.367-48.169 9.397-6.381 19.81-9.848 30.865-10.277 10.898-.422 19.733 1.637 28.722 6.694 15.55 8.748 24.915 23.287 24.896 38.65-.016 12.64-6.427 23.697-16.752 28.89-6.73 3.386-14.502 4.002-21.301 1.69-3.917-1.332-6.29-2.858-9.585-6.162-6.138-6.155-8.569-14.29-6.306-21.099 1.728-5.197 7.717-8.955 11.195-7.025 3.108 1.725 2.729 5.964-.623 6.968-1.157.347-1.558.31-2.71-.256-.744-.364-1.697-1.18-2.118-1.812l-.765-1.149-.971 1.15c-4.298 5.084-3.03 14.143 2.897 20.692 2.26 2.499 6.743 5.565 10.002 6.842 10.508 4.119 22.238-.758 29.258-12.165 3.584-5.824 5.075-11.015 5.096-17.749.022-6.772-1.236-10.888-5.09-16.65-8.205-12.269-20.094-20.07-34.38-22.562-2.43-.424-4.707-.512-9.701-.377-5.758.155-7.004.3-10.583 1.23-4.891 1.27-8.716 2.75-12.815 4.959-2.962 1.596-9.55 6.037-9.312 6.276.065.065.743-.055 1.507-.266 2.786-.77 6.675.247 8.52 2.225 1.154 1.237 1.87 3.225 1.87 5.193 0 2.817-.135 2.943-2.086 1.963-5.067-2.545-10.073-2.49-15.73.17-12.265 5.768-23.101 24.626-23.106 40.212-.001 3.946.604 7.88 1.184 7.692.908-.295 2.071-3.306 3.212-8.313.665-2.92 1.44-5.754 1.723-6.298.835-1.604 2.171-2.621 3.716-2.828 2.068-.278 3.53.438 4.27 2.09l.61 1.365 3.137.073c2.635.062 3.46.233 5.162 1.068 3.673 1.804 6.606 5.612 7.182 9.325.3 1.942-.173 1.905-1.234-.095-1.034-1.948-2.928-3.705-5.403-5.008-1.697-.894-2.198-.983-5.569-.983-3.51 0-3.83.063-6.097 1.201-6.884 3.454-9.078 8.655-7.49 17.757 1.77 10.156 8.12 20.942 18.334 31.148 7.838 7.83 15.795 13.023 24.345 15.884 4.65 1.556 4.999 1.548 3.508-.08-1.517-1.656-2.414-4.295-2.399-7.055.009-1.716.249-2.657 1.136-4.458 1.57-3.191 3.83-4.803 7.468-5.326l1.588-.228.004 3.977c.003 3.236.156 4.421.823 6.359 2.015 5.86 6.88 9.818 14.696 11.956 2.428.664 3.757.774 9.525.788 6.005.015 7.18-.084 11.289-.954 20.792-4.402 38.638-16.942 48.659-34.192 1.209-2.082.99-2.195-.342-.177-5.08 7.705-13.947 12.965-21.852 12.965-7.478 0-12.249-4.418-12.249-11.344 0-1.106.11-2.657.243-3.447.21-1.246.157-1.436-.406-1.438-1.492-.005-3.434-.832-4.756-2.026-3.764-3.401-4.176-9.303-.908-13.025.826-.94 3.928-2.939 4.563-2.939.055 0 .1 2.103.1 4.674 0 4.593.02 4.715 1.175 7.015 2.216 4.416 6.817 7.913 12.054 9.162 3.035.725 8.51.57 11.741-.333 5.069-1.415 11.746-5.41 15.043-9.003.851-.927.843-.926-1.984.3-6.908 2.993-14.566 3.682-20.037 1.802-3.259-1.12-4.694-1.938-6.808-3.878-5.86-5.382-6.635-16.471-1.657-23.7 3.116-4.525 7.7-6.076 12.832-4.342 4.507 1.522 6.817 4.295 6.854 8.227.066 6.964-6.051 10.562-11.314 6.655-2.237-1.661-3.192-5.049-2.044-7.25.674-1.293.206-1.273-2.557.108-4.477 2.238-6.515 6.892-5.223 11.932 1.1 4.293 4.1 7.795 7.904 9.228 2.9 1.093 7.718.867 11.184-.524 7.072-2.837 14.496-10.103 17.41-17.039 2.034-4.843 2.492-16.893 1.163-30.605-.971-10.023-1.455-17.13-1.46-21.435l-.004-3.443-1.867 1.521c-6.494 5.289-14.37 8.365-21.42 8.365-11.053 0-21.54-7.737-25.102-18.521-.655-1.98-.816-3.24-.815-6.35 0-2.299.19-4.42.465-5.204l.464-1.323h5.608l-.582 1.125c-.332.643-.658 2.356-.76 4.006-.572 9.155 5.053 17.74 13.292 20.292 7.657 2.37 16.482-.16 24.26-6.957 3.593-3.14 4.305-4.267 5.385-8.515.529-2.077 1.415-5.166 1.971-6.864l1.01-3.086h2.774c2.48 0 2.753.065 2.58.617-.466 1.491-1.58 7.63-2 11.024-.535 4.311-.625 16.76-.208 28.548.612 17.28.19 25.997-1.656 34.192-.609 2.7-.748 4.03-.538 5.115.156.806.29 3.236.299 5.4.036 9.328-3.132 19.973-8.14 27.347-2.805 4.131-3.972 7.844-3.972 12.64 0 7.098 2.972 12.852 7.938 15.368 6.081 3.081 12.35-.084 14.993-7.57.807-2.287.823-2.304.825-.92.004 1.993-.89 5.537-1.895 7.52-3.944 7.785-14.289 10.699-19.497 5.491-1.507-1.507-2.585-4.088-2.585-6.19v-.99l-1.146.7c-3.267 1.992-6.264-.724-6.26-5.672.002-2.976.382-4.288 2.651-9.16 1.888-4.054 2.799-6.904 2.305-7.209-.504-.311-4.328 4.251-6.89 8.222-2.162 3.35-3.853 7.034-4.78 10.42-.858 3.124-1.032 8.633-.353 11.156 1.158 4.305 4.446 8.244 7.813 9.363 1.774.589 5.221.594 6.837.01.388-.14-.01.394-.882 1.187-3.308 3.004-8.657 3.795-10.93 1.617-1.371-1.314-1.35-.641.062 2.01 3.999 7.501 14.211 7.326 22.594-.39l2.534-2.332-1.22 1.716c-2.031 2.853-5.687 6.036-8.568 7.46-5 2.471-10.716 2.027-15.409-1.197-3.692-2.538-6.749-7.218-7.998-12.247-.87-3.5-.798-10.39.145-13.883.603-2.234.623-2.52.136-1.903-.315.4-1.58 2.015-2.811 3.589-2.951 3.772-8.368 8.937-12.398 11.82-6.607 4.726-13.52 7.572-22.405 9.225-11.881 2.21-14.756 3.342-18.677 7.355-2.528 2.587-4.872 6.268-6.4 10.052-4.961 12.28 3.93 24.285 17.492 23.618 3.472-.171 5.799-1.151 7.963-3.354 3.3-3.36 3.53-8.064.424-8.71-.442-.091-1.722-.228-2.846-.303-2.483-.167-3.766-1.014-4.437-2.93-.669-1.91-.058-4.015 1.717-5.918 1.318-1.413 1.432-1.46 3.591-1.46 2.844 0 4.601.883 6.383 3.206 3.73 4.86 2.956 12.136-1.81 17.029-3.52 3.614-7.553 5.323-12.587 5.334-9.777.023-17.055-5.524-19.417-14.8-.86-3.378-.548-9.485.677-13.238 1.81-5.542 6.035-11.28 10.581-14.367 3.589-2.436 7.12-3.797 16.816-6.48 2.62-.725 5.24-1.537 5.821-1.806.97-.448.802-.473-1.981-.297-21.61 1.37-39.771 17.204-45.588 39.745-1.896 7.348-2.154 16.804-.62 22.716 1.03 3.97 3.496 8.801 5.622 11.02 3.844 4.008 7.81 5.559 13.567 5.304 4.047-.18 5.954-.83 8.19-2.792 3.487-3.062 3.532-8.806.089-11.36-1.13-.837-5.017-1.27-5.658-.629-.294.295-.209.397.331.397.963 0 2.467 1.212 3.155 2.544 1.184 2.289-.643 5.217-3.254 5.217-3.084 0-5.599-2.634-5.553-5.817.04-2.73 1.29-4.64 3.9-5.96 3.345-1.689 8.138.753 10.364 5.278 1.246 2.536 1.21 6.072-.085 8.275-1.362 2.317-4.195 4.808-6.912 6.08-1.939.907-2.924 1.134-5.455 1.255-5.127.245-8.722-1.094-12.55-4.675-6.289-5.882-9.948-15.587-9.95-26.383 0-9.31 3.415-19.661 9.48-28.728 1.176-1.759 2.889-4.054 3.805-5.1 3.051-3.485 3.135-3.652.851-1.713-4.288 3.641-8.95 9.721-11.774 15.358-6.54 13.052-6.913 29.814-.943 42.323 3.197 6.697 9.288 13.973 14.653 17.5 5.721 3.763 7.734 3.736 16.912-.23 7.768-3.356 8.298-3.404 14.23-1.266 6.032 2.175 8.548 1.933 11.132-1.07l1.33-1.546-.25 1.411c-1.282 7.235-6.56 12.368-14.546 14.145-3.834.853-10.109.537-14.365-.724-9.162-2.714-17.979-9.149-24.67-18.007-1.32-1.746-2.285-2.778-2.145-2.293 2.629 9.106 10.694 17.604 22.405 23.606 7.807 4.001 18.972 8.026 27.096 9.767 15.569 3.336 30.474-.786 34.958-9.668 1.579-3.127 1.994-5.814 1.312-8.479-.811-3.167-1.812-4.892-4.236-7.303-2.65-2.636-4.94-3.793-7.877-3.982-1.884-.121-2.418-.01-3.784.791-1.89 1.107-3.973 3.704-4.279 5.331-.594 3.166 1.432 4.131 7.735 3.687 1.729-.122 2.145-.037 2.557.528 1.06 1.45.201 4.56-1.629 5.9-1.172.859-4.133 1.191-5.776.65-5.756-1.9-6.56-10.296-1.473-15.383 6.484-6.484 17.865-1.663 20.518 8.69.697 2.722.49 5.033-.744 8.312-2.5 6.64-8.101 11.128-16.753 13.419-2.454.65-11.864.892-15.346.395-1.702-.243-1.66-.21 1.235.977 4.44 1.82 8.676 3.983 11.503 5.873 2.993 2 6.668 5.796 8.162 8.43 3.271 5.765 3.706 13.356 1.184 20.673-1.457 4.225-2.962 6.557-6.591 10.212-2.749 2.767-3.678 3.454-6.527 4.82-3.927 1.885-7.35 2.713-11.218 2.713-7.34 0-14.119-2.944-18.967-8.238-7.653-8.357-7.595-20.428.138-28.81 3.743-4.057 7.734-5.992 12.363-5.992 6.012 0 12.246 3.695 14.704 8.714 2.568 5.245.806 11.794-3.811 14.17-4.713 2.426-10.202.34-11.487-4.363-1.028-3.762-.173-5.488 3.668-7.409l2.822-1.41-.032-1.516c-.11-5.312-7.734-6.27-14.507-1.825-5.429 3.563-8.43 9.686-7.51 15.33.719 4.421 4.379 10.955 8.028 14.332 4.185 3.873 8.707 5.454 14.727 5.148 10.52-.535 20.525-8.675 23.117-18.808 1.207-4.72.788-8.422-1.493-13.191-1.19-2.488-1.982-3.543-4.65-6.193-6.263-6.222-14.278-10.462-32.273-17.075-13.624-5.007-18.744-7.44-24.348-11.574-2.936-2.166-6.714-5.87-8.058-7.9-.493-.746-.928-1.355-.966-1.355-.039 0 .526 1.73 1.256 3.845 4.844 14.045 5.489 30.572 1.76 45.09-2.216 8.627-6.613 17.082-12.09 23.245-9.266 10.427-20.728 17.374-33.534 20.325-2.656.612-4.516.762-9.968.804-7.326.057-8.714.289-12.77 2.134-3.034 1.38-5.824 3.871-7.084 6.326-1.388 2.704-1.518 6.92-.32 10.366 1.07 3.078 2.582 5.662 5.1 8.724 2.107 2.562 2.056 2.601-2.001 1.538zm231.55-64.269c-3.622-2.671-6.16-6.203-7.84-10.914-.774-2.171-.926-3.213-.945-6.476-.021-3.697.034-4.002 1.128-6.223a12.716 12.716 0 0 1 8.816-6.818l1.146-.236v6.618l-1.594.774c-2.15 1.045-4.72 3.466-5.507 5.187-1.35 2.954-.557 6.757 2.305 11.062.884 1.33 2.333 3.086 3.22 3.904 1.515 1.396 1.606 1.584 1.506 3.089l-.106 1.602zm-20.3-44.877c-1.47-1.043-3.655-2.878-4.855-4.078-4.016-4.016-5.094-6.64-6.056-14.743-.897-7.554-1.347-9.217-3.883-14.361-2.24-4.547-3.304-6.157-3.764-5.698-.158.159-.306 2.855-.327 5.992-.045 6.55-.324 7.585-2.712 10.066-3.12 3.241-7.438 4.14-11.106 2.312-2.06-1.026-3.217-2.255-4.588-4.873-.796-1.52-.945-2.252-.95-4.682-.007-2.637.082-3.007 1.05-4.383 2.083-2.956 5.927-3.982 8.783-2.344 4.682 2.684 2.476 9.206-2.78 8.22-1.223-.23-3.356-2.094-3.356-2.934 0-.266-.16-.385-.353-.265-.546.337-.417 3.927.193 5.386 2.797 6.695 12.23 4.977 14.078-2.564.143-.582.228-3.122.188-5.644-.127-8.235 0-7.538-1.8-9.878-3.404-4.428-6.311-9.298-8.32-13.935l-.84-1.94.207 2.506c.433 5.253-1.158 12.037-3.786 16.143-4.796 7.493-12.345 12.469-22.851 15.064-2.9.716-4.232.829-9.878.835-6.896.007-9.22-.337-13.406-1.987-9.605-3.785-15.875-13.734-15.875-25.19 0-11.855 6.248-20.955 15.96-23.244 9.587-2.26 17.895 2.809 19.343 11.802.64 3.971-.977 8.079-4.06 10.314-3.684 2.672-8.487 2.468-11.703-.497-2.724-2.51-3.334-6.08-1.31-7.671 1.995-1.57 4.634-.367 6.161 2.81 1.185 2.464 2.35 3.54 4.061 3.748 3.194.391 5.55-3.057 5.577-8.16.012-2.446-.113-3.04-.936-4.44-2.428-4.13-7.31-6.673-12.808-6.673-7.355 0-13.787 4.987-16.15 12.524-1.11 3.543-1.09 10.12.044 14.11 1.559 5.488 4.732 10.73 8.408 13.888 2.327 1.999 6.49 4.09 9.462 4.753 15.757 3.514 34.058-4.147 38.629-16.17.306-.805.23-.784-1.263.356-1.74 1.328-4.48 2.29-6.525 2.29-.72 0-2.389-.334-3.708-.741-2.025-.626-2.735-1.078-4.566-2.91-2.809-2.812-3.806-5.213-3.832-9.226-.03-4.701 1.988-8.137 5.893-10.033 2.156-1.047 6.946-1.867 6.946-1.19 0 .167-.573.611-1.272.988-2.359 1.27-4.378 4.387-4.37 6.748.003 1.39.758 3.295 1.707 4.31 2.816 3.015 7.54 1.627 9.73-2.858 1.517-3.11 3.444-12.15 3.55-16.662.254-10.835 3.451-17.897 14.292-31.574 6.108-7.706 7.522-9.802 10.039-14.882 3.563-7.193 4.79-12.782 4.796-21.856.009-13.4-1.202-17.793-9.807-35.581-7.51-15.526-10.501-23.876-12.318-34.396-.676-3.914-.827-17.213-.233-20.461.27-1.47.364-.637.57 4.999.595 16.247 3.883 27.749 13.747 48.094 5.163 10.65 7.156 15.122 8.532 19.152 2.273 6.65 3.444 14.189 3.438 22.123-.006 7.852-1.23 14.238-3.924 20.49-1.988 4.611-4.2 8.107-8.711 13.768-5.9 7.403-7.657 10.908-7.675 15.307-.01 2.367.144 3.144.954 4.819 2.013 4.168 5.318 6.436 9.41 6.457 1.877.01 2.59-.163 3.937-.955.905-.531 1.998-1.537 2.428-2.233.838-1.355 1.267-3.797.914-5.202l-.216-.86-1.218 1.148c-1.896 1.788-4.46 1.977-6.593.487-1.247-.87-1.85-2.466-1.638-4.34.476-4.225 4.776-6.032 9.09-3.82 1.523.782 2.1 1.347 2.963 2.901.912 1.643 1.072 2.3 1.067 4.41-.01 4.16-1.997 7.61-5.502 9.551-1.693.938-2.2 1.042-5.056 1.042-2.672 0-3.443-.137-4.862-.862-3.461-1.768-7.168-6.817-7.878-10.729l-.265-1.462-.257 1.411c-2.477 13.592 2.988 27.642 13.873 35.665 10.236 7.545 23.527 7.944 31.022.933l1.734-1.622-.103 2.973-.103 2.973-2.646 1.323c-11.37 5.686-27.076 3.11-36.764-6.029-6.327-5.968-9.59-13.956-10.037-24.575-.392-9.29 1.798-18.54 5.87-24.796l1.082-1.663-1.28 1.412c-4.378 4.828-7.894 12.305-9.137 19.426-.707 4.048-.71 11.09-.008 15.147 1.636 9.452 5.951 18.07 12.497 24.96 5.367 5.649 12.356 10.007 18.55 11.567 4.011 1.01 10.37 1.432 16.404 1.088 2.813-.16 5.234-.226 5.38-.147.145.08.264 2.776.264 5.992v5.848l-1.676-.196-1.675-.195 1.668.765c1.48.678 1.67.893 1.676 1.896l.007 1.13-2.558-1.076c-11.593-4.879-14.643-6.23-17.727-7.857-6.553-3.455-11.285-6.823-14.365-10.224-1.515-1.673-1.608-1.42-.606 1.63 1.245 3.79 2.885 5.753 7.328 8.766 2.167 1.47 4.352 3.058 4.855 3.528 2.289 2.138 3.863 6.302 4.232 11.192.297 3.932-.116 9.952-.682 9.937-.225-.006-1.611-.865-3.082-1.908zm8.523-57.186c-2.444-.679-3.811-1.534-5.662-3.542-4.799-5.206-4.55-14.45.535-19.886 4.014-4.29 11.225-5.786 16.916-3.508l2.117.848.095 7.908c.09 7.537.066 7.883-.53 7.372-1.355-1.165-1.464-1.09-1.261.877.26 2.518-.588 5.338-2.156 7.17-2.229 2.604-6.448 3.762-10.054 2.76zm-6.03-27.944c-.005-2.25-.619-4.91-1.567-6.79-.852-1.69-3.252-4.135-4.956-5.048-1.998-1.072-6.116-1.067-8.147.008-3.118 1.65-4.706 4.739-4.754 9.248l-.025 2.318-.531-1.411c-.36-.955-.484-2.223-.384-3.917.191-3.26 1.634-6.203 5.946-12.135 8.84-12.161 12.049-18.432 13.94-27.246.883-4.11.884-12.641.005-17.381-1.399-7.525-5.093-16.984-12.086-30.95-7.138-14.254-11.461-25.602-12.29-32.259l-.212-1.702.58 1.412c.319.776 1.458 3.633 2.532 6.35 8.092 20.467 21.194 38.71 37.565 52.306 4.23 3.513 4.498 3.81 4.498 5 0 .967-.184 1.345-.785 1.612-.432.191-1.022.774-1.312 1.294-.472.85-.465 1.075.074 2.205.395.829.843 1.259 1.312 1.259.573 0 .71.232.71 1.193 0 .94-.168 1.24-.793 1.407-3.34.895-6.763-.985-9.622-5.286-.66-.992-2.48-4.802-4.046-8.466-2.908-6.806-5.688-12.206-7.249-14.08-.64-.768-.49-.325.555 1.654 2.065 3.906 2.884 6.148 5.814 15.894 1.44 4.796 3.097 9.664 3.679 10.817 2.169 4.297 6.717 8.55 10.286 9.62l1.376.412v20.796c0 19.67-.033 20.782-.617 20.538-6.265-2.62-12.082-1.913-17.815 2.165l-1.676 1.192-.004-2.028zm9.928-10.13c1.647-.263 3.918-1.913 5.107-3.71 2.5-3.777 1.34-9.422-2.318-11.288-2.452-1.251-4.516-.756-5.501 1.32-.694 1.462-.355 2.529 1.108 3.487.922.605.958.6 1.61-.245 1.577-2.043 2.06-2.452 2.888-2.452 1.093 0 2.687 1.805 2.75 3.114.024.518.083 1.327.13 1.797.22 2.173-2.013 5.676-4.39 6.892-3.981 2.036-9.016-.165-11.14-4.87-1.844-4.078-1.492-7.581 1.755-17.48 3.137-9.563 3.374-10.575 3.6-15.382.181-3.828.094-4.747-.907-9.598-1.25-6.054-2.333-9.61-4.078-13.385-1.272-2.754-2.013-3.626-.93-1.094 1.245 2.909 3.754 12.55 4.66 17.903.18 1.067.331 3.687.335 5.82.01 4.87-.917 8.73-3.658 15.233-2.508 5.95-3.384 8.817-3.647 11.932-.494 5.842 2.773 10.566 8.321 12.033.887.234 1.93.37 2.318.302.388-.068 1.282-.216 1.987-.328zm.941-27.776c.82-.82.441-2.058-1.151-3.76-.866-.926-1.73-2.07-1.918-2.542-.292-.731-.347-.591-.366.94-.026 2.125.505 3.892 1.5 4.992.807.892 1.316.99 1.935.37zm-39.975 19.552c2.905-5.955 5.261-12.916 6.354-18.776.573-3.07.785-11.386.336-13.173-.223-.892-.328-.768-1.364 1.616-1.45 3.336-2.876 5.38-5.288 7.586-1.964 1.794-4.37 2.913-6.266 2.913-1.364 0-4.318-1.168-5.788-2.29-2.652-2.022-4.37-6.931-3.859-11.03.335-2.683 1.018-4.398 3.913-9.826 6.25-11.718 7.577-15.77 7.668-23.42.031-2.62-.162-6.597-.43-8.839-.378-3.177-.393-4.249-.065-4.86.23-.431.74-2.169 1.13-3.861.6-2.599.742-4.78.907-14.014.107-6.015.33-11.174.495-11.465.204-.36.304-.079.312.882.018 2.13.948 7.035 2.138 11.272 1.366 4.865 3.351 9.86 8.273 20.813 8.279 18.425 10.257 24.884 10.647 34.766.32 8.08-1.121 14.812-4.807 22.47-3.185 6.615-8.054 13.613-13.264 19.06l-1.95 2.038zm-.389-27.58c1.331-.506 3.79-2.863 4.329-4.15.261-.624.475-1.94.475-2.924 0-4.63-4.418-7.797-6.848-4.91-1.03 1.225-1.079 1.47-.508 2.555.84 1.594 1.318 1.623 2.96.182 1.088-.956 1.409-1.07 2.217-.786 2.144.753 2.051 5.262-.156 7.613-3.55 3.78-8.938 2.844-11.54-2.006-.607-1.13-.756-2.006-.75-4.41.01-3.74.67-5.412 5.103-12.9 5.628-9.508 6.43-12.201 6.41-21.495-.012-5.66-.348-9.229-1.096-11.642-.223-.72-.252-.099-.089 1.94.132 1.65.237 6.174.234 10.054-.005 6.247-.096 7.37-.797 9.804-1.04 3.613-2.77 6.99-5.912 11.533-4.786 6.922-6.228 10.67-5.47 14.207.694 3.234 2.819 6.018 5.482 7.181 1.247.545 4.692.634 5.956.153zm14.844-13.79c.705-4.349.698-10.904-.016-14.374-.767-3.735-2.648-8.681-5.058-13.302-2.227-4.273-7.802-13.686-7.992-13.495-.066.066.186 1.105.561 2.31 1.366 4.388 1.635 10.131.854 18.241-.26 2.69.382 6.7 1.408 8.795.503 1.028 2.128 3.28 3.612 5.004 3.923 4.56 4.828 6.091 5.573 9.438.124.556.29.946.371.866.08-.08.39-1.647.687-3.482zm-1.33-4.746c-.158-.388-.56-1.42-.894-2.293-.469-1.227-1.126-1.975-2.888-3.288-4.419-3.293-5.141-5.435-4.783-14.175.209-5.085.082-7.108-.662-10.583-.298-1.39 4.388 7.734 6.523 12.7 2.501 5.818 3.211 9.07 3.09 14.154-.062 2.585-.21 3.92-.386 3.484zm-6.736 2.82c.784-1.196.275-2.37-1.998-4.608-2.108-2.077-3.135-4.545-3.188-7.662l-.037-2.192-.465 1.411c-.656 1.99-.629 6.618.053 9.047 1.128 4.022 4.196 6.201 5.635 4.004zm-7.1-.847c.118-.37-.095-1.854-.473-3.298-.383-1.463-.61-3.195-.514-3.913.223-1.654-.08-1.641-.779.031-1.337 3.2-1.458 6.154-.3 7.312.745.746 1.81.678 2.067-.132zm.429-40.315c-.113-.282-.197-.198-.214.213-.015.372.068.58.186.463.117-.117.13-.422.028-.676zm45.829 56.66c-1.629-.596-3.578-2.016-4.095-2.983-.321-.6-.204-.576.919.186 1.556 1.056 3.337 1.584 5.348 1.587 1.364.002 1.5.082 1.5.884 0 .765-.152.878-1.147.857-.63-.014-1.767-.252-2.525-.53zm.05-3.348c-4.146-1.001-7.574-4.634-9.41-9.971-.379-1.1-.62-2-.536-2 .083 0 .621.93 1.195 2.065 1.27 2.516 4.17 5.76 6.226 6.965 1.635.958 3.575 1.16 5.176.537.96-.373.97-.361.97 1.025 0 .884-.162 1.404-.44 1.407-.243.003-.759.07-1.147.149-.388.079-1.303 0-2.034-.177zm.04-18.738c-1.813-1.394-5.686-4.926-8.605-7.85-18.17-18.197-29.955-40.79-33.87-64.935-.798-4.912-.977-18.846-.308-23.812.478-3.544 1.39-8.66 1.779-9.966.14-.47.564-.617 1.775-.617 1.549 0 1.586.026 1.395.97-1.256 6.219-1.473 20.44-.432 28.31 2.52 19.044 9.333 37.164 20.159 53.622 5.638 8.57 12.052 16.062 18.122 21.167 3.352 2.819 3.566 3.078 3.566 4.322 0 .727-.064 1.323-.141 1.323-.078 0-1.626-1.14-3.44-2.534zm2.347-3.167c-1.644-.902-3.739-3.347-4.413-5.149-1.196-3.196-.845-6.337 1.013-9.073.924-1.361 3.654-3.713 4.31-3.713.19 0 .325 3.808.325 9.172 0 5.045-.12 9.167-.265 9.161-.145-.006-.582-.185-.97-.398zm-16.55-43.163c-1.464-.56-3.503-1.98-4.537-3.162-2.94-3.357-2.876-7.966.145-10.552 1.662-1.422 2.904-1.786 4.926-1.445 3.745.633 5.478 4.92 2.993 7.404-1.813 1.813-4.697 1.777-6.645-.083l-1.024-.977.235 1.059c.52 2.344.937 3.276 1.856 4.152 3.323 3.171 9.5 1.759 11.797-2.698 1.276-2.475 1.05-5.005-.976-10.98l-1.738-5.122-3.179-2.086c-13.978-9.168-21.599-20.59-22.906-34.332l-.193-2.028h3.057l.421 3.01c2.32 16.578 14.446 31.47 30.356 37.279 3.117 1.138 3.186 1.187 3.191 2.31.006 1.227-.298 1.377-1.517.749-.575-.297-.48-.09.376.81 1.096 1.154 1.147 1.332 1.147 4.007v2.8L310 49.07c-.922-1.043-2.603-3.184-3.736-4.757-1.134-1.573-2.107-2.907-2.163-2.965-.352-.361.697 3.76 1.58 6.209 1.639 4.545 1.369 7.232-1.03 10.26-2.295 2.898-7.37 4.329-10.76 3.034zm14.79-30.038C295.83 28.06 285.036 17.03 281.032 2.56l-.708-2.557h2.997l.635 2.12c2.955 9.864 11.646 19.073 21.285 22.554 1.502.542 3.564 1.181 4.583 1.42l1.852.435v2.434c0 1.339-.119 2.421-.264 2.406-.146-.016-1.374-.267-2.729-.557zm-265.12-4.08c-8.182-.84-15.954-4.443-22.065-10.228-4.565-4.321-7.252-8.438-9.152-14.025L11.501.001h1.334c1.33 0 1.339.01 2.334 2.558 4.511 11.554 15.294 19.954 26.453 20.609 7.467.438 15.116-3.067 17.609-8.07 1.663-3.34.975-8.017-1.429-9.703-.556-.39-2.36-1.343-4.01-2.118-1.65-.776-3.383-1.83-3.854-2.343l-.855-.933H73.83l.236 2.381c.555 5.592-2.165 12.631-6.622 17.132-2.983 3.013-5.77 4.792-9.42 6.013-2.572.86-8.696 1.75-10.78 1.568-.57-.05-2.226-.213-3.681-.362zm181.81-3.953c-2.58-.587-3.919-1.231-6.387-3.073-1.567-1.169-4.325-4.538-4.325-5.284 0-.126 1.31.174 2.91.667 2.413.742 3.664.9 7.32.929 4.071.031 4.563-.038 6.402-.9 4.632-2.172 7.356-6.95 7.356-12.898V0h5.645c3.279 0 5.644.14 5.644.332 0 .182-.232 1.334-.517 2.56s-.539 3.919-.566 5.984c-.048 3.64-.083 3.795-1.135 5.071-2.672 3.242-8.677 7.153-12.914 8.412-2.764.82-6.87 1.004-9.432.42zm-23.296-5.093C188.524 4.715 169.385-1.1 151.942 2.455c-3.64.742-8.746 2.392-11.085 3.582l-1.306.665-.859-1.146c-.927-1.237-2.11-3.486-2.505-4.76l-.245-.794h65.914l-.502 1.852c-.72 2.657-.4 7.143.77 10.787.763 2.38 2.495 6.591 3.253 7.91.322.561-.17.134-3.302-2.863zm20.698-4.61c-5.423-1.655-7.73-6.28-5.951-11.929l.361-1.146h17.924l.228.907c.38 1.518-.06 5.89-.726 7.207-1.018 2.011-3.016 3.83-5.044 4.588-1.914.716-5.096.891-6.792.373zm87.62-7.254c-.488-1.066-.978-2.812-1.088-3.88l-.2-1.942h2.568v3.881c0 2.134-.089 3.88-.196 3.88-.108 0-.596-.872-1.084-1.939zm-177.32.145c-1.509-.356-3.625-1.418-4.669-2.343-1.04-.922-2.646-2.923-2.646-3.298 0-.179 1.397-.326 3.105-.326h3.105l.728 1.5c.401.824 1.305 2.253 2.009 3.175 1.206 1.58 1.234 1.673.488 1.64-.436-.02-1.39-.176-2.12-.348zm157.96-3.993c-1.712-.423-4.057-1.467-4.057-1.806 0-.092 3.052-.167 6.781-.167 6.191 0 6.714.047 6.01.54-2.117 1.483-5.971 2.115-8.734 1.433z" fill="#f2f2f2"/></svg>