<?xml version="1.0" encoding="utf-8"?>
<!-- Generator: Adobe Illustrator 17.0.0, SVG Export Plug-In . SVG Version: 6.00 Build 0)  -->
<!DOCTYPE svg PUBLIC "-//W3C//DTD SVG 1.1//EN" "http://www.w3.org/Graphics/SVG/1.1/DTD/svg11.dtd">
<svg version="1.1" id="Слой_1" xmlns="http://www.w3.org/2000/svg" xmlns:xlink="http://www.w3.org/1999/xlink" x="0px" y="0px"
	 width="94px" height="94px" viewBox="0 0 94 94" enable-background="new 0 0 94 94" xml:space="preserve">
<g>
	<path fill="#FFFFFF" d="M92,55.435c-1.32,1.966-1.901,2.025-3.407,0.088c-0.905-1.164-1.93-1.724-3.405-1.534
		c-5.935,0.766-11.883,1.446-17.804,2.304c-1.284,0.186-2.33,0.184-3.418-0.549c-9.75-6.574-19.515-13.125-29.278-19.68
		c-2.863-1.922-5.735-3.832-8.853-5.914c0.828-0.996,1.463-1.94,2.269-2.702c4.178-3.949,9.361-4.935,14.863-4.884
		c0.369,0.003,0.771,0.212,1.099,0.418c13.663,8.583,27.34,17.144,40.959,25.798c2.451,1.558,4.656,3.503,6.975,5.27
		C92,54.511,92,54.973,92,55.435z"/>
	<path fill="#FFFFFF" d="M3.337,52.318c0.608-1.898,0.987-3.912,1.882-5.664c1.165-2.283,3.048-3.854,5.828-4.045
		c3.375-0.232,5.57,1.515,6.755,4.364c0.842,2.023,1.043,4.311,1.556,6.474c0.152,0.641,0.203,1.462,0.623,1.858
		c5.057,4.771,11.082,8.17,16.816,11.999c1.801-2.821,1.825-2.861,4.649-1.133c3.177,1.944,6.304,3.97,9.456,5.962
		c-1.991,2.981-4.913,4.04-8.69,2.726c-2.794-0.972-5.493-2.373-8.015-3.938c-4.306-2.672-8.473-5.576-12.633-8.475
		c-2.241-1.562-4.261-1.739-6.327,0.249c-2.778,2.672-8.016,1.699-9.919-1.973c-0.907-1.75-1.335-3.748-1.98-5.633
		C3.337,54.165,3.337,53.241,3.337,52.318z M14.147,51.178c0.101-0.205,0.202-0.409,0.303-0.614
		c-0.824-0.563-1.625-1.526-2.479-1.575c-0.841-0.049-2.003,0.629-2.54,1.349c-0.681,0.914-1.09,2.166-1.231,3.32
		c-0.275,2.245,0.857,3.41,3.307,3.696c-0.565-1.078-1.283-2.064-1.617-3.166c-0.701-2.319,0.316-3.447,2.666-3.181
		C13.086,51.067,13.616,51.121,14.147,51.178z"/>
	<path fill="#FFFFFF" d="M59.063,75.111c-0.917-0.466-1.477-0.705-1.991-1.019c-7.722-4.715-15.438-9.439-23.153-14.165
		c-0.96-0.588-1.864-1.128-1.23-2.595c0.176-0.406-0.284-1.359-0.728-1.711c-1.488-1.176-3.081-2.223-4.671-3.263
		c-1.688-1.103-3.486-2.048-5.118-3.225c-3.416-2.464-4.534-5.247-3.139-9.188c1.04-2.936,2.77-5.628,4.246-8.533
		c0.934,0.536,1.499,0.817,2.018,1.165c11.981,8.013,23.94,16.059,35.954,24.02c1.644,1.089,2.187,2.179,1.204,3.935
		c-0.278,0.497-0.418,1.071-0.631,1.606C60.208,66.202,58.566,70.257,59.063,75.111z"/>
	<path fill="#FFFFFF" d="M68.535,77.17c-1.777-0.566-3.594-1.038-5.302-1.765c-0.434-0.184-0.862-1.283-0.713-1.791
		c1.243-4.24,2.595-8.45,3.999-12.641c0.157-0.47,0.798-1.007,1.292-1.1c4.238-0.795,8.474-1.679,12.753-2.138
		c1.918-0.206,3.972,0.351,5.88,0.871c0.599,0.163,1.309,1.333,1.312,2.045c0.021,4.799-1.78,9.087-4.107,13.176
		c-0.222,0.391-0.773,0.754-1.223,0.831c-4.414,0.754-8.839,1.445-13.262,2.149c-0.168,0.027-0.345,0.003-0.518,0.003
		C68.608,76.931,68.571,77.051,68.535,77.17z M71.241,72.42c0.002,0.021,0.005,0.043,0.007,0.064
		c1.259-0.136,2.531-0.198,3.775-0.419c6.315-1.122,4.854,0.577,7.008-5.62c0.208-0.598,0.4-1.203,0.553-1.816
		c0.475-1.897,0.108-2.605-1.795-2.556c-2.926,0.075-5.847,0.414-8.761,0.731c-0.412,0.045-0.979,0.523-1.116,0.924
		c-0.832,2.432-1.6,4.889-2.303,7.362c-0.271,0.953,0.293,1.38,1.247,1.334C70.317,72.402,70.78,72.42,71.241,72.42z"/>
</g>
</svg>
