<?xml version="1.0" encoding="utf-8"?>
<!-- Generator: Adobe Illustrator 17.0.0, SVG Export Plug-In . SVG Version: 6.00 Build 0)  -->
<!DOCTYPE svg PUBLIC "-//W3C//DTD SVG 1.1//EN" "http://www.w3.org/Graphics/SVG/1.1/DTD/svg11.dtd">
<svg version="1.1" id="Слой_1" xmlns="http://www.w3.org/2000/svg" xmlns:xlink="http://www.w3.org/1999/xlink" x="0px" y="0px"
	 width="94px" height="94px" viewBox="0 0 94 94" enable-background="new 0 0 94 94" xml:space="preserve">
<g>
	<path fill="#FFFFFF" d="M36.789,36.853c0-0.273,0-0.525,0-0.777c0-3.514-0.003-7.028,0.001-10.542
		c0.005-4.137,2.743-6.882,6.867-6.883c9.505-0.002,19.009-0.003,28.514,0c4.092,0.001,6.819,2.741,6.819,6.839
		c0,3.491,0,6.981,0,10.472c0,0.28,0,0.561,0,1.011c0.575-0.3,1.048-0.525,1.494-0.796c0.104-0.063,0.147-0.277,0.162-0.426
		c0.026-0.257,0.003-0.518,0.009-0.778c0.029-1.148,0.696-1.884,1.839-1.902c2.146-0.033,4.293-0.042,6.438,0.003
		c1.398,0.029,2.343,1.071,2.323,2.42c-0.019,1.316-1.038,2.295-2.443,2.306c-1.957,0.015-3.915-0.014-5.872,0.022
		c-0.335,0.006-0.73,0.168-0.986,0.387c-0.895,0.767-1.754,1.576-2.594,2.403c-0.192,0.189-0.35,0.512-0.356,0.777
		c-0.044,1.933-0.064,3.866-0.053,5.799c0.01,1.812,0.101,3.624,0.099,5.437c-0.004,4.477-0.037,8.953-0.065,13.43
		c-0.013,2.015-1.205,3.209-3.218,3.21c-11.91,0.004-23.821,0.005-35.731,0.001c-1.998-0.001-3.239-1.213-3.243-3.207
		c-0.006-3.844,0.029-7.687,0.028-11.531c0-1.645-0.07-3.29-0.072-4.935c-0.003-2.686,0.039-5.373,0.017-8.059
		c-0.003-0.345-0.192-0.769-0.436-1.018c-0.808-0.824-1.667-1.601-2.54-2.357c-0.223-0.193-0.569-0.335-0.861-0.34
		c-1.933-0.03-3.867-0.011-5.801-0.017c-1.556-0.004-2.587-0.962-2.582-2.381c0.006-1.383,1.019-2.346,2.537-2.359
		c2.028-0.018,4.057-0.016,6.085,0c1.24,0.01,1.931,0.696,1.985,1.913C35.214,36.286,35.329,36.423,36.789,36.853z M57.941,24.645
		c-4.742,0-9.484,0-14.225,0c-2.828,0-4.533,1.704-4.534,4.538c-0.002,5.332,0.001,10.663-0.002,15.995
		c-0.001,1.222-0.008,2.444-0.035,3.665c-0.022,0.981,0.182,1.199,1.184,1.187c1.976-0.024,3.952-0.057,5.927-0.062
		c1.81-0.005,3.619,0.032,5.429,0.031c2.471-0.002,4.943-0.034,7.414-0.031c2.821,0.004,5.643,0.042,8.464,0.051
		c2.753,0.009,5.505-0.007,8.258,0.003c0.536,0.002,0.817-0.266,0.822-0.754c0.014-1.43-0.021-2.861-0.022-4.292
		c-0.006-5.308,0.003-10.616-0.013-15.924c-0.008-2.709-1.737-4.405-4.44-4.406C67.424,24.644,62.683,24.645,57.941,24.645z
		 M68.242,20.535c-6.972,0-13.815,0-20.634,0c0,0.878,0,1.689,0,2.502c6.892,0,13.72,0,20.586,0c0.018-0.215,0.045-0.397,0.046-0.58
		C68.246,21.826,68.242,21.194,68.242,20.535z M66.262,56.031c-1.384-0.023-2.536,1.085-2.572,2.473
		c-0.035,1.369,1.091,2.539,2.475,2.574c1.394,0.035,2.56-1.063,2.593-2.442C68.794,57.2,67.697,56.055,66.262,56.031z
		 M75.69,58.587c0.013-1.4-1.089-2.537-2.477-2.556c-1.424-0.019-2.599,1.12-2.602,2.522c-0.002,1.37,1.144,2.512,2.532,2.521
		C74.541,61.084,75.678,59.974,75.69,58.587z M45.17,58.561c0.008-1.396-1.103-2.521-2.5-2.531c-1.409-0.01-2.531,1.08-2.548,2.476
		c-0.017,1.44,1.1,2.576,2.528,2.571C44.05,61.073,45.162,59.963,45.17,58.561z M52.094,58.571c0.015-1.429-1.027-2.474-2.492-2.497
		c-1.442-0.023-2.524,1.004-2.552,2.422c-0.028,1.44,1.079,2.574,2.517,2.577C50.972,61.077,52.079,59.98,52.094,58.571z"/>
	<path fill="#FFFFFF" d="M4.367,50.447c0-6.457,0-12.796,0-19.183c5.072,0,10.133,0,15.272,0c0,6.357,0,12.726,0,19.22
		c-2.039,0-4.02,0-6.086,0c0,7.046,0,13.969,0,20.946c-1.034,0-1.983,0-3.028,0c0-0.281-0.001-0.555,0-0.829
		c0.012-5.354,0.025-10.707,0.037-16.061c0.002-1.126-0.013-2.252,0.007-3.378c0.009-0.517-0.181-0.699-0.709-0.676
		c-1.173,0.051-2.348,0.058-3.522,0.055C5.707,50.54,5.075,50.483,4.367,50.447z"/>
	<path fill="#FFFFFF" d="M33.87,72.666c0,1.396,0,2.709,0,4.072c-9.518,0-19.002,0-28.528,0c0-1.363,0-2.694,0-4.072
		C14.851,72.666,24.337,72.666,33.87,72.666z"/>
	<path fill="#FFFFFF" d="M48.819,70.559c0,1.618,0.027,3.171-0.011,4.722c-0.02,0.813-0.626,1.457-1.438,1.471
		c-2.235,0.041-4.471,0.041-6.706-0.001c-0.788-0.015-1.338-0.663-1.443-1.494c-0.026-0.209-0.018-0.423-0.018-0.635
		c-0.001-1.338-0.001-2.675-0.001-4.064C42.421,70.559,45.581,70.559,48.819,70.559z"/>
	<path fill="#FFFFFF" d="M76.564,70.562c0,1.599,0.034,3.153-0.013,4.703c-0.027,0.884-0.671,1.492-1.564,1.505
		c-2.142,0.031-4.286,0.035-6.428,0.002c-0.913-0.014-1.559-0.647-1.589-1.576c-0.049-1.525-0.013-3.053-0.013-4.635
		C70.157,70.562,73.319,70.562,76.564,70.562z"/>
</g>
</svg>
