<?xml version="1.0" encoding="utf-8"?>
<!-- Generator: Adobe Illustrator 17.0.0, SVG Export Plug-In . SVG Version: 6.00 Build 0)  -->
<!DOCTYPE svg PUBLIC "-//W3C//DTD SVG 1.1//EN" "http://www.w3.org/Graphics/SVG/1.1/DTD/svg11.dtd">
<svg version="1.1" id="Слой_1" xmlns="http://www.w3.org/2000/svg" xmlns:xlink="http://www.w3.org/1999/xlink" x="0px" y="0px"
	 width="94px" height="94px" viewBox="0 0 94 94" enable-background="new 0 0 94 94" xml:space="preserve">
<g>
	<path fill="#FFFFFF" d="M85.425,41.071c0,0.041,0,0.083,0,0.124c-0.109,0.091-0.235,0.168-0.324,0.275
		c-1.007,1.224-2.021,2.444-3.005,3.688c-0.273,0.345-0.463,0.448-0.831,0.116c-0.672-0.608-1.38-1.175-2.081-1.751
		c-0.385-0.316-0.784-0.615-1.319-1.032c0,14.449,0,28.711,0,42.968c-20.441,0-40.797,0-61.209,0c0-14.089,0-28.131,0-42.375
		c-1.722,1.478-3.315,2.845-4.923,4.226c-1.31-1.5-2.569-2.941-3.827-4.382c0-0.041,0-0.083,0-0.124
		c0.183-0.128,0.381-0.239,0.547-0.386c2.839-2.501,5.66-5.022,8.513-7.507c2.33-2.029,4.7-4.012,7.044-6.024
		c2.017-1.731,4.018-3.48,6.036-5.211c2.565-2.2,5.142-4.384,7.709-6.582c2.941-2.519,5.873-5.05,8.826-7.556
		c0.119-0.101,0.463-0.085,0.604,0.015c0.452,0.319,0.854,0.707,1.283,1.06c3.673,3.025,7.35,6.046,11.021,9.074
		c2.653,2.189,5.298,4.388,7.95,6.578c3.145,2.597,6.292,5.192,9.442,7.785C79.727,36.394,82.577,38.732,85.425,41.071z
		 M34.976,79.63c-1.736-1.979-2.743-4.179-3.12-6.624c-0.827-5.372,0.527-10.268,3.489-14.744c1.169-1.766,2.427-3.482,3.756-5.132
		c1.471-1.827,3.036-3.583,4.62-5.316c2.027-2.217,4.173-4.326,6.157-6.579c1.984-2.253,3.596-4.77,4.629-7.618
		c0.187-0.515,0.321-1.05,0.506-1.666c0.075,0.229,0.134,0.36,0.161,0.498c0.536,2.714,0.322,5.38-0.573,7.986
		c-0.681,1.984-1.727,3.783-2.996,5.446c-1.523,1.996-3.148,3.919-4.596,5.968c-1.953,2.762-3.506,5.74-3.97,9.154
		c-0.242,1.782-0.142,3.527,0.896,5.118c0.894,1.37,2.729,1.885,4.192,1.163c1.483-0.731,2.215-1.995,2.196-3.53
		c-0.026-2.01-0.277-4.024-0.522-6.024c-0.279-2.27-0.438-4.522,0.353-6.723c0.202-0.562,0.513-1.085,0.791-1.66
		c0.104,0.115,0.15,0.142,0.152,0.171c0.023,0.308,0.031,0.617,0.057,0.925c0.163,1.957,0.728,3.759,2.081,5.238
		c1.932,2.111,3.952,4.14,5.446,6.621c1.864,3.096,3.103,6.359,3.011,10.033c-0.044,1.78-0.406,3.482-1.291,5.038
		c-0.43,0.757-0.942,1.467-1.446,2.243c0.184,0.022,0.342,0.058,0.499,0.059c4.003,0.004,8.006-0.005,12.009,0.014
		c0.526,0.003,0.599-0.218,0.599-0.666c-0.009-13.536-0.005-27.072-0.023-40.609c0-0.284-0.158-0.652-0.369-0.836
		c-1.161-1.018-2.359-1.994-3.548-2.98c-2.853-2.367-5.712-4.727-8.561-7.099c-3.957-3.295-7.903-6.603-11.86-9.898
		c-0.8-0.666-0.81-0.647-1.615,0.052c-3.533,3.064-7.064,6.13-10.604,9.187c-4.163,3.596-8.332,7.186-12.507,10.769
		c-0.339,0.291-0.487,0.588-0.487,1.051c0.014,13.433,0.014,26.866-0.001,40.299c-0.001,0.568,0.15,0.737,0.725,0.733
		c3.693-0.025,7.387-0.012,11.081-0.015C34.474,79.674,34.653,79.652,34.976,79.63z"/>
</g>
</svg>
