<svg xmlns="http://www.w3.org/2000/svg" width="17" height="17" viewBox="0 0 17 17"><g fill="#00AEEF"><path d="M8.5 6.547a1.096 1.096 0 0 1-1.093-1.099v-4.03c0-.606.49-1.099 1.093-1.099s1.093.493 1.093 1.099v4.03c0 .607-.489 1.099-1.093 1.099M5.946 8.411a1.091 1.091 0 0 1-1.378.705L.756 7.872a1.1 1.1 0 0 1-.702-1.385 1.092 1.092 0 0 1 1.378-.706l3.813 1.245c.573.188.887.808.701 1.385M11.054 8.412c.188.578.804.893 1.378.705l3.813-1.244a1.1 1.1 0 0 0-.676-2.091l-3.813 1.246a1.099 1.099 0 0 0-.702 1.384M3.279 16.471a1.101 1.101 0 0 1-.243-1.534l2.355-3.261a1.09 1.09 0 0 1 1.528-.244c.488.356.596 1.045.241 1.535l-2.355 3.26c-.354.492-1.038.6-1.526.244M13.723 16.471a1.1 1.1 0 0 0 .241-1.534l-2.354-3.261a1.09 1.09 0 0 0-1.528-.244 1.103 1.103 0 0 0-.241 1.535l2.355 3.26a1.09 1.09 0 0 0 1.527.244"/></g></svg>