<svg xmlns="http://www.w3.org/2000/svg" width="17" height="17" viewBox="0 0 17 17"><path fill="#FFCB05" d="M8.5 0A8.5 8.5 0 0 0 .045 9.378C.505 8.5 1.11 7.511 1.792 6.82c1.17-1.186 2.893-2.04 3.604-2.362a1.792 1.792 0 1 1 .457 1.196c-.733.478-1.777 1.353-2.718 2.856-1.157 1.849-1.385 3.981-1.416 5.116.353.466.752.894 1.192 1.278.381-.817 1.391-2.664 3.4-4.46 1.557-1.392 4.177-2.45 4.966-2.75a1.79 1.79 0 1 1 3.462.732 1.79 1.79 0 0 1-2.998.563c-1.072.443-2.799 1.407-4.067 3.327-.949 1.438-1.468 3.011-1.752 4.284A8.5 8.5 0 1 0 8.5 0z"/></svg>