<svg width="77.25" height="80.758" viewBox="0 0 77.250008 80.75827" xmlns="http://www.w3.org/2000/svg"><path d="M19.111 78.096c-6.134-5.096-4.87-14.245 2.442-17.67 7.372-3.454 15.434 1.86 15.444 10.177.003 2.448-.88 4.18-3.396 6.664-4.396 4.34-9.886 4.654-14.49.83zm11.575-3.568C35.16 70.378 32.24 63.51 26 63.51c-2.24 0-3.908.728-5.155 2.248-2.39 2.914-2.33 5.104.228 8.314 2.562 3.216 6.439 3.399 9.613.455zm24.814 4.95c-3.583-1.946-5.455-5.135-5.478-9.334-.057-10.363 12.517-14.683 19.012-6.531 2.154 2.704 2.64 8.988.937 12.129-2.217 4.09-10.08 6.12-14.47 3.736zm9.277-4.34c2.88-1.99 3.018-7.32.256-9.788C60.845 61.608 54 64.441 54 69.917c0 5.59 6.024 8.508 10.777 5.22zM35.502 58.314c-11.024-2.678-19.3-8.249-22.926-15.431-4.725-9.36-7.228-8.662 31.05-8.662h33.626l-.637 3.141C74.982 45.42 68.135 52.413 58 56.375c-4.397 1.72-18.428 2.928-22.5 1.94zM9 26.564c-1.225-3.824-2.19-5.002-5.25-6.42C1.688 19.19 0 17.955 0 17.4c0-1.898 2.856-2.096 6.385-.443 5.554 2.602 10.356 14.311 5.865 14.298-1.209-.004-2.215-1.455-3.25-4.69zm36.088-1.969a953.707 953.707 0 0 0 4.088-14.562c1.178-4.344 2.702-8.506 3.387-9.249 1.374-1.49 3.437-.735 3.437 1.26 0 .7 1.83 2.087 4.065 3.082 5.791 2.578 13.18 10.932 15.24 17.231 3.097 9.468 4.063 8.903-15.235 8.903H43.142z" fill="#d1d1d1"/></svg>