<?xml version="1.0" encoding="utf-8"?>
<!-- Generator: Adobe Illustrator 17.0.0, SVG Export Plug-In . SVG Version: 6.00 Build 0)  -->
<!DOCTYPE svg PUBLIC "-//W3C//DTD SVG 1.1//EN" "http://www.w3.org/Graphics/SVG/1.1/DTD/svg11.dtd">
<svg version="1.1" id="Слой_1" xmlns="http://www.w3.org/2000/svg" xmlns:xlink="http://www.w3.org/1999/xlink" x="0px" y="0px"
	 width="340.5px" height="74.5px" viewBox="-12.5 0 340.5 74.5" enable-background="new -12.5 0 340.5 74.5" xml:space="preserve">
<g>
	<path fill="#FF15C2" d="M167.396,49.692c0.857,0,1.578-0.054,2.288,0.01c2.729,0.243,3.852,2.58,2.315,4.849
		c-1.543,2.278-3.829,3.674-6.171,4.959c-6.204,3.404-12.913,5.051-19.925,5.534c-4.219,0.29-8.446,0.677-12.673,0.047
		c-0.207-0.031-0.427-0.012-0.621-0.077c-0.973-0.329-2.167-0.438-2.484-1.639c-0.287-1.085,0.474-1.861,1.126-2.616
		c0.136-0.158,0.272-0.331,0.443-0.442c1.088-0.71,0.815-1.196-0.104-1.916c-12.525-9.809-11.485-26.136-4.235-34.952
		c7.365-8.956,21.295-11.768,32.177-6.434c5.224,2.56,9.515,6.132,11.621,11.732c2.633,7.002,0.92,13.443-2.907,19.526
		c-0.222,0.353-0.475,0.687-0.71,1.032C167.508,49.342,167.501,49.396,167.396,49.692z M146.635,22.953
		c-7.924,0.009-13.117,3.798-14.769,10.142c-1.158,4.445,0.34,8.765,3.787,10.921c3.888,2.432,9.126,2.232,12.343-0.471
		c2.293-1.927,3.161-4.811,2.15-7.143c-1.017-2.344-3.999-4.089-6.505-3.777c-0.712,0.089-1.659,0.12-1.549,1.133
		c0.102,0.947,0.899,0.715,1.607,0.626c1.766-0.222,3.92,0.962,4.707,2.528c0.89,1.77,0.2,3.265-0.931,4.61
		c-3.428,4.078-11.552,2.837-13.493-2.118c-1.572-4.012-0.507-7.648,2.225-10.771c3.534-4.038,10.199-5.115,15.638-2.741
		c3.023,1.32,5.105,3.482,5.86,6.701c1.031,4.398,0.333,8.543-2.429,12.19c-2.744,3.624-6.602,5.519-10.887,6.671
		c-0.646,0.174-1.516,0.22-1.291,1.182c0.219,0.937,1.037,0.693,1.691,0.527c4.729-1.201,8.878-3.367,11.931-7.304
		c4.107-5.297,4.336-13.589,0.418-18.259C154.189,24.086,150.155,23.041,146.635,22.953z"/>
	<path fill="#00FFA1" d="M132.205,66.925c6.396,0.749,12.719,0.106,19.016-1.006c4.775-0.843,9.557-1.73,13.92-3.949
		c4.08-2.074,7.931-4.537,10.592-8.401c2.712-3.938,3.136-8.378,2.688-13.017c-0.379-3.922-2.485-6.98-4.604-10.087
		c-1.927-2.825-3.429-5.843-3.335-9.402c0.011-0.417-0.095-0.982,0.128-1.224c1.439-1.557,0.693-3.314,0.615-5.035
		c-0.138-3.023-0.299-6.059,0.994-8.935c1.379-3.068,4.164-4.754,7.549-4.266c1.755,0.253,3.377,0.104,5.074-0.33
		c2.461-0.63,4.475,0.516,6.249,2.07c0.776,0.679,1.379,1.555,2.059,2.344c0.793,0.92,0.343,1.816-0.198,2.574
		c-0.598,0.838-1.488,1.419-2.573,1.013c-1.016-0.381-1.973-0.947-1.229-2.32c0.687-1.268,0.141-2.243-0.816-3.01
		c-1.033-0.829-2.265-0.62-3.451-0.363c-0.338,0.073-0.34,0.361-0.16,0.606c0.244,0.333,0.495,0.668,0.788,0.957
		c0.801,0.791,1.274,1.673,0.769,2.796c-0.499,1.11-1.282,1.876-2.601,1.873c-2.544-0.773-0.882-2.985-1.476-4.468
		c-1.512,2.328-1.917,4.751-1.057,7.352c-0.143,1.033,0.373,1.931,0.58,2.893c0.096,0.449,0.385,0.571,0.762,0.652
		c6.081,1.304,9.598,5.702,12.185,10.779c4.028,7.906,4.943,16.285,3.012,25.04c-1.758,7.97-7.139,12.532-13.893,16.139
		c-4.836,2.582-9.943,3.446-15.335,3.399c-7.687-0.066-15.34-0.469-22.989-1.32c-4.503-0.501-9.04-1.054-13.6-0.79
		c-3.029,0.175-5.963,0.955-8.919,1.567c-1.332,0.276-2.651,0.506-4.02,0.376c-1.024-0.098-1.362-0.441-0.626-1.349
		c1.748-2.157,3.695-4.058,6.361-5.057c0.567-0.062,1.15-0.063,1.699-0.199c0.837-0.207,1.535-0.102,2.097,0.593
		C129.427,66.615,130.73,66.987,132.205,66.925z M173.716,10.654c0.141,0.926,0.353,2.157,0.513,3.395
		c0.312,2.415,0.336,2.358,2.599,2.095c1.292-0.15,1.414-0.62,1.34-1.812c-0.191-3.093-0.59-6.242,0.864-9.2
		c0.218-0.443,0.674-1.023,0.313-1.413c-0.407-0.442-1.082-0.148-1.617,0.054C175.085,4.768,173.736,6.986,173.716,10.654z"/>
</g>
<g enable-background="new    ">
	<path fill="#FF15C2" d="M225.152,59.241c-1.406,5.047-2.045,13.8-7.476,13.672c-1.98-0.063-2.747-0.767-2.683-2.3
		c0.063-1.789,0.639-1.726,1.98-3.45c1.916-2.428,2.938-4.855,3.77-7.667c-1.789,0.447-5.048,0.384-6.709,0.64
		c-0.639,4.024-1.342,11.627-6.133,11.691c-1.854,0-2.748-1.342-2.748-3.706c0-1.597,2.236-4.344,3.387-7.155
		c-1.725,0.128-4.152,1.022-6.006,0.958c-1.469,0-2.684-0.767-2.684-2.683c0-1.022,0.512-3.961,2.236-4.025
		c3.578-0.063,4.983,0.256,8.497,0.384c2.684-8.881,1.726-5.878,9.2-23.767c1.021-2.556,1.789-5.495,4.473-5.495
		c2.428,0,3.066,0.831,3.066,2.939c0,2.556-4.729,7.922-7.795,14.119c-1.66,3.386-3.833,8.625-4.535,12.075
		c2.683,0.256,4.408-0.128,7.475-0.384c2.555-6.069,8.305-18.017,9.583-21.658c0.384-1.149,1.661-2.235,2.364-2.108
		c1.725,0.256,1.66,2.045,1.66,3.642c0.064,4.281-7.347,15.334-9.391,19.423c2.299-0.384,4.919-0.512,6.963-0.512
		c1.15,0,1.598,0.319,1.598,1.022C235.182,57.068,229.561,57.835,225.152,59.241z"/>
	<path fill="#FF15C2" d="M254.096,64.16c-1.277,0-3.066-0.447-4.28-1.469c-0.447,0.574-5.366,10.222-11.628,10.222
		c-2.045,0-5.367-1.917-5.367-5.239c0-7.091,10.159-13.416,12.459-13.416c5.622,0,6.006,2.556,6.197,4.855
		c0.574,0.447,1.789,1.149,3.322,1.149c1.086,0,2.492-0.383,3.194-0.383c0.895,0,0.767,0.958,0.767,1.661
		C258.76,63.33,256.268,64.16,254.096,64.16z M244.768,60.966c-1.852-0.511-5.941,4.345-5.941,5.494c0,0.703,0.32,1.534,1.086,1.598
		c2.428,0.128,5.432-3.642,5.495-5.239C245.407,62.116,245.599,61.222,244.768,60.966z"/>
	<path fill="#FF15C2" d="M269.75,66.46c-3.834,2.301-6.9,5.239-10.797,5.239c-2.939,0-4.537-2.364-3.962-4.983
		c0.767-3.642,3.067-7.092,5.431-11.819c0.639-1.086,2.492-2.812,3.578-2.491c1.086,0.383,1.405,1.533,1.342,2.811
		c-0.129,2.236-3.195,7.411-3.195,9.2c0,0.575,0.128,0.703,0.768,0.703c3.066,0,9.264-6.517,12.649-6.581
		c1.597,0,1.98,0.703,1.98,2.812c0,1.277-1.789,3.896-1.789,5.11c0,0.384,0.128,0.767,0.575,0.831c1.916,0.383,6.9-1.98,8.05-1.917
		c0.319,0.064,0.64,0.575,0.64,1.214c0,1.726-6.581,5.814-9.456,5.814C271.027,72.402,269.75,69.782,269.75,66.46z"/>
	<path fill="#FF15C2" d="M291.857,72.529c-5.75,0-6.709-1.788-6.581-3.896c0.128-1.853,1.022-2.492,1.917-2.556
		c1.149-0.128,2.428,1.725,4.664,1.98c1.149,0.128,2.428,0.128,2.491-1.342c0.063-1.533-7.155-2.938-7.155-7.347
		c0-4.855,6.005-6.772,10.669-6.772c3.961,0,5.303,2.172,5.303,4.472c0,1.342-0.958,4.281-3.259,4.408
		c-1.213,0.064-1.597-0.127-1.98-0.767c-0.574-0.958,1.15-2.107,1.15-2.619c0-0.383-0.256-1.086-1.533-1.149
		c-2.108-0.128-3.77,0.191-4.025,2.428c-0.127,1.533,7.475,4.089,7.475,7.347C300.992,71.188,295.307,72.529,291.857,72.529z"/>
	<path fill="#FF15C2" d="M309.299,70.869c-3.194,0-4.344-0.831-5.494-2.301c-0.895-1.086-0.959-2.172-0.959-3.642
		c0-3.066,5.24-13.608,12.523-13.608c3.896,0,6.133,3.067,5.75,5.878c-0.384,2.875-6.9,7.411-10.734,7.795
		c0.447,0.83,1.406,1.342,2.812,1.342c1.726,0,11.053-4.153,11.563-4.153c1.086,0.064,1.789,0,1.789,1.47
		C326.549,65.566,313.26,70.869,309.299,70.869z M310.641,60.71c2.748,0,5.239-1.788,5.239-2.683c0-0.447-0.128-1.022-0.958-1.086
		C312.813,56.749,311.663,59.049,310.641,60.71z"/>
</g>
<g enable-background="new    ">
	<path fill="#00FFA1" d="M17.648,44.336c-1.341,0-2.811-0.83-2.938-1.725c-0.128-0.703,0.127-0.831,0.127-1.598
		c0-0.447-0.511-1.086-1.725-1.086c-4.664,0-7.411,6.197-7.347,11.564c0.064,5.366,5.303,13.544,5.367,16.738
		C11.196,70.467,8.577,72,6.021,72C1.229,72-9.185,66.25-9.121,61.777c0-1.533,1.15-2.107,2.428-2.107
		c1.98,0,8.753,6.708,11.117,6.708c0.447,0,0.703,0,0.703-0.447c0-0.639-3.642-9.072-3.642-15.525
		c0-4.408,2.747-16.675,10.797-16.675c6.836,0,8.178,3.322,8.178,6.069C20.46,42.036,19.118,44.336,17.648,44.336z"/>
	<path fill="#00FFA1" d="M38.478,72.063c-4.408,0-4.344-3.002-4.344-4.919c0-1.086,0.191-2.172-0.703-2.236
		c-0.894-0.063-3.002,1.214-5.43,2.939c-2.044,1.405-4.345,3.449-7.283,3.449c-2.556,0-3.77-1.597-3.77-3.577
		s1.15-7.156,1.725-9.711c0.383-1.98,2.044-2.492,3.642-2.492c2.172,0,2.619,1.214,2.619,3.131c0,1.533-1.661,6.836-0.958,6.836
		c1.533,0,2.875-1.342,4.536-2.364c2.3-1.342,5.367-3.705,7.794-3.705c2.684,0,3.897,1.47,3.897,3.066
		c0,0.895-0.831,2.556-0.831,3.322c-0.064,1.15,0.128,1.405,1.214,1.342c3.13-0.128,6.069-3.386,6.708-3.322
		c0.958,0.063,1.214,0.447,1.214,1.47C48.508,66.506,43.716,72.063,38.478,72.063z"/>
	<path fill="#00FFA1" d="M65.057,70.339c-2.875,0.063-4.472-1.15-5.814-3.705c-2.3,1.405-3.578,3.896-9.775,4.024
		c-3.386,0.064-3.961-1.277-3.961-3.577c0-4.729,7.794-11.373,13.608-11.373c3.833,0,5.303,2.364,5.623,5.431
		c0.255,1.789-0.064,4.664,1.853,4.729c2.108,0.063,5.686-2.492,6.645-2.364c1.15,0.128,1.278,0.383,1.278,1.086
		C74.513,66.569,68.251,70.275,65.057,70.339z M56.943,61.011c-2.108-0.063-5.239,2.236-5.111,3.962
		c0.064,0.639,0.958,0.511,1.597,0.511c1.342,0,4.664-1.789,4.664-3.45C58.093,61.458,57.518,61.011,56.943,61.011z"/>
	<path fill="#00FFA1" d="M74.387,56.73c1.47,0,1.853,0.895,1.853,1.726c0,1.149-0.831,3.705-1.022,5.494
		c-0.128,1.342,0.064,2.172,1.086,2.172c2.492,0,7.794-5.559,8.434-5.303c0.831,0.256,1.597,0.703,1.597,1.47
		c0,0.958-6.9,9.647-12.522,9.583c-1.917,0-4.089-1.214-4.153-3.322C69.595,66.187,71.256,56.73,74.387,56.73z M78.028,50.917
		c-1.853-0.064-3.066-2.045-3.066-4.28c0-2.236,1.789-3.195,3.77-3.195c1.725,0,3.578,1.661,3.578,3.067
		C82.309,49.575,79.881,50.98,78.028,50.917z"/>
	<path fill="#00FFA1" d="M88.954,59.733c-0.767,2.044-1.597,3.642-1.533,4.855c0.064,1.086,0.191,1.342,1.278,1.342
		c3.578,0,9.392-5.175,10.605-5.175c0.639,0,1.022,0.767,1.022,1.533c0,1.086-7.028,9.008-13.225,9.008
		c-3.642,0-4.664-2.172-4.664-4.728c0-2.619,2.364-9.583,10.03-24.469c0.256-0.447,7.667-16.803,15.525-17.187
		c2.62-0.128,3.067,1.725,3.003,3.45C110.676,34.114,96.876,50.47,88.954,59.733z M93.426,48.489
		c2.428-2.812,8.944-11.117,8.944-12.714c0-0.319,0.192-0.703-0.128-0.703C100.773,35.072,95.215,44.4,93.426,48.489z"/>
	<path fill="#00FFA1" d="M104.543,72.83c-5.75,0-6.708-1.788-6.581-3.896c0.127-1.853,1.022-2.492,1.917-2.556
		c1.15-0.128,2.428,1.725,4.664,1.98c1.15,0.128,2.428,0.128,2.492-1.342c0.063-1.533-7.156-2.938-7.156-7.347
		c0-4.855,6.005-6.772,10.669-6.772c3.961,0,5.303,2.172,5.303,4.472c0,1.342-0.958,4.281-3.258,4.408
		c-1.214,0.064-1.597-0.127-1.98-0.767c-0.575-0.958,1.15-2.107,1.15-2.619c0-0.383-0.255-1.086-1.533-1.149
		c-2.108-0.128-3.77,0.191-4.025,2.428c-0.128,1.533,7.475,4.089,7.475,7.347C113.679,71.489,107.993,72.83,104.543,72.83z"/>
</g>
</svg>
