<?xml version="1.0" encoding="utf-8"?>
<svg xmlns="http://www.w3.org/2000/svg"
	xmlns:xlink="http://www.w3.org/1999/xlink"
	width="117px" height="37px" viewBox="0 0 117 37">
<path fillRule="evenodd" d="M 116.39 30C 116.39 30 116.02 34.39 116.02 34.39 113.84 36.11 111.69 36.99 109.57 36.99 106.43 36.99 104.44 35.55 103.77 33.47 101.99 35.59 99.74 36.99 96.53 36.99 94.08 36.99 92.17 35.81 90.89 33.93 89.08 34.96 85.08 37.05 80.22 36.99 77.09 36.95 75.1 35.55 74.42 33.47 72.64 35.55 70.48 36.99 67.18 36.99 64.78 36.99 62.89 35.85 61.61 34.02 56.53 36.37 53.41 36.99 51.34 36.99 48.13 36.99 46.22 35.67 45.5 33.77 43.17 35.93 40.72 36.99 37.92 36.99 34.74 36.99 32.45 35.32 31.62 32.77 26.82 35.31 22.44 36.8 16.76 36.99 6.72 37.32-0.02 31.4-0.02 21.04-0.02 8.93 8.31 0.57 20.68 0.71 26.7 0.78 30.87 2.76 32.72 4.02 32.72 4.02 29.37 11.65 29.37 11.65 27.87 10.92 25.05 10.41 22.67 10.41 16.56 10.41 13.57 14.38 13.4 19.5 13.23 24.79 16.5 28.3 21.34 28.76 26.13 29.22 29.55 28.12 31.65 27.2 31.65 27.2 33.52 13.99 33.52 13.99 33.52 13.99 43.76 13.99 43.76 13.99 43.76 13.99 41.94 26.83 41.94 26.83 41.77 27.97 42.49 28.9 43.55 28.9 44.57 28.9 45.54 27.97 45.71 26.83 45.71 26.83 47.53 13.99 47.53 13.99 47.53 13.99 57.78 13.99 57.78 13.99 57.78 13.99 55.79 28.26 55.79 28.26 55.55 30 56.16 31.1 59.9 29.59 59.76 28.79 59.69 27.95 59.69 27.08 59.69 19.33 64.64 13.44 70.82 13.44 73.28 13.44 74.93 14.5 76.16 16.2 76.16 16.2 77.68 5.14 77.68 5.14 77.68 5.14 87.93 5.14 87.93 5.14 87.93 5.14 84.67 28.43 84.67 28.43 84.46 30.05 85.19 31.25 89.17 29.17 89.08 28.5 89.03 27.8 89.03 27.08 89.03 19.5 93.98 13.44 100.17 13.44 102.62 13.44 104.27 14.5 105.5 16.2 105.5 16.2 105.8 13.99 105.8 13.99 105.8 13.99 116.05 13.99 116.05 13.99 116.05 13.99 114.01 28.43 114.01 28.43 113.8 30.09 114.82 30.38 116.39 30ZM 73.28 21.4C 71.29 21.4 69.72 23.44 69.72 25.77 69.72 27.54 70.65 28.94 72.22 28.94 74.17 28.94 75.78 26.91 75.78 24.58 75.78 22.8 74.8 21.4 73.28 21.4ZM 102.62 21.4C 100.63 21.4 99.07 23.44 99.07 25.77 99.07 27.54 100 28.94 101.56 28.94 103.51 28.94 105.12 26.91 105.12 24.58 105.12 22.8 104.15 21.4 102.62 21.4Z" fill="rgb(255,255,255)"/></svg>