<?xml version="1.0" encoding="utf-8"?>
<!-- Generator: Adobe Illustrator 17.0.0, SVG Export Plug-In . SVG Version: 6.00 Build 0)  -->
<!DOCTYPE svg PUBLIC "-//W3C//DTD SVG 1.1//EN" "http://www.w3.org/Graphics/SVG/1.1/DTD/svg11.dtd">
<svg version="1.1" id="Слой_1" xmlns="http://www.w3.org/2000/svg" xmlns:xlink="http://www.w3.org/1999/xlink" x="0px" y="0px"
	 width="328px" height="72px" viewBox="0 0 328 72" enable-background="new 0 0 328 72" xml:space="preserve">
<g>
	<path fill="#FF15C2" d="M123.263,49.76c0.831,0,1.53-0.052,2.218,0.009c2.646,0.236,3.735,2.502,2.245,4.701
		c-1.496,2.208-3.712,3.562-5.983,4.808c-6.015,3.3-12.519,4.897-19.317,5.365c-4.09,0.282-8.189,0.656-12.286,0.045
		c-0.2-0.03-0.414-0.012-0.602-0.075c-0.944-0.319-2.101-0.424-2.408-1.589c-0.278-1.052,0.459-1.804,1.091-2.536
		c0.132-0.153,0.263-0.321,0.429-0.429c1.055-0.689,0.79-1.16-0.101-1.858c-12.142-9.509-11.134-25.337-4.106-33.884
		c7.14-8.682,20.645-11.408,31.194-6.238c5.064,2.482,9.225,5.944,11.266,11.373c2.552,6.788,0.892,13.032-2.818,18.93
		c-0.215,0.342-0.46,0.666-0.689,1.001C123.371,49.42,123.364,49.473,123.263,49.76z M103.136,23.837
		c-7.682,0.009-12.716,3.682-14.318,9.832c-1.122,4.31,0.33,8.498,3.671,10.588c3.77,2.358,8.848,2.164,11.966-0.456
		c2.223-1.869,3.065-4.664,2.084-6.925c-0.986-2.272-3.877-3.964-6.306-3.662c-0.69,0.086-1.608,0.116-1.502,1.098
		c0.099,0.918,0.871,0.693,1.558,0.607c1.712-0.216,3.8,0.933,4.563,2.45c0.863,1.716,0.194,3.165-0.902,4.469
		c-3.323,3.953-11.2,2.75-13.081-2.053c-1.524-3.889-0.492-7.415,2.158-10.442c3.426-3.915,9.888-4.959,15.16-2.657
		c2.931,1.279,4.95,3.376,5.681,6.497c1,4.264,0.323,8.282-2.355,11.818c-2.661,3.513-6.4,5.35-10.554,6.467
		c-0.626,0.168-1.47,0.213-1.252,1.146c0.213,0.908,1.005,0.672,1.64,0.511c4.585-1.165,8.607-3.264,11.567-7.081
		c3.982-5.135,4.203-13.174,0.405-17.701C110.459,24.935,106.549,23.922,103.136,23.837z"/>
	<path fill="#00FFA1" d="M89.146,66.466c6.201,0.726,12.331,0.103,18.436-0.975c4.629-0.818,9.265-1.678,13.495-3.828
		c3.955-2.011,7.689-4.398,10.268-8.145c2.629-3.818,3.04-8.122,2.606-12.62c-0.367-3.803-2.409-6.767-4.463-9.779
		c-1.868-2.739-3.325-5.664-3.233-9.115c0.011-0.404-0.092-0.952,0.124-1.186c1.396-1.51,0.672-3.213,0.596-4.881
		c-0.134-2.93-0.29-5.874,0.963-8.662c1.337-2.975,4.037-4.608,7.319-4.136c1.701,0.245,3.274,0.101,4.919-0.32
		c2.386-0.611,4.338,0.501,6.058,2.007c0.752,0.659,1.337,1.508,1.996,2.272c0.768,0.892,0.332,1.76-0.192,2.495
		c-0.58,0.812-1.443,1.376-2.495,0.982c-0.985-0.369-1.913-0.918-1.191-2.249c0.666-1.229,0.137-2.174-0.791-2.918
		c-1.002-0.804-2.196-0.601-3.346-0.352c-0.327,0.071-0.33,0.35-0.155,0.587c0.237,0.322,0.48,0.648,0.764,0.928
		c0.777,0.766,1.235,1.622,0.746,2.711c-0.484,1.076-1.243,1.819-2.521,1.816c-2.466-0.749-0.855-2.894-1.431-4.331
		c-1.466,2.257-1.858,4.606-1.024,7.128c-0.139,1.001,0.362,1.872,0.562,2.804c0.093,0.435,0.373,0.554,0.739,0.632
		c5.895,1.264,9.305,5.527,11.813,10.45c3.905,7.665,4.792,15.787,2.92,24.276c-1.704,7.727-6.921,12.15-13.469,15.647
		c-4.688,2.504-9.64,3.341-14.867,3.296c-7.453-0.064-14.872-0.454-22.287-1.28c-4.365-0.486-8.764-1.022-13.184-0.766
		c-2.937,0.17-5.78,0.926-8.647,1.519c-1.292,0.267-2.57,0.491-3.897,0.364c-0.993-0.095-1.32-0.427-0.607-1.308
		c1.694-2.092,3.582-3.934,6.167-4.903c0.55-0.06,1.115-0.061,1.647-0.193c0.811-0.201,1.488-0.098,2.033,0.575
		C86.454,66.166,87.716,66.526,89.146,66.466z M129.39,11.914c0.137,0.898,0.342,2.091,0.497,3.291
		c0.302,2.341,0.326,2.286,2.519,2.031c1.252-0.145,1.371-0.601,1.3-1.757c-0.185-2.999-0.572-6.051,0.838-8.919
		c0.211-0.43,0.653-0.992,0.304-1.37c-0.395-0.428-1.049-0.143-1.568,0.052C130.717,6.208,129.409,8.358,129.39,11.914z"/>
</g>
<g>
	<path fill="#FF15C2" d="M189.288,21.542c-2.354,0.124-2.292-0.557-4.521-0.372c-1.362,0.124-10.344,1.734-13.563,2.354
		c-2.602,3.84-4.336,7.247-5.574,10.095c2.105,0.372,1.114,0.311,5.202,0.434c7.37,0.187,11.024-1.114,12.325-1.053
		c1.115,0.063,1.301,0.743,1.177,1.796c-0.186,2.23-12.387,4.583-20.687,5.512c0,0-1.796,4.583-1.92,5.574
		c-0.186,1.61,1.734,1.61,2.973,1.672c2.044,0.063,14.308-2.725,15.484-2.601c0.805,0.062,1.796,0.371,1.672,1.177
		c-0.062,1.053-0.991,1.486-1.548,1.796c-3.654,2.105-11.892,4.955-17.652,4.955c-4.459,0-5.512-2.23-5.512-5.079
		c0-1.548,1.734-5.76,2.229-7.68c-1.177-0.248-1.301-2.726-1.053-4.15c0.434-2.105,2.477-2.415,3.778-2.973
		c1.177-2.973,2.043-5.017,3.159-7.556c-1.61,0.186-2.787,0.124-2.725-1.053c0.124-1.734,1.239-2.849,2.725-3.902
		c2.973-2.044,18.767-4.335,22.111-4.521c2.167-0.124,5.697,0.062,5.697,2.478C193.065,20.923,191.146,21.419,189.288,21.542z"/>
	<path fill="#FF15C2" d="M193.626,54.615c-5.574,0-6.503-1.733-6.38-3.777c0.124-1.796,0.991-2.416,1.858-2.478
		c1.115-0.124,2.354,1.672,4.521,1.92c1.114,0.124,2.354,0.124,2.415-1.301c0.063-1.486-6.937-2.849-6.937-7.122
		c0-4.707,5.822-6.565,10.344-6.565c3.84,0,5.141,2.105,5.141,4.334c0,1.301-0.93,4.15-3.159,4.273
		c-1.177,0.063-1.549-0.123-1.92-0.743c-0.558-0.929,1.115-2.043,1.115-2.539c0-0.371-0.248-1.053-1.487-1.114
		c-2.044-0.124-3.654,0.186-3.901,2.354c-0.124,1.486,7.246,3.964,7.246,7.122C202.482,53.315,196.971,54.615,193.626,54.615z"/>
	<path fill="#FF15C2" d="M209.916,53.315c-3.84,0-5.326-2.354-5.326-4.584c0-6.193,7.122-14.616,11.272-14.554
		c1.424,0,3.777-0.186,3.777,2.292c0,1.981-1.238,2.539-2.663,3.158c-0.558,0.248-5.636,3.841-5.636,6.751
		c0,0.991-0.248,1.301,0.991,1.301c4.893,0,9.414-5.821,10.157-5.821c1.424,0,1.796,0.681,1.796,2.043
		C224.285,46.626,216.048,53.315,209.916,53.315z"/>
	<path fill="#FF15C2" d="M238.718,52.2c-2.787,0.062-4.336-1.115-5.637-3.592c-2.229,1.362-3.468,3.777-9.476,3.901
		c-3.282,0.063-3.84-1.238-3.84-3.468c0-4.584,7.556-11.025,13.192-11.025c3.716,0,5.141,2.292,5.45,5.265
		c0.247,1.734-0.063,4.521,1.796,4.584c2.044,0.062,5.513-2.416,6.441-2.292c1.114,0.124,1.238,0.371,1.238,1.053
		C247.884,48.546,241.814,52.139,238.718,52.2z M230.852,43.157c-2.044-0.062-5.078,2.168-4.954,3.841
		c0.062,0.619,0.929,0.495,1.548,0.495c1.301,0,4.521-1.734,4.521-3.345C231.967,43.591,231.409,43.157,230.852,43.157z"/>
	<path fill="#FF15C2" d="M260.646,41.361c-2.106,0-1.177-1.362-3.593-1.362c-2.291,0-4.149,2.415-5.141,3.964
		c-1.486,2.415-1.238,4.646-1.238,6.813c0,1.858-1.858,3.283-3.902,3.283c-2.478,0-2.354-1.301-2.354-2.416
		c0-1.177,1.549-4.831,1.549-6.379c0.124-4.336-0.806-3.964-0.806-6.937c0-1.239,2.168-2.416,3.159-2.354
		c1.362,0,2.973,1.487,3.097,3.159c1.177-2.539,5.017-4.087,7.494-4.087c2.354,0,5.513,0.743,5.513,2.601
		C264.424,40.37,262.999,41.361,260.646,41.361z"/>
	<path fill="#FF15C2" d="M282.015,47.184c0.495-0.063,1.177,0.371,1.177,1.177c0.062,0.558-0.124,1.177-1.177,1.981
		c-1.61,1.301-5.76,4.336-8.423,5.141c-1.673,7.433-4.894,17.095-10.158,17.032c-2.725-0.062-4.396-3.716-4.149-6.317
		c0.496-7.804,5.513-11.21,8.3-12.387c0,0-0.434-0.867-2.354-1.177c-2.663-0.434-5.141-2.663-4.955-5.079
		c0.619-6.131,6.379-13.129,11.334-13.129c2.911,0,4.646,1.362,4.646,4.955c0,3.468-5.822,7.061-8.795,8.299
		c1.486,0.867,3.097,0.372,4.397,1.549c0.867,0.805,1.796,1.61,1.548,2.601c2.726-1.424,5.327-2.725,6.999-3.777
		C280.776,47.741,281.767,47.184,282.015,47.184z M264.61,61.986c0,0.805,0.063,1.238,0.372,1.981
		c1.115,2.726,2.663-4.212,3.53-6.751C266.841,58.146,264.61,59.57,264.61,61.986z M270.062,39.627
		c-0.743,0-1.673,1.549-2.354,2.726c1.424-0.31,3.097-1.115,3.097-2.044C270.805,39.751,270.495,39.627,270.062,39.627z"/>
	<path fill="#FF15C2" d="M300.72,46.502c-1.238,0-2.973-0.434-4.149-1.424c-0.434,0.557-5.202,9.909-11.272,9.909
		c-1.981,0-5.202-1.858-5.202-5.079c0-6.874,9.848-13.006,12.077-13.006c5.45,0,5.822,2.478,6.008,4.707
		c0.558,0.434,1.734,1.114,3.221,1.114c1.053,0,2.415-0.371,3.097-0.371c0.867,0,0.743,0.929,0.743,1.61
		C305.241,45.697,302.826,46.502,300.72,46.502z M291.678,43.405c-1.797-0.495-5.761,4.212-5.761,5.326
		c0,0.682,0.311,1.487,1.054,1.549c2.354,0.124,5.264-3.53,5.326-5.079C292.297,44.521,292.482,43.653,291.678,43.405z"/>
	<path fill="#FF15C2" d="M311.188,39.008c-1.3,2.787-3.468,7.309-3.468,13.502c0,1.982-0.682,2.354-2.85,2.229
		c-1.3-0.062-2.229-0.929-2.229-2.911c0-3.592-0.247-8.98-0.124-13.315c0-1.053,0.558-2.106,1.177-2.353
		c1.239-0.434,3.221-0.806,4.77-1.115c2.168-5.636,7.866-20.191,12.573-20.748c1.114-0.186,1.981,0.31,1.981,1.424
		c0,3.159-7.865,15.174-9.972,18.705c4.026-0.186,10.529-0.31,11.954-0.248c0.743,0.063,1.424,0.434,1.424,1.177
		c0,1.239-2.044,1.672-3.654,1.919C319.612,37.831,315.834,38.389,311.188,39.008z"/>
</g>
<g>
	<path fill="#00FFA1" d="M29.809,38.368c-5.45,7.246-13.13,14.555-20.811,14.555c-6.441,0-7.804-2.292-7.804-5.265
		c-0.062-6.627,2.973-11.396,6.689-17.775c3.159-5.512,7.618-12.697,10.096-12.697c0.867,0,1.858-0.186,1.858,1.115
		c0,1.487-4.335,6.689-7.804,12.883c-2.416,4.335-4.397,9.042-4.769,13.377c-0.248,2.911,2.416,3.282,4.893,3.282
		c1.115,0,8.361-2.354,14.555-12.077c3.654-5.822,4.645-9.167,5.079-11.83c0.434-2.725,0.619-3.964,3.221-4.026
		c2.044-0.062,2.477,2.23,2.477,4.15C37.489,25.857,34.516,32.113,29.809,38.368z"/>
	<path fill="#00FFA1" d="M57.992,12.232c-0.248,5.512-14.246,21.554-17.156,24.959c-1.548,1.796-2.354,3.097-3.097,4.707
		c1.115-1.177,4.893-5.883,9.228-5.883c3.035,0,3.345,1.486,3.345,3.53c0,2.911-4.459,6.317-6.999,6.875
		c0.619,1.548,2.292,2.229,4.645,2.105c3.468-0.186,9.91-6.999,10.962-6.999c0.743,0,1.486,0.743,1.486,1.425
		c0,1.549-8.671,11.024-15.05,10.776c-5.822-0.186-5.512-2.787-5.946-4.954c-1.982,1.672-4.893,4.025-6.875,4.025
		c-2.354,0-2.354-2.105-2.354-3.778c0-3.034,4.769-13.315,8.856-21.429c4.459-9.042,8.423-18.395,16.104-18.767
		C57.682,8.702,58.054,10.498,57.992,12.232z M40.959,31.742c2.416-2.726,8.733-10.839,8.733-12.387c0-0.31,0.186-0.62-0.124-0.62
		C48.144,18.735,42.694,27.777,40.959,31.742z"/>
	<path fill="#00FFA1" d="M73.107,41.65c-2.106,0-1.177-1.362-3.592-1.362c-2.292,0-4.15,2.415-5.141,3.964
		c-1.487,2.415-1.239,4.646-1.239,6.813c0,1.858-1.858,3.283-3.902,3.283c-2.478,0-2.354-1.301-2.354-2.416
		c0-1.177,1.548-4.831,1.548-6.379c0.124-4.336-0.805-3.964-0.805-6.937c0-1.239,2.167-2.416,3.159-2.354
		c1.362,0,2.973,1.487,3.097,3.159c1.177-2.539,5.017-4.087,7.494-4.087c2.354,0,5.512,0.743,5.512,2.601
		C76.885,40.659,75.46,41.65,73.107,41.65z"/>
</g>
</svg>
