<?xml version="1.0" encoding="utf-8"?>
<!-- Generator: Adobe Illustrator 17.0.0, SVG Export Plug-In . SVG Version: 6.00 Build 0)  -->
<!DOCTYPE svg PUBLIC "-//W3C//DTD SVG 1.1//EN" "http://www.w3.org/Graphics/SVG/1.1/DTD/svg11.dtd">
<svg version="1.1" id="Слой_1" xmlns="http://www.w3.org/2000/svg" xmlns:xlink="http://www.w3.org/1999/xlink" x="0px" y="0px"
	 width="335.833px" height="72px" viewBox="0 0 335.833 72" enable-background="new 0 0 335.833 72" xml:space="preserve">
<g>
	<path fill="#FF15C2" d="M124.263,49.76c0.831,0,1.53-0.052,2.218,0.009c2.646,0.236,3.735,2.502,2.245,4.701
		c-1.496,2.208-3.712,3.562-5.983,4.808c-6.015,3.3-12.519,4.897-19.317,5.365c-4.09,0.282-8.189,0.656-12.286,0.045
		c-0.2-0.03-0.414-0.012-0.602-0.075c-0.944-0.319-2.101-0.424-2.408-1.589c-0.278-1.052,0.459-1.804,1.091-2.536
		c0.132-0.153,0.263-0.321,0.429-0.429c1.055-0.689,0.79-1.16-0.101-1.858c-12.142-9.509-11.134-25.337-4.106-33.884
		c7.14-8.682,20.645-11.408,31.194-6.238c5.064,2.482,9.225,5.944,11.266,11.373c2.552,6.788,0.892,13.032-2.818,18.93
		c-0.215,0.342-0.46,0.666-0.689,1.001C124.371,49.42,124.364,49.473,124.263,49.76z M104.136,23.837
		c-7.682,0.009-12.716,3.682-14.318,9.832c-1.122,4.31,0.33,8.498,3.671,10.588c3.77,2.358,8.848,2.164,11.966-0.456
		c2.223-1.869,3.065-4.664,2.084-6.925c-0.986-2.272-3.877-3.964-6.306-3.662c-0.69,0.086-1.608,0.116-1.502,1.098
		c0.099,0.918,0.871,0.693,1.558,0.607c1.712-0.216,3.8,0.933,4.563,2.45c0.863,1.716,0.194,3.165-0.902,4.469
		c-3.323,3.953-11.2,2.75-13.081-2.053c-1.524-3.889-0.492-7.415,2.158-10.442c3.426-3.915,9.888-4.959,15.16-2.657
		c2.931,1.279,4.95,3.376,5.681,6.497c1,4.264,0.323,8.282-2.355,11.818c-2.661,3.513-6.4,5.35-10.554,6.467
		c-0.626,0.168-1.47,0.213-1.252,1.146c0.213,0.908,1.005,0.672,1.64,0.511c4.585-1.165,8.607-3.264,11.567-7.081
		c3.982-5.135,4.203-13.174,0.405-17.701C111.459,24.935,107.549,23.922,104.136,23.837z"/>
	<path fill="#00FFA1" d="M90.146,66.466c6.201,0.726,12.331,0.103,18.436-0.975c4.629-0.818,9.265-1.678,13.495-3.828
		c3.955-2.011,7.689-4.398,10.268-8.145c2.629-3.818,3.04-8.122,2.606-12.62c-0.367-3.803-2.409-6.767-4.463-9.779
		c-1.868-2.739-3.325-5.664-3.233-9.115c0.011-0.404-0.092-0.952,0.124-1.186c1.396-1.51,0.672-3.213,0.596-4.881
		c-0.134-2.93-0.29-5.874,0.963-8.662c1.337-2.975,4.037-4.608,7.319-4.136c1.701,0.245,3.274,0.101,4.919-0.32
		c2.386-0.611,4.338,0.501,6.058,2.007c0.752,0.659,1.337,1.508,1.996,2.272c0.768,0.892,0.332,1.76-0.192,2.495
		c-0.58,0.812-1.443,1.376-2.495,0.982c-0.985-0.369-1.913-0.918-1.191-2.249c0.666-1.229,0.137-2.174-0.791-2.918
		c-1.002-0.804-2.196-0.601-3.346-0.352c-0.327,0.071-0.33,0.35-0.155,0.587c0.237,0.322,0.48,0.648,0.764,0.928
		c0.777,0.766,1.235,1.622,0.746,2.711c-0.484,1.076-1.243,1.819-2.521,1.816c-2.466-0.749-0.855-2.894-1.431-4.331
		c-1.466,2.257-1.858,4.606-1.024,7.128c-0.139,1.001,0.362,1.872,0.562,2.804c0.093,0.435,0.373,0.554,0.739,0.632
		c5.895,1.264,9.305,5.527,11.813,10.45c3.905,7.665,4.792,15.787,2.92,24.276c-1.704,7.727-6.921,12.15-13.469,15.647
		c-4.688,2.504-9.64,3.341-14.867,3.296c-7.453-0.064-14.872-0.454-22.287-1.28c-4.365-0.486-8.764-1.022-13.184-0.766
		c-2.937,0.17-5.78,0.926-8.647,1.519c-1.292,0.267-2.57,0.491-3.897,0.364c-0.993-0.095-1.32-0.427-0.607-1.308
		c1.694-2.092,3.582-3.934,6.167-4.903c0.55-0.06,1.115-0.061,1.647-0.193c0.811-0.201,1.488-0.098,2.033,0.575
		C87.454,66.166,88.716,66.526,90.146,66.466z M130.39,11.914c0.137,0.898,0.342,2.091,0.497,3.291
		c0.302,2.341,0.326,2.286,2.519,2.031c1.252-0.145,1.371-0.601,1.3-1.757c-0.185-2.999-0.572-6.051,0.838-8.919
		c0.211-0.43,0.653-0.992,0.304-1.37c-0.395-0.428-1.049-0.143-1.568,0.052C131.717,6.208,130.409,8.358,130.39,11.914z"/>
</g>
<g enable-background="new    ">
	<path fill="#FF15C2" d="M183.776,26.992c-1.301,0-2.726-0.805-2.85-1.672c-0.123-0.682,0.124-0.806,0.124-1.549
		c0-0.434-0.495-1.053-1.673-1.053c-4.521,0-7.184,6.008-7.122,11.211c0.062,5.202,5.142,13.13,5.202,16.227
		c0.063,2.168-2.477,3.654-4.954,3.654c-4.645,0-14.741-5.574-14.679-9.91c0-1.486,1.115-2.043,2.354-2.043
		c1.92,0,8.485,6.503,10.777,6.503c0.434,0,0.681,0,0.681-0.434c0-0.619-3.53-8.795-3.53-15.051c0-4.273,2.663-16.165,10.467-16.165
		c6.627,0,7.928,3.221,7.928,5.884C186.5,24.763,185.2,26.992,183.776,26.992z"/>
	<path fill="#FF15C2" d="M187.307,53.191c-3.715,0-5.202-2.292-5.202-4.46c0-6.131,7.061-14.492,11.148-14.431
		c1.362,0,3.654-0.186,3.654,2.168c0,1.92-0.743,2.911-2.601,3.035c-0.559,0.062-5.699,3.901-5.699,6.874
		c0,1.115,0.619,1.239,1.982,1.239c4.893,0,10.529-5.884,11.271-5.884c1.363,0,1.611-0.124,1.611,1.177
		C203.473,44.148,193.377,53.191,187.307,53.191z"/>
	<path fill="#FF15C2" d="M224.409,7.793c2.539-0.187,2.973,1.672,2.91,3.344c-0.309,5.513-12.758,20.129-20.438,29.11
		c-1.3,2.105-1.177,2.105-2.354,5.078c2.229-2.725,6.38-7.122,9.353-7.122c2.168,0,3.035,1.114,3.035,3.097
		c0,1.92-0.867,2.973-1.053,4.707c-0.125,1.301,0.062,2.105,1.053,2.105c2.354,0,11.148-9.042,12.201-9.042
		c0.805,0,1.486,0.681,1.486,1.424c0,1.486-9.786,13.44-16.166,13.192c-3.406-0.124-4.148-1.672-4.025-3.406
		c0.063-1.238,0-2.726-0.929-2.849c-1.796-0.248-6.937,5.697-8.981,5.697c-2.354,0-2.354-2.044-2.354-3.716
		c0-3.097,4.398-13.068,8.857-21.368C211.959,18.94,216.79,8.164,224.409,7.793z M210.288,30.646
		c2.354-2.725,8.67-10.776,8.67-12.325c0-0.371,0.186-0.681-0.123-0.681C217.41,17.641,212.021,26.683,210.288,30.646z"/>
	<path fill="#FF15C2" d="M246.708,53.872c-4.273,0-4.211-2.91-4.211-4.769c0-1.053,0.186-2.105-0.682-2.168
		c-0.867-0.062-2.91,1.177-5.264,2.85c-1.982,1.362-4.213,3.344-7.061,3.344c-2.479,0-3.654-1.548-3.654-3.468
		s1.114-6.938,1.672-9.414c0.371-1.92,1.982-2.416,3.53-2.416c2.105,0,2.539,1.177,2.539,3.035c0,1.486-1.61,6.627-0.929,6.627
		c1.486,0,2.787-1.301,4.396-2.292c2.23-1.301,5.203-3.592,7.557-3.592c2.602,0,3.778,1.425,3.778,2.973
		c0,0.867-0.806,2.478-0.806,3.221c-0.062,1.115,0.125,1.362,1.178,1.301c3.034-0.124,5.883-3.282,6.503-3.221
		c0.929,0.062,1.177,0.434,1.177,1.425C256.432,48.484,251.787,53.872,246.708,53.872z"/>
	<path fill="#FF15C2" d="M259.469,53.006c-3.097,0-4.211-0.806-5.326-2.23c-0.867-1.053-0.93-2.105-0.93-3.53
		c0-2.973,5.08-13.192,12.141-13.192c3.777,0,5.945,2.974,5.574,5.698c-0.372,2.787-6.689,7.185-10.406,7.557
		c0.434,0.805,1.363,1.301,2.726,1.301c1.673,0,10.715-4.026,11.21-4.026c1.053,0.063,1.734,0,1.734,1.425
		C276.192,47.865,263.309,53.006,259.469,53.006z M260.77,43.157c2.664,0,5.078-1.733,5.078-2.601c0-0.434-0.123-0.991-0.928-1.053
		C262.875,39.317,261.761,41.547,260.77,43.157z"/>
	<path fill="#FF15C2" d="M276.071,53.191c-3.717,0-5.203-2.292-5.203-4.46c0-6.131,7.061-14.492,11.148-14.431
		c1.363,0,3.654-0.186,3.654,2.168c0,1.92-0.743,2.911-2.602,3.035c-0.557,0.062-5.697,3.901-5.697,6.874
		c0,1.115,0.619,1.239,1.981,1.239c4.894,0,10.528-5.884,11.272-5.884c1.362,0,1.609-0.124,1.609,1.177
		C292.235,44.148,282.14,53.191,276.071,53.191z"/>
	<path fill="#FF15C2" d="M315.401,11.942c-0.248,5.512-14.246,21.554-17.156,24.96c-1.549,1.796-2.354,3.097-3.097,4.707
		c1.114-1.177,4.893-5.884,9.228-5.884c3.035,0,3.346,1.486,3.346,3.53c0,2.911-4.46,6.317-6.999,6.875
		c0.619,1.548,2.292,2.229,4.646,2.105c3.468-0.186,9.909-6.999,10.962-6.999c0.743,0,1.486,0.743,1.486,1.425
		c0,1.549-8.671,11.024-15.05,10.776c-5.822-0.186-5.513-2.787-5.946-4.954c-1.981,1.672-4.893,4.025-6.874,4.025
		c-2.354,0-2.354-2.105-2.354-3.778c0-3.034,4.769-13.315,8.855-21.43c4.46-9.042,8.424-18.395,16.104-18.766
		C315.09,8.412,315.462,10.208,315.401,11.942z M298.368,31.452c2.416-2.726,8.733-10.839,8.733-12.388
		c0-0.31,0.187-0.619-0.124-0.619C305.553,18.445,300.102,27.488,298.368,31.452z"/>
	<path fill="#FF15C2" d="M319.429,53.006c-3.097,0-4.212-0.806-5.327-2.23c-0.867-1.053-0.929-2.105-0.929-3.53
		c0-2.973,5.079-13.192,12.14-13.192c3.777,0,5.945,2.974,5.574,5.698c-0.371,2.787-6.689,7.185-10.405,7.557
		c0.434,0.805,1.362,1.301,2.726,1.301c1.672,0,10.715-4.026,11.21-4.026c1.053,0.063,1.733,0,1.733,1.425
		C336.151,47.865,323.269,53.006,319.429,53.006z M320.729,43.157c2.664,0,5.08-1.733,5.08-2.601c0-0.434-0.125-0.991-0.93-1.053
		C322.835,39.317,321.721,41.547,320.729,43.157z"/>
</g>
<g enable-background="new    ">
	<path fill="#00FFA1" d="M30.809,38.369c-5.45,7.246-13.13,14.555-20.811,14.555c-6.441,0-7.804-2.293-7.804-5.266
		c-0.062-6.627,2.973-11.396,6.689-17.775c3.159-5.512,7.618-12.696,10.096-12.696c0.867,0,1.858-0.187,1.858,1.114
		c0,1.486-4.335,6.689-7.804,12.883c-2.416,4.335-4.397,9.042-4.769,13.378c-0.248,2.91,2.416,3.281,4.893,3.281
		c1.115,0,8.361-2.354,14.555-12.077c3.654-5.822,4.645-9.166,5.079-11.829c0.434-2.726,0.619-3.964,3.221-4.026
		c2.044-0.062,2.477,2.229,2.477,4.149C38.489,25.858,35.516,32.113,30.809,38.369z"/>
	<path fill="#00FFA1" d="M58.992,12.232c-0.248,5.512-14.246,21.554-17.156,24.959c-1.548,1.797-2.354,3.098-3.097,4.707
		c1.115-1.176,4.893-5.883,9.228-5.883c3.035,0,3.345,1.487,3.345,3.53c0,2.912-4.459,6.318-6.999,6.875
		c0.619,1.549,2.292,2.23,4.645,2.105c3.468-0.186,9.91-6.998,10.962-6.998c0.743,0,1.486,0.742,1.486,1.424
		c0,1.549-8.671,11.025-15.05,10.777c-5.822-0.186-5.512-2.787-5.946-4.955c-1.982,1.672-4.893,4.025-6.875,4.025
		c-2.354,0-2.354-2.105-2.354-3.777c0-3.035,4.769-13.316,8.856-21.43c4.459-9.042,8.423-18.395,16.104-18.766
		C58.682,8.702,59.054,10.498,58.992,12.232z M41.959,31.742c2.416-2.726,8.733-10.839,8.733-12.388c0-0.31,0.186-0.619-0.124-0.619
		C49.144,18.735,43.694,27.778,41.959,31.742z"/>
	<path fill="#00FFA1" d="M74.107,41.65c-2.106,0-1.177-1.361-3.592-1.361c-2.292,0-4.15,2.414-5.141,3.963
		c-1.487,2.416-1.239,4.646-1.239,6.813c0,1.859-1.858,3.283-3.902,3.283c-2.478,0-2.354-1.301-2.354-2.416
		c0-1.176,1.548-4.83,1.548-6.379c0.124-4.336-0.805-3.963-0.805-6.936c0-1.24,2.167-2.417,3.159-2.355
		c1.362,0,2.973,1.488,3.097,3.16c1.177-2.539,5.017-4.088,7.494-4.088c2.354,0,5.512,0.743,5.512,2.602
		C77.885,40.66,76.46,41.65,74.107,41.65z"/>
</g>
</svg>
