<?xml version="1.0" encoding="utf-8"?>
<!-- Generator: Adobe Illustrator 17.0.0, SVG Export Plug-In . SVG Version: 6.00 Build 0)  -->
<!DOCTYPE svg PUBLIC "-//W3C//DTD SVG 1.1//EN" "http://www.w3.org/Graphics/SVG/1.1/DTD/svg11.dtd">
<svg version="1.1" id="Слой_1" xmlns="http://www.w3.org/2000/svg" xmlns:xlink="http://www.w3.org/1999/xlink" x="0px" y="0px"
	 width="561.5px" height="126.5px" viewBox="0 0 561.5 126.5" enable-background="new 0 0 561.5 126.5" xml:space="preserve">
<g>
	<path fill="#FFFFFF" d="M203.063,79.412c1.321,0,2.432-0.083,3.527,0.015c4.206,0.375,5.937,3.977,3.569,7.473
		c-2.379,3.511-5.901,5.662-9.512,7.643c-9.562,5.246-19.902,7.785-30.709,8.529c-6.503,0.448-13.018,1.043-19.532,0.072
		c-0.318-0.047-0.659-0.019-0.957-0.119c-1.5-0.508-3.339-0.674-3.828-2.527c-0.442-1.673,0.73-2.868,1.735-4.032
		c0.21-0.243,0.419-0.51,0.682-0.682c1.677-1.095,1.257-1.844-0.161-2.953c-19.304-15.117-17.701-40.281-6.527-53.868
		c11.351-13.803,32.821-18.137,49.592-9.917c8.051,3.946,14.665,9.45,17.91,18.081c4.057,10.792,1.418,20.718-4.48,30.094
		c-0.342,0.544-0.732,1.059-1.095,1.591C203.236,78.872,203.224,78.955,203.063,79.412z M171.066,38.201
		c-12.212,0.015-20.216,5.853-22.762,15.63c-1.784,6.851,0.524,13.509,5.837,16.832c5.993,3.749,14.066,3.441,19.023-0.726
		c3.535-2.971,4.872-7.415,3.313-11.009c-1.567-3.612-6.164-6.302-10.026-5.821c-1.097,0.137-2.557,0.184-2.388,1.746
		c0.157,1.459,1.385,1.102,2.477,0.964c2.721-0.343,6.041,1.483,7.254,3.895c1.372,2.728,0.308,5.032-1.434,7.105
		c-5.283,6.285-17.805,4.372-20.796-3.264c-2.423-6.183-0.781-11.788,3.43-16.601c5.446-6.223,15.719-7.883,24.101-4.224
		c4.659,2.034,7.869,5.367,9.032,10.328c1.589,6.778,0.513,13.167-3.744,18.787c-4.23,5.585-10.174,8.506-16.779,10.282
		c-0.996,0.268-2.337,0.339-1.99,1.822c0.338,1.444,1.598,1.069,2.607,0.813c7.289-1.852,13.683-5.189,18.388-11.257
		c6.33-8.164,6.682-20.943,0.644-28.141C182.708,39.946,176.491,38.335,171.066,38.201z"/>
	<path fill="#00FFA1" d="M148.825,105.971c9.858,1.154,19.603,0.164,29.309-1.551c7.359-1.3,14.729-2.667,21.455-6.086
		c6.288-3.197,12.224-6.993,16.325-12.948c4.179-6.07,4.833-12.912,4.142-20.062c-0.584-6.045-3.829-10.758-7.096-15.546
		c-2.97-4.354-5.285-9.005-5.139-14.491c0.017-0.642-0.147-1.513,0.198-1.886c2.219-2.4,1.068-5.107,0.947-7.759
		c-0.212-4.659-0.461-9.339,1.531-13.77c2.126-4.729,6.418-7.326,11.635-6.575c2.704,0.389,5.205,0.161,7.82-0.508
		c3.793-0.971,6.897,0.796,9.632,3.191c1.195,1.047,2.126,2.397,3.173,3.613c1.222,1.418,0.528,2.799-0.306,3.966
		c-0.922,1.291-2.294,2.188-3.966,1.561c-1.566-0.587-3.041-1.459-1.893-3.576c1.059-1.954,0.217-3.457-1.257-4.639
		c-1.593-1.277-3.491-0.956-5.319-0.56c-0.52,0.113-0.524,0.556-0.247,0.934c0.377,0.513,0.763,1.029,1.214,1.475
		c1.235,1.219,1.964,2.579,1.186,4.31c-0.769,1.711-1.976,2.892-4.008,2.886c-3.921-1.191-1.359-4.601-2.275-6.886
		c-2.33,3.587-2.954,7.323-1.629,11.332c-0.221,1.592,0.575,2.976,0.893,4.459c0.148,0.691,0.593,0.881,1.175,1.005
		c9.372,2.009,14.793,8.787,18.78,16.613c6.208,12.186,7.618,25.099,4.642,38.593c-2.709,12.284-11.002,19.315-21.413,24.875
		c-7.453,3.98-15.325,5.311-23.635,5.239c-11.848-0.102-23.643-0.722-35.431-2.035c-6.94-0.773-13.933-1.624-20.96-1.218
		c-4.669,0.27-9.19,1.473-13.746,2.416c-2.054,0.425-4.086,0.781-6.195,0.579c-1.578-0.151-2.099-0.68-0.966-2.079
		c2.694-3.325,5.695-6.254,9.803-7.795c0.874-0.095,1.772-0.097,2.618-0.307c1.289-0.319,2.366-0.157,3.233,0.914
		C144.545,105.494,146.552,106.066,148.825,105.971z M212.804,19.245c0.218,1.428,0.544,3.325,0.79,5.232
		c0.481,3.721,0.518,3.634,4.005,3.229c1.991-0.231,2.179-0.956,2.066-2.793c-0.294-4.767-0.909-9.62,1.332-14.179
		c0.336-0.683,1.038-1.576,0.483-2.178c-0.628-0.681-1.667-0.228-2.492,0.083C214.913,10.173,212.834,13.592,212.804,19.245z"/>
</g>
<g>
	<path fill="#FFFFFF" d="M301.144,48.527c-6.007,17.529-16.15,36.931-30.43,36.931c-9.75,0-16.644-4.333-16.545-8.667
		c0.099-2.561,2.167-6.007,5.219-6.007c1.97,0,3.743,1.182,5.614,2.954c1.477,1.28,3.644,1.97,6.598,1.97
		c9.258,0,18.219-11.128,22.158-21.567c-5.121,6.204-8.469,9.75-14.378,9.75c-5.22,0-8.765-3.25-8.765-9.257
		c0-5.811,6.5-15.363,7.386-20.189c0.492-2.955-1.379-6.598-0.886-10.537c0.295-2.561,2.855-4.727,5.12-4.826
		c2.955-0.099,5.121,0.492,5.121,4.432c0,5.022-7.779,22.847-7.779,28.165c0,1.97,1.378,2.758,2.954,2.758
		c2.068,0,9.848-5.022,13.295-9.159c3.25-9.848,7.484-25.704,13.984-25.506c4.136,0.098,5.317,2.265,5.219,4.825
		C314.636,32.869,304.984,44.194,301.144,48.527z"/>
	<path fill="#FFFFFF" d="M331.866,85.556c-6.303,0-7.386-3.249-7.386-6.303c0-1.083,1.772-6.007,2.167-7.09
		c-1.28,1.575-8.174,13.393-17.53,13.393c-4.727,0-8.174-3.348-8.174-7.977c0-6.598,1.773-9.553,6.992-9.553
		c4.432,0,4.432,3.939,4.432,6.204c0,2.463,0.689,2.068,2.068,2.068c5.318,0,15.757-20.188,19.991-20.188
		c2.364,0,4.629,1.478,4.629,3.841c0,3.25-6.105,12.212-6.105,14.279c0,1.379,0.196,2.856,1.477,2.856
		c9.454-0.099,20.09-10.144,21.863-10.045c1.28,0.099,1.969,0.788,1.969,1.871C358.259,71.276,341.222,85.556,331.866,85.556z"/>
	<path fill="#FFFFFF" d="M380.709,86.442c-6.991,0-8.075-6.007-7.484-11.029c-5.908,5.908-12.408,10.438-18.415,10.438
		c-4.53,0-6.992-3.644-6.106-7.682c1.182-5.613,2.363-7.682,5.909-15.067c1.575-3.25,5.121-4.333,6.696-3.939
		c1.675,0.591,1.379,2.364,1.28,3.645c-0.196,2.462-4.333,9.454-4.333,12.211c0,0.887,0.197,1.083,1.182,1.083
		c2.856,0,7.879-2.658,12.212-5.81c2.954-2.068,5.515-7.288,7.583-7.387c5.908-0.196,4.037,5.022,2.954,6.697
		c-0.886,1.379-1.478,6.303-1.478,8.174c0,0.591,0.395,1.379,1.084,1.379c5.811,0,13.491-4.137,15.264-4.038
		c0.493,0.099,0.887,0.788,0.887,1.871C397.943,79.647,385.141,86.442,380.709,86.442z"/>
	<path fill="#FFFFFF" d="M454.37,85.063c-4.924,0-7.878-2.561-7.878-5.613c0-1.083,0-4.037,0.787-5.613
		c-2.757,1.772-10.931,10.438-20.188,10.438c-4.234,0-4.727-3.348-4.727-6.499c0-2.659,0.689-5.613,0.887-7.484
		c-5.909,3.644-15.855,14.082-21.765,14.771c-2.855,0.296-4.037-1.772-4.037-5.613c0.098-4.234,1.674-10.438,2.855-13.688
		c1.182-3.447,3.447-7.682,6.795-7.682c1.379,0,2.462,2.068,2.462,3.939c0,3.742-2.561,9.06-3.25,13.295
		c12.803-9.159,18.022-15.462,23.242-15.462c2.658,0,3.545,2.364,3.644,4.432c0.099,1.28-1.871,6.401-1.871,8.765
		c0,1.28,0.099,2.955,1.379,2.955c4.628,0,17.332-16.348,21.566-16.348c1.28,0,3.151,0.886,3.151,2.363
		c0,1.97-3.151,9.553-3.151,11.817c0,1.379,0.788,3.25,2.167,3.25c6.894,0,16.446-10.439,18.219-10.341
		c1.182,0.099,1.97,0.788,1.97,1.871C476.627,70.292,463.627,85.063,454.37,85.063z"/>
	<path fill="#FFFFFF" d="M494.741,85.261c-7.583,0-9.158-5.909-9.848-9.355c-3.151,2.659-8.863,9.355-12.015,9.355
		c-3.742,0-3.349-3.349-3.349-6.008c0-2.265,7.978-25.899,11.424-25.899c3.742,0,3.939,1.477,3.939,3.742
		c0,1.674-5.022,12.408-6.696,16.544c4.628-2.265,18.021-20.286,24.816-20.286c3.742,0,4.137,2.166,4.137,5.416
		c0,5.909-9.454,6.105-16.938,12.408c1.083,2.462,3.249,6.599,7.09,6.599c8.174,0,17.333-11.916,19.007-11.916
		c1.182,0,2.363,1.182,2.363,2.265C518.672,70.587,504.885,85.261,494.741,85.261z"/>
	<path fill="#FFFFFF" d="M539.352,85.063c-6.992,0-6.401-3.545-8.47-7.484c-3.545,2.167-5.909,7.189-15.461,7.484
		c-5.22,0.099-6.106-1.97-6.106-5.515c0-7.386,12.409-18.81,21.37-18.81c5.909,0,8.174,3.644,8.667,8.371
		c0.394,2.757-1.478,9.06,2.363,9.06s11.128-4.825,12.605-4.628c1.772,0.196,1.97,0.591,1.97,1.772
		C556.29,77.579,544.275,85.063,539.352,85.063z M527.337,68.913c-3.25-0.099-8.47,4.727-8.272,7.287
		c0.099,1.084,1.477,0.887,2.462,0.887c2.068,0,7.583-4.038,7.583-6.599C529.109,69.603,528.223,68.913,527.337,68.913z"/>
</g>
<g>
	<path fill="#00FFA1" d="M50.207,48.989C44.199,66.519,34.056,85.92,19.776,85.92c-9.75,0-16.643-4.334-16.544-8.667
		c0.099-2.561,2.167-6.007,5.219-6.007c1.97,0,3.743,1.182,5.614,2.954c1.477,1.28,3.644,1.97,6.598,1.97
		c9.257,0,18.219-11.128,22.158-21.567c-5.121,6.204-8.469,9.75-14.378,9.75c-5.22,0-8.765-3.25-8.765-9.257
		c0-5.811,6.5-15.363,7.386-20.189c0.493-2.955-1.378-6.598-0.886-10.537c0.295-2.561,2.856-4.727,5.121-4.826
		c2.955-0.099,5.121,0.492,5.121,4.432c0,5.022-7.78,22.847-7.78,28.165c0,1.97,1.379,2.758,2.955,2.758
		c2.068,0,9.848-5.022,13.295-9.159c3.25-9.848,7.484-25.704,13.984-25.506c4.136,0.098,5.318,2.265,5.22,4.825
		C63.698,33.331,54.047,44.656,50.207,48.989z"/>
	<path fill="#00FFA1" d="M72.953,85.723c-7.583,0-9.159-5.909-9.848-9.355c-3.151,2.659-8.863,9.355-12.015,9.355
		c-3.742,0-3.348-3.349-3.348-6.008c0-2.265,7.977-25.899,11.424-25.899c3.742,0,3.939,1.477,3.939,3.742
		c0,1.674-5.022,12.408-6.697,16.544c4.629-2.265,18.022-20.286,24.817-20.286c3.742,0,4.136,2.166,4.136,5.416
		c0,5.909-9.454,6.105-16.938,12.408c1.083,2.462,3.25,6.599,7.091,6.599c8.174,0,17.333-11.916,19.006-11.916
		c1.182,0,2.364,1.182,2.364,2.265C96.884,71.049,83.097,85.723,72.953,85.723z"/>
	<path fill="#00FFA1" d="M125.047,82.866c-2.954,0.985-11.522,1.872-14.673,1.872c-2.659,1.477-6.106,1.674-8.667,1.674
		c-2.167,0-4.628-0.296-6.5-1.674c-4.727,12.014-6.106,20.976-8.961,30.528c-0.985,2.954-5.318,5.515-6.894,5.515
		c-2.167,0-2.462-3.545-2.462-4.924c0-7.977,11.325-26.393,16.052-42.642c1.773-5.909,1.083-11.72,1.083-15.561
		c0-1.674,1.674-5.515,5.219-5.515c3.644,0,3.644,5.811,2.955,9.258c2.167-2.561,6.106-7.879,11.128-7.879
		c4.727,0,6.795,5.416,6.795,10.045c0,6.303-2.955,12.507-4.727,15.166c3.742,0.492,11.621-1.772,13.393-1.772
		c1.182,0,1.379,0.886,1.379,2.265C130.168,81.685,128.001,82.079,125.047,82.866z M103.578,75.087c-1.28,0-2.462,0.492-2.56,1.871
		c0,1.083,1.083,2.265,2.757,2.265c0.689,0.099,1.576-0.295,2.462-0.787C105.45,76.662,104.268,75.087,103.578,75.087z
		 M109.389,62.678c-2.462,0-5.712,3.743-6.697,5.614c2.364-0.099,5.515,1.378,7.386,4.136c0.591-2.167,1.576-4.924,1.674-7.189
		C111.851,63.663,110.57,62.678,109.389,62.678z"/>
</g>
</svg>
