<?xml version="1.0" encoding="utf-8"?>
<!-- Generator: Adobe Illustrator 17.0.0, SVG Export Plug-In . SVG Version: 6.00 Build 0)  -->
<!DOCTYPE svg PUBLIC "-//W3C//DTD SVG 1.1//EN" "http://www.w3.org/Graphics/SVG/1.1/DTD/svg11.dtd">
<svg version="1.1" id="Слой_1" xmlns="http://www.w3.org/2000/svg" xmlns:xlink="http://www.w3.org/1999/xlink" x="0px" y="0px"
	 width="545.5px" height="118px" viewBox="0 0 545.5 118" enable-background="new 0 0 545.5 118" xml:space="preserve">
<g>
	<path fill="#FFFFFF" d="M201.063,79.412c1.321,0,2.432-0.083,3.527,0.015c4.206,0.375,5.937,3.977,3.569,7.473
		c-2.379,3.511-5.901,5.662-9.512,7.643c-9.562,5.246-19.902,7.785-30.709,8.529c-6.503,0.448-13.018,1.043-19.532,0.072
		c-0.318-0.047-0.659-0.019-0.957-0.119c-1.5-0.508-3.339-0.674-3.828-2.527c-0.442-1.673,0.73-2.868,1.735-4.032
		c0.21-0.243,0.419-0.51,0.682-0.682c1.677-1.095,1.257-1.844-0.161-2.953c-19.304-15.117-17.701-40.281-6.527-53.868
		c11.351-13.803,32.821-18.137,49.592-9.917c8.051,3.946,14.665,9.45,17.91,18.081c4.057,10.792,1.418,20.718-4.48,30.094
		c-0.342,0.544-0.732,1.059-1.095,1.591C201.236,78.872,201.224,78.955,201.063,79.412z M169.066,38.201
		c-12.212,0.015-20.216,5.853-22.762,15.63c-1.784,6.851,0.524,13.509,5.837,16.832c5.993,3.749,14.066,3.441,19.023-0.726
		c3.535-2.971,4.872-7.415,3.313-11.009c-1.567-3.612-6.164-6.302-10.026-5.821c-1.097,0.137-2.557,0.184-2.388,1.746
		c0.157,1.459,1.385,1.102,2.477,0.964c2.721-0.343,6.041,1.483,7.254,3.895c1.372,2.728,0.308,5.032-1.434,7.105
		c-5.283,6.285-17.805,4.372-20.796-3.264c-2.423-6.183-0.781-11.788,3.43-16.601c5.446-6.223,15.719-7.883,24.101-4.224
		c4.659,2.034,7.869,5.367,9.032,10.328c1.589,6.778,0.513,13.167-3.744,18.787c-4.23,5.585-10.174,8.506-16.779,10.282
		c-0.996,0.268-2.337,0.339-1.99,1.822c0.338,1.444,1.598,1.069,2.607,0.813c7.289-1.852,13.683-5.189,18.388-11.257
		c6.33-8.164,6.682-20.943,0.644-28.141C180.708,39.946,174.491,38.335,169.066,38.201z"/>
	<path fill="#00FFA1" d="M146.825,105.971c9.858,1.154,19.603,0.164,29.309-1.551c7.359-1.3,14.729-2.667,21.455-6.086
		c6.288-3.197,12.224-6.993,16.325-12.948c4.179-6.07,4.833-12.912,4.142-20.062c-0.584-6.045-3.829-10.758-7.096-15.546
		c-2.97-4.354-5.285-9.005-5.139-14.491c0.017-0.642-0.147-1.513,0.198-1.886c2.219-2.4,1.068-5.107,0.947-7.759
		c-0.212-4.659-0.461-9.339,1.531-13.77c2.126-4.729,6.418-7.326,11.635-6.575c2.704,0.389,5.205,0.161,7.82-0.508
		c3.793-0.971,6.897,0.796,9.632,3.191c1.195,1.047,2.126,2.397,3.173,3.613c1.222,1.418,0.528,2.799-0.306,3.966
		c-0.922,1.291-2.294,2.188-3.966,1.561c-1.566-0.587-3.041-1.459-1.893-3.576c1.059-1.954,0.217-3.457-1.257-4.639
		c-1.593-1.277-3.491-0.956-5.319-0.56c-0.52,0.113-0.524,0.556-0.247,0.934c0.377,0.513,0.763,1.029,1.214,1.475
		c1.235,1.219,1.964,2.579,1.186,4.31c-0.769,1.711-1.976,2.892-4.008,2.886c-3.921-1.191-1.359-4.601-2.275-6.886
		c-2.33,3.587-2.954,7.323-1.629,11.332c-0.221,1.592,0.575,2.976,0.893,4.459c0.148,0.691,0.593,0.881,1.175,1.005
		c9.372,2.009,14.793,8.787,18.78,16.613c6.208,12.186,7.618,25.099,4.642,38.593c-2.709,12.284-11.002,19.315-21.413,24.875
		c-7.453,3.98-15.325,5.311-23.635,5.239c-11.848-0.102-23.643-0.722-35.431-2.035c-6.94-0.773-13.933-1.624-20.96-1.218
		c-4.669,0.27-9.19,1.473-13.746,2.416c-2.054,0.425-4.086,0.781-6.195,0.579c-1.578-0.151-2.099-0.68-0.966-2.079
		c2.694-3.325,5.695-6.254,9.803-7.795c0.874-0.095,1.772-0.097,2.618-0.307c1.289-0.319,2.366-0.157,3.233,0.914
		C142.545,105.494,144.552,106.066,146.825,105.971z M210.804,19.245c0.218,1.428,0.544,3.325,0.79,5.232
		c0.481,3.721,0.518,3.634,4.005,3.229c1.991-0.231,2.179-0.956,2.066-2.793c-0.294-4.767-0.909-9.62,1.332-14.179
		c0.336-0.683,1.038-1.576,0.483-2.178c-0.628-0.681-1.667-0.228-2.492,0.083C212.913,10.173,210.834,13.592,210.804,19.245z"/>
</g>
<g>
	<path fill="#FFFFFF" d="M297.272,43.209c-2.067,0-4.333-1.28-4.529-2.659c-0.197-1.083,0.196-1.28,0.196-2.462
		c0-0.689-0.787-1.674-2.658-1.674c-7.189,0-11.424,9.553-11.326,17.825c0.099,8.272,8.174,20.878,8.272,25.802
		c0.099,3.447-3.938,5.811-7.878,5.811c-7.386,0-23.438-8.863-23.34-15.757c0-2.363,1.772-3.25,3.742-3.25
		c3.053,0,13.492,10.341,17.136,10.341c0.689,0,1.083,0,1.083-0.689c0-0.985-5.613-13.984-5.613-23.931
		c0-6.795,4.234-25.704,16.644-25.704c10.537,0,12.605,5.121,12.605,9.356C301.606,39.665,299.538,43.209,297.272,43.209z"/>
	<path fill="#FFFFFF" d="M302.883,84.867c-5.908,0-8.272-3.645-8.272-7.091c0-9.75,11.227-23.045,17.727-22.946
		c2.167,0,5.811-0.295,5.811,3.447c0,3.053-1.182,4.628-4.136,4.825c-0.887,0.099-9.061,6.204-9.061,10.932
		c0,1.772,0.984,1.97,3.151,1.97c7.78,0,16.741-9.356,17.923-9.356c2.167,0,2.561-0.196,2.561,1.872
		C328.586,70.488,312.534,84.867,302.883,84.867z"/>
	<path fill="#FFFFFF" d="M361.87,12.681c4.038-0.295,4.728,2.659,4.629,5.318c-0.492,8.765-20.287,32.006-32.499,46.286
		c-2.067,3.349-1.871,3.349-3.742,8.075c3.546-4.333,10.144-11.325,14.871-11.325c3.446,0,4.825,1.773,4.825,4.925
		c0,3.053-1.379,4.727-1.674,7.484c-0.197,2.067,0.099,3.348,1.674,3.348c3.742,0,17.727-14.378,19.4-14.378
		c1.28,0,2.364,1.083,2.364,2.266c0,2.363-15.561,21.37-25.704,20.976c-5.416-0.196-6.598-2.658-6.401-5.416
		c0.099-1.97,0-4.333-1.477-4.53c-2.856-0.394-11.03,9.061-14.28,9.061c-3.742,0-3.742-3.25-3.742-5.909
		c0-4.924,6.992-20.779,14.083-33.976C342.076,30.407,349.757,13.271,361.87,12.681z M339.417,49.02
		c3.742-4.333,13.787-17.136,13.787-19.598c0-0.591,0.295-1.083-0.197-1.083C350.742,28.339,342.174,42.717,339.417,49.02z"/>
	<path fill="#FFFFFF" d="M397.32,85.95c-6.795,0-6.696-4.629-6.696-7.583c0-1.674,0.295-3.349-1.084-3.447
		c-1.378-0.098-4.628,1.871-8.37,4.53c-3.151,2.167-6.697,5.318-11.227,5.318c-3.939,0-5.811-2.462-5.811-5.516
		c0-3.053,1.772-11.029,2.659-14.969c0.591-3.053,3.151-3.841,5.613-3.841c3.348,0,4.037,1.871,4.037,4.826
		c0,2.363-2.561,10.537-1.477,10.537c2.363,0,4.432-2.068,6.991-3.644c3.546-2.068,8.272-5.712,12.015-5.712
		c4.137,0,6.008,2.265,6.008,4.727c0,1.379-1.28,3.939-1.28,5.121c-0.099,1.772,0.197,2.167,1.871,2.068
		c4.825-0.197,9.355-5.22,10.341-5.121c1.477,0.099,1.871,0.689,1.871,2.265C412.782,77.382,405.396,85.95,397.32,85.95z"/>
	<path fill="#FFFFFF" d="M417.604,84.571c-4.925,0-6.697-1.28-8.47-3.545c-1.379-1.675-1.478-3.349-1.478-5.613
		c0-4.728,8.076-20.977,19.303-20.977c6.007,0,9.454,4.727,8.863,9.06c-0.591,4.432-10.636,11.424-16.545,12.015
		c0.689,1.28,2.167,2.068,4.333,2.068c2.659,0,17.037-6.401,17.825-6.401c1.674,0.099,2.757,0,2.757,2.266
		C444.193,76.397,423.71,84.571,417.604,84.571z M419.672,68.913c4.235,0,8.076-2.758,8.076-4.137c0-0.688-0.197-1.575-1.478-1.674
		C423.021,62.808,421.248,66.353,419.672,68.913z"/>
	<path fill="#FFFFFF" d="M443.995,84.867c-5.908,0-8.272-3.645-8.272-7.091c0-9.75,11.227-23.045,17.727-22.946
		c2.167,0,5.811-0.295,5.811,3.447c0,3.053-1.182,4.628-4.137,4.825c-0.886,0.099-9.06,6.204-9.06,10.932
		c0,1.772,0.984,1.97,3.151,1.97c7.78,0,16.741-9.356,17.923-9.356c2.167,0,2.561-0.196,2.561,1.872
		C469.698,70.488,453.646,84.867,443.995,84.867z"/>
	<path fill="#FFFFFF" d="M506.527,19.279c-0.394,8.765-22.65,34.271-27.278,39.688c-2.462,2.855-3.742,4.924-4.924,7.484
		c1.772-1.871,7.779-9.355,14.673-9.355c4.826,0,5.318,2.363,5.318,5.613c0,4.628-7.091,10.045-11.128,10.931
		c0.984,2.462,3.644,3.546,7.386,3.349c5.515-0.295,15.757-11.128,17.431-11.128c1.182,0,2.363,1.182,2.363,2.265
		c0,2.462-13.787,17.529-23.931,17.136c-9.257-0.296-8.765-4.432-9.454-7.879c-3.151,2.659-7.779,6.401-10.931,6.401
		c-3.742,0-3.742-3.348-3.742-6.007c0-4.826,7.583-21.174,14.082-34.074c7.091-14.378,13.394-29.249,25.605-29.84
		C506.035,13.666,506.626,16.521,506.527,19.279z M479.445,50.3c3.841-4.333,13.886-17.233,13.886-19.696
		c0-0.492,0.296-0.985-0.196-0.985C490.869,29.619,482.203,43.998,479.445,50.3z"/>
	<path fill="#FFFFFF" d="M512.927,84.571c-4.925,0-6.697-1.28-8.47-3.545c-1.379-1.675-1.478-3.349-1.478-5.613
		c0-4.728,8.076-20.977,19.303-20.977c6.007,0,9.454,4.727,8.863,9.06c-0.591,4.432-10.636,11.424-16.545,12.015
		c0.689,1.28,2.167,2.068,4.333,2.068c2.659,0,17.037-6.401,17.825-6.401c1.674,0.099,2.757,0,2.757,2.266
		C539.516,76.397,519.032,84.571,512.927,84.571z M514.994,68.913c4.235,0,8.076-2.758,8.076-4.137c0-0.688-0.197-1.575-1.478-1.674
		C518.343,62.808,516.57,66.353,514.994,68.913z"/>
</g>
<g>
	<path fill="#00FFA1" d="M49.32,61.3c-8.667,11.521-20.878,23.143-33.089,23.143c-10.242,0-12.409-3.644-12.409-8.371
		c-0.099-10.537,4.727-18.12,10.636-28.264c5.022-8.765,12.113-20.188,16.052-20.188c1.379,0,2.955-0.295,2.955,1.773
		c0,2.363-6.894,10.636-12.409,20.484c-3.84,6.894-6.992,14.378-7.583,21.271c-0.394,4.629,3.841,5.22,7.78,5.22
		c1.772,0,13.295-3.742,23.143-19.204c5.811-9.257,7.386-14.575,8.076-18.81c0.689-4.333,0.985-6.303,5.121-6.401
		c3.25-0.098,3.939,3.545,3.939,6.599C61.532,41.406,56.805,51.353,49.32,61.3z"/>
	<path fill="#00FFA1" d="M94.125,19.741c-0.394,8.765-22.65,34.271-27.279,39.688c-2.462,2.855-3.743,4.924-4.924,7.484
		c1.773-1.871,7.78-9.355,14.674-9.355c4.825,0,5.318,2.363,5.318,5.613c0,4.628-7.091,10.045-11.128,10.931
		c0.985,2.462,3.644,3.546,7.386,3.349c5.515-0.295,15.757-11.128,17.431-11.128c1.182,0,2.364,1.182,2.364,2.265
		c0,2.462-13.787,17.529-23.931,17.136c-9.257-0.296-8.765-4.432-9.454-7.879c-3.151,2.659-7.78,6.401-10.932,6.401
		c-3.742,0-3.742-3.348-3.742-6.007c0-4.826,7.583-21.174,14.083-34.074c7.09-14.378,13.393-29.249,25.604-29.84
		C93.633,14.127,94.224,16.983,94.125,19.741z M67.043,50.762c3.841-4.333,13.886-17.233,13.886-19.696
		c0-0.492,0.295-0.985-0.197-0.985C78.467,30.081,69.8,44.459,67.043,50.762z"/>
	<path fill="#00FFA1" d="M118.151,66.519c-3.348,0-1.871-2.166-5.712-2.166c-3.644,0-6.598,3.841-8.174,6.303
		c-2.363,3.841-1.969,7.386-1.969,10.833c0,2.954-2.955,5.219-6.205,5.219c-3.939,0-3.742-2.067-3.742-3.841
		c0-1.871,2.462-7.681,2.462-10.143c0.197-6.894-1.28-6.303-1.28-11.03c0-1.97,3.447-3.841,5.022-3.742
		c2.167,0,4.727,2.363,4.924,5.022c1.871-4.038,7.977-6.5,11.916-6.5c3.742,0,8.765,1.182,8.765,4.137
		C124.159,64.943,121.894,66.519,118.151,66.519z"/>
</g>
</svg>
