<?xml version="1.0" encoding="utf-8"?>
<!-- Generator: Adobe Illustrator 17.0.0, SVG Export Plug-In . SVG Version: 6.00 Build 0)  -->
<!DOCTYPE svg PUBLIC "-//W3C//DTD SVG 1.1//EN" "http://www.w3.org/Graphics/SVG/1.1/DTD/svg11.dtd">
<svg version="1.1" id="Слой_1" xmlns="http://www.w3.org/2000/svg" xmlns:xlink="http://www.w3.org/1999/xlink" x="0px" y="0px"
	 width="530px" height="118px" viewBox="0 0 530 118" enable-background="new 0 0 530 118" xml:space="preserve">
<g>
	<path fill="#FFFFFF" d="M201.063,79.412c1.321,0,2.432-0.083,3.527,0.015c4.206,0.375,5.937,3.977,3.569,7.473
		c-2.379,3.511-5.901,5.662-9.512,7.643c-9.562,5.246-19.902,7.785-30.709,8.529c-6.503,0.448-13.018,1.043-19.532,0.072
		c-0.318-0.047-0.659-0.019-0.957-0.119c-1.5-0.508-3.339-0.674-3.828-2.527c-0.442-1.673,0.73-2.868,1.735-4.032
		c0.21-0.243,0.419-0.51,0.682-0.682c1.677-1.095,1.257-1.844-0.161-2.953c-19.304-15.117-17.701-40.281-6.527-53.868
		c11.351-13.803,32.821-18.137,49.592-9.917c8.051,3.946,14.665,9.45,17.91,18.081c4.057,10.792,1.418,20.718-4.48,30.094
		c-0.342,0.544-0.732,1.059-1.095,1.591C201.236,78.872,201.224,78.955,201.063,79.412z M169.066,38.201
		c-12.212,0.015-20.216,5.853-22.762,15.63c-1.784,6.851,0.524,13.509,5.837,16.832c5.993,3.749,14.066,3.441,19.023-0.726
		c3.535-2.971,4.872-7.415,3.313-11.009c-1.567-3.612-6.164-6.302-10.026-5.821c-1.097,0.137-2.557,0.184-2.388,1.746
		c0.157,1.459,1.385,1.102,2.477,0.964c2.721-0.343,6.041,1.483,7.254,3.895c1.372,2.728,0.308,5.032-1.434,7.105
		c-5.283,6.285-17.805,4.372-20.796-3.264c-2.423-6.183-0.781-11.788,3.43-16.601c5.446-6.223,15.719-7.883,24.101-4.224
		c4.659,2.034,7.869,5.367,9.032,10.328c1.589,6.778,0.513,13.167-3.744,18.787c-4.23,5.585-10.174,8.506-16.779,10.282
		c-0.996,0.268-2.337,0.339-1.99,1.822c0.338,1.444,1.598,1.069,2.607,0.813c7.289-1.852,13.683-5.189,18.388-11.257
		c6.33-8.164,6.682-20.943,0.644-28.141C180.708,39.946,174.491,38.335,169.066,38.201z"/>
	<path fill="#00FFA1" d="M146.825,105.971c9.858,1.154,19.603,0.164,29.309-1.551c7.359-1.3,14.729-2.667,21.455-6.086
		c6.288-3.197,12.224-6.993,16.325-12.948c4.179-6.07,4.833-12.912,4.142-20.062c-0.584-6.045-3.829-10.758-7.096-15.546
		c-2.97-4.354-5.285-9.005-5.139-14.491c0.017-0.642-0.147-1.513,0.198-1.886c2.219-2.4,1.068-5.107,0.947-7.759
		c-0.212-4.659-0.461-9.339,1.531-13.77c2.126-4.729,6.418-7.326,11.635-6.575c2.704,0.389,5.205,0.161,7.82-0.508
		c3.793-0.971,6.897,0.796,9.632,3.191c1.195,1.047,2.126,2.397,3.173,3.613c1.222,1.418,0.528,2.799-0.306,3.966
		c-0.922,1.291-2.294,2.188-3.966,1.561c-1.566-0.587-3.041-1.459-1.893-3.576c1.059-1.954,0.217-3.457-1.257-4.639
		c-1.593-1.277-3.491-0.956-5.319-0.56c-0.52,0.113-0.524,0.556-0.247,0.934c0.377,0.513,0.763,1.029,1.214,1.475
		c1.235,1.219,1.964,2.579,1.186,4.31c-0.769,1.711-1.976,2.892-4.008,2.886c-3.921-1.191-1.359-4.601-2.275-6.886
		c-2.33,3.587-2.954,7.323-1.629,11.332c-0.221,1.592,0.575,2.976,0.893,4.459c0.148,0.691,0.593,0.881,1.175,1.005
		c9.372,2.009,14.793,8.787,18.78,16.613c6.208,12.186,7.618,25.099,4.642,38.593c-2.709,12.284-11.002,19.315-21.413,24.875
		c-7.453,3.98-15.325,5.311-23.635,5.239c-11.848-0.102-23.643-0.722-35.431-2.035c-6.94-0.773-13.933-1.624-20.96-1.218
		c-4.669,0.27-9.19,1.473-13.746,2.416c-2.054,0.425-4.086,0.781-6.195,0.579c-1.578-0.151-2.099-0.68-0.966-2.079
		c2.694-3.325,5.695-6.254,9.803-7.795c0.874-0.095,1.772-0.097,2.618-0.307c1.289-0.319,2.366-0.157,3.233,0.914
		C142.545,105.494,144.552,106.066,146.825,105.971z M210.804,19.245c0.218,1.428,0.544,3.325,0.79,5.232
		c0.481,3.721,0.518,3.634,4.005,3.229c1.991-0.231,2.179-0.956,2.066-2.793c-0.294-4.767-0.909-9.62,1.332-14.179
		c0.336-0.683,1.038-1.576,0.483-2.178c-0.628-0.681-1.667-0.228-2.492,0.083C212.913,10.173,210.834,13.592,210.804,19.245z"/>
</g>
<g>
	<path fill="#FFFFFF" d="M306.037,34.543c-3.742,0.197-3.644-0.886-7.188-0.591c-2.167,0.197-16.446,2.757-21.567,3.742
		c-4.136,6.105-6.894,11.522-8.863,16.052c3.349,0.591,1.772,0.492,8.272,0.689c11.719,0.295,17.529-1.772,19.598-1.675
		c1.772,0.099,2.068,1.183,1.871,2.856c-0.296,3.545-19.696,7.287-32.893,8.765c0,0-2.856,7.287-3.053,8.863
		c-0.295,2.561,2.757,2.561,4.728,2.659c3.249,0.099,22.748-4.333,24.619-4.137c1.28,0.099,2.856,0.591,2.659,1.871
		c-0.099,1.675-1.575,2.364-2.462,2.856c-5.811,3.349-18.908,7.878-28.067,7.878c-7.09,0-8.765-3.545-8.765-8.075
		c0-2.462,2.757-9.158,3.545-12.211c-1.871-0.395-2.068-4.334-1.674-6.599c0.689-3.349,3.939-3.841,6.007-4.728
		c1.871-4.727,3.25-7.977,5.022-12.014c-2.561,0.295-4.432,0.197-4.333-1.674c0.197-2.757,1.97-4.53,4.333-6.204
		c4.728-3.25,29.84-6.894,35.157-7.189c3.447-0.197,9.061,0.099,9.061,3.939C312.045,33.559,308.992,34.346,306.037,34.543z"/>
	<path fill="#FFFFFF" d="M312.928,87.132c-8.863,0-10.341-2.758-10.144-6.007c0.196-2.856,1.575-3.841,2.954-3.939
		c1.772-0.197,3.742,2.659,7.189,3.053c1.772,0.197,3.742,0.197,3.841-2.068c0.098-2.363-11.03-4.53-11.03-11.325
		c0-7.484,9.257-10.438,16.446-10.438c6.105,0,8.174,3.348,8.174,6.894c0,2.067-1.478,6.598-5.022,6.795
		c-1.871,0.099-2.462-0.197-3.053-1.182c-0.887-1.478,1.772-3.25,1.772-4.038c0-0.591-0.394-1.674-2.363-1.772
		c-3.25-0.197-5.811,0.296-6.204,3.742c-0.197,2.363,11.521,6.303,11.521,11.325C327.01,85.063,318.245,87.132,312.928,87.132z"/>
	<path fill="#FFFFFF" d="M338.825,84.867c-5.908,0-8.272-3.645-8.272-7.091c0-9.75,11.227-23.045,17.727-22.946
		c2.167,0,5.811-0.295,5.811,3.447c0,3.053-1.182,4.628-4.137,4.825c-0.886,0.099-9.06,6.204-9.06,10.932
		c0,1.772,0.984,1.97,3.151,1.97c7.78,0,16.741-9.356,17.923-9.356c2.167,0,2.561-0.196,2.561,1.872
		C364.528,70.488,348.477,84.867,338.825,84.867z"/>
	<path fill="#FFFFFF" d="M386.685,83.291c-4.432,0.099-6.894-1.772-8.962-5.712c-3.545,2.167-5.515,6.008-15.067,6.204
		c-5.22,0.099-6.105-1.97-6.105-5.515c0-7.287,12.015-17.529,20.976-17.529c5.909,0,8.174,3.644,8.667,8.371
		c0.394,2.757-0.099,7.188,2.855,7.287c3.25,0.099,8.765-3.841,10.242-3.644c1.772,0.196,1.97,0.591,1.97,1.674
		C401.26,77.48,391.608,83.192,386.685,83.291z M374.178,68.913c-3.25-0.099-8.076,3.446-7.879,6.105
		c0.099,0.985,1.478,0.788,2.462,0.788c2.068,0,7.189-2.758,7.189-5.318C375.95,69.603,375.063,68.913,374.178,68.913z"/>
	<path fill="#FFFFFF" d="M421.544,66.057c-3.349,0-1.871-2.166-5.712-2.166c-3.645,0-6.599,3.841-8.174,6.303
		c-2.364,3.841-1.97,7.386-1.97,10.833c0,2.954-2.955,5.219-6.204,5.219c-3.939,0-3.742-2.067-3.742-3.841
		c0-1.871,2.462-7.681,2.462-10.143c0.196-6.895-1.28-6.303-1.28-11.03c0-1.97,3.446-3.841,5.022-3.742
		c2.166,0,4.727,2.363,4.924,5.022c1.871-4.038,7.977-6.5,11.916-6.5c3.742,0,8.765,1.182,8.765,4.137
		C427.551,64.481,425.286,66.057,421.544,66.057z"/>
	<path fill="#FFFFFF" d="M455.518,75.314c0.788-0.099,1.871,0.591,1.871,1.871c0.099,0.886-0.197,1.871-1.871,3.151
		c-2.561,2.067-9.158,6.894-13.394,8.174c-2.658,11.817-7.779,27.181-16.15,27.082c-4.333-0.099-6.992-5.909-6.599-10.045
		c0.788-12.409,8.766-17.825,13.196-19.696c0,0-0.688-1.379-3.742-1.871c-4.234-0.689-8.174-4.234-7.878-8.075
		c0.984-9.75,10.144-20.878,18.021-20.878c4.629,0,7.387,2.166,7.387,7.878c0,5.516-9.258,11.228-13.984,13.196
		c2.363,1.379,4.924,0.592,6.992,2.463c1.379,1.28,2.855,2.561,2.462,4.136c4.333-2.265,8.469-4.333,11.128-6.007
		C453.548,76.2,455.124,75.314,455.518,75.314z M427.845,98.851c0,1.28,0.099,1.97,0.591,3.151
		c1.772,4.334,4.234-6.696,5.613-10.734C431.39,92.745,427.845,95.01,427.845,98.851z M436.511,63.3
		c-1.182,0-2.659,2.462-3.742,4.333c2.266-0.492,4.924-1.772,4.924-3.25C437.692,63.496,437.2,63.3,436.511,63.3z"/>
	<path fill="#FFFFFF" d="M485.255,74.23c-1.969,0-4.727-0.688-6.598-2.265c-0.689,0.887-8.272,15.757-17.924,15.757
		c-3.151,0-8.272-2.954-8.272-8.075c0-10.932,15.659-20.681,19.204-20.681c8.666,0,9.257,3.938,9.553,7.484
		c0.886,0.689,2.757,1.772,5.121,1.772c1.674,0,3.841-0.591,4.924-0.591c1.379,0,1.182,1.478,1.182,2.561
		C492.444,72.95,488.604,74.23,485.255,74.23z M470.877,69.307c-2.855-0.787-9.158,6.697-9.158,8.47
		c0,1.083,0.492,2.363,1.674,2.462c3.742,0.197,8.371-5.613,8.47-8.075C471.862,71.079,472.157,69.701,470.877,69.307z"/>
	<path fill="#FFFFFF" d="M501.896,62.314c-2.068,4.432-5.515,11.621-5.515,21.469c0,3.151-1.084,3.742-4.53,3.546
		c-2.068-0.099-3.545-1.478-3.545-4.629c0-5.712-0.395-14.279-0.197-21.173c0-1.675,0.886-3.349,1.871-3.742
		c1.97-0.689,5.121-1.28,7.583-1.773c3.446-8.961,12.507-32.104,19.991-32.991c1.772-0.295,3.151,0.493,3.151,2.265
		c0,5.022-12.507,24.128-15.855,29.741c6.401-0.296,16.742-0.492,19.007-0.394c1.182,0.098,2.266,0.688,2.266,1.871
		c0,1.969-3.25,2.658-5.811,3.053C515.289,60.443,509.281,61.33,501.896,62.314z"/>
</g>
<g>
	<path fill="#00FFA1" d="M49.32,61.3c-8.667,11.521-20.878,23.143-33.089,23.143c-10.242,0-12.409-3.644-12.409-8.371
		c-0.099-10.537,4.727-18.12,10.636-28.264c5.022-8.765,12.113-20.188,16.052-20.188c1.379,0,2.955-0.295,2.955,1.773
		c0,2.363-6.894,10.636-12.409,20.484c-3.84,6.894-6.992,14.378-7.583,21.271c-0.394,4.629,3.841,5.22,7.78,5.22
		c1.772,0,13.295-3.742,23.143-19.204c5.811-9.257,7.386-14.575,8.076-18.81c0.689-4.333,0.985-6.303,5.121-6.401
		c3.25-0.098,3.939,3.545,3.939,6.599C61.532,41.406,56.805,51.353,49.32,61.3z"/>
	<path fill="#00FFA1" d="M94.125,19.741c-0.394,8.765-22.65,34.271-27.279,39.688c-2.462,2.855-3.743,4.924-4.924,7.484
		c1.773-1.871,7.78-9.355,14.674-9.355c4.825,0,5.318,2.363,5.318,5.613c0,4.628-7.091,10.045-11.128,10.931
		c0.985,2.462,3.644,3.546,7.386,3.349c5.515-0.295,15.757-11.128,17.431-11.128c1.182,0,2.364,1.182,2.364,2.265
		c0,2.462-13.787,17.529-23.931,17.136c-9.257-0.296-8.765-4.432-9.454-7.879c-3.151,2.659-7.78,6.401-10.932,6.401
		c-3.742,0-3.742-3.348-3.742-6.007c0-4.826,7.583-21.174,14.083-34.074c7.09-14.378,13.393-29.249,25.604-29.84
		C93.633,14.127,94.224,16.983,94.125,19.741z M67.043,50.762c3.841-4.333,13.886-17.233,13.886-19.696
		c0-0.492,0.295-0.985-0.197-0.985C78.467,30.081,69.8,44.459,67.043,50.762z"/>
	<path fill="#00FFA1" d="M118.151,66.519c-3.348,0-1.871-2.166-5.712-2.166c-3.644,0-6.598,3.841-8.174,6.303
		c-2.363,3.841-1.969,7.386-1.969,10.833c0,2.954-2.955,5.219-6.205,5.219c-3.939,0-3.742-2.067-3.742-3.841
		c0-1.871,2.462-7.681,2.462-10.143c0.197-6.894-1.28-6.303-1.28-11.03c0-1.97,3.447-3.841,5.022-3.742
		c2.167,0,4.727,2.363,4.924,5.022c1.871-4.038,7.977-6.5,11.916-6.5c3.742,0,8.765,1.182,8.765,4.137
		C124.159,64.943,121.894,66.519,118.151,66.519z"/>
</g>
</svg>
