<svg xmlns="http://www.w3.org/2000/svg" xmlns:xlink="http://www.w3.org/1999/xlink" width="39" height="24" viewBox="0 0 39 24"><defs><path id="a" d="M940 191.52c0-1.4 1.13-2.52 2.52-2.52h32.76c1.4 0 2.52 1.13 2.52 2.52v17.36c0 1.4-1.13 2.52-2.52 2.52h-32.76a2.52 2.52 0 0 1-2.52-2.52z"/><path id="b" d="M971.07 199.47a7.5 7.5 0 0 1-7.53 7.48 7.5 7.5 0 0 1-7.54-7.48 7.5 7.5 0 0 1 7.54-7.47 7.5 7.5 0 0 1 7.53 7.47"/><path id="c" d="M957.84 204.22a8.9 8.9 0 0 1-.58-.79h2.67c.16-.26.31-.52.44-.79h-3.54a7.02 7.02 0 0 1-.32-.8h4.18a7.4 7.4 0 0 0 .21-3.95h-4.61c.06-.27.13-.53.22-.79h4.18c-.1-.27-.2-.54-.32-.79h-3.54c.13-.28.27-.54.43-.79h2.67a6.34 6.34 0 0 0-.57-.79h-1.52c.23-.29.49-.55.76-.79a7.53 7.53 0 0 0-5.06-1.94 7.5 7.5 0 0 0-7.54 7.47 7.5 7.5 0 0 0 7.54 7.48 7.58 7.58 0 0 0 5.82-2.73h-1.52"/><path id="d" d="M957.6 202.22c-1.05 0-1.6-.47-1.6-1.38 0-1.06.7-1.84 1.64-1.84.78 0 1.27.44 1.27 1.12 0 .23-.03.45-.12.76h-1.86c-.07.45.26.64.81.64.33 0 .63-.06.97-.19l-.15.77c-.32.08-.63.12-.96.12zm.02-2.51c-.3 0-.51.19-.6.55h1.04c0-.07.1-.54-.44-.55z"/><path id="e" d="M959.36 200.05c0 .39.22.66.73.86.39.16.45.21.45.35 0 .19-.17.28-.55.28a3.63 3.63 0 0 1-.85-.12l-.14.71c.27.06.65.08.99.09 1.01 0 1.48-.33 1.48-1.03 0-.43-.2-.68-.68-.87-.4-.15-.44-.19-.44-.33 0-.17.16-.26.47-.26.18 0 .44.02.68.05l.14-.72a8.72 8.72 0 0 0-.84-.06c-1.07 0-1.44.48-1.44 1.05"/><path id="f" d="M954.83 202.17l.02-.32c-.24.25-.56.37-.99.37-.51 0-.86-.34-.86-.84 0-.76.61-1.2 1.66-1.2l.38.03a.74.74 0 0 0 .04-.2c0-.21-.17-.29-.61-.29-.43 0-.73.07-1 .14l.14-.7c.47-.11.78-.16 1.12-.16.81 0 1.24.32 1.24.91.01.16-.05.47-.07.61-.04.2-.26 1.37-.28 1.65zm-.11-1.39c-.54 0-.81.15-.81.46 0 .2.13.32.34.32.38 0 .66-.32.68-.77l-.21-.01z"/><path id="g" d="M963.42 201.79c-.26.07-.46.1-.68.1-.48 0-.74-.24-.74-.67-.01-.12.1-.67.13-.83l.44-2.39h.94l-.15.74h.48l-.13.76h-.48s-.26 1.31-.26 1.41c0 .16.1.23.32.23a.8.8 0 0 0 .25-.03l-.12.68"/><path id="h" d="M966.87 199.01c.96 0 1.48.6 1.48 1.37 0 1.28-.77 1.85-1.83 1.85s-1.48-.64-1.48-1.41c0-.32.06-.61.18-.86-.5-.11-.84.15-1.04 1.02-.08.31-.15.71-.24 1.2H963l.04-.21c.16-.96.37-1.94.49-2.89h.88v.54l.09-.12c.29-.36.61-.62 1.11-.44l-.27.69c.31-.47.85-.74 1.53-.74zm-.28 2.46c.46 0 .75-.41.75-1.11 0-.32-.13-.62-.51-.62-.48 0-.77.56-.77 1.05 0 .41.2.69.53.68z"/><path id="i" d="M953.09 201.79h-.94l.56-2.91-1.29 2.91h-.85l-.16-2.9-.56 2.9H949l.72-3.79h1.47l.12 2.11.93-2.11h1.59l-.74 3.79"/><path id="j" d="M959.36 200.05c0 .39.22.66.73.86.39.16.45.21.45.35 0 .19-.17.28-.55.28a3.63 3.63 0 0 1-.85-.12l-.14.71c.27.06.65.08.99.09 1.01 0 1.48-.33 1.48-1.03 0-.43-.2-.68-.68-.87-.4-.15-.44-.19-.44-.33 0-.17.16-.26.47-.26.18 0 .44.02.68.05l.14-.72a8.5 8.5 0 0 0-.84-.06c-1.07 0-1.44.48-1.44 1.05"/><path id="k" d="M954.83 202.17l.02-.32c-.24.25-.56.37-.99.37-.51 0-.86-.35-.86-.84 0-.76.61-1.2 1.66-1.2l.38.03a.74.74 0 0 0 .04-.2c0-.21-.17-.29-.61-.29-.43 0-.72.07-1 .14l.14-.7c.47-.11.78-.16 1.12-.16.81 0 1.24.31 1.24.91.01.16-.05.47-.07.61-.04.2-.26 1.37-.28 1.65zm-.11-1.39c-.54 0-.81.15-.81.46 0 .2.13.32.34.32.38 0 .66-.32.68-.77l-.21-.01z"/><path id="l" d="M967.55 201.47c-.33 0-.53-.27-.53-.69 0-.49.29-1.04.77-1.04.38 0 .51.3.51.62 0 .7-.29 1.11-.75 1.11zm.28-2.47c-1.11 0-1.83.73-1.83 1.82 0 .77.42 1.4 1.48 1.4s1.83-.56 1.83-1.84c0-.78-.52-1.38-1.48-1.38z"/><path id="m" d="M964.53 199.03c-.12.96-.33 1.93-.49 2.9l-.04.2h.94c.34-1.85.46-2.38 1.17-2.19l.34-.88c-.5-.18-.82.08-1.11.44.03-.16.08-.32.07-.47h-.88"/><path id="n" d="M953.09 201.79h-.94l.56-2.91-1.29 2.91h-.85l-.16-2.9-.56 2.9H949l.72-3.79h1.47l.08 2.35 1.03-2.35h1.53l-.74 3.79"/></defs><g transform="translate(-939 -188)"><use fill="#006" xlink:href="#a"/><use fill="#c00" xlink:href="#b"/><use fill="#06c" xlink:href="#c"/><use fill="#006" xlink:href="#d"/><use fill="#006" xlink:href="#e"/><use fill="#006" xlink:href="#f"/><use fill="#006" xlink:href="#g"/><use fill="#006" xlink:href="#h"/><g><use fill="#006" xlink:href="#i"/></g><g><use fill="#fff" xlink:href="#d"/></g><g><use fill="#fff" xlink:href="#j"/></g><g><use fill="#fff" xlink:href="#k"/></g><g><use fill="#fff" xlink:href="#g"/></g><g><use fill="#fff" xlink:href="#l"/></g><g><use fill="#fff" xlink:href="#m"/></g><g><use fill="#fff" xlink:href="#n"/></g></g></svg>