<?xml version="1.0" encoding="iso-8859-1"?>
<!DOCTYPE svg PUBLIC "-//W3C//DTD SVG 1.1//EN" "http://www.w3.org/Graphics/SVG/1.1/DTD/svg11.dtd">
<svg xmlns="http://www.w3.org/2000/svg" xmlns:xlink="http://www.w3.org/1999/xlink" version="1.1" viewBox="0 0 434.422 434.422" enable-background="new 0 0 434.422 434.422" width="512px" height="512px">
  <path d="m408.211,0h-36c-5.522,0-10,4.477-10,10v42h-61v-8c0-13.785-11.215-25-25-25s-25,11.215-25,25v8h-73v-8c0-13.785-11.215-25-25-25-5.624,0-10.819,1.868-15,5.014-4.181-3.146-9.376-5.014-15-5.014-13.785,0-25,11.215-25,25v8h-26v-42c0-5.523-4.477-10-10-10h-36c-5.523,0-10,4.477-10,10v414.422c0,5.523 4.477,10 10,10h36c5.523,0 10-4.477 10-10v-138.422h100.607v8c0,13.785 11.215,25 25,25s25-11.215 25-25v-8h37.394v8c0,13.785 11.215,25 25,25s25-11.215 25-25v-8h52v138.422c0,5.523 4.478,10 10,10h36c5.522,0 10-4.477 10-10v-414.422c-0.001-5.523-4.478-10-10.001-10zm-356,414.422h-16v-394.422h16v394.422zm219-370.422c0-2.757 2.243-5 5-5s5,2.243 5,5v36c0,2.757-2.243,5-5,5s-5-2.243-5-5v-36zm-118-5c2.757,0 5,2.243 5,5v36c0,2.757-2.243,5-5,5-2.757,0-5-2.243-5-5v-36c0-2.757 2.243-5 5-5zm-35,5c0-2.757 2.243-5 5-5 2.757,0 5,2.243 5,5v36c0,2.757-2.243,5-5,5-2.757,0-5-2.243-5-5v-36zm-20,28v8c0,13.785 11.215,25 25,25 5.624,0 10.819-1.868 15-5.014 4.181,3.146 9.376,5.014 15,5.014 13.785,0 25-11.215 25-25v-8h73v8c0,13.785 11.215,25 25,25s25-11.215 25-25v-8h61v87h-35v-8c0-13.785-11.215-25-25-25s-25,11.215-25,25v8h-99.397v-8c0-13.785-11.215-25-25-25s-25,11.215-25,25v8h-55.603v-87h26zm209,79v36c0,2.757-2.243,5-5,5s-5-2.243-5-5v-36c0-2.757 2.243-5 5-5s5,2.243 5,5zm-149.397,0v36c0,2.757-2.243,5-5,5s-5-2.243-5-5v-36c0-2.757 2.243-5 5-5s5,2.243 5,5zm45.004,143c0,2.757-2.243,5-5,5s-5-2.243-5-5v-36c0-2.757 2.243-5 5-5s5,2.243 5,5v36zm87.393,0c0,2.757-2.243,5-5,5s-5-2.243-5-5v-36c0-2.757 2.243-5 5-5s5,2.243 5,5v36zm20-28v-8c0-13.785-11.215-25-25-25s-25,11.215-25,25v8h-37.394v-8c0-13.785-11.215-25-25-25s-25,11.215-25,25v8h-100.606v-87h55.603v8c0,13.785 11.215,25 25,25s25-11.215 25-25v-8h99.397v8c0,13.785 11.215,25 25,25s25-11.215 25-25v-8h35v87h-52zm88,148.422h-16v-394.422h16v394.422z" fill="#FFFFFF"/>
</svg>
