<?xml version="1.0" encoding="iso-8859-1"?>
<!-- Generator: Adobe Illustrator 19.0.0, SVG Export Plug-In . SVG Version: 6.00 Build 0)  -->
<svg version="1.1" id="Capa_1" xmlns="http://www.w3.org/2000/svg" xmlns:xlink="http://www.w3.org/1999/xlink" x="0px" y="0px"
	 viewBox="0 0 238 238" style="enable-background:new 0 0 238 238;" xml:space="preserve">
<g>
	<path d="M123,92h-3.333v-8c0-2.762-2.238-5-5-5s-5,2.238-5,5v10.958c0,4.015,3.178,7.042,6.949,7.042H123c2.762,0,5-2.238,5-5
		S125.762,92,123,92z"/>
	<path d="M151,216h-1.333v-98.101c3-0.463,4-2.48,4-4.899V73c0-2.419-1-4.436-4-4.899v-0.848c0-1.793-0.565-3.976-1.002-4.996
		l-10.811-24.676c-0.833-1.943-2.187-3.37-5.187-3.546V28c0-2.419-1-4.436-4-4.899V16c0-2.761-2-5-5-5V5c0-2.762-2.238-5-5-5
		s-5,2.238-5,5v6H113c-2.761,0-5.333,2.239-5.333,5v7.101c-2,0.463-4,2.48-4,4.899v6.198c-1,0.46-3.295,1.734-3.998,3.374
		L88.914,62.232c-0.561,1.307-1.247,3.436-1.247,5.021V68c-2,0-5,2.239-5,5v40c0,2.761,3,5,5,5v98H87c-6.065,0-11,4.935-11,11
		s4.935,11,11,11h64c6.065,0,11-4.935,11-11S157.065,216,151,216z M112.667,211h-11v-79h11V211z M135.667,211h-11v-79h11V211z
		 M119,114.932c-11.834,0-21.428-9.594-21.428-21.428S107.166,72.076,119,72.076s21.428,9.594,21.428,21.428
		S130.835,114.932,119,114.932z"/>
</g>
<g>
</g>
<g>
</g>
<g>
</g>
<g>
</g>
<g>
</g>
<g>
</g>
<g>
</g>
<g>
</g>
<g>
</g>
<g>
</g>
<g>
</g>
<g>
</g>
<g>
</g>
<g>
</g>
<g>
</g>
</svg>
