<?xml version='1.0' encoding='iso-8859-1'?>
<!DOCTYPE svg PUBLIC '-//W3C//DTD SVG 1.1//EN' 'http://www.w3.org/Graphics/SVG/1.1/DTD/svg11.dtd'>
<svg version="1.1" xmlns="http://www.w3.org/2000/svg" viewBox="0 0 297 297" xmlns:xlink="http://www.w3.org/1999/xlink" enable-background="new 0 0 297 297">
  <path d="m290.195,169.922l-41.149-96.015c7.574-4.53 12.659-12.813 12.659-22.263 0-14.296-11.63-25.926-25.926-25.926-5.402,0-9.783,4.381-9.783,9.783 0,5.402 4.381,9.783 9.783,9.783 3.507,0 6.359,2.854 6.359,6.359 0,3.506-2.853,6.359-6.359,6.359h-77.496v-38.643c0-5.402-4.38-9.783-9.783-9.783s-9.783,4.381-9.783,9.783v38.645h-77.496c-3.507,0-6.359-2.854-6.359-6.359 0-3.506 2.853-6.359 6.359-6.359 5.402,0 9.783-4.381 9.783-9.783 0-5.402-4.381-9.783-9.783-9.783-14.296,0-25.926,11.63-25.926,25.926 0,9.45 5.085,17.732 12.659,22.263l-41.149,96.013c-3.947,1.262-6.805,4.955-6.805,9.318 0,33.802 27.463,61.301 61.221,61.301 33.757,0 61.221-27.499 61.221-61.301 0-4.363-2.858-8.057-6.805-9.318l-39.579-92.352h62.659v190.287h-38.644c-5.403,0-9.783,4.38-9.783,9.783 0,5.402 4.38,9.783 9.783,9.783h96.855c5.403,0 9.783-4.381 9.783-9.783 0-5.403-4.38-9.783-9.783-9.783h-38.645v-190.287h62.659l-39.579,92.352c-3.946,1.262-6.805,4.955-6.805,9.318 0,33.802 27.464,61.301 61.221,61.301 33.758,0 61.221-27.499 61.221-61.301 5.68434e-14-4.363-2.858-8.056-6.805-9.318zm-228.974-77.299l32.929,76.834h-65.858l32.929-76.834zm0,128.352c-19.606,2.84217e-14-36.093-13.643-40.498-31.951h80.996c-4.406,18.308-20.893,31.951-40.498,31.951zm207.487-51.518h-65.857l32.929-76.834 32.928,76.834zm-32.929,51.518c-19.605,0-36.093-13.643-40.498-31.951h80.996c-4.405,18.308-20.891,31.951-40.498,31.951z"/>
</svg>
