<?xml version="1.0" encoding="iso-8859-1"?>
<!-- Generator: Adobe Illustrator 18.0.0, SVG Export Plug-In . SVG Version: 6.00 Build 0)  -->
<!DOCTYPE svg PUBLIC "-//W3C//DTD SVG 1.1//EN" "http://www.w3.org/Graphics/SVG/1.1/DTD/svg11.dtd">
<svg version="1.1" id="Capa_1" xmlns="http://www.w3.org/2000/svg" xmlns:xlink="http://www.w3.org/1999/xlink" x="0px" y="0px"
	 viewBox="0 0 297 297" style="enable-background:new 0 0 297 297;" xml:space="preserve">
<path d="M265.334,91.158c0.008-0.359,0.012-0.717,0.012-1.073c0-26.04-21.185-47.225-47.225-47.225
	c-0.684,0-1.369,0.015-2.055,0.046C203.88,16.948,177.65,0,148.5,0S93.12,16.948,80.934,42.905c-0.686-0.03-1.371-0.046-2.055-0.046
	c-26.04,0-47.225,21.185-47.225,47.225c0,0.356,0.005,0.713,0.012,1.073c-9.453,12.787-14.618,28.385-14.618,44.352
	c0,41.162,33.489,74.651,74.652,74.651c5.106,0,10.165-0.524,15.125-1.549v78.651c0,5.377,4.36,9.737,9.737,9.737h63.875
	c5.377,0,9.737-4.36,9.737-9.737v-78.651c4.96,1.025,10.019,1.549,15.125,1.549c41.163,0,74.652-33.489,74.652-74.651
	C279.952,119.543,274.787,103.944,265.334,91.158z M126.299,277.526v-58.978c6.968,2.896,14.5,4.449,22.201,4.449
	s15.233-1.554,22.201-4.449v58.978H126.299z M205.3,190.686c-6.02,0-11.951-0.971-17.63-2.885c-3.707-1.247-7.799-0.16-10.394,2.765
	c-7.306,8.235-17.794,12.957-28.776,12.957s-21.47-4.722-28.776-12.957c-1.881-2.12-4.549-3.275-7.286-3.275
	c-1.039,0-2.088,0.166-3.108,0.51c-5.679,1.914-11.609,2.885-17.63,2.885c-30.425,0-55.178-24.752-55.178-55.177
	c0-12.78,4.478-25.24,12.609-35.084c1.677-2.03,2.46-4.653,2.171-7.271c-0.115-1.045-0.174-2.078-0.174-3.069
	c0-15.302,12.449-27.751,27.751-27.751c2.032,0,4.089,0.23,6.113,0.685c4.838,1.081,9.723-1.641,11.338-6.332
	c7.662-22.258,28.628-37.212,52.17-37.212s44.508,14.955,52.17,37.212c1.615,4.692,6.505,7.413,11.338,6.332
	c2.024-0.455,4.081-0.685,6.113-0.685c15.302,0,27.751,12.449,27.751,27.751c0,0.992-0.059,2.024-0.174,3.069
	c-0.289,2.618,0.494,5.24,2.171,7.271c8.131,9.845,12.609,22.304,12.609,35.084C260.478,165.934,235.725,190.686,205.3,190.686z"/>
<g>
</g>
<g>
</g>
<g>
</g>
<g>
</g>
<g>
</g>
<g>
</g>
<g>
</g>
<g>
</g>
<g>
</g>
<g>
</g>
<g>
</g>
<g>
</g>
<g>
</g>
<g>
</g>
<g>
</g>
</svg>
