<?xml version="1.0" encoding="utf-8"?>
<!-- Generator: Adobe Illustrator 17.0.0, SVG Export Plug-In . SVG Version: 6.00 Build 0)  -->
<!DOCTYPE svg PUBLIC "-//W3C//DTD SVG 1.1//EN" "http://www.w3.org/Graphics/SVG/1.1/DTD/svg11.dtd">
<svg version="1.1" id="Слой_1" xmlns="http://www.w3.org/2000/svg" xmlns:xlink="http://www.w3.org/1999/xlink" x="0px" y="0px"
	 width="549.5px" height="121.5px" viewBox="-19.5 -3.5 549.5 121.5" enable-background="new -19.5 -3.5 549.5 121.5"
	 xml:space="preserve">
<g>
	<path fill="#FFFFFF" d="M272.031,79.072c1.395,0,2.568-0.087,3.723,0.015c4.441,0.396,6.268,4.199,3.768,7.89
		c-2.511,3.707-6.23,5.978-10.042,8.07c-10.095,5.538-21.012,8.219-32.422,9.005c-6.865,0.473-13.744,1.101-20.621,0.076
		c-0.336-0.05-0.695-0.02-1.01-0.126c-1.584-0.536-3.526-0.712-4.042-2.668c-0.466-1.766,0.771-3.028,1.832-4.257
		c0.222-0.257,0.442-0.538,0.72-0.72c1.77-1.156,1.327-1.946-0.17-3.118c-20.38-15.96-18.688-42.527-6.891-56.872
		c11.984-14.572,34.651-19.148,52.358-10.47c8.5,4.166,15.483,9.977,18.909,19.089c4.284,11.393,1.497,21.874-4.73,31.772
		c-0.362,0.575-0.773,1.118-1.156,1.679C272.213,78.503,272.201,78.59,272.031,79.072z M238.249,35.563
		c-12.893,0.015-21.343,6.18-24.031,16.502c-1.884,7.233,0.554,14.263,6.162,17.771c6.327,3.958,14.85,3.633,20.084-0.766
		c3.732-3.136,5.144-7.828,3.498-11.622c-1.654-3.814-6.507-6.653-10.585-6.146c-1.159,0.144-2.699,0.195-2.521,1.843
		c0.166,1.54,1.462,1.163,2.615,1.018c2.873-0.362,6.378,1.566,7.659,4.113c1.448,2.88,0.325,5.312-1.514,7.501
		c-5.578,6.635-18.798,4.616-21.956-3.446c-2.558-6.528-0.825-12.445,3.621-17.526c5.75-6.571,16.596-8.323,25.445-4.46
		c4.919,2.147,8.307,5.666,9.535,10.904c1.678,7.156,0.541,13.901-3.952,19.835c-4.466,5.897-10.742,8.98-17.715,10.855
		c-1.051,0.283-2.467,0.358-2.101,1.924c0.357,1.525,1.687,1.128,2.752,0.858c7.696-1.955,14.446-5.478,19.414-11.885
		c6.683-8.619,7.055-22.111,0.68-29.71C250.54,37.406,243.977,35.705,238.249,35.563z"/>
	<path fill="#00FFA1" d="M214.768,107.113c10.408,1.218,20.696,0.173,30.943-1.637c7.769-1.372,15.551-2.816,22.651-6.425
		c6.638-3.375,12.906-7.383,17.235-13.67c4.412-6.408,5.102-13.632,4.373-21.181c-0.616-6.382-4.043-11.358-7.491-16.413
		c-3.136-4.597-5.58-9.507-5.426-15.299c0.018-0.678-0.155-1.598,0.209-1.991c2.342-2.534,1.128-5.392,1-8.192
		c-0.224-4.919-0.487-9.86,1.617-14.538c2.245-4.993,6.776-7.735,12.284-6.942c2.855,0.411,5.495,0.17,8.256-0.537
		c4.005-1.025,7.282,0.84,10.169,3.369c1.262,1.105,2.244,2.531,3.35,3.814c1.29,1.497,0.558,2.955-0.323,4.188
		c-0.973,1.363-2.421,2.31-4.187,1.648c-1.654-0.62-3.211-1.541-1.999-3.776c1.118-2.063,0.229-3.649-1.327-4.898
		c-1.682-1.349-3.685-1.009-5.616-0.591c-0.549,0.119-0.554,0.587-0.261,0.986c0.398,0.541,0.805,1.087,1.281,1.557
		c1.304,1.287,2.074,2.723,1.252,4.55c-0.812,1.806-2.086,3.053-4.232,3.047c-4.14-1.257-1.435-4.857-2.402-7.269
		c-2.46,3.787-3.118,7.731-1.719,11.964c-0.233,1.681,0.607,3.142,0.943,4.707c0.157,0.73,0.626,0.93,1.24,1.061
		c9.895,2.121,15.618,9.278,19.827,17.539c6.554,12.865,8.043,26.498,4.901,40.745c-2.861,12.969-11.616,20.392-22.607,26.262
		c-7.869,4.202-16.18,5.607-24.953,5.531c-12.509-0.108-24.961-0.763-37.407-2.149c-7.327-0.816-14.71-1.715-22.129-1.286
		c-4.929,0.285-9.702,1.555-14.513,2.55c-2.168,0.449-4.314,0.824-6.541,0.611c-1.666-0.159-2.216-0.717-1.019-2.195
		c2.844-3.51,6.012-6.603,10.35-8.229c0.923-0.1,1.871-0.102,2.764-0.324c1.361-0.337,2.498-0.165,3.413,0.965
		C210.249,106.609,212.368,107.213,214.768,107.113z M282.315,15.55c0.23,1.507,0.574,3.51,0.834,5.524
		c0.508,3.929,0.547,3.836,4.228,3.409c2.102-0.244,2.301-1.009,2.181-2.949c-0.311-5.033-0.96-10.157,1.406-14.97
		c0.355-0.721,1.096-1.664,0.51-2.3c-0.663-0.719-1.76-0.24-2.631,0.088C284.542,5.973,282.347,9.582,282.315,15.55z"/>
</g>
<g enable-background="new    ">
	<path fill="#FFFFFF" d="M366.016,94.607c-2.288,8.214-3.328,22.458-12.166,22.25c-3.223-0.104-4.471-1.248-4.366-3.743
		c0.104-2.911,1.04-2.808,3.224-5.614c3.119-3.951,4.782-7.902,6.134-12.478c-2.911,0.729-8.214,0.624-10.917,1.04
		c-1.039,6.551-2.184,18.923-9.981,19.027c-3.015,0-4.471-2.184-4.471-6.03c0-2.6,3.639-7.07,5.511-11.646
		c-2.808,0.208-6.759,1.664-9.773,1.56c-2.392,0-4.367-1.247-4.367-4.366c0-1.664,0.832-6.446,3.639-6.551
		c5.822-0.104,8.11,0.416,13.828,0.624c4.367-14.452,2.809-9.565,14.973-38.678c1.664-4.159,2.912-8.942,7.278-8.942
		c3.951,0,4.991,1.352,4.991,4.783c0,4.159-7.694,12.893-12.686,22.978c-2.703,5.511-6.238,14.037-7.382,19.651
		c4.366,0.416,7.175-0.208,12.165-0.624c4.158-9.877,13.517-29.32,15.596-35.247c0.624-1.871,2.703-3.639,3.848-3.431
		c2.807,0.416,2.703,3.327,2.703,5.926c0.104,6.967-11.957,24.954-15.284,31.608c3.743-0.624,8.006-0.832,11.333-0.832
		c1.871,0,2.6,0.521,2.6,1.664C382.339,91.072,373.189,92.319,366.016,94.607z"/>
	<path fill="#FFFFFF" d="M413.111,102.613c-2.079,0-4.99-0.729-6.966-2.392c-0.728,0.936-8.733,16.636-18.923,16.636
		c-3.328,0-8.734-3.119-8.734-8.526c0-11.541,16.531-21.834,20.275-21.834c9.149,0,9.773,4.159,10.085,7.902
		c0.936,0.728,2.911,1.871,5.407,1.871c1.768,0,4.055-0.624,5.198-0.624c1.456,0,1.247,1.56,1.247,2.703
		C420.701,101.262,416.646,102.613,413.111,102.613z M397.932,97.414c-3.016-0.831-9.67,7.07-9.67,8.942
		c0,1.144,0.52,2.495,1.768,2.599c3.951,0.208,8.838-5.926,8.941-8.525C398.971,99.286,399.283,97.83,397.932,97.414z"/>
	<path fill="#FFFFFF" d="M438.581,106.356c-6.238,3.742-11.229,8.525-17.571,8.525c-4.783,0-7.383-3.847-6.446-8.11
		c1.247-5.926,4.991-11.541,8.837-19.234c1.041-1.768,4.056-4.575,5.823-4.056c1.768,0.624,2.287,2.496,2.184,4.575
		c-0.208,3.639-5.198,12.061-5.198,14.973c0,0.936,0.207,1.144,1.247,1.144c4.991,0,15.076-10.605,20.587-10.71
		c2.6,0,3.223,1.145,3.223,4.575c0,2.079-2.911,6.343-2.911,8.318c0,0.623,0.208,1.247,0.937,1.352
		c3.119,0.623,11.229-3.224,13.1-3.119c0.521,0.104,1.04,0.936,1.04,1.975c0,2.808-10.709,9.462-15.388,9.462
		C440.66,116.025,438.581,111.763,438.581,106.356z"/>
	<path fill="#FFFFFF" d="M474.553,116.233c-9.357,0-10.918-2.911-10.709-6.342c0.207-3.016,1.663-4.056,3.119-4.159
		c1.871-0.208,3.951,2.807,7.59,3.223c1.871,0.208,3.951,0.208,4.055-2.184c0.104-2.495-11.645-4.782-11.645-11.956
		c0-7.902,9.773-11.021,17.363-11.021c6.446,0,8.63,3.535,8.63,7.278c0,2.183-1.56,6.966-5.303,7.174
		c-1.976,0.104-2.599-0.208-3.224-1.248c-0.936-1.56,1.872-3.431,1.872-4.263c0-0.624-0.416-1.768-2.495-1.871
		c-3.432-0.208-6.135,0.312-6.551,3.951c-0.208,2.495,12.165,6.654,12.165,11.956C489.421,114.05,480.167,116.233,474.553,116.233z"
		/>
	<path fill="#FFFFFF" d="M502.934,113.53c-5.198,0-7.07-1.352-8.941-3.743c-1.455-1.768-1.56-3.535-1.56-5.927
		c0-4.99,8.526-22.146,20.379-22.146c6.343,0,9.981,4.991,9.357,9.566c-0.624,4.679-11.229,12.061-17.468,12.685
		c0.729,1.352,2.287,2.184,4.575,2.184c2.808,0,17.987-6.759,18.819-6.759c1.768,0.104,2.911,0,2.911,2.392
		C531.007,104.9,509.381,113.53,502.934,113.53z M505.117,96.998c4.471,0,8.525-2.911,8.525-4.366c0-0.729-0.207-1.664-1.559-1.768
		C508.652,90.552,506.781,94.295,505.117,96.998z"/>
</g>
<g enable-background="new    ">
	<path fill="#00FFA1" d="M28.645,70.35c-2.184,0-4.575-1.352-4.783-2.809c-0.208-1.143,0.208-1.352,0.208-2.598
		c0-0.729-0.832-1.768-2.808-1.768c-7.59,0-12.061,10.084-11.957,18.818c0.104,8.734,8.63,22.043,8.734,27.24
		c0.104,3.641-4.159,6.135-8.318,6.135c-7.798,0-24.745-9.357-24.642-16.635c0-2.496,1.872-3.432,3.951-3.432
		c3.223,0,14.244,10.918,18.092,10.918c0.728,0,1.144,0,1.144-0.729c0-1.039-5.927-14.764-5.927-25.266
		c0-7.174,4.471-27.137,17.571-27.137c11.125,0,13.309,5.407,13.309,9.877C33.219,66.605,31.035,70.35,28.645,70.35z"/>
	<path fill="#00FFA1" d="M62.535,115.473c-7.174,0-7.07-4.887-7.07-8.006c0-1.768,0.312-3.535-1.144-3.639
		c-1.456-0.104-4.887,1.977-8.838,4.783c-3.327,2.287-7.07,5.615-11.853,5.615c-4.159,0-6.135-2.6-6.135-5.822
		c0-3.225,1.871-11.646,2.808-15.805c0.623-3.223,3.327-4.055,5.926-4.055c3.535,0,4.264,1.975,4.264,5.094
		c0,2.496-2.704,11.125-1.561,11.125c2.496,0,4.68-2.184,7.383-3.846c3.743-2.184,8.733-6.031,12.685-6.031
		c4.367,0,6.343,2.391,6.343,4.99c0,1.457-1.353,4.16-1.353,5.408c-0.104,1.871,0.208,2.287,1.976,2.182
		c5.095-0.207,9.878-5.51,10.918-5.406c1.56,0.104,1.975,0.729,1.975,2.393C78.858,106.428,71.061,115.473,62.535,115.473z"/>
	<path fill="#00FFA1" d="M105.784,112.666c-4.679,0.104-7.278-1.871-9.462-6.029c-3.743,2.287-5.822,6.342-15.907,6.549
		c-5.511,0.105-6.447-2.078-6.447-5.822c0-7.693,12.686-18.508,22.146-18.508c6.238,0,8.63,3.848,9.15,8.838
		c0.415,2.912-0.104,7.592,3.015,7.695c3.432,0.104,9.254-4.055,10.813-3.848c1.871,0.209,2.079,0.623,2.079,1.768
		C121.172,106.531,110.982,112.563,105.784,112.666z M92.579,97.486c-3.431-0.104-8.525,3.639-8.317,6.445
		c0.104,1.041,1.56,0.832,2.6,0.832c2.183,0,7.59-2.91,7.59-5.613C94.451,98.215,93.516,97.486,92.579,97.486z"/>
	<path fill="#00FFA1" d="M120.961,90.52c2.392,0,3.015,1.457,3.015,2.809c0,1.871-1.352,6.029-1.663,8.941
		c-0.208,2.184,0.104,3.535,1.768,3.535c4.055,0,12.685-9.047,13.725-8.631c1.352,0.416,2.6,1.145,2.6,2.393
		c0,1.559-11.229,15.699-20.379,15.596c-3.119,0-6.654-1.977-6.759-5.406C113.163,105.908,115.866,90.52,120.961,90.52z
		 M126.888,81.059c-3.016-0.104-4.991-3.328-4.991-6.967s2.911-5.199,6.135-5.199c2.807,0,5.822,2.705,5.822,4.992
		C133.854,78.875,129.902,81.162,126.888,81.059z"/>
	<path fill="#00FFA1" d="M144.665,95.406c-1.248,3.328-2.6,5.928-2.495,7.902c0.104,1.768,0.312,2.184,2.079,2.184
		c5.822,0,15.284-8.422,17.26-8.422c1.039,0,1.663,1.248,1.663,2.496c0,1.768-11.437,14.66-21.522,14.66
		c-5.926,0-7.59-3.535-7.59-7.695c0-4.262,3.847-15.596,16.324-39.82c0.416-0.729,12.477-27.346,25.266-27.969
		c4.263-0.208,4.99,2.807,4.887,5.614C180.016,53.713,157.558,80.33,144.665,95.406z M151.943,77.107
		c3.95-4.574,14.556-18.091,14.556-20.691c0-0.52,0.313-1.144-0.208-1.144C163.9,55.273,154.854,70.453,151.943,77.107z"/>
	<path fill="#00FFA1" d="M170.032,116.721c-9.357,0-10.918-2.91-10.71-6.342c0.208-3.016,1.664-4.055,3.119-4.158
		c1.872-0.209,3.951,2.807,7.591,3.223c1.871,0.207,3.951,0.207,4.055-2.184c0.104-2.496-11.646-4.783-11.646-11.957
		c0-7.902,9.774-11.021,17.364-11.021c6.446,0,8.63,3.535,8.63,7.279c0,2.182-1.56,6.965-5.303,7.174
		c-1.976,0.104-2.6-0.209-3.224-1.248c-0.936-1.561,1.872-3.432,1.872-4.264c0-0.623-0.416-1.768-2.496-1.871
		c-3.431-0.207-6.134,0.313-6.55,3.951c-0.208,2.496,12.165,6.654,12.165,11.957C184.9,114.537,175.646,116.721,170.032,116.721z"/>
</g>
</svg>
