<svg width="99.757mm" height="105.88mm" version="1.1" viewBox="0 0 99.757271 105.88082" xmlns="http://www.w3.org/2000/svg">
 <g transform="translate(222.02 -86.77)">
  <path d="m-208.75 190.62c-0.29752-3.8825-0.59204-5.4193-1.4796-7.7208-1.2245-3.1751-1.5214-5.7056-0.98745-8.4157 0.62051-3.1496 1.5285-4.8252 3.8767-7.1536 3.2065-3.1796 7.4571-5.0945 14.289-6.4372 2.2766-0.44744 3.1566-0.74616 3.8661-1.3123 0.50522-0.40312 0.91859-0.92162 0.91859-1.1522 0-0.78586-2.3152-0.27019-5.8264 1.2977-3.9888 1.7812-5.3043 2.2332-7.6911 2.6424-5.312 0.9109-10.295-2.0055-14.114-8.2608-1.7602-2.883-3.9858-5.935-5.2502-7.1997l-0.86987-0.87011 3.7128-0.0161c3.2882-0.0143 3.9396-0.0948 5.6971-0.70403 3.3097-1.1474 5.5774-1.991 5.7108-2.1244 0.0696-0.0696-0.43209-1.0654-1.1148-2.2129-2.6411-4.439-5.4819-11.19-7.3474-17.459-1.3119-4.4093-1.1688-4.3978 0.33921 0.0273 2.3118 6.7839 4.9258 12.292 8.1132 17.096l1.6877 2.5434 1.8806 0.13456c2.8304 0.20251 5.6831 1.6973 8.105 4.2469 1.0147 1.0682 2.2361 2.6259 2.7142 3.4615 1.1178 1.9537 2.3205 2.7573 4.462 2.9811 1.4618 0.15279 1.6433 0.11991 1.6433-0.29771 0-0.77281-1.6122-2.0575-4.4625-3.556-3.0829-1.6208-4.5646-2.8288-5.9665-4.8643-3.4138-4.9567-3.355-11.884 0.1687-19.888 1.0757-2.4432 1.7117-4.9586 2.0843-8.2429l0.30424-2.6818 0.93098 1.8609c1.6752 3.3486 4.948 6.3058 10.635 9.61 3.0462 1.7697 5.7503 4.4531 6.9103 6.8572 0.83098 1.7223 0.89384 2.0375 0.89671 4.4979 3e-3 2.2089-0.11315 2.9651-0.70074 4.5788-0.89795 2.4661-2.4437 5.0642-4.5264 7.608-2.6275 3.2092-3.0769 4.085-2.0961 4.085 0.64912 0 2.3583-1.8379 3.9949-4.2957 5.2875-7.9406 9.7091-9.0003 21.857-5.238 1.136 0.35181 2.6705 0.59226 3.9688 0.62188 1.7842 0.0407 2.2774-0.0467 3.1401-0.55652l1.0234-0.60481-0.18178 0.96893c-0.72115 3.8441-2.6311 8.5671-4.8051 11.882-2.8219 4.3033-5.5291 6.3594-9.4586 7.1839-3.4394 0.72167-6.377 0.0528-12.022-2.7375-4.004-1.9791-6.6391-2.7732-6.3528-1.9145 0.29184 0.87552 4.6436 2.7894 9.8716 4.3414 6.5938 1.9575 9.6423 4.8673 10.867 10.373 0.58215 2.6167 0.39697 8.4738-0.40348 12.761-0.68269 3.6568-0.86444 4.0706-1.3126 2.9886-0.87986-2.1242-3.0897-3.1742-7.3778-3.5056-8.1658-0.63108-12.287-3.415-13.98-9.4436-0.31801-1.1324-0.47092-3.2767-0.59311-8.3173-0.0905-3.7353-0.25393-6.8806-0.36307-6.9894-0.60277-0.60111-0.68496 0.70949-0.4577 7.2986 0.17668 5.1224-0.91172 8.0588-4.2281 11.407-1.6351 1.6507-2.4484 2.2317-4.5085 3.2211-1.3824 0.66391-3.466 1.4648-4.6302 1.7798-5.337 1.4441-9.3013 4.3506-10.126 7.4238-0.21294 0.79395-0.26735 0.59345-0.43593-1.6064zm5.7324-6.4613c0.77759-0.38045 2.5155-0.98655 3.862-1.3469 7.4026-1.9811 11.872-6.2818 13.058-12.565 0.16703-0.88506 0.19959-2.6473 0.0831-4.4979-0.28803-4.5758-0.18607-5.2273 0.90982-5.8138 0.39737-0.21266 0.66838-0.13131 1.2816 0.38471 1.4482 1.2186 2.4172 4.5745 2.4304 8.4168 0.0142 4.1422 1.8992 9.0148 4.4715 11.559 0.81777 0.80867 2.2234 1.8581 3.1236 2.3321 1.6691 0.87879 5.1442 1.9071 6.445 1.9071 1.2372 0 3.3835 0.83716 4.1495 1.6185 0.40335 0.41144 0.80623 0.75138 0.89528 0.75542 0.33802 0.0154 0.76413-3.0939 0.76413-5.5757 0-5.4823-1.4232-9.142-4.8929-12.581-2.338-2.3177-4.9363-3.8167-8.2039-4.7333-3.1778-0.8914-6.9538-3.3581-7.3274-4.7866-0.0738-0.28237-0.0368-0.77686 0.0823-1.0989 0.32945-0.89058 1.9397-0.76195 6.1974 0.49507 4.7344 1.3978 7.0558 1.8299 9.8302 1.8299 7.3126 0 12.536-4.336 15.859-13.166 0.75075-1.9946 0.76318-2.1218 0.1533-1.5699-1.6652 1.507-4.421 1.6072-9.3688 0.34075-4.4508-1.1393-6.2217-1.3341-8.5503-0.94081-4.294 0.72524-8.2505 3.0404-11.972 7.0058-1.2951 1.3799-2.556 2.5089-2.8021 2.5089-0.24606 0-0.58439-0.30068-0.75184-0.66818-0.33581-0.73703-0.0488-1.8112 2.2602-8.4599 0.67156-1.9337 1.3369-4.4608 1.5197-5.7721 0.79489-5.7024-1.3629-9.6936-7.5164-13.903-2.9648-2.0281-4.8623-3.8407-5.712-5.4565l-0.55446-1.0544-4e-3 1.1867c-6e-3 1.7806-0.67592 4.281-1.6833 6.2813-1.3123 2.6058-1.7625 4.353-1.9256 7.4731-0.23791 4.5505 0.8695 8.3214 3.3462 11.394 1.4232 1.7656 2.3886 2.6142 5.0318 4.4228 2.0745 1.4194 2.9077 2.4504 2.9077 3.5981 0 0.48644 0.22371 0.79567 0.78591 1.0864 0.94908 0.49079 1.3308 1.1422 1.3308 2.2712v0.84669l-1.8521-0.13251c-1.8086-0.12941-1.8521-0.11783-1.8521 0.49362 0 1.2644-1.0251 1.876-8.3908 5.0066-7.1267 3.029-9.8088 4.8157-11.735 7.8168-2.2312 3.4771-2.4624 8.8943-0.64618 15.142l0.44126 1.5179 1.5536-1.4384c0.85447-0.79109 2.1898-1.7496 2.9674-2.1301zm7.8067-25.377c2.0003-0.79048 3.9284-1.5261 4.2845-1.6347 0.57527-0.17543 0.46313-0.26426-1.0046-0.79571-3.7123-1.3442-8.2848-4.8305-11.594-8.8402l-1.4048-1.702-1.5239 0.0662c-0.83817 0.0364-3.0718 0.37232-4.9635 0.74652s-4.5313 0.75313-5.8655 0.84208l-2.426 0.16172 0.88681 1.3113c2.787 4.121 6.9511 7.964 10.566 9.7515 2.7758 1.3725 4.5853 1.7847 7.2245 1.6456 1.8677-0.0984 2.7104-0.32318 5.8208-1.5523zm2.7109-6.1666c0-0.22564-2.3045-2.9249-3.3073-3.8738-1.4544-1.3763-6.1029-3.303-6.6497-2.7562-0.17139 0.17139 2.1565 2.3448 3.9348 3.6738 1.3162 0.98354 5.2833 3.1262 5.7882 3.1262 0.12867 0 0.23394-0.0765 0.23394-0.16991zm40.349-10.585c-1.6007-0.20933-5.5298-0.91154-8.7312-1.5605-7.1104-1.4412-7.9547-1.4621-10.765-0.26624-0.39605 0.16854-0.42974 0.0308-0.29995-1.2268 0.3839-3.7196-2.3785-9.0558-6.9727-13.47-0.84788-0.81456-2.5884-2.3427-3.8678-3.3959-3.4448-2.8357-4.4207-4.6177-4.4207-8.0729 0-3.0133 1.0562-5.8533 3.6198-9.7333 1.7592-2.6625 2.0165-3.9736 1.2721-6.4804-0.39636-1.3346-1.237-2.4419-2.5107-3.3071l-0.66146-0.4493 0.92604 0.15136c6.1838 1.0108 12.847 5.1291 16.019 9.9004 2.2942 3.451 3.2212 6.5802 3.3877 11.436 0.11521 3.3591 0.42768 4.2782 1.194 3.5119 0.32066-0.32066 0.41241-1.1436 0.43655-3.9159 0.0257-2.9526 0.12377-3.7471 0.61763-5.0037 1.2501-3.1808 3.7192-6.2617 7.2798-9.0834 4.9002-3.8833 7.3059-9.2675 6.0909-13.632l-0.18412-0.66146 0.60379 0.52916c1.6481 1.4444 5.1209 7.5732 6.5868 11.625 0.8557 2.3648 1.8883 6.9183 1.8883 8.3268 0 0.45009 0.10269 0.81834 0.2282 0.81834 0.1255 0 1.0696-0.34698 2.098-0.77106 2.8515-1.1758 9.1025-3.2275 9.4257-3.0936 0.15765 0.0653 0.11613 0.12816-0.0923 0.13965-0.49513 0.0273-8.7785 3.3381-10.403 4.158-1.1869 0.59907-1.2568 0.69368-1.2568 1.7021 0 1.8385-0.7949 4.7879-1.9204 7.1254-0.88338 1.8346-1.5016 2.6633-3.3559 4.4979-1.2502 1.2369-3.2533 2.9016-4.4515 3.6993-2.1632 1.4402-2.5591 1.857-1.7642 1.857 0.61165 0 1.4114-0.4774 2.893-1.7268 1.7488-1.4748 2.8179-1.9924 4.4673-2.1626 2.355-0.24306 5.9878 1.0139 9.1001 3.1487 2.1086 1.4463 3.8343 1.3246 5.4093-0.38147l0.99938-1.0825-4e-3 2.3591c-0.0101 6.1056-2.5666 10.471-7.5264 12.85-4.1066 1.9705-8.9089 2.4834-15.356 1.6403zm10.531-1.648c4.1323-1.0949 7.8215-3.6697 9.6776-6.7542 1.0315-1.7142 1.9953-4.2645 2.2577-5.9742l0.18211-1.1865-0.74064 0.69325c-1.1214 1.0497-2.4163 1.6153-3.3553 1.4657-0.45372-0.0723-2.1556-0.68286-3.782-1.3568-3.3311-1.3803-6.5603-2.1109-8.1555-1.845-0.58208 0.097-2.0457 0.6969-3.2525 1.3331-1.2068 0.63616-2.4174 1.1567-2.6903 1.1567-0.73972 0-1.3332-0.28112-1.3332-0.63149 0-0.17066 1.3394-1.6806 2.9766-3.3554 3.4244-3.5033 5.0493-6.0168 6.242-9.6554 0.84008-2.563 1.1833-4.0848 0.92134-4.0848-0.0911 0-1.6731 0.89939-3.5154 1.9986-10.233 6.1055-17.551 13.553-21.542 21.922-1.2458 2.6129-1.8565 3.1322-2.1779 1.8519-0.24716-0.98477 0.23071-2.3103 1.7501-4.8546 4.8191-8.0698 12.737-15.231 22.525-20.372 3.0465-1.6001 3.0748-1.6237 3.2476-2.7044 0.34299-2.1449-0.46886-7.1484-1.7534-10.806-0.83013-2.364-3.0202-6.8136-3.9067-7.9375l-0.52177-0.66146-0.01 1.8521c-0.0123 2.3308-0.57882 4.7615-1.6164 6.9355-1.0508 2.2017-1.9773 3.2251-4.7868 5.2872-5.4369 3.9906-7.8767 8.3699-7.8844 14.152-2e-3 1.8566-0.32661 2.7609-1.0747 2.9983-0.99514 0.31584-1.3551-0.40502-1.7431-3.4908-1.264-10.053-6.8693-17.296-16.243-20.991l-1.3419-0.52893 0.8116 1.0099c0.96334 1.1988 1.3325 2.3491 1.3325 4.1525 0 1.8447-0.35551 2.9034-1.5487 4.612-2.8185 4.036-3.7529 7.6372-2.8536 10.998 0.83794 3.1322 2.5405 5.413 6.1376 8.2218 5.8641 4.579 8.8678 9.9586 8.0506 14.418-0.11818 0.64486-0.18408 1.2037-0.14643 1.2418 0.0376 0.0381 0.59286-0.16238 1.2338-0.4456 2.4418-1.079 3.5898-1.0097 10.823 0.65277 4.8637 1.1179 7.688 1.4324 11.906 1.3258 2.782-0.0703 4.4037-0.24725 5.9003-0.64381zm-76.185-9.3909c-1.5097-1.2986-0.51729-3.8707 1.4934-3.8707 1.954 0 2.8819 2.4338 1.4672 3.8485-0.83644 0.83644-2.0039 0.84522-2.9606 0.0223zm5.847-1.8743c-1.3569-1.3569-0.42431-3.8485 1.4404-3.8485 1.2147 0 2.2493 1.0345 2.2493 2.249 0 1.9552-2.3258 2.9634-3.6897 1.5995zm-6.9114-5.3342c-0.40625-0.62003-0.41284-0.76441-0.0634-1.3891 0.76953-1.3756 2.6212-0.93351 2.6212 0.6258 0 1.5049-1.7331 2.022-2.5578 0.76327zm4.4106-0.89427c-0.44848-0.83799-0.21894-1.6553 0.59233-2.1091 1.2035-0.67319 2.3775 0.41307 1.9055 1.7631-0.2113 0.60441-0.43866 0.75656-1.2293 0.82266-0.76512 0.064-1.0331-0.0368-1.2686-0.47668zm-4.3223-4.083c-0.17286-0.45045 0.47735-1.0632 0.87041-0.82026 0.1519 0.0939 0.27618 0.40178 0.27618 0.68424 0 0.60634-0.92405 0.71596-1.1466 0.13602zm2.9987-0.68081c0-0.61634 0.91949-0.74345 1.1441-0.15816 0.17841 0.46494-0.0348 0.68733-0.65902 0.68733-0.30868 0-0.48507-0.19242-0.48507-0.52917zm-1.8521-2.9104c0-0.14552 0.11906-0.26459 0.26458-0.26459s0.26458 0.11907 0.26458 0.26459-0.11906 0.26458-0.26458 0.26458-0.26458-0.11906-0.26458-0.26458zm83.205-3.8089c-0.80795-0.35202-1.4488-1.3555-1.4488-2.2686 0-0.84762 1.2788-2.1245 2.1277-2.1245 1.4938 0 2.6348 0.985 2.6348 2.2746 0 0.73193-0.74704 1.8526-1.4478 2.1719-0.84145 0.38339-0.86529 0.38271-1.8659-0.0532zm4.4309-2.953c-1.0515-0.73648-0.49185-2.7631 0.76298-2.7631 0.7657 0 1.5594 0.808 1.5594 1.5875 0 0.73332-0.783 1.5875-1.4552 1.5875-0.15352 0-0.54375-0.18535-0.86717-0.41188zm3.2925-2.6749c-0.32867-0.32867-0.17869-1.3536 0.22048-1.5068 0.8933-0.34279 1.7426 0.62122 1.1628 1.3198-0.3173 0.38232-1.0843 0.48597-1.3833 0.18695zm-10.717-1.5628c-2.2254-0.93573-1.5541-4.3462 0.85548-4.3462 2.0736 0 3.1634 2.329 1.7792 3.8024-0.75177 0.80022-1.6057 0.97647-2.6347 0.54382zm5.7115-1.1924c-0.53888-0.31387-0.6338-1.8189-0.14552-2.3071 0.44953-0.44953 1.6851-0.39376 2.1771 0.0983 1.2907 1.2907-0.41811 3.1486-2.0316 2.2089zm8.5786-0.4178c0.0516-0.26788 0.27076-0.48705 0.48705-0.48705 0.56713 0 0.48521 0.76879-0.0938 0.8803-0.35359 0.0681-0.46135-0.0397-0.39325-0.39325zm-4.1027-0.53115c-0.29902-0.29902-0.19537-1.066 0.18695-1.3833 0.69862-0.5798 1.6626 0.2695 1.3198 1.1628-0.15318 0.39917-1.1781 0.54915-1.5068 0.22048z" fill="#f2f2f2"/>
 </g>
</svg>
