<?xml version="1.0" encoding="UTF-8" standalone="no"?>
<!-- Created with Inkscape (http://www.inkscape.org/) -->

<svg
   xmlns:dc="http://purl.org/dc/elements/1.1/"
   xmlns:cc="http://creativecommons.org/ns#"
   xmlns:rdf="http://www.w3.org/1999/02/22-rdf-syntax-ns#"
   xmlns:svg="http://www.w3.org/2000/svg"
   xmlns="http://www.w3.org/2000/svg"
   xmlns:sodipodi="http://sodipodi.sourceforge.net/DTD/sodipodi-0.dtd"
   xmlns:inkscape="http://www.inkscape.org/namespaces/inkscape"
   width="91.285912mm"
   height="74.317894mm"
   viewBox="0 0 91.285915 74.317892"
   version="1.1"
   id="svg8"
   inkscape:version="0.92.1 r15371"
   sodipodi:docname="bg-pattern2.svg">
  <defs
     id="defs2" />
  <sodipodi:namedview
     id="base"
     pagecolor="#ffffff"
     bordercolor="#666666"
     borderopacity="1.0"
     inkscape:pageopacity="0.0"
     inkscape:pageshadow="2"
     inkscape:zoom="1.979899"
     inkscape:cx="404.15495"
     inkscape:cy="158.16053"
     inkscape:document-units="mm"
     inkscape:current-layer="g3691"
     showgrid="false"
     fit-margin-top="0"
     fit-margin-left="0"
     fit-margin-right="0"
     fit-margin-bottom="0"
     inkscape:window-width="1920"
     inkscape:window-height="1021"
     inkscape:window-x="-8"
     inkscape:window-y="-8"
     inkscape:window-maximized="1" />
  <metadata
     id="metadata5">
    <rdf:RDF>
      <cc:Work
         rdf:about="">
        <dc:format>image/svg+xml</dc:format>
        <dc:type
           rdf:resource="http://purl.org/dc/dcmitype/StillImage" />
        <dc:title></dc:title>
      </cc:Work>
    </rdf:RDF>
  </metadata>
  <g
     inkscape:label="Layer 1"
     inkscape:groupmode="layer"
     id="layer1"
     transform="translate(222.79651,-79.638598)">
    <g
       id="g3691"
       transform="translate(-268.3631,-51.404762)">
      <path
         style="fill:#ececec;fill-opacity:1;stroke-width:1"
         d="m 136.1539,188.76071 c -0.41614,-0.47181 -1.18119,-1.24572 -1.70009,-1.71979 -0.5189,-0.47408 -0.6975,-0.68705 -0.39688,-0.47327 1.00343,0.71356 2.30675,1.9866 2.58171,2.52173 0.14954,0.29104 -0.0686,0.14314 -0.48474,-0.32867 z m -0.11554,-3.1621 c -0.44776,-0.26289 -1.47379,-1.16843 -2.28007,-2.01231 -0.80628,-0.84389 -1.48899,-1.49873 -1.51714,-1.45521 -0.0282,0.0435 -0.25249,0.61005 -0.49852,1.25897 -0.36786,0.97025 -0.38426,1.21514 -0.0923,1.37852 0.19525,0.10927 0.64195,0.44963 0.99265,0.75636 0.45916,0.40158 0.34298,0.36767 -0.41507,-0.12115 -1.02681,-0.66212 -1.05753,-0.66582 -1.24825,-0.15026 -0.26493,0.71618 -0.43049,0.6683 -0.28688,-0.083 0.0854,-0.44655 -0.0495,-0.69155 -0.49971,-0.90814 -0.33914,-0.16314 -0.46641,-0.30467 -0.28284,-0.31452 0.18358,-0.01 -0.20156,-0.67516 -0.85587,-1.47847 -1.10776,-1.36003 -2.15208,-3.03735 -1.89109,-3.03735 0.0627,0 0.41091,0.50601 0.77387,1.12448 0.74552,1.27032 2.7603,3.63802 3.09575,3.63802 0.12146,0 0.41051,-0.57106 0.64233,-1.26903 0.40779,-1.22774 0.40066,-1.32031 -0.21921,-2.84583 -0.3524,-0.86725 -0.72724,-2.038 -0.83298,-2.60165 l -0.19226,-1.02483 1.57176,1.06735 c 1.49239,1.01347 3.0646,2.77997 4.29155,4.82191 0.37874,0.63029 0.55676,1.37443 0.55743,2.33006 l 9.9e-4,1.40402 z m -0.77338,14.71432 c -0.8099,-0.38572 -0.96,-0.50793 -0.62383,-0.50793 0.14196,0 0.48922,0.18517 0.7717,0.41147 0.48427,0.38798 0.47582,0.39349 -0.14787,0.0965 z m -0.41595,-2.36001 c -0.47829,0 -2.59556,-1.48446 -3.44161,-2.413 -0.44818,-0.49186 -1.24179,-1.4896 -1.76359,-2.21721 -0.5218,-0.7276 -1.29404,-1.65159 -1.71608,-2.05332 l -0.76736,-0.7304 -0.64406,0.69013 c -0.35423,0.37956 -1.00125,0.92924 -1.43781,1.2215 -0.43656,0.29227 -0.19844,-0.008 0.52917,-0.66799 1.56305,-1.4171 1.4773,-1.62353 -1.05834,-2.54793 -2.41545,-0.88059 -3.96361,-2.00357 -6.00313,-4.35446 -1.02153,-1.17747 -2.16766,-2.40348 -2.54696,-2.72446 -0.37931,-0.32099 -0.62826,-0.64499 -0.55324,-0.72001 0.3002,-0.3002 5.15084,0.45129 6.93616,1.07459 1.18496,0.41369 2.50138,0.66829 3.49009,0.675 1.52579,0.0103 1.5418,0.0173 0.4119,0.17927 l -1.17561,0.1685 1.08701,0.7165 c 0.59786,0.39408 1.5436,1.26328 2.10165,1.93157 l 1.01463,1.21506 0.62759,-0.74094 0.62758,-0.74094 -0.54948,0.93792 -0.54948,0.93792 1.43817,3.56 c 1.89459,4.68982 2.18903,5.22466 3.28715,5.97085 0.51142,0.34752 0.80646,0.63185 0.65565,0.63185 z m -0.84945,-53.57812 -0.44439,1.05833 -0.21353,-1.19062 c -0.11744,-0.65484 -0.3032,-1.80332 -0.41279,-2.55217 -0.10959,-0.74885 -0.37294,-1.57202 -0.58522,-1.82926 -0.35406,-0.42905 -0.34223,-0.44263 0.1432,-0.16427 1.98081,1.13582 2.42425,2.50714 1.51273,4.67799 z m -0.83812,58.73286 c -0.64761,0.11074 -2.10782,0.19729 -3.2449,0.19232 -1.72278,-0.007 -2.34454,-0.13871 -3.72984,-0.78697 -0.91434,-0.42787 -2.10152,-1.16347 -2.63819,-1.63467 l -0.97576,-0.85673 -0.86379,0.53649 c -0.95689,0.59432 -2.30615,1.96602 -3.61849,3.67867 l -0.86164,1.12448 -5.73246,-0.006 -5.73245,-0.006 1.85208,-1.20828 c 2.36245,-1.54125 6.62176,-3.68032 10.22625,-5.13574 l 2.81792,-1.13781 -0.56282,-1.07979 c -0.62721,-1.20334 -0.58688,-1.03389 -0.97999,-4.11736 -0.15702,-1.2316 -0.42687,-2.40963 -0.59968,-2.61785 -0.2637,-0.31775 -0.20823,-0.34565 0.34519,-0.17362 1.6195,0.50343 3.00624,1.34713 3.76396,2.29002 0.45125,0.56151 1.00888,1.02275 1.23918,1.02498 0.36683,0.004 0.36954,0.0355 0.0219,0.25802 -0.33869,0.21674 -0.26111,0.51678 0.52916,2.04647 l 0.92605,1.7925 1.77858,0.26458 c 1.08991,0.16213 1.96072,0.45134 2.24896,0.7469 0.45336,0.46487 0.43687,0.47662 -0.45566,0.32462 -0.50932,-0.0867 -1.27116,-0.0603 -1.69298,0.0587 l -0.76693,0.21641 1.16381,1.01181 c 1.32467,1.15165 4.01609,2.52675 5.00027,2.55473 0.3638,0.0103 0.89958,0.11292 1.19062,0.22794 0.42544,0.16815 0.29835,0.24862 -0.64831,0.41049 z m 0.70465,-3.42635 c -2.47219,-0.68915 -3.38019,-1.01197 -3.5305,-1.25516 -0.25013,-0.40474 0.91613,-0.0806 2.61364,0.72633 0.76433,0.36335 1.17691,0.60132 0.91686,0.52883 z m -0.77031,-25.663 c -0.47359,-0.81655 -2.09707,-2.9003 -2.42693,-3.11498 -0.73304,-0.47708 -1.20763,-0.18726 -1.50983,0.92199 -0.63672,2.3371 -0.76661,2.53292 -0.7019,1.05817 0.0759,-1.72859 -0.30862,-1.80047 -1.14973,-0.21497 l -0.62277,1.17394 0.80622,1.14117 c 1.50528,2.13065 1.49436,2.44381 -0.0135,0.38672 -0.56337,-0.76857 -0.80264,-0.93115 -0.97354,-0.66146 -0.16832,0.26562 -0.22764,0.21721 -0.23065,-0.18824 -0.005,-0.62768 -0.89309,-1.51262 -2.78217,-2.77121 -1.81815,-1.21133 -2.21657,-1.84235 -1.16326,-1.84235 0.33531,0 1.27962,0.72307 2.37552,1.81897 l 1.81897,1.81898 0.67233,-1.14724 c 0.36978,-0.63098 0.83896,-1.24116 1.04262,-1.35596 0.20366,-0.11479 0.73724,-1.44493 1.18572,-2.95587 0.79875,-2.69097 0.81408,-2.84792 0.74906,-7.67292 -0.0553,-4.10294 0.004,-5.05302 0.35586,-5.68765 l 0.42224,-0.7619 0.43123,1.71675 c 0.23718,0.94421 0.79122,2.4777 1.2312,3.40774 0.61436,1.29864 0.79967,2.0593 0.7987,3.27847 -0.002,2.26475 -0.36525,3.30357 -1.9814,5.66341 -0.78473,1.14583 -1.35409,2.15602 -1.26525,2.24486 0.0888,0.0888 0.44717,0.16153 0.79628,0.16153 1.44179,0 2.45848,1.28779 2.44401,3.09571 -0.007,0.88068 -0.0454,0.94098 -0.30905,0.48634 z m -1.84336,-34.5383 c -0.12144,0 -0.22079,-0.33196 -0.22079,-0.73769 0,-1.12618 -1.08253,-3.02282 -2.11667,-3.70851 -0.71555,-0.47445 -0.96964,-0.86038 -1.11786,-1.69783 -0.1055,-0.5961 -0.45368,-1.36255 -0.77373,-1.70323 -0.79545,-0.84671 -0.30687,-0.76678 0.90043,0.14732 1.25698,0.95173 1.93197,1.81075 2.58778,3.29331 0.56915,1.28665 1.09368,4.40663 0.74084,4.40663 z m -0.14334,2.97348 c -0.0633,-0.32912 -0.0609,-0.80537 0.005,-1.05834 0.0662,-0.25296 0.118,0.0163 0.11506,0.5984 -0.003,0.58209 -0.0571,0.78906 -0.1204,0.45994 z m -0.251,2.12478 c -0.0725,-0.17913 -0.0769,-0.53631 -0.01,-0.79375 0.0671,-0.25743 0.12638,-0.11086 0.13177,0.3257 0.005,0.43656 -0.0495,0.64719 -0.12197,0.46805 z m -0.27178,1.03677 c -0.0764,-0.191 -0.067,-0.4192 0.0209,-0.50712 0.0879,-0.0879 0.15045,0.0683 0.13896,0.34726 -0.0127,0.30823 -0.0754,0.37092 -0.15985,0.15986 z m -0.26458,1.32291 c -0.0764,-0.19099 -0.067,-0.4192 0.0209,-0.50712 0.0879,-0.0879 0.15045,0.0684 0.13896,0.34727 -0.0127,0.30823 -0.0754,0.37092 -0.15985,0.15985 z m -0.26458,1.05834 c -0.0764,-0.191 -0.067,-0.4192 0.0209,-0.50712 0.0879,-0.0879 0.15046,0.0683 0.13897,0.34726 -0.0127,0.30823 -0.0754,0.37092 -0.15985,0.15986 z m -0.89978,15.94397 c -0.29344,-0.18136 -1.1139,-1.71653 -0.98583,-1.8446 0.0491,-0.0491 0.34644,0.38002 0.66067,0.9537 0.31423,0.57367 0.46055,0.97457 0.32516,0.8909 z m -0.2424,-23.93108 c -0.29104,0.15576 -0.52917,0.22367 -0.52917,0.15091 0,-0.0728 0.23813,-0.25974 0.52917,-0.4155 0.29104,-0.15576 0.52917,-0.22367 0.52917,-0.15091 0,0.0728 -0.23813,0.25974 -0.52917,0.4155 z m -0.18074,34.9746 c -0.0764,-0.19099 -0.067,-0.4192 0.0209,-0.50712 0.0879,-0.0879 0.15045,0.0683 0.13896,0.34727 -0.0127,0.30822 -0.0754,0.37092 -0.15985,0.15985 z m -0.21614,-20.6871 -0.34492,1.19062 -0.005,-1.45521 c -0.003,-0.80036 0.0595,-1.2929 0.13835,-1.09454 0.12109,0.3045 0.17901,0.3045 0.37193,0 0.30416,-0.48009 0.25722,-0.082 -0.16027,1.35913 z m -0.28663,29.34785 c -0.30822,-0.0127 -0.37092,-0.0754 -0.15985,-0.15985 0.19099,-0.0764 0.4192,-0.067 0.50712,0.0209 0.0879,0.0879 -0.0683,0.15045 -0.34727,0.13897 z M 127.946,156.47949 c -0.0734,-0.1819 -0.0734,-0.47956 0,-0.66146 0.0734,-0.1819 0.13345,-0.0331 0.13345,0.33073 0,0.3638 -0.0601,0.51263 -0.13345,0.33073 z m -0.49459,-15.0665 c -0.85615,0.97316 -0.84875,0.62489 0.008,-0.39373 0.3638,-0.43235 0.6577,-0.68767 0.6531,-0.56736 -0.005,0.1203 -0.30226,0.5528 -0.66146,0.96109 z m 0.23169,19.04028 c -0.0725,-0.17913 -0.0769,-0.53632 -0.01,-0.79375 0.0671,-0.25743 0.12638,-0.11087 0.13177,0.32569 0.005,0.43657 -0.0495,0.64719 -0.12197,0.46806 z m -0.0136,-2.12478 c -0.0633,-0.32912 -0.0609,-0.80537 0.005,-1.05834 0.0662,-0.25296 0.118,0.0163 0.11506,0.5984 -0.003,0.58208 -0.0571,0.78905 -0.1204,0.45994 z m 0.0907,-6.96428 c -0.0531,-0.0606 -0.23821,-0.4079 -0.41147,-0.7717 -0.29704,-0.62369 -0.29153,-0.63214 0.0965,-0.14787 0.33768,0.42148 0.63269,1.28266 0.31502,0.91957 z m -0.96189,27.53871 c -0.14106,-0.21828 -0.25648,-0.51594 -0.25648,-0.66146 0,-0.14552 0.11542,-0.086 0.25648,0.1323 0.14107,0.21828 0.25648,0.51593 0.25648,0.66145 0,0.14552 -0.11541,0.086 -0.25648,-0.13229 z m -0.59285,-29.96406 c -0.51355,-0.5457 -1.08634,-0.99218 -1.27287,-0.99218 -0.18652,0 -0.26348,-0.0757 -0.17101,-0.16814 0.0925,-0.0925 0.49927,0.0531 0.904,0.32343 0.40472,0.27035 0.82515,0.46507 0.9343,0.43271 0.10914,-0.0324 0.19843,0.0505 0.19843,0.18411 0,0.13362 0.0767,0.46104 0.17044,0.7276 0.0937,0.26657 -0.24974,0.0382 -0.76329,-0.50753 z m 0.15304,28.70729 c -0.0734,-0.1819 -0.0734,-0.47956 0,-0.66146 0.0734,-0.1819 0.13345,-0.0331 0.13345,0.33073 0,0.3638 -0.0601,0.51263 -0.13345,0.33073 z m -0.005,-29.64986 c -0.0764,-0.191 -0.067,-0.4192 0.0209,-0.50712 0.0879,-0.0879 0.15046,0.0683 0.13897,0.34726 -0.0127,0.30823 -0.0754,0.37092 -0.15985,0.15986 z m -0.2729,-1.69852 c -0.0604,-0.39758 -0.0616,-1.11195 -0.003,-1.5875 0.0589,-0.47555 0.10828,-0.15026 0.10977,0.72286 0.002,0.87313 -0.0467,1.26222 -0.10707,0.86464 z m -2.98595,21.22807 c -0.14553,0 -0.27646,-0.38695 -0.29096,-0.8599 -0.025,-0.81472 -0.0375,-0.82514 -0.23821,-0.19843 -0.11651,0.3638 -0.22371,0.47585 -0.23821,0.249 -0.0145,-0.22685 -0.2069,-0.64356 -0.42755,-0.92604 -0.37511,-0.48022 -0.38198,-0.46858 -0.10564,0.17929 0.23678,0.55515 0.208,0.8444 -0.14484,1.4552 -0.2422,0.41929 -0.37462,0.54779 -0.29426,0.28557 0.0832,-0.27159 0.0359,-0.40865 -0.10998,-0.31849 -0.14085,0.0871 -0.50281,0.0262 -0.80437,-0.13516 -0.30155,-0.16139 -0.81003,-0.2552 -1.12994,-0.20847 -0.49382,0.0721 -0.42183,0.16454 0.47666,0.61192 1.20278,0.59889 1.44649,1.36429 0.39688,1.24646 -0.65017,-0.073 -0.65242,-0.0668 -0.13229,0.35914 0.51125,0.41872 0.50005,0.42951 -0.33073,0.31852 -0.93132,-0.12442 -1.19606,0.28427 -0.33073,0.51056 0.77597,0.20292 0.64509,0.60518 -0.19844,0.60988 -0.56698,0.003 -0.63999,0.0607 -0.33073,0.26053 0.31367,0.20271 0.2582,0.25537 -0.26458,0.25116 -1.51053,-0.0122 -2.64516,-1.23351 -3.31743,-3.57096 -0.24914,-0.86625 -0.6139,-1.89114 -0.81058,-2.27755 l -0.3576,-0.70256 2.75041,-0.18747 c 2.22307,-0.15153 2.90673,-0.10949 3.56572,0.21926 0.93989,0.46888 1.06615,0.22714 0.26164,-0.50093 -0.30452,-0.27559 -0.65927,-0.69836 -0.78832,-0.93951 -0.30108,-0.56257 2.63772,0.89017 3.12793,1.54624 0.39295,0.5259 0.44632,2.72274 0.0661,2.72274 z m -1.7198,-19.05 c -0.45498,0.3776 -0.53694,1.99887 -0.11425,2.26011 0.15544,0.0961 0.1991,0.37098 0.097,0.61093 -0.10209,0.23994 -0.17754,0.79344 -0.16768,1.23 0.017,0.75379 -0.009,0.73556 -0.51749,-0.36188 -0.64428,-1.39064 -0.49844,-2.60428 0.44126,-3.67197 0.35272,-0.40076 0.64507,-0.65393 0.64967,-0.5626 0.005,0.0913 -0.17023,0.31426 -0.38852,0.49541 z m -1.45838,23.94644 c -1.22777,0.6349 -2.14878,0.48384 -3.63967,-0.59696 -0.75276,-0.5457 -1.37216,-1.08149 -1.37644,-1.19063 -0.0147,-0.37371 0.65389,-0.19558 1.71199,0.45612 1.18801,0.73172 2.65594,0.8568 3.45845,0.2947 0.47839,-0.33508 0.53743,-0.32125 0.57172,0.13393 0.0237,0.31497 -0.25181,0.65759 -0.72605,0.90284 z m -0.41044,-0.55748 c -0.51854,0.16018 -0.7629,0.32854 -0.54304,0.37412 0.35609,0.0738 1.48582,-0.3686 1.48582,-0.58187 0,-0.0459 -0.42425,0.0476 -0.94278,0.20775 z m -1.30779,-8.14256 c -1.01418,0.028 -1.18901,-0.0431 -1.18901,-0.48371 0,-0.43598 0.1548,-0.50302 0.99219,-0.42973 0.87947,0.077 1.37598,0.34553 1.38339,0.74829 0.001,0.0728 -0.53262,0.14708 -1.18657,0.16515 z m 0.13391,32.51089 c -0.45738,0.10046 -0.88675,0.12749 -0.95415,0.0601 -0.0674,-0.0674 0.25778,-0.19863 0.72264,-0.2916 1.10284,-0.22057 1.3166,-0.007 0.23151,0.23151 z m -0.28219,1.59838 c -0.1552,0.0959 -0.33893,0.11765 -0.40829,0.0483 -0.0693,-0.0694 0.0576,-0.1966 0.28219,-0.28278 0.46622,-0.1789 0.54823,-0.0264 0.1261,0.23448 z m -1.70219,-1.25309 c -0.43656,-0.005 -0.58313,-0.0647 -0.32569,-0.13177 0.25743,-0.0671 0.61462,-0.0627 0.79375,0.01 0.17913,0.0725 -0.0315,0.12736 -0.46806,0.12197 z m -0.66146,1.84228 c -0.50932,0 -0.71768,-0.0545 -0.46302,-0.121 0.25466,-0.0666 0.67138,-0.0666 0.92604,0 0.25466,0.0666 0.0463,0.121 -0.46302,0.121 z m -0.42525,-28.51361 c -0.21664,0 -0.67257,-0.32399 -1.01318,-0.71998 -0.56439,-0.65614 -0.58086,-0.74924 -0.18575,-1.04992 0.55849,-0.42501 0.83002,-0.43024 0.83206,-0.016 8e-4,0.1819 0.17243,0.65815 0.38119,1.05833 0.33275,0.63789 0.33098,0.72761 -0.0143,0.72761 z m -1.956,28.51361 c -0.50932,0 -0.71768,-0.0545 -0.46302,-0.121 0.25466,-0.0666 0.67138,-0.0666 0.92604,0 0.25466,0.0666 0.0463,0.121 -0.46302,0.121 z m 0.0617,-13.69695 c -0.1623,0 -0.36868,-0.11906 -0.45861,-0.26458 -0.0899,-0.14552 -0.52467,-0.26458 -0.96607,-0.26458 -0.44141,0 -1.10528,-0.23813 -1.47528,-0.52917 -1.32636,-1.04331 -3.23578,-0.32248 -4.43195,1.67314 -0.36427,0.60774 -0.66345,0.97402 -0.66483,0.81395 -0.005,-0.54405 1.53075,-2.4104 2.45083,-2.97904 1.06554,-0.65854 2.78474,-0.7456 3.84367,-0.19465 0.8526,0.44362 2.12209,1.74493 1.70224,1.74493 z m -1.81953,13.38584 c -0.45746,-0.0727 -1.23137,-0.31675 -1.71979,-0.54233 -0.70607,-0.3261 -0.7525,-0.38724 -0.22659,-0.29837 0.36381,0.0615 1.13771,0.30553 1.7198,0.54233 0.96203,0.39138 0.98265,0.41853 0.22658,0.29837 z m 0.038,-1.53117 c -0.43656,-0.005 -0.58313,-0.0647 -0.32569,-0.13177 0.25743,-0.0671 0.61462,-0.0627 0.79375,0.01 0.17913,0.0725 -0.0315,0.12736 -0.46806,0.12197 z m -1.60955,-0.23389 c -0.30822,-0.0127 -0.37092,-0.0754 -0.15985,-0.15985 0.19099,-0.0764 0.4192,-0.067 0.50712,0.0209 0.0879,0.0879 -0.0683,0.15045 -0.34727,0.13896 z m -1.03628,-0.29062 c -0.29105,0.008 -1.12448,-0.27755 -1.85209,-0.63444 -0.7276,-0.35689 -1.08479,-0.57234 -0.79375,-0.47879 0.29104,0.0936 0.7276,0.19145 0.97012,0.21754 0.24252,0.0261 0.59971,0.17651 0.79375,0.33426 0.19404,0.15776 0.59092,0.34536 0.88197,0.4169 l 0.52916,0.13007 z m -0.26459,1.09716 c -0.14552,0 -0.44317,-0.11542 -0.66146,-0.25648 -0.21828,-0.14107 -0.27781,-0.25648 -0.13229,-0.25648 0.14552,0 0.44318,0.11541 0.66146,0.25648 0.21828,0.14106 0.27781,0.25648 0.13229,0.25648 z m -1.71979,-0.67273 c -0.3638,-0.0973 -0.84005,-0.28727 -1.05833,-0.42214 -0.27583,-0.17042 -0.19513,-0.19125 0.26458,-0.0683 0.3638,0.0973 0.84005,0.28728 1.05833,0.42214 0.27583,0.17042 0.19513,0.19125 -0.26458,0.0683 z m -1.61416,2.51521 c -0.48704,0.0204 -2.16218,-0.52748 -2.02682,-0.66285 0.0496,-0.0496 0.62124,0.0752 1.27028,0.27748 0.64904,0.20222 0.98948,0.37564 0.75654,0.38537 z m -1.62698,-5.1777 c -1.37048,-0.70796 -2.56043,-1.6376 -4.167193,-3.25557 -2.19876,-2.2141 -3.90754,-4.76424 -3.56441,-5.31943 0.27614,-0.44682 0.7943,0.14173 2.0711,2.35246 1.3313,2.30506 3.492443,4.4862 5.925083,5.97988 0.9095,0.55845 1.65364,1.06446 1.65364,1.12447 0,0.06 -0.8632,-0.3368 -1.91822,-0.88181 z m 1.38906,1.98321 c -0.21828,0 -0.635,-0.10232 -0.92604,-0.22739 -0.33355,-0.14333 -0.38245,-0.22739 -0.1323,-0.22739 0.21829,0 0.635,0.10233 0.92605,0.22739 0.33354,0.14333 0.38245,0.22739 0.13229,0.22739 z m -2.00642,-0.51286 c -0.30823,-0.0127 -0.37092,-0.0754 -0.15986,-0.15985 0.191,-0.0764 0.4192,-0.067 0.50712,0.0209 0.0879,0.0879 -0.0684,0.15045 -0.34726,0.13896 z m -0.77171,2.56526 c -0.43656,-0.20546 -1.48906,-0.91368 -2.338903,-1.57382 -0.94363,-0.73301 -1.71613,-1.14584 -1.98437,-1.06045 -0.33755,0.10745 -0.35702,0.081 -0.0841,-0.11427 0.26719,-0.19118 -0.14774,-0.59042 -1.67582,-1.61246 -1.11701,-0.74711 -1.92057,-1.35837 -1.78568,-1.35837 0.1349,0 1.09295,0.59531 2.12902,1.32291 1.81328,1.27342 1.95592,1.32463 3.811813,1.36859 l 1.92804,0.0457 -1.71979,0.15277 -1.719793,0.15277 1.619123,1.19062 c 0.89052,0.65485 1.84302,1.34115 2.11667,1.52512 0.29391,0.19759 0.17268,0.1816 -0.29621,-0.0391 z m -2.341633,-15.90583 c -0.39082,0.85178 -1.49483,1.98068 -1.49483,1.52853 0,-0.15031 0.1786,-0.70072 0.39688,-1.22314 0.45235,-1.08262 0.49805,-1.49601 0.16536,-1.49601 -0.12733,0 -0.29853,0.32742 -0.38044,0.7276 -0.0819,0.40018 -0.34069,0.96573 -0.57505,1.25677 -0.39383,0.48908 -0.39508,0.46502 -0.0164,-0.31759 0.555,-1.1471 0.51514,-2.31009 -0.1463,-4.26871 -0.37257,-1.10326 -0.49096,-1.88388 -0.35888,-2.36647 0.18204,-0.66518 0.20933,-0.67777 0.35754,-0.16495 0.0882,0.30536 0.61622,1.21284 1.17326,2.01662 1.141243,1.64672 1.436253,3.09257 0.87889,4.30735 z m -1.20989,21.84848 c -0.6664,0.6664 -0.97374,0.77339 -2.22155,0.77339 -1.32207,0 -1.51851,-0.0801 -2.25626,-0.92038 -0.76621,-0.87266 -1.35245,-2.61832 -0.99826,-2.97251 0.0902,-0.0902 0.16405,0.13739 0.16405,0.50582 0,0.36843 0.2431,0.97892 0.54022,1.35665 0.50115,0.63711 0.68768,0.68531 2.57968,0.66653 1.12171,-0.0111 2.24784,-0.12971 2.5025,-0.26352 0.68694,-0.36094 0.56268,-0.019 -0.31038,0.85402 z m -0.79053,-22.64223 -0.16592,1.05833 -0.24201,-0.92604 -0.24201,-0.92604 -0.10124,1.01875 c -0.0919,0.92455 -0.13401,0.97395 -0.45556,0.5342 -0.32039,-0.43816 -0.3429,-0.40904 -0.23507,0.30416 0.11868,0.78502 0.11674,0.78421 -0.41178,-0.17144 -0.55954,-1.01174 -2.10299,-2.47106 -2.35111,-2.22295 -0.0803,0.0803 0.16982,0.47548 0.55572,0.87828 1.46385,1.52793 1.56736,3.58063 0.12327,2.44471 -0.92591,-0.72832 -1.14699,-0.67465 -0.60819,0.14766 0.69221,1.05646 0.26347,1.0779 -0.77565,0.0388 -1.04872,-1.04873 -1.21131,-0.83609 -0.38411,0.50235 0.61873,1.00113 0.2804,1.20549 -0.77357,0.46726 -0.86937,-0.60893 -0.99945,-0.27266 -0.1523,0.3937 0.84637,0.66576 0.65,0.7146 -0.56158,0.13966 -1.8377,-0.87204 -2.52401,-3.3166 -1.87211,-6.66825 0.21825,-1.12211 0.47328,-2.54353 0.56673,-3.15871 l 0.16991,-1.11851 1.02385,0.52233 c 0.56312,0.28729 1.67168,0.76472 2.46347,1.06096 1.97166,0.73769 3.49403,1.8989 4.13392,3.15318 0.29499,0.57824 0.51945,1.14538 0.4988,1.26032 -0.0206,0.11494 -0.11221,0.68523 -0.20346,1.26731 z m -1.04213,-5.28369 c -0.16626,0.51902 -0.218,0.50952 -1.53309,-0.28144 -1.34227,-0.80731 -1.44228,-1.07174 -0.73272,-1.93735 0.0424,-0.0518 0.6202,0.29583 1.2839,0.77246 0.66369,0.47663 1.19485,0.87618 1.18034,0.88789 -0.0145,0.0117 -0.1038,0.26301 -0.19843,0.55844 z m -0.53076,19.96806 c -0.17302,0 -0.86742,0.50602 -1.5431,1.12448 -0.94212,0.86234 -1.1194,0.95595 -0.76046,0.40154 0.51182,-0.79056 2.19576,-1.94841 2.45568,-1.68849 0.0894,0.0894 0.0209,0.16247 -0.15212,0.16247 z m -2.17279,-0.12301 c -0.44642,0.23085 -0.91718,0.38274 -1.04611,0.33752 -0.12894,-0.0452 0.23632,-0.28173 0.81168,-0.52559 1.2404,-0.52571 1.38712,-0.40801 0.23443,0.18807 z m -0.9081,-3.74263 c -0.97286,-0.21761 -1.18404,-0.36905 -0.50712,-0.36364 0.27892,0.002 0.68571,0.12491 0.90399,0.27262 0.28984,0.19614 0.18281,0.22069 -0.39687,0.091 z m -0.71038,-5.95706 c -0.53623,0.0182 -1.31014,-0.0934 -1.71979,-0.24811 -0.60087,-0.22687 -0.68068,-0.21641 -0.4129,0.0541 0.18256,0.18444 0.88685,0.40029 1.56509,0.47967 1.22427,0.14328 1.22823,0.14695 0.54908,0.50846 -1.6659,0.88676 -3.64803,-0.40325 -4.6997,-3.05865 -0.3352,-0.84635 -0.78739,-1.74718 -1.00487,-2.00184 -0.35811,-0.41934 -0.34343,-0.46303 0.15555,-0.46303 0.56638,0 1.05403,0.53059 2.13808,2.32635 0.72675,1.20388 1.86117,1.9478 3.34609,2.19426 l 1.05833,0.17566 z m -0.87712,10.30029 c -0.43656,-0.005 -0.58313,-0.0647 -0.3257,-0.13177 0.25744,-0.0671 0.61462,-0.0627 0.79375,0.01 0.17914,0.0725 -0.0315,0.12736 -0.46805,0.12197 z m -1.13502,-0.23389 c -0.38041,0.0233 -2.43686,-0.97293 -2.43686,-1.18049 0,-0.0728 0.44649,0.0917 0.99219,0.36552 0.5457,0.2738 1.17078,0.56448 1.38906,0.64595 0.26194,0.0978 0.28084,0.15523 0.0556,0.16902 z m -1.26828,-4.23333 c -0.30823,-0.0127 -0.37092,-0.0754 -0.15985,-0.15986 0.19099,-0.0764 0.4192,-0.067 0.50712,0.0209 0.0879,0.0879 -0.0684,0.15046 -0.34727,0.13897 z m -1.01364,2.23828 c -0.644,-0.15027 -0.74375,-0.10862 -0.6051,0.25267 0.13966,0.36396 0.088,0.38387 -0.32585,0.12544 -0.3879,-0.24224 -0.75792,-0.20556 -1.75064,0.17357 -1.88709,0.72068 -3.12393,2.0037 -4.36057,4.52338 -0.70005,1.42637 -1.46473,2.54606 -2.12442,3.11074 -0.9869,0.84475 -3.63141,2.2968 -4.18298,2.2968 -0.14484,0 0.13428,-0.59086 0.62026,-1.31302 0.48598,-0.72216 1.08937,-1.94255 1.34087,-2.71198 0.63737,-1.94995 1.06058,-2.71974 2.18648,-3.97704 0.53747,-0.6002 0.77732,-1.01679 0.53299,-0.92575 -0.24433,0.091 -0.89917,0.23299 -1.45521,0.31546 -0.65375,0.097 -0.4303,-0.0236 0.6324,-0.34116 1.68364,-0.50313 5.58445,-2.09485 5.99257,-2.44527 0.12519,-0.10748 -0.11293,-0.37993 -0.52916,-0.60545 -0.97199,-0.52661 -0.58165,-0.55946 0.43022,-0.0362 0.42012,0.21726 0.97975,0.32509 1.24363,0.23963 0.36057,-0.11677 0.39058,-0.0916 0.12081,0.10109 -0.44991,0.32143 -0.18958,0.47923 1.15814,0.70197 0.58506,0.0967 1.2399,0.29263 1.4552,0.43543 0.27753,0.18406 0.16703,0.20725 -0.37964,0.0797 z m -0.0447,-1.9737 c -0.30823,-0.0127 -0.37092,-0.0754 -0.15986,-0.15985 0.191,-0.0764 0.4192,-0.067 0.50712,0.0209 0.0879,0.0879 -0.0683,0.15045 -0.34726,0.13896 z m 0.15241,-12.54682 c -0.11311,0.58208 -0.15193,1.14763 -0.0863,1.25677 0.0657,0.10914 0.0231,0.19662 -0.0946,0.19439 -0.50605,-0.01 -0.77901,-0.47838 -1.03753,-1.78189 l -0.27548,-1.38906 h 0.8802 c 0.94234,0 0.94594,0.0101 0.6137,1.71979 z m -1.19893,12.9319 c -0.66534,0.25531 -0.83702,0.18 -0.30065,-0.13191 0.26557,-0.15443 0.5386,-0.22505 0.60672,-0.15693 0.0681,0.0681 -0.0696,0.1981 -0.30607,0.28884 z m -3.95852,-0.38684 c -0.50118,-0.0276 -1.3451,-0.46851 -0.92604,-0.48387 0.21828,-0.008 0.57547,0.10087 0.79375,0.24193 0.21828,0.14107 0.27781,0.24994 0.13229,0.24194 z m -3.04271,-0.81288 c -0.3638,0 -0.51263,-0.06 -0.33073,-0.13345 0.1819,-0.0734 0.47956,-0.0734 0.66146,0 0.1819,0.0734 0.0331,0.13345 -0.33073,0.13345 z m -2.77812,-0.30963 c -1.01865,0.001 -1.46779,-0.0457 -0.99809,-0.10413 0.4697,-0.0584 1.30313,-0.0594 1.85208,-0.002 0.54895,0.0573 0.16465,0.10509 -0.85399,0.10627 z m -1.05834,5.32691 c -0.43656,-0.005 -0.58312,-0.0647 -0.32569,-0.13177 0.25743,-0.0671 0.61462,-0.0627 0.79375,0.01 0.17913,0.0725 -0.0315,0.12736 -0.46806,0.12197 z m -1.71979,-5.01728 c -0.3638,0 -0.51263,-0.06 -0.33073,-0.13345 0.1819,-0.0734 0.47956,-0.0734 0.66146,0 0.1819,0.0734 0.0331,0.13345 -0.33073,0.13345 z m -1.38412,-8.10069 c -0.76127,0.7415 -2.04119,1.76187 -2.84427,2.26749 -2.51457,1.58317 -3.40637,2.7051 -3.80349,4.785 -0.18712,0.98 0.28579,2.93059 0.75407,3.11029 0.16217,0.0622 0.98785,-0.19334 1.83484,-0.56792 2.02542,-0.89573 2.14203,-0.71088 0.17509,0.27753 -0.85053,0.4274 -1.49456,0.91224 -1.43117,1.07741 0.16139,0.42058 2.45221,1.63109 3.6857,1.94759 l 1.02898,0.26402 -1.05688,-0.12208 c -0.58128,-0.0671 -1.76845,-0.47478 -2.63816,-0.90585 -1.78545,-0.88495 -1.92858,-0.8408 -2.76733,0.85367 -0.30177,0.60964 -0.54877,0.91795 -0.54888,0.68512 -1.2e-4,-0.23283 0.35772,-0.91744 0.7952,-1.52135 0.89002,-1.22864 0.72458,-1.34431 -0.80595,-0.56349 -0.57629,0.294 -1.04779,0.47501 -1.04779,0.40225 0,-0.0728 0.4833,-0.37885 1.074,-0.68021 l 1.074,-0.54791 -0.84423,-0.96152 c -3.02295,-3.44296 -2.15604,-8.11118 1.81532,-9.77529 0.47858,-0.20053 1.88826,-0.54215 3.13263,-0.75915 1.24437,-0.217 2.60898,-0.57373 3.03247,-0.79272 1.19375,-0.61731 0.94021,0.0131 -0.61415,1.52712 z m -1.12777,17.30462 c -0.67939,1.1334 -1.9932,1.95918 -3.08434,1.93865 -0.53397,-0.0101 -0.48177,-0.0855 0.37071,-0.53548 0.5457,-0.28809 0.99219,-0.63158 0.99219,-0.76332 0,-0.13173 0.53578,-0.60111 1.19062,-1.04306 0.65485,-0.44194 1.1895,-0.7778 1.18813,-0.74635 -0.001,0.0315 -0.29717,0.54876 -0.65731,1.14956 z m -0.0206,-8.51959 c -0.38775,0.0973 -0.75603,0.12591 -0.8184,0.0636 -0.0624,-0.0624 0.20386,-0.19302 0.59161,-0.29034 0.38775,-0.0973 0.75603,-0.12592 0.81839,-0.0635 0.0624,0.0624 -0.20385,0.19302 -0.5916,0.29034 z m -4.04712,10.20436 c -0.4704,0.001 -2.41657,-1.94488 -2.41528,-2.41527 5.3e-4,-0.19903 0.23758,0.0262 0.52675,0.50045 0.28917,0.47428 0.9138,1.09891 1.38807,1.38808 0.47427,0.28916 0.69948,0.5262 0.50046,0.52674 z m -2.59866,-3.50474 c -0.0665,-0.25466 -0.0665,-0.67138 0,-0.92604 0.0666,-0.25466 0.12101,-0.0463 0.12101,0.46302 0,0.50933 -0.0545,0.71769 -0.12101,0.46302 z m -2.0768,-2.74466 c -0.66534,0.25532 -0.83702,0.18 -0.30066,-0.1319 0.26558,-0.15444 0.53861,-0.22506 0.60673,-0.15694 0.0681,0.0681 -0.0696,0.1981 -0.30607,0.28884 z m -1.4707,0.51295 c -0.3052,0.0798 -0.81121,0.0494 -1.12448,-0.0676 -0.44278,-0.16533 -0.31923,-0.21653 0.55489,-0.22995 1.23725,-0.019 1.41832,0.0756 0.56959,0.29753 z m -1.58448,-5.50962 c -0.49684,0.11744 -1.42467,0.18375 -2.06184,0.14734 -0.74638,-0.0427 -1.23908,0.061 -1.38501,0.29124 -0.17812,0.28108 -0.22738,0.28421 -0.23056,0.0147 -0.002,-0.18851 0.28819,-0.635 0.64538,-0.99218 0.80684,-0.80685 2.43914,-0.88619 3.33345,-0.16203 l 0.60192,0.48741 -0.90334,0.21354 z m -0.13164,5.93451 c -0.30822,-0.0127 -0.37092,-0.0754 -0.15985,-0.15985 0.19099,-0.0764 0.4192,-0.067 0.50712,0.0209 0.0879,0.0879 -0.0683,0.15045 -0.34727,0.13896 z m -2.43711,0.25192 c -1.64849,0.0395 -4.67186,-0.66353 -5.10666,-1.18743 -0.44309,-0.5339 0.13055,-0.47705 1.8744,0.18574 0.79878,0.3036 2.168,0.64563 3.04271,0.76007 l 1.59038,0.20807 z m 0.49418,-1.60701 c -0.35314,-0.21043 -0.81266,-0.67153 -1.02116,-1.02467 -0.3616,-0.61243 -0.35908,-0.61764 0.0546,-0.11289 0.23854,0.29104 0.69806,0.75214 1.02116,1.02466 l 0.58745,0.49551 z m -1.78764,-3.07233 c -0.0764,-0.191 -0.067,-0.4192 0.0209,-0.50712 0.0879,-0.0879 0.15046,0.0684 0.13897,0.34727 -0.0127,0.30822 -0.0754,0.37092 -0.15985,0.15985 z m -3.78801,1.4056 c -0.14552,-0.0899 -0.26458,0.0367 -0.26458,0.28136 0,0.38449 -0.0606,0.39559 -0.44641,0.0818 -0.38884,-0.31629 -0.42504,-0.30601 -0.28064,0.0797 0.1514,0.40443 0.0876,0.41016 -0.73572,0.0661 -1.35831,-0.56753 -1.71174,-0.4409 -0.58775,0.21059 0.96913,0.56173 1.32194,1.24629 0.66146,1.28343 -0.1819,0.0102 -0.0926,0.12092 0.19844,0.24599 0.42442,0.18238 0.31968,0.23796 -0.52917,0.28081 l -1.05833,0.0534 0.92604,0.19493 0.92604,0.19492 -1.0015,0.0348 c -0.55082,0.0192 -1.29452,-0.15717 -1.65266,-0.39183 -0.63741,-0.41765 -2.24063,-2.40406 -2.24063,-2.77617 0,-0.31377 3.21169,-1.29508 4.23859,-1.29508 0.66225,0 1.13961,0.19029 1.53612,0.61236 0.59346,0.63171 0.77769,1.13145 0.3107,0.84284 z m -2.17514,-1.71979 c -0.35884,0 -1.31378,0.22754 -2.1221,0.50564 l -1.46967,0.50564 -0.69093,-0.72119 -0.69094,-0.72118 1.70392,-0.33868 c 1.82229,-0.36222 3.09706,-0.22442 3.6069,0.3899 0.25946,0.31263 0.19978,0.37987 -0.33718,0.37987 z"
         id="path3693"
         inkscape:connector-curvature="0" />
    </g>
  </g>
</svg>
