<svg width="311.71mm" height="370.35mm" version="1.1" viewBox="0 0 311.70987 370.35056" xmlns="http://www.w3.org/2000/svg">
 <g transform="translate(919.55 51.325)">
  <rect x="-157.96" y="161.09" width="6.6086" height="5.6475" fill="none" stroke-width=".26458"/>
  <path d="m-841.73 318.37c-4.8953-1.282-8.4028-4.0775-10.539-8.3995-1.2776-2.5851-1.3144-2.7685-1.3144-6.5583 0-3.6508 0.0715-4.0498 1.1236-6.2707 2.0193-4.2626 5.7194-7.3004 10.381-8.5232 1.0454-0.27421 1.6625-0.58081 1.3715-0.68132-0.29105-0.10054-1.7198-0.52814-3.175-0.9502-12.5-3.6254-22.81-14.173-26.584-27.196-1.3318-4.5959-1.7608-8.3098-1.5404-13.336 0.38147-8.6978 3.4162-15.672 9.3832-21.563 4.2491-4.1954 9.63-7.1604 15.791-8.7011 3.651-0.91304 11.396-0.81227 15.121 0.19675 9.4554 2.561 17.111 9.3552 21.007 18.642 4.7453 11.313 3.6838 22.726-2.951 31.729-5.366 7.2814-15.155 10.998-24.022 9.1191-6.2415-1.3222-13.213-6.3095-16.948-12.125-4.8669-7.5772-5.3267-15.451-1.38-23.632 2.879-5.9677 8.067-10.241 14.24-11.73 2.6164-0.63096 7.4292-0.53669 10.231 0.20039 6.9122 1.8187 12.312 6.9598 14.254 13.572 0.70099 2.3865 0.73186 7.648 0.0597 10.173-1.3025 4.893-4.319 9.1423-7.7802 10.96-2.4544 1.289-6.8598 1.3327-9.6202 0.0956-2.1058-0.9438-2.19-1.2238-1.2915-4.2951 0.66974-2.2894 2.2858-4.1155 3.9119-4.4206 0.67096-0.12588 2.2219 0.0399 3.6524 0.39051 3.1823 0.77985 6.1616 0.59929 7.6548-0.46392 0.60125-0.42813 1.4462-1.5077 1.8778-2.3991 0.67646-1.3974 0.75448-1.9769 0.56612-4.2051-0.81256-9.6126-8.4128-16.393-18.4-16.416-8.6426-0.0196-14.741 4.3781-17.299 12.475-1.0349 3.276-1.2547 8.3162-0.49536 11.359 1.846 7.398 7.6881 13.062 15.501 15.028 3.147 0.79199 9.1982 0.62546 12.347-0.3398 7.7212-2.3667 13.331-8.1298 15.504-15.929 3.7767-13.551-3.1717-28.408-16.008-34.228-8.9395-4.0534-20.793-3.0617-29.203 2.4432-13.468 8.8149-18.205 24.988-11.781 40.221 4.5388 10.762 14.387 18.056 28.479 21.095 2.3853 0.51432 4.5513 0.63521 11.245 0.62762 7.2942-8e-3 8.7353-0.10617 11.994-0.81491 11.114-2.4169 19.554-6.86 26.217-13.803 9.4521-9.8477 15.669-24.395 17.946-41.994 0.24014-1.8558 0.4335-7.2084 0.43332-11.994-3.6e-4 -9.3889-0.39331-13.044-2.1806-20.285l-0.95786-3.8806-0.226 5.9972c-0.4546 12.063-3.2937 19.489-9.9823 26.109-4.2166 4.1734-8.2024 6.4217-12.978 7.3208-10.502 1.9773-20.516-10.864-15.424-19.78 2.9457-5.1577 9.8735-6.0843 14.474-1.936 1.8718 1.6877 2.7678 3.633 2.7778 6.0305 0.0127 3.0722-1.1851 4.6568-3.52 4.6568-2.6954 0-3.3815-1.8011-2.1148-5.5512 0.98239-2.9084 0.99331-3.841 0.0559-4.7784-1.0345-1.0345-4.3169-1.2418-6.7683-0.42761-4.0249 1.3368-5.8607 4.7847-4.7844 8.9858 1.6414 6.4068 8.0274 10.412 15.113 9.4775 5.7373-0.75625 13.662-6.6682 17.197-12.829 1.4119-2.4608 3.0424-7.5438 3.5484-11.062 0.52903-3.6782 0.24496-13.273-0.50286-16.984-0.29402-1.4592-1.3249-5.7454-2.2908-9.525-2.4398-9.5466-3.2414-14.552-3.4729-21.689-0.31466-9.6967 1.0137-16.556 4.6543-24.034 2.4109-4.9522 5.1719-8.6224 9.8369-13.076 4.0478-3.8646 8.1661-6.8385 13.273-9.5845 5.0713-2.7269 3.4428-2.1665-2.4252 0.8345-12.756 6.5235-20.907 15.321-25.005 26.987-2.3866 6.7938-3.3794 13.27-3.9481 25.753-0.66463 14.588-1.4419 19.489-3.8883 24.518-3.5823 7.3637-9.1162 11.21-16.702 11.608-1.5885 0.0833-4.3169 0.0103-6.0631-0.16227-1.7462-0.17259-4.6434-0.33117-6.4382-0.35241-1.7948-0.0212-3.2632-0.17098-3.2632-0.33275 0-0.16178 0.79875-1.4884 1.775-2.948 1.9528-2.9197 4.8821-5.4012 8.0407-6.8114 1.033-0.46122 4.2874-1.5659 7.2319-2.4548 6.2272-1.8799 8.5154-2.9184 10.734-4.8712 3.9556-3.4818 5.7071-8.4187 6.267-17.664 1.2282-20.281 5.5114-33.184 14.526-43.76l2.3919-2.8063-1.8518 1.5875c-3.6847 3.1587-7.1135 7.7117-9.6971 12.876-2.6702 5.3378-4.1178 9.9632-6.7902 21.696-2.6566 11.663-4.7204 16.567-8.6222 20.489-4.8147 4.8396-11.752 6.763-17.731 4.9161-3.9313-1.2142-8.6858-4.778-10.974-8.2258-4.9574-7.4687-2.957-15.892 4.7499-19.999 3.897-2.0771 7.6049-1.4193 11.28 2.0012 2.428 2.2597 3.4795 4.5355 3.484 7.5404 7e-3 4.6505-2.9213 8.1043-6.8566 8.0872-4.5488-0.0198-8.1128-3.9203-6.9736-7.632 0.35241-1.1482 0.33255-1.1972-0.39415-0.97175-1.0709 0.33223-2.5448 1.4167-3.3958 2.4986-0.92542 1.1765-0.95357 3.9829-0.0596 5.9365 2.283 4.9889 10.454 9.4527 16.243 8.8732 2.7671-0.27701 6.0195-1.9987 7.9606-4.214 3.6524-4.1684 6.0854-10.464 9.3184-24.114 2.7907-11.782 4.6409-16.5 8.9366-22.785 8.3386-12.201 21.304-19.568 41.371-23.508 2.9104-0.57137 6.7998-1.2244 8.6431-1.4512 8.9945-1.1066 11.36-1.4842 14.399-2.2981 5.857-1.5691 11.398-4.307 16.238-8.0236 2.1859-1.6786 9.2277-8.6493 9.2277-9.1346 0-0.17173-0.87452 0.40007-1.9434 1.2707-8.8994 7.2486-19.252 11.707-31.218 13.444-6.0657 0.88034-17.371 0.5557-24.518-0.70409-6.7486-1.1895-15.47-3.446-23.989-6.2068-8.0435-2.6067-11.599-3.4349-16.051-3.7391-10.563-0.72179-17.302 4.0728-18.928 13.469-1.2377 7.1489 1.5486 12.961 7.5626 15.775 3.7659 1.7623 7.971 1.7703 13.028 0.0247 1.516-0.52325-2.1011 1.8491-4.6612 3.057-4.2757 2.0175-7.8518 2.5614-11.425 1.7376-5.3608-1.2359-10.071-5.9322-12.07-12.034-1.1857-3.6196-1.2015-9.2947-0.0354-12.683 1.5154-4.4034 4.161-7.9938 7.9579-10.8 1.7035-1.2589 1.7092-1.2699 0.95699-1.8373-1.2103-0.91291-2.1367-2.5707-2.1392-3.828-3e-3 -1.3597 1.3546-2.8298 2.8977-3.1384 0.53928-0.10785 0.97257-0.29532 0.96286-0.41659-0.01-0.12126-1.7696-1.2471-3.9108-2.5018-7.1419-4.185-14.371-10.691-20.064-18.057-3.1986-4.1387-4.4478-6.4087-7.9488-14.444-1.5802-3.627-3.2988-7.3207-3.8189-8.2083-1.6174-2.7599-4.5984-5.6718-7.1859-7.0194-2.8662-1.4928-4.0364-1.7684-7.3446-1.7298-6.7661 0.07878-11.343 4.3869-11.728 11.039-0.18717 3.2332 0.41827 5.2783 2.1447 7.2446 0.88081 1.0032 3.2785 2.588 3.9155 2.588 0.0887 0 0.33537-0.8121 0.54824-1.8047 0.47285-2.2048 1.4209-3.6021 2.8439-4.1915 1.5745-0.65218 3.7658-0.24535 4.9886 0.92616 3.9106 3.7465 0.29243 9.8094-6.1433 10.294-1.7548 0.13223-2.3542-0.0014-4.2985-0.95864-4.411-2.1715-6.8374-6.0885-7.1599-11.558-0.32768-5.5586 2.1688-10.54 6.8973-13.762 5.0876-3.4668 11.596-3.5791 16.452-0.28402 0.69366 0.47073 1.2609 0.7416 1.2605 0.60192-3.5e-4 -0.13967-0.81209-1.6033-1.8038-3.2526-7.284-12.113-16.772-18.775-27.476-19.293-4.6353-0.22423-7.8926 0.41718-11.914 2.3461-6.7246 3.2253-9.8427 8.4861-8.3902 14.156 1.4472 5.6492 5.5724 9.6081 9.9703 9.5686 1.9179-0.01725 1.9225-0.01464 1.2788 0.70937-1.0092 1.1351-3.2992 2.0222-5.2322 2.0269-6.5237 0.01591-12.593-8.5562-11.162-15.766 1.0504-5.2946 4.8334-9.8819 10.426-12.642 4.3004-2.1228 7.384-2.7411 12.554-2.5172 8.022 0.34733 16.25 3.8594 23.579 10.065 2.6227 2.2205 2.4055 1.6087-0.73297-2.0644-7.5309-8.814-16.483-13.463-26.022-13.514-6.2936-0.03362-9.4328 1.0387-14.734 5.033-5.7169 4.3078-9.6725 9.4341-11.176 14.484-2.4397 8.1931 2.7468 19.631 10.68 23.551 2.5217 1.2463 2.8565 1.3194 6.0394 1.3178 3.0005-0.0014 3.5739-0.10912 5.2338-0.98219 2.6469-1.3922 4.5187-3.3872 5.1395-5.4778 1.3227-4.4541 2.8494-5.3822 5.3057-3.2256 1.5702 1.3786 2.0982 3.5219 1.4619 5.9339-0.60396 2.2895-1.0947 3.1561-2.7768 4.9033-3.5504 3.6878-10.711 4.2024-17.889 1.2856-5.7213-2.3248-10.087-6.832-12.486-12.892-3.8277-9.6667-1.9585-19.738 5.0449-27.182 3.4805-3.6998 1.8983-2.9368-2.7736 1.3375-1.8433 1.6864-4.1451 3.4384-5.1153 3.8933-2.2813 1.0697-4.6553 1.0897-6.6286 0.05582l-1.4852-0.77815 1.4111-0.21358c2.3325-0.35303 3.612-1.2761 8.08-5.8292 3.5521-3.6197 4.6847-4.5476 6.738-5.5198 2.6245-1.2427 2.3752-1.2209 10.67-0.93396 0.7276 0.02515 2.4316-0.1546 3.7866-0.39948 8.1956-1.4811 21.567 3.537 29.844 11.2 1.3427 1.2431 2.4413 2.0999 2.4413 1.904s-0.81-1.5673-1.8-3.0475c-2.0524-3.0686-4.2745-4.9118-7.9065-6.5582-5.373-2.4356-6.1581-2.8766-7.5814-4.2579-1.2774-1.2397-3.1732-4.589-3.1732-5.6061 0-0.18536 0.54984-0.07481 1.2219 0.24566 1.1418 0.5445 1.4655 0.54091 4.9399-0.05462 4.8504-0.83139 7.2133-0.61457 10.545 0.96762 3.4323 1.63 5.9055 4.1321 7.6499 7.7393 1.5976 3.3036 2.4661 6.8257 3.6789 14.919 1.7058 11.383 2.8014 15.657 5.3344 20.814 2.4481 4.9835 3.1398 5.5797 1.709 1.4729-4.0911-11.742-3.507-22.371 1.4904-27.119l1.0016-0.95164v2.0284c0 2.6066 1.2218 5.067 5.3687 10.811 3.56 4.9311 5.5993 8.6596 5.9157 10.816 0.16209 1.1045-0.0271 2.4656-0.67886 4.8828-2.8213 10.464-1.512 19.861 3.9207 28.139 3.8622 5.8853 16.104 15.248 19.946 15.254 1.8251 3e-3 3.6 0.61045 9.2721 3.1728 5.1982 2.3482 8.5206 3.5393 11.26 4.0368 1.2527 0.22749 1.0257 9e-3 -2.4212-2.3338-4.7151-3.2042-3.8542-2.7118-8.7823-5.0237-10.337-4.8494-18.574-12.252-23.222-20.869-2.9696-5.5055-5.0173-12.009-6.1565-19.555-0.90072-5.9658-0.86972-24.567 0.0547-32.808 1.9099-17.027 3.0348-32.772 3.0562-42.774l0.0194-9.084h4.7578l0.20105 2.9104c0.61378 8.8853-0.36111 21.692-3.2963 43.303-3.8875 28.623-2.6138 44.161 4.7211 57.597 4.4169 8.0908 12.683 16.302 21.924 21.78 1.3482 0.79909 1.3263 0.75868-0.48995-0.906-1.0456-0.95831-2.116-1.8687-2.3786-2.023-0.79-0.46424-7.0869-7.5688-9.3906-10.595-6.6482-8.7334-11.29-18.83-13.336-29.007-1.0909-5.4272-1.3406-15.045-0.53527-20.618 2.8278-19.567 13.741-36.879 30.367-48.169 9.3976-6.3817 19.81-9.8487 30.865-10.277 10.898-0.42245 19.733 1.6366 28.722 6.6933 15.55 8.7479 24.915 23.287 24.896 38.651-0.0156 12.639-6.4269 23.696-16.752 28.89-6.7303 3.3855-14.502 4.0018-21.301 1.6892-3.9168-1.3322-6.2905-2.8582-9.5846-6.1618-6.1378-6.1555-8.5691-14.29-6.306-21.099 1.7275-5.197 7.7167-8.9551 11.195-7.0248 3.108 1.7247 2.7289 5.9638-0.62308 6.9681-1.1571 0.34669-1.5576 0.30885-2.7104-0.25609-0.74399-0.36458-1.6969-1.1799-2.1176-1.8119l-0.76494-1.149-0.97121 1.149c-4.298 5.0849-3.0298 14.144 2.8969 20.693 2.2608 2.4983 6.7433 5.5645 10.002 6.8418 10.508 4.1188 22.238-0.75835 29.258-12.165 3.5843-5.8243 5.0749-11.015 5.0966-17.749 0.0219-6.7726-1.2362-10.888-5.0901-16.65-8.2052-12.269-20.094-20.071-34.38-22.562-2.4297-0.42366-4.707-0.51224-9.7014-0.37736-5.758 0.1555-7.004 0.30026-10.583 1.2296-4.8911 1.2699-8.7159 2.7501-12.815 4.9594-2.9619 1.5964-9.5504 6.0375-9.3114 6.2765 0.0646 0.0646 0.74272-0.05518 1.5069-0.26619 2.7856-0.76914 6.6742 0.24653 8.52 2.2253 1.1532 1.2363 1.8689 3.2249 1.8689 5.1928 0 2.8166-0.13432 2.943-2.0854 1.963-5.0669-2.545-10.073-2.4911-15.73 0.16935-12.265 5.7683-23.101 24.626-23.106 40.212-1e-3 3.9467 0.60441 7.8806 1.1845 7.6923 0.90788-0.29476 2.0711-3.3058 3.2114-8.3132 0.66482-2.9192 1.4405-5.7532 1.7237-6.2977 0.83435-1.604 2.1706-2.6211 3.7157-2.8284 2.068-0.27737 3.5296 0.43842 4.2694 2.0907l0.6109 1.3645 3.1368 0.07352c2.635 0.06176 3.4606 0.23256 5.1615 1.0678 3.6735 1.8039 6.6067 5.6122 7.1818 9.3245 0.30086 1.9421-0.17262 1.9058-1.2338-0.09441-1.0337-1.9486-2.928-3.7048-5.4025-5.0085-1.6968-0.89404-2.1983-0.9825-5.5689-0.9825-3.5096 0-3.8299 0.06308-6.0976 1.2009-6.8837 3.454-9.0778 8.6554-7.4905 17.757 1.771 10.156 8.1202 20.942 18.335 31.148 7.8376 7.8309 15.795 13.023 24.345 15.884 4.6491 1.5557 4.9985 1.5477 3.5075-0.08-1.5167-1.6559-2.414-4.2947-2.3988-7.0548 9e-3 -1.7166 0.249-2.6569 1.1356-4.4579 1.5712-3.1916 3.831-4.8031 7.4688-5.3261l1.5875-0.22821 4e-3 3.9771c3e-3 3.2356 0.15627 4.4212 0.82267 6.3589 2.0152 5.8594 6.8811 9.8181 14.696 11.956 2.4284 0.66437 3.7576 0.7744 9.525 0.78844 6.0051 0.0146 7.1801-0.0847 11.289-0.95462 20.792-4.4019 38.638-16.942 48.659-34.192 1.2093-2.0816 0.98986-2.1949-0.34136-0.17639-5.0808 7.7042-13.947 12.965-21.852 12.965-7.4785 0-12.249-4.4181-12.249-11.344 0-1.106 0.1092-2.6573 0.24267-3.4473 0.21062-1.2466 0.15702-1.4366-0.40569-1.4383-1.4923-0.0045-3.4338-0.83158-4.7558-2.0259-3.7646-3.4011-4.176-9.3029-0.90803-13.025 0.8261-0.94088 3.9281-2.9389 4.5628-2.9389 0.0549 0 0.0999 2.1034 0.0999 4.6743 0 4.5931 0.0204 4.715 1.175 7.015 2.2163 4.4152 6.8174 7.9122 12.054 9.162 3.0353 0.72437 8.5091 0.56904 11.741-0.33318 5.0689-1.4152 11.746-5.4111 15.043-9.0028 0.85134-0.92732 0.84325-0.9261-1.9845 0.29934-6.9072 2.9933-14.566 3.682-20.037 1.802-3.2581-1.1195-4.6937-1.9373-6.8072-3.8782-5.86-5.3811-6.6353-16.471-1.657-23.7 3.116-4.5243 7.6996-6.0751 12.832-4.3418 4.5069 1.522 6.8171 4.2951 6.8541 8.2273 0.0655 6.9638-6.0516 10.562-11.314 6.6551-2.2378-1.6614-3.1926-5.049-2.044-7.251 0.67385-1.2918 0.20593-1.2718-2.5578 0.10925-4.4769 2.2372-6.5142 6.8914-5.2229 11.932 1.0998 4.2927 4.0995 7.7946 7.9047 9.2278 2.9003 1.0924 7.7172 0.86679 11.184-0.52383 7.072-2.837 14.496-10.103 17.409-17.039 2.0341-4.8431 2.4922-16.893 1.1636-30.605-0.97149-10.023-1.4554-17.13-1.4597-21.435l-4e-3 -3.4436-1.8677 1.5213c-6.4935 5.289-14.369 8.3646-21.419 8.3646-11.054 0-21.54-7.7362-25.103-18.521-0.65414-1.9797-0.81574-3.2391-0.81478-6.35 7e-4 -2.2982 0.19038-4.42 0.46517-5.2035l0.46399-1.3229h5.6078l-0.58138 1.1243c-0.33277 0.64351-0.65828 2.3568-0.76121 4.0067-0.57115 9.1548 5.0534 17.74 13.293 20.292 7.6567 2.3707 16.482-0.16047 24.259-6.9574 3.5934-3.1406 4.3058-4.2669 5.3862-8.5153 0.5282-2.077 1.415-5.1654 1.9707-6.8632l1.0103-3.0868h2.7733c2.4795 0 2.7529 0.0654 2.5804 0.61736-0.46602 1.4915-1.58 7.6299-2.0006 11.024-0.53432 4.3115-0.62466 16.761-0.20715 28.548 0.61203 17.281 0.18979 25.997-1.6564 34.192-0.60851 2.7009-0.74846 4.0307-0.53838 5.1153 0.15614 0.80608 0.2908 3.2358 0.29923 5.3993 0.0364 9.3288-3.1314 19.973-8.139 27.347-2.8057 4.1316-3.9725 7.8444-3.9725 12.64 0 7.0988 2.9713 12.852 7.9376 15.368 6.0814 3.0817 12.351-0.0834 14.993-7.5694 0.80755-2.2876 0.82279-2.3046 0.82497-0.91954 4e-3 1.9924-0.88981 5.5367-1.8944 7.5192-3.9449 7.785-14.289 10.699-19.497 5.4915-1.5071-1.5071-2.5852-4.0886-2.5852-6.1904v-0.98912l-1.1465 0.69905c-3.2668 1.9918-6.2641-0.72377-6.2598-5.6715 2e-3 -2.9764 0.38225-4.2882 2.6515-9.1611 1.8874-4.053 2.7984-6.9028 2.3043-7.2082-0.50391-0.31143-4.3274 4.2514-6.8898 8.2221-2.1616 3.3497-3.8525 7.0344-4.7809 10.419-0.85738 3.1252-1.0314 8.6344-0.3524 11.157 1.1585 4.3049 4.4461 8.2443 7.8136 9.3628 1.7736 0.5891 5.2207 0.59454 6.8365 0.0108 0.38805-0.1402-9e-3 0.39376-0.88195 1.1866-3.3075 3.0033-8.6567 3.7945-10.93 1.6166-1.3712-1.3137-1.3504-0.6411 0.0622 2.0093 3.9985 7.502 14.211 7.3264 22.594-0.3883l2.5343-2.3324-1.2212 1.7158c-2.0306 2.853-5.6859 6.036-8.5667 7.4597-5.0005 2.4714-10.716 2.0272-15.409-1.1974-3.6927-2.5377-6.7491-7.2173-7.9988-12.247-0.86978-3.5005-0.79779-10.39 0.14507-13.883 0.60296-2.2339 0.62353-2.5203 0.13663-1.9027-0.31525 0.3999-1.5805 2.0149-2.8117 3.589-2.9508 3.7725-8.3681 8.9373-12.398 11.82-6.6063 4.7259-13.52 7.5724-22.405 9.2252-11.881 2.2098-14.756 3.3422-18.677 7.3546-2.5279 2.587-4.8716 6.2682-6.4001 10.052-4.9607 12.281 3.93 24.285 17.492 23.618 3.4725-0.1709 5.7992-1.1509 7.9631-3.3541 3.3006-3.3605 3.5297-8.0631 0.42431-8.7092-0.4415-0.0918-1.7221-0.22856-2.8458-0.30379-2.483-0.16624-3.7657-1.0134-4.4371-2.9305-0.66865-1.9092-0.0579-4.0144 1.7167-5.9168 1.3184-1.4135 1.432-1.4596 3.5917-1.4596 2.844 0 4.6007 0.88205 6.3828 3.2048 3.7295 4.8611 2.9562 12.136-1.8102 17.029-3.5202 3.614-7.5527 5.3232-12.587 5.3349-9.7772 0.0228-17.055-5.5242-19.417-14.8-0.86043-3.3782-0.54801-9.4854 0.67722-13.238 1.8096-5.5428 6.0346-11.28 10.581-14.367 3.5883-2.4367 7.1193-3.7975 16.816-6.4803 2.6194-0.72468 5.2388-1.5376 5.8208-1.8065 0.969-0.44764 0.80176-0.47265-1.9812-0.29624-21.609 1.3698-39.771 17.204-45.588 39.745-1.8958 7.3475-2.1536 16.804-0.61928 22.716 1.0303 3.9699 3.4951 8.8011 5.6217 11.019 3.8433 4.0085 7.8101 5.5594 13.567 5.3043 4.047-0.17932 5.9538-0.82941 8.189-2.7919 3.4875-3.0621 3.5328-8.8056 0.0894-11.359-1.1301-0.83797-5.0169-1.2704-5.6578-0.62948-0.29425 0.29425-0.20842 0.39707 0.33146 0.39707 0.96307 0 2.4665 1.212 3.155 2.5434 1.1836 2.2888-0.64317 5.2177-3.2544 5.2177-3.084 0-5.5986-2.6347-5.5526-5.8178 0.0395-2.7302 1.2894-4.6397 3.9005-5.959 3.3438-1.6894 8.1375 0.75195 10.363 5.2776 1.2466 2.5354 1.2104 6.0722-0.0848 8.2752-1.3618 2.3163-4.1947 4.808-6.9122 6.0797-1.9384 0.90708-2.9237 1.1337-5.4544 1.2547-5.1277 0.24516-8.7224-1.0939-12.551-4.6751-6.288-5.8822-9.9474-15.587-9.9487-26.383-1e-3 -9.3092 3.4147-19.661 9.4792-28.728 1.1762-1.7584 2.8886-4.0536 3.8053-5.1004 3.051-3.4839 3.1344-3.6516 0.85086-1.7126-4.2885 3.6415-8.9496 9.7215-11.774 15.358-6.5397 13.052-6.9131 29.814-0.94279 42.323 3.1964 6.6972 9.2878 13.973 14.653 17.501 5.7208 3.7624 7.7332 3.7349 16.912-0.23112 7.7675-3.356 8.2977-3.4032 14.229-1.2655 6.0325 2.1744 8.5485 1.9324 11.133-1.0707l1.3298-1.5452-0.25003 1.4111c-1.2819 7.2349-6.5607 12.368-14.546 14.145-3.8336 0.8529-10.109 0.53659-14.365-0.72408-9.1625-2.714-17.979-9.1491-24.671-18.007-1.3193-1.7462-2.2841-2.7781-2.1441-2.2931 2.6288 9.106 10.694 17.604 22.405 23.606 7.8066 4.0012 18.972 8.0257 27.096 9.7666 15.569 3.3362 30.474-0.7858 34.958-9.6674 1.5788-3.1276 1.9945-5.8146 1.3119-8.4791-0.81128-3.1668-1.8119-4.8918-4.236-7.303-2.6503-2.6361-4.9398-3.7936-7.8772-3.9824-1.884-0.12109-2.4174-0.01-3.7837 0.79112-1.8894 1.1072-3.9734 3.7038-4.2786 5.3311-0.59393 3.1659 1.4313 4.1312 7.7343 3.6865 1.7291-0.122 2.145-0.0361 2.5576 0.52818 1.0601 1.4498 0.2012 4.561-1.6289 5.9006-1.1725 0.85823-4.1338 1.1908-5.7762 0.64874-5.7565-1.8998-6.5606-10.295-1.4734-15.382 6.484-6.484 17.865-1.6634 20.518 8.6907 0.69716 2.7213 0.49034 5.0326-0.74369 8.3111-2.4994 6.6402-8.1014 11.128-16.753 13.419-2.4538 0.64999-11.864 0.89213-15.346 0.39486-1.7024-0.24317-1.6594-0.2091 1.2347 0.97748 4.4393 1.8201 8.6764 3.9832 11.503 5.8724 2.9933 2.0007 6.6684 5.7963 8.1627 8.4303 3.2708 5.7655 3.7052 13.356 1.1832 20.673-1.4564 4.2253-2.9616 6.5574-6.5909 10.212-2.7485 2.7674-3.6777 3.4538-6.5265 4.8209-3.9268 1.8845-7.3495 2.7119-11.218 2.7119-7.341 0-14.119-2.944-18.967-8.2378-7.653-8.3573-7.5954-20.428 0.13737-28.81 3.7435-4.0574 7.7344-5.9916 12.363-5.9916 6.0124 0 12.246 3.6942 14.704 8.714 2.5679 5.2443 0.80649 11.794-3.8107 14.17-4.713 2.4254-10.202 0.34017-11.487-4.3636-1.0276-3.7619-0.17309-5.488 3.6676-7.4083l2.8222-1.4111-0.0317-1.5158c-0.11096-5.3112-7.7336-6.2701-14.507-1.8248-5.4288 3.5628-8.4292 9.6867-7.5107 15.33 0.71963 4.4216 4.3792 10.955 8.0283 14.332 4.1849 3.8733 8.7069 5.454 14.727 5.1479 10.521-0.53496 20.525-8.6746 23.117-18.808 1.207-4.7195 0.7881-8.4219-1.4926-13.191-1.1897-2.4875-1.9823-3.5431-4.65-6.193-6.2635-6.2217-14.278-10.462-32.273-17.075-13.624-5.0068-18.744-7.4404-24.348-11.574-2.9361-2.1659-6.7143-5.8703-8.0578-7.9004-0.49303-0.74503-0.928-1.3546-0.96658-1.3546-0.0386 0 0.5266 1.7304 1.256 3.8452 4.8439 14.045 5.489 30.572 1.7601 45.091-2.2156 8.6266-6.6129 17.081-12.09 23.244-9.266 10.427-20.728 17.374-33.534 20.325-2.656 0.61192-4.516 0.762-9.9681 0.80433-7.3254 0.0568-8.7138 0.28882-12.77 2.1338-3.0334 1.3799-5.8232 3.8714-7.0837 6.3264-1.3882 2.7038-1.5181 6.9187-0.31945 10.366 1.0702 3.0774 2.5811 5.6621 5.0992 8.7234 2.1075 2.5621 2.0567 2.6012-2.001 1.5386zm231.55-64.269c-3.6223-2.671-6.1596-6.2031-7.8398-10.914-0.77442-2.1711-0.92657-3.2134-0.94523-6.4756-0.0212-3.6977 0.0339-4.0023 1.1276-6.2238 1.7229-3.4996 4.9934-6.0287 8.816-6.8174l1.1465-0.23655v6.6182l-1.5936 0.77425c-2.1512 1.0452-4.721 3.4655-5.5074 5.1872-1.3493 2.9541-0.55683 6.7572 2.3051 11.062 0.88364 1.3292 2.3325 3.0857 3.2196 3.9035 1.5151 1.3966 1.6066 1.5841 1.5065 3.0891l-0.10654 1.6023zm-20.3-44.877c-1.4702-1.043-3.6548-2.8781-4.8547-4.078-4.0163-4.0163-5.0945-6.6408-6.0567-14.743-0.89708-7.5537-1.3467-9.2168-3.8821-14.361-2.241-4.5467-3.3048-6.1572-3.764-5.698-0.15879 0.15875-0.30632 2.8551-0.32784 5.992-0.0449 6.5497-0.32378 7.5849-2.7116 10.066-3.1193 3.2415-7.4377 4.1406-11.106 2.3124-2.0595-1.0263-3.217-2.2557-4.5882-4.8736-0.79633-1.5203-0.94484-2.2517-0.9506-4.6818-6e-3 -2.6365 0.0827-3.0071 1.0515-4.3826 2.082-2.956 5.9264-3.9823 8.7827-2.3447 4.6819 2.6842 2.4754 9.2065-2.781 8.2204-1.2228-0.22939-3.3559-2.0945-3.3559-2.9341 0-0.26566-0.15875-0.38491-0.35278-0.26499-0.54545 0.33711-0.41668 3.9266 0.19323 5.3864 2.797 6.6942 12.23 4.9763 14.078-2.5642 0.14274-0.58208 0.22751-3.1221 0.18839-5.6444-0.12767-8.235 0-7.5375-1.7997-9.8778-3.4043-4.4284-6.3119-9.2978-8.3203-13.935l-0.84043-1.9403 0.2068 2.5063c0.43339 5.253-1.1576 12.037-3.7859 16.143-4.7963 7.4926-12.345 12.469-22.851 15.064-2.8991 0.71619-4.2322 0.82886-9.8778 0.83486-6.896 7e-3 -9.2195-0.33702-13.406-1.9867-9.6054-3.7854-15.875-13.734-15.875-25.191 0-11.854 6.2482-20.954 15.96-23.243 9.5868-2.2603 17.895 2.8088 19.343 11.802 0.63952 3.9711-0.97719 8.0788-4.0595 10.314-3.6844 2.6722-8.4872 2.4682-11.704-0.49699-2.7233-2.5102-3.3331-6.0803-1.3105-7.6713 1.9959-1.57 4.6349-0.36648 6.1623 2.8102 1.1847 2.4639 2.3495 3.5391 4.0611 3.7484 3.1937 0.3905 5.5493-3.0573 5.5761-8.1613 0.0128-2.4449-0.11226-3.0384-0.9358-4.4392-2.4275-4.1292-7.3102-6.6733-12.808-6.6733-7.3552 0-13.787 4.9878-16.149 12.524-1.1108 3.5434-1.0907 10.12 0.043 14.111 1.559 5.4878 4.7323 10.729 8.408 13.887 2.3271 1.9992 6.491 4.0912 9.4622 4.7537 15.757 3.5138 34.058-4.147 38.629-16.17 0.30625-0.80548 0.22997-0.784-1.2629 0.35556-1.7399 1.3281-4.48 2.2896-6.5248 2.2896-0.72046 0-2.389-0.3333-3.7079-0.74066-2.0252-0.62552-2.735-1.078-4.566-2.9104-2.8089-2.8112-3.8062-5.2122-3.8321-9.2253-0.0303-4.7012 1.9875-8.1367 5.8928-10.033 2.1556-1.0468 6.9456-1.8673 6.9456-1.1898 0 0.16655-0.57237 0.61106-1.2719 0.9878-2.3588 1.2703-4.3775 4.3873-4.3705 6.7483 4e-3 1.3901 0.75847 3.2946 1.7073 4.3103 2.8161 3.0146 7.54 1.6265 9.7299-2.8592 1.5179-3.109 3.4446-12.15 3.5505-16.662 0.2545-10.835 3.451-17.897 14.292-31.574 6.1077-7.7052 7.522-9.8018 10.039-14.882 3.5633-7.1922 4.7899-12.782 4.796-21.856 9e-3 -13.399-1.2018-17.793-9.8072-35.581-7.5107-15.526-10.501-23.876-12.318-34.396-0.67571-3.9134-0.82688-17.213-0.23255-20.461 0.26892-1.4698 0.36403-0.6363 0.57033 4.999 0.59475 16.247 3.8822 27.749 13.746 48.094 5.1637 10.651 7.156 15.122 8.5329 19.152 2.2725 6.6507 3.4438 14.189 3.4376 22.123-6e-3 7.8526-1.2291 14.238-3.9244 20.49-1.9881 4.6115-4.2001 8.1077-8.711 13.768-5.9 7.4038-7.6568 10.908-7.6744 15.307-0.01 2.3672 0.14418 3.1442 0.95327 4.8192 2.0134 4.1684 5.318 6.4361 9.4098 6.4576 1.878 0.01 2.5908-0.16301 3.9381-0.95496 0.90474-0.53187 1.9972-1.537 2.4278-2.2337 0.83753-1.3552 1.2663-3.7968 0.91359-5.2022l-0.2159-0.86019-1.2181 1.1488c-1.8954 1.7876-4.4593 1.977-6.5926 0.48725-1.2477-0.87131-1.8494-2.466-1.6381-4.3411 0.47614-4.2244 4.7758-6.0309 9.0892-3.8187 1.5232 0.78118 2.1005 1.3462 2.9639 2.9007 0.91221 1.6424 1.0714 2.3006 1.0667 4.4097-9e-3 4.1592-1.9967 7.6093-5.502 9.551-1.6928 0.93772-2.1992 1.0421-5.0563 1.0421-2.6715 0-3.4425-0.13668-4.862-0.86195-3.4611-1.7684-7.1678-6.8168-7.8773-10.729l-0.26518-1.4621-0.25718 1.4111c-2.4773 13.592 2.9878 27.642 13.873 35.665 10.236 7.5444 23.527 7.9443 31.022 0.93331l1.7345-1.6225-0.10347 2.973-0.10347 2.973-2.6458 1.3232c-11.369 5.6856-27.076 3.1097-36.764-6.029-6.3266-5.9682-9.589-13.956-10.037-24.575-0.39159-9.2896 1.7982-18.54 5.8697-24.796l1.0822-1.6627-1.2794 1.4111c-4.3778 4.8286-7.8945 12.305-9.1375 19.426-0.70661 4.0481-0.71039 11.09-8e-3 15.147 1.6366 9.4526 5.9513 18.07 12.497 24.96 5.3671 5.6492 12.356 10.007 18.55 11.567 4.0116 1.0102 10.371 1.4322 16.404 1.0885 2.8134-0.16028 5.2343-0.22651 5.3799-0.14718 0.14552 0.0793 0.26458 2.7758 0.26458 5.9922v5.848l-1.6757-0.19557-1.6757-0.19558 1.6686 0.76499c1.4799 0.67846 1.6694 0.89288 1.6757 1.8958l7e-3 1.1308-2.5576-1.0764c-11.593-4.8791-14.643-6.2307-17.727-7.8569-6.5537-3.4554-11.285-6.8229-14.365-10.224-1.515-1.6728-1.6089-1.4204-0.6066 1.6303 1.2453 3.7903 2.8854 5.7522 7.3281 8.7658 2.1672 1.4701 4.3522 3.0576 4.8555 3.5278 2.2881 2.1375 3.8628 6.302 4.232 11.192 0.29686 3.9323-0.11691 9.952-0.68295 9.9364-0.22443-6e-3 -1.611-0.86461-3.0812-1.9076zm8.5227-57.186c-2.4434-0.67874-3.8111-1.5344-5.6618-3.5422-4.7988-5.2061-4.55-14.449 0.53541-19.886 4.0132-4.2904 11.225-5.7858 16.916-3.5075l2.1167 0.84737 0.0951 7.9085c0.0906 7.5369 0.0658 7.8833-0.52916 7.3721-1.3561-1.1653-1.4648-1.0897-1.2619 0.87659 0.25992 2.5184-0.58809 5.3383-2.1562 7.1703-2.2285 2.6035-6.4481 3.762-10.054 2.7604zm-6.0301-27.944c-5e-3 -2.2492-0.61838-4.9093-1.5667-6.7904-0.85224-1.6905-3.2515-4.1346-4.9555-5.048-1.9982-1.0712-6.1163-1.067-8.1473 8e-3 -3.1183 1.651-4.7056 4.739-4.754 9.2489l-0.0247 2.3172-0.53149-1.4111c-0.35945-0.9543-0.48384-2.2222-0.38425-3.9166 0.19156-3.2595 1.6339-6.203 5.9461-12.135 8.8406-12.161 12.049-18.432 13.941-27.246 0.88198-4.11 0.88308-12.641 4e-3 -17.381-1.3986-7.5247-5.0925-16.984-12.086-30.95-7.1381-14.254-11.461-25.602-12.29-32.259l-0.21177-1.7015 0.57969 1.4111c0.31884 0.77611 1.4584 3.6336 2.5323 6.35 8.0916 20.467 21.194 38.711 37.565 52.306 4.2306 3.5133 4.4979 3.8104 4.4979 4.9996 0 0.96759-0.18429 1.3461-0.7851 1.6126-0.4318 0.19153-1.0219 0.7741-1.3114 1.2946-0.47248 0.84958-0.46493 1.0751 0.0738 2.2049 0.39493 0.82824 0.84328 1.2585 1.3114 1.2585 0.57301 0 0.71127 0.23199 0.71127 1.1936 0 0.93957-0.16891 1.2388-0.79375 1.4063-3.341 0.89536-6.7627-0.98428-9.6225-5.2859-0.6597-0.99227-2.4803-4.8018-4.0457-8.4657-2.9082-6.8065-5.6878-12.206-7.2487-14.08-0.63991-0.76842-0.49107-0.32483 0.55481 1.654 2.0646 3.9061 2.8844 6.1474 5.8135 15.894 1.4413 4.7959 3.097 9.6634 3.6792 10.817 2.169 4.2966 6.7174 8.5502 10.286 9.6196l1.3766 0.41246v20.796c0 19.669-0.0335 20.782-0.61736 20.538-6.265-2.6203-12.082-1.9135-17.815 2.1646l-1.6757 1.1919-4e-3 -2.0279zm9.9285-10.13c1.6466-0.2633 3.9175-1.9134 5.107-3.7108 2.4991-3.7764 1.34-9.4215-2.3176-11.287-2.4527-1.2513-4.5166-0.75621-5.5017 1.3197-0.69395 1.4624-0.35511 2.529 1.1078 3.4876 0.92255 0.60447 0.95843 0.59899 1.6108-0.24593 1.5766-2.0421 2.059-2.4517 2.8878-2.4517 1.0932 0 2.6864 1.8048 2.7489 3.1139 0.0247 0.51869 0.0838 1.3277 0.13116 1.7977 0.21897 2.173-2.0128 5.6756-4.3912 6.8918-3.9805 2.0355-9.0148-0.16504-11.14-4.8694-1.8426-4.0786-1.4906-7.5821 1.7558-17.48 3.137-9.564 3.374-10.576 3.6006-15.383 0.18051-3.8282 0.0937-4.7467-0.90777-9.5978-1.2498-6.0544-2.3326-9.6092-4.0773-13.385-1.2722-2.7537-2.0138-3.626-0.92999-1.094 1.2451 2.9089 3.7539 12.549 4.6592 17.903 0.18041 1.0672 0.3314 3.6865 0.33549 5.8208 9e-3 4.8698-0.91736 8.7284-3.6583 15.232-2.5073 5.9495-3.3837 8.8167-3.647 11.932-0.49386 5.8424 2.7728 10.566 8.3216 12.033 0.88685 0.23447 1.9299 0.37059 2.318 0.30251 0.38805-0.0681 1.2821-0.21599 1.9868-0.32868zm0.94124-27.776c0.81975-0.81977 0.44062-2.0579-1.1514-3.7598-0.86611-0.92593-1.7291-2.0701-1.9179-2.5425-0.29207-0.73101-0.34654-0.59086-0.36555 0.94042-0.0265 2.1246 0.50447 3.8922 1.4991 4.9915 0.80769 0.89266 1.3162 0.98997 1.9358 0.37042zm-39.975 19.552c2.905-5.9549 5.2607-12.916 6.354-18.776 0.57259-3.0691 0.78482-11.386 0.33616-13.173-0.22377-0.89154-0.32847-0.76753-1.3646 1.6158-1.4502 3.336-2.8758 5.381-5.2882 7.5858-1.9633 1.7943-4.3696 2.9133-6.2652 2.9133-1.3647 0-4.3184-1.1682-5.7882-2.2892-2.652-2.0228-4.3695-6.9321-3.8588-11.03 0.33446-2.6841 1.0172-4.3988 3.9126-9.8271 6.2504-11.718 7.577-15.77 7.6678-23.42 0.0311-2.6194-0.16207-6.5966-0.42923-8.8383-0.37863-3.1768-0.3932-4.2488-0.0661-4.86 0.23083-0.43132 0.73971-2.1691 1.1308-3.8617 0.60043-2.5985 0.74147-4.7795 0.90621-14.014 0.10735-6.0149 0.33031-11.174 0.49552-11.465 0.20433-0.36003 0.30413-0.07813 0.3122 0.88194 0.018 2.1308 0.94802 7.0353 2.1377 11.272 1.3663 4.8658 3.3513 9.8597 8.273 20.813 8.279 18.425 10.257 24.884 10.647 34.766 0.31909 8.0797-1.1213 14.812-4.8074 22.47-3.1844 6.6151-8.054 13.613-13.264 19.06l-1.95 2.0388zm-0.38936-27.58c1.3314-0.50617 3.7902-2.8633 4.3287-4.1496 0.26137-0.62436 0.47522-1.9404 0.47522-2.9245 0-4.6298-4.4179-7.7969-6.8478-4.9091-1.0302 1.2244-1.0788 1.4688-0.50772 2.5538 0.83901 1.594 1.3178 1.6235 2.9592 0.18232 1.0886-0.95583 1.4092-1.0694 2.2171-0.78563 2.144 0.75314 2.0518 5.2621-0.15568 7.6125-3.5501 3.78-8.9377 2.8438-11.54-2.0053-0.60677-1.1308-0.75575-2.0068-0.74987-4.4097 9e-3 -3.7406 0.6706-5.4129 5.1028-12.901 5.6278-9.508 6.4309-12.201 6.4104-21.495-0.0124-5.6607-0.34858-9.2285-1.0966-11.642-0.22306-0.71961-0.25139-0.09861-0.0885 1.9403 0.13176 1.6492 0.237 6.1736 0.23386 10.054-5e-3 6.2467-0.0963 7.3707-0.79668 9.8042-1.0397 3.6129-2.7708 6.9898-5.9123 11.533-4.7859 6.9218-6.2286 10.669-5.4698 14.207 0.69348 3.2336 2.8187 6.0176 5.4817 7.181 1.2471 0.54478 4.6924 0.63325 5.9558 0.15292zm14.844-13.79c0.70527-4.3489 0.69821-10.904-0.0155-14.374-0.76797-3.7345-2.6489-8.6814-5.058-13.302-2.2274-4.2726-7.8022-13.686-7.9925-13.495-0.0661 0.06608 0.18644 1.1052 0.56112 2.3091 1.3661 4.3894 1.6349 10.132 0.85373 18.242-0.25915 2.6907 0.38248 6.6996 1.4077 8.795 0.50316 1.0284 2.1286 3.2802 3.612 5.0041 3.9237 4.5596 4.8281 6.0911 5.5732 9.4377 0.12386 0.55647 0.29097 0.94602 0.37133 0.86567 0.0803-0.08035 0.38947-1.6469 0.68697-3.4812zm-1.3303-4.7462c-0.15762-0.38806-0.55968-1.4199-0.89348-2.2931-0.46888-1.2263-1.1261-1.9744-2.8885-3.2878-4.4183-3.2928-5.141-5.4347-4.7824-14.175 0.20863-5.085 0.082-7.108-0.66273-10.583-0.29764-1.3891 4.3888 7.7344 6.5235 12.7 2.5012 5.8179 3.211 9.0693 3.0898 14.154-0.0616 2.5856-0.20948 3.9199-0.38629 3.4845zm-6.7352 2.8201c0.78345-1.1957 0.27456-2.3692-1.9982-4.6078-2.1083-2.0766-3.1352-4.5449-3.1879-7.6624l-0.037-2.1916-0.46507 1.4111c-0.65606 1.9907-0.62921 6.6175 0.0525 9.0472 1.1284 4.0214 4.196 6.2006 5.6356 4.0035zm-7.0997-0.84721c0.11748-0.3701-0.0958-1.854-0.47388-3.2975-0.38308-1.4627-0.61055-3.1951-0.51379-3.9132 0.22285-1.6535-0.0798-1.6414-0.77872 0.03133-1.3371 3.2002-1.4587 6.154-0.30085 7.3118 0.74556 0.74557 1.8102 0.67739 2.0672-0.13239zm0.42775-40.315c-0.11261-0.28142-0.19622-0.19783-0.21315 0.21314-0.0152 0.37188 0.0681 0.58024 0.18531 0.46302 0.11723-0.11723 0.12976-0.4215 0.0279-0.67616zm45.829 56.661c-1.6285-0.59669-3.5772-2.0166-4.0948-2.9836-0.3211-0.60001-0.20387-0.57632 0.91902 0.18569 1.5558 1.0558 3.3375 1.5845 5.3486 1.5871 1.3636 2e-3 1.4993 0.0818 1.4993 0.88392 0 0.76493-0.15212 0.87864-1.1465 0.85708-0.63059-0.0137-1.7671-0.25223-2.5256-0.53015zm0.0507-3.3489c-4.1459-1.0009-7.5744-4.6335-9.4107-9.9708-0.37849-1.1002-0.61965-2.0003-0.53587-2.0003 0.0838 0 0.62153 0.92951 1.195 2.0656 1.27 2.5158 4.1698 5.7595 6.2264 6.9647 1.6352 0.9583 3.5745 1.1593 5.1764 0.53652 0.95889-0.37278 0.97014-0.36089 0.97014 1.0252 0 0.88415-0.16295 1.4042-0.44097 1.4072-0.24253 3e-3 -0.75847 0.0696-1.1465 0.14869-0.38805 0.0791-1.3033-3.5e-4 -2.0339-0.17683zm0.0401-18.738c-1.8138-1.3937-5.6861-4.9259-8.6052-7.8493-18.17-18.197-29.955-40.79-33.871-64.935-0.79678-4.9125-0.97655-18.846-0.30719-23.812 0.47769-3.5446 1.3907-8.66 1.7787-9.966 0.13952-0.46965 0.56426-0.61736 1.7751-0.61736 1.5488 0 1.5865 0.02618 1.3957 0.97014-1.2567 6.2185-1.4739 20.44-0.4324 28.31 2.5202 19.044 9.3327 37.164 20.159 53.622 5.6377 8.5701 12.052 16.062 18.122 21.167 3.3516 2.8187 3.5656 3.078 3.5659 4.3215 1.8e-4 0.7276-0.0635 1.3229-0.14142 1.3229-0.078 0-1.6258-1.1403-3.4396-2.534zm2.3466-3.1665c-1.6436-0.90239-3.7389-3.3472-4.4131-5.1492-1.1958-3.1962-0.84504-6.3369 1.0135-9.0735 0.92407-1.3607 3.654-3.7129 4.309-3.7129 0.19029 0 0.32537 3.808 0.32537 9.1722 0 5.0447-0.11906 9.1674-0.26458 9.1615-0.14552-0.0059-0.58209-0.18505-0.97014-0.39811zm-16.549-43.163c-1.4646-0.55954-3.5038-1.9803-4.5379-3.1618-2.9392-3.3579-2.8758-7.9664 0.14496-10.552 1.662-1.4226 2.9036-1.7868 4.9263-1.4451 3.7451 0.63274 5.4779 4.9188 2.9931 7.4036-1.813 1.813-4.6973 1.7772-6.6457-0.0826l-1.0236-0.97709 0.23502 1.0583c0.52056 2.3444 0.93712 3.2766 1.8555 4.1527 3.3238 3.1707 9.4999 1.7584 11.797-2.6978 1.276-2.4752 1.0512-5.0054-0.97547-10.98l-1.7378-5.1229-3.179-2.0851c-13.978-9.1681-21.599-20.591-22.906-34.332l-0.19297-2.0285h3.0564l0.42118 3.0107c2.3191 16.577 14.446 31.469 30.356 37.278 3.1171 1.138 3.1857 1.1876 3.1911 2.3095 6e-3 1.2274-0.29799 1.3776-1.517 0.7495-0.57503-0.29627-0.47964-0.09058 0.37595 0.81055 1.0957 1.1541 1.1465 1.3316 1.1465 4.0069v2.7994l-1.6757-1.8959c-0.92163-1.0428-2.603-3.1832-3.7363-4.7564-1.1333-1.5733-2.1064-2.9075-2.1624-2.965-0.35183-0.36142 0.69663 3.7596 1.5795 6.2083 1.6389 4.5456 1.3693 7.2322-1.0298 10.261-2.2951 2.8979-7.369 4.3284-10.759 3.0334zm14.79-30.038c-12.853-2.7538-23.647-13.783-27.651-28.254l-0.70775-2.5576h2.9965l0.63507 2.1201c2.9548 9.8641 11.646 19.073 21.285 22.554 1.5022 0.54241 3.5647 1.1817 4.5833 1.4206l1.8521 0.43444v2.4343c0 1.3388-0.11906 2.4213-0.26458 2.4055-0.14552-0.01581-1.3734-0.26632-2.7285-0.55667zm-265.12-4.0799c-8.1828-0.84072-15.955-4.4434-22.066-10.228-4.5653-4.3214-7.2517-8.4382-9.1517-14.025l-0.8432-2.4791h1.3344c1.3294 0 1.3381 0.0095 2.3332 2.5576 4.5118 11.554 15.294 19.954 26.453 20.609 7.4671 0.43841 15.116-3.0673 17.609-8.0708 1.6638-3.3387 0.97503-8.0158-1.4286-9.7017-0.55618-0.3901-2.3606-1.3436-4.0099-2.1188-1.6492-0.77522-3.3835-1.8294-3.8538-2.3426l-0.85525-0.93314h24.746l0.23635 2.3812c0.55504 5.5919-2.1658 12.631-6.6223 17.132-2.983 3.013-5.7708 4.7923-9.4208 6.0129-2.5716 0.85994-8.6952 1.7508-10.78 1.5682-0.56931-0.04987-2.2255-0.21298-3.6803-0.36246zm181.81-3.9531c-2.5802-0.58733-3.9197-1.2317-6.3884-3.0731-1.567-1.1688-4.3249-4.5384-4.3249-5.2842 0-0.12552 1.3097 0.1745 2.9104 0.66671 2.4128 0.74193 3.6644 0.90077 7.3201 0.92907 4.071 0.03151 4.5628-0.03761 6.4022-0.90001 4.6314-2.1714 7.3561-6.9489 7.3561-12.898v-2.2189h5.6444c3.2788 0 5.6444 0.13868 5.6444 0.33089 0 0.18199-0.23264 1.334-0.51698 2.5601s-0.53924 3.9188-0.56645 5.984c-0.048 3.6397-0.0827 3.7951-1.1348 5.0715-2.672 3.2416-8.6774 7.1531-12.914 8.4112-2.7642 0.82089-6.8706 1.0042-9.4322 0.42111zm-23.297-5.093c-13.551-12.972-32.689-18.787-50.133-15.232-3.6399 0.74177-8.7463 2.3917-11.085 3.5817l-1.306 0.66457-0.85851-1.1451c-0.92752-1.2371-2.111-3.4863-2.5051-4.7611l-0.24543-0.79375h65.914l-0.50154 1.8521c-0.71962 2.6574-0.39992 7.1429 0.76879 10.787 0.76351 2.3804 2.4956 6.5917 3.2535 7.9106 0.32235 0.56092-0.17001 0.13383-3.3012-2.8635zm20.698-4.6101c-5.4227-1.6555-7.7301-6.281-5.9509-11.929l0.36117-1.1465h17.924l0.22784 0.9078c0.3808 1.5172-0.0595 5.8901-0.72555 7.2061-1.0183 2.0119-3.0168 3.8299-5.044 4.5884-1.9143 0.71623-5.0962 0.89115-6.7921 0.37339zm87.62-7.2538c-0.48828-1.0666-0.97797-2.8128-1.0881-3.8806l-0.20038-1.9413h2.5682v3.8806c0 2.1343-0.0882 3.8806-0.19589 3.8806-0.10778 0-0.59542-0.87265-1.0837-1.9392zm-177.32 0.14428c-1.5089-0.35549-3.6252-1.4172-4.6688-2.3422-1.0404-0.92217-2.6458-2.9235-2.6458-3.2983 0-0.17914 1.3971-0.32571 3.1047-0.32571h3.1047l0.72874 1.4993c0.40081 0.82462 1.3045 2.2534 2.0082 3.175 1.206 1.5794 1.234 1.6737 0.48808 1.6403-0.43528-0.01949-1.3892-0.17627-2.1198-0.3484zm157.96-3.993c-1.7118-0.42268-4.0569-1.4666-4.0569-1.8058 0-0.09203 3.0516-0.16733 6.7813-0.16733 6.191 0 6.7141 0.04704 6.0097 0.5404-2.1169 1.4827-5.9712 2.115-8.7341 1.4328z" fill="#f2f2f2"/>
 </g>
</svg>
