<?xml version="1.0" encoding="UTF-8" standalone="no"?>
<!-- Created with Inkscape (http://www.inkscape.org/) -->

<svg
   xmlns:dc="http://purl.org/dc/elements/1.1/"
   xmlns:cc="http://creativecommons.org/ns#"
   xmlns:rdf="http://www.w3.org/1999/02/22-rdf-syntax-ns#"
   xmlns:svg="http://www.w3.org/2000/svg"
   xmlns="http://www.w3.org/2000/svg"
   xmlns:sodipodi="http://sodipodi.sourceforge.net/DTD/sodipodi-0.dtd"
   xmlns:inkscape="http://www.inkscape.org/namespaces/inkscape"
   version="1.1"
   id="svg2"
   width="77.852203"
   height="84.615311"
   viewBox="0 0 77.852204 84.615311"
   sodipodi:docname="icon-wedding.svg"
   inkscape:version="0.92.1 r15371">
  <metadata
     id="metadata8">
    <rdf:RDF>
      <cc:Work
         rdf:about="">
        <dc:format>image/svg+xml</dc:format>
        <dc:type
           rdf:resource="http://purl.org/dc/dcmitype/StillImage" />
        <dc:title></dc:title>
      </cc:Work>
    </rdf:RDF>
  </metadata>
  <defs
     id="defs6" />
  <sodipodi:namedview
     pagecolor="#ffffff"
     bordercolor="#666666"
     borderopacity="1"
     objecttolerance="10"
     gridtolerance="10"
     guidetolerance="10"
     inkscape:pageopacity="0"
     inkscape:pageshadow="2"
     inkscape:window-width="1920"
     inkscape:window-height="1021"
     id="namedview4"
     showgrid="false"
     fit-margin-top="0"
     fit-margin-left="0"
     fit-margin-right="0"
     fit-margin-bottom="0"
     inkscape:zoom="0.91828794"
     inkscape:cx="449.68555"
     inkscape:cy="122.5203"
     inkscape:window-x="-8"
     inkscape:window-y="-8"
     inkscape:window-maximized="1"
     inkscape:current-layer="svg2" />
  <path
     style="fill:#d1d1d1"
     d="m 22.78317,83.943009 c -9.53245,-2.62278 -15.41848,-7.22625 -19.38258,-15.15913 -1.71458,-3.43118 -3.11742,-7.54514 -3.11742,-9.14214 0,-2.66767 0.26124,-2.87817 3.21469,-2.59028 2.6657,0.25985 3.32024,0.82569 3.83271,3.31336 2.02602,9.83479 11.49348,17.51391 21.56862,17.49442 9.84744,-0.019 19.25381,-7.58522 21.41039,-17.22182 1.64617,-7.35586 -0.46213,-14.85511 -5.68946,-20.23752 -3.316,-3.41438 -3.78118,-3.61946 -4.37432,-1.92854 -1.03011,2.93661 0.92139,8.58109 4.12846,11.94107 1.97187,2.06588 2.90891,4.07919 2.90891,6.25 0,3.80313 -0.62229,3.91916 -5.10212,0.95135 -4.85055,-3.21341 -8.89788,-11.64246 -8.89788,-18.53092 v -5.42332 l -6.7144,0.35264 c -6.31351,0.33159 -6.78868,0.20437 -7.95858,-2.13078 -1.77258,-3.53809 0.36989,-4.48645 10.17298,-4.50304 7.58176,-0.0128 8.12854,-0.16475 10.45863,-2.90584 2.69757,-3.17338 9.25835,-6.55125 12.79137,-6.58574 3.0404,-0.0297 2.85835,-1.03211 -1.39495,-7.681099 l -3.64495,-5.6979705 2.89495,-2.37879 c 2.50689,-2.05990998 3.73679,-2.33097998 9.17503,-2.02213998 5.49079,0.31183 6.6814,0.75798 9.47326,3.54983998 l 3.19318,3.19318 -5.36667,5.4341705 -5.36667,5.434169 3.4985,1.46177 c 9.39681,3.92623 15.12146,15.14994 12.86654,25.22601 -1.27825,5.7118 -6.31734,12.49695 -11.12893,14.98512 -3.82293,1.97691 -3.94929,1.92808 -3.94929,-1.52622 0,-2.1596 1.10491,-4.10491 3.94422,-6.94422 6.7246,-6.7246 6.75284,-15.35872 0.0721,-22.03948 -6.09653,-6.09652 -14.72965,-6.43012 -20.73862,-0.80139 l -2.22231,2.08169 4.41676,3.88779 c 6.06815,5.34141 9.52785,12.92601 9.52785,20.88766 0,8.10354 -1.45345,12.67053 -5.90818,18.56458 -6.14119,8.12541 -19.40496,12.96926 -28.59182,10.44156 z M 0.53725,51.007179 c 0.78235,-5.83283 4.65419,-12.908 9.18717,-16.78806 4.32684,-3.70361 5.50683,-3.79335 7.14208,-0.54314 0.94587,1.88 0.47955,2.77963 -3.67513,7.09004 -3.46833,3.59833 -4.98916,6.11106 -5.60934,9.26781 -0.78261,3.98351 -1.1209,4.35698 -4.21645,4.65491 L 0,55.012659 Z"
     id="path3708"
     inkscape:connector-curvature="0" />
</svg>
