<svg xmlns="http://www.w3.org/2000/svg" xmlns:xlink="http://www.w3.org/1999/xlink" version="1.1" id="Layer_1" x="0px" y="0px" viewBox="-120.6 204.8 16 16" style="enable-background:new -120.6 204.8 16 16;" xml:space="preserve">
<style type="text/css">
	.st0{fill:#7D3DAF;}
	.st1{fill:#FFFFFF;}
</style>
<g id="Layer_2">
	<g id="Layer_1-2">
		<path class="st0" d="M-117,204.8h8.8c2,0,3.6,1.6,3.6,3.6v8.8c0,2-1.6,3.6-3.6,3.6h-8.8c-2,0-3.6-1.6-3.6-3.6v-8.8    C-120.6,206.4-119,204.8-117,204.8z"/>
		<path class="st1" d="M-107,209.8L-107,209.8c-0.4-1.3-1.4-2.2-2.7-2.6l0,0c-1.9-0.4-3.8-0.4-5.7,0l0,0c-1.3,0.3-2.3,1.3-2.8,2.6    l0,0c-0.3,1.6-0.3,3.2,0,4.8l0,0c0.4,1.2,1.4,2.2,2.6,2.6v1.3c0,0.3,0.2,0.5,0.5,0.5c0.1,0,0.3-0.1,0.4-0.2l1.3-1.3    c0.3,0,0.6,0,0.8,0c1,0,1.9-0.1,2.8-0.3l0,0c1.3-0.4,2.3-1.3,2.7-2.6l0,0C-106.7,213-106.7,211.4-107,209.8z M-108,214.3    c-0.3,0.9-1,1.6-1.9,1.8c-1,0.2-2,0.3-3,0.2c0,0,0,0-0.1,0l-1,1l-1,1c0,0-0.1,0-0.2,0c0,0,0,0,0-0.1v-2.1c0,0,0-0.1-0.1-0.1l0,0    c-0.9-0.3-1.6-1-1.9-1.8c-0.3-1.4-0.3-2.9,0-4.3c0.3-0.9,1-1.6,1.9-1.8c1.7-0.3,3.5-0.3,5.3,0c0.9,0.3,1.6,1,1.9,1.8    C-107.7,211.4-107.7,212.9-108,214.3L-108,214.3z"/>
		<path class="st1" d="M-110,213.8c-0.2-0.1-0.3-0.3-0.5-0.4c-0.2-0.1-0.3-0.2-0.5-0.4c-0.2-0.1-0.4-0.1-0.6,0    c-0.2,0.1-0.2,0.4-0.5,0.4c-0.1,0-0.3,0-0.4-0.1c-0.7-0.3-1.3-0.9-1.5-1.7c0-0.1,0-0.2,0-0.3c0,0,0.1-0.1,0.1-0.1l0.2-0.1    c0.2-0.1,0.3-0.4,0.1-0.7c-0.2-0.4-0.5-0.7-0.8-1c-0.1-0.1-0.3-0.2-0.5-0.1c-0.2,0.1-0.4,0.3-0.6,0.4c-0.2,0.2-0.3,0.5-0.2,0.8    c0.1,0.3,0.2,0.6,0.4,0.9c0.3,0.6,0.7,1.2,1.1,1.7c0.8,0.8,1.8,1.5,2.9,1.9c0.1,0,0.2,0.1,0.3,0.1c0.1,0,0.2-0.1,0.3-0.1    c0.3-0.2,0.6-0.4,0.7-0.8C-109.8,214.1-109.9,213.9-110,213.8z"/>
		<path class="st1" d="M-112.6,209L-112.6,209c-0.2,0-0.3,0.1-0.3,0.2c0,0,0,0,0,0c0,0.1,0.2,0.1,0.3,0.1c0.1,0,0.3,0,0.5,0.1    c1.1,0.2,1.9,1,2,2.1c0,0.2,0,0.4,0.1,0.6c0,0.2,0.1,0.2,0.2,0.2c0.1,0,0.2-0.1,0.2-0.2c0,0,0,0,0,0c0-0.2,0-0.5-0.1-0.8    C-110,210-111.2,209-112.6,209z"/>
		<path class="st1" d="M-110.7,211.8c0,0,0,0.1,0,0.1c0,0.1,0.1,0.1,0.2,0.1c0,0,0.1-0.1,0.1-0.1c0,0,0-0.1,0-0.1c0-0.1,0-0.2,0-0.2    c0-0.1,0-0.1,0-0.1c-0.1-0.6-0.5-1.2-1-1.5c-0.3-0.1-0.6-0.2-0.9-0.2c-0.1,0-0.2,0.1-0.2,0.1c0,0,0,0,0,0c0,0.1,0,0.2,0.1,0.2    c0,0,0,0,0,0l0.3,0c0.2,0,0.4,0.1,0.5,0.2c0.3,0.1,0.5,0.4,0.7,0.6C-110.8,211.2-110.7,211.5-110.7,211.8z"/>
		<path class="st1" d="M-111.2,211.7c0,0,0-0.1,0-0.1c0-0.5-0.4-1-1-1c0,0,0,0,0,0c-0.1,0-0.2,0.1-0.2,0.1c0,0.1,0,0.2,0.1,0.2    c0,0,0,0,0,0c0.1,0,0.2,0,0.3,0c0.1,0,0.1,0,0.2,0.1c0.1,0.1,0.2,0.2,0.2,0.4c0,0.1,0,0.2,0,0.2c0,0.1,0.1,0.2,0.2,0.2    c0,0,0,0,0,0l0,0C-111.2,211.8-111.2,211.8-111.2,211.7z"/>
	</g>
</g>
</svg>