<svg width="94.134" height="82.384" version="1.1" viewBox="0 0 94.134354 82.383545" xmlns="http://www.w3.org/2000/svg">
 <path d="m0.63214 80.346c-0.59982-1.1208-0.81032-2.9208-0.46779-4 0.60698-1.9124 1.7982-1.9622 46.939-1.9622h46.316l0.56529 2.1617c0.31091 1.1889 0.12256 2.9889-0.41855 4-0.93284 1.743-3.3391 1.8383-46.413 1.8383-44.687 0-45.447-0.0333-46.52-2.0378zm8.0202-27.38c0-10.68 0.27953-20.147 0.62118-21.037 1.5975-4.1631 4.7808-4.5448 37.906-4.5448h31.627l2.9231 2.9231 2.9231 2.9231v39.154h-76zm18.2-28.782c-1.2446-1.2446-1.6574-10.445-0.59301-13.218 0.78685-2.0505 4.9992-2.0505 5.786 0 0.33385 0.86998 0.60699 3.93 0.60699 6.8 0 5.0296-1.1892 7.6182-3.5 7.6182-0.605 0-1.64-0.54-2.3-1.2zm11.244-0.0852c-0.30085-0.78401-0.41134-4.3031-0.24553-7.8201 0.28635-6.0739 0.42687-6.3947 2.8015-6.3947 2.4444 0 2.5 0.16667 2.5 7.5 0 7.0208-0.14403 7.5204-2.2545 7.8201-1.2732 0.1808-2.4926-0.30029-2.8015-1.1053zm13 0c-0.30085-0.78401-0.41134-4.3031-0.24553-7.8201 0.28635-6.0739 0.42687-6.3947 2.8015-6.3947 2.4444 0 2.5 0.16667 2.5 7.5 0 7.0208-0.14403 7.5204-2.2545 7.8201-1.2732 0.1808-2.4926-0.30029-2.8015-1.1053zm11 0c-0.30085-0.78401-0.41134-4.3031-0.24553-7.8201 0.29098-6.1722 0.39866-6.4058 3.0948-6.7153l2.7933-0.32061-0.29333 7.8206c-0.27193 7.2498-0.45787 7.844-2.5478 8.1407-1.2732 0.1808-2.4926-0.30029-2.8015-1.1053zm-34.31-16.632c-0.90093-0.55681-0.85402-1.5187 0.1958-4.0155 1.1281-2.6829 1.4777-2.9435 1.912-1.4253 0.29229 1.0219 0.83335 2.5875 1.2024 3.479 0.75603 1.8266-1.4313 3.123-3.3101 1.9618zm11.259-0.50007c-0.29914-0.77952 0.11028-2.6658 0.9098-4.1918l1.4537-2.7744 0.69567 3.1674c0.71936 3.2752 0.14523 5.2162-1.5429 5.2162-0.5348 0-1.2171-0.63779-1.5162-1.4173zm13.092 0.39292c-0.34821-0.56342-0.32006-2.4497 0.0626-4.1918l0.69567-3.1674 1.4537 2.7744c1.4729 2.8112 1.1704 5.6091-0.60648 5.6091-0.5348 0-1.2573-0.46098-1.6055-1.0244zm10.978-0.036c-0.36044-0.58319-0.0896-2.4262 0.60187-4.0955l1.2572-3.0352 1.2003 2.8455c1.5781 3.7412-1.0878 7.4752-3.0594 4.2852z" fill="#d1d1d1"/>
</svg>
