<svg xmlns:x="http://ns.adobe.com/Extensibility/1.0/" xmlns:i="http://ns.adobe.com/AdobeIllustrator/10.0/" xmlns:graph="http://ns.adobe.com/Graphs/1.0/" xmlns="http://www.w3.org/2000/svg" xmlns:xlink="http://www.w3.org/1999/xlink" version="1.1" id="Layer_1" x="0px" y="0px" width="17px" height="17px" viewBox="0 0 17 17" enable-background="new 0 0 17 17" xml:space="preserve">
<metadata>
	<sfw xmlns="http://ns.adobe.com/SaveForWeb/1.0/">
		<slices/>
		<sliceSourceBounds x="0" y="-16.681" width="17" height="16.361" bottomLeftOrigin="true"/>
	</sfw>
</metadata>
<g>
	<path fill="#00AEEF" d="M8.5,6.547c-0.604,0-1.093-0.492-1.093-1.099v-4.03c0-0.606,0.49-1.099,1.093-1.099   s1.093,0.493,1.093,1.099v4.03C9.593,6.055,9.104,6.547,8.5,6.547"/>
	<path fill="#00AEEF" d="M5.946,8.411C5.759,8.989,5.143,9.304,4.568,9.116L0.756,7.872C0.182,7.684-0.133,7.064,0.054,6.487   c0.187-0.578,0.803-0.893,1.378-0.706l3.813,1.245C5.818,7.214,6.132,7.834,5.946,8.411"/>
	<path fill="#00AEEF" d="M11.054,8.412c0.188,0.578,0.804,0.893,1.378,0.705l3.813-1.244c0.574-0.188,0.889-0.807,0.702-1.384   c-0.187-0.578-0.804-0.894-1.378-0.707l-3.813,1.246C11.182,7.215,10.867,7.834,11.054,8.412"/>
	<path fill="#00AEEF" d="M3.279,16.471c-0.489-0.356-0.598-1.044-0.243-1.534l2.355-3.261c0.355-0.491,1.039-0.601,1.528-0.244   c0.488,0.356,0.596,1.045,0.241,1.535l-2.355,3.26C4.451,16.719,3.767,16.827,3.279,16.471"/>
	<path fill="#00AEEF" d="M13.723,16.471c0.488-0.356,0.597-1.044,0.241-1.534l-2.354-3.261c-0.355-0.491-1.039-0.601-1.528-0.244   c-0.487,0.356-0.597,1.045-0.241,1.535l2.355,3.26C12.55,16.719,13.233,16.827,13.723,16.471"/>
</g>
</svg>