<svg xmlns:x="http://ns.adobe.com/Extensibility/1.0/" xmlns:i="http://ns.adobe.com/AdobeIllustrator/10.0/" xmlns:graph="http://ns.adobe.com/Graphs/1.0/" xmlns="http://www.w3.org/2000/svg" xmlns:xlink="http://www.w3.org/1999/xlink" version="1.1" id="Layer_1" x="0px" y="0px" width="17px" height="17px" viewBox="0 0 17 17" enable-background="new 0 0 17 17" xml:space="preserve">
<metadata>
	<sfw xmlns="http://ns.adobe.com/SaveForWeb/1.0/">
		<slices/>
		<sliceSourceBounds x="0" y="-17" width="17" height="17" bottomLeftOrigin="true"/>
	</sfw>
</metadata>
<path fill="#FFCB05" d="M8.5,0C3.806,0,0,3.806,0,8.5c0,0.296,0.015,0.59,0.045,0.878C0.505,8.5,1.11,7.511,1.792,6.82  c1.17-1.186,2.893-2.04,3.604-2.362c0-0.989,0.803-1.791,1.792-1.791s1.792,0.802,1.792,1.792c0,0.99-0.802,1.792-1.792,1.792  c-0.53,0-1.007-0.231-1.335-0.597C5.12,6.132,4.076,7.007,3.135,8.51c-1.157,1.849-1.385,3.981-1.416,5.116  c0.353,0.466,0.752,0.894,1.192,1.278c0.381-0.817,1.391-2.664,3.4-4.46c1.557-1.392,4.177-2.45,4.966-2.75  c0.01-0.184,0.048-0.37,0.117-0.552c0.355-0.924,1.391-1.385,2.314-1.03c0.924,0.354,1.386,1.391,1.031,2.314  c-0.355,0.924-1.391,1.386-2.314,1.03c-0.271-0.104-0.502-0.266-0.684-0.467c-1.072,0.443-2.799,1.407-4.067,3.327  c-0.949,1.438-1.468,3.011-1.752,4.284C6.736,16.86,7.602,17,8.5,17c4.694,0,8.5-3.806,8.5-8.5S13.194,0,8.5,0z"/>
</svg>