<svg width="89" height="53" version="1.1" viewBox="0 0 89.000001 53" xmlns="http://www.w3.org/2000/svg">
 <path d="m5 52.62c0-0.20911 4.7272-4.5188 10.505-9.5771l10.505-9.1969 8.7129 8.0771c4.7921 4.4424 9.3365 8.0771 10.099 8.0771 0.76222 0 5.1033-3.375 9.647-7.5s8.5795-7.5 8.9686-7.5c0.72019 0 20.563 17.043 20.563 17.661 0 0.1862-17.775 0.33855-39.5 0.33855s-39.5-0.17109-39.5-0.3802zm-5-26.12c0-12.925 0.28707-23.5 0.63793-23.5s4.1759 2.5473 8.5 5.6607c7.3418 5.2861 7.8621 5.9019 7.8621 9.3042 0 2.3111 1.0715 5.333 2.93 8.2637l2.93 4.6202-10.876 9.5756c-5.9818 5.2666-11.125 9.5756-11.43 9.5756s-0.55409-10.575-0.55409-23.5zm76.761 13.918-10.739-9.4938 2.6098-3.9437c1.4354-2.169 2.8292-5.8644 3.0972-8.212 0.4542-3.9775 1.0165-4.6601 8.252-10.018 4.2705-3.1625 8.0468-5.75 8.3918-5.75s0.62726 10.575 0.62726 23.5-0.3375 23.48-0.75 23.456c-0.4125-0.0243-5.5826-4.3164-11.489-9.538zm-34.132-29.469c-3.7164-6.2913-13.391-7.957-20.034-3.4492-2.0262 1.375-3.9089 2.5-4.1838 2.5s-3.4721-2.25-7.1047-5l-6.6048-5h79.597l-6.6048 5c-3.6327 2.75-6.8298 5-7.1047 5s-2.1576-1.125-4.1838-2.5c-6.6264-4.4968-16.426-2.8025-20.26 3.5029l-1.7671 2.9058z" fill="#d1d1d1"/>
</svg>
