<svg width="77.25" height="80.758" version="1.1" viewBox="0 0 77.250008 80.75827" xmlns="http://www.w3.org/2000/svg">
 <path d="m19.111 78.096c-6.1341-5.0959-4.8698-14.245 2.442-17.67 7.3717-3.4536 15.434 1.8594 15.444 10.177 3e-3 2.4479-0.87983 4.1798-3.3963 6.6642-4.3953 4.3394-9.8856 4.6536-14.489 0.82905zm11.575-3.5681c4.4745-4.1501 1.554-11.017-4.6856-11.017-2.2396 0-3.9086 0.72786-5.1558 2.2485-2.3898 2.9138-2.3297 5.1032 0.22841 8.314 2.5617 3.2152 6.4389 3.3986 9.613 0.45469zm24.814 4.9499c-3.5831-1.9454-5.4548-5.1349-5.4778-9.3343-0.0567-10.362 12.517-14.682 19.012-6.5306 2.1542 2.7038 2.6394 8.9876 0.93647 12.129-2.2171 4.09-10.079 6.1199-14.47 3.7358zm9.2775-4.3401c2.8786-1.9906 3.0178-7.3194 0.25565-9.7873-4.188-3.7419-11.033-0.90892-11.033 4.5662 0 5.5898 6.0242 8.5081 10.777 5.2211zm-29.277-16.824c-11.024-2.6777-19.3-8.2486-22.926-15.431-4.7242-9.3597-7.2278-8.6614 31.051-8.6614h33.625l-0.63628 3.1409c-1.6323 8.0576-8.4792 15.051-18.614 19.013-4.3977 1.719-18.428 2.928-22.5 1.9389zm-26.5-31.749c-1.2246-3.8242-2.1886-5.0031-5.25-6.42-2.0625-0.95453-3.75-2.1902-3.75-2.746 0-1.898 2.8562-2.0958 6.3858-0.44222 5.5534 2.6018 10.356 14.311 5.8642 14.298-1.2082-4e-3 -2.2144-1.4554-3.25-4.6896zm36.088-1.9694c1.0705-3.6653 2.9104-10.218 4.0885-14.562 1.1782-4.3441 2.7023-8.5062 3.387-9.2492 1.374-1.4909 3.4369-0.73511 3.4369 1.2593 0 0.69999 1.8294 2.0872 4.0654 3.0827 5.7909 2.5781 13.179 10.932 15.24 17.231 3.097 9.4675 4.0631 8.903-15.235 8.903h-16.929z" fill="#d1d1d1"/>
</svg>
