<svg xmlns:x="http://ns.adobe.com/Extensibility/1.0/" xmlns:i="http://ns.adobe.com/AdobeIllustrator/10.0/" xmlns:graph="http://ns.adobe.com/Graphs/1.0/" xmlns="http://www.w3.org/2000/svg" xmlns:xlink="http://www.w3.org/1999/xlink" version="1.1" id="Layer_1" x="0px" y="0px" width="17px" height="17px" viewBox="0 0 17 17" enable-background="new 0 0 17 17" xml:space="preserve">
<metadata>
	<sfw xmlns="http://ns.adobe.com/SaveForWeb/1.0/">
		<slices/>
		<sliceSourceBounds x="0" y="-16.786" width="17" height="16.572" bottomLeftOrigin="true"/>
	</sfw>
</metadata>
<path fill-rule="evenodd" clip-rule="evenodd" fill="#EC1C2E" d="M11.777,0.853C10.275,1.183,9.145,2.53,9.145,4.142  c0,0.035,0.008,0.076,0.01,0.11c2.374,0.509,3.572,2.121,3.572,4.248c0,2.389-1.939,4.326-4.312,4.326  c-2.372,0-4.587-1.992-4.587-4.948c0-3.609,3.07-6.994,7.444-7.101c0.079-0.002,0.204,0.001,0.331,0.007  c-0.961-0.368-2.008-0.57-3.103-0.57C3.806,0.214,0,3.924,0,8.5s3.806,8.286,8.501,8.286c4.692,0,8.499-3.71,8.499-8.286  C17,5.056,14.844,2.103,11.777,0.853L11.777,0.853z"/>
</svg>