<?xml version="1.0" encoding="UTF-8" standalone="no"?>
<!-- Created with Inkscape (http://www.inkscape.org/) -->

<svg
   xmlns:dc="http://purl.org/dc/elements/1.1/"
   xmlns:cc="http://creativecommons.org/ns#"
   xmlns:rdf="http://www.w3.org/1999/02/22-rdf-syntax-ns#"
   xmlns:svg="http://www.w3.org/2000/svg"
   xmlns="http://www.w3.org/2000/svg"
   xmlns:sodipodi="http://sodipodi.sourceforge.net/DTD/sodipodi-0.dtd"
   xmlns:inkscape="http://www.inkscape.org/namespaces/inkscape"
   width="397.35"
   height="190.56"
   version="1.1"
   viewBox="0 0 397.35 190.56"
   id="svg22"
   sodipodi:docname="logo.svg"
   inkscape:version="0.92.1 r15371">
  <defs
     id="defs26" />
  <sodipodi:namedview
     pagecolor="#ffffff"
     bordercolor="#666666"
     borderopacity="1"
     objecttolerance="10"
     gridtolerance="10"
     guidetolerance="10"
     inkscape:pageopacity="0"
     inkscape:pageshadow="2"
     inkscape:window-width="1920"
     inkscape:window-height="1021"
     id="namedview24"
     showgrid="false"
     inkscape:zoom="1.3524629"
     inkscape:cx="190.74788"
     inkscape:cy="52.607268"
     inkscape:window-x="-8"
     inkscape:window-y="-8"
     inkscape:window-maximized="1"
     inkscape:current-layer="g20" />
  <metadata
     id="metadata2">
    <rdf:RDF>
      <cc:Work
         rdf:about="">
        <dc:format>image/svg+xml</dc:format>
        <dc:type
           rdf:resource="http://purl.org/dc/dcmitype/StillImage" />
        <dc:title />
      </cc:Work>
    </rdf:RDF>
  </metadata>
  <g
     transform="translate(-16.962 -16.199)"
     id="g20">
    <path
       d="m194.36 205.59c-11.377-2.1726-22.36-6.3876-22.36-8.5813 0-0.52217 3.3174-2.4821 7.3719-4.3554 10.585-4.8905 18.983-10.892 28.128-20.1 10.999-11.074 20.093-24.283 29.13-42.305 4.2054-8.3875 8.0455-15.25 8.5335-15.25 1.1872 0 7.1143 13.14 10.76 23.855 6.2953 18.5 8.1136 37.644 4.6923 49.4-1.876 6.4464-4.9801 9.1754-14.59 12.827-13.326 5.0634-37.647 7.186-51.665 4.509zm-36.231-16.912c-19.927-10.658-41.156-42.809-42.31-64.075-0.37217-6.8621 0.64179-7.765 4.8044-4.278 5.2687 4.4137 19.766 11.527 28.876 14.168 15.822 4.5874 26.801 5.7621 48 5.1354 10.45-0.30892 20.232-0.85351 21.738-1.2102 4.9884-1.1818 4.445 1.9072-1.8832 10.704-12.985 18.05-29.874 32.911-43.854 38.585-8.0926 3.285-10.73 3.4514-15.37 0.96951zm108.54-6.4289c1.0893-7.7427 0.78403-21.305-0.65841-29.25-3.1245-17.21-12.975-39.871-25.429-58.497-3.6177-5.4107-6.5776-10.212-6.5776-10.67 0-2.3079 21.036 0.52425 35.994 4.8462 16.614 4.8001 32.417 14.028 37.057 21.638 2.4774 4.0631 2.4792 9.9219 6e-3 20.183-2.7453 11.389-8.6421 24.621-15.376 34.5-6.2619 9.1872-21.086 23-24.684 23-0.81712 0-0.91176-1.635-0.33283-5.75zm40.371-23.657c0.80536-0.77404 18.677-10.318 39.714-21.209 21.038-10.891 38.25-20.339 38.25-20.995s-4.1625-4.8962-9.25-9.421c-41.122-36.573-87.403-59.121-136.75-66.622-15.745-2.3935-45.375-2.3842-60.964 0.01919-14.318 2.2073-34.772 7.4084-47.679 12.124-16.026 5.8552-42.903 19.697-59.085 30.429-15.629 10.366-28.215 20.02-44.191 33.897-14.07 12.222-13.49 9.6892 1.8832-8.2187 83.972-97.82 186.31-118.5 294.55-59.511 29.1 15.859 59.589 38.512 83.878 62.321 6.6723 6.5406 7.6775 7.9425 6.5 9.066-1.4399 1.3738-104.76 39.528-107.04 39.528-0.95753 0-0.91149-0.35674 0.18161-1.4073zm-127.54-25.26c-16.788-1.389-31.277-5.1626-43.485-11.325-6.6045-3.3339-18.356-14.144-19.959-18.361-1.3129-3.4531 0.95493-16.78 4.4235-25.995 3.1581-8.3904 7.9262-17.918 9.6891-19.361 1.9895-1.6283 18.375-6.5241 20.493-6.123 1.3414 0.25401 2.0707 1.6975 2.6981 5.3403 3.7751 21.919 15.995 47.812 32.475 68.809 3.7128 4.7307 4.2947 5.9886 3.1153 6.7347-0.79766 0.50462-2.3503 0.84874-3.4503 0.7647-1.1-0.084-3.8-0.30172-6-0.48375zm-1.6789-34.106c-4.3966-5.2487-10.768-20.153-14.382-33.642-3.1278-11.675-3.1694-15.324-0.18903-16.564 4.0852-1.7005 16.026-3.0888 31.852-3.7032 17.241-0.66938 18.798-0.19969 15.028 4.5325-6.6349 8.3279-17.953 26.619-23.242 37.56-3.3493 6.9286-6.434 12.81-6.855 13.07-0.42093 0.26015-1.4161-0.30388-2.2115-1.2534zm120.8-6.2808c-18.67-13.206-48.496-19.485-80.529-16.953-7.7619 0.61356-14.557 0.84074-15.101 0.50484-0.61653-0.38104-0.42118-1.7072 0.51943-3.5261 2.0416-3.948 15.642-21.882 18.879-24.894 2.6009-2.4204 2.6143-2.4217 12.355-1.1543 20.051 2.6088 58.924 14.272 64.887 19.467 2.8615 2.4935 6.8147 13.358 8.3362 22.911 1.6656 10.457 0.77577 10.804-9.3465 3.6444z"
       fill="#40c5eb"
       id="path4"
       style="fill:#3acaff;fill-opacity:1" />
    <path
       d="m 197.16,205.99 c -9.8484,-1.3865 -25.156,-6.7991 -25.156,-8.8948 0,-0.46731 3.9375,-2.738 8.75,-5.0459 23.343,-11.195 41.427,-31.498 57.299,-64.331 3.3824,-6.997 6.4898,-12.722 6.9054,-12.722 1.2496,0 8.6294,16.842 11.831,27 1.6467,5.225 3.5542,12.698 4.2389,16.606 1.4456,8.2513 0.84053,27.189 -1.0291,32.207 -1.9636,5.2704 -12.504,10.716 -26.495,13.688 -8.8257,1.8747 -28.03,2.6636 -36.344,1.4931 z m 69.509,-23.744 c 1.0893,-7.7427 0.78403,-21.305 -0.65841,-29.25 -3.1245,-17.21 -12.975,-39.871 -25.429,-58.497 -3.6177,-5.4107 -6.5776,-10.212 -6.5776,-10.67 0,-2.3079 21.036,0.52425 35.994,4.8462 16.614,4.8001 32.417,14.028 37.057,21.638 2.4774,4.0631 2.4792,9.9219 0.006,20.183 -2.7453,11.389 -8.6421,24.621 -15.376,34.5 -6.2619,9.1872 -21.086,23 -24.684,23 -0.81712,0 -0.91176,-1.635 -0.33283,-5.75 z m 40.371,-23.657 c 0.80536,-0.77404 18.677,-10.318 39.714,-21.209 21.038,-10.891 38.25,-20.339 38.25,-20.995 0,-1.5755 -15.956,-15.715 -28.406,-25.173 -50.149,-38.096 -110.61,-57.24 -165.09,-52.274 -3.2198,0.29347 -6.4209,0.64717 -9.605,1.0619 -53.575,6.9786 -102.36,31.246 -154.81,76.811 -14.07,12.222 -13.49,9.6892 1.8832,-8.2187 83.972,-97.82 186.31,-118.5 294.55,-59.511 29.1,15.859 59.589,38.512 83.878,62.321 6.6723,6.5406 7.6775,7.9425 6.5,9.066 -1.4399,1.3738 -104.76,39.528 -107.04,39.528 -0.95753,0 -0.91149,-0.35674 0.18161,-1.4073 z M 179.5,133.329 c -16.788,-1.389 -31.277,-5.1626 -43.485,-11.325 -6.6045,-3.3339 -18.356,-14.144 -19.959,-18.361 -1.3129,-3.4531 0.95493,-16.78 4.4235,-25.995 3.1581,-8.3904 7.9262,-17.918 9.6891,-19.361 1.9895,-1.6283 18.375,-6.5241 20.493,-6.123 1.3414,0.25401 2.0707,1.6975 2.6981,5.3403 3.7751,21.919 15.995,47.812 32.475,68.809 3.7128,4.7307 4.2947,5.9886 3.1153,6.7347 -0.79766,0.50462 -2.3503,0.84874 -3.4503,0.7647 -1.1,-0.084 -3.8,-0.30172 -6,-0.48375 z m -1.6789,-34.106 c -4.3966,-5.2487 -10.768,-20.153 -14.382,-33.642 -3.1278,-11.675 -3.1694,-15.324 -0.18903,-16.564 4.0852,-1.7005 16.026,-3.0888 31.852,-3.7032 17.241,-0.66938 18.798,-0.19969 15.028,4.5325 -6.6349,8.3279 -17.953,26.619 -23.242,37.56 -3.3493,6.9286 -6.434,12.81 -6.855,13.07 -0.42093,0.26015 -1.4161,-0.30388 -2.2115,-1.2534 z M 298.78461,92.615272 C 280.11461,79.409272 250.1251,73.4572 218.0921,75.9892 c -7.7619,0.61356 -14.557,0.84074 -15.101,0.50484 -0.61653,-0.38104 -0.42118,-1.7072 0.51943,-3.5261 2.0416,-3.948 15.642,-21.882 18.879,-24.894 2.6009,-2.4204 2.6143,-2.4217 12.355,-1.1543 20.051,2.6088 58.924,14.272 64.887,19.467 2.8615,2.4935 6.8147,13.358 8.3362,22.911 1.6656,10.457 -5.92354,4.875033 -9.18312,3.317632 z"
       id="path6"
       style="fill:#fcb711;fill-opacity:1"
       inkscape:connector-curvature="0"
       sodipodi:nodetypes="csccscccccccccsccccsccccscccccsccsccccccccscccccccccccccccccccccccc" />
    <path
       d="m 197.16,205.99 c -9.8484,-1.3865 -25.156,-6.7991 -25.156,-8.8948 0,-0.46731 3.9375,-2.738 8.75,-5.0459 23.343,-11.195 41.427,-31.498 57.299,-64.331 3.3824,-6.997 6.4898,-12.722 6.9054,-12.722 1.2496,0 8.6294,16.842 11.831,27 1.6467,5.225 3.5542,12.698 4.2389,16.606 1.4456,8.2513 0.84053,27.189 -1.0291,32.207 -1.9636,5.2704 -12.504,10.716 -26.495,13.688 -8.8257,1.8747 -28.03,2.6636 -36.344,1.4931 z m 69.509,-23.744 c 1.0893,-7.7427 0.78403,-21.305 -0.65841,-29.25 -3.1245,-17.21 -12.975,-39.871 -25.429,-58.497 -3.6177,-5.4107 -6.5776,-10.212 -6.5776,-10.67 0,-2.3079 21.036,0.52425 35.994,4.8462 16.614,4.8001 32.417,14.028 37.057,21.638 2.4774,4.0631 2.4792,9.9219 0.006,20.183 -2.7453,11.389 -8.6421,24.621 -15.376,34.5 -6.2619,9.1872 -21.086,23 -24.684,23 -0.81712,0 -0.91176,-1.635 -0.33283,-5.75 z m 40.371,-23.657 c 0.80536,-0.77404 18.677,-10.318 39.714,-21.209 21.038,-10.891 38.25,-20.339 38.25,-20.995 0,-1.5755 -15.956,-15.715 -28.406,-25.173 -50.149,-38.096 -110.61,-57.24 -165.09,-52.274 -57.394,5.2312 -108.84,29.6 -164.42,77.873 -14.07,12.222 -13.49,9.6892 1.8832,-8.2187 83.972,-97.82 186.31,-118.5 294.55,-59.511 29.1,15.859 59.589,38.512 83.878,62.321 6.6723,6.5406 7.6775,7.9425 6.5,9.066 -1.4399,1.3738 -104.76,39.528 -107.04,39.528 -0.95753,0 -0.91149,-0.35674 0.18161,-1.4073 z M 179.5003,133.32905 c -16.78808,-1.38886 -31.27715,-5.16207 -43.48521,-11.32383 -6.60453,-3.33355 -18.35608,-14.14254 -19.95909,-18.3591 -1.31291,-3.45274 0.95493,-16.778267 4.42352,-25.992315 3.15812,-8.389533 7.92624,-17.916148 9.68915,-19.358999 1.98951,-1.628131 18.37508,-6.523425 20.49309,-6.122367 1.34141,0.253984 2.07071,1.697325 2.69812,5.339748 3.77511,21.916735 15.99507,47.807063 32.47515,68.801893 3.71282,4.73021 4.29472,5.98798 3.11531,6.734 -0.79766,0.50457 -2.35031,0.84865 -3.45031,0.76462 -1.10001,-0.084 -3.80002,-0.30169 -6.00003,-0.4837 z M 301,93.871 c -12.242,-8.985 -30.127,-15.406 -49.5,-17.77 -10.803,-1.3186 -30.342,-1.3831 -40,-0.13205 -4.1181,0.53342 -7.3727,0.53832 -7.9054,0.01191 -1.274,-1.2591 8.451,-15.748 15.83,-23.584 l 6.0752,-6.4517 10.5,1.5902 c 18.548,2.8091 43.849,9.9973 59.409,16.879 5.0023,2.2122 5.5191,2.7742 7.5544,8.214 4.3128,11.527 6.6723,25.466 4.2868,25.324 -0.4125,-0.02447 -3.225,-1.861 -6.25,-4.0811 z"
       id="path8"
       style="fill:#ffffff;fill-opacity:1"
       inkscape:connector-curvature="0"
       sodipodi:nodetypes="csccscccccccccsccccsccccsccccsccsccccccccsccccccccccccccccc" />
    <path
       d="m 197.16,205.99 c -9.91269,-1.09718 -25.2505,-6.31438 -25.156,-8.8948 0.0195,-0.53176 4.00736,-3.14531 8.75,-5.0459 23.00413,-11.195 40.8256,-31.498 56.46718,-64.331 3.3333,-6.997 7.39816,-12.48167 7.73722,-12.722 0.30377,-0.21531 1.33284,0.75436 2.36285,2.93878 2.59156,5.49613 7.62022,16.55859 9.63153,24.02854 1.97187,5.38759 3.39082,12.73068 4.07552,16.63868 2.04041,8.27608 1.71317,28.29688 -1.0291,32.9926 -1.9636,4.96792 -12.504,10.10097 -26.495,12.9024 -8.80091,1.92827 -27.93971,3.25048 -36.344,1.4931 z"
       id="path10"
       style="fill:#6b00a5;fill-opacity:0.72222221"
       inkscape:connector-curvature="0"
       sodipodi:nodetypes="csccsscccccc" />
    <path
       d="m266.67 182.25c1.0893-7.7427 0.78403-21.305-0.65841-29.25-3.1245-17.21-12.975-39.871-25.429-58.497-3.6177-5.4107-6.5776-10.212-6.5776-10.67 0-2.3079 21.036 0.52425 35.994 4.8462 16.614 4.8001 32.417 14.028 37.057 21.638 2.4774 4.0631 2.4792 9.9219 6e-3 20.183-2.7453 11.389-8.6421 24.621-15.376 34.5-6.2619 9.1872-21.086 23-24.684 23-0.81712 0-0.91176-1.635-0.33283-5.75z"
       fill="#cf1e5a"
       id="path12"
       style="fill:#cf1e5a;fill-opacity:1" />
    <path
       d="m 311.58,156.58 c 0.97776,-0.68482 14.1891,-7.67063 30.7059,-16.25092 2.32006,-1.20525 4.70534,-2.44196 7.1311,-3.69708 19.695,-10.19 36.068,-18.787 36.385,-19.103 1.4508,-1.4508 -19.028,-19.787 -34.304,-30.714 -29.592,-21.167 -61.017,-35.764 -93,-43.197 -15.458,-3.5923 -24.822,-4.7593 -42.5,-5.2965 -30.267,-0.91971 -52.49,2.4447 -81.125,12.282 -35.932,12.344 -72.58,34.797 -110.13,67.471 -2.6125,2.2735 -4.75,3.6539 -4.75,3.0675 0,-1.9987 15.306,-19.612 28.418,-32.702 39.857,-39.789 83.591,-63.375 129.66,-69.922 13.757,-1.9552 40.81,-1.9376 55.14,0.03585 57.571,7.9284 119.68,41.075 173.03,92.345002 4.2625,4.096 7.75,7.9772 7.75,8.6248 0,1.077 -100.3,38.476 -103.19,38.476 -0.69115,0 -0.34432,-0.63901 0.77073,-1.42 z"
       id="path14"
       style="fill:#ffffff;fill-opacity:1"
       inkscape:connector-curvature="0"
       sodipodi:nodetypes="cscccccccsccscsscc" />
    <path
       d="m 301,93.874 c -15.332,-8.662506 -30.127,-14.752464 -49.5,-17.116464 -10.803,-1.3186 -30.08059,-0.598856 -39.86929,-0.262757 -4.64093,0.01059 -7.83018,0.603674 -8.36288,0.07726 -4.28026,-1.2591 8.77777,-16.270829 15.37253,-24.041476 6.79649,-7.957441 5.48791,-5.86962 6.85944,-6.582407 l 10.77727,1.174292 c 18.53407,2.760334 44.07809,9.032748 59.50143,16.971424 5.0023,2.2122 5.5191,3.190108 7.5544,8.629908 4.35572,10.547026 7.22857,25.58562 3.9171,25.231576 C 306.8375,97.93089 304.025,96.0941 301,93.874 Z"
       id="path16"
       style="fill:#ef1605;fill-opacity:1"
       inkscape:connector-curvature="0"
       sodipodi:nodetypes="ccccccccccc" />
    <path
       d="m 321.5,152.28 c 2.7878,-1.7701 37.459,-19.786 56.206,-29.207 4.5136,-2.268 8.4754,-4.5588 8.8041,-5.0907 0.98555,-1.5946 -0.62439,-3.5274 -10.031,-12.043 -42.57656,-35.127953 -97.51129,-52.707829 -148.13566,-63.331539 -16.168,-1.5808 -39.57668,-1.167769 -55.29868,1.583471 -46.181,8.0813 -93.42066,26.749368 -136.55566,62.852368 -14.984,12.54 -14.794,11.561 1.2294,-6.338 30.386,-33.943 68.036,-60.062 104.76,-72.674 80.523,-27.654 172.67,0.38032 257.82,78.439 7.0396,6.4531 12.641,12.209 12.447,12.791 -0.3202,0.96061 -85.871,32.986 -91.746,34.345 -2.3278,0.53829 -2.2933,0.44689 0.5,-1.3266 z"
       id="path18"
       style="fill:#ffffff;fill-opacity:1"
       inkscape:connector-curvature="0"
       sodipodi:nodetypes="cccccccccccccc" />
  </g>
</svg>
