<?xml version="1.0" encoding="iso-8859-1"?>
<!-- Generator: Adobe Illustrator 19.0.0, SVG Export Plug-In . SVG Version: 6.00 Build 0)  -->
<svg version="1.1" id="Capa_1" xmlns="http://www.w3.org/2000/svg" xmlns:xlink="http://www.w3.org/1999/xlink" x="0px" y="0px"
	 viewBox="0 0 512 512" style="enable-background:new 0 0 512 512;" xml:space="preserve">
<path style="fill:#CAE8F9;" d="M466,90v254.801H15V75c0-16.5,13.499-30,30-30h376C445.902,45,466,65.099,466,90z"/>
<path style="fill:#57555C;" d="M421,30H45C20.098,30,0,50.099,0,75v254.801l31.802,31h414.401l34.797-31V90
	C481,57.001,453.999,30,421,30z M451,329.801H30V75c0-8.401,6.599-15,15-15h376c16.501,0,30,13.5,30,30V329.801z"/>
<path style="fill:#B7E0F6;" d="M466,90v254.801H241V45h180C445.902,45,466,65.099,466,90z"/>
<path style="fill:#3C3A41;" d="M481,90v239.801l-34.797,31H241v-31h210V90c0-16.5-13.499-30-30-30H241V30h180
	C453.999,30,481,57.001,481,90z"/>
<path style="fill:#FD003A;" d="M241,344.755c0,8.291-6.709,16-15,16H76c-8.291,0-15-7.709-15-16V301c0-49.629,40.371-90,90-90
	s90,40.371,90,90V344.755z"/>
<path style="fill:#57555C;" d="M330.099,492.201l-30-90c-1.802-6-7.8-10.201-14.099-10.201h-90c-6.299,0-12.297,4.2-14.099,10.201
	l-30,90C148.598,501.799,155.797,512,166,512h150C326.203,512,333.402,501.799,330.099,492.201z"/>
<path style="fill:#FD3C65;" d="M151,241c-33.076,0-60-26.909-60-60s26.924-60,60-60s60,26.909,60,60S184.076,241,151,241z"/>
<path style="fill:#3C3A41;" d="M316,512h-75V392h45c6.299,0,12.297,4.2,14.099,10.201l30,90C333.402,501.799,326.203,512,316,512z"
	/>
<path style="fill:#18A7FC;" d="M467,0H287c-24.902,0-45,20.099-45,45v120c0,24.901,20.098,45,45,45h15v45c0,6,3.6,11.4,9.302,13.801
	C316.7,271.2,323.299,270,327.5,265.5l49.5-49.199l6.299-6.301H467c24.902,0,45-20.099,45-45V45C512,20.099,491.902,0,467,0z"/>
<path style="fill:#1689FC;" d="M512,45v120c0,24.901-20.098,45-45,45h-83.701L377,216.301V0h90C491.902,0,512,20.099,512,45z"/>
<path style="fill:#CAE8F9;" d="M432.499,85.499L377,141l-4.501,4.499c-5.702,6-15.297,6-20.999,0l-30-30
	c-6.002-5.7-6.002-15.298,0-20.999c5.702-6,15.297-6,20.999,0L362,113.699l15-15L411.501,64.5c5.702-6,15.297-6,20.999,0
	C438.501,70.201,438.501,79.799,432.499,85.499z"/>
<path style="fill:#B7E0F6;" d="M432.499,85.499L377,141V98.699L411.501,64.5c5.702-6,15.297-6,20.999,0
	C438.501,70.201,438.501,79.799,432.499,85.499z"/>
<path style="fill:#787780;" d="M0,329.801V377c0,24.901,20.098,45,45,45h391c24.902,0,45-20.099,45-45v-47.199H0z"/>
<path style="fill:#57555C;" d="M481,329.801V377c0,24.901-20.098,45-45,45H241v-92.199H481z"/>
<path style="fill:#787780;" d="M391,497c0,8.401-6.599,15-15,15H106c-8.401,0-15-6.599-15-15s6.599-15,15-15h270
	C384.401,482,391,488.599,391,497z"/>
<path style="fill:#57555C;" d="M391,497c0,8.401-6.599,15-15,15H241v-30h135C384.401,482,391,488.599,391,497z"/>
<g>
</g>
<g>
</g>
<g>
</g>
<g>
</g>
<g>
</g>
<g>
</g>
<g>
</g>
<g>
</g>
<g>
</g>
<g>
</g>
<g>
</g>
<g>
</g>
<g>
</g>
<g>
</g>
<g>
</g>
</svg>
