<svg xmlns="http://www.w3.org/2000/svg" xmlns:xlink="http://www.w3.org/1999/xlink" width="39" height="23" viewBox="0 0 39 23"><defs><path id="a" d="M894 190.52c0-1.4 1.13-2.52 2.52-2.52h32.76c1.4 0 2.52 1.13 2.52 2.52v17.36c0 1.4-1.13 2.52-2.52 2.52h-32.76a2.52 2.52 0 0 1-2.52-2.52z"/><path id="b" d="M915.75 199.29c0 4.02-3.3 7.28-7.37 7.28a7.33 7.33 0 0 1-7.38-7.28c0-4.03 3.3-7.29 7.38-7.29a7.33 7.33 0 0 1 7.37 7.29"/><path id="c" d="M918.21 192a7.35 7.35 0 0 0-5.7 2.66H914c.21.24.4.5.57.77h-2.62c-.15.25-.3.5-.42.77h3.46c.12.25.22.51.31.77h-4.09c-.08.25-.15.51-.21.77h4.52a7.21 7.21 0 0 1-.22 3.86h-4.09c.09.26.2.52.32.77h3.46a6.3 6.3 0 0 1-.42.77h-2.62c.17.27.36.53.56.77H914c-.22.28-.47.54-.74.78a7.4 7.4 0 0 0 4.95 1.88 7.33 7.33 0 0 0 7.38-7.28c0-4.03-3.3-7.29-7.38-7.29"/><path id="d" d="M906.64 199.73c-.02.45-.25.75-.58.75-.17 0-.29-.11-.29-.3 0-.31.23-.46.69-.46l.18.01zm.58 1.34c.02-.22.17-1.16.24-1.59.04-.25.06-.44.06-.6 0-.58-.36-.88-1.05-.88-.29 0-.56.04-.96.16l-.11.68c.14-.05.46-.14.85-.14.37 0 .51.07.51.27 0 .06 0 .1-.03.2a2 2 0 0 0-.32-.03c-.89 0-1.41.43-1.41 1.16 0 .49.3.82.73.82.37 0 .64-.11.84-.36l-.01.31h.66z"/><path id="e" d="M904.21 201.7h-.8l.46-2.85-1.03 2.85h-.54l-.07-2.83-.48 2.83H901l.63-3.7h1.15l.07 2.07.7-2.07h1.28l-.62 3.7"/><path id="f" d="M918.64 199.73c-.02.45-.25.75-.58.75-.17 0-.29-.11-.29-.3 0-.31.23-.46.69-.46l.18.01zm.58 1.34c.02-.22.17-1.16.24-1.59.04-.25.06-.44.06-.6 0-.58-.36-.88-1.05-.88-.29 0-.56.04-.96.16l-.11.68c.14-.05.46-.14.85-.14.37 0 .51.07.51.27 0 .06 0 .1-.03.2a2 2 0 0 0-.32-.03c-.89 0-1.41.43-1.41 1.16 0 .49.3.82.73.82.37 0 .64-.11.84-.36l-.01.31h.66z"/><path id="g" d="M910.21 201.41c-.22.07-.39.1-.58.1-.41 0-.63-.23-.63-.66-.01-.13.06-.48.11-.8l.35-2.05h.79l-.09.45h.48l-.11.73h-.48l-.23 1.38c0 .15.09.22.28.22.09 0 .16-.01.21-.03l-.1.66"/><path id="h" d="M912.36 201.12c-.9 0-1.36-.46-1.36-1.34 0-1.02.59-1.78 1.39-1.78.66 0 1.08.42 1.08 1.09 0 .22-.03.43-.1.74h-1.58c-.06.43.22.61.69.61.28 0 .54-.05.83-.18l-.14.74c-.27.09-.53.13-.81.12zm-.01-2.44c-.25 0-.43.2-.5.54h.88c0-.06.08-.54-.38-.54z"/><path id="i" d="M907.3 199.02c0 .38.19.64.61.84.33.15.38.19.38.33 0 .19-.15.27-.46.27-.24 0-.46-.04-.72-.12l-.11.7c.18.03.34.07.83.08.85 0 1.24-.31 1.24-1 0-.41-.16-.66-.57-.84-.33-.15-.37-.18-.37-.32 0-.17.13-.25.39-.25.16 0 .37.02.58.05l.11-.7a6.02 6.02 0 0 0-.7-.06c-.9 0-1.21.46-1.21 1.02"/><path id="j" d="M916.6 198.92c.23 0 .43.05.72.19l.13-.8c-.12-.04-.53-.31-.88-.31-.54 0-.99.26-1.31.7-.46-.16-.65.15-.89.46l-.21.05.03-.31h-.74c-.1.93-.27 1.88-.41 2.81l-.04.2h.8c.13-.86.21-1.41.25-1.78l.3-.17c.05-.16.19-.22.47-.21-.03.19-.05.4-.05.61 0 .99.53 1.6 1.4 1.6.22 0 .41-.03.7-.11l.14-.84c-.26.13-.48.19-.68.19-.46 0-.74-.34-.74-.9 0-.81.42-1.38 1.01-1.38"/><path id="k" d="M923.79 198h.79l-.61 3.7h-.76l.04-.28a.95.95 0 0 1-.74.33c-.58 0-.96-.5-.96-1.25 0-.35.07-.68.19-.97-.28-.02-.41.19-.69.44l-.25 1.73h-.8l.04-.21c.14-.93.31-1.87.41-2.8h.74l-.04.45s.35.12.69.19c.24-.45.61-.75 1.01-.75.31 0 .55.2.76.49zm-1 3c.37 0 .64-.42.64-1.01 0-.38-.15-.59-.43-.59-.36 0-.62.42-.62 1.01 0 .39.14.59.41.59z"/><path id="l" d="M904.21 201.7h-.8l.46-2.85-1.02 2.85h-.55l-.07-2.83-.48 2.83H901l.63-3.7h1.15l.03 2.29.78-2.29h1.24l-.62 3.7"/><path id="m" d="M906.64 199.73c-.02.45-.25.76-.58.76-.17 0-.29-.12-.29-.31 0-.3.23-.46.69-.46l.18.01zm.58 1.34c.02-.22.17-1.16.24-1.59.04-.25.06-.44.06-.6 0-.57-.36-.88-1.05-.88-.29 0-.56.04-.96.16l-.11.67c.14-.04.46-.13.85-.13.37 0 .51.07.51.27 0 .06 0 .1-.03.2-.12-.02-.23-.02-.32-.02-.89 0-1.41.42-1.41 1.15 0 .49.3.82.73.82.37 0 .64-.11.84-.36l-.01.31h.66z"/><path id="n" d="M917.68 198.19l-.13.8c-.28-.14-.49-.2-.71-.2-.6 0-1.02.58-1.02 1.39 0 .56.28.9.75.9.19 0 .41-.06.68-.19l-.14.84c-.3.08-.49.11-.71.11-.86 0-1.4-.61-1.4-1.6 0-1.32.74-2.24 1.8-2.24.35 0 .77.15.88.19"/><path id="o" d="M919.64 199.73c-.02.45-.25.76-.58.76-.17 0-.29-.12-.29-.31 0-.3.23-.46.69-.46l.18.01zm.58 1.34c.02-.22.17-1.16.24-1.59.04-.25.06-.44.06-.6 0-.57-.36-.88-1.05-.88-.29 0-.56.04-.96.16l-.11.67c.14-.04.46-.13.85-.13.37 0 .51.07.51.27 0 .06 0 .1-.03.2-.12-.02-.23-.02-.32-.02-.89 0-1.41.42-1.41 1.15 0 .49.3.82.73.82.37 0 .64-.11.84-.36l-.01.31h.66z"/><path id="p" d="M911.21 201.41c-.22.07-.39.1-.58.1-.41 0-.63-.23-.63-.66-.01-.13.06-.48.11-.8l.35-2.05h.79l-.09.45h.41l-.11.73h-.41l-.23 1.37c0 .16.09.23.28.23.09 0 .16-.01.21-.03l-.1.66"/><path id="q" d="M912.36 201.12c-.9 0-1.36-.46-1.36-1.34 0-1.02.59-1.78 1.39-1.78.66 0 1.08.42 1.08 1.09 0 .22-.03.43-.1.74h-1.58c-.06.43.22.61.69.61.28 0 .54-.05.83-.18l-.14.74c-.27.09-.54.12-.81.12zm-.01-2.44c-.25 0-.43.2-.5.54h.88c0-.06.08-.54-.38-.54z"/><path id="r" d="M907.3 199.02c0 .38.19.64.61.84.33.15.38.19.38.33 0 .19-.15.27-.46.27-.24 0-.46-.04-.72-.12l-.11.7c.18.03.34.07.83.08.85 0 1.24-.31 1.24-1 0-.41-.16-.66-.57-.84-.33-.15-.37-.18-.37-.32 0-.17.13-.25.39-.25.16 0 .37.02.58.05l.11-.7a6.02 6.02 0 0 0-.7-.06c-.9 0-1.21.46-1.21 1.02"/><path id="s" d="M923.67 201.7l.04-.28a.96.96 0 0 1-.74.33c-.58 0-.97-.5-.97-1.25 0-1 .6-1.84 1.3-1.84.31 0 .55.12.77.41l.18-1.07h.79l-.61 3.7zm.21-1.71c0-.38-.15-.59-.43-.59-.36 0-.62.42-.62 1.01 0 .39.14.59.41.59.38 0 .64-.42.64-1.01z"/><path id="t" d="M920.45 198.03c-.1.93-.27 1.87-.41 2.81l-.04.2h.8c.29-1.84.36-2.2.81-2.15.07-.38.2-.71.3-.88-.34-.06-.52.12-.77.48.02-.16.06-.31.05-.46h-.74"/><path id="u" d="M914.45 198.03c-.1.93-.27 1.87-.41 2.81l-.04.2h.8c.29-1.84.36-2.2.81-2.15.07-.38.2-.71.3-.88-.34-.06-.52.12-.77.48.02-.16.06-.31.05-.46h-.74"/></defs><g transform="translate(-894 -188)"><use fill="#006" xlink:href="#a"/><use fill="#c00" xlink:href="#b"/><use fill="#f90" xlink:href="#c"/><use fill="#006" xlink:href="#d"/><use fill="#006" xlink:href="#e"/><use fill="#006" xlink:href="#f"/><use fill="#006" xlink:href="#g"/><use fill="#006" xlink:href="#h"/><use fill="#006" xlink:href="#i"/><use fill="#006" xlink:href="#j"/><use fill="#006" xlink:href="#k"/><g><use fill="#fff" xlink:href="#l"/></g><g><use fill="#fff" xlink:href="#m"/></g><g><use fill="#fff" xlink:href="#n"/></g><g><use fill="#fff" xlink:href="#o"/></g><g><use fill="#fff" xlink:href="#p"/></g><g><use fill="#fff" xlink:href="#q"/></g><g><use fill="#fff" xlink:href="#r"/></g><g><use fill="#fff" xlink:href="#s"/></g><g><use fill="#fff" xlink:href="#t"/></g><g><use fill="#fff" xlink:href="#u"/></g></g></svg>