<svg xmlns="http://www.w3.org/2000/svg" xmlns:xlink="http://www.w3.org/1999/xlink" width="39" height="23" viewBox="0 0 39 23"><defs><path id="a" d="M849 190.52c0-1.4 1.13-2.52 2.52-2.52h32.76c1.4 0 2.52 1.13 2.52 2.52v17.36c0 1.4-1.13 2.52-2.52 2.52h-32.76a2.52 2.52 0 0 1-2.52-2.52z"/><path id="b" d="M864 203.12l1.16-7.12h1.86l-1.16 7.12H864"/><path id="c" d="M873.57 196.3c-.36-.14-.94-.3-1.66-.3-1.84 0-3.13.97-3.14 2.35-.01 1.02.92 1.59 1.63 1.93.72.35.96.58.96.89 0 .48-.58.69-1.11.69-.75 0-1.14-.1-1.75-.37l-.24-.11-.26 1.59c.43.2 1.24.37 2.07.38 1.95 0 3.22-.95 3.24-2.43 0-.81-.49-1.43-1.57-1.94-.64-.33-1.04-.55-1.04-.88 0-.3.34-.61 1.07-.61.6-.01 1.04.13 1.39.27l.16.08.25-1.54"/><path id="d" d="M876.62 198.6l.24-.68.13.61.43 2.06h-1.54l.74-1.99zm.11-2.6c-.44 0-.78.13-.97.59l-2.76 6.53h1.95l.39-1.07h2.38l.23 1.07h1.72l-1.5-7.12z"/><path id="e" d="M862.59 196l-1.82 4.85-.2-.98a5.49 5.49 0 0 0-2.57-2.99l1.66 6.23h1.97l2.93-7.11h-1.97"/><path id="f" d="M859.02 196h-3l-.02.15c2.33.59 3.87 2.01 4.51 3.72l-.65-3.27c-.11-.45-.44-.58-.84-.6"/></defs><g transform="translate(-848 -188)"><use fill="#26337a" xlink:href="#a"/><use fill="#fffffe" xlink:href="#b"/><use fill="#fffffe" xlink:href="#c"/><g><use fill="#fffffe" xlink:href="#d"/></g><g><use fill="#fffffe" xlink:href="#e"/></g><g><use fill="#ec982d" xlink:href="#f"/></g></g></svg>