<?xml version="1.0" encoding="utf-8"?>
<!-- Generator: Adobe Illustrator 17.0.0, SVG Export Plug-In . SVG Version: 6.00 Build 0)  -->
<!DOCTYPE svg PUBLIC "-//W3C//DTD SVG 1.1//EN" "http://www.w3.org/Graphics/SVG/1.1/DTD/svg11.dtd">
<svg version="1.1" id="Слой_1" xmlns="http://www.w3.org/2000/svg" xmlns:xlink="http://www.w3.org/1999/xlink" x="0px" y="0px"
	 width="94px" height="94px" viewBox="0 0 94 94" enable-background="new 0 0 94 94" xml:space="preserve">
<g>
	<path fill="#FFFFFF" d="M35.576,45.737c0.279-0.701-0.398-1.297-0.492-2.072c0.493,0.191,1.048,0.265,1.401,0.571
		c1.042,0.901,2.04,1.861,2.988,2.862c0.828,0.874,1.636,1.785,2.324,2.77c0.951,1.362,1.781,2.81,2.665,4.22
		c0.112,0.178,0.232,0.351,0.44,0.487c-0.095-1.17-0.171-2.343-0.29-3.511c-0.178-1.754-0.393-3.505-0.578-5.258
		c-0.064-0.608-0.321-1.112-0.738-1.541c-0.557-0.573-1.12-1.141-1.69-1.701c-0.166-0.162-0.366-0.289-0.584-0.457
		c0.513-0.053,0.738-0.328,0.642-0.889c0.588,0.306,1.299-0.29,1.799,0.397c-0.132-0.717-0.263-1.434-0.395-2.152
		c0.032-0.028,0.064-0.056,0.097-0.084c0.199,0.125,0.426,0.222,0.59,0.382c0.298,0.291,0.587,0.314,0.932,0.102
		c0.135-0.083,0.3-0.118,0.452-0.174c0.027,0.034,0.053,0.067,0.08,0.101c-0.218,0.294-0.447,0.581-0.653,0.884
		c-0.443,0.653-0.286,0.998,0.489,1.039c0.338,0.018,0.681-0.038,1.056-0.062c0.018,0.071,0.061,0.248,0.131,0.532
		c0.177-0.537,0.321-0.971,0.476-1.44c0.691,0.358,0.545,1.435,1.394,1.484c-0.375,1.83-0.739,3.608-1.103,5.385
		c0.04,0.01,0.08,0.021,0.12,0.031c0.784-1.921,1.845-3.688,2.964-5.508c0.187,0.198,0.292,0.365,0.442,0.455
		c0.21,0.126,0.495,0.316,0.673,0.256c0.185-0.063,0.328-0.375,0.403-0.606c0.085-0.263,0.073-0.557,0.116-0.95
		c0.273,0.32,0.487,0.572,0.672,0.79c-0.844,1.385-1.679,2.754-2.514,4.124c0.025,0.023,0.05,0.047,0.075,0.07
		c0.817-0.418,1.629-0.843,2.451-1.251c0.8-0.397,1.604-0.787,2.416-1.161c0.928-0.428,1.863-0.843,2.804-1.242
		c0.147-0.062,0.351-0.04,0.516-0.003c1.022,0.228,2.064,0.222,2.786-0.721c0.293,0.257,0.46,0.812,0.989,0.553
		c0.174-0.085,0.249-0.371,0.367-0.56c0.17,0.101,0.417,0.248,0.737,0.438c0.014,0.079,0.045,0.258,0.075,0.429
		c-1.026,0.342-2.046,0.658-3.048,1.024c-1.15,0.42-2.299,0.85-3.42,1.341c-1.264,0.554-2.493,1.187-3.745,1.77
		c-0.267,0.125-0.361,0.28-0.342,0.578c0.183,2.813,0.348,5.627,0.526,8.44c0.205,3.253,0.409,6.507,0.637,9.759
		c0.021,0.302,0.185,0.602,0.318,0.887c0.251,0.539,0.526,1.067,0.797,1.596c0.076,0.148,0.17,0.286,0.32,0.533
		c0.289-0.544,0.554-0.983,0.758-1.449c0.144-0.328,0.371-0.453,0.694-0.453c1.323-0.002,2.646,0,3.97,0.006
		c0.387,0.002,0.627,0.174,0.762,0.567c0.145,0.425,0.379,0.819,0.641,1.368c0.199-0.359,0.311-0.607,0.464-0.827
		c0.596-0.861,0.752-1.82,0.793-2.85c0.173-4.328,0.391-8.654,0.595-12.98c0.124-2.643,0.233-5.287,0.392-7.928
		c0.039-0.64-0.1-1.137-0.595-1.536c-0.071-0.057-0.125-0.135-0.189-0.205c0.221-0.357,0.433-0.699,0.645-1.042
		c-0.027-0.041-0.053-0.082-0.08-0.122c-0.373,0.152-0.747,0.303-1.19,0.483c-0.417-0.493-0.918-1.085-1.418-1.677
		c-0.04,0.021-0.08,0.042-0.121,0.063c0.162,0.675,0.324,1.351,0.487,2.026c-0.04,0.02-0.081,0.04-0.121,0.06
		c-0.308-0.549-0.616-1.099-0.925-1.648c-0.047,0.015-0.095,0.03-0.142,0.045c-0.02,0.228-0.047,0.456-0.057,0.685
		c-0.032,0.68-0.312,1.007-0.997,1.04c-0.51,0.024-1.023-0.036-1.535-0.058c-0.054-0.831-0.103-1.568-0.151-2.306
		c-0.066-0.018-0.132-0.037-0.199-0.055c-0.464,0.653-0.929,1.306-1.419,1.996c-0.367-0.642-0.192-1.259-0.023-1.929
		c-0.314,0.131-0.551,0.23-0.86,0.358c0.029-0.283,0.05-0.491,0.066-0.645c-0.698-0.116-1.374-0.228-2.128-0.353
		c0.259,0.365,0.484,0.731,0.756,1.057c0.445,0.536,0.449,0.584-0.102,0.95c-0.1,0.066-0.174,0.177-0.247,0.276
		c-0.307,0.411-0.914,0.364-1.191-0.07c-0.256-0.402-0.554-0.777-0.833-1.164c-0.048,0.016-0.097,0.031-0.145,0.047
		c-0.149,0.696-0.297,1.392-0.427,2.001c-0.431-0.246-0.847-0.464-1.241-0.717c-0.131-0.084-0.22-0.246-0.306-0.386
		c-0.086-0.141-0.145-0.299-0.262-0.549c-0.242,0.503-0.437,0.909-0.655,1.362c-1.03-0.675-1.597-1.443-1.149-2.509
		c-0.446,0.401-0.992,0.824-1.449,1.327c-0.346,0.381-0.697,0.486-1.253,0.314c0.186-0.285,0.364-0.546,0.529-0.815
		c0.121-0.198,0.253-0.397,0.331-0.613c0.1-0.276-0.155-0.579-0.439-0.531c-0.302,0.051-0.599,0.135-1.019,0.233
		c-0.498-0.349-1.103-0.88-1.953-0.569c0.206,0.663,0.39,1.258,0.574,1.849c-0.866,0.425-1.163-0.434-1.808-0.645
		c0.088,0.509,0.169,0.981,0.25,1.451c-0.67,0.158-1.006-0.271-1.233-0.526c-0.445,0.137-0.793,0.205-1.103,0.353
		c-0.201,0.096-0.347,0.31-0.579,0.529c-0.182-0.305-0.383-0.642-0.588-0.986c-0.409,0.04-0.809,0.08-1.213,0.12
		c0.231,1.166,1.511,1.177,2.082,2.048c-0.35,0-0.636,0-0.962,0c0.028,0.271,0.049,0.48,0.085,0.836
		c-0.4-0.218-0.703-0.387-1.009-0.551c-0.287-0.153-0.569-0.469-0.876-0.007c-0.03,0.045-0.263,0.01-0.355-0.054
		c-0.265-0.184-0.506-0.403-0.879-0.569c0.03,0.341,0.022,0.691,0.099,1.021c0.102,0.441,0.269,0.867,0.411,1.299
		c0.065,0.197,0.16,0.4-0.124,0.509c-0.264,0.102-0.484,0.082-0.64-0.199c-0.222-0.399-0.459-0.789-0.696-1.179
		c-0.069-0.113-0.164-0.21-0.313-0.397c-0.068,0.357-0.115,0.609-0.172,0.911c-0.206-0.077-0.389-0.145-0.633-0.236
		c-0.157,0.35-0.316,0.706-0.507,1.135c-0.269-0.45-0.499-0.816-0.708-1.194c-0.14-0.253-0.273-0.289-0.516-0.108
		c-0.334,0.248-0.7,0.453-1.061,0.683c0-0.653,0-1.311,0-2.069c-0.588,0.528-1.121,1.007-1.655,1.486
		c-0.034-0.02-0.069-0.04-0.103-0.06c0.06-0.388,0.121-0.777,0.181-1.165c-0.605,0.933-1.054-0.036-1.628-0.109
		c0.132,0.562,0.665,1.057,0.187,1.737c-0.485-0.321-1.003-0.662-1.591-1.051c0,0.299,0.068,0.559-0.022,0.739
		c-0.067,0.134-0.339,0.166-0.615,0.285c-0.035,0.202-0.09,0.513-0.144,0.825c-0.042,0.013-0.083,0.025-0.125,0.038
		c-0.188-0.337-0.376-0.674-0.563-1.011c-0.036,0-0.073,0-0.109,0c-0.125,0.609-0.251,1.218-0.376,1.827
		c-0.036,0.001-0.071,0.003-0.107,0.004c-0.241-0.743-0.482-1.487-0.723-2.23c-0.043-0.008-0.085-0.016-0.128-0.024
		c-0.175,0.321-0.305,0.68-0.537,0.952c-0.215,0.252-0.54,0.411-0.816,0.611c-0.061-0.034-0.123-0.068-0.184-0.102
		c0.036-0.743,0.072-1.486,0.109-2.259c-0.478,0.379-0.93,0.912-1.657,0.895c-0.296-0.719-0.41-0.752-1.225-0.605
		c-0.242,0.044-0.515-0.089-0.819-0.149c0.213-0.375,0.371-0.653,0.595-1.047c-0.74,0.255-1.352,0.466-1.965,0.677
		c-0.028-0.045-0.057-0.089-0.085-0.134c0.361-0.302,0.722-0.603,1.172-0.98c-0.358-0.026-0.613-0.044-0.868-0.063
		c-0.015-0.033-0.03-0.065-0.045-0.098c0.646-0.342,1.292-0.684,1.904-1.007c-0.041-0.585-0.961-0.594-0.628-1.328
		c-0.875-0.094-1.706-0.184-2.537-0.274c0.002-0.039,0.005-0.079,0.007-0.118c0.995-0.077,1.991-0.154,2.986-0.231
		c0.013-0.057,0.025-0.114,0.038-0.172c-0.445-0.566-1.256-0.39-1.871-0.823c0.284-0.09,0.517-0.165,0.731-0.233
		c-0.295-0.599-0.578-1.174-0.922-1.873c0.966,0.351,1.846,0.671,2.726,0.992c0.019-0.035,0.039-0.069,0.058-0.104
		c-0.788-0.596-1.577-1.192-2.425-1.834c0.314-0.104,0.585-0.245,0.868-0.274c0.317-0.032,0.624,0.023,0.769-0.375
		c0.02-0.055,0.319-0.071,0.448-0.014c0.495,0.219,0.972,0.478,1.459,0.717c0.093,0.046,0.198,0.066,0.376,0.124
		c-0.105-0.372-0.191-0.678-0.311-1.101c0.825,0.184,1.559,0.347,2.396,0.534c-0.082-0.398-0.16-0.776-0.251-1.217
		c-0.394,0.088-0.761,0.17-1.072,0.239c0.46-0.608,0.929-1.228,1.463-1.933c-0.427-0.016-0.819-0.055-1.208-0.037
		c-0.432,0.02-0.721-0.141-0.904-0.591c0.331-0.15,0.661-0.298,1.068-0.482c-0.233-0.195-0.403-0.338-0.512-0.428
		c0.195-0.288,0.37-0.546,0.614-0.906c0.414,0,0.98,0,1.546,0c0.01-0.037,0.019-0.075,0.029-0.112
		c-0.736-0.315-1.473-0.63-2.209-0.945c0.01-0.036,0.02-0.071,0.03-0.107c0.881,0.178,1.763,0.357,2.644,0.535
		c0.034-0.037,0.068-0.074,0.102-0.111c-0.095-0.139-0.161-0.317-0.289-0.411c-0.533-0.389-1.085-0.752-1.628-1.127
		c-0.139-0.096-0.27-0.203-0.391-0.294c0.138-0.432,0.383-0.513,0.732-0.331c0.668,0.349,1.335,0.699,2.003,1.046
		c0.19,0.099,0.385,0.189,0.705,0.346c-0.143-0.313-0.228-0.498-0.347-0.76c0.249,0.038,0.433,0.067,0.745,0.115
		c-0.351-0.494-0.627-0.907-0.935-1.296c-0.059-0.074-0.243-0.084-0.362-0.067c-0.257,0.035-0.509,0.106-0.839,0.178
		c0.132-0.368,0.182-0.673,0.339-0.906c0.205-0.304,0.179-0.536-0.155-0.848c0.844-0.287,1.617-0.549,2.389-0.811
		c-0.002-0.044-0.004-0.089-0.006-0.133c-0.616,0-1.232,0-1.847,0c-0.006-0.045-0.011-0.091-0.017-0.136
		c0.532-0.255,1.065-0.51,1.634-0.783c-0.952-0.339-1.868-0.665-2.766-0.985c0.022-0.38,0.04-0.701,0.062-1.083
		c0.711,0.046,1.45,0.095,2.275,0.148c-0.165-0.414-0.3-0.75-0.423-1.056c0.476-0.041,0.992-0.085,1.507-0.129
		c0.012-0.045,0.025-0.091,0.037-0.136c-0.656-0.52-1.313-1.04-2.075-1.645c0.857,0.327,1.605,0.612,2.353,0.897
		c0.037-0.036,0.074-0.071,0.111-0.107c-0.308-0.577-0.617-1.154-0.983-1.84c0.763,0.522,1.432,0.98,2.102,1.437
		c0.029-0.037,0.059-0.074,0.088-0.111c-0.255-0.434-0.509-0.868-0.791-1.348c0.288-0.018,0.489-0.031,0.784-0.05
		c-0.095-0.378-0.181-0.722-0.305-1.217c1.079,0.511,2.033,0.963,3.077,1.458c0-0.581,0-1.083,0-1.674
		c0.296,0.135,0.495,0.226,0.754,0.344c-0.044-0.189-0.074-0.315-0.125-0.531c0.823,0.242,1.581,0.465,2.34,0.688
		c0.02-0.036,0.04-0.073,0.061-0.109c-0.661-0.445-1.322-0.891-1.983-1.336c0.013-0.027,0.025-0.054,0.038-0.08
		c0.731,0.255,1.462,0.511,2.193,0.766c0.022-0.024,0.043-0.048,0.065-0.072c-0.455-0.393-0.909-0.786-1.364-1.179
		c0.79,0.024,1.511,0.193,2.177,0.586c0.334,0.197,0.672,0.064,0.681-0.258c0.008-0.272-0.073-0.552-0.145-0.82
		c-0.036-0.131-0.119-0.268-0.221-0.359c-0.502-0.45-0.441-1.03-0.417-1.677c0.177,0.06,0.322,0.098,0.457,0.157
		c0.227,0.1,0.431,0.171,0.609-0.096c0.147-0.221,0.311-0.136,0.468,0.015c0.452,0.432,0.907,0.861,1.367,1.285
		c0.119,0.11,0.262,0.194,0.363,0.268c0.11-0.431,0.154-0.845,0.321-1.202c0.207-0.442,0.906-0.197,1.117-0.698
		c0.384,0.191,0.713,0.429,0.866,0.86c0.116,0.328,0.169,0.732,0.733,0.746c0.116-0.59,0.234-1.195,0.356-1.819
		c-0.147-0.061-0.286-0.119-0.426-0.177c0.005-0.022,0.011-0.045,0.016-0.067c0.677,0.126,1.354,0.252,2.013,0.375
		c0.041-0.285,0.076-0.523,0.125-0.857c-0.595-0.229-1.246-0.48-1.94-0.748c0.662-0.534,1.48-0.503,2.262-0.687
		c-0.076-0.193-0.141-0.358-0.247-0.628c0.494,0.132,0.907,0.242,1.363,0.363c-0.248-0.975-1.104-1.457-1.632-2.174
		c0.029-0.036,0.059-0.071,0.088-0.107c0.712,0.452,1.423,0.904,2.135,1.356c0.031-0.031,0.063-0.061,0.094-0.092
		c-0.241-0.332-0.535-0.639-0.707-1.003c-0.161-0.34-0.192-0.741-0.28-1.114c0.054-0.023,0.109-0.046,0.163-0.069
		c0.629,0.551,1.258,1.103,1.958,1.716c-0.206-0.845-0.783-1.584-0.32-2.462c0.465,0.616,0.929,1.231,1.429,1.893
		c0.13-0.215,0.208-0.344,0.285-0.472c0.745,0.4,0.745,0.4,1.458-0.642c0.138,0.271,0.262,0.513,0.392,0.767
		c0.416-0.021,0.64-0.221,0.743-0.626c0.114-0.449,0.288-0.882,0.539-1.31c0.12,0.666,0.239,1.331,0.359,1.997
		c0.055,0.009,0.11,0.019,0.165,0.028c0.569-0.558,0.831-1.465,1.797-1.593c-0.089,0.488-0.183,1.001-0.262,1.436
		c0.291,0.139,0.548,0.261,0.93,0.443c0.267-0.188,0.658-0.459,1.045-0.738c0.221-0.159,0.388-0.42,0.736-0.222
		c0.277,0.158,0.394,0.275,0.211,0.616c-0.164,0.305-0.308,0.704-0.243,1.017c0.041,0.202,0.457,0.395,0.737,0.463
		c0.406,0.099,0.841,0.081,1.389,0.122c-0.65,0.451-1.216,0.844-1.899,1.317c0.425,0.196,0.75,0.346,1.121,0.517
		c-0.072,0.209-0.166,0.479-0.259,0.75c0.021,0.011,0.042,0.021,0.063,0.032c0.292-0.408,0.584-0.816,0.955-1.334
		c0.219,0.549,0.393,0.985,0.589,1.475c0.502-0.63,0.652-0.085,0.864,0.266c0.341-0.203,0.573-0.621,1.039-0.39
		c0.044,0.022,0.208-0.16,0.291-0.267c0.267-0.345,0.522-0.7,0.782-1.051c0.044,0.016,0.087,0.032,0.131,0.048
		c-0.239,0.798-0.478,1.596-0.759,2.531c0.833-0.738,1.713-0.183,2.491-0.496c0.022,0.037,0.044,0.074,0.066,0.111
		c-0.107,0.252-0.214,0.503-0.382,0.899c0.781-0.462,1.446-0.855,2.112-1.248c0.008,0.022,0.017,0.044,0.025,0.066
		c-0.44,0.621-0.881,1.241-1.321,1.862c0.046,0.063,0.093,0.126,0.139,0.189c0.869-0.379,1.739-0.758,2.608-1.137
		c0.025,0.04,0.05,0.079,0.075,0.119c-0.686,0.474-1.371,0.947-2.093,1.445c0.824,0,1.58,0,2.452,0
		c-0.219,0.268-0.384,0.471-0.6,0.735c0.538,0.176,1.225-0.071,1.513,0.652c-0.34,0.178-0.714,0.374-1.208,0.633
		c0.601,0.126,1.067,0.223,1.651,0.345c-0.194,0.142-0.305,0.211-0.401,0.296c-0.197,0.176-0.503,0.332-0.557,0.547
		c-0.178,0.717-0.715,0.886-1.311,1.026c-0.179,0.042-0.35,0.122-0.648,0.23c0.36,0.175,0.615,0.298,0.895,0.434
		c-0.15,0.241-0.289,0.464-0.428,0.687c0.015,0.026,0.03,0.053,0.044,0.079c0.775-0.355,1.55-0.71,2.324-1.065
		c0.021,0.036,0.042,0.072,0.064,0.107c-0.133,0.201-0.266,0.401-0.453,0.683c0.374,0.022,0.66,0.04,0.946,0.057
		c0.019,0.033,0.039,0.067,0.058,0.1c-0.431,0.309-0.863,0.619-1.311,0.94c0.249,0.308,0.529,0.335,0.879,0.326
		c0.672-0.017,1.346,0.051,2.02,0.084c0.009,0.067,0.017,0.133,0.026,0.2c-0.13,0.056-0.257,0.122-0.391,0.166
		c-0.688,0.224-1.379,0.437-2.066,0.664c-0.385,0.127-0.696,0.769-0.532,1.118c0.041,0.087,0.192,0.152,0.302,0.171
		c0.419,0.07,0.845,0.177,1.262,0.153c0.284-0.017,0.557-0.229,0.836-0.354c0.358,0.42,0.737,0.865,1.154,1.353
		c0.898-0.66,1.728-0.367,2.57,0.385c-0.305,0.324-0.628,0.634-0.91,0.977c-0.28,0.341-0.519,0.716-0.777,1.077
		c0.033,0.048,0.065,0.096,0.098,0.145c0.466-0.156,0.933-0.313,1.399-0.469c0.022,0.037,0.045,0.074,0.067,0.111
		c-0.287,0.239-0.574,0.479-0.862,0.718c0.014,0.036,0.028,0.073,0.043,0.109c0.36-0.038,0.721-0.076,1.115-0.117
		c0,0.151,0,0.281,0,0.442c0.34,0.03,0.673,0.059,1.006,0.088c0.005,0.034,0.01,0.068,0.014,0.102
		c-0.522,0.222-1.044,0.444-1.565,0.667c0.005,0.035,0.01,0.069,0.015,0.104c0.209,0.023,0.426,0.019,0.624,0.078
		c0.194,0.057,0.368,0.181,0.554,0.27c0.232,0.111,0.459,0.235,0.701,0.317c0.249,0.084,0.513,0.125,0.787,0.297
		c-0.334,0.123-0.667,0.247-1.094,0.405c0.347,0.191,0.61,0.335,0.872,0.48c-0.005,0.04-0.011,0.079-0.016,0.119
		c-0.419,0.058-0.837,0.117-1.256,0.175c-0.002,0.034-0.003,0.067-0.005,0.101c0.373,0.162,0.745,0.323,1.208,0.524
		c-0.495,0.178-0.875,0.31-1.25,0.453c-0.099,0.038-0.262,0.111-0.262,0.169c-0.003,0.598-0.534,0.558-0.907,0.747
		c0.399,0.136,0.944-0.05,1.019,0.646c0.485-0.252,0.926-0.481,1.368-0.711c0.031,0.034,0.063,0.067,0.094,0.101
		c-0.281,0.412-0.562,0.823-0.862,1.263c1.51,0.013,1.606,0.31,0.903,1.504c0.819-0.204,1.583-0.395,2.371-0.591
		c-0.118,0.462-0.376,0.91-0.281,1.264c0.089,0.332,0.552,0.564,0.896,0.881c-0.8,0.189-1.622,0.383-2.444,0.577
		c0.001,0.036,0.002,0.072,0.003,0.108c0.418,0.082,0.836,0.163,1.365,0.266c-0.274,0.145-0.467,0.247-0.725,0.383
		c0.242,0.174,0.443,0.319,0.667,0.48c-0.492,0.205-0.94,0.392-1.485,0.619c0.865,0.349,1.619,0.653,2.373,0.957
		c-0.015,0.045-0.031,0.09-0.046,0.135c-0.849-0.167-1.698-0.333-2.547-0.5c-0.017,0.04-0.034,0.079-0.052,0.119
		c0.474,0.312,0.949,0.624,1.423,0.936c-0.014,0.035-0.028,0.07-0.042,0.105c-0.559-0.147-1.119-0.293-1.678-0.44
		c-0.02,0.036-0.041,0.071-0.061,0.107c0.52,0.392,1.041,0.784,1.561,1.176c-0.023,0.039-0.045,0.079-0.068,0.118
		c-0.557-0.214-1.114-0.428-1.671-0.643c-0.022,0.031-0.044,0.062-0.066,0.093c0.174,0.265,0.349,0.529,0.523,0.794
		c-0.023,0.035-0.046,0.07-0.068,0.104c-0.451-0.215-0.902-0.43-1.379-0.657c-0.082,0.451,0.593,0.905-0.129,1.304
		c-0.235-0.133-0.523-0.296-0.811-0.46c-0.028,0.024-0.057,0.049-0.085,0.073c0.183,0.466,0.365,0.932,0.548,1.399
		c-0.033,0.026-0.066,0.052-0.099,0.078c-0.361-0.226-0.756-0.413-1.073-0.69c-0.307-0.268-0.534-0.629-0.796-0.949
		c-0.052,0.016-0.104,0.032-0.156,0.049c0,0.89,0,1.779,0,2.697c-0.809-0.309-1.058-1.029-1.359-1.707
		c-0.042,0.005-0.083,0.01-0.125,0.015c-0.132,0.635-0.263,1.27-0.395,1.904c-0.046-0.001-0.091-0.002-0.137-0.003
		c-0.119-0.731-0.238-1.463-0.357-2.193c-0.083,0.015-0.123,0.01-0.137,0.027c-0.152,0.183-0.3,0.369-0.449,0.554
		c-0.199-0.232-0.399-0.463-0.594-0.698c-0.038-0.046-0.055-0.109-0.1-0.202c-0.772,0.425-0.658,1.486-1.413,1.955
		c-0.116-0.216-0.209-0.391-0.3-0.561c-0.681,0.137-0.776,0.246-0.804,0.871c-0.247,5.633-0.494,11.267-0.746,16.9
		c-0.073,1.636-0.166,3.27-0.251,4.931c0.125,0.063,0.257,0.111,0.367,0.19c0.328,0.237,0.477,0.544,0.294,0.941
		c-0.105,0.228-0.204,0.466-0.349,0.668c-0.375,0.522-0.463,1.107-0.485,1.73c-0.059,1.637-0.146,3.273-0.22,4.909
		c-0.007,0.153-0.001,0.306-0.001,0.511c0.304,0,0.568,0.005,0.831-0.001c0.349-0.007,0.53,0.136,0.514,0.506
		c-0.014,0.33-0.01,0.662-0.001,0.992c0.009,0.309-0.118,0.478-0.439,0.478c-0.565,0-1.13,0-1.751,0
		c0.176-2.268,0.349-4.505,0.525-6.766c-0.376,0.309-0.64,0.655-0.983,0.775c-0.439,0.154-0.761-0.147-0.953-0.588
		c0,0.778-0.006,1.556,0.007,2.333c0.002,0.111,0.07,0.252,0.154,0.327c1.248,1.111,1.283,2.553,0.997,4.011
		c-0.239,1.214-0.635,2.399-1,3.584c-0.209,0.678-0.822,0.956-1.462,0.736c-0.55-0.189-0.836-0.862-0.67-1.481
		c0.309-1.152,0.618-2.305,0.875-3.469c0.082-0.371,0.019-0.78-0.014-1.168c-0.034-0.385-0.312-0.602-0.663-0.63
		c-0.516-0.042-1.042-0.055-1.555-0.001c-0.606,0.064-0.896,0.377-0.809,1.05c0.138,1.069,0.4,2.124,0.626,3.181
		c0.095,0.444,0.253,0.875,0.343,1.32c0.102,0.504-0.226,1.049-0.686,1.211c-0.561,0.197-1.124,0.022-1.35-0.518
		c-0.762-1.822-1.405-3.678-1.235-5.705c0.068-0.804,0.403-1.47,0.995-2.026c0.149-0.14,0.258-0.391,0.268-0.596
		c0.033-0.671,0.012-1.345,0.012-2.155c-0.349,0.526-0.757,0.821-1.197,0.512c-0.339-0.238-0.53-0.687-0.82-1.087
		c0.043,0.721,0.081,1.404,0.124,2.086c0.048,0.754,0.089,1.51,0.158,2.262c0.029,0.313-0.153,0.697,0.251,0.915
		c0.023,0.012,0.015,0.089,0.015,0.136c0.001,0.563,0.001,1.127,0.001,1.745c-0.572,0-1.151,0.018-1.727-0.015
		c-0.113-0.006-0.296-0.202-0.307-0.323c-0.039-0.422-0.049-0.853,0.001-1.272c0.016-0.134,0.236-0.3,0.394-0.347
		c0.202-0.06,0.435-0.015,0.685-0.015c0-0.396,0.02-0.767-0.003-1.136c-0.105-1.682-0.195-3.365-0.352-5.042
		c-0.045-0.479-0.257-0.958-0.467-1.402c-0.216-0.455-0.259-0.815,0.16-1.178c0.108-0.093,0.131-0.337,0.121-0.507
		c-0.126-2.169-0.275-4.337-0.397-6.507c-0.134-2.374-0.238-4.75-0.37-7.124c-0.087-1.569-0.201-3.137-0.311-4.819
		c-0.386,0.201-0.718,0.358-1.034,0.542c-0.759,0.442-1.513,0.891-2.261,1.351c-0.105,0.065-0.198,0.199-0.232,0.32
		c-0.325,1.133-0.727,2.254-0.918,3.41c-0.133,0.806,0.008,1.662,0.062,2.493c0.356,5.473,0.395,10.953,0.364,16.435
		c-0.014,2.449,0.32,4.864,0.915,7.241c0.187,0.745,0.305,1.519,0.591,2.224c0.472,1.162,1.055,2.279,1.59,3.415
		c0.133,0.281,0.346,0.385,0.661,0.43c2.443,0.35,4.891,0.673,7.318,1.113c1.262,0.229,2.488,0.667,3.722,1.04
		c0.319,0.096,0.604,0.301,0.905,0.456c0,0.05-0.001,0.1-0.001,0.15c-0.273,0.075-0.542,0.197-0.819,0.218
		c-1.852,0.144-3.704,0.356-5.559,0.381c-6.361,0.085-12.722,0.132-19.083,0.128c-1.996-0.001-3.995-0.182-5.988-0.336
		c-0.601-0.047-1.19-0.269-1.777-0.438c-0.144-0.041-0.257-0.188-0.452-0.338c0.185-0.099,0.282-0.173,0.391-0.206
		c2.08-0.63,4.183-1.132,6.353-1.372c1.609-0.178,3.205-0.488,4.801-0.767c0.161-0.028,0.326-0.228,0.426-0.388
		c1.722-2.761,2.467-5.854,3.055-9.003c0.355-1.9,0.357-3.819,0.35-5.735c-0.01-3.07-0.111-6.14-0.105-9.21
		c0.002-0.968-0.392-1.77-0.758-2.591c-0.498-1.116-1.04-2.217-1.633-3.287c-1.068-1.926-2.251-3.782-3.691-5.455
		c-0.703-0.817-1.492-1.561-2.229-2.349C36.467,46.764,36.04,46.261,35.576,45.737z"/>
	<path fill="#FFFFFF" d="M58.569,66.389c-1.169,0.007-2.245-1.049-2.256-2.214c-0.012-1.198,1.036-2.264,2.24-2.277
		c1.178-0.013,2.25,1.064,2.249,2.261C60.8,65.323,59.74,66.382,58.569,66.389z"/>
	<path fill="#FFFFFF" d="M57.267,77.036c-0.025-0.491-0.065-0.956-0.067-1.421c-0.001-0.361,0.148-0.568,0.577-0.535
		c0.53,0.041,1.067,0.039,1.598,0c0.389-0.028,0.519,0.168,0.533,0.483c0.021,0.48,0.005,0.961,0.005,1.473
		C58.986,77.036,58.177,77.036,57.267,77.036z"/>
</g>
</svg>
