<?xml version="1.0" encoding="utf-8"?>
<!-- Generator: Adobe Illustrator 17.0.0, SVG Export Plug-In . SVG Version: 6.00 Build 0)  -->
<!DOCTYPE svg PUBLIC "-//W3C//DTD SVG 1.1//EN" "http://www.w3.org/Graphics/SVG/1.1/DTD/svg11.dtd">
<svg version="1.1" id="Слой_1" xmlns="http://www.w3.org/2000/svg" xmlns:xlink="http://www.w3.org/1999/xlink" x="0px" y="0px"
	 width="94px" height="94px" viewBox="0 0 94 94" enable-background="new 0 0 94 94" xml:space="preserve">
<g>
	<path fill="#FFFFFF" d="M57.495,75.976c-6.569,0-13.075,0-19.757,0c0-23.359,0-46.622,0-69.976c6.539,0,13.04,0,19.757,0
		C57.495,29.26,57.495,52.543,57.495,75.976z M40.322,26.439c4.982,0,9.76,0,14.609,0c0-1.035,0-1.963,0-2.946
		c-4.916,0-9.73,0-14.609,0C40.322,24.516,40.322,25.403,40.322,26.439z M54.929,50.116c-4.887,0-9.709,0-14.558,0
		c0,1.055,0,1.984,0,2.969c4.901,0,9.677,0,14.558,0C54.929,52.066,54.929,51.137,54.929,50.116z M54.924,36.767
		c-4.968,0-9.741,0-14.558,0c0,1.079,0,2.006,0,3.032c4.898,0,9.672,0,14.558,0C54.924,38.752,54.924,37.825,54.924,36.767z
		 M40.359,59.64c4.913,0,9.739,0,14.582,0c0-1.034,0-1.918,0-2.898c-4.887,0-9.677,0-14.582,0
		C40.359,57.722,40.359,58.651,40.359,59.64z M40.332,46.368c4.953,0,9.766,0,14.558,0c0-1.095,0-2.015,0-2.946
		c-4.92,0-9.695,0-14.558,0C40.332,44.431,40.332,45.314,40.332,46.368z M40.354,19.778c4.969,0,9.744,0,14.565,0
		c0-1.042,0-1.966,0-2.958c-4.897,0-9.676,0-14.565,0C40.354,17.835,40.354,18.763,40.354,19.778z M40.326,33.088
		c4.97,0,9.749,0,14.6,0c0-1.029,0-1.954,0-2.912c-4.923,0-9.737,0-14.6,0C40.326,31.199,40.326,32.083,40.326,33.088z
		 M54.948,63.463c-4.988,0-9.772,0-14.558,0c0,1.069,0,1.995,0,2.891c4.931,0,9.718,0,14.558,0
		C54.948,65.339,54.948,64.456,54.948,63.463z M40.357,73.001c4.891,0,9.679,0,14.569,0c0-1.024,0-1.949,0-2.965
		c-4.892,0-9.676,0-14.569,0C40.357,71.06,40.357,71.988,40.357,73.001z M54.839,13.104c0.13-0.85,0.044-3.053,0.044-3.053
		s-13.443,0.002-14.607,0.002c0,1.124,0,2.046,0,3.05C45.185,13.104,49.978,13.104,54.839,13.104z"/>
	<path fill="#FFFFFF" d="M59.62,10.171c4.808,0,9.546,0,14.426,0c0,25.189,0,50.37,0,75.675c-4.761,0-9.54,0-14.426,0
		C59.62,60.636,59.62,35.451,59.62,10.171z M65.619,50.268c-1.501,0-2.827,0-4.194,0c0,2.056,0,3.995,0,5.903
		c1.503,0,2.831,0,4.194,0C65.619,54.144,65.619,52.284,65.619,50.268z M61.385,38.473c1.52,0,2.842,0,4.153,0
		c0-2.058,0-3.99,0-5.894c-1.459,0-2.779,0-4.153,0C61.385,34.591,61.385,36.48,61.385,38.473z M65.595,59.1
		c-1.454,0-2.781,0-4.174,0c0,2.035,0,3.971,0,5.936c1.445,0,2.768,0,4.174,0C65.595,63.03,65.595,61.133,65.595,59.1z
		 M65.567,20.819c0-2.1,0-4,0-5.955c-1.435,0-2.762,0-4.127,0c0,2.05,0,3.994,0,5.955C62.869,20.819,64.157,20.819,65.567,20.819z
		 M61.383,47.319c1.523,0,2.845,0,4.156,0c0-2.059,0-3.991,0-5.893c-1.459,0-2.778,0-4.156,0
		C61.383,43.44,61.383,45.329,61.383,47.319z M61.384,82.712c1.522,0,2.844,0,4.154,0c0-2.06,0-3.991,0-5.889
		c-1.46,0-2.779,0-4.154,0C61.384,78.836,61.384,80.724,61.384,82.712z M65.54,29.687c0-2.114,0-4.044,0-5.956
		c-1.459,0-2.778,0-4.104,0c0,2.056,0,3.988,0,5.956C62.853,29.687,64.134,29.687,65.54,29.687z M61.404,73.874
		c1.472,0,2.8,0,4.119,0c0-2.061,0-4.002,0-5.933c-1.441,0-2.729,0-4.119,0C61.404,69.923,61.404,71.824,61.404,73.874z
		 M66.93,38.491c1.426,0,2.75,0,4.106,0c0-2.048,0-3.989,0-5.972c-1.419,0-2.706,0-4.106,0C66.93,34.532,66.93,36.483,66.93,38.491z
		 M66.913,56.155c1.51,0,2.835,0,4.152,0c0-2.037,0-3.936,0-5.896c-1.424,0-2.744,0-4.152,0
		C66.913,52.26,66.913,54.16,66.913,56.155z M71.063,47.36c0-2.097,0-3.996,0-5.952c-1.425,0-2.745,0-4.102,0
		c0,2.05,0,3.993,0,5.952C68.381,47.36,69.662,47.36,71.063,47.36z M71.028,82.766c0-2.103,0-4.042,0-5.992c-1.425,0-2.71,0-4.091,0
		c0,2.024,0,3.972,0,5.992C68.33,82.766,69.611,82.766,71.028,82.766z M66.924,59.049c0,2.085,0,4.035,0,5.975
		c1.481,0,2.813,0,4.103,0c0-2.067,0-4.009,0-5.975C69.62,59.049,68.38,59.049,66.924,59.049z M66.938,20.782
		c1.44,0,2.764,0,4.088,0c0-2.056,0-3.995,0-5.942c-1.426,0-2.71,0-4.088,0C66.938,16.864,66.938,18.812,66.938,20.782z
		 M71.119,67.962c-1.481,0-2.8,0-4.158,0c0,2.048,0,3.99,0,5.894c1.463,0,2.788,0,4.158,0
		C71.119,71.861,71.119,70.001,71.119,67.962z M71.071,29.677c0-2.088,0-3.987,0-5.972c-1.417,0-2.738,0-4.119,0
		c0,2.044,0,3.99,0,5.972C68.363,29.677,69.646,29.677,71.071,29.677z"/>
	<path fill="#FFFFFF" d="M21.169,10.165c4.803,0,9.528,0,14.438,0c0,25.26,0,50.403,0,75.676c-4.742,0-9.524,0-14.438,0
		C21.169,60.672,21.169,35.521,21.169,10.165z M33.834,56.205c0-2.071,0-4.013,0-5.912c-1.467,0-2.794,0-4.124,0
		c0,2.035,0,3.932,0,5.912C31.105,56.205,32.392,56.205,33.834,56.205z M24.248,32.521c0,2.12,0,4.051,0,5.944
		c1.459,0,2.774,0,4.079,0c0-2.062,0-3.99,0-5.944C26.9,32.521,25.621,32.521,24.248,32.521z M33.854,38.51c0-2.115,0-4.017,0-5.939
		c-1.448,0-2.775,0-4.107,0c0,2.061,0,4.002,0,5.939C31.183,38.51,32.471,38.51,33.854,38.51z M28.321,47.367
		c0-2.005,0-3.986,0-5.923c-1.483,0-2.81,0-4.101,0c0,2.046,0,3.948,0,5.923C25.623,47.367,26.912,47.367,28.321,47.367z
		 M24.193,20.813c1.468,0,2.782,0,4.162,0c0-2.048,0-3.983,0-5.985c-1.439,0-2.758,0-4.162,0
		C24.193,16.852,24.193,18.742,24.193,20.813z M29.743,23.699c0,2.096,0,4.029,0,5.919c1.466,0,2.786,0,4.158,0
		c0-2.024,0-3.914,0-5.919C32.47,23.699,31.15,23.699,29.743,23.699z M29.747,14.833c0,2.095,0,4.034,0,5.916
		c1.475,0,2.799,0,4.107,0c0-2.049,0-3.95,0-5.916C32.45,14.833,31.161,14.833,29.747,14.833z M24.158,56.179c1.5,0,2.823,0,4.17,0
		c0-2.053,0-3.991,0-5.885c-1.476,0-2.802,0-4.17,0C24.158,52.295,24.158,54.155,24.158,56.179z M29.676,76.737
		c0,2.051,0,3.994,0,5.987c1.476,0,2.801,0,4.231,0c0-2.058,0-4,0-5.987C32.427,76.737,31.093,76.737,29.676,76.737z M29.657,73.876
		c1.504,0,2.829,0,4.167,0c0-2.057,0-3.995,0-5.872c-1.477,0-2.802,0-4.167,0C29.657,70.005,29.657,71.862,29.657,73.876z
		 M24.123,82.741c1.52,0,2.84,0,4.423,0c0-1.769,0.047-3.446-0.039-5.117c-0.017-0.34-0.509-0.905-0.825-0.936
		c-1.149-0.114-2.316-0.045-3.559-0.045C24.123,78.763,24.123,80.66,24.123,82.741z M33.863,65.072c0-2.101,0-4.002,0-5.964
		c-1.437,0-2.764,0-4.126,0c0,2.048,0,3.988,0,5.964C31.162,65.072,32.449,65.072,33.863,65.072z M24.188,29.67
		c1.493,0,2.779,0,4.172,0c0-2.027,0-3.973,0-5.947c-1.449,0-2.778,0-4.172,0C24.188,25.737,24.188,27.639,24.188,29.67z
		 M28.338,65.073c0-1.973,0-3.918,0-5.923c-1.419,0-2.784,0-4.117,0c0,2.049,0,3.951,0,5.923
		C25.567,65.073,26.801,65.073,28.338,65.073z M28.387,67.99c-1.532,0-2.854,0-4.183,0c0,2.075,0,4.015,0,5.912
		c1.466,0,2.788,0,4.183,0C28.387,71.864,28.387,69.969,28.387,67.99z M33.876,47.375c0-2.08,0-3.981,0-5.92
		c-1.463,0-2.828,0-4.151,0c0,2.056,0,3.956,0,5.92C31.138,47.375,32.425,47.375,33.876,47.375z"/>
	<path fill="#FFFFFF" d="M21.141,90.582c0-1.224,0-2.291,0-3.483c17.65,0,35.246,0,52.943,0c0,1.146,0,2.252,0,3.483
		C56.481,90.582,38.886,90.582,21.141,90.582z"/>
	<path fill="#FFFFFF" d="M37.693,79.097c6.681,0,13.23,0,19.895,0c0,2.264,0,4.446,0,6.75c-1.583,0-3.132,0-4.842,0
		c0-1.674,0-3.348,0-5.162c-1.016,0-1.879,0-2.896,0c0,1.694,0,3.371,0,5.167c-1.47,0-2.794,0-4.296,0c0-1.728,0-3.451,0-5.252
		c-1.043,0-1.91,0-2.941,0c0,1.802,0,3.478,0,5.26c-1.714,0-3.263,0-4.922,0C37.693,83.612,37.693,81.433,37.693,79.097z"/>
</g>
</svg>
