<?xml version="1.0" encoding="utf-8"?>
<!-- Generator: Adobe Illustrator 17.0.0, SVG Export Plug-In . SVG Version: 6.00 Build 0)  -->
<!DOCTYPE svg PUBLIC "-//W3C//DTD SVG 1.1//EN" "http://www.w3.org/Graphics/SVG/1.1/DTD/svg11.dtd">
<svg version="1.1" id="Слой_1" xmlns="http://www.w3.org/2000/svg" xmlns:xlink="http://www.w3.org/1999/xlink" x="0px" y="0px"
	 width="94px" height="94px" viewBox="0 0 94 94" enable-background="new 0 0 94 94" xml:space="preserve">
<path fill="#FFFFFF" d="M13.642,12.28c3.417,0,6.374,0,9.6,0c1.249,12.031,0.976,23.929-0.657,35.833
	c4.128-11.524,4.73-23.624,5.485-35.781c0.613-0.064,1.03-0.135,1.448-0.144c0.867-0.019,1.734-0.006,2.933-0.006
	c-0.387,12.991-1.668,25.657-6.1,37.867c0.224,0.066,0.448,0.132,0.672,0.198c1.89-4.841,4.038-9.6,5.607-14.543
	c2.113-6.656,3.845-13.436,5.613-20.196c0.964-3.689,0.845-3.72,5.386-2.968c-1.096,6.071-2.026,12.176-3.323,18.203
	c-2.389,11.093-6.187,21.665-12.193,31.38c-0.448,0.725-0.487,2.031-0.166,2.851c2.787,7.115,4.79,14.423,5.551,22.031
	c0.085,0.85-0.465,2.281-1.119,2.584c-1.528,0.709-2.523-0.116-2.957-1.831c-1.261-4.983-2.635-9.937-3.987-14.896
	c-0.157-0.576-0.452-1.115-0.952-2.316c0.964,6.713,1.829,12.734,2.715,18.9c-1.535,0.164-2.553,0.273-3.581,0.383
	c-0.651-4.665-1.285-9.202-1.918-13.74c-0.224,0.001-0.447,0.003-0.671,0.004c0,2.763-0.079,5.528,0.017,8.287
	c0.185,5.312,0.226,5.31-5.094,5.276c-0.684-0.004-1.369-0.001-2.31-0.001c0-8.32,0-16.479,0-24.901c3.613,0,7.158,0,10.899,0
	c0.062-0.978,0.109-1.71,0.182-2.852c-3.812,0-7.427,0-11.078,0C13.642,45.116,13.642,28.728,13.642,12.28z"/>
<path fill="#FFFFFF" d="M73.075,14.432c0,21.379,0,42.429,0,63.717c-12.11,0-24.188,0-36.42,0c-0.396-1.583-0.793-3.167-1.262-5.044
	c2.934,0,5.686,0,8.722,0c0.053-1.167,0.131-2.088,0.132-3.01c0.011-6.296,0.277-12.606-0.053-18.885
	c-0.624-11.883,0.948-23.521,3.297-35.098c0.131-0.647,1.096-1.601,1.684-1.609C57.032,14.396,64.893,14.432,73.075,14.432z
	 M49.717,39.789c0,11.189,0,22.073,0,33.024c6.108,0,12.062,0,18.008,0c0-11.11,0-21.993,0-33.024
	C61.679,39.789,55.789,39.789,49.717,39.789z M49.758,19.969c0,4.835,0,9.492,0,14.167c6.085,0,11.974,0,17.912,0
	c0-4.814,0-9.456,0-14.167C61.568,19.969,55.676,19.969,49.758,19.969z"/>
<path fill="#FFFFFF" d="M10.982,9.445c0-1.737,0-3.267,0-4.945c24.212,0,48.279,0,72.56,0c0,1.615,0,3.202,0,4.945
	C59.403,9.445,35.329,9.445,10.982,9.445z"/>
</svg>
