<?xml version="1.0" encoding="utf-8"?>
<!-- Generator: Adobe Illustrator 17.0.0, SVG Export Plug-In . SVG Version: 6.00 Build 0)  -->
<!DOCTYPE svg PUBLIC "-//W3C//DTD SVG 1.1//EN" "http://www.w3.org/Graphics/SVG/1.1/DTD/svg11.dtd">
<svg version="1.1" id="Слой_1" xmlns="http://www.w3.org/2000/svg" xmlns:xlink="http://www.w3.org/1999/xlink" x="0px" y="0px"
	 width="256px" height="106px" viewBox="0 0 256 106" enable-background="new 0 0 256 106" xml:space="preserve">
<rect x="2.985" y="3" stroke="#000000" stroke-width="4" stroke-miterlimit="10" width="252.015" height="100.979"/>
<path fill="#E30613" stroke="#FF0000" stroke-miterlimit="10" d="M58.738,36.179c0,0-21.233,5.181-21.233,0c0-5.968-19.6,0-19.6,0
	V12.996c0,0,22.867-6.301,22.867-0.456c0,7.815,17.967,0.065,17.967,0.065V36.179z"/>
<path fill="#FFFFFF" d="M59.029,28.541c0,0-20.102,7.116-20.102,0c0-5.082-20.926,0-20.926,0v-8.835c0,0,21.336-5.182,21.336,0
	c0,7.714,19.692,0,19.692,0V28.541z"/>
<g>
	<path fill="#E30613" d="M67.7,39.863l-2.208,4.157v13.966h-7.146v-45.47h7.146v19.812l9.354-19.812h7.146l-9.938,20.267
		l9.938,25.204h-7.34L67.7,39.863z"/>
	<path fill="#FFFFFF" d="M92.163,52.279c-1.01,3.688-2.283,5.883-6.761,5.708v-1.8c2.81,0.044,3.819-1.186,4.565-3.6l1.273-3.731
		l-7.375-21.599h2.063l3.6,10.843l2.678,8.209l2.458-8.253l3.336-10.799h2.107L92.163,52.279z"/>
	<path fill="#FFFFFF" d="M109.198,29.1l-0.79,21.379c-0.176,4.17-0.878,7.463-5.4,7.551h-0.395v-1.844
		c3.468,0,3.688-2.591,3.775-5.664l0.922-23.267h11.458v30.73h-2.063V29.1H109.198z"/>
	<path fill="#FFFFFF" d="M128.12,39.9c4.917,0,7.156,2.414,7.156,7.287v3.336c0,4.478-1.844,7.463-6.629,7.463h-6.322v-30.73h2.02
		V39.9H128.12z M128.647,56.143c3.424,0,4.61-2.151,4.61-5.488v-3.6c0-3.731-1.58-5.312-5.137-5.312h-3.775v14.399H128.647z"/>
	<path fill="#FFFFFF" d="M144.322,57.987V29.1h-6.277v-1.844h14.574V29.1h-6.277v28.886H144.322z"/>
	<path fill="#FFFFFF" d="M163.375,52.279c-1.01,3.688-2.283,5.883-6.761,5.708v-1.8c2.81,0.044,3.819-1.186,4.565-3.6l1.273-3.731
		l-7.375-21.599h2.063l3.601,10.843l2.678,8.209l2.458-8.253l3.337-10.799h2.106L163.375,52.279z"/>
	<path fill="#FFFFFF" d="M180.673,27.257c4.741,0,6.585,2.985,6.585,7.463v3.336c0,4.873-2.238,7.287-7.111,7.287h-3.819v12.644
		h-2.02v-30.73H180.673z M180.147,43.499c3.556,0,5.092-1.581,5.092-5.312v-3.6c0-3.336-1.141-5.487-4.565-5.487h-4.346v14.399
		H180.147z"/>
	<path fill="#FFFFFF" d="M192.309,43.543v14.443h-2.02v-30.73h2.02V41.7h9.57V27.257h2.063v30.73h-2.063V43.543H192.309z"/>
	<path fill="#FFFFFF" d="M213.25,39.9c4.917,0,7.155,2.414,7.155,7.287v3.336c0,4.478-1.844,7.463-6.629,7.463h-6.321v-30.73h2.02
		V39.9H213.25z M213.777,56.143c3.425,0,4.609-2.151,4.609-5.488v-3.6c0-3.731-1.58-5.312-5.136-5.312h-3.775v14.399H213.777z
		 M225.323,27.257v30.73h-2.02v-30.73H225.323z"/>
	<path fill="#FFFFFF" d="M231.032,57.987h-2.195v-30.73h1.844v26.295l3.863-10.931l5.575-15.365h2.415v30.73h-1.845V30.812
		L231.032,57.987z M240.338,21.55c-0.044,2.371-1.888,3.731-4.434,3.731c-2.503,0-4.347-1.361-4.391-3.731h1.405
		c0.044,1.756,1.404,2.458,2.985,2.458c1.624,0,2.984-0.703,3.072-2.458H240.338z"/>
</g>
<g>
	<path fill="#E30613" d="M21.78,95.3h-7.146V49.83h7.146v19.488h8.12V49.83h7.275V95.3h-7.275V75.813h-8.12V95.3z"/>
	<path fill="#FFFFFF" d="M41.394,72.077c0-4.478,2.063-7.771,6.716-7.771c4.741,0,6.805,3.293,6.805,7.771v15.716
		c0,4.478-2.063,7.771-6.805,7.771c-4.653,0-6.716-3.293-6.716-7.771V72.077z M43.413,87.925c0,3.336,1.317,5.795,4.697,5.795
		c3.424,0,4.785-2.459,4.785-5.795V71.946c0-3.337-1.361-5.795-4.785-5.795c-3.38,0-4.697,2.458-4.697,5.795V87.925z"/>
	<path fill="#FFFFFF" d="M60.184,87.881c0,3.292,1.229,5.839,4.609,5.839c3.38,0,4.609-2.547,4.609-5.839V64.571h1.888v23.223
		c0,4.39-1.844,7.771-6.541,7.771s-6.585-3.381-6.585-7.771V64.571h2.02V87.881z"/>
	<path fill="#FFFFFF" d="M87.711,71.99v0.658H85.78v-0.79c0-3.249-1.229-5.707-4.566-5.707c-3.336,0-4.565,2.415-4.565,5.663
		c0,7.463,11.106,7.595,11.106,16.067c0,4.434-1.931,7.683-6.628,7.683s-6.629-3.249-6.629-7.683v-1.58h1.932v1.712
		c0,3.292,1.273,5.663,4.653,5.663s4.653-2.371,4.653-5.663c0-7.375-11.106-7.507-11.106-16.067c0-4.609,2.019-7.595,6.541-7.639
		C85.824,64.307,87.711,67.556,87.711,71.99z"/>
	<path fill="#FFFFFF" d="M101.409,78.794v1.844h-8.385v12.818h10.097V95.3H91.005V64.571h12.116v1.844H93.024v12.38H101.409z"/>
</g>
<g>
	<path fill="#FFFFFF" d="M118.964,86.308l-1.145,2.122v7.16h-1.12v-7.187l-1.12-2.096l-4.043,9.282h-1.169l4.457-10.422
		l-4.262-8.142h1.145l4.992,9.547v-9.547h1.12v9.547l4.993-9.547h1.169l-4.238,8.114l4.408,10.449h-1.145L118.964,86.308z"/>
	<path fill="#FFFFFF" d="M129.826,86.971l-2.777,8.619h-1.218V77.027h1.023v15.885l1.973-6.126l3.264-9.759h1.34V95.59h-1.023
		V79.174L129.826,86.971z"/>
	<path fill="#FFFFFF" d="M138.739,78.14L138.3,91.055c-0.098,2.52-0.487,4.509-2.995,4.562h-0.22v-1.113
		c1.924,0,2.046-1.565,2.095-3.422l0.512-14.055h6.355V95.59h-1.145V78.14H138.739z"/>
	<path fill="#FFFFFF" d="M145.947,81.561c0-2.705,1.145-4.693,3.726-4.693c2.63,0,3.774,1.988,3.774,4.693v9.494
		c0,2.705-1.145,4.694-3.774,4.694c-2.581,0-3.726-1.989-3.726-4.694V81.561z M147.067,91.135c0,2.016,0.73,3.5,2.605,3.5
		c1.899,0,2.654-1.484,2.654-3.5v-9.653c0-2.016-0.755-3.501-2.654-3.501c-1.875,0-2.605,1.485-2.605,3.501V91.135z"/>
	<path fill="#FFFFFF" d="M156.515,95.59h-1.218V77.027h1.023v15.885l2.143-6.604l3.093-9.281h1.34V95.59h-1.022V79.174
		L156.515,95.59z M161.678,73.578c-0.024,1.433-1.047,2.255-2.46,2.255c-1.388,0-2.41-0.822-2.435-2.255h0.779
		c0.024,1.062,0.779,1.485,1.655,1.485c0.901,0,1.656-0.424,1.705-1.485H161.678z"/>
	<path fill="#FFFFFF" d="M170.908,86.866l-1.169,2.015v6.71h-1.121V77.027h1.121v9.812l5.552-9.812h1.169l-4.87,8.646l5.188,9.918
		h-1.169L170.908,86.866z"/>
	<path fill="#FFFFFF" d="M178.384,81.561c0-2.705,1.145-4.693,3.726-4.693c2.63,0,3.774,1.988,3.774,4.693v9.494
		c0,2.705-1.145,4.694-3.774,4.694c-2.581,0-3.726-1.989-3.726-4.694V81.561z M179.504,91.135c0,2.016,0.73,3.5,2.605,3.5
		c1.899,0,2.654-1.484,2.654-3.5v-9.653c0-2.016-0.755-3.501-2.654-3.501c-1.875,0-2.605,1.485-2.605,3.501V91.135z"/>
	<path fill="#FFFFFF" d="M193.458,95.564h-1.12l-3.604-16.416V95.59h-0.999V77.027h1.607l3.58,16.415l3.556-16.415h1.607V95.59
		h-1.071V79.095L193.458,95.564z"/>
	<path fill="#FFFFFF" d="M201.154,78.14v17.45h-1.12V77.027h7.573V95.59h-1.145V78.14H201.154z"/>
	<path fill="#FFFFFF" d="M212.94,78.14l-0.438,12.915c-0.098,2.52-0.487,4.509-2.995,4.562h-0.22v-1.113
		c1.924,0,2.046-1.565,2.095-3.422l0.512-14.055h6.355V95.59h-1.145V78.14H212.94z"/>
	<path fill="#FFFFFF" d="M225.993,85.619v1.114h-4.651v7.743h5.601v1.114h-6.721V77.027h6.721v1.113h-5.601v7.479H225.993z"/>
	<path fill="#FFFFFF" d="M231.058,86.866l-1.169,2.015v6.71h-1.121V77.027h1.121v9.812l5.552-9.812h1.169l-4.87,8.646l5.188,9.918
		h-1.169L231.058,86.866z"/>
	<path fill="#FFFFFF" d="M245.888,81.561v1.538h-1.071v-1.617c0-1.989-0.707-3.501-2.582-3.501s-2.581,1.512-2.581,3.501v9.653
		c0,1.988,0.706,3.474,2.581,3.474s2.582-1.485,2.582-3.474v-2.201h1.071v2.121c0,2.679-1.071,4.694-3.678,4.694
		c-2.605,0-3.677-2.016-3.677-4.694v-9.494c0-2.678,1.071-4.693,3.677-4.693C244.817,76.868,245.888,78.883,245.888,81.561z"/>
</g>
</svg>
