<svg xmlns="http://www.w3.org/2000/svg" width="345.018" height="280.887" viewBox="0 0 91.285915 74.317892"><path d="M.699 16.6a27.266 27.266 0 0 0 1.7 1.72c.519.474.697.687.397.474C1.792 18.08.489 16.807.214 16.272c-.15-.291.068-.143.485.329zm.115 3.163c.448.263 1.474 1.168 2.28 2.012.806.844 1.49 1.499 1.517 1.455.029-.043.253-.61.499-1.259.368-.97.384-1.215.092-1.378-.195-.11-.642-.45-.992-.757-.46-.401-.343-.367.415.121 1.026.663 1.057.666 1.248.15.265-.715.43-.668.287.084-.086.446.05.691.5.908.339.163.466.305.282.314-.183.01.202.676.856 1.479 1.108 1.36 2.152 3.037 1.891 3.037-.062 0-.41-.506-.774-1.124-.745-1.27-2.76-3.638-3.095-3.638-.122 0-.41.57-.643 1.269-.408 1.227-.4 1.32.22 2.846.352.867.727 2.038.832 2.601l.193 1.025-1.572-1.067c-1.492-1.014-3.065-2.78-4.292-4.822-.378-.63-.556-1.375-.557-2.33L0 19.285zm.774-14.715c.81.386.96.508.623.508-.142 0-.489-.185-.771-.411-.485-.388-.476-.394.148-.097zm.415 2.36c.479 0 2.596 1.485 3.442 2.413.448.492 1.242 1.49 1.764 2.218.521.727 1.294 1.651 1.716 2.053l.767.73.644-.69a9.923 9.923 0 0 1 1.438-1.221c.437-.293.198.008-.53.668-1.562 1.417-1.476 1.623 1.06 2.548 2.415.88 3.963 2.003 6.002 4.354 1.022 1.177 2.168 2.403 2.547 2.724.38.321.628.645.553.72-.3.3-5.15-.45-6.936-1.074-1.185-.414-2.501-.668-3.49-.675-1.526-.01-1.542-.017-.412-.18l1.176-.168-1.087-.716c-.598-.394-1.544-1.264-2.102-1.932l-1.014-1.215-.628.74-.628.742.55-.938.55-.938-1.439-3.56c-1.894-4.69-2.189-5.225-3.287-5.97-.511-.348-.806-.633-.656-.633zm.85 53.578l.444-1.058.214 1.19c.117.656.303 1.804.413 2.553.11.749.373 1.572.585 1.83.354.428.342.442-.143.163-1.981-1.135-2.425-2.507-1.513-4.678zM3.69 2.254c.648-.111 2.108-.198 3.245-.193 1.723.007 2.344.139 3.73.787.914.428 2.101 1.164 2.638 1.635l.976.857.864-.537c.956-.594 2.306-1.966 3.618-3.679L19.624 0l5.732.006 5.733.006-1.853 1.208C26.874 2.762 22.615 4.9 19.01 6.356l-2.818 1.138.563 1.08c.627 1.203.587 1.034.98 4.117.157 1.232.427 2.41.6 2.618.263.318.208.345-.345.173-1.62-.503-3.007-1.347-3.764-2.29-.452-.561-1.01-1.022-1.24-1.025-.366-.004-.37-.035-.021-.258.338-.216.26-.516-.53-2.046L11.51 8.07l-1.778-.264c-1.09-.162-1.96-.451-2.25-.747-.453-.465-.436-.477.456-.325.51.087 1.272.06 1.693-.058l.767-.217-1.163-1.012c-1.325-1.151-4.017-2.526-5-2.554-.364-.01-.9-.113-1.191-.228-.426-.168-.299-.249.648-.41zM2.986 5.68c2.473.69 3.38 1.012 3.53 1.255.251.405-.915.08-2.613-.726-.764-.364-1.177-.602-.917-.53zm.77 25.663c.474.816 2.098 2.9 2.428 3.115.733.477 1.207.187 1.51-.922.636-2.337.766-2.533.701-1.058-.076 1.728.309 1.8 1.15.215l.623-1.174-.806-1.141c-1.506-2.131-1.495-2.444.013-.387.564.768.803.931.974.661.168-.265.227-.217.23.189.005.627.893 1.512 2.782 2.77 1.819 1.212 2.217 1.843 1.164 1.843-.336 0-1.28-.723-2.376-1.819l-1.819-1.819-.672 1.147c-.37.631-.839 1.242-1.043 1.356-.203.115-.737 1.445-1.185 2.956-.8 2.691-.814 2.848-.75 7.673.056 4.103-.003 5.053-.355 5.688l-.423.762-.43-1.717c-.238-.944-.792-2.478-1.232-3.408-.614-1.298-.8-2.059-.799-3.278.002-2.265.366-3.304 1.982-5.664.784-1.145 1.354-2.156 1.265-2.244-.089-.09-.447-.162-.796-.162-1.442 0-2.459-1.288-2.444-3.096.007-.88.045-.94.309-.486zM5.6 65.88c.121 0 .22.332.22.738 0 1.126 1.083 3.023 2.118 3.708.715.475.97.86 1.117 1.698.106.596.454 1.363.774 1.703.796.847.307.767-.9-.147-1.257-.952-1.932-1.81-2.588-3.293C5.77 69 5.247 65.88 5.6 65.88zm.143-2.973c.064.329.061.805-.005 1.058s-.118-.016-.115-.598c.003-.582.057-.79.12-.46zm.251-2.125c.073.18.077.536.01.794-.067.257-.126.11-.131-.326-.005-.437.05-.647.122-.468zm.272-1.037c.077.191.067.42-.02.507-.089.088-.151-.068-.14-.347.013-.308.076-.37.16-.16zm.265-1.323c.076.191.067.42-.021.507-.088.088-.15-.068-.14-.347.014-.308.076-.37.16-.16zm.264-1.058c.077.191.067.42-.02.507-.088.088-.151-.068-.14-.347.013-.308.076-.371.16-.16zm.9-15.944c.294.181 1.114 1.717.986 1.845-.05.049-.346-.38-.66-.954-.315-.574-.461-.975-.326-.891zm.243 23.931c.29-.156.529-.224.529-.15 0 .072-.238.259-.53.415-.29.155-.529.223-.529.15 0-.072.238-.26.53-.415zm.18-34.975c.077.191.067.42-.02.508-.089.087-.151-.069-.14-.348.013-.308.076-.37.16-.16zm.216 20.688l.345-1.191.005 1.455c.003.8-.06 1.293-.138 1.095-.121-.305-.179-.305-.372 0-.304.48-.257.082.16-1.36zm.287-29.348c.308.012.37.075.16.16-.191.076-.42.067-.507-.021-.088-.088.068-.15.347-.14zm.285 27.165c.074.182.074.48 0 .661-.073.182-.133.033-.133-.33 0-.364.06-.513.133-.331zm.495 15.066c.856-.973.849-.625-.008.394-.364.432-.658.688-.653.567.005-.12.302-.552.661-.96zm-.232-19.04c.073.18.077.536.01.794-.067.257-.126.11-.131-.326-.005-.437.05-.647.122-.468zm.014 2.125c.063.329.06.805-.005 1.058-.066.253-.118-.016-.115-.598.003-.582.057-.79.12-.46zm-.09 6.964c.052.06.238.408.41.772.298.623.292.632-.096.148-.337-.422-.632-1.283-.315-.92zm.961-27.539c.141.219.257.516.257.662 0 .145-.116.086-.257-.133-.14-.218-.256-.515-.256-.661 0-.145.115-.086.256.132zm.593 29.964c.514.546 1.086.993 1.273.993.186 0 .263.075.17.168-.092.092-.498-.053-.903-.324-.405-.27-.825-.465-.934-.432-.11.032-.199-.05-.199-.185 0-.133-.077-.46-.17-.727-.094-.267.25-.038.763.507zm-.153-28.707c.073.182.073.48 0 .662-.073.181-.133.033-.133-.331s.06-.513.133-.33zm.005 29.65c.076.191.067.42-.02.507-.089.088-.151-.068-.14-.347.013-.308.076-.371.16-.16zm.273 1.698c.06.398.061 1.112.003 1.588-.059.476-.108.15-.11-.723-.002-.873.047-1.262.107-.865zm2.986-21.228c.145 0 .276.387.29.86.026.815.038.825.239.199.117-.364.224-.476.238-.25.015.228.207.644.428.927.375.48.382.468.105-.18-.236-.555-.208-.844.145-1.455.242-.419.375-.548.295-.285-.084.271-.036.408.11.318.14-.087.502-.026.804.135.301.162.81.256 1.13.209.494-.072.422-.165-.477-.612-1.203-.599-1.446-1.364-.397-1.247.65.073.653.067.133-.359-.512-.418-.5-.43.33-.318.932.124 1.196-.284.331-.51-.776-.204-.645-.606.198-.61.567-.004.64-.061.331-.261-.313-.203-.258-.256.265-.251 1.51.012 2.645 1.233 3.317 3.57.25.867.614 1.892.81 2.278l.358.703-2.75.187c-2.223.152-2.907.11-3.566-.22-.94-.468-1.066-.226-.261.502.304.275.659.698.788.94.301.562-2.638-.89-3.128-1.547-.393-.526-.446-2.723-.066-2.723zm1.72 19.05c.455-.377.537-1.998.114-2.26-.156-.096-.2-.37-.097-.61.102-.24.177-.794.168-1.23-.017-.754.009-.736.517.361.644 1.39.499 2.605-.441 3.672-.353.401-.645.654-.65.563-.005-.091.17-.314.389-.496zm1.458-23.946c1.228-.635 2.149-.484 3.64.597.752.546 1.372 1.081 1.376 1.19.015.374-.654.196-1.712-.456-1.188-.731-2.656-.856-3.458-.294-.479.335-.538.321-.572-.134-.024-.315.252-.658.726-.903zm.41.557c.519-.16.763-.328.544-.374-.357-.073-1.486.369-1.486.582 0 .046.424-.047.942-.208zm1.308 8.143c1.014-.028 1.19.043 1.19.484 0 .436-.156.503-.993.43-.88-.078-1.376-.346-1.383-.749-.001-.073.532-.147 1.186-.165zm-.134-32.51c.458-.101.887-.128.954-.061.068.067-.257.199-.722.292-1.103.22-1.317.007-.232-.232zm.283-1.6c.155-.095.338-.117.408-.048.07.07-.058.197-.282.283-.467.18-.549.027-.126-.234zm1.702 1.254c.436.005.583.065.325.132-.257.067-.614.062-.793-.01-.18-.073.031-.128.468-.122zm.661-1.842c.51 0 .718.054.463.12a2.171 2.171 0 0 1-.926 0c-.254-.066-.046-.12.463-.12zm.425 28.513c.217 0 .673.324 1.014.72.564.656.58.75.185 1.05-.558.425-.83.43-.832.016 0-.182-.172-.658-.38-1.058-.334-.638-.332-.728.013-.728zm1.956-28.513c.51 0 .718.054.463.12a2.171 2.171 0 0 1-.926 0c-.254-.066-.046-.12.463-.12zm-.061 13.696c.162 0 .368.12.458.265.09.146.525.265.966.265.442 0 1.106.238 1.476.529 1.326 1.043 3.235.322 4.432-1.673.364-.608.663-.974.664-.814.005.544-1.53 2.41-2.45 2.979-1.066.658-2.785.745-3.844.194-.853-.443-2.122-1.745-1.702-1.745zm1.82-13.385c.457.072 1.23.316 1.72.542.705.326.752.387.226.298-.364-.061-1.138-.305-1.72-.542-.962-.391-.983-.419-.227-.298zm-.039 1.53c.437.006.583.066.326.133-.257.067-.615.062-.794-.01-.179-.073.032-.128.468-.122zm1.61.235c.308.012.37.075.16.16-.191.076-.42.067-.507-.021-.088-.088.068-.15.347-.14zm1.036.29c.291-.008 1.125.278 1.852.635.728.357 1.085.572.794.479a5.96 5.96 0 0 0-.97-.218 1.79 1.79 0 0 1-.794-.334c-.194-.158-.59-.346-.882-.417l-.53-.13zm.265-1.097c.145 0 .443.116.661.257.218.14.278.256.132.256-.145 0-.443-.115-.661-.256-.218-.141-.278-.257-.132-.257zm1.72.673c.363.097.84.287 1.058.422.276.17.195.191-.265.068-.364-.097-.84-.287-1.058-.422-.276-.17-.195-.191.264-.068zm1.614-2.515c.487-.02 2.162.527 2.026.663-.05.05-.62-.076-1.27-.278-.649-.202-.99-.376-.756-.385zm1.627 5.177c1.37.708 2.56 1.638 4.167 3.256 2.199 2.214 3.907 4.764 3.564 5.32-.276.446-.794-.142-2.07-2.353-1.332-2.305-3.493-4.486-5.926-5.98-.91-.558-1.654-1.064-1.654-1.124 0-.06.864.336 1.919.881zm-1.39-1.983c.219 0 .636.103.927.228.333.143.382.227.132.227-.218 0-.635-.102-.926-.227-.334-.144-.383-.228-.132-.228zm2.007.513c.308.013.37.075.16.16-.191.076-.42.067-.507-.021-.088-.088.068-.15.347-.139zm.772-2.565c.436.205 1.489.913 2.339 1.574.943.733 1.716 1.145 1.984 1.06.338-.107.357-.08.084.114-.267.192.148.59 1.676 1.613 1.117.747 1.92 1.358 1.786 1.358-.135 0-1.093-.595-2.13-1.323-1.813-1.273-1.955-1.324-3.811-1.368l-1.928-.046 1.72-.153 1.72-.153-1.62-1.19c-.89-.655-1.843-1.341-2.117-1.525-.293-.198-.172-.182.297.039zm2.341 15.906c.391-.852 1.495-1.981 1.495-1.529 0 .15-.178.7-.397 1.223-.452 1.083-.498 1.496-.165 1.496.127 0 .298-.327.38-.727.082-.4.341-.966.575-1.257.394-.49.395-.465.017.317-.555 1.148-.515 2.31.146 4.27.373 1.102.491 1.883.359 2.366-.182.665-.21.677-.358.165-.088-.306-.616-1.213-1.173-2.017-1.141-1.647-1.436-3.093-.879-4.307zm1.21-21.849c.667-.666.974-.773 2.222-.773 1.322 0 1.518.08 2.256.92.766.873 1.352 2.618.998 2.973-.09.09-.164-.138-.164-.506 0-.369-.243-.98-.54-1.357-.501-.637-.688-.685-2.58-.666-1.121.01-2.248.13-2.502.263-.687.361-.563.02.31-.854zm.79 22.642l.167-1.058.242.926.242.926.1-1.019c.093-.924.135-.974.456-.534.32.438.343.41.236-.304-.12-.785-.117-.784.411.171.56 1.012 2.103 2.472 2.351 2.223.08-.08-.17-.475-.555-.878-1.464-1.528-1.568-3.58-.124-2.445.926.729 1.147.675.609-.147-.693-1.057-.264-1.078.775-.039 1.049 1.049 1.212.836.384-.502-.618-1.002-.28-1.206.774-.468.87.61 1 .273.152-.393-.846-.666-.65-.715.562-.14 1.838.872 2.524 3.317 1.872 6.668a101.52 101.52 0 0 0-.567 3.159l-.17 1.118-1.024-.522c-.563-.287-1.671-.765-2.463-1.06-1.972-.739-3.494-1.9-4.134-3.154-.295-.578-.52-1.145-.499-1.26.02-.115.112-.686.204-1.268zm1.043 5.284c.166-.519.218-.51 1.533.282 1.342.807 1.442 1.071.733 1.937-.043.052-.62-.296-1.284-.773-.664-.476-1.195-.876-1.18-.887.014-.012.103-.264.198-.559zm.53-19.968c.174 0 .868-.506 1.544-1.124.942-.863 1.12-.956.76-.402-.512.79-2.196 1.948-2.455 1.688-.09-.089-.021-.162.152-.162zm2.173.123c.447-.23.918-.383 1.047-.338.128.046-.237.282-.812.526-1.24.526-1.387.408-.235-.188zm.909 3.743c.972.217 1.184.369.507.363a1.922 1.922 0 0 1-.904-.272c-.29-.196-.183-.221.397-.091zm.71 5.957c.536-.018 1.31.093 1.72.248.6.227.68.216.413-.054-.183-.185-.887-.4-1.566-.48-1.224-.143-1.228-.147-.549-.508 1.666-.887 3.648.403 4.7 3.058.335.847.788 1.747 1.005 2.002.358.42.343.463-.156.463-.566 0-1.054-.53-2.138-2.326-.726-1.204-1.86-1.948-3.346-2.195l-1.058-.175zm.877-10.3c.437.004.583.064.326.131-.258.067-.615.063-.794-.01-.18-.072.031-.127.468-.122zm1.135.233c.38-.023 2.437.973 2.437 1.18 0 .074-.447-.09-.992-.365a20.8 20.8 0 0 0-1.39-.646c-.261-.097-.28-.155-.055-.169zm1.268 4.234c.309.012.371.075.16.16-.19.076-.419.066-.507-.021-.088-.088.068-.15.347-.14zm1.014-2.239c.644.15.744.109.605-.252-.14-.364-.088-.384.326-.126.388.242.758.206 1.75-.173 1.888-.721 3.124-2.004 4.361-4.524.7-1.426 1.465-2.546 2.125-3.11.986-.845 3.63-2.297 4.183-2.297.144 0-.135.59-.62 1.313-.487.722-1.09 1.942-1.342 2.712-.637 1.95-1.06 2.72-2.186 3.977-.538.6-.777 1.017-.533.926.244-.091.9-.233 1.455-.316.654-.097.43.024-.632.341-1.684.503-5.585 2.095-5.993 2.446-.125.107.113.38.53.605.971.527.581.56-.43.036-.421-.217-.98-.325-1.245-.24-.36.117-.39.092-.12-.1.45-.322.19-.48-1.158-.703-.586-.096-1.24-.292-1.456-.435-.277-.184-.167-.207.38-.08zm.045 1.974c.308.013.37.075.16.16-.191.076-.42.067-.508-.021-.088-.088.069-.15.348-.139zm-.153 12.547c.113-.582.152-1.148.087-1.257-.066-.109-.024-.197.094-.194.506.01.78.478 1.038 1.782l.275 1.389h-.88c-.942 0-.946-.01-.614-1.72zm1.2-12.932c.665-.255.836-.18.3.132-.266.154-.539.225-.607.157-.068-.068.07-.198.306-.289zm3.958.387c.5.027 1.345.468.926.484-.219.008-.576-.101-.794-.242-.218-.141-.278-.25-.132-.242zm3.042.813c.364 0 .513.06.331.133-.182.074-.48.074-.661 0-.182-.073-.033-.133.33-.133zm2.779.31c1.018-.002 1.467.045.998.103-.47.059-1.304.06-1.852.002-.55-.057-.165-.105.854-.106zm1.058-5.328c.436.005.583.065.326.132-.258.067-.615.063-.794-.01-.18-.072.031-.127.468-.122zm1.72 5.018c.363 0 .512.06.33.133-.182.074-.48.074-.661 0-.182-.073-.033-.133.33-.133zm1.384 8.1c.761-.741 2.041-1.761 2.844-2.267 2.515-1.583 3.406-2.705 3.804-4.785.187-.98-.286-2.93-.755-3.11-.162-.063-.987.193-1.834.568-2.026.895-2.142.71-.175-.278.85-.427 1.494-.912 1.43-1.077-.16-.421-2.452-1.632-3.685-1.948l-1.029-.264 1.057.122c.581.067 1.768.475 2.638.906 1.786.885 1.929.84 2.767-.854.302-.61.55-.918.55-.685 0 .233-.358.918-.796 1.521-.89 1.23-.725 1.345.806.564.576-.294 1.048-.475 1.048-.402 0 .073-.483.379-1.074.68l-1.074.548.844.961c3.023 3.443 2.156 8.112-1.815 9.776-.479.2-1.889.542-3.133.759-1.244.217-2.609.574-3.032.793-1.194.617-.94-.014.614-1.528zm1.128-17.304c.679-1.134 1.993-1.96 3.084-1.939.534.01.482.086-.37.536-.547.288-.993.631-.993.763s-.536.601-1.19 1.043c-.655.442-1.19.778-1.189.746.001-.031.297-.548.658-1.15zm.02 8.52c.388-.098.756-.127.819-.064.062.062-.204.193-.592.29-.388.097-.756.126-.818.064-.063-.063.203-.193.591-.29zm4.047-10.205c.47-.001 2.417 1.945 2.416 2.415-.001.2-.238-.026-.527-.5-.29-.474-.914-1.1-1.388-1.388-.475-.29-.7-.526-.5-.527zm2.599 3.505c.066.254.066.671 0 .926-.067.254-.121.046-.121-.463 0-.51.054-.718.12-.463zm2.077 2.744c.665-.255.837-.18.3.132-.265.155-.538.225-.606.157-.068-.068.07-.198.306-.289zm1.47-.513c.306-.08.812-.049 1.125.068.443.165.32.217-.555.23-1.237.019-1.418-.076-.57-.298zm1.585 5.51c.497-.117 1.425-.184 2.062-.147.746.042 1.239-.061 1.385-.292.178-.28.227-.284.23-.014.002.188-.288.635-.645.992-.807.807-2.44.886-3.334.162l-.601-.487.903-.214zm.132-5.934c.308.012.37.075.16.16-.192.076-.42.066-.508-.021-.088-.088.069-.15.348-.14zm2.437-.252c1.648-.04 4.672.663 5.106 1.187.443.534-.13.477-1.874-.186-.799-.303-2.168-.645-3.043-.76l-1.59-.208zm-.495 1.607c.354.21.813.671 1.022 1.024.361.613.359.618-.055.113a9.568 9.568 0 0 0-1.021-1.024l-.588-.496zm1.788 3.072c.077.191.067.42-.02.507-.089.088-.151-.068-.14-.347.013-.308.076-.371.16-.16zm3.788-1.406c.146.09.265-.036.265-.281 0-.384.06-.396.446-.082.389.317.425.306.28-.08-.15-.404-.087-.41.736-.066 1.359.568 1.712.441.588-.21-.969-.562-1.322-1.246-.661-1.284.182-.01.092-.12-.199-.246-.424-.182-.32-.238.53-.28l1.058-.054-.926-.195-.926-.195 1.001-.034c.551-.02 1.295.157 1.653.391.637.418 2.24 2.404 2.24 2.777 0 .313-3.211 1.295-4.238 1.295-.662 0-1.14-.19-1.536-.613-.594-.631-.778-1.131-.31-.843zm2.175 1.72c.36 0 1.314-.227 2.122-.505l1.47-.506.691.721.69.721-1.703.339c-1.822.362-3.097.224-3.607-.39-.26-.313-.2-.38.337-.38z" fill="#ececec"/></svg>