<svg xmlns="http://www.w3.org/2000/svg" width="345.018" height="280.887" viewBox="0 0 91.285915 74.317892"><path d="M90.587 57.717a27.266 27.266 0 0 0-1.7-1.72c-.519-.474-.697-.686-.397-.473 1.004.714 2.307 1.987 2.582 2.522.15.291-.069.143-.485-.329zm-.115-3.162c-.448-.263-1.474-1.168-2.28-2.012-.807-.844-1.49-1.499-1.517-1.455-.029.043-.253.61-.499 1.259-.368.97-.384 1.215-.092 1.378.195.11.642.45.992.757.46.401.343.367-.415-.122-1.026-.662-1.057-.665-1.248-.15-.265.716-.43.668-.287-.083.086-.446-.05-.691-.5-.908-.339-.163-.466-.305-.282-.314.183-.01-.202-.676-.856-1.479-1.108-1.36-2.152-3.037-1.891-3.037.062 0 .41.506.774 1.124.745 1.27 2.76 3.638 3.095 3.638.122 0 .41-.57.643-1.269.407-1.228.4-1.32-.22-2.846-.352-.867-.727-2.038-.833-2.601l-.192-1.025 1.572 1.067c1.492 1.014 3.065 2.78 4.291 4.822.38.63.557 1.375.558 2.33v1.404zm-.774 14.715c-.81-.386-.96-.508-.623-.508.142 0 .489.185.771.411.485.388.476.394-.148.097zm-.416-2.36c-.478 0-2.595-1.485-3.441-2.413-.448-.492-1.242-1.49-1.764-2.218-.522-.727-1.294-1.651-1.716-2.053l-.767-.73-.644.69c-.354.38-1.002.929-1.438 1.221-.437.293-.199-.008.53-.668 1.562-1.417 1.476-1.623-1.06-2.548-2.415-.88-3.963-2.003-6.002-4.354-1.022-1.178-2.168-2.404-2.547-2.725-.38-.32-.629-.645-.554-.72.3-.3 5.151.452 6.937 1.075 1.185.414 2.501.668 3.49.675 1.525.01 1.541.017.412.18l-1.176.168 1.087.716c.598.394 1.544 1.264 2.102 1.932l1.014 1.215.628-.741.627-.741-.549.938-.55.938 1.439 3.56c1.894 4.69 2.189 5.225 3.287 5.97.511.348.806.633.655.633zm-.849-53.579l-.444 1.059-.214-1.19a97.828 97.828 0 0 1-.413-2.553c-.11-.749-.373-1.572-.585-1.83-.354-.428-.342-.442.143-.164 1.981 1.136 2.425 2.508 1.513 4.678zm-.838 58.733c-.648.111-2.108.198-3.245.193-1.723-.007-2.345-.14-3.73-.787-.914-.428-2.101-1.164-2.638-1.635l-.976-.857-.864.537c-.956.594-2.306 1.966-3.618 3.678l-.862 1.125-5.732-.006-5.733-.006 1.852-1.208c2.363-1.542 6.622-3.68 10.227-5.136l2.818-1.138-.563-1.08c-.627-1.203-.587-1.034-.98-4.117-.157-1.232-.427-2.41-.6-2.618-.264-.318-.208-.346.345-.174 1.62.504 3.007 1.348 3.764 2.29.452.562 1.01 1.023 1.24 1.025.366.004.369.036.021.258-.338.217-.26.517.53 2.047l.926 1.792 1.778.265c1.09.162 1.96.451 2.25.747.452.465.436.477-.457.325-.509-.087-1.27-.06-1.693.058l-.766.217 1.163 1.011c1.325 1.152 4.016 2.527 5 2.555.364.01.9.113 1.191.228.426.168.299.249-.648.41zm.705-3.426c-2.473-.69-3.38-1.012-3.531-1.255-.25-.405.916-.08 2.614.726.764.363 1.177.601.917.529zm-.77-25.663c-.474-.817-2.098-2.9-2.428-3.115-.733-.477-1.207-.187-1.51.922-.636 2.337-.766 2.533-.701 1.058.075-1.728-.31-1.8-1.15-.215l-.623 1.174.806 1.141c1.506 2.13 1.495 2.444-.013.387-.564-.769-.803-.931-.974-.661-.168.265-.227.217-.23-.189-.005-.627-.894-1.512-2.783-2.77-1.818-1.212-2.216-1.843-1.163-1.843.335 0 1.28.723 2.376 1.819l1.819 1.819.672-1.148c.37-.63.839-1.24 1.043-1.356.203-.114.737-1.444 1.185-2.955.8-2.691.814-2.848.75-7.673-.056-4.103.003-5.053.355-5.688l.422-.762.432 1.717c.237.944.79 2.478 1.23 3.408.615 1.298.8 2.059.8 3.278-.002 2.265-.366 3.304-1.982 5.664-.785 1.145-1.354 2.156-1.265 2.244.089.09.447.162.796.162 1.442 0 2.459 1.288 2.444 3.096-.007.88-.045.94-.309.486zM85.685 8.437c-.122 0-.22-.332-.22-.738 0-1.126-1.083-3.023-2.118-3.709-.715-.474-.97-.86-1.117-1.697-.106-.596-.454-1.363-.774-1.704-.796-.846-.307-.766.9.148 1.257.951 1.932 1.81 2.588 3.293.57 1.287 1.094 4.407.74 4.407zm-.143 2.973c-.064-.329-.061-.805.005-1.058s.118.016.115.598c-.003.582-.058.79-.12.46zm-.251 2.125c-.073-.18-.077-.536-.01-.794.067-.257.126-.11.131.326.005.436-.05.647-.122.468zm-.272 1.037c-.077-.191-.067-.42.02-.507.089-.088.151.068.14.347-.013.308-.076.37-.16.16zm-.265 1.323c-.076-.191-.067-.42.021-.508.088-.087.15.069.139.348-.013.308-.075.37-.16.16zm-.264 1.058c-.077-.191-.067-.42.02-.507.088-.088.15.068.14.347-.013.308-.076.371-.16.16zm-.9 15.944c-.294-.181-1.114-1.717-.986-1.845.05-.049.346.38.66.954.315.574.461.975.326.89zm-.243-23.931c-.29.156-.529.223-.529.15 0-.072.238-.259.53-.415.29-.156.529-.223.529-.15 0 .072-.239.26-.53.415zm-.18 34.974c-.077-.19-.067-.419.02-.507.088-.088.151.069.14.348-.013.308-.076.37-.16.16zm-.216-20.687l-.345 1.19-.005-1.454c-.003-.8.06-1.293.138-1.095.121.305.179.305.372 0 .304-.48.257-.082-.16 1.36zm-.287 29.348c-.308-.013-.371-.075-.16-.16.191-.076.42-.067.507.021.088.088-.068.15-.347.14zm-.286-27.165a1.021 1.021 0 0 1 0-.661c.074-.182.134-.033.134.33 0 .364-.06.513-.134.331zm-.494-15.066c-.856.973-.849.625.008-.394.364-.432.658-.688.653-.567-.005.12-.302.552-.662.96zm.232 19.04c-.073-.18-.077-.536-.01-.794.067-.257.126-.11.131.326.005.436-.05.647-.122.468zm-.014-2.125c-.063-.329-.061-.805.005-1.058s.118.016.115.598c-.003.582-.057.79-.12.46zm.09-6.964c-.052-.06-.238-.408-.41-.772-.298-.624-.292-.632.096-.148.337.422.632 1.283.315.92zm-.961 27.539c-.141-.219-.257-.516-.257-.662 0-.145.116-.086.257.132.14.219.256.516.256.662 0 .145-.115.086-.256-.132zm-.593-29.964c-.514-.546-1.086-.993-1.273-.993-.187 0-.263-.075-.171-.168.092-.092.5.053.904.324.405.27.825.465.934.432.11-.032.199.05.199.184s.076.461.17.728c.094.267-.25.038-.763-.507zm.153 28.707a1.021 1.021 0 0 1 0-.662c.073-.182.133-.033.133.331s-.06.513-.133.33zm-.005-29.65c-.076-.191-.067-.42.02-.507.089-.088.151.068.14.347-.013.308-.076.371-.16.16zm-.273-1.699c-.06-.397-.062-1.112-.003-1.587.059-.476.108-.15.11.723.002.873-.047 1.262-.107.864zm-2.986 21.228c-.145 0-.276-.386-.29-.86-.026-.814-.038-.825-.24-.198-.116.364-.223.476-.237.25-.015-.228-.207-.644-.428-.927-.375-.48-.382-.468-.106.18.237.555.208.844-.144 1.455-.243.419-.375.547-.295.285.084-.271.036-.408-.11-.318-.14.087-.502.026-.804-.135-.302-.162-.81-.256-1.13-.209-.494.072-.422.165.477.612 1.203.599 1.446 1.364.397 1.246-.65-.073-.653-.066-.133.36.512.418.5.43-.33.318-.932-.124-1.196.284-.331.51.776.204.645.606-.199.61-.567.004-.64.061-.33.261.313.203.258.255-.265.251-1.51-.012-2.645-1.233-3.317-3.57-.25-.867-.614-1.892-.81-2.278l-.358-.703 2.75-.187c2.223-.152 2.907-.11 3.566.219.94.469 1.066.227.261-.501-.304-.276-.659-.698-.788-.94-.301-.562 2.638.89 3.128 1.547.393.526.446 2.722.066 2.722zm-1.72-19.05c-.455.378-.537 2-.114 2.26.155.097.2.372.097.612-.102.24-.178.793-.168 1.23.017.753-.009.735-.517-.362-.644-1.391-.499-2.605.441-3.672.353-.401.645-.654.65-.563.005.091-.17.314-.389.495zM74.35 41.38c-1.228.635-2.149.484-3.64-.597-.753-.546-1.372-1.082-1.376-1.19-.015-.374.654-.196 1.712.455 1.188.732 2.656.857 3.458.295.479-.335.538-.321.572.134.024.315-.252.658-.726.903zm-.41-.558c-.52.16-.763.329-.544.375.356.073 1.486-.369 1.486-.582 0-.046-.424.047-.943.207zm-1.308-8.142c-1.015.028-1.19-.043-1.19-.484 0-.436.155-.503.993-.43.88.077 1.376.346 1.383.749.001.073-.532.147-1.186.165zm.134 32.51c-.458.101-.887.128-.955.06-.067-.067.258-.198.723-.29 1.103-.221 1.317-.008.232.23zm-.283 1.6c-.155.095-.339.117-.408.047-.07-.069.058-.196.282-.282.466-.18.549-.027.126.234zm-1.702-1.254c-.436-.005-.583-.065-.326-.132.258-.067.615-.062.794.01.18.073-.031.128-.468.122zm-.661 1.842c-.51 0-.718-.054-.463-.12.254-.067.671-.067.926 0 .254.066.046.12-.463.12zm-.426-28.513c-.216 0-.672-.324-1.013-.72-.564-.656-.58-.75-.185-1.05.558-.425.83-.43.832-.016 0 .182.172.658.38 1.058.334.638.332.728-.014.728zm-1.956 28.513c-.509 0-.717-.054-.463-.12.255-.067.672-.067.926 0 .255.066.047.12-.463.12zM67.8 53.68a.606.606 0 0 1-.458-.264c-.09-.146-.525-.265-.967-.265-.44 0-1.105-.238-1.475-.529-1.326-1.043-3.236-.322-4.432 1.673-.364.608-.663.974-.665.814-.005-.544 1.531-2.41 2.451-2.979 1.066-.658 2.785-.745 3.844-.195.853.444 2.122 1.745 1.702 1.745zm-1.82 13.386c-.457-.072-1.23-.317-1.72-.542-.705-.326-.752-.387-.226-.298.364.061 1.138.305 1.72.542.962.391.983.418.227.298zm.039-1.53c-.437-.006-.583-.066-.326-.133.257-.067.615-.062.794.01.179.073-.032.128-.468.122zm-1.61-.235c-.308-.013-.37-.075-.16-.16.191-.076.42-.067.507.021.088.088-.068.15-.347.14zm-1.036-.29c-.291.008-1.125-.278-1.852-.635-.728-.357-1.085-.572-.794-.479.291.094.728.192.97.218.243.026.6.176.794.334.194.158.59.345.882.417l.529.13zm-.265 1.097c-.145 0-.443-.116-.661-.257-.219-.14-.278-.256-.133-.256.146 0 .444.115.662.256.218.141.278.257.132.257zm-1.72-.673c-.363-.097-.84-.287-1.058-.422-.276-.17-.195-.191.265-.068.363.097.84.287 1.058.422.276.17.195.19-.265.068zm-1.614 2.515c-.487.02-2.162-.527-2.027-.663.05-.05.622.076 1.27.278.65.202.99.375.757.385zm-1.627-5.178c-1.37-.707-2.56-1.637-4.167-3.255-2.199-2.214-3.907-4.764-3.564-5.32.276-.446.794.142 2.07 2.353 1.332 2.305 3.493 4.486 5.926 5.98.91.558 1.654 1.064 1.654 1.124 0 .06-.864-.336-1.919-.882zm1.39 1.984c-.219 0-.636-.103-.927-.228-.333-.143-.382-.227-.132-.227.218 0 .635.102.926.227.334.144.383.228.132.228zm-2.007-.513c-.308-.013-.371-.076-.16-.16.191-.076.42-.067.507.02.088.089-.068.151-.347.14zm-.772 2.565c-.436-.205-1.489-.914-2.339-1.574-.943-.733-1.716-1.146-1.984-1.06-.338.107-.357.08-.084-.114.267-.192-.148-.59-1.676-1.613-1.117-.747-1.92-1.358-1.786-1.358.135 0 1.093.595 2.13 1.323 1.813 1.273 1.955 1.324 3.811 1.368l1.928.046-1.72.153-1.72.152 1.62 1.191c.89.655 1.843 1.341 2.116 1.525.294.198.173.182-.296-.039zm-2.341-15.906c-.391.852-1.495 1.98-1.495 1.529 0-.15.178-.7.397-1.223.452-1.083.498-1.496.165-1.496-.127 0-.299.327-.38.727-.082.4-.341.966-.575 1.257-.394.49-.396.465-.017-.318.555-1.147.515-2.31-.146-4.268-.373-1.104-.491-1.884-.36-2.367.183-.665.21-.678.358-.165.089.306.617 1.213 1.174 2.017 1.141 1.647 1.436 3.092.879 4.307zm-1.21 21.849c-.667.666-.974.773-2.222.773-1.322 0-1.518-.08-2.256-.92-.766-.873-1.353-2.619-.998-2.973.09-.09.164.138.164.506 0 .369.243.979.54 1.357.501.637.688.685 2.58.666 1.121-.01 2.247-.13 2.502-.263.687-.361.563-.02-.31.854zm-.79-22.642l-.167 1.058-.242-.926-.242-.926-.101 1.019c-.092.924-.134.973-.456.534-.32-.438-.342-.41-.235.304.119.785.117.784-.411-.172-.56-1.011-2.103-2.47-2.352-2.223-.08.08.17.476.556.879 1.464 1.528 1.568 3.58.123 2.444-.925-.728-1.147-.674-.608.148.692 1.057.264 1.078-.775.039-1.05-1.049-1.212-.836-.384.502.618 1.001.28 1.206-.774.468-.87-.61-1-.273-.152.393.846.666.65.715-.562.14-1.838-.872-2.524-3.317-1.872-6.668.218-1.122.473-2.544.567-3.159l.17-1.119 1.023.523c.564.287 1.672.764 2.464 1.06 1.972.738 3.494 1.9 4.134 3.154.295.578.52 1.145.499 1.26-.021.115-.113.685-.204 1.268zm-1.043-5.284c-.166.519-.218.51-1.533-.282-1.342-.807-1.442-1.071-.733-1.937.043-.052.62.296 1.284.772.664.477 1.195.877 1.18.888-.014.012-.103.263-.198.559zm-.53 19.968c-.174 0-.868.506-1.544 1.124-.942.863-1.12.956-.76.402.512-.79 2.195-1.949 2.455-1.689.09.09.021.163-.152.163zm-2.174-.123c-.446.23-.917.383-1.046.337-.129-.045.237-.281.812-.525 1.24-.526 1.387-.408.234.188zm-.908-3.743c-.972-.217-1.184-.369-.507-.363.28.002.686.125.904.272.29.196.183.22-.397.091zm-.71-5.957c-.536.018-1.31-.093-1.72-.248-.6-.227-.68-.216-.413.054.183.185.887.4 1.565.48 1.225.143 1.229.147.55.508-1.666.887-3.649-.403-4.7-3.058-.335-.847-.788-1.748-1.005-2.002-.358-.42-.344-.463.155-.463.567 0 1.054.53 2.139 2.326.726 1.204 1.86 1.948 3.346 2.194l1.058.176zm-.877 10.3c-.437-.005-.583-.064-.326-.131.258-.067.615-.063.794.01.18.072-.032.127-.468.122zm-1.135-.233c-.38.023-2.437-.973-2.437-1.18 0-.074.446.09.992.365a20.8 20.8 0 0 0 1.39.646c.261.097.28.155.055.169zm-1.268-4.234c-.309-.012-.371-.075-.16-.16.19-.076.419-.067.507.021.088.088-.069.15-.347.14zm-1.014 2.239c-.644-.15-.744-.11-.605.252.14.364.088.384-.326.126-.388-.243-.758-.206-1.75.173-1.888.72-3.125 2.004-4.361 4.524-.7 1.426-1.465 2.546-2.125 3.11-.987.845-3.631 2.297-4.183 2.297-.144 0 .135-.59.62-1.313.487-.722 1.09-1.942 1.342-2.712.637-1.95 1.06-2.72 2.186-3.977.537-.6.777-1.017.533-.926-.244.091-.9.233-1.455.316-.654.097-.43-.024.632-.341 1.684-.503 5.585-2.095 5.993-2.446.125-.107-.113-.38-.53-.605-.971-.527-.581-.56.43-.036.42.217.98.325 1.244.24.361-.117.391-.092.121.1-.45.322-.19.48 1.158.702.585.097 1.24.293 1.456.436.277.184.167.207-.38.08zm-.045-1.974c-.308-.013-.37-.076-.16-.16.191-.076.42-.067.508.02.087.089-.069.151-.348.14zm.153-12.547c-.113.582-.152 1.148-.087 1.257.066.109.023.196-.094.194-.506-.01-.78-.478-1.038-1.782l-.275-1.389h.88c.942 0 .946.01.614 1.72zm-1.2 12.932c-.665.255-.836.18-.3-.132.266-.154.539-.225.607-.157.068.068-.07.198-.306.289zm-3.958-.387c-.501-.028-1.345-.468-.926-.484.218-.008.576.101.794.242.218.141.278.25.132.242zm-3.043-.813c-.363 0-.512-.06-.33-.133.182-.074.48-.074.661 0 .182.073.033.133-.33.133zm-2.778-.31c-1.018.002-1.467-.045-.998-.104.47-.058 1.303-.059 1.852-.002.55.058.165.106-.854.107zM30.83 65.27c-.437-.005-.583-.064-.326-.131.258-.067.615-.063.794.01.18.072-.031.127-.468.122zm-1.72-5.017c-.364 0-.512-.06-.33-.133.181-.074.48-.074.661 0 .182.073.033.133-.33.133zm-1.384-8.1c-.761.741-2.041 1.761-2.844 2.267-2.515 1.583-3.407 2.705-3.804 4.785-.187.98.286 2.93.754 3.11.163.062.988-.193 1.835-.568 2.026-.895 2.142-.71.175.278-.85.427-1.494.912-1.43 1.077.16.42 2.451 1.631 3.685 1.948l1.029.264-1.057-.122c-.581-.067-1.768-.475-2.638-.906-1.786-.885-1.929-.84-2.767.854-.302.61-.55.918-.55.685 0-.233.358-.918.796-1.522.89-1.228.724-1.344-.806-.563-.576.294-1.048.475-1.048.402 0-.073.483-.379 1.074-.68l1.074-.548-.844-.961c-3.023-3.443-2.156-8.112 1.815-9.776.479-.2 1.888-.542 3.133-.759 1.244-.217 2.609-.574 3.032-.793 1.194-.617.94.013-.614 1.528zm-1.128 17.304c-.679 1.134-1.993 1.96-3.084 1.939-.534-.01-.482-.086.37-.536.546-.288.993-.631.993-.763s.536-.601 1.19-1.043c.655-.442 1.19-.778 1.189-.746-.001.031-.298.548-.658 1.15zm-.02-8.52c-.388.098-.756.126-.819.064-.062-.062.204-.193.592-.29.388-.097.756-.126.818-.064.063.063-.203.193-.591.29zM22.53 71.143c-.47 0-2.417-1.945-2.416-2.415 0-.2.238.026.527.5.29.474.914 1.099 1.388 1.388.474.29.7.526.5.527zm-2.599-3.505a2.174 2.174 0 0 1 0-.926c.067-.255.121-.046.121.463 0 .51-.055.718-.121.463zm-2.077-2.744c-.665.255-.837.18-.3-.132.265-.155.538-.225.606-.157.068.068-.07.198-.306.289zm-1.47.512c-.306.08-.812.05-1.125-.067-.443-.165-.32-.217.555-.23 1.237-.02 1.418.076.57.297zm-1.585-5.51c-.497.118-1.425.185-2.062.148-.746-.043-1.239.061-1.385.291-.178.281-.227.285-.23.015-.002-.188.288-.635.645-.992.807-.807 2.44-.886 3.333-.162l.602.487-.903.214zm-.132 5.935c-.308-.012-.37-.075-.16-.16.191-.076.42-.067.508.021.088.088-.069.15-.348.14zm-2.437.252c-1.648.04-4.672-.663-5.106-1.187-.444-.534.13-.477 1.874.186.799.303 2.168.645 3.043.76l1.59.208zm.494-1.607a3.471 3.471 0 0 1-1.02-1.024c-.362-.613-.36-.618.054-.113.238.29.698.752 1.021 1.024l.587.496zm-1.787-3.072c-.077-.191-.067-.42.02-.507.089-.088.151.068.14.347-.013.308-.076.371-.16.16zm-3.788 1.406c-.146-.09-.265.036-.265.28 0 .385-.06.396-.446.083-.39-.317-.425-.306-.28.08.15.404.087.41-.737.065-1.358-.567-1.711-.44-.587.211.969.562 1.322 1.246.661 1.284-.182.01-.092.12.199.245.424.183.32.238-.53.281l-1.058.054.926.195.926.195-1.001.034c-.551.02-1.295-.157-1.653-.391-.637-.418-2.24-2.405-2.24-2.777 0-.313 3.211-1.295 4.238-1.295.662 0 1.14.19 1.536.613.594.631.778 1.131.31.842zm-2.175-1.72c-.36 0-1.314.227-2.122.505l-1.47.506-.691-.721L0 60.658l1.704-.339c1.822-.362 3.097-.224 3.607.39.26.312.2.38-.337.38z" fill="#ececec"/></svg>