<svg width="377.034" height="400.176" viewBox="0 0 99.757271 105.88082" xmlns="http://www.w3.org/2000/svg"><path d="M13.27 103.85c-.298-3.882-.592-5.42-1.48-7.72-1.224-3.176-1.521-5.706-.987-8.416.62-3.15 1.528-4.826 3.877-7.154 3.206-3.18 7.457-5.095 14.289-6.437 2.276-.448 3.156-.746 3.866-1.313.505-.403.918-.921.918-1.152 0-.786-2.315-.27-5.826 1.298-3.989 1.781-5.304 2.233-7.691 2.642-5.312.911-10.295-2.005-14.114-8.26-1.76-2.883-3.986-5.935-5.25-7.2l-.87-.87 3.713-.016c3.288-.015 3.94-.095 5.697-.704 3.31-1.148 5.577-1.991 5.71-2.125.07-.07-.432-1.065-1.114-2.213-2.641-4.439-5.482-11.19-7.348-17.459-1.312-4.409-1.169-4.398.34.028 2.311 6.783 4.925 12.292 8.113 17.096l1.687 2.543 1.881.135c2.83.202 5.683 1.697 8.105 4.246 1.015 1.069 2.236 2.626 2.714 3.462 1.118 1.954 2.32 2.757 4.462 2.981 1.462.153 1.643.12 1.643-.298 0-.772-1.612-2.057-4.462-3.556-3.083-1.62-4.565-2.828-5.967-4.864-3.413-4.957-3.355-11.884.17-19.888 1.075-2.443 1.71-4.959 2.083-8.243l.305-2.682.93 1.861c1.676 3.349 4.949 6.306 10.636 9.61 3.046 1.77 5.75 4.453 6.91 6.857.831 1.723.894 2.038.897 4.498.003 2.21-.113 2.965-.701 4.58-.898 2.465-2.444 5.063-4.526 7.607-2.628 3.21-3.077 4.085-2.097 4.085.65 0 2.359-1.838 3.995-4.296 5.288-7.94 9.71-9 21.857-5.238 1.136.352 2.67.593 3.97.622 1.783.041 2.277-.046 3.14-.556l1.023-.605-.182.969c-.721 3.844-2.631 8.567-4.805 11.882-2.822 4.303-5.53 6.36-9.459 7.184-3.44.721-6.377.053-12.022-2.738-4.004-1.979-6.639-2.773-6.353-1.914.292.875 4.644 2.79 9.872 4.341 6.594 1.958 9.642 4.867 10.867 10.373.582 2.617.397 8.474-.403 12.761-.683 3.657-.865 4.07-1.313 2.989-.88-2.124-3.09-3.174-7.378-3.506-8.166-.63-12.287-3.415-13.98-9.443-.318-1.133-.47-3.277-.593-8.318-.09-3.735-.254-6.88-.363-6.99-.603-.6-.685.71-.458 7.3.177 5.122-.911 8.058-4.228 11.406-1.635 1.651-2.448 2.232-4.508 3.222-1.383.663-3.466 1.464-4.63 1.78-5.338 1.443-9.302 4.35-10.127 7.423-.213.794-.267.594-.436-1.606zm5.732-6.461c.778-.38 2.516-.987 3.862-1.347 7.403-1.981 11.872-6.282 13.058-12.565.167-.885.2-2.647.084-4.498-.289-4.576-.187-5.227.91-5.814.397-.213.668-.131 1.28.385 1.45 1.218 2.418 4.574 2.431 8.417.015 4.142 1.9 9.014 4.472 11.559.818.808 2.223 1.858 3.123 2.332 1.67.878 5.145 1.907 6.445 1.907 1.238 0 3.384.837 4.15 1.618.403.412.806.752.895.756.338.015.764-3.094.764-5.576 0-5.482-1.423-9.142-4.893-12.581-2.338-2.318-4.936-3.817-8.203-4.733-3.178-.892-6.954-3.358-7.328-4.787-.074-.282-.037-.777.082-1.099.33-.89 1.94-.762 6.198.495 4.734 1.398 7.056 1.83 9.83 1.83 7.313 0 12.536-4.336 15.859-13.166.75-1.994.763-2.122.153-1.57-1.665 1.507-4.42 1.608-9.368.341-4.451-1.14-6.222-1.334-8.55-.94-4.295.724-8.251 3.04-11.973 7.005-1.295 1.38-2.556 2.509-2.802 2.509s-.584-.3-.752-.668c-.336-.737-.049-1.811 2.26-8.46.672-1.934 1.337-4.46 1.52-5.772.795-5.703-1.363-9.694-7.516-13.903-2.965-2.028-4.863-3.84-5.712-5.457l-.555-1.054-.004 1.187c-.006 1.78-.676 4.28-1.683 6.28-1.312 2.607-1.762 4.354-1.926 7.474-.237 4.55.87 8.321 3.347 11.394 1.423 1.766 2.388 2.614 5.031 4.423 2.075 1.42 2.908 2.45 2.908 3.598 0 .486.224.796.786 1.086.95.491 1.33 1.142 1.33 2.271v.847l-1.851-.132c-1.809-.13-1.852-.118-1.852.493 0 1.265-1.025 1.876-8.391 5.007-7.127 3.029-9.809 4.816-11.735 7.817-2.231 3.477-2.463 8.894-.646 15.142l.44 1.518 1.555-1.439c.854-.79 2.19-1.75 2.967-2.13zm7.807-25.377c2-.79 3.929-1.526 4.285-1.635.575-.175.463-.264-1.005-.796-3.712-1.344-8.285-4.83-11.594-8.84L17.09 59.04l-1.524.066c-.838.037-3.071.373-4.963.747s-4.531.753-5.866.842l-2.426.162.887 1.31c2.787 4.122 6.951 7.965 10.566 9.752 2.776 1.373 4.585 1.785 7.225 1.646 1.867-.098 2.71-.323 5.82-1.552zm2.711-6.167c0-.226-2.304-2.925-3.307-3.874-1.455-1.376-6.103-3.303-6.65-2.756-.171.171 2.157 2.345 3.935 3.674 1.316.983 5.283 3.126 5.788 3.126.129 0 .234-.076.234-.17zM69.869 55.26c-1.6-.21-5.53-.911-8.731-1.56-7.11-1.442-7.955-1.462-10.765-.267-.396.169-.43.031-.3-1.226.384-3.72-2.379-9.056-6.973-13.47-.848-.815-2.588-2.343-3.868-3.396-3.444-2.836-4.42-4.618-4.42-8.073 0-3.014 1.056-5.854 3.62-9.734 1.759-2.662 2.016-3.973 1.272-6.48-.397-1.335-1.237-2.442-2.511-3.307l-.662-.45.926.152c6.184 1.01 12.847 5.13 16.02 9.9 2.294 3.451 3.22 6.58 3.387 11.436.115 3.36.428 4.279 1.194 3.512.32-.32.413-1.143.437-3.916.025-2.952.123-3.747.617-5.003 1.25-3.181 3.72-6.262 7.28-9.084 4.9-3.883 7.306-9.267 6.091-13.632l-.184-.661.604.529c1.648 1.444 5.12 7.573 6.586 11.625.856 2.365 1.889 6.918 1.889 8.327 0 .45.102.818.228.818.125 0 1.07-.347 2.098-.77 2.851-1.177 9.102-3.228 9.426-3.094.157.065.116.128-.093.14-.495.026-8.778 3.337-10.403 4.157-1.187.6-1.256.694-1.256 1.702 0 1.839-.795 4.788-1.92 7.126-.884 1.834-1.502 2.663-3.357 4.498-1.25 1.236-3.253 2.901-4.451 3.699-2.163 1.44-2.56 1.857-1.764 1.857.611 0 1.411-.478 2.893-1.727 1.748-1.475 2.817-1.992 4.467-2.163 2.355-.243 5.988 1.014 9.1 3.15 2.109 1.445 3.834 1.324 5.41-.382l.999-1.083-.004 2.36c-.01 6.105-2.567 10.47-7.527 12.85-4.106 1.97-8.909 2.483-15.356 1.64zM80.4 53.612c4.132-1.095 7.822-3.67 9.678-6.754 1.031-1.714 1.995-4.265 2.257-5.974l.182-1.187-.74.693c-1.122 1.05-2.417 1.616-3.356 1.466-.453-.072-2.155-.683-3.782-1.357-3.33-1.38-6.56-2.11-8.155-1.845-.582.097-2.046.697-3.253 1.333-1.206.637-2.417 1.157-2.69 1.157-.74 0-1.333-.281-1.333-.631 0-.171 1.34-1.68 2.977-3.356 3.424-3.503 5.049-6.017 6.242-9.655.84-2.563 1.183-4.085.92-4.085-.09 0-1.672.9-3.514 1.999C65.6 31.52 58.282 38.969 54.29 47.338c-1.246 2.613-1.857 3.132-2.178 1.852-.248-.985.23-2.31 1.75-4.855 4.819-8.07 12.737-15.231 22.525-20.372 3.046-1.6 3.075-1.624 3.247-2.704.343-2.145-.469-7.149-1.753-10.806-.83-2.364-3.02-6.814-3.907-7.938l-.522-.661-.01 1.852c-.012 2.33-.578 4.761-1.616 6.935-1.05 2.202-1.977 3.225-4.787 5.287-5.437 3.991-7.876 8.37-7.884 14.152-.002 1.857-.327 2.761-1.075 2.999-.995.316-1.355-.405-1.743-3.491-1.264-10.053-6.87-17.296-16.243-20.991l-1.342-.529.812 1.01c.963 1.199 1.332 2.349 1.332 4.152 0 1.845-.355 2.904-1.548 4.612-2.819 4.036-3.753 7.638-2.854 10.998.838 3.133 2.54 5.413 6.138 8.222 5.864 4.58 8.867 9.959 8.05 14.418-.118.645-.184 1.204-.146 1.242.037.038.593-.162 1.234-.446 2.441-1.079 3.59-1.01 10.823.653 4.863 1.118 7.688 1.433 11.906 1.326 2.782-.07 4.403-.247 5.9-.644zm-76.185-9.39c-1.51-1.3-.517-3.871 1.493-3.871 1.954 0 2.882 2.433 1.468 3.848-.837.836-2.004.845-2.961.022zm5.847-1.875c-1.357-1.357-.424-3.849 1.44-3.849 1.215 0 2.25 1.035 2.25 2.25 0 1.955-2.326 2.963-3.69 1.599zm-6.911-5.334c-.407-.62-.413-.765-.064-1.39.77-1.375 2.621-.933 2.621.626 0 1.505-1.733 2.022-2.557.764zm4.41-.895c-.448-.838-.219-1.655.593-2.109 1.203-.673 2.377.413 1.905 1.763-.211.605-.439.757-1.23.823-.764.064-1.032-.037-1.268-.477zM3.24 32.035c-.173-.45.477-1.063.87-.82.152.094.276.402.276.684 0 .607-.924.716-1.146.136zm2.999-.68c0-.617.92-.744 1.144-.159.178.465-.035.688-.66.688-.308 0-.484-.193-.484-.53zm-1.852-2.91c0-.146.119-.265.264-.265s.265.119.265.264-.12.265-.265.265-.264-.12-.264-.265zm83.204-3.81c-.807-.352-1.448-1.355-1.448-2.268 0-.848 1.279-2.125 2.127-2.125 1.494 0 2.635.985 2.635 2.275 0 .732-.747 1.852-1.448 2.172-.841.383-.865.382-1.866-.053zm4.431-2.953c-1.051-.736-.491-2.763.763-2.763.766 0 1.56.808 1.56 1.588 0 .733-.783 1.587-1.455 1.587-.154 0-.544-.185-.868-.412zm3.293-2.675c-.329-.328-.179-1.353.22-1.506.894-.343 1.743.62 1.163 1.32-.317.382-1.084.485-1.383.186zm-10.717-1.562c-2.225-.936-1.554-4.347.855-4.347 2.074 0 3.164 2.33 1.78 3.803-.752.8-1.606.976-2.635.544zm5.711-1.193c-.538-.314-.633-1.819-.145-2.307.45-.45 1.685-.394 2.177.098 1.29 1.291-.418 3.149-2.032 2.21zm8.579-.418c.052-.267.27-.487.487-.487.567 0 .485.77-.094.88-.353.069-.461-.039-.393-.393zm-4.103-.53c-.299-.3-.195-1.067.187-1.384.699-.58 1.663.27 1.32 1.163-.153.399-1.178.549-1.507.22z" fill="#f2f2f2"/></svg>