<svg width="661.984" height="171mm" viewBox="0 0 175.15 171" xmlns="http://www.w3.org/2000/svg"><g stroke-width=".353"><path d="M98.95 164.72c0-.195.159-.354.353-.354s.353.16.353.353-.16.353-.353.353-.353-.159-.353-.353zm-52.917-.706c0-.194.168-.353.374-.353s.275.159.155.353c-.12.194-.288.352-.373.352-.086 0-.156-.158-.156-.352zm-13.692-2.167c.522-.191 1.104-.773 1.295-1.295.223-.61.357-.728.375-.33.036.796-1.204 2.036-2 2-.398-.018-.28-.152.33-.375zm27.614-1.048c-.158-.498-.026-.936.398-1.323.595-.542.604-.538.146.068-.388.512-.401.787-.066 1.323.232.373.273.677.09.677-.182 0-.438-.335-.568-.745zm2.221-.148c.112-.584-.006-1.077-.308-1.288-.405-.283-.398-.317.04-.2.622.169.915 1.607.426 2.096-.216.216-.273-.002-.158-.608zm-31.638-.371c.017-.41.1-.495.213-.213.102.255.09.559-.027.676-.118.117-.201-.091-.186-.463zm1.317-1.446c.255-.102.56-.09.677.028.117.117-.092.2-.463.185-.411-.017-.495-.1-.214-.213zm37.257-.188c.322-.18.792-.18 1.114 0 .414.232.272.311-.557.311-.829 0-.971-.08-.557-.311zm-1.537-.426c-.242-.292-.275-.577-.08-.697.182-.113.515.018.74.29.242.292.275.577.08.697-.181.112-.514-.018-.74-.29zm3.323.14c-.123-.198-.013-.317.244-.264.257.053.424-.113.37-.37-.053-.257.074-.362.282-.234.266.165.255.383-.034.732-.494.594-.571.607-.862.136zm15.177.013c-.123-.2.018-.259.332-.138.611.234.723.487.216.487-.183 0-.43-.157-.548-.349zm5.218-.673c.138-1.632 2.188-1.914 2.649-.364.085.287-.068.222-.356-.152-.669-.869-1.773-.616-2.1.481l-.264.88zm-5.138-.433c.24-.241.524-.35.633-.24.108.108-.087.305-.435.438-.503.191-.544.15-.198-.198zm-19.132-1.014c0-.545.12-.918.265-.828.145.09.264.462.264.828 0 .365-.119.737-.264.827-.146.09-.265-.282-.265-.827zm70.38.22c0-.074.277-.352.617-.618.56-.439.572-.427.133.133-.461.588-.75.774-.75.484zm-8.293-3.398c-.352-.389-.575-.77-.496-.847.08-.077.43.242.779.708.77 1.029.599 1.113-.283.14zm3.919.414c-.1-.162.042-.294.316-.294s.417.132.317.294c-.1.162-.243.294-.317.294-.074 0-.216-.132-.316-.294zm1.007-1.141c-.118-.19-.024-.303.207-.25.541.125 1.694-1.853 1.487-2.548-.124-.415-.086-.43.174-.066.219.305.146.876-.21 1.664-.572 1.26-1.297 1.785-1.658 1.2zm-59.164-.915a1.36 1.36 0 0 1 .882 0c.242.098.044.178-.441.178s-.684-.08-.441-.178zm2.822 0a1.36 1.36 0 0 1 .882 0c.243.098.044.178-.44.178-.486 0-.684-.08-.442-.178zm-53.46-2.095c-.25-.272-.3-.494-.109-.494.366 0 .897.671.688.87-.068.064-.329-.105-.579-.376zm107.93-.141c0-.485.08-.684.178-.441.098.242.098.64 0 .882s-.178.044-.178-.441zm-63.6-.97c-.44-.56-.427-.572.132-.133.34.266.618.544.618.617 0 .29-.29.103-.75-.484zm15.566.484c0-.073.278-.351.617-.617.56-.44.572-.427.134.133-.461.587-.75.774-.75.484zm51.864-1.543c.003-.727.139-1.533.302-1.79.18-.283.281.235.259 1.321-.02.984-.156 1.789-.302 1.79-.145.001-.262-.593-.259-1.32zm-60.33-.44c0-.195.476-.353 1.058-.353.582 0 1.059.158 1.059.352 0 .195-.477.353-1.059.353s-1.058-.158-1.058-.353zm31.824-.212c-.25-.272-.3-.494-.109-.494.366 0 .897.671.687.87-.067.064-.328-.105-.578-.376zm1.27.323c.255-.102.56-.09.677.028.117.117-.091.2-.463.185-.411-.017-.495-.1-.213-.213zm-36.648-1.787l-.855-.97.908.797c.5.438 1.04.676 1.203.529.162-.148.18-.07.041.173-.334.58-.31.59-1.297-.53zm7.928.529c-.14-.243-.12-.32.041-.173.392.355 1.976-1.15 1.693-1.609-.13-.21-.041-.245.217-.086.316.196.168.55-.541 1.29-1.127 1.175-1.078 1.155-1.41.578zm30.35-.265c0-.457.119-.576.347-.347.229.228.229.467 0 .695-.228.229-.348.11-.348-.348zm25.248-.684c0-.183.157-.43.349-.548.2-.123.26.018.139.332-.235.611-.488.723-.488.216zm-28.148-.515c.25-.271.51-.44.579-.376.209.199-.321.87-.688.87-.19 0-.14-.222.11-.494zm-29.796-.594c-.716-.784-.385-.879.564-.16.358.272.874.408 1.146.304s.495-.014.495.2c0 .631-1.533.392-2.205-.344zm23.8-.535c-.25-.272-.3-.494-.11-.494.367 0 .897.671.688.87-.068.064-.329-.105-.579-.376zm33.674.33c-.358-.36-.28-.824.139-.824.205 0 .284.145.174.323-.11.177 0 .403.244.501.245.099.272.191.06.207-.21.015-.487-.078-.617-.208zm-70.763-1.03c.017-.41.1-.494.213-.213.102.255.09.56-.027.676-.118.118-.201-.09-.186-.463zm16.297-.147c.03-.388.178-.705.331-.705.153 0 .278.317.278.705 0 .388-.149.706-.331.706s-.307-.318-.278-.706zm1.844.353c-.12-.194-.05-.353.155-.353.206 0 .374.16.374.353s-.07.353-.156.353c-.085 0-.253-.159-.373-.353zm6.201-.206c.017-.41.1-.494.213-.213.102.255.09.56-.028.676-.117.118-.2-.09-.185-.463zm33.685.103c.133-.348.33-.544.438-.435.11.108 0 .393-.24.632-.349.346-.39.306-.198-.197zm-101.25-.499c-.191-.503-.15-.543.198-.197.24.239.35.523.24.632-.108.109-.305-.087-.438-.435zm49.366.25c.12-.195.288-.353.374-.353.085 0 .155.158.155.352 0 .194-.168.353-.373.353s-.276-.159-.156-.353zm6.174-.177c0-.291.158-.53.352-.53s.353.239.353.53c0 .291-.158.53-.353.53s-.352-.239-.352-.53zm56.797.39c0-.076.238-.23.529-.341.29-.112.529-.05.529.138s-.238.342-.53.342c-.29 0-.528-.062-.528-.138zm-67.985-1.801c.002-.97.07-1.325.152-.789.081.536.079 1.33-.005 1.764-.084.434-.15-.005-.147-.975zm22.225 0c.003-.97.07-1.325.152-.789.081.536.079 1.33-.005 1.764-.084.434-.15-.005-.147-.975zm-45.61 1.07c0-.09.358-.354.794-.586.72-.384.75-.368.31.164-.45.546-1.103.796-1.103.423zm27.898-1.1c.017-.41.1-.494.213-.213.102.255.09.56-.028.677-.117.117-.2-.091-.185-.463zm7.454.066c.25-.272.511-.441.579-.377.21.2-.321.87-.688.87-.19 0-.14-.222.11-.493zm2.557.117c-.361-.586-.037-.667.47-.117.25.271.3.493.109.493-.19 0-.45-.17-.579-.376zm3.041-.182c.017-.411.101-.495.214-.214.102.255.089.56-.028.677-.117.117-.2-.091-.185-.463zm-30.258-.372c-.314-.82.347-1.703 1.338-1.787.846-.07.846-.07-.036.197-.661.202-.878.506-.868 1.218.016 1.087-.116 1.2-.433.372zm2.416-.48c0-.486.08-.684.178-.442.098.243.098.64 0 .882-.097.243-.178.044-.178-.44zm23.228.352c0-.194.239-.353.53-.353s.529.159.529.353c0 .194-.238.353-.53.353s-.529-.16-.529-.353zm21.195-.911c.017-.411.101-.495.214-.214.102.255.089.56-.028.677-.117.117-.2-.092-.185-.463zm11.452.23c-.111-.18-.041-.428.156-.55.197-.122.359.026.359.328 0 .62-.212.711-.515.222zm-46.702-.73c0-.485.08-.684.178-.441.098.242.098.64 0 .882-.097.242-.178.044-.178-.441zm5.942-.021c0-.206.159-.276.353-.156.194.12.353.288.353.374 0 .086-.16.156-.353.156-.194 0-.353-.169-.353-.374zm18.372-.185c.017-.411.1-.495.213-.213.102.255.09.559-.028.676-.117.117-.2-.091-.185-.463zm16.987-1.558c0-.68.073-.957.161-.617.089.34.089.895 0 1.234s-.161.062-.161-.617zm-45.082-.518c-.377-.285-.496-.523-.265-.53.231-.005.527.162.658.373.13.211.536.305.903.21.366-.096.577-.03.468.145-.29.47-.985.391-1.764-.198zm11.662-.188c.351-.388.718-.705.815-.705.097 0-.111.317-.462.705-.351.388-.718.706-.815.706-.097 0 .11-.318.462-.706zm8.49.027c-.583-.645-.583-.674.005-.588.34.05.657.355.705.679.11.746.04.738-.71-.091zm33.622.061c-.439-.559-.426-.572.133-.133.588.461.775.75.484.75-.073 0-.35-.277-.617-.617zm-12.886-1.338c-.115-.299-.13-.623-.034-.72.096-.095.26.15.364.545.22.84-.025.97-.33.175zm13.9.296a5.026 5.026 0 0 1 1.588 0c.437.084.08.153-.793.153s-1.23-.07-.794-.153zm-68.255-.701c.343-.09.82-.084 1.058.013.239.096-.042.17-.624.162-.582-.007-.777-.086-.434-.175zm15.773-.293c-.246-.296-.357-.627-.248-.736.109-.11.375.133.592.537.462.864.29.963-.344.199zm12.002.164c0-.206.159-.276.353-.156.194.12.352.288.352.374 0 .085-.158.155-.352.155s-.353-.168-.353-.373zm2.998.02c.12-.194.289-.352.374-.352.086 0 .156.158.156.352 0 .194-.168.353-.374.353s-.275-.159-.156-.353zm-31.133-.596c.34-.088.896-.088 1.235 0s.062.162-.617.162c-.68 0-.957-.073-.618-.162zm13.494-.11c.12-.193.289-.352.374-.352.086 0 .156.159.156.353 0 .194-.168.353-.374.353s-.275-.16-.156-.353zm8.467-1.057c.758-.777 1.457-1.412 1.554-1.412.098 0-.443.635-1.201 1.412-.758.776-1.457 1.41-1.554 1.41-.097 0 .443-.634 1.201-1.41zm15.506-.089l-1.394-1.499 1.499 1.395c1.394 1.296 1.661 1.604 1.394 1.604-.057 0-.732-.675-1.499-1.5zm54.36.466c-.112-.18-.069-.412.096-.514.165-.102.3.046.3.328 0 .595-.112.647-.397.186zm-85.565-.907c.456-.485.908-.882 1.005-.882.097 0-.196.397-.652.882s-.908.882-1.005.882c-.097 0 .196-.397.652-.882zm14.817-.352c.658-.68 1.276-1.235 1.373-1.235.097 0-.362.556-1.02 1.235s-1.276 1.234-1.373 1.234c-.097 0 .362-.555 1.02-1.234zm17.267-.089l-1.216-1.322 1.323 1.215c1.232 1.132 1.485 1.43 1.216 1.43-.059 0-.654-.595-1.323-1.323zm28.881 1.082c.255-.102.56-.09.676.028.118.117-.09.2-.463.185-.41-.017-.494-.1-.213-.213zm-61.67-.993c.456-.486.908-.882 1.005-.882.097 0-.196.396-.652.882s-.908.882-1.005.882c-.097 0 .196-.397.652-.882zm87.916.388c.25-.272.51-.44.579-.376.209.198-.321.87-.688.87-.19 0-.141-.223.11-.494zm-98.192-.477c-.439-.56-.426-.572.133-.133.34.266.618.544.618.618 0 .29-.29.103-.75-.485zm62.31-.088c-.575-.247-.595-.308-.109-.328.328-.014.695.134.815.328.25.406.238.406-.706 0zm1.208-1.323l-.855-.97.97.855c.907.8 1.132 1.085.855 1.085-.063 0-.5-.436-.97-.97zm-60.193-.074c-1.222-.745-2.222-2.347-2.222-3.559 0-1.269 1.096-3.159 2.147-3.702 2.052-1.061 4.51-.479 5.613 1.33 1.354 2.22.604 5.03-1.624 6.088-1.505.714-2.555.672-3.914-.157zm3.771-.188c1.984-1.026 2.671-3.171 1.7-5.304-.919-2.015-4.064-2.564-5.89-1.027-2.004 1.686-1.77 4.832.462 6.193 1.313.8 2.371.84 3.728.138zm76.998.627a7.796 7.796 0 0 1 1.94 0c.534.08.098.147-.97.147-1.067 0-1.503-.066-.97-.147zm31.038-.806c0-.679.073-.957.162-.617.089.34.089.895 0 1.235s-.162.061-.162-.618zm.624.573c0-.074.278-.351.618-.618.56-.439.572-.426.133.134-.461.587-.75.774-.75.484zm8.422-1.543c-.439-.56-.426-.572.133-.133.34.266.617.544.617.617 0 .29-.29.104-.75-.484zm-72.98.126c0-.076.246-.233.547-.349.314-.12.456-.06.332.139-.207.335-.88.496-.88.21zm5.292-.112c0-.203.277-.586.617-.853.571-.447.579-.43.1.222-.285.388-.563.772-.618.852-.054.081-.1-.018-.1-.221zm65.685-.631c.007-.582.086-.778.175-.434s.084.819-.013 1.058c-.096.239-.17-.042-.162-.624zm3.175-.353c.007-.582.086-.777.175-.434.09.343.084.82-.013 1.058-.096.239-.17-.042-.162-.624zm-112.93-.03c.017-.41.1-.494.213-.213.102.255.09.56-.028.677-.117.117-.2-.091-.185-.463zm.733-.146c0-.485.08-.684.178-.441.098.242.098.64 0 .882s-.178.044-.178-.441zm20.494.452a7.796 7.796 0 0 1 1.94 0c.534.081.097.147-.97.147s-1.504-.066-.97-.147zm82.109-.1c0-.194.159-.352.353-.352.194 0 .353.158.353.352s-.16.353-.353.353a.354.354 0 0 1-.353-.353zm-19.932-.705c.351-.388.718-.706.815-.706.097 0-.111.318-.462.706-.351.388-.718.705-.815.705-.097 0 .11-.317.462-.705zm-98.52-.706c0-.679.073-.957.161-.617.09.34.09.895 0 1.235s-.161.061-.161-.618zm.706 0c0-.679.072-.957.16-.617.09.34.09.895 0 1.235s-.16.061-.16-.618zm51.776.706c0-.194.158-.353.352-.353.194 0 .353.159.353.353a.354.354 0 0 1-.353.353.354.354 0 0 1-.352-.353zm1.763 0c0-.194.169-.353.374-.353.206 0 .276.159.156.353-.12.194-.288.353-.374.353-.086 0-.156-.16-.156-.353zm12.7.214c0-.076.247-.233.548-.349.314-.12.456-.061.332.139-.207.335-.88.496-.88.21zm-75.969-.655c.09-.146.463-.265.828-.265s.737.12.827.265c.09.145-.282.264-.827.264s-.917-.119-.828-.264zm2.098-.208c-.112-.181.018-.514.29-.74.292-.242.577-.274.698-.08.112.182-.019.515-.29.74-.292.243-.577.276-.698.08zm63.242-.302c.426-.818 1.05-1.338 1.303-1.085.083.083-.267.536-.777 1.006-.885.814-.91.817-.526.08zm-22.437 0c.343-.089.82-.083 1.058.014.24.096-.042.17-.624.162-.582-.007-.777-.086-.434-.175zm2.822 0c.343-.089.82-.083 1.058.014.24.096-.042.17-.624.162-.582-.007-.777-.086-.434-.175zm22.66-.107c-.12-.195-.05-.353.155-.353.205 0 .373.158.373.353 0 .194-.07.352-.155.352-.086 0-.254-.158-.374-.352zm67.05-.25c-.192-.503-.152-.543.197-.197.24.239.35.524.24.632-.108.109-.305-.087-.438-.435zm4.694-.015c-.439-.56-.426-.572.133-.133.34.266.618.544.618.617 0 .29-.29.104-.751-.484zm-84.783-.064c-.112-.18-.068-.412.097-.513.165-.102.3.045.3.328 0 .595-.112.647-.397.185zm50.542.088c.255-.102.559-.09.676.027.117.118-.091.201-.463.186-.41-.017-.494-.1-.213-.214zm20.88.107c0-.073.278-.35.617-.617.56-.439.572-.426.134.133-.461.588-.751.775-.751.484zm4.939-.593c0-.4.152-.632.337-.518.186.115.248.442.139.727-.28.729-.476.643-.476-.209zm-107.57-.185c.017-.41.1-.494.213-.213.102.255.09.559-.028.676-.117.117-.2-.09-.185-.463zm.705 0c.017-.41.1-.494.214-.213.101.255.089.559-.028.676-.118.117-.2-.09-.186-.463zm-21.687-.353c-.118-.308-.08-.8.084-1.094.217-.386.308-.231.33.56.035 1.213-.09 1.375-.414.533zm1.022-.147c.12-.194.288-.352.373-.352.086 0 .156.158.156.352s-.168.353-.374.353-.275-.159-.155-.353zm121.03.04c-.107-.172.082-.529.42-.793.542-.425.562-.416.175.08-.24.31-.333.666-.205.794.127.128.135.232.017.232-.118 0-.301-.14-.407-.313zm-58.41-.371c0-.183.158-.43.35-.548.2-.124.258.018.138.332-.235.611-.487.723-.487.216zm71.1.004c-.111-.181-.067-.412.097-.514.165-.102.3.046.3.328 0 .595-.111.647-.396.186zm-79.404-.754c-.128-.207-.157-.452-.065-.544.093-.093.262.077.377.376.239.622.035.73-.312.168zm-48.14-.308c0-.183.157-.43.348-.548.2-.123.26.018.139.332-.235.611-.487.723-.487.216zm126.49-.21c-.377-.284-.487-.517-.244-.517.255 0 .332-.186.183-.441-.142-.243.083-.142.5.223.417.366.673.802.569.97-.233.378-.184.39-1.008-.234zm-134.58-.313c-.243-.292-.275-.578-.08-.698.181-.112.514.018.74.29.242.292.275.577.08.698-.182.112-.515-.019-.74-.29zm65.257.325c-.003-.194.144-.59.327-.88.283-.447.4-.453.788-.036.29.312.303.405.037.255-.23-.13-.583.045-.783.389-.2.344-.366.466-.37.272zm61.042-.735c.017-.411.1-.495.213-.213.102.255.09.559-.028.676-.117.117-.2-.091-.185-.463zm-70.745-.123c-.112-.18-.068-.411.096-.513.165-.102.3.046.3.328 0 .595-.111.647-.396.185zm-56.99-.163c0-.076.247-.233.548-.348.314-.12.456-.062.332.138-.207.335-.88.496-.88.21zm10.232.029c0-.061.516-.577 1.146-1.147l1.147-1.036-1.036 1.147c-.966 1.068-1.257 1.308-1.257 1.036zm124.59-.596c0-.485.08-.683.178-.44.097.242.097.639 0 .881-.098.243-.178.045-.178-.44zm-43.771.253c.08-.054.464-.332.852-.617.653-.479.67-.471.222.1-.267.34-.65.617-.853.617-.203 0-.302-.045-.221-.1zM41.796 120.8c.455-.486.908-.882 1.005-.882.097 0-.197.396-.653.882s-.908.881-1.005.881c-.097 0 .197-.396.653-.881zm18.85-.265l-1.035-1.147 1.146 1.037c1.069.965 1.309 1.256 1.036 1.256-.06 0-.577-.516-1.146-1.146zm28.069.66c0-.073.277-.35.617-.617.56-.439.572-.426.133.133-.46.588-.75.775-.75.484zm-2.823-.352c0-.074.278-.351.618-.618.56-.438.572-.426.133.134-.46.587-.75.774-.75.484zm80.741-.484c-.438-.56-.426-.572.134-.134.587.461.774.75.484.75-.074 0-.351-.277-.618-.616zm-3.102-.294c.017-.411.1-.495.213-.214.102.255.09.56-.027.677-.118.117-.201-.092-.186-.463zm-101.29-1.118l-1.215-1.322 1.322 1.215c1.232 1.132 1.486 1.43 1.216 1.43-.059 0-.654-.595-1.323-1.323zm48.702.991c0-.182.157-.429.349-.547.2-.124.26.018.139.332-.235.611-.488.723-.488.215zm-77.258-.154c0-.073.278-.35.618-.617.56-.439.572-.426.133.133-.461.588-.75.775-.75.484zm124.88 0c0-.073.278-.35.618-.617.56-.439.572-.426.133.133-.461.588-.75.775-.75.484zm-112.6-.46c.255-.102.56-.09.676.028.118.117-.09.2-.463.185-.41-.017-.494-.1-.213-.213zm78.858-.405c.322-.355.508-.723.415-.816-.093-.093.541-.868 1.41-1.72.87-.853 1.58-1.42 1.58-1.258s.278.084.618-.17c.34-.256-.49.677-1.843 2.073-1.353 1.395-2.528 2.537-2.612 2.537-.084 0 .11-.29.432-.646zm2.17-2.176c.759-.776 1.3-1.411 1.202-1.411-.097 0-.796.635-1.554 1.41s-1.298 1.412-1.201 1.412c.097 0 .796-.635 1.554-1.411zm26.636 2.689c0-.074.224-.32.498-.547.38-.316.559-.313.76.012.166.269.113.332-.145.172-.224-.138-.408-.083-.408.122 0 .206-.158.374-.352.374s-.353-.06-.353-.133zm13.226-.226c-.122-.197-.343-.283-.491-.192-.149.092-.27-.065-.27-.348 0-.426.112-.414.647.07.642.582.789.829.491.829-.086 0-.255-.161-.377-.359zm-120.89-.588c.254-.102.559-.09.676.028.117.117-.091.2-.463.185-.411-.017-.495-.1-.213-.213zm2.47 0c.254-.102.558-.09.675.028.118.117-.09.2-.463.185-.41-.017-.494-.1-.213-.213zm84.225-.215c.133-.348.33-.544.439-.435.108.109 0 .393-.241.633-.349.345-.39.305-.198-.198zm-102.5-.426c0-.29.159-.529.353-.529.194 0 .353.238.353.53 0 .29-.159.529-.353.529-.194 0-.353-.239-.353-.53zm56.658-.23c.368-.514.739-.867.825-.784.086.084-.214.505-.668.936l-.825.784zm37.315-.08c.045-.303.18-.65.3-.77s.183.029.138.332c-.044.303-.18.65-.3.77s-.182-.029-.138-.332zm42.993.244c.34-.09.895-.09 1.235 0 .34.088.062.16-.617.16-.68 0-.957-.072-.618-.16zm-10.672-.992c.456-.485.908-.882 1.005-.882.097 0-.196.397-.652.882s-.908.882-1.005.882c-.097 0 .197-.397.652-.882zm-41.268-.009c.246-.296.52-.465.608-.376.245.244-.253.914-.679.914-.234 0-.207-.203.071-.538zm-40.995-.056c.255-.102.56-.09.676.028.118.117-.09.2-.463.185-.41-.017-.494-.1-.213-.213zm1.411 0c.255-.102.56-.09.676.028.118.117-.09.2-.463.185-.41-.017-.494-.1-.213-.213zm41.275-.353c.255-.102.56-.09.676.028.118.117-.09.2-.463.185-.41-.017-.494-.1-.213-.213zm55.364.007a1.36 1.36 0 0 1 .882 0c.243.098.044.178-.44.178-.486 0-.684-.08-.442-.178zm-135.19-.447c-.111-.18-.068-.411.097-.513.165-.102.3.046.3.328 0 .595-.111.647-.397.185zm37.644.086c.34-.09.895-.09 1.235 0 .34.088.062.161-.617.161-.68 0-.957-.073-.618-.161zm86.035-.909c.055-.633-.043-1.387-.217-1.675-.26-.43-.221-.448.212-.098.35.283.478.849.382 1.676-.184 1.57-.51 1.654-.377.097zm-25.798.196c.291-.107.847-.452 1.235-.766.7-.566.7-.564.034.223-.37.436-.926.78-1.235.765-.478-.023-.483-.057-.034-.222zm-82.55-.59c0-.075.318-.219.706-.32.389-.102.617-.041.509.135-.19.307-1.215.463-1.215.184zm53.325-.57c0-.486.08-.684.178-.442.098.243.098.64 0 .882-.098.243-.178.044-.178-.44zm28.167.331c0-.205.16-.275.353-.155.194.12.353.288.353.373 0 .086-.159.156-.353.156-.194 0-.353-.168-.353-.374zm8.114-.083c.291-.251.747-.688 1.014-.97.414-.44.428-.405.098.239-.213.413-.669.85-1.014.97-.546.191-.559.16-.098-.239zm-75.874-.866l-.855-.97.97.855c.907.8 1.132 1.085.855 1.085-.063 0-.5-.437-.97-.97zm103.4.471c.229-.228.467-.228.696 0 .228.228.109.348-.348.348s-.576-.12-.348-.348zm3.496-.471l-.855-.97.97.855c.907.8 1.132 1.085.855 1.085-.063 0-.5-.437-.97-.97zm-146.2.366c.388-.094.857-.313 1.04-.489.185-.175.503-.313.706-.307.204.006.063.244-.314.53-.377.284-1.011.499-1.411.476-.709-.04-.71-.045-.02-.21zm101.56-.588c.045-.303.18-.65.3-.77s.183.029.138.332c-.044.303-.18.65-.3.77s-.182-.029-.138-.332zm1.067.08c-.148-.242-.097-.313.126-.175.638.394.732-.612.127-1.359-.565-.697-.563-.698.21-.044.615.52.707.804.43 1.323-.413.77-.55.809-.893.254zm13.996-1.563c.017-.411.1-.495.214-.213.101.254.089.559-.028.676-.117.117-.2-.091-.186-.463zm-117.68-.853c.12-.194.288-.353.374-.353.086 0 .156.16.156.353s-.169.353-.374.353-.275-.159-.156-.353zm9.283-.783c-.52-.54-.826-.98-.679-.98.335 0 1.979 1.723 1.775 1.86-.081.056-.574-.34-1.096-.88zm95.271.519c-.438-.56-.426-.572.134-.134.587.461.774.751.484.751-.074 0-.351-.278-.618-.617zm1.104.264c0-.194.168-.353.373-.353s.276.16.156.353c-.12.194-.288.353-.374.353-.085 0-.155-.159-.155-.353zm24.842-.188c.566-.295 1.2-.466 1.41-.379.21.088.105.171-.235.187-.34.015-.617.186-.617.38s-.357.352-.794.35c-.72-.001-.699-.05.236-.538zm3.027.21c0-.229-.183-.303-.407-.165-.246.153-.312.098-.165-.14.133-.215.477-.301.764-.191.37.142.458.034.304-.368-.12-.313-.139-.569-.042-.569.464 0 .504 1.056.055 1.429-.388.322-.509.323-.509.005zm2.734.097c.243-.098.64-.098.882 0s.044.178-.44.178-.684-.08-.442-.178zm-135.11-.352a1.36 1.36 0 0 1 .882 0c.243.097.044.177-.44.177-.486 0-.684-.08-.442-.177zm14.2.1c0-.073.277-.351.617-.617.56-.44.572-.427.133.133-.46.587-.75.774-.75.484zm50.048-.484c-.438-.56-.426-.572.134-.133.587.46.774.75.484.75-.074 0-.351-.278-.618-.617zm14.355-.338c-.191-.503-.15-.543.198-.197.241.24.35.524.24.632-.108.109-.305-.087-.438-.435zm26.965.47c0-.074.278-.352.618-.618.56-.439.572-.426.133.133-.46.588-.75.775-.75.484zm28.575-.888c0-.238-.183-.32-.407-.18-.262.162-.31.095-.136-.187.192-.311.38-.329.648-.06.208.207.27.486.136.618-.132.133-.24.047-.24-.191zm-18.907-.832l-.672-.793.794.672c.437.37.794.726.794.793 0 .283-.284.074-.916-.672zm19.613.66c0-.072.278-.35.618-.616.56-.44.572-.427.133.133-.46.587-.75.774-.75.484zm-59.972-.903c0-.377.136-.77.302-.872.166-.102.227.206.136.685-.2 1.04-.438 1.143-.438.187zm-91.876-.27c-.191-.503-.15-.544.198-.198.241.24.35.524.24.632-.108.11-.305-.087-.438-.435zm2.27.468c0-.073.279-.35.618-.617.56-.439.572-.426.133.133-.46.588-.75.775-.75.484zm149.24-.043c0-.194.155-.59.343-.882s.342-.37.342-.176-.154.59-.342.882c-.188.29-.342.37-.342.176zm-105.76-.42c.34-.088.896-.088 1.236 0s.061.162-.618.162-.957-.073-.617-.161zm37.335-.315c.017-.41.1-.494.213-.213.102.255.09.559-.028.676-.117.117-.2-.09-.185-.463zm17.105.242c-.413-.162-.533-.36-.305-.5.208-.129.574.003.814.291.483.583.464.59-.51.209zm-67.58-1.292c0-.512.153-.808.353-.684.194.12.352.526.352.902 0 .377-.158.685-.352.685-.194 0-.353-.406-.353-.903zm43.039.571c0-.182.157-.429.349-.547.2-.124.259.018.138.332-.234.61-.487.723-.487.215zm70.732-1.079c-.758-.776-1.214-1.411-1.013-1.411.201 0 .876.635 1.5 1.411.623.776 1.079 1.411 1.012 1.411-.067 0-.741-.635-1.5-1.411zm-143.25.353c0-.388.125-.706.277-.706.152 0 .277.318.277.706 0 .388-.125.705-.277.705-.152 0-.277-.317-.277-.705zm40.705.464c.254-.102.559-.089.676.028.117.117-.091.2-.463.185-.411-.016-.495-.1-.213-.213zm4.233 0c.255-.102.56-.089.676.028.118.117-.09.2-.463.185-.41-.016-.494-.1-.213-.213zm26.782-.436c-.153-.587-.107-.724.154-.463.205.205.304.581.219.836-.088.264-.248.104-.373-.373zm-19.592-.557c.007-.582.086-.778.176-.435.09.344.083.82-.013 1.059-.097.239-.17-.042-.163-.624zm36.312.406c-.303-.365-.21-.632.398-1.147.79-.669.79-.669.18.058-.473.561-.517.823-.194 1.146.23.23.327.419.215.419-.112 0-.382-.214-.599-.476zm1.395-.083c.017-.41.1-.495.213-.213.102.255.09.559-.028.676-.117.117-.2-.091-.185-.463zm-47.56-.4c.536-.081 1.33-.079 1.764.005.433.084-.005.15-.975.147-.97-.003-1.326-.07-.79-.152zm42.24.12c0-.073.277-.351.617-.617.56-.44.572-.427.133.133-.46.587-.75.774-.75.484zm2.407-.623c.607-.69.698-.978.352-1.11-.256-.098-.136-.163.269-.144.404.02.735.241.735.493s-.081.378-.18.28c-.099-.1-.588.178-1.088.616l-.908.797zm7.118.403c0-.194.168-.352.373-.352s.276.158.156.352-.288.353-.374.353c-.085 0-.155-.159-.155-.353zm-94.735-.729c-.128-.207-.157-.452-.065-.544.093-.093.262.077.377.376.239.622.035.731-.312.168zm19.793-.08c.132-.348.33-.543.438-.435.109.109 0 .394-.24.633-.35.346-.39.305-.198-.198zm10.03.125v-.55c0-.33-1.232-1.487-1.543-1.45-.17.022-.38-.2-.468-.49-.141-.471-.117-.471.215 0 .206.29.377.382.38.202.003-.179.397.043.877.493.479.45.795.94.703 1.09-.092.149.024.335.258.413.33.11.331.2.002.403-.233.144-.423.094-.423-.111zm93.84-.903c.658-.68 1.276-1.235 1.373-1.235.097 0-.362.556-1.02 1.235s-1.277 1.235-1.374 1.235c-.097 0 .362-.556 1.02-1.235zm-20.527.64c.254-.101.559-.089.676.029.117.117-.091.2-.463.185-.411-.017-.495-.1-.213-.213zm-104.53-.464c.12-.194.288-.353.373-.353.086 0 .156.16.156.353s-.168.353-.374.353c-.205 0-.275-.159-.155-.353zm8.577.112c.254-.102.558-.09.676.028.117.117-.091.2-.463.185-.411-.017-.495-.1-.213-.213zm27.564-1.082l-1.216-1.323 1.323 1.216c1.231 1.131 1.485 1.43 1.215 1.43-.059 0-.654-.595-1.322-1.323zm16.6 1.213c0-.061.515-.577 1.146-1.147l1.147-1.036-1.037 1.146c-.965 1.07-1.256 1.31-1.256 1.037zm29.336-.596c0-.485.08-.683.177-.44.098.242.098.639 0 .881-.097.243-.177.044-.177-.44zm14.01-.264c-.44-.56-.427-.572.133-.133.587.46.774.75.484.75-.073 0-.351-.278-.617-.617zm10.418-.177l-.673-.793.794.672c.746.631.955.915.672.915-.067 0-.424-.357-.793-.794zm-92.571.089c-.318-.206-.362-.345-.11-.348a.82.82 0 0 1 .639.348c.27.438.148.438-.53 0zm9.525.22c0-.074.277-.352.617-.618.56-.439.572-.427.133.133-.46.588-.75.775-.75.484zm13.739-1.19l-1.216-1.323 1.323 1.215c1.231 1.132 1.485 1.43 1.215 1.43-.059 0-.654-.595-1.322-1.323zm14.836.86c0-.061.515-.577 1.146-1.147l1.147-1.036-1.037 1.146c-.965 1.069-1.256 1.309-1.256 1.036zm38.012-.124a1.36 1.36 0 0 1 .881 0c.243.098.045.178-.44.178s-.684-.08-.441-.178zm13.075-.007c.254-.102.558-.09.676.028.117.117-.091.2-.463.185-.411-.017-.495-.1-.213-.213zm-1.786-.345c.242-.098.639-.098.882 0s.044.177-.441.177-.684-.08-.441-.177zm-75.935-.472c-.12-.194-.05-.353.155-.353.206 0 .374.159.374.353s-.07.352-.156.352c-.085 0-.253-.158-.373-.352zm68.086 0c.12-.194.288-.353.373-.353.086 0 .156.159.156.353s-.168.352-.374.352-.275-.158-.155-.352zm47.339-.16c-.282-.282-.636-.4-.788-.265-.15.137-.16.05-.02-.193.139-.242.491-.44.782-.44.291 0 .437.148.325.33-.113.182.076.495.42.695.343.2.437.369.209.375-.229.006-.647-.22-.928-.502zm-114.19-.194c0-.194.308-.352.684-.352s.783.158.903.352c.124.2-.173.353-.685.353-.496 0-.902-.158-.902-.353zm55.06-.205c.018-.411.101-.495.214-.213.102.254.09.559-.028.676-.117.117-.2-.091-.185-.463zm62.158.272c-.239-.151.578-.268 1.815-.259 1.237.009 2.177.135 2.089.28-.212.35-3.349.332-3.904-.02zm-99.403-1.125c.12-.194.437-.353.705-.353s.586.16.706.353c.124.201-.18.353-.706.353s-.83-.152-.705-.353zm57.26.112c.254-.102.559-.09.676.028.117.117-.091.2-.463.185-.411-.017-.495-.1-.213-.213zm36.402-.123c0-.188.238-.342.529-.342s.529.063.529.14c0 .075-.238.23-.53.34-.29.112-.528.05-.528-.138zm7.408.23c0-.073.278-.35.617-.617.56-.438.572-.426.133.134-.46.587-.75.774-.75.484zm-102.66-.572c0-.194.168-.352.374-.352s.275.158.155.352-.288.353-.374.353c-.085 0-.155-.159-.155-.353zm45.773.12a1.36 1.36 0 0 1 .882 0c.242.097.044.177-.441.177s-.684-.08-.441-.177zm2.139-.007c.254-.102.559-.09.676.027.117.118-.091.2-.463.186-.411-.017-.495-.1-.213-.214zm45.927-.112c-.318-.206-.362-.344-.11-.348a.82.82 0 0 1 .639.348c.27.438.148.438-.53 0zm-88.777-.37c.038-.214.194-.37.345-.347.151.023.593-.322.982-.767l.708-.81-.589.968c-.324.532-.717.888-.873.791-.156-.096-.365-.012-.464.189-.112.226-.153.217-.11-.025zm58.37.129c.255-.102.56-.09.677.028.117.117-.091.2-.463.185-.411-.017-.495-.1-.213-.213zm15.97-.318c.017-.41.1-.494.213-.213.102.255.09.559-.028.676-.117.117-.2-.09-.185-.463zm9.497.206c.29-.188.688-.342.882-.342.194 0 .114.154-.177.342-.29.188-.688.342-.882.342s-.114-.154.177-.342zm3.109.112c.254-.102.559-.09.676.028.117.117-.091.2-.463.185-.411-.017-.495-.1-.213-.213zm15.78-.44c-.112-.181-.042-.429.155-.55.197-.122.359.025.359.328 0 .62-.212.71-.514.222zm-110.15-.765c.037-.148-.234-.494-.602-.769-.55-.41-.581-.552-.177-.787.272-.158.386-.166.252-.018-.133.149.17.624.673 1.057.67.575.764.786.35.786-.31 0-.534-.12-.496-.269zm56.079.143c.343-.09.82-.084 1.058.013.239.096-.042.17-.624.162-.582-.007-.778-.086-.434-.175zm27.097-.314c.017-.411.1-.495.213-.214.102.255.09.56-.028.677-.117.117-.2-.092-.185-.463zm3.5.448c0-.061.516-.577 1.146-1.147l1.147-1.036-1.037 1.147c-.965 1.068-1.256 1.308-1.256 1.036zm-1.323-1.477c.004-.777.077-1.053.161-.614.084.44.081 1.074-.007 1.411-.088.338-.157-.021-.153-.797zm-32.545.218c0-.194.16-.451.353-.571s.353-.06.353.135c0 .194-.159.45-.353.57-.194.12-.353.06-.353-.134zm1.25-.018c-.111-.18-.041-.428.156-.55.197-.121.358.026.358.329 0 .62-.211.71-.514.221zm-2.837-.28c.388-.095.944-.354 1.235-.576.46-.35.466-.322.045.215-.267.34-.822.599-1.235.576-.713-.039-.715-.05-.045-.214zm3.704-.097c0-.194.248-.353.55-.353.303 0 .452.16.332.353-.12.194-.367.353-.55.353-.182 0-.332-.159-.332-.353zm5.426-.134c.044-.303.18-.65.3-.77s.182.03.137.333c-.044.303-.179.65-.3.77s-.182-.03-.137-.333zm40.259.134c-.576-.247-.596-.308-.11-.328.329-.013.695.134.815.328.25.406.239.406-.705 0zm2.304-.197c.006-.183.244-.64.53-1.017.284-.376.512-.535.506-.352-.006.182-.244.64-.53 1.016-.284.377-.512.536-.506.353zm-109.34-.714c.017-.411.1-.495.213-.213.102.254.09.559-.028.676-.117.117-.2-.091-.185-.463zm56.946.206c-.62-.267-.586-.307.285-.328.576-.015.9.123.773.328-.12.194-.248.341-.285.328a53.75 53.75 0 0 1-.773-.328zm-35.074-.559c.017-.41.1-.494.213-.213.102.255.09.559-.028.676-.117.117-.2-.091-.185-.463zm40.07.3c-.106-.171.206-.779.694-1.35.487-.57.786-.838.663-.595-.944 1.868-1.188 2.218-1.357 1.945zm5.763-.053c0-.194.158-.45.353-.57.194-.12.352-.06.352.134s-.158.451-.352.571c-.195.12-.353.06-.353-.135zM43.68 95.4c.003-.97.07-1.326.152-.79.081.537.079 1.33-.005 1.765-.084.433-.15-.005-.147-.975zm5.896 1.255c0-.182.159-.43.353-.55.194-.12.353.03.353.332 0 .303-.16.55-.353.55-.194 0-.353-.15-.353-.332zm51.065.083c.437-.084 1.15-.084 1.588 0s.079.153-.794.153-1.23-.069-.794-.153zm4.322-.104c0-.194.158-.352.352-.352.194 0 .353.158.353.352s-.159.353-.353.353a.354.354 0 0 1-.352-.353zm-43.04-1.214c0-.667.138-1.298.305-1.402.168-.103.305.443.305 1.214s-.137 1.402-.305 1.402c-.167 0-.304-.546-.304-1.214zm12.966.98a1.36 1.36 0 0 1 .881 0c.243.099.045.179-.44.179-.486 0-.684-.08-.441-.178zm-6.533-1.177c0-.679.072-.957.161-.617.089.34.089.895 0 1.234s-.161.062-.161-.617zm6.008.453c.536-.082 1.33-.08 1.764.005.434.083-.005.15-.975.147-.97-.003-1.325-.071-.789-.152zm63.435-.306c.017-.41.1-.494.213-.213.102.255.09.559-.027.676-.118.117-.201-.09-.186-.463zm-4.586-.705c.017-.411.1-.495.213-.214.102.255.09.56-.028.677-.117.117-.2-.091-.185-.463zm-17.089-.324c.112-.29.364-.529.561-.529.207 0 .173.224-.08.53-.242.29-.495.528-.562.528-.067 0-.03-.238.081-.529zm-66.312-.059a.972.972 0 0 1-.235-.6c0-.22.164-.2.417.054.23.23.336.499.236.6-.1.1-.289.076-.418-.054zm84.812-.323c.017-.411.1-.495.213-.213.102.255.09.559-.028.676-.117.117-.2-.091-.185-.463zm-67.733-.706c.017-.41.1-.494.213-.213.102.255.09.56-.028.676-.117.118-.2-.09-.185-.463zm-5.32-.147c0-.194.169-.352.374-.352s.276.158.156.352c-.12.194-.288.353-.374.353-.085 0-.155-.159-.155-.353zm48.74-.352c0-.485.08-.684.178-.441.097.242.097.64 0 .882-.098.242-.178.044-.178-.441zm-42.361-.206c.017-.411.1-.495.213-.213.102.254.09.559-.028.676-.117.117-.2-.091-.185-.463zm37.014.009c0-.303.158-.452.352-.332.194.12.353.367.353.55 0 .183-.159.332-.353.332-.194 0-.352-.248-.352-.55zm-18.742-.42c-.44-.56-.427-.572.133-.133.34.266.617.544.617.617 0 .29-.29.103-.75-.484zm4.212.376c.254-.102.559-.09.676.028.117.117-.091.2-.463.185-.411-.017-.495-.1-.213-.213zm-39.96-.44c-.11-.18-.067-.412.098-.514.164-.102.3.046.3.329 0 .595-.112.647-.397.185zm10.569-.024c-.12-.194-.102-.353.04-.353.143 0-.126-.437-.596-.97l-.855-.97.959.845c.528.464.884.967.792 1.116-.093.15.031.352.275.45.317.128.324.187.023.206a.766.766 0 0 1-.638-.324zm27.666-.618l-.855-.97.97.855c.906.8 1.132 1.085.855 1.085-.063 0-.5-.436-.97-.97zm57.205.412c.017-.411.1-.495.213-.213.102.254.09.559-.028.676-.117.117-.2-.091-.185-.463zm-122.18-.397a5.026 5.026 0 0 1 1.587 0c.437.084.08.153-.793.153-.874 0-1.23-.069-.794-.153zm72.408-.633c.456-.485.908-.882 1.005-.882.097 0-.197.397-.652.882s-.908.882-1.005.882c-.097 0 .196-.397.652-.882zm-54.538-.264l-.672-.794.794.672c.745.632.954.916.672.916-.067 0-.425-.358-.794-.794zm53.832-.088c.456-.485.908-.882 1.005-.882.097 0-.197.397-.652.882s-.908.882-1.005.882c-.097 0 .196-.397.652-.882zm-43.175-.594c.102-.165.333-.208.513-.097.462.285.41.397-.185.397-.282 0-.43-.135-.328-.3zM41.209 88.52c-.43-.531-.682-1.065-.56-1.187.122-.122.522.271.889.875.85 1.399.682 1.56-.33.312zm12.776.705c-.12-.194-.06-.353.135-.353.194 0 .45.159.57.353.12.194.06.353-.134.353s-.451-.16-.571-.353zm3.528 0c.12-.194.288-.353.373-.353.086 0 .156.159.156.353 0 .194-.168.353-.374.353s-.275-.16-.155-.353zm31.336-.162c-2.141-.931-3.066-3.48-2.044-5.634.735-1.55 2.083-2.318 4.063-2.318 1.195 0 1.685.22 2.664 1.2 1.013 1.013 1.199 1.448 1.199 2.81 0 1.298-.212 1.852-1.095 2.857-.602.686-1.356 1.246-1.676 1.246-.354-.001-.141-.27.544-.687 1.427-.87 1.874-1.718 1.874-3.55 0-3.267-3.882-4.772-6.432-2.494-.98.875-1.152 1.27-1.152 2.623 0 1.924 1.296 3.512 3.305 4.047.704.188.963.352.575.364-.388.013-1.21-.196-1.825-.464zm-73.666-.54c-.124-.2.018-.259.332-.138.61.234.723.487.215.487-.182 0-.429-.157-.547-.349zm113.72-.268c-.44-.56-.427-.572.133-.133.34.266.617.544.617.617 0 .29-.29.103-.75-.484zm-81.8.154c0-.06.517-.577 1.147-1.147l1.147-1.036-1.036 1.147c-.966 1.069-1.257 1.309-1.257 1.036zm29.193-.123a1.36 1.36 0 0 1 .882 0c.242.098.044.178-.441.178s-.684-.08-.441-.178zm-12.47-.913l-.671-.794.793.672c.746.632.955.916.672.916-.067 0-.424-.358-.793-.794zm-50.263-.53l-.856-.97.97.856c.534.47.97.907.97.97 0 .277-.285.051-1.084-.855zm31.812.37c.257-.428.543-.702.635-.61.093.093-.117.443-.467.778-.607.582-.615.575-.168-.169zm1.728-.634c.456-.485.908-.882 1.005-.882.097 0-.196.397-.652.882s-.908.882-1.005.882c-.097 0 .196-.397.652-.882zm-10.374.23c-.23-.372 1.72-2.278 2.44-2.383.29-.043.438.07.326.25-.111.18-.326.25-.477.158-.371-.23-2.218 1.731-1.916 2.034.132.132.144.24.026.24s-.297-.134-.399-.299zm45.707-1.465c0-.485.08-.683.178-.44.098.242.098.639 0 .881-.098.243-.178.044-.178-.44zm.719-.176c.007-.582.086-.778.175-.434.09.343.084.82-.013 1.058-.096.239-.17-.042-.162-.624zm-38.026-.617l-.672-.794.793.672c.746.631.955.915.673.915-.067 0-.425-.357-.794-.793zm2.525.337c.133-.348.33-.544.439-.435.108.109 0 .393-.241.633-.349.345-.39.305-.198-.198zm60.126.333c0-.082.417-.421.926-.755.509-.333.817-.432.686-.218-.252.407-1.612 1.228-1.612.973zm22.198-.847l-.855-.97.97.855c.907.8 1.132 1.085.855 1.085-.063 0-.5-.436-.97-.97zm-95.664.369a5.026 5.026 0 0 1 1.588 0c.436.084.08.152-.794.152-.873 0-1.23-.068-.794-.152zm3.417-.847c-.178-.289-.113-.332.205-.136.337.209.406.129.246-.287-.121-.316-.045-.684.171-.818.226-.14.293-.082.159.135-.128.208-.056.436.16.509.254.084.203.289-.142.576-.415.345-.596.35-.8.02zm17.754.14c.439-.084 1.074-.08 1.411.008.337.088-.022.157-.798.153-.776-.004-1.052-.076-.613-.16zm42.798-.309c.017-.41.1-.494.213-.213.102.255.09.56-.028.676-.117.118-.2-.09-.185-.463zm-64.652-.035c.255-.102.559-.09.676.028.117.117-.091.2-.463.185-.411-.017-.495-.1-.213-.213zm28.288-.112c-.318-.205-.362-.344-.11-.347a.82.82 0 0 1 .639.347c.27.438.149.438-.53 0zm5.713-.529c.007-.582.086-.777.176-.434s.083.82-.013 1.058c-.097.24-.17-.042-.163-.624zm54.788.53c-.12-.195-.05-.353.156-.353s.373.158.373.352-.07.353-.155.353c-.086 0-.254-.159-.374-.353zm-3.351-.509c0-.28.144-.597.32-.706.175-.109.236.12.135.508-.216.824-.455.928-.455.198zm-68.613-.193c-.124-.2.018-.26.332-.139.61.235.723.488.215.488-.182 0-.429-.157-.547-.35zm3.613.115c.243-.098.64-.098.882 0s.044.178-.44.178c-.486 0-.684-.08-.442-.178zm3.175 0a1.36 1.36 0 0 1 .882 0c.243.098.044.178-.44.178-.486 0-.684-.08-.442-.178zm53.204-.223c.133-.347.33-.543.439-.435.108.109 0 .394-.241.633-.349.346-.39.305-.198-.198zm-76.836-.146c.439-.084 1.074-.08 1.411.007.338.089-.022.158-.798.154-.776-.004-1.052-.076-.613-.16zm6.856-1.338c.007-.582.086-.777.175-.434.09.343.084.82-.013 1.058-.096.24-.17-.042-.162-.624zm3.812.744c0-.077.246-.233.547-.349.314-.12.456-.061.332.139-.207.335-.88.495-.88.21zm5.644-.235c0-.206.159-.276.353-.156.194.12.353.288.353.374 0 .085-.16.155-.353.155s-.353-.168-.353-.373zm17.992-.311c0-.183.157-.43.349-.548.2-.123.259.018.138.332-.234.611-.487.723-.487.216zm8.17-.374c0-.485.08-.684.177-.441.098.243.098.64 0 .882-.097.243-.177.044-.177-.441zm30.079.277c-.144-.25-.141-.344.007-.211.148.133.636-.185 1.084-.706.45-.521.872-.868.941-.771.07.097-.301.619-.823 1.16-.7.725-1.017.864-1.21.528zm6.201-.1c.485-.278 1.04-.505 1.235-.505s-.044.227-.53.504c-.485.278-1.04.505-1.234.505-.194 0 .044-.227.529-.505zm-99.808-.383c.017-.41.1-.494.213-.213.102.255.09.559-.028.676-.117.117-.2-.09-.185-.463zm31.193.206c-.12-.194-.05-.353.156-.353.205 0 .373.159.373.353 0 .194-.07.353-.155.353-.086 0-.254-.159-.374-.353zm7.041-.023c-.128-.207-.157-.452-.064-.545.092-.092.262.077.377.376.238.622.035.731-.313.169zm30.233-.33c0-.485.08-.683.178-.44.098.242.098.639 0 .881-.098.243-.178.044-.178-.44zm3.472.243c0-.061.516-.577 1.147-1.147l1.146-1.036-1.036 1.146c-.966 1.07-1.257 1.31-1.257 1.037zm16.277-.607c-.458-.382-.681-.694-.496-.694s.625.317.976.705c.807.892.598.887-.48-.011zm-62.348-.43l-.672-.793.794.672c.436.37.794.727.794.793 0 .283-.284.074-.916-.672zm12.94.694c.08-.055.464-.332.852-.617.652-.479.669-.471.221.1-.266.34-.65.617-.853.617-.202 0-.302-.045-.22-.1zm70.35-.253c-.12-.194-.05-.352.155-.352.205 0 .373.158.373.352s-.07.353-.155.353c-.086 0-.254-.159-.374-.353zm12.722-.103c.133-.348.33-.544.438-.435.109.109 0 .393-.24.632-.349.346-.39.306-.198-.197zm-49.588-.779c.456-.485.908-.881 1.005-.881.097 0-.197.396-.652.881s-.908.882-1.005.882c-.097 0 .196-.396.652-.882zm10.538.265c-.439-.56-.426-.572.133-.133.34.266.618.544.618.617 0 .29-.29.104-.75-.484zm-44.405.131c0-.073.278-.35.617-.617.56-.439.572-.426.134.133-.461.588-.75.775-.75.484zm29.281-.904c0-.182.157-.429.349-.547.2-.124.259.018.138.332-.234.61-.487.723-.487.215zm-25.753-.726c0-.194.168-.353.374-.353s.275.159.155.353c-.12.194-.288.353-.373.353-.086 0-.156-.16-.156-.353zm59.62.214c0-.076.245-.233.547-.349.313-.12.455-.061.332.139-.208.335-.88.496-.88.21zm-82.198-.567c-.291-.188-.37-.342-.176-.342s.59.154.882.342c.29.188.37.342.176.342s-.59-.154-.882-.342zm45.536-.206c.017-.41.1-.494.213-.213.102.255.09.559-.028.676-.117.117-.2-.09-.185-.463zm22.032.103c-.151-.348-.176-.732-.055-.853.359-.358.647.145.483.84-.147.616-.166.617-.428.013zm8.985-.447c0-.302.161-.45.358-.328.198.121.268.369.156.55-.302.489-.514.398-.514-.222zm4.939.218c0-.183.157-.429.348-.547.2-.124.26.018.14.332-.235.61-.488.723-.488.215zm12.987.091c.254-.102.559-.09.676.028.117.117-.091.2-.463.185-.411-.017-.495-.1-.213-.213zm1.135-.003c-.006-.231.162-.527.373-.657.21-.13.305-.537.209-.903-.096-.367-.03-.578.146-.469.176.109.32.396.32.639 0 .572-1.033 1.943-1.048 1.39zm-38.883-.35c.255-.102.56-.09.677.028.117.117-.091.2-.463.185-.411-.017-.495-.1-.214-.213zm-61.317-.476c0-.187.239-.341.53-.341s.529.062.529.138c0 .077-.238.23-.53.342-.29.112-.529.05-.529-.139zm34.628-.694c0-.485.08-.684.178-.441.098.243.098.64 0 .882s-.178.044-.178-.441zM9.108 74.761c0-1.067.067-1.504.147-.97.081.533.081 1.407 0 1.94-.08.534-.147.097-.147-.97zm23.976 1.158c.537-.081 1.33-.079 1.764.005.434.084-.005.15-.975.147-.97-.003-1.325-.07-.789-.152zm66.758-.1c-.12-.194-.05-.352.156-.352.206 0 .374.158.374.352s-.07.353-.156.353-.254-.159-.374-.353zm2.293.22c0-.073.278-.351.618-.617.56-.44.572-.427.133.133-.46.587-.75.774-.75.484zm6.174-.22c.12-.194.288-.352.374-.352.085 0 .155.158.155.352s-.168.353-.373.353-.276-.159-.156-.353zm-31.456-.513c0-.283.135-.43.3-.329.165.102.208.333.097.514-.286.462-.397.41-.397-.185zM7.647 74.76c0-.485.08-.683.178-.441.098.243.098.64 0 .882-.098.243-.178.044-.178-.441zm16.783.028c-.153-.586-.107-.724.154-.462.205.205.304.58.219.835-.088.264-.248.104-.373-.373zm20.38.325c-.12-.194-.05-.353.156-.353.205 0 .373.159.373.353 0 .194-.07.353-.155.353-.086 0-.254-.16-.374-.353zm.944-1.126c-.034-.91-.22-1.753-.415-1.873-.194-.12-.353-.403-.353-.628s.248-.058.55.374c.357.51.502 1.308.414 2.283l-.135 1.499zm62.204 1.126c.12-.194.055-.353-.144-.353-.198 0-.547-.357-.774-.794-.408-.785-.403-.784.506.052.786.722.971 1.448.37 1.448-.097 0-.078-.16.042-.353zm-59.62-.706c.352-.388.719-.705.816-.705.097 0-.111.317-.463.705-.35.388-.717.706-.814.706-.098 0 .11-.318.462-.706zm52.036.25c.29-.252.747-.69 1.013-.971.414-.44.428-.405.098.239-.212.414-.668.85-1.013.97-.547.191-.56.16-.098-.238zm26.282.103c-.576-.247-.596-.308-.11-.328.329-.014.695.134.815.328.25.406.239.406-.705 0zm-94.06-.97c-.44-.56-.427-.572.133-.133.34.266.617.544.617.617 0 .29-.29.104-.75-.484zm14.537.059c.017-.411.1-.495.213-.213.102.254.09.558-.028.676-.117.117-.2-.091-.185-.463zm20.72-.036c.254-.101.559-.089.676.028.117.118-.091.2-.463.186-.411-.017-.495-.1-.213-.214zm69.372-.135c-.128-.207-.157-.452-.065-.544.093-.093.262.077.377.376.239.622.035.731-.312.168zm-67.72-.33c.97-.416 1.527-.416.883 0-.291.189-.768.334-1.059.324-.349-.013-.289-.123.177-.323zm4.058 0c0-.193.168-.352.373-.352s.276.159.156.353c-.12.194-.288.353-.374.353-.085 0-.155-.16-.155-.353zm-62.746-2.204c-.027-1.31.072-2.381.219-2.381.147 0 .22.754.161 1.676-.183 2.898-.33 3.173-.38.705zm51.174 1.323c.007-.582.086-.778.175-.434.09.343.084.82-.013 1.058-.096.239-.17-.042-.162-.624zm41.206.53c0-.195.476-.354 1.058-.354s1.058.16 1.058.353-.476.353-1.058.353-1.058-.159-1.058-.353zm6.35-.295c0-.162.238-.294.529-.294.29 0 .529.132.529.294 0 .162-.238.294-.53.294-.29 0-.528-.132-.528-.294zm-51.317-.392c-.292-.472.075-1.086.626-1.05.303.02.297.078-.021.206-.243.098-.441.323-.441.501 0 .442.956.41 1.179-.038.098-.199.138-.16.088.088-.116.575-1.13.782-1.431.293zm-50.58-.725c0-.485.08-.684.177-.441.098.243.098.64 0 .882-.097.242-.177.044-.177-.441zm30.51-.091c-.17-.65-.148-.653.503-.063.815.737.816.742.178.742-.277 0-.584-.306-.681-.68zm-6.82-2.202c.001-1.164.067-1.598.146-.964.078.634.077 1.587-.004 2.117-.08.53-.145.011-.143-1.153zm39.577 1.235c.763-.843.765-.844.765-.192 0 .282-.133.432-.294.332-.162-.1-.294-.014-.294.192 0 .205-.184.373-.408.373-.23 0-.13-.305.231-.705zm40.774.147c.017-.411.1-.495.213-.214.102.255.09.56-.027.677-.118.117-.2-.092-.186-.463zM38.798 69.38l-1.394-1.5 1.5 1.395c1.393 1.297 1.66 1.604 1.394 1.604-.058 0-.733-.674-1.5-1.499zm34.995.981c-.109-.284-.08-.59.066-.68.145-.09.287.143.315.517.061.81-.105.882-.38.163zm-41.152-.187c0-.194.168-.353.374-.353.205 0 .275.159.156.353-.12.194-.289.353-.374.353-.086 0-.156-.16-.156-.353zm43.466-1.2c.25-.27.51-.44.579-.376.209.2-.321.87-.688.87-.19 0-.14-.222.11-.493zm75.42-.57c0-.263-.357-.867-.793-1.342l-.794-.865.77.4c.776.405 1.412 1.689 1.026 2.075-.115.114-.209-.006-.209-.269zm-118.91-.964l-.855-.97.97.855c.907.8 1.132 1.085.855 1.085-.063 0-.5-.437-.97-.97zm67.584.548c.388-.22.823-.572.965-.783.179-.263.26-.25.265.046.003.236-.302.593-.677.794-.929.497-1.437.445-.553-.057zm-43.355-.93c-.1-.162.043-.294.317-.294s.416.132.316.294c-.1.161-.242.294-.316.294-.074 0-.217-.133-.317-.294zm-26.142-.765c-.12-.194-.05-.353.156-.353s.374.16.374.353-.07.353-.156.353-.254-.159-.374-.353zm67.91.102c0-.202.278-.586.618-.852.57-.448.578-.432.1.221-.285.388-.563.772-.618.853-.055.08-.1-.02-.1-.222zm2.029-.513c-.34-.356-.478-.647-.308-.647.356 0 1.272 1.02 1.064 1.184-.076.06-.417-.182-.756-.537zm-39.748-.147c.017-.411.1-.495.213-.214.102.255.09.56-.028.677-.117.117-.2-.091-.185-.463zm58.764.117c.09-.145.383-.264.65-.264s.562.119.652.264c.09.146-.203.265-.651.265s-.741-.12-.651-.265zM71.708 64.15c.125-.477.284-.637.373-.372.084.254-.014.63-.219.835-.262.262-.308.124-.154-.463zm-16.531-1.294c-.439-.56-.426-.572.133-.134.34.267.617.545.617.618 0 .29-.29.103-.75-.484zm57.503 0c-.42-.537-.415-.566.045-.224.29.216.767.482 1.058.59.443.163.435.2-.045.223-.316.015-.792-.25-1.058-.59zm2.067-1.119c-.154-.586-.108-.724.154-.462.205.205.303.58.218.835-.088.264-.248.104-.372-.373zm-42.371-.218c-.121-.315-.198-1.235-.17-2.044.046-1.383.064-1.355.296.47.263 2.069.228 2.498-.126 1.574zm21.774 0c-.115-.3-.11-.644.01-.765.122-.121.22.031.22.338 0 .308.2.639.442.737.345.14.343.184-.011.206-.249.015-.546-.217-.661-.517zm-16.31-.356c-.022-.398-.198-.915-.392-1.148-.193-.234-.099-.205.21.064.31.269.486.785.393 1.148-.153.594-.173.588-.21-.064zm-18.914-.159c-.12-.194-.05-.353.155-.353.206 0 .374.159.374.353s-.07.353-.156.353c-.085 0-.253-.159-.373-.353zm22.45-.823c-.292-.352-.273-.47.074-.47.256 0 .465.211.465.47s-.034.47-.075.47c-.04 0-.25-.211-.464-.47zm1.715.337c0-.073.278-.351.617-.617.56-.44.572-.427.133.133-.46.587-.75.774-.75.484zm-30.311-.778c.017-.411.1-.495.213-.213.102.254.09.559-.028.676-.117.117-.2-.091-.185-.463zm17.707-.853c0-.873.069-1.23.153-.793.084.436.084 1.15 0 1.587-.084.437-.153.08-.153-.794zm3.82-.248c.257-.428.543-.702.635-.61.093.094-.117.444-.467.779-.607.581-.615.574-.168-.17zm18.568-1.207c.239-.24.524-.35.632-.24.109.108-.087.305-.435.438-.503.191-.543.15-.197-.198zm-43.571-.866c.335-.35.685-.56.777-.467.093.093-.18.38-.609.636-.743.446-.75.439-.168-.169zm4.859.205c-.318-.206-.362-.345-.11-.348a.82.82 0 0 1 .639.348c.27.438.148.438-.53 0zm4.188-.618c-.439-.56-.426-.572.133-.133.588.46.775.75.484.75-.073 0-.35-.277-.617-.617zm24.361-.295c-.27-.324-.22-.42.186-.36.798.116 1.42.802.727.802-.3 0-.711-.199-.913-.442zm-5.795-.146c.12-.194.288-.353.373-.353.086 0 .156.159.156.353 0 .194-.168.353-.374.353s-.275-.16-.155-.353zm12.553-.1c.08-.055.464-.333.852-.617.653-.479.67-.471.221.1-.266.34-.65.617-.852.617s-.302-.045-.221-.1zm3.453-.87c-.439-.56-.426-.572.133-.133.34.266.617.544.617.617 0 .29-.29.103-.75-.484zm-79.655-1c.017-.41.1-.494.213-.213.102.255.09.559-.028.676-.117.118-.2-.09-.185-.463zm78.872-1.47c-.09-.145.282-.264.827-.264s.918.119.828.264c-.09.146-.462.265-.828.265s-.737-.12-.827-.265zm-73.322-1.034c.255-.102.559-.09.676.027.117.118-.091.201-.463.186-.41-.017-.494-.1-.213-.213zm14.625-.004c.343-.09.82-.084 1.058.013.24.096-.042.17-.624.162-.582-.007-.777-.086-.434-.175zm4.227 0c.34-.088.895-.088 1.234 0 .34.09.062.162-.617.162-.68 0-.957-.073-.617-.161zm-22.027-.35c.254-.102.558-.09.676.028.117.117-.091.2-.463.185-.411-.017-.495-.1-.213-.213zm16.228 0c.254-.102.558-.09.676.028.117.117-.091.2-.463.185-.411-.017-.495-.1-.213-.213zm-6.196-.364a7.796 7.796 0 0 1 1.94 0c.534.08.097.146-.97.146s-1.504-.066-.97-.146zm-3.44-.453c.12-.194.377-.353.571-.353.194 0 .255.159.135.353s-.377.352-.571.352-.255-.158-.135-.352zm8.996 0c-.419-.271-.345-.342.353-.342.485 0 1.12.154 1.41.342.42.27.346.342-.352.342-.485 0-1.12-.154-1.411-.342zm10.054 0c.388-.167 1.023-.299 1.411-.293.567.008.533.066-.176.293-1.206.386-2.134.386-1.235 0zM73.78 50c.102-.165.333-.208.514-.097.461.286.41.397-.186.397-.282 0-.43-.135-.328-.3zm-4.125-1.259c.169-1.217.193-1.242.31-.309.07.557-.013 1.152-.183 1.323-.178.177-.232-.255-.127-1.014zm-37.19.619c-.575-.247-.595-.308-.109-.328.328-.014.695.134.815.328.25.406.238.406-.706 0zm3.963-.044c.24-.241.524-.35.633-.24s-.087.305-.435.438c-.503.191-.544.15-.198-.198zm38.395-.269c-.106-.172.043-.509.332-.749.365-.302.525-.315.525-.04 0 .218-.168.396-.373.396s-.276.16-.156.353.139.353.042.353-.263-.14-.37-.313zm-42.744-1.54l-.672-.793.882.702c.485.386.948.743 1.029.794.08.05-.014.092-.21.092-.196 0-.66-.358-1.029-.794zm31.21.177c-.44-.56-.427-.572.132-.133.34.266.618.544.618.617 0 .29-.29.104-.75-.484zm10.098-.088c.351-.388.718-.706.815-.706.097 0-.11.318-.462.706-.351.388-.718.706-.815.706-.097 0 .111-.318.462-.706zM14.804 46.45l-1.036-1.146 1.147 1.036c1.068.966 1.308 1.257 1.036 1.257-.061 0-.577-.516-1.147-1.147zm11.09.177c-.439-.56-.426-.572.133-.133.34.266.618.544.618.617 0 .29-.29.104-.75-.484zm98.314.297c-.108-.176.12-.236.509-.135.823.216.927.455.197.455-.28 0-.597-.144-.706-.32zm-102.8-.738c0-.485.08-.684.178-.441.098.243.098.64 0 .882s-.178.044-.178-.441zm39.763-.265c-.439-.56-.426-.572.133-.133.34.266.618.544.618.618 0 .29-.29.103-.75-.485zm-19.534-.088c-.575-.247-.595-.308-.109-.328.328-.014.695.134.815.328.25.406.238.406-.706 0zm25.157-.24c.255-.103.56-.09.676.027.118.117-.09.2-.463.185-.41-.017-.494-.1-.213-.213zm-42.522-.554c-.529-.683-.861-1.322-.688-1.322.086 0 .416.396.734.881.595.908.562 1.227-.046.441zm6.32-.44c.008-.583.087-.778.177-.435s.083.82-.013 1.058c-.097.24-.17-.042-.163-.624zm-13.744-1.235c0-.68.073-.957.161-.618.089.34.089.896 0 1.235-.088.34-.161.062-.161-.617zm17.748.73c-.112-.181-.042-.428.156-.55.197-.122.358.026.358.328 0 .62-.212.711-.514.222zm-15.292-1.26c.007-.582.086-.777.176-.434.09.344.083.82-.013 1.059s-.17-.042-.163-.624zm38.527.089l-.672-.794.794.672c.746.632.954.916.672.916-.067 0-.424-.358-.794-.794zm-26.521-.116c.335-.35.685-.56.778-.467.092.093-.182.379-.61.636-.742.446-.75.438-.168-.17zm26.719-1.472L56.1 39.307l2.028 1.928c1.116 1.06 2.029 1.973 2.029 2.029 0 .261-.338-.044-2.129-1.929zm10.404 1.3c-.128-.207-.157-.452-.064-.545.092-.092.262.077.377.377.238.621.035.73-.313.168zm-45.588-1.388c0-.679.073-.957.161-.617.089.34.089.895 0 1.234s-.161.062-.161-.617zm6.127-.648c-.112-.182.018-.515.29-.74.292-.243.577-.275.698-.08.112.181-.019.514-.29.74-.292.242-.577.275-.698.08zm-19.234-2.38c.017-.41.1-.494.213-.213.102.255.09.559-.028.676-.117.117-.2-.091-.185-.463zm14.436-.323c.456-.485.908-.882 1.005-.882.097 0-.197.397-.652.882s-.908.882-1.005.882c-.097 0 .196-.397.652-.882zm4.376-.97l-.672-.794.794.672c.746.631.954.915.672.915-.067 0-.424-.357-.794-.793zm-19.542-.963c-.417-.818-.69-1.556-.605-1.64.084-.085.357.338.606.94.32.77.536.958.735.638.214-.346.338-.304.523.176.133.347.075.798-.129 1.002-.26.26-.599-.076-1.13-1.116zm41.205 1.162c.255-.101.56-.089.676.028.118.118-.09.2-.463.186-.41-.017-.494-.1-.213-.214zm-24.017-.508c.24-.24.524-.35.633-.24.108.108-.087.305-.435.438-.503.191-.544.15-.198-.198zm41.722-1.014c0-.194.754-.334 1.676-.311 1.496.037 1.562.07.617.31-1.56.398-2.293.398-2.293 0zM43.731 33.75l-1.036-1.146 1.147 1.036c1.068.966 1.308 1.257 1.036 1.257-.061 0-.577-.516-1.147-1.147zm19.057-.281c-.699-.773-1.034-1.892-.46-1.537.19.117.256.304.145.414-.32.32.916 1.5 1.314 1.253.206-.127.253-.048.109.185-.33.533-.344.529-1.108-.315zm-12.906-.248c-.439-.56-.426-.572.133-.133.588.461.775.75.485.75-.074 0-.351-.277-.618-.617zm-4.254.024c.254-.102.559-.09.676.028.117.117-.091.2-.463.185-.411-.017-.495-.1-.213-.213zM7.24 32.604c-.253-.305-.288-.53-.081-.53.197 0 .45.239.561.53s.148.53.081.53c-.067 0-.32-.239-.561-.53zm69.497-.706c.455-.485.908-.882 1.005-.882.097 0-.197.397-.653.882-.455.485-.907.882-1.004.882-.097 0 .196-.397.652-.882zm-59.972-.902c0-.206.158-.276.353-.156s.352.288.352.374c0 .085-.158.155-.352.155s-.353-.168-.353-.373zM9.74 29.958c-.01-.29.135-.767.323-1.058.417-.645.417-.088 0 .882-.2.465-.31.525-.323.176zm38.396-.617l-.855-.97.908.797c.5.438 1.041.676 1.203.529.163-.148.181-.07.042.173-.335.58-.311.59-1.298-.53zm-43.057 0c-.438-.56-.426-.572.134-.133.587.46.774.75.484.75-.074 0-.351-.278-.618-.617zm45.581-1c.017-.41.1-.494.213-.213.102.255.09.559-.027.676-.118.117-.201-.09-.186-.463zm9.497.206c0-.194.16-.353.353-.353.194 0 .353.159.353.353a.354.354 0 0 1-.353.353.354.354 0 0 1-.353-.353zm-10.203-.559c.017-.41.101-.494.214-.213.101.255.089.56-.028.676-.117.118-.2-.09-.186-.463zm-1.058-1.058c.017-.41.1-.494.213-.213.102.255.09.559-.028.676-.117.117-.2-.091-.185-.463zm-33.994-1.203c-.27-.387-.581-.614-.69-.506-.109.109-.286.055-.394-.12-.42-.679.86-.272 1.592.506.425.453.596.823.379.823-.217 0-.616-.316-.887-.703zm45.491.115a.972.972 0 0 1-.235-.6c0-.22.164-.2.417.054.23.23.336.5.236.6-.1.1-.289.076-.418-.054zm-10.438-1.381c.017-.411.1-.495.213-.213.102.254.09.558-.028.676-.117.117-.2-.091-.185-.463zm-26.393-.048c.536-.08 1.33-.079 1.764.005.434.084-.005.15-.975.148-.97-.003-1.325-.072-.789-.153zm36.95-.276c-.254-.305-.288-.529-.082-.529.197 0 .45.238.561.53.112.29.149.528.081.528-.067 0-.32-.238-.56-.529zm-48.304-.382c.017-.41.1-.494.213-.213.102.255.09.559-.028.676-.117.117-.2-.091-.185-.463zm68.517-1.558c0-1.067.066-1.504.147-.97.08.533.08 1.407 0 1.94s-.147.097-.147-.97zM7.153 23.375c.243-.098.64-.098.882 0 .243.097.044.177-.44.177-.486 0-.684-.08-.442-.177zm66.41-.109c0-.187-.238-.25-.529-.138-.291.111-.53.123-.53.026 0-.453.981-.475 1.582-.036.59.431.599.49.074.49-.328 0-.597-.154-.597-.342zm-12.7-.384c0-.206.159-.276.353-.156s.353.288.353.374c0 .085-.16.155-.353.155s-.353-.168-.353-.373zm-49.043-.517c-.373-.449-.35-.5.133-.315.319.123.58.364.58.538 0 .453-.205.39-.713-.223zm63.165.361c0-.194.154-.59.342-.882.188-.29.342-.37.342-.176s-.154.59-.342.882-.342.37-.342.176zm-68.097-.311c0-.075.318-.219.706-.32.388-.102.705-.04.705.135 0 .176-.317.32-.705.32-.388 0-.706-.061-.706-.135zm6.703-.351c0-.073.278-.351.617-.618.56-.438.572-.426.133.134-.46.587-.75.774-.75.484zm9.878-.38c0-.273 1.05-.491 1.199-.25.09.145-.144.287-.518.315-.375.028-.681-.001-.681-.065zm48.507-.193c-.12-.194-.06-.352.134-.352.195 0 .451.158.571.352.12.195.06.353-.134.353s-.451-.158-.571-.353zm-2.387-.396c.239-.241.524-.35.632-.24.109.108-.087.305-.435.437-.503.192-.543.151-.197-.197zm-61.9-.2c.343-.09.82-.084 1.058.012.239.097-.042.17-.624.163-.582-.007-.778-.086-.434-.176zm54.812-.381c-.11-.18.243-.751.786-1.271.697-.669.987-.79.987-.413 0 .683-1.507 2.114-1.773 1.684zm1.008-.786c.351-.388.56-.706.462-.706-.097 0-.463.318-.815.706-.35.388-.559.705-.462.705.097 0 .464-.317.815-.705zm-50.02.064c.428-.375.666-.807.528-.96-.137-.151-.05-.162.192-.022.603.347.577.4-.53 1.074l-.97.591zm66.805-.623c.017-.41.1-.495.213-.213.102.255.09.559-.027.676-.118.117-.201-.091-.186-.463zm-69.104-.676c.007-.582.086-.778.176-.434.09.343.083.82-.013 1.058-.097.239-.17-.042-.163-.624zm54.024-.337c0-.283.135-.43.3-.329.165.102.208.333.097.514-.286.461-.397.41-.397-.185zm-37.596-.089c.44-.084 1.074-.081 1.411.007.338.088-.021.157-.798.153-.776-.003-1.052-.076-.613-.16zm51.993-.72c-.385-.9-.376-.921.12-.286.294.377.535.813.535.97 0 .536-.24.286-.655-.685zm-12.925-.085c-.123-.2.018-.259.332-.138.611.234.723.487.216.487-.183 0-.43-.157-.548-.349zm-3.706-.137c0-.073.277-.351.617-.617.56-.44.572-.427.133.133-.46.587-.75.774-.75.484zm4.586-.22c-.291-.188-.37-.342-.177-.342.194 0 .591.154.882.342.291.188.37.342.177.342s-.591-.154-.882-.342zm2.05-.24c.255-.103.56-.09.676.027.118.117-.09.2-.463.186-.41-.017-.494-.101-.213-.214zm-44.296-.708c.34-.09.895-.09 1.235 0 .34.088.062.161-.618.161-.679 0-.956-.073-.617-.161zm3.793-.11c-.645-.417-.088-.417.881 0 .466.2.526.31.177.323-.291.01-.767-.135-1.058-.323zm25.047.242c0-.06.515-.576 1.146-1.146l1.147-1.036-1.037 1.146c-.965 1.069-1.256 1.309-1.256 1.036zm24.694-.134c0-.199-.668-1.138-1.483-2.087-.816-.949-1.038-1.328-.495-.843 1.285 1.147 2.466 2.804 2.192 3.077-.118.119-.215.052-.215-.147zm-51.241-3.87c.242-.097.639-.097.881 0s.045.179-.44.179c-.486 0-.684-.08-.441-.178zm3.968-.648c.456-.485.908-.882 1.005-.882.097 0-.196.397-.652.882s-.908.882-1.005.882c-.097 0 .197-.397.652-.882zm-2.822.177c-.318-.206-.361-.344-.109-.348a.82.82 0 0 1 .638.348c.271.438.149.438-.529 0zm1.058-.353c0-.194.169-.353.374-.353.206 0 .276.159.156.353-.12.194-.288.353-.374.353-.086 0-.156-.16-.156-.353zm-14.11-.979c0-.215.16-.49.358-.612s.251-.41.12-.638c-.131-.23-.109-.3.05-.155.159.143.541.069.85-.166.309-.235.165.044-.32.62-.485.577-.922 1.114-.97 1.195-.049.08-.089-.029-.089-.244zM67.3 9.95c.534-.081 1.407-.081 1.94 0s.098.147-.97.147c-1.067 0-1.503-.066-.97-.147zM7.9 9.232c-.438-.56-.426-.572.134-.133.34.267.617.544.617.618 0 .29-.29.103-.75-.485zm3.881 0c-.439-.56-.426-.572.133-.133.588.461.775.75.484.75-.073 0-.35-.277-.617-.617zm7.277-3.263c.351-.388.718-.705.815-.705.097 0-.111.317-.462.705-.351.388-.718.706-.815.706-.097 0 .11-.318.462-.706zm2.62-.5c-.015-.016-.095-.426-.178-.91-.094-.549-.04-.713.14-.434.224.345.443.283.938-.264.355-.393.82-.709 1.033-.702.212.006.054.289-.352.628-.405.34-.701.863-.657 1.164.059.4-.667.807-.924.518zm4.435-.91c.352-.389.718-.706.815-.706.097 0-.11.317-.462.705-.351.388-.718.706-.815.706-.097 0 .111-.318.462-.706zm-13.582-2.25c0-.074.278-.352.618-.618.56-.439.572-.426.133.133-.46.588-.75.775-.75.484z" fill="#ececec"/><path d="M100.49 170.54c-.122-.32-.053-.749.154-.956.537-.537 1.556-.046 1.415.683-.156.812-1.287 1.008-1.569.272zm-69.978-10.896c0-.073.278-.35.617-.617.56-.439.572-.426.134.133-.461.588-.751.775-.751.484zm2.424-.484c-.438-.56-.426-.572.134-.133.34.266.617.544.617.617 0 .29-.29.104-.75-.484zm35.686-.542c-.479-.241-1.102-.85-1.385-1.355-1.063-1.894 1.013-4.205 3.269-3.64 1.94.488 2.562 2.66 1.192 4.166-1.017 1.12-1.982 1.38-3.076.83zm2.9-1.027c.34-.393.618-1.021.618-1.396 0-.907-1.543-2.415-2.47-2.415-.872 0-2.47 1.488-2.47 2.3 0 2.309 2.79 3.284 4.322 1.511zm14.62.55c-.329-.33.069-.833.658-.833a.52.52 0 0 1 .509.53c0 .53-.745.724-1.167.303zm-23.37-1.217c-.364-.588.453-1.262.94-.776.407.407.152 1.16-.393 1.16-.17 0-.417-.173-.548-.384zm68.912-3.138c2.403-.57 3.463-2.576 3.062-5.79-.183-1.463-.397-1.955-.908-2.089-.751-.196-.89-1.29-.246-1.934.33-.33.33-.423 0-.423-.232 0-.423-.239-.423-.53 0-.294.314-.529.706-.529.388 0 .705-.142.705-.316 0-.463-2.299-2.404-3.178-2.683-.416-.132-.679-.317-.585-.41.278-.278 2.11.803 3.031 1.788 1.028 1.1 1.298 1.137 1.54.21.238-.91 1.52-.925 2.002-.023.568 1.062.447 1.508-.34 1.258-1.01-.32-.874.34.166.813.98.447 1.52 1.958.946 2.65-.207.25-.287.801-.176 1.225.346 1.32-.208 3.15-1.31 4.33-.582.623-1.136 1.055-1.23.96-.095-.094.144-.87.531-1.724.41-.904.707-2.322.712-3.396.008-1.862-.86-4.682-1.442-4.682-.43 0-.395.484.068.947.6.6.81 4.435.348 6.331-.618 2.535-2.45 4.4-4.248 4.328-.765-.031-.727-.076.27-.312zm-107.72-.742c-.363-.588.454-1.263.941-.776.407.407.152 1.16-.393 1.16-.17 0-.417-.173-.548-.384zm34.122-.735c.078-.548.352-.822.822-.822 1.05 0 .946 1.377-.116 1.528-.684.097-.803-.022-.706-.706zm15.21-.078c-3.318-1.084-6.102-3.423-7.607-6.393-.973-1.919-1.413-5.114-1.007-7.312 1.78-9.633 13.34-13.553 20.367-6.906 4.904 4.638 5.199 12.162.672 17.172-1.956 2.165-5.244 3.656-8.391 3.804-1.535.073-3.138-.072-4.034-.365zm8.266-1.747c4.07-2.073 6.287-5.655 6.254-10.11-.023-3.125-.798-5.14-2.851-7.418-4.244-4.706-12.233-4.714-16.47-.016-2.018 2.238-2.812 4.308-2.851 7.435-.027 2.163.135 3.005.89 4.616 1.417 3.022 4.006 5.258 7.366 6.364 1.752.576 5.7.128 7.662-.87zm-7.853-4.417c-1.23-.75-2.988-2.725-2.972-3.338.006-.228.186-.097.4.291a7.175 7.175 0 0 0 3.293 3.038c.776.358 1.173.654.882.658-.29.004-1.012-.289-1.602-.649zm5.307-.01a7.175 7.175 0 0 0 3.293-3.037c.214-.388.395-.513.4-.277.028 1.096-3.362 3.995-4.645 3.973-.253-.004.176-.3.952-.659zm.882-2.288c0-.074.278-.351.617-.618.56-.438.572-.426.134.134-.461.587-.75.774-.75.484zm-9.424-3.218c.003-.97.071-1.326.152-.79.081.537.08 1.33-.005 1.765-.083.433-.15-.005-.147-.975zm12.31.117c-.035-.906-.155-1.938-.267-2.293-.19-.606-.178-.608.196-.026.22.34.34 1.373.267 2.293l-.132 1.672-.064-1.646zm-11.288-3.822c.574-.942 2.608-2.478 3.251-2.455.214.008-.087.259-.67.557-.581.299-1.521 1.046-2.088 1.662-.799.867-.91.92-.493.236zm10.027-.17c-.315-.481-1.167-1.188-1.893-1.571-.725-.383-1.144-.704-.93-.712.599-.024 2.653 1.478 3.234 2.365.286.437.44.794.342.794-.099 0-.437-.394-.753-.876zm-5.593-2.548a5.026 5.026 0 0 1 1.588 0c.436.084.079.153-.794.153s-1.23-.069-.794-.153zm53.45 16.95c-.807-.326.484-1.18 1.735-1.15l1.171.029-1.025.452c-.7.31-.869.515-.53.65.32.126.247.196-.209.196-.388 0-.902-.08-1.143-.177zm-105.57-1.531c0-.194.158-.353.352-.353s.353.159.353.353c0 .194-.16.353-.353.353s-.353-.16-.353-.353zm39.402.127c-.282-.282.037-.833.482-.833.182 0 .332.238.332.53 0 .545-.417.7-.814.303zm-11.466-1.212c.07-.208.277-.379.462-.379.184 0 .392.17.461.38.07.208-.138.379-.461.379s-.531-.171-.462-.38zm57.788-1.517c0-.074.278-.352.617-.618.56-.439.572-.426.134.133-.461.588-.75.775-.75.485zm-2.414-1.631c0-.485.08-.684.178-.441.098.242.098.64 0 .882s-.178.044-.178-.441zm1.003.176a.53.53 0 1 1 .53.53.53.53 0 0 1-.53-.53zm1.608-1.422c-.376-.285-.515-.518-.308-.518.208 0 .575.238.817.53.549.661.376.657-.509-.012zm5.448.188c0-.194.158-.353.352-.353s.353.159.353.353-.159.352-.353.352-.352-.158-.352-.352zm-72.717-.618c-.44-.56-.427-.572.133-.133.587.46.774.75.484.75-.073 0-.351-.277-.617-.617zm58.253-.264c0-.291.238-.53.529-.53s.529.239.529.53a.53.53 0 0 1-1.058 0zm-55.358-.735c.016-.411.1-.495.213-.213.102.254.089.558-.028.676-.117.117-.2-.091-.185-.463zm48.185.055c-.107-.277.043-.7.332-.94.424-.351.634-.329 1.08.117.304.304.445.727.314.94-.343.555-1.499.476-1.726-.117zm18.036-1.189c-1.663-1.845-2.673-3.825-2.945-5.772l-.213-1.532.716.882c.395.485.984 1.597 1.31 2.47 1.097 2.942 1.658 2.772.65-.198-.645-1.898-.497-2.265.506-1.261.926.925 1.525 3.182 1.39 5.237l-.107 1.625zm-99.058.634c0-.194.158-.353.352-.353.194 0 .353.159.353.353a.354.354 0 0 1-.353.353.354.354 0 0 1-.352-.353zm8.29 0c-.12-.194-.05-.353.155-.353s.374.159.374.353c0 .194-.07.353-.156.353-.085 0-.253-.16-.373-.353zm85.372-.706c-.12-.194-.05-.352.155-.352.206 0 .374.158.374.352s-.07.353-.156.353c-.085 0-.253-.159-.373-.353zm17.464-.474c.93-1.06 2.476-2.005 3.244-1.981.252.008-.097.254-.776.548-.68.294-1.71.963-2.292 1.486l-1.057.95zm-22.48.114c-1.373-.552-1.542-3.214-.198-3.127.592.039.592.05-.01.207-1.123.29-.616 1.947.815 2.662 1.264.631.805.826-.607.258zm2.047-.08c.08-.05.623-.486 1.205-.97l1.059-.883-.856.97c-.47.534-1.012.97-1.205.97-.192 0-.284-.04-.203-.088zm-64.065-.63c-.137-.22-.083-.568.12-.771.474-.474 1.58-.06 1.387.519-.197.59-1.195.757-1.507.253zm79.098-1.625c-.282-.282.037-.832.482-.832.182 0 .332.238.332.529 0 .545-.417.7-.814.303zm9.902-.024c.439-.084 1.074-.08 1.41.007.338.089-.02.158-.797.154-.776-.004-1.052-.076-.613-.16zm-12.563-1.108c-.03-.262-.569-.962-1.2-1.556l-1.146-1.08 1.19.233c.655.128 1.608.244 2.117.257.907.023.91.031.152.398-.427.206-.84.79-.918 1.299-.078.509-.166.71-.195.449zm1.163-.084c-.364-.588.454-1.263.94-.776.408.407.153 1.16-.392 1.16-.171 0-.418-.173-.548-.384zm23.368-1.566c-3-3.372-8.016-5.075-13.471-4.574-1.358.124-4.851.787-7.761 1.473-6.439 1.516-8.812 1.495-11.777-.1a620.741 620.741 0 0 0-2.558-1.371c-.362-.192-.658-.458-.658-.593s-.199-.453-.441-.71c-.923-.975-2.386-3.376-3.455-5.67-.61-1.309-1.233-2.38-1.384-2.38s-.372-.596-.49-1.323c-.225-1.377-3.297-7.144-3.806-7.144-.16 0-.712.833-1.228 1.852-.516 1.018-1.335 2.372-1.82 3.008-.484.636-.818 1.208-.743 1.271.076.063.455.29.843.504.585.323.483.355-.588.187-1.066-.167-1.377-.07-1.763.549-.258.413-1.145 1.178-1.97 1.7-.84.53-1.5 1.221-1.5 1.57 0 .943 2.107 3.146 3.701 3.87.778.354 1.19.646.916.65-1.003.016-3.519-1.786-4.295-3.075a58.617 58.617 0 0 0-.888-1.449c-.05-.067-1.099.281-2.331.775-4.306 1.722-10.262 1.81-14.532.211-5.88-2.2-10.817-7.62-12.37-13.579-.732-2.813-.705-2.984.479-2.984.936 0 1.037.129 1.255 1.582.39 2.598 2.533 6.413 4.976 8.856 5.35 5.349 13.428 6.843 20.105 3.719 1.807-.846 2.285-1.235 2.307-1.879.015-.447.108-.614.206-.371.098.242.368.44.601.44.432 0 4.104-3.538 4.104-3.953 0-.126-.278-.3-.617-.39-.407-.106-.308-.175.29-.202.698-.031 1.08-.387 1.653-1.54 1.687-3.39 1.697-3.273-.444-4.94-2.761-2.151-4.743-3.226-4.9-2.658-1.146 4.156-1.41 4.694-3.174 6.458-2.966 2.966-7.559 3.907-11.397 2.335-.933-.383-2.115-.787-2.628-.898-1.209-.263-4.12-3.46-5.431-5.964-.566-1.08-.953-2.014-.86-2.077.092-.062.832-.626 1.645-1.254l1.476-1.141-.177 1.145c-.135.873.194 1.899 1.386 4.32 1.76 3.576 2.2 4.063 4.67 5.162 3.504 1.559 7.881.774 10.69-1.917 1.502-1.439 2.803-3.978 2.945-5.747l.11-1.378-3.984-1.32c-2.191-.724-5.406-1.507-7.144-1.738-1.737-.232-3.16-.544-3.16-.694 0-.454 2.527-1.007 4.587-1.004 2.068.004 5.675.732 7.85 1.585.727.285 1.322.372 1.322.192 0-1.734-2.855-4.932-5.388-6.034-3.121-1.359-5.799-1.088-9.87.998-.145.075-.264-.043-.264-.263 0-.219.833-.786 1.852-1.26 3.416-1.59 8.162-1.02 11.006 1.324 1.512 1.247 3.37 3.96 3.37 4.923 0 .346.356.848.793 1.117.437.269 2.188 1.384 3.893 2.478 1.704 1.094 3.173 1.989 3.263 1.989.09 0 .164-.999.164-2.22 0-6.415-3.906-12.971-9.472-15.896-3.112-1.636-6.751-2.518-8.29-2.01-.611.2-2.064.347-3.228.324-1.164-.023-2.575.14-3.136.365-.56.223-1.055.362-1.099.308-.043-.054-.271-.467-.506-.918-.378-.725-.34-.843.333-1.019.755-.197.772-.39.177-2.042-.14-.388.087-.175.504.474.55.855.923 1.113 1.36.941 1.35-.531 4.946-.924 6.6-.72l1.764.216.966-1.49c1.157-1.784 1.487-3.307 1.216-5.602-.266-2.242-1.319-4.245-2.965-5.639-.734-.621-1.016-.968-.628-.77.984.5 2.443 2.13 3.22 3.595.488.92.655 1.995.658 4.233.002 2.542-.124 3.203-.831 4.34-.46.738-.777 1.384-.706 1.436.208.152 3.004.927 3.347.927.173 0 .26-.686.193-1.525-.204-2.563.52-4.464 2.392-6.277 5.103-4.944 13.157-1.584 13.203 5.509.024 3.69-2.297 6.726-5.837 7.634-.937.24-1.705.544-1.705.675s.327.653.725 1.16c.399.507 1.277 2.116 1.951 3.576l1.227 2.654 1.267-.53c.696-.29 2.046-.529 2.999-.529 1.74 0 4.482.873 4.062 1.293-.124.123-1.378.205-2.788.18-2.892-.05-2.707.465.301.84 1.914.24 2.849-.057 4.28-1.36.93-.848 1.037-.331.247 1.196-1.046 2.024-3.98 2.292-7.556.69-1.255-.562-2.386-.957-2.514-.879-.127.08-.085.9.095 1.826.179.925.224 2.892.099 4.37l-.227 2.688 1.288 1.687c.708.927 1.585 2.27 1.95 2.984 1.245 2.443 6.576 5.848 11.08 7.079 4.102 1.12 7.058.896 10.48-.795 4.205-2.078 7.759-5.377 11.331-10.515.467-.671.55-.709.353-.16-.443 1.239-1.57 2.655-4.778 6.004-3.52 3.677-5.937 5.471-9.142 6.788-4.302 1.768-9.907.912-14.59-2.228-1.303-.874-2.45-1.509-2.549-1.41-.369.369 1.932 5.394 3.635 7.94 3.387 5.06 6.249 5.821 14.73 3.916 9.32-2.094 16.37-1.16 20.802 2.756.952.84 2.716 3.26 2.326 3.19-.06-.01-.872-.879-1.807-1.929zM94.174 91.562c.767-.414 1.878-1.44 2.47-2.282.959-1.367 1.073-1.805 1.073-4.11 0-2.335-.106-2.727-1.11-4.114-3.255-4.494-10-4.083-12.464.758-.935 1.838-1.154 3.304-.73 4.879.301 1.119.704 1.6 1.949 2.33.862.505 2.304 1.555 3.202 2.333 1.459 1.262 1.772 1.39 2.924 1.186.71-.125 1.918-.566 2.685-.98zm-1.925-6.573c0-.531.184-.722.617-.639.34.066.618.353.618.639s-.278.573-.618.638c-.433.084-.617-.107-.617-.638zm-47.62 48.925c-.678-.216-1.872-1.033-2.654-1.816-4.92-4.928-1.461-13.367 5.472-13.35 2.363.007 4.048.682 5.617 2.251 1.58 1.58 2.245 3.263 2.23 5.646-.032 5.5-5.189 9.013-10.666 7.269zm6.466-1.035c4.05-2.24 4.955-7.601 1.874-11.11-3.94-4.487-11.193-2.688-12.587 3.122-.906 3.775 1.337 7.56 5.217 8.801 1.418.454 3.857.093 5.495-.813zm86.31-.794c-1.49-.798-1.526-.851-.594-.866.547-.01 1.3-.18 1.676-.381.705-.378 1.008.122.329.542-.236.145-.231.448.012.903.445.831.518.841-1.423-.198zm2.198-.243c.218-.654.978-.762.978-.14 0 .308-.252.56-.559.56s-.496-.19-.419-.42zm1.86.066c-.12-.194.038-.352.352-.352s.473.158.353.352c-.12.194-.279.353-.353.353-.074 0-.233-.159-.353-.353zm-108.13-1.058c0-.194.158-.353.352-.353.194 0 .353.16.353.353a.354.354 0 0 1-.353.353.354.354 0 0 1-.353-.353zm129.64-.857c-3.055-1.831-4.119-6.407-2.36-10.148.429-.911.78-1.86.78-2.107 0-.248.254-.087.565.357.65.927.739 2.377.362 5.876-.338 3.14.21 2.427.972-1.267.6-2.902.4-4.427-.742-5.708-.612-.686-.606-.697.253-.456.486.137 1.375.793 1.978 1.458 1.07 1.18 1.86 1.644 1.323.776-.147-.24.168-.091.702.328.967.761 2.942 1.393 3.284 1.051.1-.1-.587-.544-1.525-.989l-1.705-.808 1.334-.125c2.289-.214 4.487 1.682 4.487 3.87 0 .699-.04.709-.645.16-.355-.32-1.059-.583-1.564-.583-1.255 0-2.746-.603-3.7-1.496l-.793-.744v2.012c0 1.371-.291 2.704-.914 4.183-.867 2.06-.93 2.994-.308 4.6.32.829-.094.773-1.784-.24zm-30.083.266c-.276-.111.159-.573 1.105-1.173 2.501-1.586 2.271-1.903-.395-.544-1.349.687-2.66 1.25-2.914 1.25-.78 0 1.131-1.775 2.837-2.634 1.598-.806 4.674-1.452 5.242-1.1.506.312-2.499 3.305-3.908 3.892-.722.301-1.357.535-1.411.52-.055-.016-.305-.11-.556-.211zm24.52-.962c-.229-1.407.134-2.793.846-3.233.286-.177.37-.098.246.23-.533 1.416-.654 2.087-.376 2.087.17 0 .48-.437.691-.97l.384-.97.037 1.126c.024.715-.265 1.479-.788 2.088l-.827.96zm-59.312-.163c-.152-.246-.18-.543-.064-.66.316-.315.66.15.49.661-.12.358-.203.358-.426-.001zm68.295-.511c-.45-.48-.755-1.243-.738-1.853l.029-1.035.969 2.117.026-1.235c.035-1.595.544-.76.807 1.323.216 1.706-.003 1.843-1.093.683zm-74.934.214c.44-.085 1.074-.081 1.412.007.337.088-.022.157-.798.153-.776-.004-1.052-.076-.614-.16zm61.828-1.21c.014-2.691 1.489-5.11 3.61-5.916 1.305-.496 1.223-.152-.442 1.864-1.571 1.9-1.695 2.162-.794 1.673.754-.409 2.323-2.081 2.852-3.041.34-.615.391-.53.4.659.012 1.434-.482 2.036-4.2 5.115l-1.433 1.187.008-1.54zm-44.105.754c0-.194.16-.353.353-.353s.353.159.353.353-.159.352-.353.352-.353-.158-.353-.352zm-10.073-.384c-.13-.21-.531-.306-.892-.212-.625.164-.628.135-.048-.638.71-.95.989-.87 1.221.346.183.956.096 1.113-.28.504zm8.828.013c-.335-.542.124-.892.577-.44.253.254.26.451.018.6-.197.122-.465.05-.595-.16zm-15.048-.576c.255-.102.559-.09.676.028.117.117-.091.2-.463.185-.41-.017-.494-.1-.213-.213zm-63.165-.664c-1.776-.964-1.735-3.623.071-4.557.57-.294 1.26-.535 1.535-.535.74 0 2.244 1.29 2.458 2.108.264 1.008-.05.889-.454-.172-.741-1.95-3.406-1.95-4.294 0-.848 1.862 1.207 3.912 3.07 3.062.492-.223 1.037-.765 1.213-1.203.228-.567.327-.626.343-.205.026.695-1.585 2.06-2.407 2.04-.313-.008-1.004-.25-1.535-.538zm60.886.202c-.704-.284-1.462-1.06-1.036-1.06.104 0 .709.316 1.344.703 1.187.724 1.035.899-.308.357zm13.412-1.634c-.497-1.265-.588-1.776-.268-1.51.266.22 1.08.615 1.81.878 1.202.433 1.251.5.532.706-.45.13-.794.508-.794.872 0 1.316-.551.908-1.28-.946zm1.986 1.455c0-.363.231-.536.617-.462.744.143.697.77-.07.929-.319.067-.547-.128-.547-.467zm35.63.177a.354.354 0 0 1 .706 0 .354.354 0 0 1-.352.352.354.354 0 0 1-.353-.352zm27.204-.846c-.904-.5-1.778-1.82-1.778-2.682 0-.327.332-.125.868.529 1.088 1.328 1.222.365.14-1.01-.402-.512-.554-.93-.337-.93.63 0 2.126 1.67 2.126 2.375 0 .353.247.995.55 1.427.506.723.5.783-.089.771-.35-.007-1.017-.222-1.48-.48zm-18.575-4.279c.263-.875.98-2.374 1.595-3.33 1.04-1.623 1.87-2.444 5.173-5.125l1.3-1.055-.206 1.585c-.18 1.38-.49 1.847-2.4 3.613-2.45 2.267-2.344 2.63.247.851 2.242-1.54 3.298-3.12 3.313-4.96l.012-1.447.694.832c.46.553.694 1.36.694 2.4 0 3.394-2.296 5.548-6.88 6.454-1.164.23-2.545.723-3.069 1.096l-.952.678.479-1.592zm-27.043-.255c.203-.243.897-.74 1.542-1.104l1.174-.662-1.235 1.089c-1.226 1.082-2.187 1.52-1.481.677zm-91.926-1.872c-.431-.302-.784-.73-.784-.95s.198-.138.44.183c.243.321.839.738 1.324.927.485.19.64.354.343.366s-.892-.224-1.323-.526zm89.35.304c.195-.19 1.312-1.07 2.483-1.954 3.005-2.268 6.137-5.735 7.504-8.305.641-1.206 1.554-3.723 2.028-5.592 2.535-9.992-.55-18.206-8.507-22.646-1.528-.852-1.81-1.11-1.038-.947 3.299.691 7.44 3.716 9.2 6.72 1.792 3.057 2.375 5.367 2.4 9.509.028 4.767-.753 7.625-3.423 12.52-1.388 2.545-2.548 4.07-4.834 6.35-1.654 1.651-3.718 3.382-4.586 3.846-.868.465-1.42.689-1.226.498zm-86.871-.665c.766-.91.792-2.04.063-2.77-.305-.304-.39-.554-.189-.554.469 0 1.096 1.167 1.096 2.04 0 .37-.357.976-.794 1.345-.793.672-.793.672-.176-.06zm51.417.269c0-.224.49-.925 1.09-1.559l1.09-1.152-.988 1.411-1.09 1.559c-.056.08-.102-.036-.102-.26zm49.389-.065c0-.194.159-.353.353-.353s.352.16.352.353c0 .194-.158.353-.352.353s-.353-.159-.353-.353zm-19.594-.376c-.128-.207-.137-.472-.021-.588.116-.116.212-.038.212.174s.278.458.617.547c.557.145.559.165.02.202-.327.023-.7-.128-.828-.335zm13.949-.859c0-.29.238-.529.529-.529s.53.238.53.53a.53.53 0 0 1-1.06 0zm3.175-.176c0-.194.159-.353.353-.353.194 0 .352.159.352.353a.354.354 0 0 1-.352.353.354.354 0 0 1-.353-.353zm-28.365-.65c-.122-.198-.05-.466.16-.596.542-.335.892.124.44.577-.254.253-.451.26-.6.019zm-73.235-.306c0-.203.278-.587.617-.853.571-.448.579-.431.1.222-.285.388-.562.771-.617.852-.055.08-.1-.019-.1-.221zm133.49-.947c-1.887-.879-3.316-2.469-3.316-3.69 0-.7.029-.696.9.111.993.92 2.954 1.455 6.646 1.812 2.793.27 3.051-.333.307-.717-2.226-.312-5.442-1.227-6.038-1.718-.647-.531 1.297-1.24 3.502-1.277 2.69-.044 4.858.925 7.118 3.182 2.352 2.35 2.65 3.27.898 2.768-.7-.2-1.941-.192-3.263.022-3.272.531-4.793.42-6.754-.493zm-131.79-.455c.254-.101.559-.089.676.028.117.117-.091.2-.463.186-.411-.017-.495-.101-.213-.214zm14.883-.288a.53.53 0 0 1 .529-.529.53.53 0 1 1-.53.53zm-26.811-.529c0-.47.235-.705.705-.705s.706.235.706.705-.235.706-.706.706-.705-.236-.705-.706zm120.58-.24c.254-.103.559-.09.676.027.117.117-.091.2-.463.185-.411-.017-.495-.1-.213-.213zm-88.978-.413c-.395-.639.215-1.504.983-1.394 1.026.146 1.017 1.48-.012 1.626-.418.06-.855-.045-.971-.232zm52.796-3.202c-1.645-3.416-1.87-5.11-.9-6.75.69-1.17 1.75-1.78 1.345-.776-.58 1.44-.579 3.28.003 5.245.76 2.563 1.118 1.89.513-.963-.244-1.15-.354-2.18-.244-2.29.31-.31 1.925 2.375 2.183 3.627.25 1.216-.24 3.496-.953 4.433-.39.513-.64.189-1.947-2.526zm35.25.82c.317-.316.745-.516.952-.445.206.07-.052.33-.575.574-.879.412-.907.403-.376-.129zm-111.69-.39c-.19-.502-.15-.543.198-.197.241.24.35.524.241.633-.108.108-.306-.087-.438-.435zm125.19.085c-.573-.434-.59-.52-.111-.53.314-.005 1.293-.33 2.174-.719 1.206-.534 1.818-.626 2.48-.374 1.31.498 1.571 1.14.28.69-.816-.284-1.261-.239-2.04.207l-.998.571 1.412-.198c1.377-.193 1.39-.186.529.324-1.139.674-2.855.687-3.725.029zm-115.95-.084a5.026 5.026 0 0 1 1.588 0c.437.084.08.153-.793.153-.874 0-1.23-.069-.794-.153zm-14.73-.636c-.624-.75-.153-1.656.79-1.52 1.018.144 1.224 1.19.329 1.668-.52.28-.795.243-1.12-.148zm12.14-.614l-.672-.794.794.672c.745.632.954.916.672.916-.067 0-.425-.358-.794-.794zm6.383.088c.352-.388.718-.706.815-.706.097 0-.11.318-.462.706-.351.388-.718.706-.815.706-.097 0 .111-.318.462-.706zm60.183-.405c-.504-1.447-.488-2.144.065-2.901.391-.534.44-.41.365.903-.066 1.143-.02 1.302.181.64.23-.755.304-.793.508-.262.279.726-.057 2.73-.457 2.73-.151 0-.449-.5-.662-1.11zm9.49-.339c-1.948-.662-3.527-2.008-3.527-3.007 0-.366.33-.207 1.04.503.571.571 1.405 1.132 1.852 1.246.675.171.604.032-.422-.827-1.358-1.135-.942-1.364.896-.492 1.138.54 1.907 1.413 2.382 2.704.266.724.286.725-2.22-.127zm49.065.077c-.036-1.09 2.468-4.443 2.858-3.827.528.831.285 1.989-.624 2.975-.874.948-.912.821-.258-.862.132-.34-.162-.141-.653.44-.491.583-.984 1.297-1.094 1.588-.129.339-.211.226-.23-.314zm-27.653-.776c1.082-1.85 3.75-4.969 5.047-5.898.855-.613.733-.437-.396.571-.897.8-2.393 2.572-3.326 3.937-1.76 2.577-2.43 3.279-1.325 1.39zm-121.25-.225c.485-.088 1.2-.424 1.587-.745.7-.58.7-.58.034.208-.41.485-1.029.775-1.588.746l-.915-.048zm108.48-.096a.655.655 0 0 1 .097-.767c.235-.235.438-.215.608.062a.655.655 0 0 1-.096.767c-.236.235-.438.214-.61-.062zm-110.25-.724c-.213-.398-.338-.964-.277-1.257.06-.293.285.033.499.724.436 1.413.354 1.61-.222.533zm24.407.019c0-.485.08-.684.178-.441.098.242.098.639 0 .882-.098.242-.178.044-.178-.441zm111.28-.042c-1.7-.399-6.924-3.18-6.689-3.561.346-.56 1.68-.25 3.615.838l1.983 1.117-.882-.974c-.485-.535-1.438-1.269-2.117-1.63l-1.234-.656 1.42-.016c.782-.009 1.76.222 2.176.513.768.538 3.777 4.793 3.344 4.728-.13-.02-.858-.181-1.616-.359zm4.377-.311c0-.194.159-.353.353-.353.194 0 .353.159.353.353s-.16.353-.353.353a.354.354 0 0 1-.353-.353zm-96.045-.362c-3.854-.97-7.383-4.071-8.745-7.681-1.068-2.833-.863-6.927.486-9.684 2.895-5.919 10.065-8.394 16.227-5.604 2.375 1.076 4.333 3.038 5.6 5.611 1.054 2.14 1.161 2.654 1.16 5.542-.002 2.815-.121 3.417-1.035 5.225-1.956 3.87-5.863 6.482-10.13 6.773-1.232.084-2.835.002-3.564-.182zm7.38-1.816c7.008-3.28 8.655-12.569 3.196-18.028-5.255-5.255-14.144-3.937-17.717 2.626-.823 1.513-1.048 2.425-1.17 4.751-.132 2.506-.038 3.125.72 4.783 2.162 4.722 6.163 7.184 11.09 6.825 1.212-.088 2.929-.512 3.88-.957zm-6.32-4.053c.242-.098.64-.098.882 0s.044.178-.441.178-.684-.08-.441-.178zm2.234.107c.08-.07.623-.234 1.205-.364.773-.173.916-.14.53.122-.477.322-2.089.547-1.735.242zm-4.86-1.487l-.99-.907 1.146.797c.63.439 1.147.847 1.147.908 0 .278-.39.04-1.303-.798zm9.097-.856c1.022-1.584 1.026-1.588 1.024-1.205-.002.178-.411.8-.912 1.381l-.909 1.059zm-10.632-1.089c-.217-.404-.327-.802-.246-.883.081-.081.329.25.55.736.486 1.067.25 1.182-.304.147zm-.608-2.792c0-.679.073-.956.162-.617.088.34.088.895 0 1.235s-.162.062-.162-.618zm12.293-1.616c.017-.411.1-.495.214-.214.101.255.089.56-.028.677-.118.117-.2-.092-.186-.463zm-12.022-.106c0-1.31 2.853-4.285 4.099-4.271.17.002-.347.397-1.15.879a5.91 5.91 0 0 0-2.205 2.378c-.409.826-.743 1.282-.744 1.014zm10.726-2.209c-.37-.415-1.148-1.05-1.73-1.41-.582-.359-.854-.654-.604-.654.44-.001 3.638 2.794 3.216 2.812-.115.005-.512-.332-.882-.748zm-5.341-2.319c.536-.081 1.33-.079 1.764.005.434.084-.005.15-.975.148-.97-.003-1.325-.072-.79-.153zm42.606 17.204c.672-.572 1.69-1.21 2.264-1.418l1.043-.377-2.086 2.22 1.533-.952c1.937-1.204 2.223-.977.583.462-1.026.902-1.563 1.106-2.909 1.106h-1.65zm-64.191.13c.017-.412.1-.495.213-.214.102.255.09.56-.028.676-.117.118-.2-.09-.185-.463zm-20.995-.75c-.192-.502-.151-.543.197-.197.241.24.35.524.241.632-.108.109-.306-.087-.438-.435zm6.504.073c0-.294.313-.529.705-.529.392 0 .706.235.706.53s-.314.528-.706.528c-.392 0-.705-.235-.705-.529zm-9.446-.38c.335-.35.685-.56.778-.467.093.093-.181.379-.609.636-.743.446-.75.438-.169-.17zm21.62.21c-.26-.421.07-1.064.547-1.064.43 0 .432.954.003 1.22-.18.11-.428.04-.55-.156zm77.578-.131c-1.04-.475-2.616-2.12-2.616-2.728 0-.159.755.1 1.676.575 1.247.643 2.288.876 4.07.911 2.865.057 3.46-.256 1.078-.567a45.342 45.342 0 0 1-2.943-.488c-1.23-.263-1.232-.266-.401-.719 1.137-.62 4.01-.549 5.452.136.653.31 1.681 1.073 2.285 1.696l1.098 1.133-1.836.031c-1.01.017-2.947.14-4.305.274-1.809.178-2.76.11-3.558-.254zm-84.996-.239c-.137-.222-.083-.57.12-.772.474-.474 1.58-.06 1.387.519-.197.59-1.195.757-1.507.253zm130.31-.606c-.438-.56-.426-.572.134-.133.587.46.774.75.484.75-.074 0-.351-.278-.618-.617zm-119.12-.63c.528-.554 1.023-.938 1.1-.85.078.086-.354.54-.96 1.008l-1.1.852zm56.367.012c0-.29.16-.529.353-.529s.353.238.353.53c0 .29-.159.529-.353.529s-.353-.239-.353-.53zm58.738-1.776c-.582-.267-.81-.492-.508-.5.302-.01.858.216 1.235.501.836.633.657.632-.727 0zm-34.729-.223c-.668-.192-1.54-.592-1.94-.889-.676-.502-.604-.525 1.038-.334.97.113 2.161.309 2.646.435.86.224.864.216.177-.332-.388-.31-1.243-.668-1.9-.798-.993-.196-1.092-.292-.587-.574.916-.513 2.745-.028 4.283 1.136.758.573 1.617 1.063 1.908 1.088.29.024.132.172-.353.327-1.215.39-3.811.36-5.272-.06zm20.981-.866c.596-1.67.645-3.12.138-4.067-.583-1.089-.12-1.185.882-.183.775.775 1.05.852 2.027.572.621-.178 1.182-.271 1.247-.207.064.065-.986 1.273-2.332 2.685-2.398 2.515-2.44 2.54-1.962 1.2zm2.542.881c.239-.24.524-.35.632-.24.109.108-.087.305-.435.438-.503.191-.543.15-.197-.198zm21.586-.436c.47-.51.922-.86 1.005-.777.253.253-.266.877-1.085 1.303-.738.384-.734.36.08-.526zm-53.643-.936l-.833-.711.923.208c1.361.307 3.484-.385 4.986-1.626 1.806-1.491 1.676-2.037-.176-.742-.825.577-1.885 1.162-2.356 1.3l-.856.252.74-1.19c.699-1.127 3.906-3.081 6.02-3.67l.816-.227-.943 1.883c-.518 1.035-1.343 2.415-1.832 3.066-1.581 2.107-4.864 2.844-6.49 1.457zm34.555.47c.254-.102.559-.09.676.027.117.118-.091.201-.463.186-.411-.017-.495-.1-.213-.213zm2.47-.353c.254-.102.558-.09.675.028.117.117-.09.2-.463.185-.41-.017-.494-.1-.213-.213zm-20.925-.465c.12-.194.288-.353.374-.353.085 0 .155.16.155.353 0 .194-.168.353-.373.353s-.276-.159-.156-.353zm-88.163-1.984c-.13-.34-.022-.822.245-1.09.675-.675 1.726-.188 1.594.738-.135.948-1.51 1.211-1.839.352zm66.417.207c-2.27-.265-3.83-.804-3.83-1.322-.002-.412 6.28.065 6.726.51.4.402.175 1.224-.309 1.132-.134-.026-1.298-.17-2.587-.32zm2.872-.298c0-.357-1.252-.748-2.293-.715-.47.014-.295.18.53.497 1.516.584 1.763.615 1.763.218zm1.114-.394c0-.485.08-.684.178-.441.098.242.098.64 0 .882s-.178.044-.178-.441zm1.005-.212c-.002-.768 1.528-3.106 2.624-4.01.345-.284.759-.84.919-1.234.233-.574.295-.459.313.578.02 1.174-1.121 3.188-2.865 5.054-.438.47.029-.791.719-1.94.487-.81.483-.839-.042-.353-.314.291-.818 1.006-1.119 1.588-.455.881-.547.934-.549.317zm50.957-.111c-.184-.178-.732-.394-1.217-.481l-.882-.158.927-.048c.51-.027 1.125.19 1.366.48.48.58.343.725-.194.207zm-52.269-2.676c.003-.97.071-1.325.152-.789.081.537.08 1.33-.005 1.764-.083.434-.15-.005-.147-.975zm33.06.735c0-.469.199-.922.441-1.006.778-.272 1.323.147 1.323 1.014 0 .666-.187.845-.882.845-.697 0-.882-.179-.882-.853zm-19.192-2.267c-.122-.198-.05-.466.16-.595.543-.336.892.124.44.576-.254.254-.451.26-.6.019zm19.78.062c-.486-.485-.21-1.176.47-1.176.47 0 .706.236.706.706 0 .68-.69.956-1.176.47zm-106.42-.823c0-.194.159-.353.353-.353s.353.16.353.353c0 .194-.16.353-.353.353s-.353-.159-.353-.353zm68.634.03a.394.394 0 0 1 .128-.54.394.394 0 0 1 .54.127.394.394 0 0 1-.127.54.394.394 0 0 1-.54-.127zm45.313-.559c0-.764.143-.91.794-.818.52.074.794.355.794.818s-.273.744-.794.818c-.651.093-.794-.054-.794-.818zm-40.867-.176c0-.485.08-.684.178-.441.098.242.098.639 0 .882-.098.242-.178.044-.178-.441zM41.804 90.56c-1.751-2.07-2.094-2.76-2.072-4.16l.019-1.235.35 1.218c.192.67.733 1.674 1.202 2.232 1.037 1.232 1.097 1.022.15-.53-.388-.636-.704-1.553-.704-2.038v-.882l.464.882c.255.485.906 1.58 1.446 2.432.793 1.253.924 1.741.68 2.546l-.3.996zm-16.933.421c5.611-.371 9.45-2.01 13.005-5.553 1.041-1.037 1.966-1.814 2.054-1.725.401.401-3.863 4.069-6.076 5.225-3.598 1.88-5.77 2.42-9.489 2.355l-3.199-.057zm-4.652-.236c.254-.102.559-.09.676.028.117.117-.091.2-.463.185-.411-.017-.495-.1-.213-.213zm118.49.015c-.282-.281.037-.832.481-.832.183 0 .332.238.332.529 0 .545-.416.7-.813.303zm-33.025-.685c.017-.411.1-.495.213-.213.102.254.09.559-.028.676-.117.117-.2-.091-.185-.463zm35.394-.633c-.286-.745.115-1.278.96-1.278.532 0 .68.196.596.79-.132.922-1.254 1.274-1.556.488zm-35.07-.35c0-.428 1.737-3.691 2.077-3.902.179-.11-.161.712-.756 1.828-1.19 2.233-1.32 2.437-1.32 2.075zm-79.942-1.08c-.351-.915.14-1.672 1.008-1.549.583.083.795.349.795.995 0 .647-.212.912-.795.995-.477.068-.88-.108-1.008-.44zm17.908-1.52c-.196-.918-.284-1.744-.194-1.833.089-.089.584.26 1.1.776.858.859.897 1.014.459 1.834-.684 1.278-.96 1.12-1.365-.776zm84.063.567c-.57-.609-1.743-1.562-2.606-2.118-2.244-1.446-1.26-1.25 1.237.246 2.577 1.544 3.028 1.972 2.679 2.537-.197.32-.56.135-1.31-.665zm-15.677-.453a.56.56 0 0 1 .558-.559c.623 0 .515.76-.14.978-.23.076-.418-.112-.418-.42zm-90.463-.519c-.24-.388.659-1.179.978-.86.127.128.232.444.232.703 0 .525-.91.644-1.21.157zm24.153-.721c-.61-1.14-2.478-2.138-4.003-2.14-1.676-.002-1.413-.554.509-1.072 1.25-.336 1.63-.283 3.051.432 2.174 1.092 2.588 1.813 1.607 2.794l-.754.753zm-28.745-.345c-.34-.55.217-1.483.818-1.369.315.06.624.465.686.9.085.593-.064.79-.597.79-.39 0-.798-.145-.907-.321zm12.128-.534c1.004-1.21 2.39-1.615 5.532-1.615 1.691 0 2.988.087 2.882.193-.106.107-1.204.332-2.44.501l-2.247.308 2.566-.06c2.191-.051 2.475.008 1.94.402-.43.319-1.614.435-3.8.374-1.747-.049-3.571.044-4.055.206-.8.269-.834.241-.378-.309zm85.99.274c-.5-.5-.217-1.183.489-1.183.493 0 .694.191.617.588-.126.65-.728.973-1.106.595zm-43.556-.674c-.613-.43-.775-.872-.744-2.029l.04-1.479.267 1.382c.424 2.2 2.12 2.851 3.903 1.501.301-.227.173-.056-.284.38-.972.929-2.084 1.014-3.182.245zm36.61.439c0-.061.516-.577 1.146-1.147l1.147-1.036-1.036 1.147c-.966 1.068-1.257 1.308-1.257 1.036zm11.075-.743c-.241-.627.047-1.62.467-1.61.152.002.514.156.805.342.402.256.438.483.151.944-.525.842-1.168.989-1.423.325zm14.942-.233c-.34-.198-.615-.55-.612-.784.004-.303.087-.294.294.033.16.25.752.594 1.318.763.708.212.809.314.323.328-.388.01-.984-.143-1.323-.34zm-86.166-.514l-1.059-.485 1.479-.016c1.533-.016 2.283.457 1.313.83-.306.117-.583.2-.615.184l-1.118-.513zm12.945-.01c-1.37-.575-1.383-.86-.156-3.33.89-1.788.963-2.255.937-5.996-.031-4.544-.532-7.398-1.773-10.113-.462-1.01-.84-2.054-.84-2.32 0-.877-1.963-3.594-3.77-5.218-2.211-1.986-5.331-3.568-9.46-4.795-2.624-.78-4.08-.971-8.398-1.106-5.511-.172-6.646-.544-2.075-.68 5.644-.168 14.347 1.647 18.578 3.873 3.103 1.634 5.971 4.63 7.405 7.737 1.397 3.026 2.306 7.093 2.306 10.314 0 1.269.132 2.307.293 2.307.496 0 4.558-7.45 5.386-9.877.49-1.436.794-3.217.815-4.763.058-4.388-1.246-6.174-10.62-14.539-3.475-3.102-5.767-6.07-7.567-9.802-1.914-3.966-2.592-7.4-2.088-10.583.425-2.69 2.024-6.356 3.243-7.434.519-.46.406-.174-.348.877-2.553 3.562-3.187 8.827-1.647 13.682 1.568 4.945 4.711 8.89 11.489 14.42 7.221 5.89 8.647 7.988 9.145 13.454.257 2.823.203 3.272-.728 6.027-.554 1.637-1.652 4.175-2.442 5.638-.79 1.464-1.357 2.866-1.261 3.116.096.25-.11.545-.456.654-.375.12-1.48 1.965-2.736 4.566L62.4 83.501zm75.814-.05c.257-.428.543-.702.636-.609.092.093-.118.443-.467.778-.608.582-.615.574-.17-.169zM9.527 80.985c-1.318-2.979-1.693-4.77-1.674-7.99.06-10.152 8.28-18.923 20.01-21.352 4.393-.91 10.693-1.072 14.397-.372 3.012.57 8.188 2.254 7.877 2.565-.084.084-1.479-.246-3.1-.734-7.713-2.322-12.735-2.526-18.292-.742-10.858 3.485-17.46 9.955-19.254 18.87-.52 2.577-.546 3.438-.189 6.124.229 1.72.64 3.664.915 4.322.819 1.96.214 1.354-.69-.692zm30.182.523c-.66-1.565-2.813-3.084-5.097-3.595-2.03-.454-4.071-.299-2.164.165 2.018.49 4.05 1.324 4.845 1.987l.8.667-1.848.012c-2.186.014-4.63-.847-6.962-2.451-1.461-1.006-1.606-1.208-1.073-1.506.338-.19 2.229-.427 4.201-.528 3.172-.162 3.755-.097 5.046.561 2.053 1.048 2.997 2.49 2.861 4.372l-.108 1.504zm-26.59.438c-.526-.526-.24-1.816.443-1.995.823-.215 1.531.516 1.362 1.405-.123.645-1.349 1.046-1.804.59zm37.309-.153c-.113-.183.015-.332.283-.332.269 0 .874-.42 1.344-.933l.855-.932-.97.62c-.534.341-.97.455-.97.253 0-.763 2.93-2.546 3.404-2.071.097.097-.246.815-.763 1.596-.934 1.41-2.779 2.453-3.183 1.799zm53.194.13c.34-.088.895-.088 1.234 0s.062.162-.617.162-.957-.073-.617-.161zm-58.738-.335c-1.004-.29-.709-.737.658-.993.866-.163 1.8-.773 2.91-1.903 1.903-1.937 3.249-4.057 2.358-3.715-.3.115-.546.33-.546.477 0 .373-3.5 3.89-3.87 3.89-.597 0 1.056-3.68 2.187-4.868 1.393-1.464 2.705-2.065 5.24-2.398l1.91-.252-1.142.965c-.67.567-1.707 2.17-2.51 3.88-.94 2.009-1.76 3.218-2.635 3.885-1.237.943-3.273 1.404-4.56 1.032zm56.447-.568c-.457-.436-.585-.617-.284-.402.3.215.863.568 1.252.783.388.215.516.396.284.402-.232.006-.795-.346-1.252-.783zm4.319.655c0-.076.246-.233.547-.348.314-.12.456-.062.332.138-.207.335-.88.496-.88.21zm31.484-.91c-.228-.367-.857-.732-1.398-.814-.98-.148-.98-.148-.067-.2.836-.05 2.423 1.135 2.038 1.52-.087.087-.345-.141-.573-.507zm-30.073.21c0-.073.278-.35.617-.617.56-.439.572-.427.133.133-.46.588-.75.775-.75.484zm26.81-.199c0-.182.158-.429.35-.547.2-.124.259.018.138.332-.234.611-.487.723-.487.215zm-91.368-1.21c0-1.72-.818-3.787-2.45-6.19-2.402-3.537-2.695-3.125-.487.685.615 1.063 1.236 2.402 1.38 2.976l.26 1.044-1.733-1.242c-1.327-.95-1.916-1.69-2.516-3.16-.792-1.941-1.002-4.875-.478-6.682l.255-.882.283.882c.156.485 1.467 2.045 2.914 3.467 3.734 3.669 4.821 6.59 3.445 9.25-.695 1.344-.873 1.313-.873-.149zm35.55.131c-.117-.29-.301-1.16-.41-1.932-.245-1.745-1.14-3-2.71-3.8-.665-.34-.996-.617-.735-.617 1.805-.002 4.493 3.755 4.205 5.878-.09.657-.209.819-.35.471zm30.447-1.264c.017-.41.1-.494.213-.213.102.255.09.559-.028.676-.117.117-.2-.09-.185-.463zm2.089.185c0-.205.158-.275.352-.155.195.12.353.288.353.373 0 .086-.158.156-.353.156s-.352-.168-.352-.374zm28.09-.169a.564.564 0 0 1 .338-.752c.66-.253 1.38.374 1.048.911-.346.56-1.145.469-1.386-.159zm-126.86-1.291c-.236-.64-.514-2.64-.62-4.445-.18-3.095-.144-3.322.623-4.037l.814-.758-.266.862c-.486 1.58-.645 6.49-.254 7.903.476 1.726.279 2.042-.297.475zm101.95.62c0-.28.14-.596.313-.702.388-.24 1.179.659.86.978-.42.42-1.173.242-1.173-.276zm-68.263-1.08c.468-1.392.612-2.98.38-4.213-.354-1.888-.83-1.507-.635.51.184 1.915-.256 2.328-.922.865-.613-1.344-.498-2.93.338-4.656l.747-1.544.825 2.403c1.127 3.28 1.11 5.085-.058 6.351-.713.774-.86.836-.675.285zm54.18-.382c.017-.41.1-.494.213-.213.102.255.09.56-.028.676-.117.118-.2-.09-.185-.463zm8.285-1.102c-.192-.502-.151-.543.197-.197.241.24.35.524.241.633-.108.108-.306-.088-.438-.436zm17.087.47c0-.074.278-.352.617-.618.56-.439.572-.426.133.133-.46.588-.75.775-.75.484zm-101.48-.765c-.115-.299-.12-.632-.013-.74.31-.31.95.215.95.777 0 .676-.674.65-.937-.036zm11.878-.237c-.4-.43-1.063-1.7-1.472-2.822-.41-1.122-.882-2.04-1.05-2.04s-.304.04-.302.088c.017.383 1.09 3.55 1.398 4.126.612 1.144-.161.848-1.365-.523-.972-1.106-1.095-1.493-1.1-3.44-.002-1.205-.103-2.589-.223-3.074-.365-1.468 2.872 1.905 3.721 3.878.69 1.602 1.5 4.589 1.246 4.589-.069 0-.453-.352-.853-.782zm58.429-.874c-.397-.397-.242-.814.303-.814.291 0 .53.15.53.332 0 .445-.551.764-.833.482zm43.725-.06c-.152-.247-.181-.543-.065-.66.316-.315.66.15.49.66-.12.36-.203.359-.425 0zm-66.263-.65a5.026 5.026 0 0 1 1.587 0c.437.084.08.153-.793.153-.874 0-1.23-.069-.794-.153zm37.085-1.074c-.448-.57-.431-.578.221-.1.388.285.772.563.853.618.08.055-.02.1-.222.1s-.586-.278-.852-.618zm2.779-.03c.34-.355.68-.597.756-.537.208.164-.708 1.184-1.064 1.184-.17 0-.032-.29.308-.646zm-52.828-.058c0-.194.238-.353.529-.353.291 0 .53.159.53.353 0 .194-.239.353-.53.353-.291 0-.53-.159-.53-.353zm80.148-.97c.065-.34.352-.618.638-.618s.573.278.639.618c.083.433-.107.617-.639.617-.531 0-.722-.184-.638-.617zm-30.731-.294c.017-.411.1-.495.213-.213.102.254.09.559-.028.676-.117.117-.2-.091-.185-.463zm-36.403-.316c1.84-2.496 1.88-2.531 1.746-1.595-.069.486.104 1.06.386 1.28.408.316.217.425-.943.536-.948.09-1.362.013-1.19-.221zm16.972-.713a.53.53 0 0 1 .529-.53.53.53 0 0 1 0 1.058.53.53 0 0 1-.53-.528zm22.966-.28c-.446-.744-.439-.751.169-.17.35.335.56.685.467.778-.093.093-.38-.181-.636-.609zm38.35.568c.255-.102.56-.09.677.028.117.117-.091.2-.463.185-.411-.017-.495-.1-.213-.213zm-75.604-.464a.655.655 0 0 1 .097-.767c.235-.236.438-.215.608.061a.655.655 0 0 1-.096.767c-.236.235-.439.215-.61-.061zm34.043.22c0-.074.278-.352.617-.618.56-.439.572-.427.133.133-.46.588-.75.774-.75.484zm42.885-.324c.132-.348.33-.544.438-.435.109.109 0 .393-.24.633-.35.345-.39.305-.198-.198zm-75.341-.602c0-.194.159-.353.353-.353.194 0 .352.159.352.353a.354.354 0 0 1-.352.353.354.354 0 0 1-.353-.353zm-10.225-1.774c-.003-1.18-.221-2.257-.552-2.729-.505-.722-.499-.763.089-.553.348.125.832.38 1.075.568.291.225.616.195.958-.088 1.149-.954 1.064-.054-.214 2.283l-1.35 2.47-.006-1.95zm44.378 1.533c.254-.102.559-.09.676.028.117.117-.091.2-.463.185-.411-.017-.495-.1-.213-.213zm38.194-.318c.017-.41.1-.494.213-.213.102.255.09.56-.028.676-.117.118-.2-.09-.185-.463zM57.04 66.927c-.233-.233-.412-.67-.399-.97.018-.383.107-.338.298.15.15.383.654.804 1.121.935.738.206.754.242.126.273-.397.019-.913-.156-1.146-.388zm60.607-.106a.53.53 0 0 1 .529-.53.53.53 0 0 1 .53.53.53.53 0 0 1-.53.529.53.53 0 0 1-.53-.53zm1.921.145c-.343-.554.398-1.16 1.094-.894.48.185.51.327.156.753-.516.622-.924.668-1.25.141zm21.872 0c-.303-.49.368-1.18.855-.88.405.251.146 1.264-.324 1.264-.161 0-.4-.173-.53-.384zM47.445 65.94c0-.194.159-.353.353-.353.194 0 .353.159.353.353s-.16.353-.353.353a.354.354 0 0 1-.353-.353zm-19.756-.353c0-.194.248-.353.55-.353.303 0 .452.159.332.353-.12.194-.367.353-.55.353s-.332-.159-.332-.353zm103.77.04c-.696-.44-.344-1.61.523-1.734.884-.127 1.385.854.798 1.562-.465.56-.667.587-1.32.172zm-93.463-2.564c.087-.261.441-.53.787-.597.402-.078.572.05.47.353-.086.261-.44.53-.786.597-.402.078-.572-.05-.47-.353zm27.895.016c-.559-.56-.165-1.373.665-1.373.51 0 .663.202.58.766-.133.902-.682 1.17-1.245.607zm74.334-.844a.53.53 0 1 1 .53.53.53.53 0 0 1-.53-.53zm-17.639-.529c0-.194.238-.352.53-.352s.528.158.528.352-.238.353-.529.353-.529-.159-.529-.353zm-28.222-.529a.53.53 0 1 1 .53.53.53.53 0 0 1-.53-.53zm-45.048-.731l-.99-.908 1.139.792c.982.683 1.266.733 2.067.368.729-.332.893-.612.763-1.295-.092-.48-.03-.872.137-.872s.304.48.304 1.067c0 .821-.209 1.147-.905 1.411-1.272.484-1.405.454-2.515-.563zm16.473-.18c0-.86.824-.738.996.147.068.348-.112.588-.44.588s-.556-.302-.556-.735zm15.898-.12c-.343-.413-.28-.465.362-.297 1.566.41 2.344-2.248 1.105-3.777-.423-.523-1.251-.873-2.557-1.08l-1.932-.306 1.92.113c1.634.097 2.067.279 2.91 1.223 1.178 1.318 1.256 2.43.26 3.696-.819 1.041-1.45 1.172-2.068.428zm-16.25-1.615c0-.194.158-.352.352-.352.194 0 .353.158.353.352s-.16.353-.353.353a.354.354 0 0 1-.353-.353zm49.598.055c-.122-.197-.05-.465.16-.595.543-.335.892.124.44.577-.254.253-.451.26-.6.018zm-23.494-.307c.291-.107.847-.342 1.235-.52.694-.32.694-.316.02.224-.376.301-.932.536-1.234.52-.475-.024-.478-.054-.02-.224zm-1.456-.718c-.439-.56-.426-.572.133-.133.34.266.618.544.618.617 0 .29-.29.104-.751-.484zm-83.406-.119c-.308-.498.372-1.178.87-.87.56.346.47 1.254-.125 1.254-.28 0-.615-.173-.745-.384zm68.987-.498c.456-.485.908-.882 1.005-.882.097 0-.197.397-.652.882-.456.485-.908.882-1.005.882-.097 0 .196-.397.652-.882zm32.103 0c0-.291.159-.53.353-.53.194 0 .353.239.353.53s-.16.529-.353.529c-.194 0-.353-.238-.353-.53zm-14.416-.597c-.027-.542-.385-1.187-.832-1.5-.431-.302-.615-.549-.408-.549.713 0 1.604 1.342 1.445 2.176-.144.756-.16.746-.205-.127zm-3.9-.138c.016-.411.1-.495.212-.213.102.254.09.559-.027.676-.118.117-.201-.091-.186-.463zm-81.04-.322c-.122-.318-.058-.741.14-.94.576-.575 1.672-.188 1.672.59 0 .898-1.491 1.185-1.812.35zm6.081-.693c-.126-.5-.059-1.228.15-1.616.415-.777.195-1.397-.497-1.397-.246 0-.832-.418-1.302-.93l-.856-.93 1.059.217c.582.12 2.706.408 4.72.641l3.662.424-1.716.5c-2.078.606-3.525 1.591-4.364 2.971l-.627 1.031zm58.131-.887c.128-.675.879-2.314 1.668-3.643.79-1.33 1.358-2.495 1.264-2.59-.148-.147-1.934 2.192-3.31 4.335-.374.582-.423.526-.441-.504-.033-1.818.818-3.388 2.641-4.877.926-.755 2-1.676 2.387-2.045.702-.67.704-.664.492 1.394-.257 2.495-2.172 6.572-3.802 8.097l-1.131 1.059zm17.584.492c.335-.35.685-.56.778-.467.093.093-.182.38-.61.636-.742.446-.75.439-.168-.169zm-79.112-.337c-.641-.772-.022-1.752 1.107-1.752.702 0 .844.178.844 1.059 0 .804-.177 1.083-.737 1.163-.405.058-.951-.153-1.214-.47zm93.556-2.69c.064-.454.355-.825.646-.825.765 0 .66 1.376-.117 1.525-.5.097-.62-.06-.529-.7zm-12.509.19c-.44-.44-.268-1.462.28-1.672.865-.333 1.633.156 1.517.966-.106.742-1.294 1.208-1.797.705zm-67.175-1.806a51.322 51.322 0 0 1 4.586 0c1.205.07.127.125-2.396.124-2.522 0-3.508-.056-2.19-.125zm22.195-.681c-2.421-.99-2.837-1.445-.589-.645.77.274 1.738.505 2.154.514.416.009.847.253.96.544.263.69.107.664-2.525-.413zm21.221-1.362c-1.438-2.247-1.458-2.641-.095-1.912.524.28.822.238 1.237-.176.928-.929 1.19-.607.619.76-.316.756-.466 1.795-.357 2.47.104.639.16 1.157.123 1.151-.037-.006-.724-1.038-1.527-2.293zm-48.104 1.622c-1.953-.596-3.8-1.81-5.515-3.623-1.61-1.703-3.26-4.161-2.793-4.161.097 0 .432.494.744 1.098.77 1.49 3.146 4.022 4.639 4.944.672.416 2.121 1.043 3.22 1.395 1.099.351 1.68.634 1.292.627-.388-.006-1.102-.132-1.587-.28zm80.808-1.068c-.674-.417-.295-1.6.513-1.6.445 0 .74.272.807.748.117.817-.614 1.288-1.32.852zm-80.178-.983c-1.027-1.177-1.335-2.17-1.335-4.299 0-1.191-.156-2.14-.352-2.14-.478 0-.455 4.795.026 5.695.344.643.312.673-.349.319-1.929-1.032-2.351-4.625-.909-7.724.483-1.038.892-2.15.908-2.47.016-.32.425.287.91 1.35.544 1.192 1.062 3.313 1.355 5.546.261 1.988.575 3.778.698 3.978.375.605-.377.404-.952-.255zm20.067-.677c-.468-.468-.22-1.176.412-1.176.832 0 1.116.297.878.917-.2.52-.89.659-1.29.26zm83.157-.622c-.351-.915.141-1.672 1.008-1.548.583.082.795.348.795.994 0 .647-.212.913-.795.995-.477.068-.88-.108-1.008-.44zm-55.906-1.471c-.313-.378-.327-.63-.05-.908.488-.487 1.49-.122 1.49.542 0 .735-.936.973-1.44.366zm-29.604-1.376a.53.53 0 0 1 .53-.529.53.53 0 1 1-.53.53zm-4.55-.633c-.447-.743-.44-.75.168-.169.35.335.56.685.467.778-.093.093-.379-.181-.636-.609zm34.68-.381c-.299-.779.1-1.177.638-.638.318.318.32.516.006.83-.314.313-.467.268-.644-.192zm7.779-1.302c-.128-.207-.148-.461-.044-.565.252-.252.94.193.94.61 0 .45-.609.42-.896-.045zm-65.848-1.49c-.783-1.562-.98-2.259-.713-2.526.125-.125.501.61.835 1.635.71 2.18.67 2.472-.122.891zm16.015.737c-.233-.233-.423-.665-.423-.96 0-.375.165-.301.549.247.597.853 1.881 1.034 2.555.36.585-.584.53-1.723-.134-2.761l-.557-.872.733.833c.906 1.028.941 2.221.089 2.993-.755.683-2.207.765-2.812.16zm42.616.07c0-.193.159-.352.353-.352s.352.159.352.353-.158.353-.352.353-.353-.16-.353-.353zm-31.044-.352c0-.194.15-.353.332-.353.182 0 .43.159.55.353.12.194-.03.353-.332.353-.303 0-.55-.159-.55-.353zm-32.63-.836c-.345-.253-.54-.685-.432-.959.15-.378.204-.355.225.095.016.334.374.642.822.706.47.067.635.216.405.366-.214.139-.673.045-1.02-.208zm44.178-2.37c-2.969-.7-6.356-3.112-7.542-5.373-.488-.931-.48-.972.118-.653.351.188 1.591.458 2.755.6 2.599.319 3.638.691 4.707 1.688 1.768 1.649 1.598 1.976-.574 1.103-1.109-.446-2.493-.919-3.075-1.05-.99-.225-1.013-.208-.352.265.388.278 1.579.854 2.647 1.279 2.327.926 4.474 2.513 3.35 2.477-.388-.013-1.303-.164-2.034-.336zM.904 36.081c-.402-.51-.73-1.106-.73-1.322 0-.217.309.11.685.727.442.726 1.033 1.174 1.674 1.27l.991.15-.944.052c-.641.036-1.18-.246-1.676-.876zm26.367.336c.255-.102.559-.09.676.028.117.117-.091.2-.463.185-.41-.017-.495-.1-.213-.213zM9.819 32.954c.001-1.552.063-2.143.138-1.314.074.83.073 2.1-.003 2.823-.075.722-.136.043-.135-1.509zm55.618 2.084c-2.164-.936-4.948-4.242-4.935-5.862.001-.25.378.35.836 1.334.99 2.124 2.966 3.867 5.157 4.548.873.27 1.27.498.882.504-.388.005-1.261-.23-1.94-.524zm37.523-.318c-.122-.318-.053-.748.154-.955.537-.537 1.556-.046 1.415.683-.156.812-1.287 1.008-1.57.272zm-87.02-.051c-.282-.282.037-.833.482-.833.182 0 .331.238.331.53 0 .545-.416.7-.813.303zM.879 32.997c0-.073.278-.35.617-.617.56-.439.572-.427.133.133-.46.588-.75.775-.75.484zm4.56-2.899c-1.225-1.31-2.539-1.903-4.278-1.93-1.353-.022-1.43-.066-.72-.408 1.212-.585 3.22.176 4.838 1.832.763.782 1.304 1.422 1.201 1.422-.103 0-.571-.412-1.042-.916zm43.482-.17c-.24-.385-.922-.996-1.515-1.356-1.035-.63-.929-1.3.14-.89.346.133.593-.1.744-.704.125-.497.392-.903.594-.903.202 0 .284.134.182.298-.101.165-.047 1.157.12 2.205.168 1.049.275 1.94.239 1.979-.036.04-.263-.243-.504-.629zm-31.98-1.718c-.13-.21-.854-.697-1.61-1.082-2.006-1.024-2.813-2.034-2.797-3.5l.014-1.257.534 1.234c.516 1.193 2.085 2.784 2.77 2.81.184.007-.213-.561-.881-1.263-1.145-1.2-1.165-1.26-.334-1.018 1.344.393 2.434 1.57 2.683 2.896.231 1.234.034 1.848-.379 1.18zm23.448-.548c0-.29.16-.529.353-.529.194 0 .353.238.353.53s-.159.529-.353.529c-.194 0-.353-.239-.353-.53zm19.845-.705c.004-.776.076-1.052.16-.613.085.438.082 1.073-.006 1.41-.089.338-.158-.021-.154-.797zm-13.847-.882c0-.531.185-.722.618-.639.34.066.617.353.617.639s-.278.573-.617.638c-.433.084-.618-.107-.618-.638zm14.357-1.72c.119-.695.034-.793-.492-.57-1.896.802-3-.092-2.183-1.769.607-1.246 1.371-1.556 1.371-.557 0 .405.2.735.444.735.307 0 .406-.472.322-1.531-.135-1.69.521-2.702 1.752-2.702.386 0 1.08-.448 1.541-.996 1.33-1.58 4.35-2.254 6.413-1.43.977.39.96.403-.947.81-3.2.683-5.497 2.215-7.092 4.73-1.068 1.684-1.23 2.178-.712 2.178.17 0 .51-.48.753-1.068.664-1.605 3.633-4.085 5.739-4.796 2.65-.894 5.13-.83 6.532.168.621.442 1.13.98 1.13 1.195 0 .215-.391.022-.87-.428-.584-.548-1.425-.866-2.558-.965-1.926-.168-3.072.357-5.365 2.458-1.219 1.117-1.411 1.475-1.214 2.26.253 1.01-.597 1.986-1.446 1.66-.247-.094-.534.154-.638.554-.198.756-1.113.984-1.49.373-.301-.487-.8-.442-.982.088-.083.242-.086.064-.007-.398zm-15.415.132c0-.323.171-.53.38-.461.208.07.379.277.379.461 0 .185-.17.392-.38.462-.208.07-.379-.138-.379-.462zm-26.445-.876c-1.06-.391-2.409-.716-2.998-.722l-1.072-.011.987-.869c1.662-1.463 2.651-1.5 8.185-.307 1.747.376.594-.46-1.74-1.264-3.021-1.039-4.991-.943-7.016.341l-1.662 1.054.233-.966c.64-2.646 2.75-4.107 5.952-4.12 2.63-.01 4.542.867 7.356 3.375 1.122 1 2.6 2.012 3.285 2.247l1.244.428-1.533.643c-2.394 1.005-8.703 1.101-11.221.171zM4.76 23.148c0-.154.39-.67.866-1.146.662-.662 1.238-.866 2.448-.866 1.712 0 2.682.689 1.028.73-.545.014-1.308.162-1.696.328-1.044.449 2.69.447 3.946-.002l.993-.354-.833.707c-.914.777-.943.782-4.37.842-1.31.023-2.382-.084-2.382-.239zm39.511.105c0-.194.16-.353.353-.353.194 0 .353.159.353.353a.354.354 0 0 1-.353.352.354.354 0 0 1-.353-.352zm27.22-1.046c-.313-.492-.73-1.011-.93-1.154-.242-.174-.238-.26.013-.264.206-.003.682.227 1.058.512.896.678 1.42.685.862.011-.245-.295-.284-.529-.087-.529.56 0 1.117.85 1.06 1.617-.077 1.007-1.29.889-1.977-.193zm-59.028-3.343c.08-1.268-.076-2.266-.48-3.067-1.021-2.024-3.8-6.679-4.097-6.862-.409-.253.483 2.095 1.951 5.136.893 1.848 1.273 3.118 1.273 4.25v1.616l-1.69-1.605c-2.303-2.186-3.077-3.376-3.787-5.819-.725-2.492-.556-6.299.381-8.575.728-1.768 1.052-1.878 1.336-.455.121.605 1.202 2.124 2.574 3.616 1.3 1.414 2.805 3.263 3.342 4.107 1.783 2.801 1.724 7.048-.121 8.784l-.8.753zm12.446-1.702l-1.546-.789 3.663-.178c3.316-.161 3.53-.211 2.252-.526-.776-.192-2.492-.35-3.814-.351l-2.402-.003.905-.778c1.16-.998 3.178-1.373 4.768-.886.687.21 2.266.683 3.51 1.05l2.26.669-1.204.918c-.662.506-1.65 1.089-2.195 1.296-1.678.638-4.496.446-6.197-.422zm-9.31-1.54c-.58-.942-.624-2.938-.091-4.214 1.093-2.616 3.51-4.38 6.957-5.077 2.4-.485 4.05-1.535 4.887-3.11l.615-1.159.437 1.821c1.161 4.841-2.414 9.888-7.718 10.893-1.009.192-2.147.516-2.53.72-.566.303-.696.261-.696-.223 0-1.142 1.79-2.932 4.198-4.197 1.333-.7 2.786-1.66 3.23-2.131.705-.751.4-.672-2.462.64-3.873 1.774-5.541 3.121-6.171 4.98-.255.752-.55 1.227-.656 1.056zm13.415-3.649c1.596-.724 2.027-1.267.705-.887-2.406.692-2.28.703-1.531-.135.941-1.054 3.043-1.573 4.319-1.066.71.282.85.454.475.585-.29.103-1.05.64-1.688 1.193-.833.724-1.527 1.004-2.47.999l-1.31-.008zM14.99 9.224c0-1.543-.92-4.316-1.43-4.316-.163 0-.055.814.24 1.809.296.995.436 2.214.312 2.71-.22.877-.25.86-1.16-.663-.711-1.188-.938-2.043-.948-3.567-.011-1.746.12-2.144 1.023-3.087C14.287.795 14.593.75 14.37 1.916c-.115.6.158 1.374.84 2.381 1.228 1.816 1.43 4.757.398 5.79-.588.587-.617.546-.617-.863zm2.365-3.022c-.468-1.215-.249-2.232.836-3.87.597-.9.972-1.821.833-2.046-.156-.252-.065-.347.238-.248 1.577.515 1.65 4.154.113 5.599-.947.89-1.055.647-.464-1.047.216-.62.309-1.214.205-1.317-.26-.26-1.028 1.234-1.293 2.517-.18.87-.263.944-.468.412zm5.51-1.772c1.154-1.513.87-1.686-.543-.331l-.996.955.375-1.076c.206-.592.844-1.423 1.418-1.848.573-.424 1.045-1.044 1.048-1.377.005-.521.054-.532.348-.078.45.697.444 2.344-.011 3.194-.2.374-.871.942-1.492 1.263l-1.128.583.98-1.285z" fill="#f2f2f2"/></g></svg>