<svg xmlns="http://www.w3.org/2000/svg" width="77.852" height="84.615" viewBox="0 0 77.852204 84.615311"><path d="M22.783 83.943c-9.532-2.623-15.418-7.226-19.382-15.16C1.686 65.354.283 61.24.283 59.643c0-2.668.261-2.878 3.215-2.59 2.666.26 3.32.825 3.833 3.313C9.357 70.2 18.824 77.879 28.899 77.859c9.848-.019 19.254-7.585 21.41-17.222 1.647-7.355-.462-14.855-5.689-20.237-3.316-3.414-3.781-3.62-4.374-1.929-1.03 2.937.921 8.581 4.128 11.941 1.972 2.066 2.91 4.08 2.91 6.25 0 3.804-.623 3.92-5.103.952-4.85-3.214-8.898-11.643-8.898-18.531V33.66l-6.714.352c-6.314.332-6.789.205-7.959-2.13-1.772-3.539.37-4.487 10.173-4.504 7.582-.012 8.129-.164 10.459-2.905 2.697-3.174 9.258-6.552 12.791-6.586 3.04-.03 2.859-1.032-1.395-7.681l-3.645-5.698 2.895-2.38C52.395.07 53.625-.201 59.063.108c5.491.312 6.682.758 9.474 3.55L71.73 6.85l-5.367 5.434-5.367 5.434 3.499 1.462c9.397 3.926 15.121 15.15 12.866 25.226-1.278 5.712-6.317 12.497-11.129 14.985-3.822 1.977-3.949 1.928-3.949-1.526 0-2.16 1.105-4.105 3.944-6.944 6.725-6.725 6.753-15.36.072-22.04-6.096-6.096-14.73-6.43-20.738-.801l-2.222 2.081 4.416 3.888c6.068 5.342 9.528 12.926 9.528 20.888 0 8.103-1.453 12.67-5.908 18.564-6.141 8.126-19.405 12.97-28.592 10.442zM.537 51.007C1.32 45.174 5.191 38.1 9.724 34.22c4.327-3.703 5.507-3.793 7.143-.543.945 1.88.48 2.78-3.676 7.09-3.468 3.598-4.989 6.111-5.609 9.268-.783 3.983-1.12 4.357-4.216 4.655L0 55.013z" fill="#d1d1d1"/></svg>