<svg width="94.134" height="82.384" viewBox="0 0 94.134354 82.383545" xmlns="http://www.w3.org/2000/svg"><path d="M.632 80.346c-.6-1.12-.81-2.92-.468-4 .607-1.912 1.799-1.962 46.94-1.962h46.315l.566 2.162c.31 1.188.122 2.988-.419 4-.933 1.742-3.339 1.838-46.413 1.838-44.687 0-45.447-.033-46.52-2.038zm8.02-27.38c0-10.68.28-20.147.622-21.037 1.597-4.163 4.78-4.545 37.906-4.545h31.627l2.923 2.923 2.923 2.923v39.154h-76zm18.2-28.782c-1.244-1.245-1.657-10.445-.593-13.218.787-2.05 5-2.05 5.786 0 .334.87.607 3.93.607 6.8 0 5.03-1.189 7.618-3.5 7.618-.605 0-1.64-.54-2.3-1.2zm11.244-.085c-.3-.784-.411-4.303-.245-7.82.286-6.074.427-6.395 2.801-6.395 2.445 0 2.5.167 2.5 7.5 0 7.02-.144 7.52-2.254 7.82-1.273.18-2.493-.3-2.802-1.105zm13 0c-.3-.784-.411-4.303-.245-7.82.286-6.074.427-6.395 2.801-6.395 2.445 0 2.5.167 2.5 7.5 0 7.02-.144 7.52-2.254 7.82-1.273.18-2.493-.3-2.802-1.105zm11 0c-.3-.784-.411-4.303-.245-7.82.29-6.172.398-6.406 3.095-6.716l2.793-.32-.293 7.82c-.272 7.25-.458 7.844-2.548 8.141-1.273.18-2.493-.3-2.802-1.105zM27.786 7.467c-.9-.557-.854-1.519.196-4.016C29.11.768 29.46.508 29.894 2.026a39.23 39.23 0 0 0 1.203 3.479c.756 1.827-1.432 3.123-3.31 1.962zm11.26-.5c-.3-.78.11-2.666.91-4.192L41.408 0l.696 3.167c.719 3.275.145 5.216-1.543 5.216-.535 0-1.217-.638-1.517-1.417zm13.091.393c-.348-.564-.32-2.45.063-4.192L52.896 0l1.453 2.775c1.473 2.811 1.17 5.609-.606 5.609-.535 0-1.257-.461-1.606-1.024zm10.978-.036c-.36-.584-.09-2.427.602-4.096L64.974.193l1.2 2.845c1.579 3.742-1.087 7.476-3.059 4.286z" fill="#d1d1d1"/></svg>