<svg xmlns="http://www.w3.org/2000/svg" id="Layer_1" viewBox="-120.6 204.8 16 16"><style>.st0{fill:#7d3daf}.st1{fill:#fff}</style><g id="Layer_2"><g id="Layer_1-2"><path class="st0" d="M-117 204.8h8.8c2 0 3.6 1.6 3.6 3.6v8.8c0 2-1.6 3.6-3.6 3.6h-8.8c-2 0-3.6-1.6-3.6-3.6v-8.8c0-2 1.6-3.6 3.6-3.6z"/><path class="st1" d="M-107 209.8c-.4-1.3-1.4-2.2-2.7-2.6-1.9-.4-3.8-.4-5.7 0-1.3.3-2.3 1.3-2.8 2.6-.3 1.6-.3 3.2 0 4.8.4 1.2 1.4 2.2 2.6 2.6v1.3c0 .3.2.5.5.5.1 0 .3-.1.4-.2l1.3-1.3h.8c1 0 1.9-.1 2.8-.3 1.3-.4 2.3-1.3 2.7-2.6.4-1.6.4-3.2.1-4.8zm-1 4.5c-.3.9-1 1.6-1.9 1.8-1 .2-2 .3-3 .2h-.1l-1 1-1 1h-.2v-2.2s0-.1-.1-.1c-.9-.3-1.6-1-1.9-1.8-.3-1.4-.3-2.9 0-4.3.3-.9 1-1.6 1.9-1.8 1.7-.3 3.5-.3 5.3 0 .9.3 1.6 1 1.9 1.8.4 1.5.4 3 .1 4.4z"/><path class="st1" d="M-110 213.8c-.2-.1-.3-.3-.5-.4-.2-.1-.3-.2-.5-.4-.2-.1-.4-.1-.6 0-.2.1-.2.4-.5.4-.1 0-.3 0-.4-.1-.7-.3-1.3-.9-1.5-1.7v-.3l.1-.1.2-.1c.2-.1.3-.4.1-.7-.2-.4-.5-.7-.8-1-.1-.1-.3-.2-.5-.1s-.4.3-.6.4c-.2.2-.3.5-.2.8.1.3.2.6.4.9.3.6.7 1.2 1.1 1.7.8.8 1.8 1.5 2.9 1.9.1 0 .2.1.3.1.1 0 .2-.1.3-.1.3-.2.6-.4.7-.8.2-.1.1-.3 0-.4zm-2.6-4.8c-.2 0-.3.1-.3.2s.2.1.3.1c.1 0 .3 0 .5.1 1.1.2 1.9 1 2 2.1 0 .2 0 .4.1.6 0 .2.1.2.2.2s.2-.1.2-.2c0-.2 0-.5-.1-.8-.3-1.3-1.5-2.3-2.9-2.3z"/><path class="st1" d="M-110.7 211.8v.1c0 .1.1.1.2.1l.1-.1v-.4c-.1-.6-.5-1.2-1-1.5-.3-.1-.6-.2-.9-.2-.1 0-.2.1-.2.1 0 .1 0 .2.1.2h.3c.2 0 .4.1.5.2.3.1.5.4.7.6.1.3.2.6.2.9z"/><path class="st1" d="M-111.2 211.7v-.1c0-.5-.4-1-1-1-.1 0-.2.1-.2.1 0 .1 0 .2.1.2h.3c.1 0 .1 0 .2.1s.2.2.2.4v.2c0 .1.1.2.2.2.2 0 .2 0 .2-.1z"/></g></g></svg>