<svg xmlns="http://www.w3.org/2000/svg" width="17" height="17" viewBox="0 0 17 17"><path fill-rule="evenodd" clip-rule="evenodd" fill="#EC1C2E" d="M11.777.853a3.367 3.367 0 0 0-2.632 3.289c0 .035.008.076.01.11 2.374.509 3.572 2.121 3.572 4.248 0 2.389-1.939 4.326-4.312 4.326-2.372 0-4.587-1.992-4.587-4.948 0-3.609 3.07-6.994 7.444-7.101.079-.002.204.001.331.007A8.662 8.662 0 0 0 8.5.214C3.806.214 0 3.924 0 8.5s3.806 8.286 8.501 8.286c4.692 0 8.499-3.71 8.499-8.286 0-3.444-2.156-6.397-5.223-7.647z"/></svg>