<svg width="89" height="53" viewBox="0 0 89.000001 53" xmlns="http://www.w3.org/2000/svg"><path d="M5 52.62c0-.21 4.727-4.519 10.505-9.577l10.505-9.197 8.713 8.077C39.515 46.365 44.059 50 44.822 50c.762 0 5.103-3.375 9.647-7.5s8.58-7.5 8.968-7.5c.72 0 20.564 17.043 20.564 17.661 0 .186-17.776.339-39.5.339S5 52.829 5 52.62zM0 26.5C0 13.575.287 3 .638 3s4.176 2.547 8.5 5.66C16.48 13.948 17 14.564 17 17.966c0 2.311 1.072 5.333 2.93 8.264l2.93 4.62-10.876 9.575C6.002 45.691.859 50 .554 50S0 39.425 0 26.5zm76.761 13.918l-10.739-9.494 2.61-3.944c1.435-2.169 2.829-5.864 3.097-8.212.454-3.977 1.016-4.66 8.252-10.018C84.251 5.588 88.028 3 88.373 3S89 13.575 89 26.5s-.337 23.48-.75 23.456c-.412-.024-5.583-4.316-11.489-9.538zM42.629 10.949c-3.716-6.291-13.391-7.957-20.034-3.45-2.026 1.376-3.909 2.5-4.184 2.5s-3.472-2.25-7.105-5L4.702 0h79.597l-6.605 5c-3.633 2.75-6.83 5-7.105 5s-2.157-1.124-4.184-2.5c-6.626-4.496-16.426-2.802-20.26 3.504l-1.767 2.905z" fill="#d1d1d1"/></svg>