<svg xmlns="http://www.w3.org/2000/svg" width="397.35" height="190.56" viewBox="0 0 397.35 190.56"><path d="M177.398 189.391c-11.377-2.173-22.36-6.388-22.36-8.581 0-.522 3.317-2.482 7.372-4.356 10.585-4.89 18.983-10.892 28.128-20.1 10.999-11.074 20.093-24.283 29.13-42.305 4.205-8.387 8.045-15.25 8.533-15.25 1.188 0 7.115 13.14 10.76 23.855 6.296 18.5 8.114 37.644 4.693 49.4-1.876 6.447-4.98 9.176-14.59 12.827-13.326 5.064-37.647 7.186-51.665 4.51zm-36.231-16.912c-19.927-10.658-41.156-42.809-42.31-64.075-.372-6.862.642-7.765 4.804-4.278 5.27 4.414 19.766 11.527 28.876 14.168 15.822 4.587 26.801 5.762 48 5.135 10.45-.309 20.232-.853 21.738-1.21 4.989-1.182 4.445 1.907-1.883 10.704-12.985 18.05-29.874 32.911-43.854 38.585-8.092 3.285-10.73 3.452-15.37.97zm108.54-6.429c1.09-7.743.784-21.305-.658-29.25-3.125-17.21-12.975-39.87-25.43-58.497-3.617-5.41-6.577-10.212-6.577-10.67 0-2.308 21.036.524 35.994 4.846 16.614 4.8 32.417 14.028 37.057 21.638 2.477 4.063 2.48 9.922.006 20.183-2.745 11.39-8.642 24.621-15.376 34.5-6.262 9.187-21.086 23-24.684 23-.817 0-.912-1.635-.333-5.75zm40.371-23.657c.805-.774 18.677-10.318 39.714-21.209 21.038-10.89 38.25-20.339 38.25-20.995s-4.162-4.896-9.25-9.42c-41.122-36.574-87.403-59.122-136.75-66.623-15.745-2.393-45.375-2.384-60.964.02-14.318 2.207-34.772 7.408-47.679 12.123-16.026 5.855-42.903 19.697-59.085 30.43-15.629 10.365-28.215 20.02-44.191 33.896-14.07 12.222-13.49 9.69 1.883-8.218 83.972-97.82 186.31-118.5 294.55-59.511 29.1 15.859 59.59 38.512 83.878 62.32 6.673 6.541 7.678 7.943 6.5 9.067-1.44 1.373-104.76 39.528-107.04 39.528-.957 0-.911-.357.182-1.408zm-127.54-25.26c-16.788-1.389-31.277-5.163-43.485-11.325-6.604-3.334-18.356-14.144-19.959-18.36-1.313-3.454.955-16.78 4.424-25.996 3.158-8.39 7.926-17.918 9.689-19.36 1.99-1.63 18.375-6.525 20.493-6.124 1.341.254 2.07 1.698 2.698 5.34 3.775 21.92 15.995 47.812 32.475 68.81 3.713 4.73 4.294 5.988 3.115 6.734-.798.505-2.35.849-3.45.765-1.1-.084-3.8-.302-6-.484zm-1.679-34.106c-4.396-5.249-10.768-20.153-14.382-33.642-3.128-11.675-3.17-15.324-.189-16.564 4.085-1.7 16.026-3.089 31.852-3.703 17.241-.67 18.798-.2 15.028 4.532-6.635 8.328-17.953 26.62-23.242 37.56-3.35 6.929-6.434 12.81-6.855 13.07-.42.26-1.416-.303-2.211-1.253zm120.8-6.28C262.99 63.54 233.163 57.26 201.13 59.792c-7.762.614-14.557.841-15.1.505-.617-.38-.422-1.707.519-3.526 2.041-3.948 15.642-21.882 18.879-24.894 2.6-2.42 2.614-2.422 12.355-1.154 20.05 2.609 58.924 14.272 64.887 19.467 2.861 2.493 6.814 13.358 8.336 22.91 1.665 10.458.776 10.805-9.347 3.645z" fill="#3acaff"/><path d="M180.198 189.791c-9.848-1.387-25.156-6.8-25.156-8.895 0-.467 3.938-2.738 8.75-5.046 23.343-11.195 41.427-31.498 57.299-64.33 3.382-6.998 6.49-12.723 6.905-12.723 1.25 0 8.63 16.842 11.831 27 1.647 5.225 3.555 12.698 4.24 16.606 1.445 8.252.84 27.19-1.03 32.207-1.963 5.27-12.504 10.716-26.495 13.688-8.826 1.875-28.03 2.664-36.344 1.493zm69.509-23.744c1.09-7.743.784-21.305-.658-29.25-3.125-17.21-12.975-39.871-25.43-58.497-3.617-5.41-6.577-10.212-6.577-10.67 0-2.308 21.036.524 35.994 4.846 16.614 4.8 32.417 14.028 37.057 21.638 2.477 4.063 2.48 9.922.006 20.183-2.745 11.39-8.642 24.621-15.376 34.5-6.262 9.187-21.086 23-24.684 23-.817 0-.912-1.635-.333-5.75zm40.371-23.657c.805-.774 18.677-10.318 39.714-21.209 21.038-10.891 38.25-20.339 38.25-20.995 0-1.576-15.956-15.715-28.406-25.173-50.149-38.096-110.61-57.24-165.09-52.274-3.22.293-6.42.647-9.605 1.062-53.575 6.978-102.36 31.246-154.81 76.81-14.07 12.223-13.49 9.69 1.883-8.218 83.972-97.82 186.31-118.5 294.55-59.51 29.1 15.858 59.59 38.511 83.878 62.32 6.672 6.54 7.678 7.943 6.5 9.066-1.44 1.374-104.76 39.528-107.04 39.528-.957 0-.911-.357.182-1.407zm-127.54-25.26c-16.788-1.389-31.277-5.163-43.485-11.325-6.604-3.334-18.356-14.144-19.959-18.361-1.313-3.453.955-16.78 4.424-25.995 3.158-8.39 7.926-17.918 9.689-19.361 1.99-1.628 18.375-6.524 20.493-6.123 1.341.254 2.07 1.697 2.698 5.34 3.775 21.92 15.995 47.812 32.475 68.81 3.713 4.73 4.294 5.988 3.115 6.734-.798.505-2.35.849-3.45.765-1.1-.084-3.8-.302-6-.484zm-1.679-34.106c-4.396-5.249-10.768-20.153-14.382-33.642-3.128-11.675-3.17-15.324-.189-16.564 4.085-1.7 16.026-3.089 31.852-3.703 17.241-.67 18.798-.2 15.028 4.532-6.635 8.328-17.953 26.62-23.242 37.56-3.35 6.929-6.434 12.81-6.855 13.07-.42.26-1.416-.304-2.211-1.253zm120.964-6.608c-18.67-13.206-48.66-19.158-80.693-16.626-7.762.614-14.557.84-15.1.505-.617-.381-.422-1.707.519-3.526 2.041-3.948 15.642-21.882 18.879-24.894 2.6-2.42 2.614-2.422 12.355-1.154 20.05 2.608 58.924 14.272 64.887 19.467 2.861 2.493 6.814 13.358 8.336 22.91 1.665 10.458-5.924 4.876-9.183 3.318z" fill="#fcb711"/><path d="M180.198 189.791c-9.848-1.387-25.156-6.8-25.156-8.895 0-.467 3.938-2.738 8.75-5.046 23.343-11.195 41.427-31.498 57.299-64.33 3.382-6.998 6.49-12.723 6.905-12.723 1.25 0 8.63 16.842 11.831 27 1.647 5.225 3.555 12.698 4.24 16.606 1.445 8.252.84 27.19-1.03 32.207-1.963 5.27-12.504 10.716-26.495 13.688-8.826 1.875-28.03 2.664-36.344 1.493zm69.509-23.744c1.09-7.743.784-21.305-.658-29.25-3.125-17.21-12.975-39.871-25.43-58.497-3.617-5.41-6.577-10.212-6.577-10.67 0-2.308 21.036.524 35.994 4.846 16.614 4.8 32.417 14.028 37.057 21.638 2.477 4.063 2.48 9.922.006 20.183-2.745 11.39-8.642 24.621-15.376 34.5-6.262 9.187-21.086 23-24.684 23-.817 0-.912-1.635-.333-5.75zm40.371-23.657c.805-.774 18.677-10.318 39.714-21.209 21.038-10.891 38.25-20.339 38.25-20.995 0-1.576-15.956-15.715-28.406-25.173-50.149-38.096-110.61-57.24-165.09-52.274-57.394 5.231-108.84 29.6-164.42 77.873-14.07 12.222-13.49 9.69 1.883-8.219 83.972-97.82 186.31-118.5 294.55-59.51 29.1 15.858 59.59 38.511 83.878 62.32 6.672 6.54 7.678 7.943 6.5 9.066-1.44 1.374-104.76 39.528-107.04 39.528-.957 0-.911-.356.182-1.407zm-127.54-25.26c-16.788-1.389-31.277-5.162-43.485-11.324-6.604-3.333-18.356-14.142-19.959-18.359-1.313-3.453.955-16.778 4.424-25.992 3.158-8.39 7.926-17.916 9.689-19.36 1.99-1.627 18.375-6.523 20.493-6.122 1.341.254 2.07 1.698 2.698 5.34 3.775 21.917 15.995 47.807 32.475 68.802 3.713 4.73 4.295 5.988 3.115 6.734-.797.505-2.35.849-3.45.765-1.1-.084-3.8-.302-6-.484zm121.5-39.458c-12.242-8.985-30.127-15.406-49.5-17.77-10.803-1.319-30.342-1.383-40-.132-4.118.533-7.373.538-7.905.012-1.274-1.26 8.45-15.748 15.83-23.584l6.075-6.452 10.5 1.59c18.548 2.81 43.849 9.998 59.409 16.88 5.002 2.212 5.519 2.774 7.554 8.213 4.313 11.527 6.673 25.466 4.287 25.324-.412-.024-3.225-1.86-6.25-4.08z" fill="#fff"/><path d="M180.198 189.791c-9.913-1.097-25.25-6.314-25.156-8.895.02-.532 4.007-3.145 8.75-5.046 23.004-11.195 40.826-31.498 56.467-64.33 3.333-6.998 7.398-12.482 7.737-12.723.304-.215 1.333.755 2.363 2.94 2.592 5.495 7.62 16.558 9.632 24.028 1.972 5.387 3.39 12.73 4.075 16.638 2.04 8.276 1.713 28.297-1.029 32.993-1.963 4.968-12.504 10.1-26.495 12.902-8.8 1.929-27.94 3.25-36.344 1.493z" fill="#6b00a5" fill-opacity=".722"/><path d="M249.708 166.051c1.09-7.743.784-21.305-.658-29.25-3.125-17.21-12.975-39.871-25.43-58.497-3.617-5.41-6.577-10.212-6.577-10.67 0-2.308 21.036.524 35.994 4.846 16.614 4.8 32.417 14.028 37.057 21.638 2.477 4.063 2.48 9.922.006 20.183-2.745 11.39-8.642 24.621-15.376 34.5-6.262 9.187-21.086 23-24.684 23-.817 0-.912-1.635-.333-5.75z" fill="#cf1e5a"/><path d="M294.618 140.381c.978-.685 14.19-7.67 30.706-16.25a4913.73 4913.73 0 0 1 7.131-3.698c19.695-10.19 36.068-18.787 36.385-19.103 1.45-1.45-19.028-19.787-34.304-30.714-29.592-21.167-61.017-35.764-93-43.197-15.458-3.592-24.822-4.76-42.5-5.297-30.267-.92-52.49 2.445-81.125 12.282-35.932 12.344-72.58 34.797-110.13 67.471-2.613 2.274-4.75 3.654-4.75 3.068 0-1.999 15.306-19.612 28.418-32.702C71.306 32.452 115.04 8.866 161.109 2.319c13.757-1.955 40.81-1.938 55.14.036 57.571 7.928 119.68 41.075 173.03 92.345 4.263 4.096 7.75 7.977 7.75 8.625 0 1.077-100.3 38.476-103.19 38.476-.691 0-.344-.64.77-1.42z" fill="#fff"/><path d="M284.038 77.675c-15.332-8.663-30.127-14.752-49.5-17.116-10.803-1.32-30.08-.6-39.87-.263-4.64.01-7.83.603-8.362.077-4.28-1.26 8.778-16.27 15.372-24.041 6.797-7.958 5.488-5.87 6.86-6.583l10.777 1.174c18.534 2.76 44.078 9.033 59.502 16.972 5.002 2.212 5.519 3.19 7.554 8.63 4.356 10.547 7.228 25.585 3.917 25.231-.413-.024-3.225-1.86-6.25-4.081z" fill="#ef1605"/><path d="M304.538 136.081c2.788-1.77 37.459-19.786 56.206-29.207 4.514-2.268 8.475-4.559 8.804-5.09.986-1.595-.624-3.528-10.03-12.044C316.94 54.612 262.005 37.032 211.38 26.41c-16.168-1.581-39.576-1.168-55.298 1.583-46.181 8.082-93.42 26.75-136.556 62.853-14.984 12.54-14.794 11.56 1.23-6.338 30.386-33.943 68.036-60.062 104.76-72.674 80.523-27.654 172.67.38 257.82 78.439 7.04 6.453 12.64 12.209 12.447 12.79-.32.961-85.871 32.987-91.746 34.346-2.328.538-2.294.446.5-1.327z" fill="#fff"/></svg>