<svg xmlns="http://www.w3.org/2000/svg" version="1" width="528.176" height="641.271"><path d="M485.98 570.502c-.22-.219-1.678.263-3.242 1.071-1.563.808-4.709 1.971-6.99 2.585-2.28.613-4.404 1.785-4.718 2.604-.315.82-1.563 1.49-2.774 1.49-1.212 0-3.02.74-4.02 1.643-1.603 1.452-2.84 1.513-10.578.524-8.643-1.104-31.025-3.108-40.763-3.649-2.75-.153-11.975-.99-20.5-1.86-8.525-.87-19.974-1.85-25.442-2.18-5.47-.33-10.263-.796-10.653-1.037-.39-.241-4.466-.636-9.057-.877s-14.423-1.16-21.848-2.043c-7.425-.883-18.675-2.04-25-2.57-6.325-.531-15.55-1.431-20.5-2-4.95-.568-15.3-1.46-23-1.98-7.7-.52-18.725-1.424-24.5-2.008-5.775-.584-16.575-1.447-24-1.918-16.77-1.063-28.793-1.918-36.18-2.573-3.332-.295-5.942-.084-6.31.512-.753 1.218-1.006 1.177 8.99 1.455 8.211.229 14.588 1.69 17.878 4.095 2.597 1.899 1.437 6.223-1.893 7.059-1.366.343-2.485 1.26-2.485 2.036 0 .778-1.237 1.958-2.75 2.622-1.512.665-4.505 2.456-6.65 3.979-2.145 1.523-4.459 2.77-5.143 2.77-.683 0-1.502.675-1.818 1.5-.317.825-1.035 1.5-1.597 1.5s-4.288 2.125-8.281 4.722c-3.993 2.597-8.001 5.184-8.906 5.75-.906.565-4.056 2.66-7 4.657-2.945 1.996-7.238 4.696-9.539 6-5.467 3.097-22.846 13.493-27.316 16.339-1.925 1.225-5.975 3.807-9 5.738-11.718 7.478-24.09 12.774-32.5 13.912-9.743 1.32-12.434 1.24-19.5-.57-8.162-2.09-11.971-3.924-18.766-9.032-12.645-9.506-18.47-18.744-21.661-34.36-.893-4.37-1.588-18.508-2.022-41.156-.364-18.975-.845-43.275-1.069-54-.224-10.725-.684-42.794-1.022-71.263l-.616-51.764 2.568-4.595 2.568-4.595-2.848-2.66c-2.769-2.587-2.87-3.042-3.593-16.1-.715-12.935-.663-13.504 1.373-15.153 1.163-.942 2.672-1.939 3.352-2.215.89-.362.925-.735.126-1.33-3.508-2.609-4.286-7.02-4.836-27.425C.618 254.744-.544 120.882.27 110.502c1.445-18.432 15.695-37.063 30.433-39.79l3.807-.704-.67-5.355c-.554-4.437-.306-5.97 1.444-8.936 1.162-1.969 2.112-5.266 2.112-7.327 0-4.8 5.064-13.138 7.978-13.138 1.113 0 2.022-.42 2.022-.933 0-.513 1.013-1.223 2.25-1.578 4.81-1.379 10.743-4.028 10.747-4.798.009-1.915 16.52-21.691 18.11-21.691.46 0 3.435-1.2 6.614-2.665 9.239-4.26 20-4.717 33.3-1.416 8.795 2.182 11.71 3.426 17.184 7.333 3.626 2.587 8.026 6.514 9.778 8.726 1.752 2.212 3.734 4.022 4.404 4.022 2.67 0 9.358 6.11 11.18 10.212 1.047 2.358 2.923 5.813 4.169 7.677 1.245 1.864 2.264 4.676 2.264 6.247 0 2.212.665 3.14 2.942 4.11 3.958 1.686 14.475 11.186 18.542 16.75 11.04 15.1 12.33 21.224 12.984 61.634.601 37.1 1.482 63.48 2.156 64.57.272.44 1.84.8 3.485.8 4.269 0 8.214 2.322 15.574 9.17 4.736 4.406 6.892 5.797 8.131 5.25.928-.41 3.284-.935 5.238-1.168 3.024-.362 4.335.219 8.833 3.912 12.584 10.33 14.217 11.07 19.615 8.886 2.948-1.192 8.048 1.266 14.97 7.214 3.316 2.85 6.34 5.625 6.716 6.165.442.632 2.477.523 5.71-.306 4.87-1.248 5.138-1.203 8.814 1.509 2.085 1.538 5.693 4.5 8.018 6.582 4.16 3.725 6.62 4.65 7.705 2.895.303-.49 2.917-2.134 5.809-3.653 13.119-6.89 28.554-.625 41.17 16.71 5.26 7.23 15.618 13.831 21.71 13.84 2.408.002 6.06.472 8.117 1.043 3.313.92 4.165.749 7.482-1.506 4.513-3.066 5.717-3.129 10.54-.543 4.744 2.542 4.74 2.543 4.74-.847 0-3.483 2.538-8.794 4.817-10.076 1.528-.86 1.475-1.141-.568-3.051-1.237-1.158-2.25-3.112-2.25-4.343 0-2.706 2.62-6.683 4.402-6.683 1.74 0 4.598-3.276 4.598-5.27 0-2.34-9.347-11.73-11.676-11.73-2.628 0-5.751-3.477-8.14-9.063-1.074-2.51-2.567-5.221-3.318-6.026-13.8-14.777-14.045-16.18-4.194-24.02 1.7-1.353 2.114-3.188 2.6-11.5.602-10.315 3.964-22.8 7.82-29.039 3.078-4.982 20.945-11.15 25.21-8.702 2.523 1.448 21.039 26.239 24.28 32.509.95 1.837 3.57 5.816 5.823 8.84l4.095 5.5-.311 11c-.171 6.05.195 14.15.815 18 .738 4.592.884 12.767.422 23.756l-.703 16.756-6.111 3.006c-3.362 1.653-7.072 3.19-8.245 3.414-1.173.225-4.06 1.392-6.414 2.593-2.956 1.508-5.314 2.016-7.617 1.643-3.978-.646-4.149.173-1.469 7.046 1.027 2.632 2.18 6.934 2.565 9.558.383 2.624 1.731 7.124 2.995 10 1.263 2.876 2.805 8.154 3.426 11.729 1.128 6.494 2.844 9 6.164 9 7.74 0 13.29 24.886 10.492 47.032-.663 5.243-1.758 10.566-2.434 11.829-.676 1.263-1.863 4.43-2.637 7.037-1.096 3.691-2.39 5.447-5.844 7.927-3.502 2.515-4.795 4.29-6.136 8.43-.934 2.885-3.092 7.72-4.794 10.744-1.702 3.024-3.336 7.3-3.63 9.5-.373 2.795-1.17 4.28-2.647 4.929-5.135 2.256-5.96 17.578-1.942 36.072.836 3.85 1.529 8.622 1.538 10.606l.017 3.606 5.079-1.004c4.116-.814 5.716-.7 8.446.602 1.853.884 5.658 1.91 8.454 2.281 6.236.827 9.021 3.789 9.021 9.593 0 5.735-2.252 9.286-7.211 11.368-2.359.99-4.626 1.834-5.039 1.874-.412.04-.767.524-.788 1.074-.021.55 2.073 1.31 4.653 1.689 5.455.8 6.305 1.79 6.495 7.56.077 2.338.197 4.81.265 5.496.087.857 4.327 1.627 13.625 2.475a4927.17 4927.17 0 0 1 24.046 2.255c5.8.563 12.833 1.025 15.628 1.025 3.24 0 5.522.53 6.295 1.462 1.8 2.17 2.376 12.028 1.194 20.437-.938 6.676-1.437 7.804-5.096 11.532-2.23 2.273-6.645 5.468-9.81 7.1-3.166 1.633-7.029 3.981-8.583 5.219-1.555 1.237-3.623 2.25-4.595 2.25.021.301-14.14 8.594-13.495 4.25zM73.046 627.783c5.67-2.565 14.028-10.628 15.034-14.502.353-1.358 1.45-3.84 2.438-5.514.988-1.674 2.527-6.188 3.42-10.03 1.432-6.16 1.554-13.186 1.033-59.485-.325-28.875-.81-61.725-1.08-73-.27-11.275-.733-36.25-1.03-55.5-.662-42.981-1.156-57.523-1.981-58.348-.632-.632-.132 72.496 1.125 164.598.674 49.353.489 52.171-2.995 45.5-2.958-5.665-12.528-14.333-19.395-17.568-6.207-2.924-7.523-3.167-17.22-3.174-9.55-.008-10.977.242-15.754 2.76-6.687 3.524-11.553 8.7-15.014 15.971-1.503 3.157-3.26 5.744-3.905 5.75-.823.008-1.271 4.108-1.504 13.76-.367 15.267 1.689 27.202 5.261 30.54 1.054.983 1.915 2.218 1.915 2.744 0 1.233 8.594 9.967 9.808 9.967.507 0 1.996.822 3.308 1.826 3.864 2.96 10.925 5.41 17.884 6.205 8.25.943 12.22.411 18.652-2.5zm-.063-8.903c.487-1.267-.01-1.636-2.232-1.662l-2.857-.033 2.357-1.963 2.356-1.963-3.257.651c-2.44.489-3.566.227-4.495-1.043-.895-1.224-2.294-1.586-5.044-1.304-3.506.36-6.238-.058-12.167-1.86-1.687-.514-2.25-.28-2.25.932 0 .89-.765 1.617-1.7 1.617-1.322 0-1.433.266-.5 1.2.66.66 1.2 1.796 1.2 2.525 0 1.034-.703.962-3.188-.323-2.46-1.272-3.598-1.392-4.986-.525-2.661 1.661-3.84 1.398-6.474-1.443-5.01-5.406-9.419-17.525-9.402-25.845.005-2.25-.117-5.89-.271-8.09-1.182-16.87 15.107-36.526 29.821-35.985 17.685.65 31.697 8.94 37.547 22.215 6.519 14.789 2.84 42.823-6.759 51.51-1.055.955-3.36 2.025-5.121 2.377-2.69.538-3.102.38-2.578-.988zm-7.81-17.39c8.893-4.676 9.799-22.397 1.52-29.73-9.42-8.342-25.12-2.5-27.62 10.278-1.287 6.578 4.598 16.887 11.821 20.71 3.52 1.864 9.314 1.353 14.279-1.258zm-12.352-1.204c-3.085-1.249-7.73-6.548-9.03-10.303-1.948-5.626-.283-12.53 3.959-16.418 3.985-3.652 6.837-4.095 12.131-1.883 4.405 1.84 9.49 9.69 9.438 14.57-.113 10.589-8.14 17.416-16.498 14.034zm44.573 16.466c0-.825-.176-1.5-.393-1.5-.216 0-.652.675-.968 1.5-.317.825-.14 1.5.393 1.5s.968-.675.968-1.5zm3.807-8.164c4.673-11.468 4.731-12.994 3.706-97.836-.67-55.508-1.36-95.76-1.97-115-.901-28.41-.678-75.765.362-76.805.67-.67.655-1.65-.044-2.956-1.798-3.36.484-3.706 4.14-.627l3.5 2.949.247 14.72c.232 13.781.8 34.307 1.697 61.219.418 12.569.423 12.585 8.846 28.09 9.103 16.756 21.472 31.67 33.929 40.91 4.506 3.342 5.802 5 3.909 5-2.108 0-16.274-10.225-17.307-12.492-.628-1.38-1.52-2.508-1.98-2.508-.46 0-2.562-1.56-4.672-3.467-3.022-2.73-4.1-3.207-5.07-2.25-.97.957-1.51.843-2.527-.533-1.646-2.228-2.706-2.262-1.861-.06 1.749 4.558 9.763 14.85 16.627 21.352 4.214 3.991 7.661 7.676 7.661 8.187 0 .513-1.345.634-3 .27-3.042-.668-3.63-.042-2.151 2.29 1.093 1.723 6.735 2.129 6.401.46-.358-1.792 1.129-1.549 5.193.85 1.957 1.154 3.557 2.729 3.557 3.5 0 1.737 2.668 1.86 3.286.15.348-.96.906-.984 2.403-.104 1.073.63 3.15.917 4.617.637 4.492-.86 9.268.602 13.835 4.233 2.989 2.376 5.406 3.468 7.686 3.475 4.62.013 9.173 4.614 9.173 9.267 0 4.838-4.506 8.743-10.09 8.743-3.308 0-4.673-.607-7.019-3.117-1.6-1.714-3.167-4.136-3.48-5.382-.312-1.247-1.545-2.764-2.74-3.372-2.137-1.088-2.139-1.102-.074-.867 1.153.13 2.278-.212 2.5-.762.222-.55-.722-1.137-2.097-1.305-1.375-.168-4.666-1.001-7.314-1.852-2.648-.85-5.056-1.306-5.35-1.012-.874.873.662 2.669 2.282 2.669.825 0 1.259.391.963.87-.996 1.611-12.645-1.548-14.042-3.809-.909-1.47 2.773-1.35 4.261.139.66.66 1.194.772 1.185.25-.031-1.948-1.578-3.22-4.752-3.908-6.634-1.44-34.233-29.614-34.233-34.947 0-.877.45-1.595 1-1.595 1.937 0 .963-4.341-2.5-11.135-1.925-3.777-3.5-7.487-3.5-8.244 0-.757-.675-1.937-1.5-2.621-2.444-2.03-2.022 7.691.5 11.5 2.377 3.588 2.606 5.946.5 5.138-2.612-1.003-1.655 1.986 2.061 6.435 1.959 2.344 4.167 5.424 4.908 6.844.74 1.42 3.187 4.57 5.439 6.999 2.25 2.429 4.092 4.685 4.092 5.013 0 .328-1.012 1.044-2.25 1.59-1.67.74-2.176 1.697-1.965 3.72.434 4.147-2.19 2.526-6.727-4.155-2.116-3.116-4.57-6.264-5.452-6.997-1.408-1.169-1.619-.98-1.713 1.54-.2 5.34.288 18.856.706 19.532.387.627 7.665 3.41 18.588 7.11 4.052 1.373 4.847 1.395 5.873.16.99-1.193.6-1.43-2.354-1.43-3.942 0-12.706-3.384-12.706-4.907 0-.539 1.013-1.693 2.25-2.566 2.094-1.478 2.366-1.447 3.91.443.914 1.117 2.489 2.016 3.5 1.999 1.749-.03 1.744-.105-.087-1.49-1.06-.802-1.629-1.755-1.265-2.12.364-.363 2.867 1.402 5.563 3.924 6.015 5.626 16.992 12.748 23.426 15.198 2.638 1.005 6.816 3.108 9.285 4.673 2.468 1.566 4.91 2.847 5.427 2.847.517 0 1.638 1.35 2.491 3 .854 1.65 1.792 3 2.085 3 .293 0 .255-.45-.085-1s.098-1 .973-1 1.854.688 2.177 1.53c.383.997 1.275 1.311 2.563.902 1.329-.422 2.845.178 4.631 1.832 1.461 1.352 4.762 3.484 7.336 4.739 2.574 1.254 6.976 4.29 9.784 6.746 5.32 4.654 5.312 4.626 2.92 11.02-.734 1.964-1.113 2.104-2.81 1.044-1.623-1.013-2.304-.915-3.943.569-1.09.986-2.803 1.625-3.806 1.42-1.44-.295-1.763-1.155-1.531-4.088.27-3.43.09-3.714-2.373-3.714-2.056 0-2.422-.294-1.6-1.284.675-.814.725-1.82.138-2.75-.63-.996-.933-1.066-.943-.216-.023 1.892-2.986 1.496-3.736-.5-1.438-3.826-7.656-12.622-8.062-11.404-.237.713.516 2.306 1.675 3.54 3.28 3.491 2.657 4.482-2.643 4.198-6.965-.373-13.811-2.479-16.036-4.932-2.916-3.217-3.62-7.317-1.47-8.57 1.575-.916 1.525-1.025-.48-1.052-1.637-.022-2.64.937-3.743 3.575-1.391 3.33-1.362 3.808.378 6.25 4.235 5.941 6.689 6.81 21.059 7.465 5.93.27 6.605.534 8.266 3.237 2.344 3.814 1.985 7.073-.724 6.575-1.1-.202-3.94-.308-6.313-.236-2.373.073-5.017-.262-5.876-.743-.99-.553-2.619-.348-4.437.56-3.259 1.625-3.78 3.287-1.03 3.287 1.015 0 3.14 1.112 4.72 2.47 2.635 2.264 3.065 2.348 5.121 1 2.921-1.913 4.785-1.858 6.848.205 1.363 1.363 2.033 1.452 3.595.477 1.469-.917 2.43-.925 4.098-.032 1.627.871 2.275.877 2.56.023.469-1.407 5.214-1.533 5.214-.138 0 .57 2.484.952 5.75.883 5.431-.115 15.36.512 26.876 1.697l5.127.528-.751-3.807c-1.06-5.375-2.008-7.306-3.584-7.306-1.03 0-1.143.591-.457 2.397.502 1.318.715 2.594.475 2.834-.6.6-13.125-1.566-13.962-2.414-.37-.376-.143-2.289.504-4.25 1.563-4.736 5.022-5.076 5.022-.494 0 2.39.39 2.998 1.75 2.734.963-.187 1.756-1.088 1.763-2.003.007-.915.301-1.952.654-2.304.353-.353.012-1.847-.756-3.321-.77-1.474-1.401-3.272-1.404-3.996-.004-.724-1.212-2.898-2.686-4.83-2.178-2.856-2.418-3.675-1.278-4.38 1.127-.696 1.015-1.005-.57-1.575-3.918-1.408-4.674-2.57-2.613-4.013 1.354-.948 3.89-1.171 8.772-.773 19.376 1.58 21.928 1.418 26.848-1.701 5.331-3.382 7.078-3.607 8.425-1.089 2.097 3.919 8.311 7.06 14.095 7.124 3.025.035 8.082.253 11.237.485 3.155.232 5.962.056 6.239-.391.953-1.543-2.187-3.037-6.076-2.892-2.48.093-5.173-.649-7.4-2.038l-3.5-2.183 11.5.605c6.908.363 12.989 1.233 15.227 2.178 3.127 1.32 3.987 1.357 5.338.236 1.465-1.216 1.433-1.403-.348-2.062-1.077-.398-5.626-1.044-10.11-1.435-4.483-.392-8.392-1.103-8.688-1.58-.295-.478.052-.876.772-.885.952-.01.9-.28-.19-.984-1.252-.809-1.169-.994.5-1.115 7.344-.533 17.191.41 19.69 1.886 2.879 1.7 3.796 4.205 1.56 4.259-.77.019-.64.388.342.962 1.366.798 4.584 1.256 15.407 2.191 3.753.325 14.042-.478 11-.857-1.65-.206-4.063-.61-5.362-.898-2.279-.504-2.3-.592-.59-2.482 1.58-1.745 2.656-1.893 9.863-1.36 4.45.33 8.54 1.047 9.09 1.593.664.66.328.926-1 .792-1.1-.111-2.338-.15-2.75-.087-1.294.2 2.94 3.883 5.338 4.644 2.202.699 2.217.775.4 2.103-1.036.758-2.716 1.114-3.734.79-1.018-.322-2.498-.05-3.29.608-.81.672-2.536.918-3.952.563-1.452-.364-2.513-.2-2.513.389 0 .56.563 1.035 1.25 1.055 4.75.137 13.529 1.354 14.895 2.065 1.085.565 2.05.37 2.832-.573.948-1.143.617-2.144-1.645-4.98-1.557-1.951-3.17-3.548-3.582-3.548-.412 0-.75-.45-.75-1s.483-1 1.072-1c.59 0 1.705-.634 2.479-1.408.968-.968 2.742-1.24 5.678-.874 3.004.376 3.975.218 3.271-.533-.55-.587-4.375-1.306-8.5-1.597-15.685-1.106-23.584-1.782-26-2.225-1.375-.253-7-.664-12.5-.915-9.098-.414-27.721-1.913-36.5-2.937-3.393-.396-17.29-1.181-35.25-1.991-5.056-.228-8.75 0-8.75.542 0 .516.83.938 1.845.938 1.015 0 2.66.9 3.655 2 1.773 1.959 1.747 2-1.286 2-1.702 0-3.393-.481-3.756-1.069-.363-.587-1.402-.752-2.309-.366-.907.385-5.69.613-10.628.505-10.129-.22-10.83.8-1.27 1.847.412.046.75 1.041.75 2.213 0 1.934-.416 2.083-4.516 1.62-2.484-.28-4.76-.113-5.06.37-.298.484-.952.88-1.452.88-.894 0-8.973-10.355-8.973-11.5 0-.842-8.075-11.455-10.805-14.2-1.267-1.276-3.742-2.981-5.5-3.79-1.757-.809-3.87-1.901-4.695-2.428-.825-.528-3.656-1.976-6.292-3.219-6.492-3.062-7.933-4.863-3.889-4.863 1.685 0 3.341-.45 3.681-1 .34-.55 1.618-1 2.84-1 1.242 0 3.674-1.542 5.522-3.5 3.234-3.43 6.417-4.477 7.63-2.513.337.544-1.489 3.234-4.056 5.978-2.933 3.136-4.45 5.555-4.083 6.512.698 1.818 4.858 2.073 4.457.273-.377-1.69 2.213-7.75 3.312-7.75.483 0 .878-.66.878-1.465 0-2.361 3.695-3.68 10.603-3.785 8.846-.134 9.725 1.19 3.46 5.21-2.78 1.784-4.805 3.647-4.5 4.141.306.494-.371.899-1.504.899-2.925 0-2.57 1.54 1.502 6.508 1.958 2.39 4.03 6.065 4.604 8.168 1.11 4.066 2.523 6.324 3.958 6.324 1.7 0 .838-2.97-3.032-10.447-2.15-4.154-3.49-7.553-2.977-7.553 1.28 0 6.886 9.003 6.886 11.06 0 .919.87 2.775 1.932 4.126 1.752 2.227 3.075 2.565 14.25 3.632 6.775.648 16.256 1.465 21.068 1.817l8.75.64V495.1c0-4.015-3.464-11.113-10.42-21.35-2.895-4.26-9.361-9.155-13.45-10.182-1.366-.342-3.865-.088-5.556.566-4.603 1.78-15.574 2.668-15.574 1.261 0-.63 1.025-1.144 2.278-1.144 2.747 0 6.139-2.266 10.035-6.703 3.5-3.988 7.186-4.275 17.649-1.375 5.61 1.554 7.615 1.713 10.487.832 1.953-.6 3.551-1.463 3.551-1.92 0-.456 1.527-2.448 3.392-4.425 2.953-3.13 3.666-3.449 5.515-2.46 1.722.922 2.238.837 2.733-.453.376-.979 1.62-1.515 3.236-1.393 1.443.11 5.324.113 8.624.01 5.857-.185 6.084-.298 9.5-4.722 3.944-5.108 8.5-8.02 10.322-6.599 1.712 1.335 5.678 2.163 5.678 1.185 0-.459 2.42-.835 5.378-.835 8.208 0 12.571-1.618 19.569-7.256l6.403-5.16 8.76.568c6.636.43 9.029.244 9.867-.766.822-.99.774-1.458-.185-1.816-.926-.346-.725-.917.708-2.017 1.7-1.304 1.84-1.958.93-4.37-.59-1.56-.773-3.958-.408-5.33.364-1.373.578-3.62.476-4.995-.987-13.27-1.625-26.162-1.98-40-1.333-52.092-1.764-59.247-3.682-61.165-1.01-1.01-3.073-1.851-4.586-1.87-1.512-.02-3.875-.717-5.25-1.548-2.344-1.418-2.017-1.487 5.25-1.115 8.096.415 9.844-.377 4.75-2.153-1.65-.575-3-1.305-3-1.622 0-.785 4.93-2.627 8-2.99 1.617-.19 2.403-.841 2.224-1.84-.152-.85.187-1.833.753-2.183 2.105-1.3-.769-4.298-3.887-4.053-2.879.227-8.09 4.985-8.09 7.388 0 .583-1.625 1.365-3.61 1.737-5.504 1.033-9.524-1.391-13.246-7.987-4.686-8.302-5.158-7.5 8.606-14.62 4.697-2.43 5.722-4.566 1.709-3.558-2.142.537-2.695.2-3.515-2.142-.895-2.555-14.138-13.352-17.237-14.052-2.389-.54-8.872 6.137-15.144 15.597-3.516 5.302-6.163 10.013-5.883 10.467.613.991 6.297-.1 8.102-1.556 1.49-1.2 14.9-5.834 17.442-6.027.948-.071 1.947-.71 2.219-1.42.272-.708 1.319-1.288 2.326-1.288 1.007 0 2.375-.544 3.039-1.208.942-.942 1.588-.819 2.95.565 1.658 1.686 1.633 1.862-.525 3.631-1.247 1.023-5.297 2.856-9 4.074-3.703 1.217-8.471 3.086-10.596 4.154-3.401 1.708-9.87 3.371-16.187 4.162-3.714.465-4.292 1.377-3.4 5.366.461 2.065.851 9.606.867 16.756.042 19.379.88 44.36 1.521 45.399.31.502 1.368.703 2.35.446 1.598-.418 1.794.374 1.879 7.594.052 4.433-.24 8.06-.65 8.06-1.063 0-2.12-8.739-1.403-11.598.45-1.787.193-2.401-1-2.401-1.44 0-1.552 2.474-1.103 24.437.34 16.57.161 24.647-.553 25.09-.737.454-.738 1.032-.005 1.916 1.4 1.686 2.107 26.674.802 28.307-.55.687-2.318 1.25-3.929 1.25-2.343 0-3.135.589-3.955 2.94-1.104 3.168-6.75 8.06-9.304 8.06-2.54 0-1.803-1.69 1.683-3.862 3.641-2.268 6.182-5.754 4.812-6.6-.494-.306-.873-2.914-.842-5.797.094-8.983-.54-15.741-1.476-15.741-.495 0-.824 4.612-.733 10.25.091 5.637.127 10.806.078 11.486-.106 1.48-6.849 4.468-9.042 4.007-1.03-.215-.27-1.147 2.265-2.784l3.812-2.46-.542-19.5c-1.797-64.636-1.895-81.27-.477-80.802 1.798.595 2.57 9.191 2.812 31.303.102 9.404.62 17.435 1.158 17.973.63.63.796-6.768.472-21-.276-12.085-.6-28.387-.721-36.226-.14-8.968-.572-13.9-1.168-13.305-.52.52-.93 4.8-.908 9.508.038 8.239-1.007 11.332-2.846 8.428-.48-.758-.894-3.178-.92-5.378-.045-3.791-.127-3.896-1.564-2-3.515 4.635-10.484 19.88-9.787 21.409.967 2.121 1.075 28.09.117 28.09-.8 0-1.294-7.048-.93-13.261.179-3.066-1.992-9.738-3.168-9.738-.36 0-.094 11.575 1.012 44 .46 13.475.817 29.838.793 36.362-.05 13.452-.667 14.638-7.629 14.638-4.554 0-4.537.051-5.152-15.777-.412-10.625-.314-11.364 1.693-12.796 1.931-1.378 1.974-1.61.46-2.48-2.077-1.192-3.419-6.757-1.977-8.2.74-.739.73-1.661-.033-3.086-.61-1.14-1.167-8.314-1.268-16.328-.1-7.863-.435-14.55-.745-14.862-1.426-1.425-1.918 6.311-1.305 20.529.367 8.525.762 23.988.877 34.362.205 18.565.173 18.886-2.04 20.336-3.246 2.127-5.267.511-2.229-1.78 2.58-1.947 2.508-.033 1.475-38.918-.08-3.025-.247-10.9-.369-17.5l-.222-12-2.063 3.383c-1.41 2.313-2.387 3.059-3.089 2.357-.669-.669-.693-1.672-.068-2.883.526-1.022.759-2.532.516-3.357-.392-1.334-.323-1.334.62 0 1.153 1.63 1.297 1.258 1.55-4 .091-1.925.502-4.23.911-5.12.533-1.16-.452-2.76-3.454-5.617-3.494-3.324-4.09-4.43-3.55-6.586.488-1.942 1.484-2.746 3.984-3.215l3.333-.625-.23-12.169c-.598-31.762-1.65-66.331-2.062-67.81-.251-.904-1.792-2.196-3.424-2.872-1.632-.676-2.967-1.68-2.967-2.233 0-1.715 6.383.111 8.25 2.36 1.737 2.092 1.832 3.16 2.268 25.387.278 14.164.502 16.07 1.658 14.08.821-1.416.792-6.5-.111-19.37-.775-11.033-.876-17.8-.275-18.4 1.378-1.378 10.851 4.72 11.584 7.456.907 3.383.714 11.047-.32 12.68-.525.83-.545 2.135-.047 3.066.477.89 1.127 8.548 1.444 17.018.318 8.469.98 15.8 1.47 16.29 1.262 1.262 4.371-3.814 3.69-6.021-1.095-3.548-1.593-19.407-.59-18.787.539.333.986 3.392.995 6.797.02 8.223 1.101 9.855 3.654 5.517 5.69-9.668 7.33-14.606 7.315-22.014-.008-4.022-.346-7.828-.75-8.459-.404-.63-2.76-1.665-5.235-2.3-7.313-1.873-7.645-2.036-6.094-2.995 2.094-1.294 9.293.042 12.344 2.29 2.347 1.73 2.75 2.743 2.75 6.899 0 2.992.386 4.632 1 4.253.55-.34 1-1.926 1-3.524 0-1.832.703-3.282 1.902-3.924 1.867-.999 1.867-1.084-.013-4.785-1.775-3.495-2.292-3.804-7.15-4.27l-5.239-.504 3.5-2.243c4.957-3.177 7.353-2.86 10.9 1.444 3.649 4.427 4.86 3.783 3.214-1.709-1.428-4.767-1.216-5.235 3.37-7.41 1.934-.918 3.516-2.067 3.516-2.552 0-1.074-5.391.371-8.372 2.244-1.17.735-4.153 1.903-6.628 2.596-2.475.693-5.85 1.716-7.5 2.275-7.016 2.373-8.498 2.674-9.018 1.832-.3-.486-1.193-.635-1.984-.331-1.475.566-3.035-2.27-5.444-9.893-1.777-5.624-.652-7.555 6.292-10.802 3.715-1.737 4.965-2.642 3.154-2.282-1.65.328-3.427.988-3.95 1.467-.522.479-2.097.873-3.5.876-2.398.004-13.782 3.746-22.422 7.37-5.555 2.33-6.553 2.072-8.21-2.125-.814-2.063-2.097-4.875-2.85-6.25-.753-1.375-1.526-3.591-1.718-4.924-.3-2.074.3-2.664 4.15-4.084 7.64-2.817 10.435-3.955 12.204-4.972 1.112-.64 1.914-.64 2.31 0 .783 1.268-.286 2.98-1.861 2.98-.676 0-2.995.9-5.153 2-2.157 1.1-4.672 2-5.589 2-3.253 0-3.86 2.256-1.811 6.727 2.407 5.25 4.306 6.317 9.414 5.287 4.145-.836 15.613-4.635 18.845-6.242 1.022-.509 4.397-1.752 7.5-2.762 3.103-1.01 7.091-2.577 8.863-3.482 2.678-1.369 3.037-1.932 2.125-3.337-2.076-3.203-11.138-10.096-14.138-10.755-4.022-.884-13.302 2.025-33.209 10.408-2.75 1.158-6.726 2.399-8.835 2.758-2.11.359-6.596 1.99-9.97 3.623-3.373 1.635-7.497 3.185-9.164 3.445-2.938.459-3.145.225-6.78-7.689-2.063-4.489-3.75-8.557-3.75-9.04 0-.484 2.476-2.092 5.502-3.574 3.027-1.482 5.298-2.9 5.046-3.152-.565-.565-23.592 7.29-28.986 9.888-2.166 1.043-4.657 1.897-5.536 1.897-1.782 0-9.072-15.622-8.28-17.745.778-2.088 1.78-.658 4.63 6.608 1.503 3.83 3.37 7.209 4.148 7.508.779.299 5.428-1.238 10.33-3.414 4.904-2.177 9.565-3.957 10.358-3.957 1.351 0 11.837-3.895 16.287-6.05 1.1-.533 4.475-1.828 7.5-2.879 3.025-1.05 5.608-2.509 5.738-3.24.131-.733-2.789-3.694-6.489-6.581-7.494-5.848-9.428-6.239-18.317-3.698-8.74 2.499-8.47 2.333-6.345 3.887 1.8 1.316 1.745 1.443-1.097 2.57-1.644.651-4.34 1.778-5.99 2.504-6.94 3.052-15.924 5.463-16.861 4.525-.619-.619.079-1.345 1.949-2.028 3.328-1.215 9.438-4.318 9.123-4.633-.366-.366-22.03 6.726-26.21 8.58-9.404 4.17-11.385 4.587-13.194 2.778-1.953-1.953-5.305-10.326-5.306-13.254 0-1.11 1.237-2.834 2.75-3.831 1.588-1.048 1.939-1.554.83-1.198-1.057.338-3.982 1.07-6.5 1.625-2.52.556-7.89 2.144-11.933 3.53-4.045 1.386-7.567 2.306-7.829 2.045-.667-.668 7.469-5.214 11.681-6.529 1.925-.6 7.55-2.276 12.5-3.723s9.9-3.183 11-3.857c1.1-.675 3.591-1.479 5.535-1.787 4.546-.721 20.009-5.473 21.965-6.75 1.608-1.049-.053-2.796-8.077-8.497-4.062-2.886-1.076-3.445-24.423 4.574-6.6 2.267-13.575 4.558-15.5 5.09a496.567 496.567 0 0 0-8 2.315c-2.475.74-5.668 1.599-7.096 1.909l-2.596.563.367 25.77c.202 14.173.47 41.295.596 60.27l.23 34.5-3.184.308c-2.266.22-3.463-.214-4.153-1.503-.533-.996-1.25-15.085-1.594-31.308-.343-16.224-.842-38.722-1.11-49.997-.267-11.275-.932-40.3-1.478-64.5-.546-24.2-1.264-46.25-1.597-49-.843-6.985-4.685-17.626-8.2-22.712-6.506-9.416-16.746-17.36-23.848-18.503-3.495-.563-3.714-.47-2.464 1.048.755.917 1.76 1.667 2.235 1.667 2.186 0 11.867 6.796 16.236 11.398 12.786 13.467 14.072 21.812 15.114 98.102.3 22 .788 44.725 1.083 50.5.296 5.775.764 26.7 1.042 46.5s.677 44.325.888 54.5c.21 10.175.645 31.1.966 46.5.32 15.4.846 51.4 1.168 79.999.322 28.6.775 52.305 1.006 52.68.869 1.406.37 76.177-.532 79.672-.518 2.007-1.48 6.349-2.137 9.649-.658 3.3-1.412 6.562-1.676 7.25-.264.687-.094 1.249.377 1.248.472 0 1.895-2.548 3.164-5.662zm120.443-59.999c-.687-.277-1.25-.946-1.25-1.487 0-1.415 5.267-.592 5.757.9.408 1.244-2.075 1.568-4.507.587zm-43.25-2.396c0-.583.45-.781 1-.441s1 .816 1 1.059c0 .242-.45.44-1 .44s-1-.476-1-1.058zm3.51-2.958c.346-.559 1.048-.757 1.56-.44 1.387.857 1.128 1.457-.629 1.457-.857 0-1.276-.458-.93-1.017zm35.95-3.05c-.363-.587-.41-1.317-.103-1.623.823-.823 3.643.461 3.643 1.658 0 1.357-2.697 1.33-3.54-.035zm-.782-8.213c-.402-1.529-1.842-3.746-3.2-4.926-2.3-2-2.357-2.27-.84-3.947.897-.99 2.02-1.56 2.496-1.265.477.295.866.107.866-.416 0-.524-.632-1.195-1.404-1.491-1.49-.572-3.83-9.486-2.89-11.007.735-1.19 6.157 7.554 8.54 13.775 1.871 4.887 1.87 4.961-.086 6.5-1.09.856-2.153 2.457-2.366 3.557-.321 1.668-.506 1.54-1.116-.78zm31.774-19.8c-.418-.675-2.401-.843-5.31-.447-3.938.535-5.14.262-7.929-1.805l-3.287-2.437 7.287.256c4.008.141 9.508.603 12.222 1.026l4.935.77-2.296 1.858c-2.586 2.094-4.635 2.378-5.622.78zm29.628-3.12c-5.701-.972-6.62-1.734-4.163-3.455 1.295-.906 4.025-1.361 7.324-1.22 7.646.327 8.911.807 8.562 3.247-.245 1.707-1.003 2.113-3.957 2.12-2.01.004-5.505-.308-7.766-.693zm44.42-.8c.34-.55 1.042-1 1.56-1 .517 0 .94.45.94 1s-.701 1-1.559 1c-.857 0-1.28-.45-.94-1zm-64.816-1.65c-1.066-1.066-.803-4.35.348-4.35 1.478 0 2.41 2.959 1.285 4.083-.523.523-1.257.642-1.633.267zm4.316-.819c0-.895.587-1.244 1.5-.893.825.317 1.5.977 1.5 1.469 0 .49-.675.893-1.5.893s-1.5-.661-1.5-1.469zm-10-1.615c0-2.437 2.337-2.092 2.824.416.191.987-.319 1.668-1.25 1.668-.928 0-1.574-.855-1.574-2.084zm-80.187-7.6c.722-.288 1.584-.253 1.917.08.332.332-.259.568-1.313.525-1.165-.048-1.402-.285-.604-.604zm-24.563-8.96c-2.887-1.96-5.25-4.005-5.25-4.544 0-.54 1.688.333 3.75 1.937 2.063 1.605 4.538 3.204 5.5 3.553.963.35 1.75 1.099 1.75 1.666 0 1.351.28 1.478-5.75-2.613zm30.2-9.225c-.522-.478-3.08-1.661-5.685-2.63-4.903-1.824-8.268-4.507-5.637-4.495.755.004 2.722.923 4.372 2.043s4.463 2.669 6.25 3.442c1.788.774 3.25 1.655 3.25 1.958 0 .84-1.484.656-2.55-.318zm-11.628-10.415c-.727-.706-3.438-2.513-6.025-4.015-5.96-3.46-7.586-5.775-6.976-9.929.4-2.725.598-2.936 1.19-1.27.392 1.098.52 2.515.283 3.146-.237.632-.004 1.413.516 1.734.521.322 1.2-.677 1.508-2.219.308-1.544 1.599-3.326 2.871-3.968 1.859-.936 1.938-1.118.404-.93-2.21.272-3.704-3.665-3.516-9.265.345-10.27-.15-18.073-1.11-17.48-.568.351-.937 2.066-.82 3.81.34 5.06-.085 9.065-.877 8.273-1.143-1.144-1.379-31.418-.25-32.116.58-.358.98 1.077.98 3.513 0 2.265.35 3.902.775 3.639.666-.412.878-22.874.332-35.14-.171-3.864-.222-3.92-1.49-1.632-1.14 2.055-1.398 2.143-1.965.668-1.078-2.809-.766-26.535.348-26.535.55 0 1 1.548 1 3.44 0 1.893.467 3.73 1.036 4.082.68.42.916-1.19.687-4.691-.284-4.345-.66-5.277-2.035-5.038-1.456.254-1.704-.776-1.808-7.5-.066-4.286-.282-13.418-.48-20.293-.33-11.461-1.088-57.652-1.308-79.673l-.092-9.172-3.5-1.155c-4.467-1.475-4.5-3-.065-3 4.418 0 8.6 1.604 10.224 3.922.704 1.006 2.235 2.078 3.403 2.383 2.024.53 2.043.468.41-1.338-.943-1.041-1.465-2.542-1.16-3.336.573-1.494-2.16-4.631-4.033-4.631-1.605 0-2.276-2.603-1-3.879.617-.617 2.181-1.121 3.477-1.121 3.492 0 7.425 9.138 8.037 18.674.257 4.005.86 7.04 1.338 6.745.478-.295.87-1.41.87-2.478 0-1.068.399-1.941.887-1.941 1.158 0 2.966 73.509 2.25 91.5-.16 4.035-.402 4.65-1.252 3.189-.579-.996-.81-2.444-.513-3.218.297-.774.11-1.673-.416-1.998-.808-.5-1.635 11.752-1.01 14.971.1.52-.35 1.941-1.002 3.16-.96 1.795-.878 2.652.435 4.527l1.62 2.314.092-2.473c.132-3.555.645-10.22.922-11.972.56-3.55 1.713 8.536 1.955 20.5.145 7.15.408 14.575.585 16.5.458 4.97-.676 15-1.696 15-.472 0-.91-1.013-.973-2.25-.175-3.432-1.723 5.065-1.959 10.75-.246 5.969.838 11.5 2.254 11.5.644 0 .892-3.236.67-8.75-.192-4.813.015-8.864.46-9.002.445-.138 1.014 7.4 1.264 16.75.42 15.749.324 17.002-1.31 17-1.62 0-1.744 1.279-1.526 15.75.13 8.664.384 18.34.563 21.502.338 5.935-.655 7.21-3.48 4.466zm-11.114-53.955c-.24-1.244-.444-.461-.455 1.739-.012 2.2.184 3.217.434 2.261s.26-2.756.02-4zm15.292 2.739c0-.825-.45-1.5-1-1.5s-1 .675-1 1.5.45 1.5 1 1.5 1-.675 1-1.5zm-1.1-42.75c-.076-7.725-.304-9.388-.928-6.75-.454 1.925-.698 5.075-.542 7 .157 1.925.35 4.962.428 6.75.078 1.787.367 3.25.642 3.25s.455-4.613.4-10.25zm-14.76-13.25l-.939-4-.1 4.668c-.118 5.457 1.204 10.02 1.689 5.832.159-1.375-.133-4.3-.65-6.5zm13.919-5.222c-.888-1.471-1-1.26-.648 1.222.679 4.792.836 5.13 1.291 2.778.237-1.221-.053-3.021-.643-4zm-13.937-19.85l-.92-3.928-.101 4.95c-.069 3.369.226 4.623.92 3.928.669-.668.703-2.382.101-4.95zm-.438-8.616c-.32-.798-.557-.56-.605.604-.043 1.054.193 1.645.526 1.313.332-.332.367-1.195.079-1.917zm14.006-9.562c-.252-.963-.458-.175-.458 1.75s.206 2.712.458 1.75c.251-.963.251-2.538 0-3.5zm-13.69-3.81c0-4.157-.337-7.351-.75-7.098-.76.467-.438 14.658.332 14.658.23 0 .418-3.402.418-7.56zm13.684-2.628c-.32-.798-.557-.56-.605.604-.043 1.054.193 1.645.526 1.313.332-.332.367-1.195.079-1.917zm-13.684-13.512c0-1.858-.322-2.378-1.032-1.668-.568.568-.745 1.783-.393 2.7.926 2.414 1.425 2.052 1.425-1.032zm13.567-6.067c-1.248-1.249-1.652.77-.882 4.414l.813 3.853.318-3.85c.174-2.118.062-4.106-.25-4.417zm-14.883-13.42c-.32-.799-.557-.562-.605.603-.043 1.054.193 1.645.526 1.313.332-.332.367-1.195.079-1.917zm.457-8.06c-.362-6.13-1.14-5.96-1.14.247 0 2.933.312 5.02.693 4.639.382-.382.583-2.58.447-4.887zm13.15-17.864c-.435-.435-.716 1.775-.624 4.91.358 12.295.763 14.28 1.08 5.29.183-5.175-.023-9.766-.457-10.2zM153.513 254c-.821-2.845-.938-2.44-.938 3.25 0 5.692.117 6.096.938 3.25.585-2.024.585-4.475 0-6.5zm13.574-7.48c-.253-.973-.477-.42-.498 1.23-.02 1.65.187 2.447.461 1.77s.29-2.027.037-3zm-13.693-2.97c0-3.482-.291-4.408-1.125-3.574-.69.69-.866 2.505-.455 4.7.927 4.937 1.58 4.471 1.58-1.125zm-.316-8.487c-.32-.798-.557-.56-.605.604-.043 1.054.193 1.645.526 1.313.332-.332.367-1.195.079-1.917zm20.83 231.21c-.658-1.066 6.217-4.284 7.915-3.704.59.201-.817 1.334-3.124 2.516-2.449 1.255-4.443 1.75-4.79 1.188zm11.946-5.978c1.563-1.727 1.754-3.998 1.634-19.428-.085-10.955.246-17.708.886-18.104.662-.409 1.06 2.467 1.132 8.179.14 10.963 1.48 29.05 1.803 24.309.13-1.925.172-6.567.092-10.315-.08-3.747.273-7.347.784-8 1.827-2.333 2.196-7.451.632-8.75-1.056-.876-1.482-3.17-1.454-7.837.037-6.52-.499-24.371-.809-26.907-.088-.72-.561-1.061-1.052-.758-.491.304-.652 5.28-.357 11.06.382 7.472.21 10.507-.596 10.507-.623 0-1.083-1.013-1.023-2.25.06-1.238-.195-12.375-.566-24.75-.371-12.375-.83-30.6-1.02-40.5-2.012-104.828-1.894-100.637-2.88-102.233-.379-.612-2.002-1.402-3.608-1.755-1.606-.352-3.513-1.362-4.238-2.243-1.164-1.413-1.018-1.526 1.239-.964 1.407.35 4.22 1.33 6.25 2.179 3.117 1.303 3.713 2.046 3.828 4.779.099 2.35.254 2.62.57.987.268-1.397 1.157-2.25 2.343-2.25 2.853 0 9.927 3.05 10.11 4.358.327 2.351.72 19.183 1.237 53.13.347 22.758.895 35.109 1.569 35.333 1.193.398 1.159.782 1.1-12.321-.046-10.237.772-18.996 1.688-18.08.283.282.694 19.99.915 43.796.244 26.306.044 42.695-.51 41.784-.502-.825-1.17-11.637-1.485-24.027-.315-12.39-.975-23.614-1.466-24.943l-.894-2.415-.687 2.738c-.378 1.506-.368 3.256.023 3.89.392.632.811 8.6.933 17.703.122 9.105.514 33.554.872 54.333l.65 37.779-3.73 1.558c-2.05.857-5.02 1.37-6.596 1.138-1.577-.232-3.098-.046-3.382.412-.283.459-1.683.834-3.11.834-2.514 0-2.54-.063-.827-1.956zm4.54-73.044c0-.55-.198-1-.44-1-.243 0-.72.45-1.06 1-.34.55-.141 1 .441 1 .583 0 1.06-.45 1.06-1zm0-7.441c0-.793-.422-1.703-.94-2.022-.516-.32-.87.33-.786 1.441.172 2.284 1.726 2.806 1.726.58zm0-7.06c0-1.374-.45-2.5-1-2.5s-1 1.126-1 2.5c0 1.376.45 2.5 1 2.5s1-1.124 1-2.5zm0-11.558c0-.518-.45-.941-1-.941s-1 .701-1 1.559c0 .857.45 1.28 1 .94.55-.34 1-1.04 1-1.558zm-1.1-51.691c-.054-.963-.46-2.875-.9-4.25-.68-2.124-.815-1.86-.9 1.75-.055 2.337.35 4.25.9 4.25s.956-.788.9-1.75zm-1.216-10.438c-.32-.798-.557-.56-.605.604-.043 1.054.193 1.645.526 1.313.332-.332.367-1.195.079-1.917zm-.021-6.062c-.278-.688-.505-.125-.505 1.25s.227 1.937.505 1.25c.277-.688.277-1.813 0-2.5zm.02-5.938c-.319-.798-.556-.56-.604.604-.043 1.054.193 1.645.526 1.313.332-.332.367-1.195.079-1.917zm.492-10.632c-.271-1.448-.788-1.967-1.374-1.38-.532.531-.614 2.623-.189 4.82.68 3.514.81 3.644 1.374 1.38.343-1.375.428-3.544.189-4.82zm-1.29-20.43c-.103-5.606-.19-5.858-.85-2.447-.677 3.494-.329 8.697.582 8.697.21 0 .332-2.813.268-6.25zm25.424 204.104c-1.095-.432.265-.742 3.45-.784 4.428-.06 5.756-.545 8.399-3.07 1.726-1.65 3.522-3 3.99-3 .47 0 .852-.45.852-1s-.626-1-1.393-1c-2.175 0-2.586-2.282-2.573-14.304.006-6.158-.242-12.485-.552-14.06-.75-3.823 1.728-7.656 4.486-6.935 1.147.3 2.032.046 2.032-.585 0-.614-1.098-1.116-2.44-1.116-1.343 0-2.685-.394-2.982-.875-.706-1.142-1.538-27.708-2.12-67.625-.523-35.927-1.434-57.5-2.428-57.5-.367 0-.466 6.3-.22 14 .326 10.208.133 14-.713 14-.638 0-1.336-.563-1.551-1.25-.216-.688-.66-13.946-.987-29.464-.326-15.517-.84-28.858-1.143-29.646-.303-.789-2.545-1.733-4.983-2.098-2.438-.366-4.433-.975-4.433-1.354 0-1.168 9.608-.759 11.097.473 2.11 1.746 6.625.503 7.3-2.01.89-3.325.808-3.494-2.542-5.227-2.425-1.254-2.826-1.829-1.75-2.51 3.666-2.321 5.626-1.04 8.928 5.836 1.783 3.712 3.742 7.08 4.354 7.484.722.476.566.74-.441.75-1.66.017-1.721 3.171-.52 26.516.282 5.5.755 23.725 1.05 40.5.296 16.775.753 39.135 1.015 49.69l.477 19.19-2.484 1.954c-3.126 2.459-3.123 3.485.016 5.166 2.664 1.425 3.122 2.497 1.498 3.501-.613.38-.66 1.277-.12 2.31.988 1.887 1.664 24.708 1.212 40.92-.07 2.508-.61 3.36-2.412 3.813-1.482.372-2.775 1.835-3.574 4.045-.688 1.904-2.247 4.113-3.463 4.91-2.271 1.489-10.915 1.702-14.332.355zm8.825-176.508c-.94-1.619-1.077-1.482-1.103 1.104-.022 2.15.268 2.65 1.073 1.846.791-.791.8-1.627.03-2.95zm-.103-20.346c-.69-2.923-.826-2.346-.828 3.5-.001 5.846.135 6.423.826 3.5.456-1.925.457-5.075.002-7zm-7.786 189.75c.49-1.486 4.755-2.317 4.755-.927 0 .97-2.309 2.177-4.165 2.177-.55 0-.816-.563-.59-1.25zm41.251.243c-.342-.554.053-1.267.878-1.583.825-.317 1.255-1.214.956-1.993-.397-1.036.293-1.417 2.563-1.417 3.598 0 3.925 1.182 1.107 4-2.169 2.169-4.515 2.592-5.504.993zm-112.056-4.743c-.985-1.513-3.953-5.225-6.596-8.25-5.334-6.105-9.888-13.287-16.459-25.955-4.436-8.554-5.2-11.045-3.385-11.045.55 0 1 .625 1 1.389s.849 2.437 1.886 3.717c1.616 1.997 2.116 2.138 3.5.989 1.45-1.204 1.614-.824 1.614 3.723 0 2.785.45 5.342 1 5.682.913.564 1.766-25.312.924-28-.173-.55-.481-7.525-.686-15.5-.205-7.975-.76-14.896-1.234-15.38-.483-.492-.658 9.621-.399 23 .285 14.632.11 23.299-.45 22.38-1.715-2.818-3.443-100.045-1.806-101.682.358-.358.651.098.651 1.015 0 .917.45 1.667 1 1.667.577 0 .994-3.074.985-7.25-.01-5.05-.31-6.795-.985-5.75-.533.825-.976 2.827-.984 4.45-.01 1.798-.37 2.579-.923 2-1.026-1.074-2.025-28.3-2.23-60.74-.13-20.701-.238-21.86-2.172-23.215-1.903-1.333-1.92-1.47-.247-2.112 1.092-.419 3.885.342 7.172 1.954 5.87 2.879 6.767 2.095 2.884-2.52-1.375-1.634-2.5-3.611-2.5-4.394 0-.783-.765-1.423-1.7-1.423-2.337 0-.45-1.59 2.789-2.35 1.445-.34 3.318-.065 4.242.621 2.04 1.515 4.543 12.937 2.951 13.468-.702.234-.771 1.288-.2 3.059.48 1.486 1.16 4.502 1.514 6.702.523 3.252.788 3.626 1.417 2 .62-1.604.889-1.703 1.36-.5.908 2.32 1.305 66.08.415 66.63-1.04.644-.933 1.667-1.421-13.58-.237-7.396-.641-13.659-.899-13.916-.564-.564-.897 24.599-.502 37.866.156 5.225.318 11.187.36 13.25.137 6.689 1.674 3.96 1.69-3 .008-3.713.364-6.2.791-5.529 1.275 2.006 1.534 34.279.276 34.279-.596 0-1.136-1.238-1.2-2.75l-.12-2.75-.703 3c-.837 3.57-.363 4.83 1.542 4.1 1.134-.436 1.398 1.166 1.398 8.49 0 4.965-.385 8.79-.856 8.499-.47-.291-.658-2.68-.417-5.31.242-2.628-.02-5.904-.58-7.28-.864-2.118-1.055-1.507-1.25 4-.34 9.656-.184 24.442.572 54l.677 26.5 2.939 4.606c1.616 2.533 3.833 5.415 4.927 6.405 2.09 1.892 2.596 3.49 1.103 3.49-.486 0-1.69-1.238-2.675-2.75zm-17.44-98.25c0-2.75-.45-5-1-5-1.102 0-1.398 8.268-.333 9.333 1.193 1.193 1.333.737 1.333-4.333zm-.628-19.213c-.462-17.978-.346-16.679-1.277-14.287-.428 1.1-.663 5.6-.521 10 .141 4.4.295 10.164.342 12.809.046 2.645.464 4.574.928 4.287.464-.286.701-6.05.528-12.809zm11.628 2.513c0-4.962-.291-6.409-1.124-5.576-1.047 1.047-.41 12.276.696 12.276.236 0 .428-3.015.428-6.7zm-12.337-24.55c-.278-.688-.505-.125-.505 1.25s.227 1.937.505 1.25c.277-.688.277-1.813 0-2.5zm-.955-34.989c-.24-1.244-.444-.461-.455 1.739-.012 2.2.184 3.217.434 2.261s.26-2.756.02-4zm12.222-21.511c-.044-9.172-.395-13.994-.93-12.75-1.36 3.164-.789 27.5.645 27.5.195 0 .324-6.638.285-14.75zm-12.246 7.562c-.32-.798-.557-.56-.605.604-.043 1.054.193 1.645.526 1.313.332-.332.367-1.195.079-1.917zm.543-15.244c-.832-7.485-1.877-2.458-1.338 6.432.436 7.186.484 7.312 1.17 3 .393-2.475.469-6.72.168-9.432zm-.227-16.51c0-.517-.45-1.218-1-1.558-.55-.34-1 .083-1 .94 0 .858.45 1.56 1 1.56s1-.424 1-.941zm96 222c0-.517.45-1.218 1-1.558.587-.363 1-6.177 1-14.06 0-8.293.383-13.44 1-13.44.578 0 1.073 3.697 1.171 8.75.094 4.812.246 10.55.337 12.75.254 6.112-.481 8.5-2.616 8.5-1.04 0-1.892-.424-1.892-.941zm-65.727-9.058c0-2.475.195-3.488.433-2.25.239 1.237.239 3.262 0 4.5-.238 1.237-.433.225-.433-2.25zm169.977-8.748c-2.037-.683-1.43-1.99 1.238-2.66 1.368-.343 3.22-1.742 4.115-3.108.895-1.367 2.34-2.484 3.212-2.484 2.413 0 .107-1.775-2.815-2.166-2.249-.3-2.55-.887-3.002-5.834l-.501-5.5-.76 4.25c-.767 4.286-2.056 5.464-3.076 2.809-.304-.793-.56-8.234-.57-16.536-.01-8.302-.231-15.442-.493-15.866-.262-.424-.772-13.12-1.134-28.214-.36-15.094-.787-32.168-.947-37.943-.16-5.775-.341-13.978-.404-18.227-.1-6.849-.368-7.893-2.363-9.185-1.237-.802-3.52-1.6-5.074-1.773l-2.825-.315.248 17c.137 9.35.315 20.375.395 24.5.167 8.518-.278 10.944-1.621 8.833-.467-.733-.86-7.183-.871-14.333-.012-7.15-.237-17.92-.5-23.934-.596-13.603-.16-14.326 8.192-13.583 5.575.496 5.855.656 7.012 4.017 1.11 3.22 1.26 3.32 1.867 1.25.838-2.853 4.292-2.97 7.427-.25 1.269 1.1 2.982 2 3.808 2 1.234 0 1.179-.358-.308-2-.995-1.1-2.406-2-3.136-2-.729 0-1.594-1.069-1.921-2.375-.65-2.585-4.148-4.625-7.93-4.625-3.957 0-3.826-1.82.212-2.94 5.6-1.556 7.7-1.306 10.008 1.19 3.066 3.313 6.561 10.542 5.913 12.23-.31.81.203 1.895 1.146 2.423 1.38.772 1.75 2.648 1.93 9.776.501 20.063.46 33.472-.104 34.036-.33.33-.175 1.113.344 1.738 1.648 1.986 3.802 74.89 2.28 77.143-.408.602-1.98 1.399-3.492 1.769-1.798.44-2.75 1.33-2.75 2.572 0 3.024-1.074 5.032-3.344 6.247-2.771 1.483-7.832 2.596-9.406 2.068zm2.929-31.502c.332-6.063-.688-18.593-1.587-19.493-.326-.325-.592 4.66-.592 11.076 0 7.111.39 11.667 1 11.667.55 0 1.08-1.463 1.179-3.25zm4.821-4.75c0-.55-.45-1-1-1s-1 .45-1 1 .45 1 1 1 1-.45 1-1zm-6.07-19.31c-.068-2.112-.101-2.119-.93-.19-1.182 2.752-1.182 3.73 0 3 .55-.34.969-1.604.93-2.81zm0-8.94c.039-.413-.38-.75-.93-.75s-.968 1.237-.93 2.75c.063 2.436.169 2.522.93.75.473-1.1.891-2.338.93-2.75zm.07-6.75c0-.55-.198-1-.44-1-.243 0-.72.45-1.06 1-.34.55-.141 1 .441 1 .583 0 1.06-.45 1.06-1zm-.5-13c.34-.55-.11-1-1-1s-1.34.45-1 1c.34.55.79 1 1 1 .21 0 .66-.45 1-1zm-.225-9.75c-.291-2.888-.922-5.25-1.402-5.25-1.023 0-1.102 2.978-.221 8.31.922 5.577 2.242 3.087 1.623-3.06zm-.602-18.888c-.826-12.976-1.925-13.418-1.525-.612.175 5.637.728 10.25 1.229 10.25.526 0 .65-4.067.296-9.638zM138.216 426.712c-.866-1.495-.61-26.46.27-26.46.432 0 .925 5.062 1.097 11.25.305 10.983-.248 17.139-1.367 15.21zm82.833-14.223c-.416-3.445-.413-6.817.005-7.495 1.19-1.923 2.111 4.291 1.386 9.34l-.635 4.418-.756-6.263zm-16.001-5.225c-.329-1.643-.188-4.005.312-5.25.724-1.802.922-1.193.972 2.988.071 5.892-.394 6.712-1.284 2.262zm35.227-2.02c-1.305-.762-1.468-1.775-.84-5.21.43-2.346.54-4.653.247-5.128-.294-.475-.678-9.594-.856-20.266-.177-10.672-.572-19.808-.878-20.303-.306-.496-.134-1.955.382-3.243 1.105-2.759 1.257-1.955 1.443 7.658.075 3.85.245 11.17.38 16.269l.242 9.269 2.75-.674c1.513-.37 2.9-1.054 3.084-1.52.183-.464.722-.844 1.198-.844 1.296 0-.853 5.43-3.106 7.85-2.056 2.206-2.018 3.638.31 11.476.93 3.134.875 3.991-.3 4.735-1.767 1.118-2.033 1.113-4.056-.069zm1.804-5.18c-.32-.798-.557-.56-.605.604-.043 1.054.193 1.645.526 1.313.332-.332.367-1.195.079-1.917zm-21.684-9.312c0-6.334.397-10.5 1-10.5.604 0 1 4.166 1 10.5 0 6.333-.396 10.5-1 10.5-.603 0-1-4.167-1-10.5zm-83 5.059c0-1.893.45-3.72 1-4.06.604-.373 1 .99 1 3.442 0 2.232-.45 4.059-1 4.059s-1-1.549-1-3.441zm68.08.857c.047-1.165.284-1.402.604-.604.288.722.253 1.584-.08 1.917-.332.332-.568-.259-.525-1.313zm-53.503-4.753c-.356-2.374-.328-5.149.063-6.167.683-1.78.739-1.776 1.465.077 1.064 2.716 1.069 9.201.007 9.857-.488.302-1.179-1.393-1.535-3.767zm-14.577-14.271c0-6.45.186-11.538.412-11.31.961.973 1.49 21.86.568 22.43-.618.382-.98-3.721-.98-11.12zm15.08 2.024c.047-1.165.284-1.402.604-.604.288.722.253 1.584-.08 1.917-.332.332-.568-.259-.525-1.313zm67.627-4.166c-.249-1.513-.53-8.308-.627-15.1-.13-9.242.128-12.248 1.029-11.948 1.517.506 2.525 29.798 1.025 29.798-.536 0-1.178-1.238-1.427-2.75zm124.138-18c-1.21-21.34-1.335-55.586-.206-55.963 1.212-.404 3.054 37.538 2.129 43.846-.26 1.775-.076 4.998.41 7.162.925 4.116.345 7.705-1.245 7.705-.513 0-1.003-1.238-1.088-2.75zm-106.132-10.934c-.268-.449-.566-8.241-.662-17.316-.223-20.977-.858-51.303-1.101-52.547-.532-2.721.169-11.453.919-11.453 1.393 0 3.27 80.195 1.908 81.556-.317.317-.796.21-1.064-.24zm-18.713-9.316c0-1.1.45-2 1-2s1 .9 1 2-.45 2-1 2-1-.9-1-2zm0-15.5c0-2.475.45-4.5 1-4.5s1 2.025 1 4.5-.45 4.5-1 4.5-1-2.025-1-4.5zm-83.22-13.122c-.272-.483-.2-3.128.162-5.878l.658-5 .78 4.197c.721 3.888-.439 8.735-1.6 6.681zm67.016-8.525c-.801-11.083-.718-45.4.106-43.353 1.145 2.847 2.296 49.5 1.22 49.5-.484 0-1.081-2.766-1.326-6.147zm67.74-11.316c-.787-8.398.51-12.815 1.626-5.537 1 6.516.977 13-.044 13-.485 0-1.197-3.359-1.582-7.463zm-10.093-22.341c-1.132-.933-2.587-2.94-3.235-4.461-.648-1.52-2.422-3.3-3.943-3.953-3.763-1.616-3.71-1.54-2.285-3.258 1.706-2.056 5.347-1.926 7.327.262 2.461 2.72 5.992 11.316 5.037 12.266-.464.462-1.77.076-2.901-.856zm-64.443-21.082c0-.488-1.588-1.64-3.53-2.562-2.23-1.058-3.426-2.276-3.25-3.308.154-.898-.77-2.169-2.054-2.823-4.506-2.297-4.635-3.198-.69-4.846 2.055-.86 4.15-1.307 4.656-.994.87.538 7.868 13.783 7.868 14.894 0 .288-.675.525-1.5.525s-1.5-.4-1.5-.886zm-81.271-34.72c-1.09-1.088.227-2.394 2.414-2.394 1.175 0 1.85.524 1.608 1.25-.476 1.428-3.016 2.15-4.022 1.145zm2.066 392.356c1.19-3.438 2.648-10.3 3.24-15.25.592-4.95 1.453-10.688 1.914-12.75.644-2.88.529-3.75-.496-3.75-2.027 0-2.22.744-2.971 11.51-.384 5.494-1.364 11.565-2.179 13.49-.814 1.925-2.05 5.637-2.745 8.25-1.938 7.278.605 6.1 3.237-1.5zm-4.012-4.512c-.722-.87-.79-3.94-.208-9.512.472-4.524.92-10.926.995-14.226.076-3.3.204-6.48.284-7.066.08-.586 1.976-2.094 4.212-3.351 2.236-1.257 3.89-2.462 3.674-2.677-.567-.567-8.494 3.386-9.252 4.614-.352.57-.794 5.224-.981 10.344-.188 5.119-.773 11.069-1.301 13.221-.528 2.153-1.032 5.792-1.119 8.088-.156 4.097-.114 4.152 2.302 3.011 1.85-.872 2.196-1.48 1.394-2.446zm342.767-22.858c.766.294 2.048-.121 2.85-.923 1.857-1.857 2.6-1.845 2.6.043 0 2.227 2.336 1.83 7.372-1.25 3.49-2.136 4.385-3.207 4.005-4.795-.39-1.624.42-2.499 3.935-4.254 4.19-2.093 4.623-2.127 8.173-.643 4.658 1.946 6.417 1.377 5.795-1.875-.427-2.234-.068-2.543 3.691-3.178 4.902-.829 6.324.05 3.528 2.18-1.932 1.471-1.916 1.499.501.831 1.375-.38 3.248-1.551 4.16-2.603.914-1.052 2.447-1.913 3.408-1.913.961 0 4.142-1.847 7.067-4.105 6.99-5.392 9.993-11.6 10.885-22.503.786-9.612 1.436-9.07-12.438-10.382-9.562-.905-11.76-.665-9.082.99 2.265 1.4.747 1.995-3.38 1.325-2.47-.4-3.326-.889-2.476-1.414.714-.442 1.087-1.003.827-1.247-.69-.651-10.334-2.085-22.384-3.329-6.788-.7-8.587.613-8.587 6.272 0 1.774-.38 3.376-.845 3.56-1.504.593-2.33 5.83-.924 5.858 5.774.116 18.246 1.151 18.924 1.57 1.764 1.09.72 2.205-2.655 2.839-1.925.36-3.5 1.114-3.5 1.674 0 .928-12.568.56-22.103-.647-1.718-.217-4.31.194-5.76.913-3.797 1.884-25.812.732-38.387-2.008-2.05-.447-2.75-.215-2.75.91 0 1.602 1.91 2.682 6 3.395 3.689.643 4.343.633 6.086-.096.935-.391 2.575.167 4 1.36 2.023 1.696 2.176 2.18.948 2.987-.952.625-1.9.603-2.702-.062-.68-.564-4.52-1.101-8.534-1.193-6.184-.142-7.56.138-9.014 1.833-1.67 1.945-1.718 1.89-1.75-2.01-.026-3.053.484-4.332 2.137-5.365 1.991-1.244 2.028-1.435.444-2.321-.949-.531-2.14-2.054-2.645-3.385-1.235-3.247-2.294-3.046-3.71.703-.928 2.46-1.559 2.959-2.969 2.351-.985-.424-3.28-.853-5.102-.954-2.709-.15-3.575.327-4.761 2.621-1.22 2.36-1.906 2.714-4.318 2.232-1.626-.326-3.161-.098-3.547.527-.374.605-1.624 1.1-2.777 1.1-1.967 0-1.994-.112-.44-1.828.91-1.006 1.654-2.266 1.654-2.8 0-1.801-6.916-.179-9.52 2.234-2.003 1.857-3.696 2.395-7.545 2.395-2.729 0-5.883.562-7.009 1.25-1.797 1.097-2.293.915-4.07-1.5-1.193-1.623-2.97-2.75-4.332-2.75-1.27 0-2.569-.675-2.885-1.5-.405-1.056-2.052-1.5-5.558-1.5-4.49 0-12.717-1.668-17.33-3.514-.963-.385-1.75-1.579-1.75-2.652 0-1.312.41-1.696 1.25-1.172 1.291.806 6.69 1.15 27.25 1.737 6.6.189 13.305.866 14.901 1.505 4.037 1.616 21.598 1.204 21.598-.507 0-.704-.45-1.557-1-1.897-.55-.34-1-.142-1 .44 0 2.022-2.963 1.045-4.652-1.533l-1.7-2.593-1.573 2.069c-1.426 1.874-2.375 2.028-10.075 1.636-16.92-.86-24.486-1.71-26.969-3.03l-2.53-1.346 3.92-1.657c2.982-1.26 3.582-1.872 2.5-2.556-3.618-2.29-8.628.062-7.33 3.443 1.087 2.834-1.12 1.762-4.385-2.129l-3.15-3.755-9.278.155c-10.983.184-11.26.206-10.598.868.282.282 3.17.741 6.416 1.02 11.527.99 14.52 1.605 15.095 3.105 1.272 3.314-1.294 3.439-27.776 1.346-14.528-1.148-27.54-2.071-28.915-2.052-1.375.019-3.175-.392-4-.912-1.315-.83-1.29-1.156.2-2.647 1.406-1.406 1.968-1.478 3.25-.414 1.283 1.065 1.55 1.028 1.55-.215 0-2.331-6.524-4.408-12.25-3.899-2.355.21-2.216 2.383.25 3.924 3.462 2.161 2.394 3.515-2.25 2.853-2.337-.334-8.75-.854-14.25-1.157-9.069-.5-9.813-.41-8 .96 1.1.832 2.563 1.526 3.25 1.544.688.017 1.25.646 1.25 1.397 0 .75.9 2.51 2 3.907 2.134 2.713 2.656 5.728.992 5.728-.598 0-.5.814.24 2 .687 1.1 2.237 2 3.444 2 1.207 0 3.261.405 4.565.9 1.304.497 4.174.572 6.378.17 3.996-.731 20.99.421 50.381 3.417 8.525.869 21.35 2.024 28.5 2.567 7.15.543 13.841 1.465 14.868 2.048 1.108.63 2.235.695 2.769.161.52-.52 3.103-.545 6.132-.058 2.877.464 6.444.827 7.925.807 1.515-.02 3.182.735 3.808 1.726.797 1.259 1.264 1.405 1.64.512.838-1.995 4.358-1.514 4.358.595 0 2.762-3.1 5.077-5.5 4.105-3.04-1.231-4.23-1.097-4.861.55-1.303 3.395.271 4.276 7.174 4.01 9.293-.356 14.66 2.618 11.116 6.16-.762.763-.29 1.687 1.635 3.2 3.41 2.683 6.463 2.742 7.144.14.286-1.093.899-1.754 1.362-1.467.464.286.609 1.13.323 1.876-.407 1.062 1.717 1.504 9.794 2.04 5.672.376 10.988.863 11.813 1.081.825.22 2.625-.493 4-1.583 2.475-1.963 2.48-1.998.5-3.514-1.145-.878-2.96-1.292-4.25-.969-1.237.31-2.25.126-2.25-.41s1.688-1.244 3.75-1.574c2.063-.33 4.517-1.016 5.454-1.525 1.132-.614 1.947-.531 2.427.246.398.644.22 1.339-.397 1.544-.617.206-.856 1.065-.532 1.91.325.845-.038 1.934-.806 2.42-.998.632-1.04.888-.146.9.688.008 1.25.674 1.25 1.48 0 2.593 3.554 3.632 9.324 2.727 5.544-.869 9.676-.086 9.676 1.834 0 .6.409.84.908.53.5-.308 1.962-.163 3.25.324 1.406.53 3.073.5 4.17-.076 1.006-.527 2.456-.718 3.222-.424zm-47.55-7.773c0-.949 2.994-1.427 3.527-.564.325.526-.335.957-1.468.957-1.132 0-2.059-.177-2.059-.393zm45.075-2.776c-2.775-1.026-3.6-2.958-1.715-4.013 2.342-1.31 2.029-3.368-.86-5.64-2.783-2.19-3.153-3.178-1.188-3.178.721 0 2.184-.8 3.25-1.777 1.066-.978 3.2-1.875 4.741-1.993 3.961-.306 6.697-1.992 6.697-4.127 0-1.414.57-1.717 2.53-1.343 1.933.37 2.388.925 1.932 2.362-.474 1.493-.087 1.878 1.888 1.878 1.366 0 2.66-.53 2.876-1.177.693-2.078 2.774.2 2.774 3.036 0 1.507.54 3.28 1.2 3.94.934.934-.466 1.2-6.3 1.2-4.125 0-7.964-.464-8.532-1.032-1.258-1.258-4.595-.149-4.092 1.36.198.594 1.814 1.457 3.59 1.918 3.552.92 5.325 4.027 4.14 7.255-.605 1.644-1.654 2.002-5.899 2.011-2.84.007-6.004-.3-7.032-.68zm4.925-4.831c0-.55-.45-1-1-1s-1 .45-1 1 .45 1 1 1 1-.45 1-1zm-2.256-7.685c-1.56-1.56-1.715-1.553-2.353.108-.794 2.071 1.565 4.021 3.058 2.528.62-.62.37-1.562-.705-2.636zm-56.744 10.685c0-1.274 4.03-1.274 6 0 1.116.72.54.973-2.25.984-2.062.009-3.75-.434-3.75-.984zm68.336-2.568c-.959-2.5 1.155-3.75 5.09-3.012 3.98.746 4.553 1.985 1.64 3.544-2.834 1.517-6.04 1.264-6.73-.532zm-72.758-4.188c-.735-2.317-4.346-4.507-5.868-3.56-.665.415-2.184.628-3.376.474-1.262-.163-2.606.477-3.22 1.531-.99 1.704-1.055 1.693-1.097-.19-.024-1.1-.328-3.063-.676-4.362-.614-2.294-.504-2.341 3.763-1.634 2.418.401 5.165 1.132 6.104 1.625 1.29.677 2.016.343 2.963-1.366.69-1.244 1.159-2.6 1.042-3.012-.117-.413.237-.75.787-.75s1 .58 1 1.288c0 .709.81 2.875 1.798 4.814 1.775 3.483 1.77 3.546-.434 5.208-2.097 1.582-2.264 1.578-2.786-.066zm39.958.813c-.36-.582-1.726-1.057-3.036-1.057s-2.64-.42-2.957-.932c-.33-.533 1.462-.862 4.19-.77 2.622.089 5.442-.055 6.267-.318.994-.318 1.5.195 1.5 1.52 0 1.42-.769 2.089-2.655 2.307-1.46.169-2.95-.169-3.31-.75zm10.464-.057c0-.55.477-1 1.06-1 .582 0 .78.45.44 1s-.816 1-1.059 1c-.242 0-.44-.45-.44-1zm-41.727-1.873c-1.729-1.144-2.215-5.212-.693-5.796 1.257-.483 5.299 3.12 5.387 4.802.05.944-3.6 1.717-4.694.994zm6.727.307c0-.311.464-1.432 1.03-2.49.767-1.433 1.47-1.69 2.75-1.007.946.504 2.508 1.16 3.47 1.458 3.364 1.041 1.713 2.605-2.75 2.605-2.475 0-4.5-.255-4.5-.566zm77.64-2.128c-.352-.352-.64-3.07-.64-6.039 0-2.97-.465-6.27-1.035-7.333-1.458-2.725.53-2.494 2.479.288 2.573 3.673 1.832 15.72-.804 13.084zm-47.14-7.048c-2.2-.223-4.853-1.16-5.896-2.082-1.404-1.241-2.01-1.352-2.333-.426-.24.687-1.573 1.25-2.96 1.25-1.891 0-2.372-.397-1.918-1.582.334-.87.607-1.77.607-2 0-.23 3.327-.418 7.393-.418 5.65 0 7.53.353 7.969 1.5.317.825 1.265 1.5 2.107 1.5.842 0 1.531.675 1.531 1.5s-.562 1.424-1.25 1.332c-.687-.093-3.05-.351-5.25-.574zm14.167-.925c-1.433-1.434-.534-2.333 2.333-2.333 2 0 3 .5 3 1.5 0 1.513-4.024 2.142-5.333.833zm-56.667-2.833c0-.825.45-1.5 1-1.5s1 .675 1 1.5-.45 1.5-1 1.5-1-.675-1-1.5zm91.566-4.156c-2.79-1.523-2.842-1.669-1.059-2.973 1.032-.754 3.17-1.371 4.751-1.371 2.545 0 2.839.315 2.559 2.741-.379 3.28-2.283 3.769-6.251 1.603zm-238.575-8.855c-.68-.82-.886-1.49-.458-1.49s.006-.852-.937-1.894c-2.207-2.438-6.573-3.327-7.281-1.482-.772 2.01-2.315 1.682-2.315-.492 0-2.314 5.059-3.173 12.774-2.17 5.52.718 9.645 3.039 5.402 3.039-1.43 0-2.552.86-3.139 2.402-1.22 3.208-2.547 3.893-4.046 2.087zm217.456-2.577c-.37-.597-.21-1.548.353-2.112 1.262-1.262 3.2-.197 3.2 1.759 0 1.683-2.573 1.94-3.553.353zm44.312-.061c-1.99-1.23.11-3.851 3.088-3.851 3.122 0 5.478 1.933 4.346 3.567-.768 1.108-5.79 1.3-7.434.284zm-8.759-.91c0-.583.45-.781 1-.441s1 .816 1 1.059c0 .242-.45.44-1 .44s-1-.476-1-1.058zM183.338 566.82c.948-1.142.783-1.646-.817-2.502-2.27-1.215-3.676.056-2.746 2.48.708 1.844 2.044 1.852 3.563.022zm179.382-.227c.362-.362.152-1.268-.466-2.013-.844-1.017-1.461-1.074-2.48-.228-.746.619-1.11 1.524-.809 2.012.643 1.04 2.812 1.172 3.755.229zm-17.356-6.747c-.018-.603-.63-.308-1.36.655-.731.962-1.869 1.75-2.528 1.75-.66 0-.902.479-.54 1.065.756 1.224 4.48-1.694 4.428-3.47zm32.76 3.8c-.332-.332-1.194-.367-1.916-.078-.798.319-.56.556.604.604 1.054.043 1.645-.193 1.313-.526zm-217.243-7.459l3.014-.063-2.5-1c-1.375-.55-6.775-1.166-12-1.37-18.718-.733-28.53-1.724-30.714-3.104-2.797-1.767-3.286-1.755-3.286.082 0 1.574 1.527 2.05 9.5 2.96 2.836.324 5.51 1.257 6.177 2.156 1.204 1.62 4.467 1.242 7.044-.818 1.648-1.317 11.28.06 11.28 1.614 0 .664-.531 1.737-1.18 2.386-.649.649 1.258.289 4.236-.8 2.978-1.089 6.772-2.008 8.43-2.043zm144.514 1.064c0-.55-1.151-1-2.559-1-1.451 0-2.291.432-1.94 1 .34.55 1.49 1 2.558 1 1.068 0 1.941-.45 1.941-1zm9-1c0-1.27-3.034-1.27-5 0-1.138.735-.716.973 1.75.984 1.788.009 3.25-.434 3.25-.984zm-18-.441c0-.243-.45-.72-1-1.06-.55-.34-1-.14-1 .442 0 .582.45 1.059 1 1.059s1-.199 1-.441zm-33-2.06c0-.833-.888-1.5-2-1.5-1.1 0-2.326-.033-2.725-.074-.398-.042-.874.374-1.057.923-.286.858.589 1.209 5.032 2.015.413.075.75-.538.75-1.363zm-12-2.5c0-.55-.198-1-.44-1-.243 0-.72.45-1.06 1-.34.55-.141 1 .441 1 .583 0 1.06-.45 1.06-1zM16.81 534.567c-.794-10.305-.859-10.532-1.374-4.814-.297 3.3-.374 9.15-.17 13 .298 5.647.564 6.577 1.374 4.814.642-1.4.704-6.071.17-13zm68.073 7.936c-.184-.963-.454-5.35-.6-9.75-.242-7.271-.299-7.472-.628-2.2-.434 6.943-1.909 7.956-6.52 4.477-6.099-4.603-12.242-7.52-18.508-8.789-7.266-1.472-17.328-.734-20.524 1.504-2.864 2.006-6.338 1.913-7.146-.191-.358-.935-.578-6.292-.489-11.905.09-5.613-.067-10.586-.349-11.05-.282-.466-.822-23.121-1.2-50.346-.377-27.225-.847-51.49-1.043-53.923-.462-5.743.95-13.184 2.756-14.523.783-.58 3.42-5.104 5.861-10.054l4.439-9 5.186.338c3.516.23 5.895-.157 7.387-1.202 2.446-1.714 5.89-.649 5.89 1.822 0 4.492 11.533 10.43 16.552 8.522 4.117-1.565 4.928.943 5.148 15.922.687 46.823 1.253 90.962 1.275 99.348.014 5.362.446 9.75.96 9.75.895 0 .82-11.918-.592-95.051-.466-27.45-.328-32.048 1.06-35.372 2.112-5.053 2.016-9.966-.323-16.609-1.195-3.392-1.576-5.87-1.01-6.553.503-.605.617-1.395.255-1.757-1.246-1.246-2.325-.654-2.325 1.275 0 1.363-.812 2.031-2.75 2.264l-2.75.33 3.247 1.76c3.392 1.84 6.37 7.237 5.736 10.4-1.234 6.172-1.613 7.313-2.432 7.313-.527 0-.565-1.205-.092-2.856 1.63-5.683-2.022-14.144-6.105-14.144-1.881 0-1.992.56-1.731 8.75.338 10.605.52 11.24 3.234 11.285 2.03.034 2.01.11-.357 1.44-2.716 1.525-6.579 1.053-9.078-1.11-.869-.75-2.052-1.365-2.629-1.365-2.067 0-3.798-7.268-3.394-14.25.056-.963 1.001-2.65 2.101-3.75 1.944-1.944 1.946-2 .082-2-1.055 0-2.569-.25-3.364-.555-1.088-.418-1.569.542-1.945 3.881-.581 5.155-3.274 9.283-6.623 10.152-3.247.843-8.937-1.212-10.274-3.71-.975-1.824-.885-1.974.758-1.254 1.027.45 3.216.856 4.866.902 2.402.067 3.066-.376 3.327-2.221.36-2.533-1.379-5.256-3.136-4.913-.615.12-1.578-.795-2.141-2.032-1.28-2.812-2.034-2.825-3.966-.067-.948 1.354-1.293 3.16-.907 4.75.613 2.524.589 2.537-1.439.741-2.061-1.825-2.061-1.824-1.519 4.164.447 4.922.134 6.85-1.757 10.825-2.488 5.233-7.698 11.309-9.712 11.326-.687.006-1.25.763-1.25 1.682 0 1.953-2.807 5.329-4.432 5.329-.618 0-1.894.9-2.836 2-.941 1.1-2.307 2-3.035 2-.727 0-2.569 1.3-4.092 2.89-2.755 2.877-2.76 2.907-1.026 6.25 1.01 1.949 1.699 5.355 1.639 8.11-.057 2.612.307 4.75.809 4.75s1.57 2.137 2.374 4.75l1.46 4.75.178-5c.098-2.75.257-8.7.354-13.22.161-7.594.395-8.45 3.078-11.25 5.36-5.595 6.53-4.004 6.53 8.885 0 9.21-.465 10.774-2.659 8.954-1.995-1.657-1.753 1.019.298 3.284 1.934 2.138 2.17 4.504 2.873 28.843.464 16.061.328 18.647-1.036 19.644-.863.632-2.561.91-3.773.618-1.52-.366-1.893-.204-1.204.52.55.58 2.125 1.203 3.5 1.387 2.18.292 2.586.975 3.165 5.335.365 2.75.688 16.025.717 29.5.029 13.475.351 25.974.716 27.776.56 2.764.994 3.175 2.783 2.631 1.166-.354 2.794-1.2 3.62-1.88.824-.68 4.89-1.892 9.033-2.693 13.68-2.645 27.03 1.4 36.607 11.093 4.333 4.386 5.334 4.866 4.847 2.323zm79.648.676c-1.955-.783-2.15-1.204-1.127-2.436 1.025-1.236.895-1.49-.764-1.49-2.58 0-5.109 2.773-3.107 3.409.75.237 2.037.657 2.862.932 2.72.908 4.55.552 2.136-.415zm-11.8-3.926h2.934l-2.385-1.863c-1.311-1.024-3.394-2.178-4.627-2.565-4.915-1.54-11.892-8.295-14.68-14.212-1.518-3.223-3.337-6.535-4.041-7.36-.704-.825-2.749-4.2-4.544-7.5-3.592-6.605-7.74-11.43-9.865-11.473-1.147-.023-1.154.236-.04 1.58.734.883 1.802 2.43 2.373 3.435.572 1.007 2.571 4.446 4.444 7.644a781.956 781.956 0 0 1 5.65 9.814c6.515 11.602 10.476 17.22 13.541 19.207 1.872 1.213 4.061 2.896 4.864 3.74.964 1.012 1.797 1.196 2.45.543.545-.545 2.311-.99 3.925-.99zm-28.836 0c-.34-.55-1.154-.993-1.809-.985-.715.01-.592.402.31.985 1.92 1.241 2.267 1.241 1.5 0zm327.68-4.616c1.473-.75 2.966-2.267 3.317-3.373.351-1.106.977-2.011 1.39-2.011.415 0 2.619-1.597 4.899-3.549 3.418-2.925 4.058-4.022 3.647-6.25-.274-1.486-.605-4.242-.735-6.125-.313-4.535-2.382-5.074-3.463-.902-.713 2.752-.51 3.606 1.204 5.068l2.061 1.758-2.25 1.91c-1.237 1.05-2.25 2.4-2.25 3 0 .6-.586 1.09-1.303 1.09-.718 0-2.83 1.575-4.697 3.5-4.03 4.159-7.675 4.642-8.555 1.134-.327-1.301-.507-2.989-.4-3.75.105-.761.14-2.868.074-4.68-.115-3.198-.246-3.296-4.369-3.266-2.337.017-8.93-.242-14.649-.576l-10.4-.607.712 3.372c.391 1.855.967 5.69 1.279 8.521.635 5.76 2.546 7.352 8.83 7.352 2.796 0 3.713-.552 4.978-3 1.988-3.844 4.377-3.868 5.14-.052.522 2.612 1.06 2.99 4.725 3.31 4.783.42 7.087.022 10.815-1.874zm-31.18-6.384c0-.55 1.688-.993 3.75-.985 2.79.011 3.366.264 2.25.985-1.97 1.273-6 1.273-6 0zm-297.09-2.361c5.667-3.078 5.92-5.897.275-3.082-4.797 2.393-6.61 1.613-7.123-3.066l-.438-3.991-.562 4.5c-.309 2.475-.39 6.975-.18 10l.383 5.5 1.188-3.5c.909-2.68 2.424-4.172 6.456-6.361zm82.526 7.465c.616-.996-1.7-2.122-4.267-2.073-1.44.028-1.402.234.273 1.5 2.237 1.692 3.215 1.833 3.994.573zm-25.665-8.917c.221-.663-.524-1.187-1.687-1.187-2.078 0-2.7 1.05-1.396 2.354.926.926 2.596.294 3.083-1.167zm208.603-2.164l1.591-3.977 3.518 2.076c1.935 1.141 3.517 2.371 3.517 2.733 0 .362 1.85 1.235 4.111 1.94 3.6 1.124 4.26 1.081 5.303-.346 1.084-1.483 1.31-1.487 2.502-.05 1.53 1.843 3.084 1.223 3.084-1.231 0-.942-1.523-2.534-3.386-3.537-2.71-1.46-3.811-1.596-5.52-.681-4.347 2.326-5.708-1.663-1.507-4.415 1.423-.932 2.301-1.981 1.952-2.33-2.38-2.38-17.539-3.33-17.539-1.1 0 .492-.884.895-1.964.895-2.13 0-4.04-2.736-3.317-4.75.246-.688-.04-1.25-.635-1.25-1.644 0-1.303-8.254.49-11.847.865-1.734 2.215-3.153 3-3.153 2.038 0 1.761-1.653-.547-3.27-1.724-1.206-2.048-2.95-2.55-13.733-.615-13.163-.796-13.997-3.036-13.997-1.165 0-1.439 2.052-1.43 10.75.004 5.912-.528 15.085-1.184 20.383-1.15 9.297-.486 19.26 1.604 24.056.592 1.356.03 1.821-2.847 2.36-1.971.37-3.584.983-3.584 1.362 0 3.004 8.292 4.378 9.375 1.554.524-1.363.955-1.345 3.857.16l3.268 1.697-3 1.025-3 1.025 2.5.714c1.375.393 2.79.76 3.142.814.353.055 1.357-1.69 2.232-3.877zm-4.874-4.023c-.923-1.494.362-3 2.56-3 2.327 0 2.596 2.534.359 3.393-2.075.796-2.194.78-2.919-.393zm66 5c-.483-.783-1.059-.841-1.725-.175-.55.55-.674 1.529-.275 2.175.484.782 1.06.84 1.726.174.55-.55.674-1.529.274-2.174zm-365.5-8.56c0-6.235-.354-9.34-1.018-8.929-.609.376-.842 3.524-.579 7.81.243 3.948.476 7.966.52 8.929.042.962.302 1.75.577 1.75.275 0 .5-4.302.5-9.56zm66.764 8.633c.955-.51 2.524-1.171 3.486-1.469 1.738-.538 2.488-2.604.945-2.604-.443 0-2.33 1.125-4.195 2.5-3.387 2.499-3.51 3.32-.236 1.573zM17.325 516.56c.066-2.979-1.381-5.191-2.599-3.974-.295.295-.202 2.928.205 5.85.567 4.067.927 4.845 1.532 3.315.436-1.1.823-3.436.862-5.191zm351.493 4.145c.707-2.817-.05-4.803-1.492-3.912-1.19.736-1.224 6.458-.039 6.458.49 0 1.18-1.146 1.53-2.546zm-329.704-.374c.08-1.055-.547-2.184-1.393-2.509-1.067-.41-1.35-1.34-.923-3.04.46-1.829.105-2.724-1.394-3.527-1.872-1.002-2.009-.772-2.009 3.389 0 4.429 1.821 7.607 4.359 7.607.669 0 1.28-.864 1.36-1.92zm101.378-3.723c1.872-.903 4.836-2.703 6.587-4 1.75-1.296 3.481-2.357 3.845-2.357 1.26 0 6.471-4.14 6.471-5.141 0-.553-1.185-.072-2.634 1.068-1.45 1.14-3.236 2.073-3.97 2.073-1.327 0-7.096 2.984-10.868 5.62-1.085.76-2.772 1.38-3.75 1.38-.978 0-1.778.675-1.778 1.5 0 1.942 1.867 1.898 6.097-.143zm35.403-1.357c-.34-.55-1.491-1-2.559-1-1.067 0-1.94.45-1.94 1s1.151 1 2.558 1c1.452 0 2.292-.433 1.941-1zm259.376-.568c1.713-.58 1.071-9.586-.848-11.9-.735-.884-3.017-1.575-5.4-1.632-2.27-.055-5.253-.424-6.628-.82-1.794-.518-3.546-.07-6.206 1.584-2.039 1.268-4.402 2.04-5.25 1.714-1.12-.43-1.548.054-1.559 1.765-.011 1.75-.242 1.998-.898.963-.518-.819-.479-2.55.096-4.199 1.214-3.482 6.17-5.315 13.567-5.017 2.888.117 5.25-.024 5.25-.313 0-.29-1.275-1.186-2.834-1.992-2.406-1.244-3.768-1.273-9.019-.191-7.274 1.499-9.366 3.554-8.762 8.606.72 6.031 1.152 6.967 4.507 9.77 3.135 2.618 3.662 2.717 12.938 2.429 5.319-.166 10.29-.51 11.046-.767zm-15.126-3.095c.688-.277 1.813-.277 2.5 0 .688.278.125.505-1.25.505s-1.937-.227-1.25-.505zm-304.066.475c-.32-.798-.557-.56-.605.604-.043 1.054.193 1.645.526 1.313.332-.332.367-1.195.079-1.917zm18.316.688c0-.825-.435-1.5-.968-1.5-.533 0-.71.675-.393 1.5.316.825.752 1.5.968 1.5.217 0 .393-.675.393-1.5zm315.49-9.023c.009-4.769.378-5.88 2.51-7.547 2.446-1.913 2.458-1.988.56-3.443-1.904-1.458-1.9-1.487.19-1.487 1.173 0 2.43-.481 2.793-1.069.363-.587 1.238-.846 1.944-.575 1.894.727 5.513-2.17 5.513-4.413 0-1.069.355-1.943.788-1.943 1.333 0 1.156-3.803-.231-4.954-.72-.597-3.95-.965-7.176-.816-5.26.242-5.968.036-6.864-1.99-1.19-2.69-3.417-3.555-6.905-2.679-1.952.49-2.718 1.487-3.227 4.2-.396 2.11-.203 4.3.474 5.384 1.837 2.942 1.376 3.43-2.859 3.026-4.23-.403-5.072-1.472-2.36-2.99 2.026-1.134.932-3.181-1.699-3.181-1.115 0-2.015-.745-2.115-1.75-.095-.963-.29-3.1-.431-4.75-1.063-12.39-1.411-16.161-2.308-25-.558-5.5-1.031-11.275-1.05-12.834-.02-1.558-.513-2.674-1.095-2.48-.65.217-1.268 6.31-1.603 15.833-.918 26.063-.938 30.397-.149 32.73 1.035 3.062-.835 8.005-2.427 6.413-2.051-2.051-14.311-1.433-18.998.958-3.967 2.023-4.068 2.187-2.21 3.578 1.506 1.128 3.302 1.28 7.945.673 3.3-.431 7.913-.691 10.25-.578 10.6.515 13.079.546 18.04.227 2.91-.187 5.537-.74 5.84-1.229.301-.489 1.179-.365 1.95.274 1.17.971.99 1.485-1.09 3.121-1.658 1.304-2.523 3.02-2.59 5.136-.054 1.748-.415 4.303-.801 5.678-.68 2.418-.74 2.434-1.857.5-.967-1.675-1.06-1.35-.577 2 .857 5.929 2.575 6.815 7.637 3.94 4.118-2.339 4.177-2.45 4.187-7.963zm-334.806 4.335c-.32-.798-.557-.56-.605.604-.043 1.054.193 1.645.526 1.313.332-.332.367-1.195.079-1.917zm-62.529-3.349c-.503-2.863-.919-2.987-3.172-.948-1.554 1.406-1.731 2.03-.756 2.66 2.118 1.367 4.302.416 3.928-1.712zm403.811 1.078c.999-1.203.749-1.575-1.424-2.12-3.052-.766-4.032-.142-3.197 2.035.748 1.947 3.04 1.99 4.621.085zm-84.893-3.291c.04-2.063.214-5.325.388-7.25 2.525-28.01 2.482-32.54-.367-37.837-1.26-2.342-1.048-11.049.437-17.952.529-2.458.112-4.544-1.647-8.25-2.08-4.381-2.72-4.961-5.468-4.961-3.096 0-26.935 7.384-28.89 8.948-.564.452-3.05 1.298-5.526 1.88-2.475.583-11.201 3.347-19.392 6.143-8.192 2.796-16.742 5.275-19 5.51-5.992.622-12.06 2.977-12.422 4.82-.173.883 1.439 3.538 3.581 5.901 2.143 2.364 7.073 8.798 10.957 14.298 3.884 5.5 8.87 11.943 11.079 14.318 2.27 2.44 4.591 6.263 5.337 8.79.896 3.032 1.97 4.617 3.34 4.93 4.033.92 24.237 2.461 33.02 2.518 4.95.033 10.8.431 13 .886 2.2.455 5.688.88 7.75.943 3.675.112 3.752.04 3.823-3.635zm30.924 2.5c.03-7.6.095-7.435-3.247-8.388-2.465-.702-3.324-1.56-3.557-3.552-.645-5.509 6.879-9.061 19.307-9.116l7-.03v-27.15c0-24.522-.169-27.32-1.75-28.903-.962-.965-1.75-2.172-1.75-2.683 0-1.715-1.953-.95-6.568 2.572-5.096 3.89-6.62 4.171-10.796 1.993-1.575-.821-3.263-1.493-3.75-1.493-.487 0-.886 3.089-.886 6.865 0 5.235-.452 7.44-1.903 9.285-1.047 1.331-2.388 4.204-2.98 6.385-.705 2.603-2.003 4.48-3.779 5.466l-2.704 1.5.261 11.34c.144 6.236.88 13.711 1.635 16.61.755 2.9 1.438 7.247 1.517 9.66.253 7.695.915 9.74 3.27 10.1 3.926.597 10.677.306 10.68-.461zm-261.177-5.71c.313-.938-.08-1.155-1.265-.7-.945.363-3.283.66-5.195.66-1.913 0-3.253.362-2.98.806.85 1.375 8.945.719 9.44-.766zm-24.82.519c0-.243-.45-.72-1-1.06-.55-.34-1-.14-1 .442 0 .582.45 1.059 1 1.059s1-.199 1-.441zm167.872-.905c.614-.74 1.396-2.744 1.738-4.454.577-2.883.278-3.313-4.102-5.905-2.598-1.537-6.573-4.235-8.834-5.994-2.26-1.76-4.244-3.064-4.41-2.9-.164.166.38 1.606 1.212 3.2s1.53 3.574 1.55 4.399c.02.825.699 2.373 1.506 3.44.808 1.068 1.468 3.402 1.468 5.187 0 2.913.334 3.287 3.25 3.65 1.788.221 3.758.475 4.378.563.62.088 1.63-.446 2.244-1.186zm154.616-3.675c-.976-1.58-3.99-.258-4.098 1.797-.103 1.964.029 1.996 2.242.546 1.293-.848 2.128-1.902 1.856-2.343zm-140.488.837c0-.523-.9-.666-2-.316-1.1.349-2 .207-2-.316s.9-1.186 2-1.474c2.746-.718 2.537-2.926-.24-2.53-2.257.322-3.373 2.78-2.405 5.3.576 1.502 4.645.92 4.645-.664zM16.955 488.1c.513-8.94.563-6.929-.524-21.325-.627-8.31-.575-12.373.168-13.27.69-.83.807-3.332.327-7.022-.706-5.435-1.037-8.796-1.38-14.04-.083-1.27-.583-2.042-1.112-1.715-1.13.698-1.334 9.29-.722 30.524.15 5.225-.071 11.347-.493 13.605-.422 2.257-.364 5.509.128 7.224.492 1.716 1.003 5.269 1.137 7.895.475 9.348 1.887 8.276 2.47-1.876zm195.44 5.086c0-2.348-1.699-5.934-2.811-5.934-.408 0-.57 1.8-.36 4 .398 4.177 3.171 5.869 3.171 1.934zm193.73 1.461c-.333-.332-1.195-.367-1.917-.078-.798.319-.56.556.604.604 1.054.043 1.645-.193 1.313-.526zm-221.921-1.47c-.197-.592-.685-1.042-1.084-1-.398.04-1.4.075-2.225.075-.825 0-1.5.45-1.5 1s1.163 1 2.584 1c1.42 0 2.422-.484 2.225-1.075zm85.658-1.82c1.194-3.763-6.835-17.07-8.997-14.909-.703.704 6.648 16.67 7.713 16.751.375.03.953-.8 1.284-1.841zm21.024-4.09c.334-.54 1.962-1.335 3.617-1.763l3.01-.78-2.595-3.486c-1.427-1.918-4.716-6.636-7.308-10.486-11.226-16.67-11.952-17.18-19.794-13.903-4.413 1.844-5.191 3.828-2.973 7.583 2.212 3.746 1.253 4.827-1.766 1.99-2.978-2.798-3.682-2.735-3.682.33 0 1.375-.562 2.52-1.25 2.544-.687.024.55.99 2.75 2.146 2.2 1.157 5.509 3.25 7.352 4.652 6.384 4.856 18.574 12.158 20.298 12.158.953 0 2.006-.443 2.34-.985zm144.124-17.556c-.56-8.748-1.003-10.46-2.709-10.46-.603 0-.568.764.094 2 .588 1.1 1.008 5.037.932 8.75-.17 8.3-.176 8.25 1.15 8.25.733 0 .904-2.748.533-8.54zm-291.615 3.728c0-.447-1.35-2.107-3-3.687-2.345-2.247-3-2.506-3-1.187 0 .927.9 2.587 2 3.687 2.053 2.052 4 2.63 4 1.187zm107-9.126c0-.516 1.189-.853 2.641-.75 3.81.272 4.005-1.89.286-3.187-2.949-1.028-7.927-.617-7.927.655 0 .926 3.244 4.22 4.155 4.22.465 0 .845-.422.845-.938zm129.957-7.614c-.709-.854-1.559-3.216-1.89-5.25-.797-4.905-2.505-4.72-2.806.303-.324 5.426.225 6.5 3.33 6.5 2.286 0 2.475-.216 1.366-1.553zm4.46-12.197c.413-.413 1.275-.75 1.917-.75.641 0 1.391-1.765 1.666-3.922.552-4.324 2.82-5.985 3.68-2.695.301 1.152.947 1.848 1.434 1.546 1.017-.628 1.175-4.513.28-6.848-.77-2.004-4.756-2.055-6.394-.081-.684.825-2.367 1.5-3.739 1.5-2.127 0-2.423.37-2.011 2.523.265 1.389.092 2.766-.386 3.06-1.229.76-3.086-4.608-2.25-6.506.381-.867.589-2.41.46-3.427-.128-1.018.739-2.53 1.926-3.363l2.16-1.512-3.14-1.91c-2.525-1.535-3.006-2.346-2.456-4.137.953-3.1 1.392-3.391 2.567-1.7.69.993 1.174 1.102 1.49.337.666-1.61 5.21.604 5.953 2.9.314.97.995 1.501 1.515 1.18.52-.321.634-1.086.254-1.7-.38-.614-.582-3.456-.45-6.315.381-8.21-.721-12.239-3.745-13.688-3.324-1.594-5.76-6.299-4.222-8.153.805-.97.567-1.964-.92-3.856-2.103-2.673-2.63-4.237-1.11-3.298.492.304 1.136-.076 1.431-.845.661-1.723-.273-5.59-1.35-5.59-.434 0-.554.9-.266 2 .287 1.1.082 2-.457 2-1.091 0-2.166-26.93-2.446-61.296-.174-21.404-.214-21.79-2.242-21.5-1.956.28-2.053.855-1.82 10.796.27 11.63-.354 17.36-1.796 16.468-.522-.322-.95.742-.95 2.366 0 1.623.623 3.19 1.385 3.483 1.015.39 1.43 2.887 1.56 9.357.096 4.854.343 13.55.549 19.326.438 12.275-.347 23.208-1.609 22.428-.486-.3-.885-.056-.885.544 0 .6.727 1.37 1.616 1.71 1.28.492 1.492 1.518 1.02 4.958-.327 2.386-.165 5.468.36 6.849.856 2.252.706 2.51-1.461 2.51-1.33 0-2.682-.429-3.006-.954-.325-.524-.786-6.487-1.026-13.25a6133.38 6133.38 0 0 0-.92-24.295c-.822-20.417-1.898-56.883-1.748-59.25.091-1.431-.424-2.25-1.413-2.25-1.009 0-1.378.616-1.05 1.75.279.962.773 18.625 1.098 39.25.62 39.262 1.981 61.006 3.897 62.213.624.393 1.18 2.643 1.237 5 .199 8.21.258 8.36 3.896 9.787 3.536 1.387 4.403 2.532 2.417 3.194-1.465.489-1.381 9.54.105 11.332.821.99.9 2.288.257 4.203-1.561 4.64-.197 7.68 3.764 8.389 1.901.34 3.72.678 4.04.75.322.072.922-.206 1.334-.618zm-1.667-37.94c-.962-.251-1.75-.912-1.75-1.467 0-.556.563-.82 1.25-.589.688.232 1.799-.293 2.469-1.167 1.048-1.366 1.222-1.204 1.25 1.163.017 1.512-.306 2.697-.719 2.634-.412-.064-1.537-.322-2.5-.574zm-2.75-7.31c0-.55.702-1 1.56-1 .857 0 1.28.45.94 1-.34.55-1.041 1-1.559 1-.517 0-.94-.45-.94-1zm-256.015 37.25c.022-1.786-1.657-1.547-2.38.34-.834 2.17.395 4.019 1.505 2.266.473-.746.867-1.919.875-2.606zm-82.985-10.25c0-.55-.701-1-1.559-1-.857 0-1.28.45-.94 1 .34.55 1.04 1 1.558 1s.941-.45.941-1zm389.128-2.654c.755-.91 1.372-1.922 1.372-2.25 0-.328 1.11-.596 2.468-.596 2.709 0 4.841-3.95 3.716-6.883-.981-2.557-2.457-1.881-1.928.883.663 3.47-1.454 3.188-3.552-.474-.937-1.635-2.154-3.152-2.704-3.37-.55-.22.27-.236 1.822-.038 2.25.287 2.748.008 2.459-1.38-.236-1.129-1.151-1.652-2.613-1.493-3.032.331-7.168-2.515-7.168-4.932 0-1.076-.674-2.63-1.498-3.454-1.153-1.154-1.248-1.964-.413-3.524.879-1.643.715-2.285-.869-3.394-1.126-.789-2.265-3.181-2.693-5.654-.407-2.358-.966-3.69-1.242-2.961-.276.729.046 3.28.715 5.67.669 2.39.924 4.818.567 5.395-.356.578.045 2.39.893 4.03.847 1.638 1.54 3.851 1.54 4.917 0 1.065 1.575 4.227 3.5 7.025 1.925 2.799 3.5 5.581 3.5 6.184 0 1.404-2.533 3.953-3.928 3.953-1.181 0-1.458 2.28-.405 3.333 1.254 1.254 5.087.668 6.461-.987zm-59.128-1.74c0-.216-.675-.651-1.5-.968-.825-.317-1.5-.14-1.5.393s.675.969 1.5.969 1.5-.177 1.5-.393zm49.232-1.936c5.068-1.765 5.246-2.094 2.908-5.342-2.857-3.968-7.718-19.067-9.764-30.328-1.915-10.542-2.664-45.854-1.144-53.93 1.974-10.49 2.377-14.194 1.595-14.677-.454-.281-.827.34-.827 1.38 0 1.042-.337 2.234-.75 2.65-.754.762-.83 1.275-1.102 7.434-.112 2.54-.513 3.217-1.648 2.781-.913-.35-1.5-.002-1.5.893 0 .808.45 1.469 1 1.469 2.07 0 .898 3.088-1.521 4.008-1.6.608-2.727 1.983-3.082 3.757-.802 4.01-3.813 7.672-5.71 6.944-2.393-.918-4.819-5.201-4.062-7.173.54-1.405 1.42-1.625 4.522-1.129 3.847.615 4.897-.387 3.088-2.947-.902-1.278-8.422-3.606-9.184-2.845-1.057 1.058-.408 35.966.853 45.802 1.302 10.161 5.26 23.023 9.593 31.172 3.714 6.986 7.312 10.231 12.503 11.28.275.055 2.18-.484 4.232-1.2zm-5.088-4.56c-.955-.605-1.026-1.065-.241-1.55 1.491-.922 5.28.336 4.553 1.512-.713 1.152-2.527 1.168-4.312.037zm-7.315-3.784c-4.319-1.143-12.73-27.009-11.285-34.707.655-3.49.833-3.62 4.957-3.62 2.63 0 5.064.675 6.318 1.75 1.954 1.677 5.167 11.932 5.194 16.581.017 2.823 3.73 14.655 5.128 16.34 2.079 2.504.183 4.337-4.36 4.214-2.354-.064-5.033-.315-5.952-.558zm-11.805-44.312c-1.313-.811-1.463-2.606-.974-11.641l.223-4.127 4.895-.58c5.766-.683 8.017-.033 7.65 2.207-.147.895.092 2.2.53 2.9 1.536 2.449 1.877 10.21.469 10.648-3.138.977-11.542 1.366-12.793.593zm-103.116 30.859c.098-12.521-1.243-17.001-1.908-6.373-.275 4.4-.342 9.91-.15 12.247.617 7.463 1.984 3.558 2.058-5.874zm148.082 3.644c2.388-3.864 2.577-5.672.51-4.879-.825.317-1.5 1.202-1.5 1.969 0 .766-.9 1.393-2 1.393-1.163 0-2-.667-2-1.594 0-.876.9-1.829 2-2.117 1.223-.32 1.992-1.352 1.978-2.656l-.022-2.133-1.728 2.188c-1.033 1.309-3.099 2.314-5.138 2.5-2.51.23-3.492.84-3.718 2.312-.473 3.083.464 5.12 2.841 6.181 3.407 1.52 6.59.373 8.777-3.164zm-138.99-.482c0-.53-.9-1.447-2-2.035-2.161-1.157-2.32-.997-1.393 1.418.655 1.707 3.393 2.204 3.393.617zm123.4-11.935c-.884-1.774-1.82-3.014-2.078-2.756-.258.259.272 1.903 1.178 3.656.907 1.752 1.842 2.992 2.078 2.755.237-.237-.293-1.882-1.178-3.655zm7.485-2.644c-1.538-1.538-4.885-1.07-4.885.683 0 .509 1.013 1.314 2.25 1.788 2.977 1.143 4.665-.441 2.635-2.471zm10.443-.53c-.59-.59-2.593-.927-4.45-.75l-3.378.324 3.5 1.7c3.597 1.746 6.495.894 4.328-1.273zm6.387-1.176c-2.276-1.707-6.824-16.008-7.235-22.75-.184-3.025-.381-5.95-.438-6.5-.056-.55-.561-.213-1.122.75-.56.962-1.87 1.75-2.91 1.75s-2.18.468-2.534 1.04c-.422.681.304.802 2.105.35 2.355-.591 2.65-.435 2.067 1.087-.375.977-.16 2.405.478 3.174.638.768.874 1.682.526 2.03-.349.35-.26 1.126.196 1.727.457.6 1.44 4.467 2.184 8.592 1.372 7.603 2.855 9.91 6.41 9.968 1.774.029 1.798-.076.273-1.218zm-431.638-6.518c5.975-6.116 6.764-7.424 8.624-14.297 2.257-8.342 2.177-14.666-.308-24.313-1.737-6.745-3.318-9.587-8.321-14.955-10.384-11.142-16.892-7.466-7.085 4.002 9.416 11.01 12.552 24.436 8.062 34.52-1.149 2.578-2.867 4.95-3.818 5.27-2.232.748-8.23 10.37-8.23 13.202 0 2.032 1.15 3.098 3.5 3.242.55.034 3.959-2.968 7.576-6.671zm442.927-8.186c.542-1.95.988-5.492.99-7.87.005-3.58-.295-4.265-1.744-3.988-1.22.233-1.962 1.695-2.451 4.823-.386 2.469-.999 5.946-1.362 7.726-.363 1.781-.353 4.031.023 5 .639 1.648.777 1.635 2.121-.191.79-1.075 1.881-3.55 2.423-5.5zm-9.913.217c.729-1.918.59-2.958-.562-4.232-2.221-2.454-1.977-9.316.408-11.474 2.51-2.272 4.047-1.247 4.127 2.752.06 3.064.101 3.095 1.027.78.53-1.327.714-5.377.407-9-.307-3.625-.61-8.39-.672-10.59-.142-4.92-3.508-12.5-5.552-12.5-1.058 0-1.344.67-.96 2.25.302 1.238 1.049 4.239 1.66 6.668.612 2.43.84 5.127.507 5.994-.5 1.303-.928 1.146-2.474-.903-1.028-1.363-2.137-2.212-2.463-1.885-1.623 1.622-.845 31.962.891 34.771.955 1.545 2.487.442 3.656-2.631zm-381.09-6.682c0-9.174-.524-11.581-2.518-11.581-2.285 0-5.774 8.63-5.05 12.49.584 3.117 4.505 7.51 6.702 7.51.476 0 .865-3.789.865-8.419zm357.889-2.331c-.462-1.238-1.301-2.25-1.865-2.25-1.389 0-1.291 1.333.208 2.832.977.977.77 1.354-1 1.817-2.623.686-2.892 1.884-.62 2.755 1.263.485 1.36.925.445 2.027-.918 1.106-.782 1.625.637 2.425 1.585.894 1.88.508 2.42-3.17.338-2.302.236-5.199-.225-6.436zm-161.208 4.668c1.478-1.478-.492-7.928-2.22-7.266-1.619.622-4.462-3.434-4.462-6.366 0-1.248.9-2.831 2-3.518 1.1-.687 2-1.816 2-2.509 0-.693 1.013-1.274 2.25-1.293l2.25-.033-2.36-1.967c-1.299-1.081-2.951-1.966-3.673-1.966-2.096 0-10.598 10.268-9.451 11.415 1.457 1.457 1.194 3.585-.444 3.585-.786 0-2.157-.729-3.048-1.62-.89-.89-1.82-1.417-2.067-1.17-.677.677 3.384 4.229 10.586 9.258 7.148 4.992 7.111 4.978 8.639 3.45zm-5.182-4.918c-.34-.55.084-1 .941-1 .858 0 1.56.45 1.56 1s-.424 1-.942 1c-.517 0-1.219-.45-1.559-1zm-244.845-.718c1.954-4.673 1.746-15.256-.359-18.31-2.107-3.058-4.526-4.948-5.535-4.325-1.29.798-.907 25.806.416 27.129 1.559 1.559 3.673-.176 5.478-4.494zm419.345 2.325c0-.949-2.993-1.427-3.527-.564-.325.526.336.957 1.468.957 1.133 0 2.06-.177 2.06-.393zM7.103 357.013c-.24-1.244-.444-.461-.455 1.739-.012 2.2.184 3.217.434 2.261s.26-2.756.02-4zm412.818 1.28c-.279-.45-.119-2.895.355-5.43.898-4.806.71-5.064-3.38-4.629-2.842.303-3.255 1.016-1.242 2.142 1.024.574 1.741 2.157 1.741 3.844 0 3.697.963 6.173 2.122 5.457.5-.31.683-.933.404-1.384zm22.976-10.036c-.83-2.614 2.868-19.796 5.377-24.99 2.544-5.266 2.516-4.679.248-5.272-1.413-.37-1.759-.053-1.407 1.29.256.98-.398 2.645-1.454 3.7-1.904 1.905-2.962 3.882-3.064 5.728-.073 1.315-3.058 2.384-6.893 2.468-3.907.086-4.311.697-5.023 7.596-.311 3.011-.98 5.475-1.486 5.475-1.134 0 .07-14.104 1.32-15.45 1.149-1.24 1.131-4.277-.03-4.995-1.88-1.161-3.844.685-5.05 4.747-2.042 6.87-2.996 8.843-3.982 8.233-.514-.318-.774-1.411-.578-2.43 1.221-6.34 1.395-9.105.574-9.105-1.597 0-2.326 2.069-2.602 7.383-.147 2.814-.361 5.567-.477 6.117-.333 1.574.145 7.115.517 6 .183-.55.611-2.256.95-3.791.864-3.91 2.762-2.287 2.375 2.031-.277 3.097-.01 3.588 2.14 3.925 1.351.212 2.814.936 3.25 1.61.605.933 1.028.868 1.778-.275.659-1.003.99-1.086 1-.25.009.687.69 1.25 1.515 1.25s1.5-.378 1.5-.84c0-1.303 4.799-3.175 6.483-2.529.828.318 1.244 1.003.923 1.521-.875 1.415.425 4.07 1.628 3.327.576-.356.787-1.47.468-2.474zm-374.002.995c.34-.55.168-1-.382-1s-1.278.45-1.618 1c-.34.55-.168 1 .382 1s1.278-.45 1.618-1zm-11.733-4.516c-3.686-3.418-8.266-5.484-12.158-5.484-4.003 0-4.142-.165-7.84-9.3-1.515-3.74-4.19-8.586-5.943-10.768-3.48-4.33-4.625-9.418-4.753-21.111-.053-4.862.362-7.114 1.527-8.278 1.317-1.317 1.373-1.872.315-3.147-1.583-1.907-2.132-14.43-.707-16.146.724-.873.677-1.684-.155-2.687-.667-.804-1.537-6.857-1.976-13.75l-.783-12.313-.277 10.5c-.153 5.775-.442 12.75-.643 15.5-.202 2.75-.328 5.675-.28 6.5.206 3.598 1.19 21.183 1.6 28.569.556 10.028-.595 11.644-5.796 8.143-1.869-1.258-4.017-3.575-4.774-5.15-1.18-2.452-1.509-2.626-2.3-1.212-.507.907-2.026 1.65-3.373 1.65-4.236 0-2.716 1.451 5.8 5.54 6.919 3.32 9.137 5.027 13.75 10.574 6.792 8.168 11.076 19.005 9.027 22.835-1.114 2.08-1.063 2.278.438 1.702.934-.358 2.322-.651 3.085-.651.86 0 1.154-.608.772-1.601-.78-2.033 1.301-3.364 5.288-3.384 2.195-.01 4.204 1.017 6.83 3.494 2.047 1.93 4.182 3.224 4.746 2.875.604-.373.021-1.564-1.42-2.9zm34.752-2.175c.195-2.825-.005-6.413-.444-7.973-.756-2.682-.83-2.592-1.371 1.664-.854 6.725-.635 12.143.475 11.773.542-.18 1.144-2.64 1.34-5.464zm-84.519 3.132c0-.858-.457-1.277-1.016-.931-.559.345-.757 1.047-.44 1.559.856 1.387 1.456 1.128 1.456-.628zm75-5.441c0-1.65-.45-3-1-3s-1 1.35-1 3 .45 3 1 3 1-1.35 1-3zm188.487-3.97c.985-2.184 2.628-4.73 3.652-5.656 1.024-.926 1.861-2.515 1.861-3.53 0-1.014.42-1.844.933-1.844.513 0 1.241-.972 1.618-2.16.377-1.187 2.882-5.977 5.567-10.643s4.882-8.633 4.882-8.814c0-1.29 5.82-12.425 7.688-14.71 1.272-1.555 2.312-3.517 2.312-4.36 0-1.618 4.455-10.427 9.514-18.813 6.832-11.325 9.96-15.312 14.378-18.327 4.004-2.733 5.52-3.173 10.919-3.173 4.195 0 7.506.63 10.01 1.908 6.173 3.15 15.313 12.996 20.982 22.604 2.916 4.943 5.72 9.663 6.23 10.488 3.205 5.177 6.842 12.044 7.467 14.097.401 1.322 1.528 3.303 2.503 4.403.974 1.1 3.182 5.375 4.906 9.5 4.178 9.995 5.38 12.27 6.714 12.71 1.371.454 2.473-3.214 1.315-4.376-.457-.459-4.289-7.547-8.514-15.75-12.467-24.206-25.913-43.953-34.959-51.345-9.329-7.622-19.877-9.266-27.685-4.315-5.666 3.594-14.288 13.888-18.196 21.726-1.604 3.217-4.192 7.73-5.75 10.03-1.558 2.299-2.834 4.421-2.834 4.717 0 .295-2.251 5.25-5.003 11.012-2.751 5.762-5.449 11.515-5.994 12.784-.545 1.268-2.78 5.232-4.967 8.807-2.186 3.575-5.336 9.425-6.998 13-1.663 3.575-3.94 8.187-5.06 10.25-1.558 2.867-1.713 3.75-.66 3.75.759 0 2.184-1.787 3.169-3.97zm-14.487-6.09c0-3.582-.389-5.818-.952-5.47-.723.447-.866 9.868-.17 11.28.693 1.41 1.122-.811 1.122-5.81zm145.5-3.01c0-.772-.787-1.555-1.75-1.74-1.723-.332-2.436 1.79-1.062 3.164 1.048 1.048 2.812.155 2.812-1.424zm-10.642-.03l3.157-1.101-2.415-1.9c-1.328-1.045-2.858-1.9-3.4-1.9-1.077 0-2.2 2.34-2.2 4.582 0 1.707.736 1.755 4.858.318zm17.355-3.115c-.05-1.783.444-3.582 1.098-3.998.806-.513.64-.762-.514-.772-1.11-.01-2.065-1.32-2.744-3.765-1.39-5.003-1.322-6.21.384-6.865.79-.303 1.2-1.167.912-1.92-.405-1.056.516-1.306 4.048-1.098 2.515.148 4.94.013 5.39-.3 1.172-.815 4.53-10.085 3.886-10.728-.916-.916-2.67.686-2.706 2.47-.059 3.006-3.39 5.843-7.665 6.526-5.175.828-7.282.059-7.372-2.692-.052-1.561-.551-1.057-1.84 1.857-2.617 5.915-3.2 10.987-1.514 13.164 1.278 1.65 1.361 1.422.823-2.243-.455-3.099-.186-4.49 1.12-5.797.946-.946 1.83-1.586 1.964-1.422.134.164.549 3.39.921 7.17.555 5.628.427 6.777-.704 6.343-.76-.292-1.986-.156-2.726.3-1.964 1.215.573 3.985 3.649 3.985 1.772 0 2.377.552 2.377 2.166 0 1.192.294 1.873.653 1.514.359-.359.611-2.111.56-3.895zm-10.248-.72c1.278-2.387 1.302-3.065.107-3.065-1.49 0-4.144 3.074-3.522 4.08.914 1.479 2.302 1.066 3.415-1.015zm-142.9-13.401c-.753-.752-1.065.265-1.065 3.469 0 5.895 1.407 7.31 1.815 1.825.172-2.327-.165-4.709-.75-5.294zm179.545 5.728c.83-1.985 1.369-3.672 1.199-3.75-4.884-2.247-6.743-4.917-5.173-7.43.957-1.534.764-1.826-1.323-1.999-2.102-.174-2.347.112-1.751 2.042.38 1.235 1.25 3.37 1.931 4.745.682 1.375 1.546 4.187 1.92 6.25.373 2.062.906 3.75 1.184 3.75.278 0 1.184-1.624 2.013-3.608zm-353.947-.642c-.278-.688-.505-.125-.505 1.25s.227 1.937.505 1.25c.277-.688.277-1.813 0-2.5zm345.337-1.368c0-.825-.45-1.222-1-.882-.55.34-1 1.293-1 2.118s.45 1.222 1 .882c.55-.34 1-1.293 1-2.118zm21-2.382c0-.55-.198-1-.44-1-.243 0-.72.45-1.06 1-.34.55-.141 1 .441 1 .583 0 1.06-.45 1.06-1zm-433.765-16.4c-.395-2.104-.038-3.271 1.302-4.25 1.015-.743 1.31-1.35.655-1.35-1.652 0-1.594-7.975.058-8.08 1-.062 1-.18 0-.583-.687-.277-1.25-1.104-1.25-1.837 0-.734.563-1.54 1.25-1.792 1-.367 1-.723 0-1.783-1.577-1.672-1.713-8.33-.15-7.364.8.495.8.12 0-1.375-.605-1.13-1.106-3.322-1.113-4.87-.008-1.55-.292-3.853-.631-5.12l-.617-2.305-1.735 2.804c-1.105 1.787-1.435 3.387-.91 4.411.452.884.922 6.509 1.042 12.5l.36 17.894c.184 9.237.423 10.541 1.464 8 .45-1.1.574-3.305.275-4.9zm68.297 2.5c-.366-1.155-1.086-2.1-1.599-2.1-1.076 0-1.216 2.096-.3 4.485.93 2.424 2.715.184 1.9-2.385zm346.193-4.332c-.222-1.798-.41-.568-.415 2.732-.005 3.3.177 4.77.405 3.268.228-1.503.233-4.203.01-6zm-57.099-.301c-.696-1.816-2.626-1.938-2.626-.167 0 1.82 2.372 4.085 2.832 2.704.197-.589.104-1.73-.206-2.537zm36.174 2.333c.66-.66 1.2-1.99 1.2-2.955 0-1.965 8.753-9.116 10.123-8.27.482.299.877 1.39.877 2.425s.45 2.16 1 2.5c.55.34 1 1.518 1 2.618 0 1.1.45 1.722 1 1.382 1.522-.941 1.193-5.49-.442-6.117-1.111-.426-1.305-1.721-.842-5.626l.6-5.073-4.045 4.045c-2.225 2.225-4.67 4.433-5.435 4.908-1.945 1.207-7.836 8.918-7.836 10.257 0 1.45 1.299 1.407 2.8-.094zm-18.757-7.55c.66-2.063 2.356-4.99 3.771-6.507 1.96-2.1 2.295-3.034 1.407-3.923-.87-.87-1.79-.882-3.618-.05-1.936.883-2.703.814-3.65-.326-1.327-1.6-6.511-1.968-7.403-.525-.312.506.124 1.612.97 2.458.98.979 1.317 2.425.929 3.973-.807 3.213 2.022 8.65 4.5 8.65 1.312 0 2.266-1.156 3.094-3.75zm-5.543-8.25c.34-.55.817-1 1.06-1 .242 0 .44.45.44 1s-.476 1-1.059 1c-.582 0-.78-.45-.44-1zm-33.207 6.631c10.299-5.588 13.504-7.658 14.044-9.067.72-1.878-7.334-12.564-9.47-12.564-2.358 0-3.38 1.866-1.43 2.614 2.957 1.135 1.542 2.414-7.187 6.493-4.812 2.25-8.884 4.218-9.049 4.374-.164.156.55 1.799 1.587 3.651a383.037 383.037 0 0 1 3.084 5.618c.66 1.237 1.427 2.25 1.706 2.25.28 0 3.301-1.516 6.715-3.369zm84.707 1.81c0-.858-.457-1.277-1.016-.931-.559.345-.757 1.047-.44 1.559.856 1.387 1.456 1.128 1.456-.628zm-353.559-2.03c-.38-3.469-1.44-4.385-1.44-1.245 0 2.088.696 3.834 1.529 3.834.107 0 .068-1.165-.089-2.589zm315.56-5.64c0-1.679-.252-1.808-1.5-.771-.826.684-1.5 1.85-1.5 2.59 0 .786.624 1.107 1.5.771.824-.316 1.5-1.482 1.5-2.59zM89.672 267.128c-1.043-1.043-1.526 7.934-.511 9.495.403.62.873-1.073 1.044-3.762.17-2.69-.07-5.27-.533-5.733zm-9.594 6.935c-.32-.798-.557-.56-.605.604-.043 1.054.193 1.645.526 1.313.332-.332.367-1.195.079-1.917zm349.316.313c0-2.757-1.386-7.119-1.964-6.183-.905 1.465-.05 7.058 1.078 7.058a.883.883 0 0 0 .886-.875zm-137-14.98c4.675-1.709 9.282-3.566 10.237-4.127.955-.56 2.385-1.018 3.177-1.018.793 0 2.41-1.231 3.593-2.735l2.151-2.735-2.987-2.515c-5.857-4.932-11.888-9.015-13.268-8.983-.772.018-3.878.898-6.903 1.955-4.493 1.57-5.455 2.304-5.254 4.011.2 1.702-1.096 2.704-7 5.41-3.985 1.827-8.02 3.588-8.966 3.914-1.56.537-1.591.96-.335 4.521.763 2.161 2.09 5.29 2.95 6.954l1.564 3.024 6.27-2.283c3.45-1.256 10.096-3.682 14.771-5.392zm8 6.855c0-.55-.45-1-1-1s-1 .45-1 1 .45 1 1 1 1-.45 1-1zm-210.75-4.477c-.656-3.431-1.25-3.177-1.25.536 0 1.682.39 2.818.866 2.523.477-.294.65-1.67.384-3.059zm-9.587-.773c-.278-.688-.505-.125-.505 1.25s.227 1.937.505 1.25c.277-.688.277-1.813 0-2.5zm349.587-1.25c-.369-1.477-3.511-1.216-4.028.334-.305.914.298 1.229 1.917 1 1.299-.184 2.249-.784 2.111-1.334zm15.731-.75c.01-.413.02-1.437.02-2.275 0-.839-1.225-1.99-2.722-2.56-3.766-1.431-7.279.256-7.279 3.497 0 1.93.589 2.527 2.75 2.792 3.256.399 7.205-.395 7.231-1.454zm-92.98.342c0-1.932-10.27-10.052-13.474-10.653-6.936-1.302-6.905-.147.158 5.76 5.133 4.292 7.618 5.711 10.065 5.75 1.788.028 3.25-.358 3.25-.857zm-272.031-7.842c-.023-5.754-.293-7.3-1.05-6-.91 1.562-.281 13.75.71 13.75.204 0 .357-3.488.34-7.75zm9.663-6.345c-.71-4.5-1.633-4.823-1.633-.572 0 2.017.477 3.667 1.06 3.667.624 0 .86-1.275.573-3.095zm374.796-.477c1.939-1.939 2.023-3.428.194-3.428-1.846 0-3.956 2.65-3.15 3.956.849 1.373 1.1 1.328 2.956-.528zm-451.571-9.827c.038-3.187.319-6.581.623-7.542.305-.96-.123-3.279-.952-5.153-1.458-3.296-1.504-3.067-1.417 7.094.049 5.775-.01 10.95-.13 11.5-.12.55-.137 1.675-.037 2.5.413 3.403 1.847-2.896 1.913-8.399zm202.516 4.367c1.72-1 6.951-3.045 11.626-4.543 4.675-1.497 11.2-3.966 14.5-5.486 3.3-1.52 7.238-3.036 8.75-3.37 1.513-.334 2.75-1.222 2.75-1.974 0-.751-3.487-3.928-7.75-7.058-8.59-6.31-9.096-6.382-19.25-2.757-3.685 1.315-5.413 2.456-5.236 3.458.144.822-.306 1.931-1 2.465-1.83 1.405-11.72 5.178-15.491 5.91-4.697.913-5.807 2.664-4.206 6.636.721 1.788 2.42 4.734 3.776 6.546 2.121 2.837 2.878 3.205 5.434 2.644 1.634-.359 4.377-1.471 6.097-2.471zm-135.374.032c0-.55-.45-1-1-1s-1 .45-1 1 .45 1 1 1 1-.45 1-1zm0-5.56c0-3.545-1.68-3.001-1.781.578-.047 1.66.334 2.758.848 2.44.513-.317.933-1.675.933-3.017zm-43-1.5c0-.517-.45-.94-1-.94s-1 .701-1 1.559c0 .857.45 1.28 1 .94.55-.34 1-1.04 1-1.558zm431 .06c0-1.111-.666-2-1.5-2-1.808 0-1.933 1.166-.3 2.8 1.614 1.613 1.8 1.53 1.8-.8zm-5.316-5.78c-.74-7.166-2.638-9.315-2.802-3.17-.202 7.596.481 10.461 2.237 9.376.74-.457.936-2.61.565-6.206zm-437.684-2.42c0-1.616-.295-1.905-1.112-1.088-.613.613-.811 1.603-.441 2.2 1.034 1.674 1.553 1.302 1.553-1.112zm403.5-8.936c3.85-3.356 8.35-7.306 10-8.779 1.65-1.473 4.913-3.752 7.25-5.066 2.338-1.313 4.25-2.813 4.25-3.332 0-.52-1.462-2.663-3.25-4.763-1.787-2.1-4.318-5.22-5.625-6.93-1.306-1.712-2.956-2.89-3.666-2.617-2.092.803-14.924-1.333-15.341-2.554-.21-.615-1.641-2.436-3.179-4.045-2.367-2.477-3.113-2.756-4.867-1.817-1.386.742-2.072 2.098-2.072 4.099 0 2.202-.607 3.22-2.307 3.866-1.477.562-2.8 2.369-3.674 5.017-1.187 3.596-1.14 5.417.348 13.848 2.437 13.796 3.585 17.209 5.792 17.209 1.013 0 1.841-.45 1.841-1 0-1.869 3.862-1.01 4.5 1 .35 1.1 1.167 1.992 1.818 1.982.65-.01 4.332-2.763 8.182-6.118zM24.474 212.93c-.771-.771-1.079-.214-1.079 1.955 0 3.948 1.404 5.36 1.829 1.84.18-1.494-.157-3.202-.75-3.795zm57.426-8.428c1.325-1.238 3.34-2.25 4.477-2.25 2.016 0 2.062-.403 1.794-15.75-.224-12.803-.535-15.695-1.663-15.455-.762.163-2.337-.572-3.5-1.633-2.734-2.495-7.272-4.74-11.363-5.621-1.787-.385-3.25-1.09-3.25-1.566s2.138-2.965 4.75-5.531l4.75-4.666-6 4.494c-8.25 6.18-14.716 8.136-24.643 7.455-4.944-.339-9.402-1.302-12.094-2.612-5.128-2.497-13.648-9.17-13.715-10.743-.026-.62-.798-1.745-1.716-2.5-.918-.755-3.009-4.297-4.646-7.872-2.749-6-2.983-7.404-3.038-18.244-.04-7.906.335-12.139 1.147-12.95.663-.664 1.21-2.129 1.215-3.256.014-3.043 5.193-11.517 9.937-16.262 2.292-2.291 6.187-4.938 8.656-5.88 5.193-1.984 4.646-3.705-.788-2.48-7.904 1.783-17.834 13.563-21.134 25.072-1.402 4.888-1.99 22.674-1.124 34 .668 8.725.826 9.263 1.95 6.592.672-1.598 1.396-2.402 1.608-1.784.72 2.094 14.327 15.369 17.365 16.94 4.274 2.212 12.32 4.223 17.02 4.255 4.805.033 7.08 1.233 5.942 3.135-1.922 3.214-6.792 8.782-8.131 9.296-2.143.822-10.133-1.34-15.505-4.196-2.615-1.39-5.42-2.217-6.333-1.866-2.178.836-1.27 3.22 1.063 2.792 1.006-.185 4.784.776 8.397 2.136 3.612 1.36 7.9 2.865 9.529 3.346 2.627.776 3.091 1.526 4.118 6.65 2.51 12.533 11.695 20.704 23.27 20.704 6.776 0 7.99 1.045 8.34 7.184.103 1.824.35.616.548-2.684.286-4.769.854-6.462 2.767-8.25zm-16.005.82c-4.735-1.142-7.06-2.727-10.652-7.263-3.174-4.008-3.348-4.646-3.348-12.34 0-7.006.342-8.617 2.5-11.796 1.375-2.026 4.29-4.574 6.478-5.664 3.511-1.75 4.15-1.808 5.457-.502 1.156 1.156 1.215 1.745.273 2.687-1.64 1.64-1.518 2.808.292 2.808 1.687 0 5.5 3.466 5.5 5 0 .55-.9 1-2 1-2.557 0-2.514.394.353 3.261 1.293 1.294 2.585 3.002 2.869 3.795.416 1.163.91 1.213 2.533.257 1.108-.652 2.967-.938 4.13-.633 1.817.475 2.115.117 2.115-2.537 0-1.7-.984-5.117-2.188-7.595-2.563-5.276-1.829-6.853 1.663-3.572 2.693 2.53 4.03 6.048 4.98 13.106 1.118 8.3-4.65 17.768-12.082 19.831-4.282 1.19-4.577 1.194-8.873.158zm81.343 9.01c2.07-1.056 8.914-3.587 15.21-5.625 26.645-8.624 34.419-11.37 34.717-12.264.429-1.287-11.784-11.393-13.167-10.896-.607.218-4.13 1.205-7.83 2.193-4.306 1.15-6.92 2.4-7.26 3.472-.324 1.02-3.56 2.704-8.272 4.304-10.923 3.71-23.7 8.101-23.967 8.239-.25.129 3.616 10.51 4.369 11.727.735 1.19 2.116.933 6.2-1.15zm-134.843-4.78c0-1.858-.322-2.378-1.032-1.668-.568.568-.745 1.783-.393 2.7.926 2.414 1.425 2.052 1.425-1.032zm176-5.697c0-.18-1.12-.112-2.488.15-1.369.261-2.241.875-1.94 1.364.475.766 4.428-.585 4.428-1.514zm264.075-.878c-.123-1.196-1.495-.965-1.925.325-.22.66.14 1.02.8.8.66-.22 1.167-.727 1.125-1.125zM11.88 186.502c-.338-25.71-.658-32.244-1.36-27.75-.873 5.589-.217 42.5.756 42.5.438 0 .71-6.638.603-14.75zm390.748 10.185c-.297-1.554-1.148-2.435-2.35-2.435-2.352 0-2.46 2.705-.206 5.194 1.998 2.209 3.248.86 2.556-2.759zm59.618 3.467c3.202-1.116 4.57-4.902 1.772-4.902-2.09 0-8.623 2.914-8.623 3.846 0 2.328 2.22 2.67 6.851 1.056zm-437.421-9.797c-.384-1.7-.85-2.085-1.61-1.325-.69.69-.793 2.781-.291 5.894l.778 4.826.831-3.5c.458-1.925.589-4.578.292-5.895zm435.066 3.095c5.252-1.884 6.339-3.568 4.146-6.424-1.108-1.443-1.804-1.542-4.277-.608-2.585.976-3.512.766-7.41-1.676-2.45-1.535-4.768-3.274-5.15-3.863-1.374-2.117.126-1.784 3.474.77 2.895 2.207 5.721 3.35 5.721 2.312 0-.662-3.662-7.397-5.266-9.684-1.864-2.658-2.38-6.545-.734-5.527 2.377 1.469.683-2.722-2.967-7.34-11.233-14.211-23.309-16.464-16.594-3.096 2.87 5.714 2.931 5.936 1.64 5.936-.991 0-7.737-13.975-7.339-15.202.132-.406-.655-1.218-1.75-1.804-2.426-1.298-6.441.437-5.336 2.306.814 1.377 7.642 10.392 19.843 26.2l10.747 13.926c2.886 3.741 4.722 5.575 5.578 5.57.373-.003 2.926-.81 5.674-1.796zm-337.02-10.128c2.214-1.038 4.924-2.114 6.024-2.392 6.842-1.727 22.498-6.96 22.485-7.515-.022-.982-1.186-2.387-4.117-4.971l-2.615-2.306-8.376 2.64c-4.607 1.45-11.903 3.95-16.212 5.555-4.31 1.604-8.697 2.917-9.75 2.917-1.622 0-1.915.738-1.915 4.833 0 2.658.25 5.082.553 5.386.698.698 8.632-1.666 13.923-4.147zm-6.476-10.523c3.025-.973 6.85-2.328 8.5-3.011 1.65-.684 4.949-1.886 7.33-2.671 4.999-1.65 5.854-3.23 1.99-3.677-1.67-.193-4.284.75-6.93 2.5-3.402 2.25-5.458 2.832-10.32 2.923-8.752.163-8.57.089-8.57 3.494 0 2.057.423 2.955 1.25 2.659.688-.247 3.725-1.244 6.75-2.217zm81-4.05c0-.824-.45-1.5-1-1.5s-1 .676-1 1.5c0 .826.45 1.5 1 1.5s1-.674 1-1.5zm-.316-5.687c-.32-.798-.557-.56-.605.604-.043 1.054.193 1.645.526 1.313.332-.333.367-1.195.079-1.917zM87.485 150.02c-.51-32.452-.844-37.043-3.157-43.267-3.658-9.846-11.145-17.985-20.896-22.716-4.054-1.967-5.037-2.143-5.037-.9 0 .488 3.17 2.8 7.042 5.14 13.1 7.916 18.152 16.77 19.466 34.121.637 8.41-.841 17.931-3.584 23.091-1.54 2.897-1.033 4.364.67 1.934 1.688-2.41 3.83-2.458 4-.088.056.78.17 4.98.254 9.334.084 4.354.445 7.625.802 7.268.357-.357.555-6.62.44-13.917zm59.196 9.33c.955-.969.793-1.543-.757-2.687-1.084-.8-2.66-1.151-3.5-.78-.84.37-2.995.88-4.788 1.132-3.538.498-4.75 1.604-3.67 3.35.897 1.454 11.083.64 12.715-1.015zm49.398-2.285c-.32-.798-.557-.56-.605.604-.043 1.054.193 1.645.526 1.313.332-.333.367-1.195.079-1.917zm-136.184-2.338c4.501-1.15 11.567-7.556 15.453-14.007 3.25-5.396 3.455-6.267 3.5-14.85.026-5.014-.583-11.29-1.354-13.944l-1.401-4.827-2.35 2.827c-1.944 2.338-2.325 3.864-2.202 8.827.082 3.3.585 6.558 1.117 7.24.538.691.67 3.223.297 5.71-.572 3.817-1.396 5.045-5.657 8.438-2.743 2.184-6.319 4.264-7.945 4.621-2.283.501-2.958 1.201-2.958 3.07 0 3.646-3.571 6.745-6.83 5.927-4.41-1.107-5.43-2.534-4.857-6.797.49-3.656.2-4.18-5.147-9.334-4.286-4.13-6.153-5.308-7.666-4.837-4.771 1.486-6.5 1.64-6.5.578 0-.614.675-1.116 1.5-1.116s1.5-.408 1.5-.907c0-.498-.902-.67-2.005-.382-2.138.56-5.005-1.216-4.98-3.084.043-3.123 2.052-4.241 8.168-4.544 1.96-.097 3.452-3.85 2.076-5.225-.587-.587-2.597-.566-5.35.055-2.782.629-4.532.644-4.742.041-.183-.525-.806-.954-1.384-.954-.681 0-.877 2.43-.558 6.9.883 12.34 7.792 23.485 18.15 29.277 4.58 2.56 5.871 2.823 12.125 2.465 3.85-.22 8.35-.746 10-1.168zm53.138-1.46c1.176-.008 4.428-1.59 7.226-3.514 2.799-1.925 5.457-3.5 5.907-3.5.45 0 2.587-2.319 4.748-5.153 2.16-2.833 4.393-5.646 4.96-6.25.567-.603 2.813-3.466 4.992-6.361 7.264-9.652 14.767-12.959 22.438-9.89 2.193.878 6.932 3.612 10.53 6.075 6.79 4.649 11.809 6.563 17.228 6.573 2.542.005 3.365.548 4.171 2.756.97 2.656 1.007 2.614 1.083-1.25l.08-4h-6.339c-5.425 0-7.082-.468-11.5-3.25a34067.18 34067.18 0 0 1-9.97-6.281c-5.471-3.448-12.633-4.304-17.828-2.132-1.776.742-7.185 5.943-12.467 11.987-14.081 16.111-18.822 20.499-23.715 21.949-4.741 1.404-5.903 1.06-7.188-2.126-.717-1.776-.878-1.478-.93 1.72-.058 3.533.13 3.814 2.186 3.263 1.238-.332 3.212-.61 4.388-.617zm83.292-2.264c-.057-2.647-.217-2.88-.861-1.25-.436 1.1-.58 2.562-.323 3.25.804 2.145 1.257 1.38 1.184-2zm-145.93-3.873c0-.807.397-.793 1.411.049 1.896 1.573 3.004-.283 1.665-2.786-.88-1.644-.382-2.226 3.704-4.324 6.313-3.242 9.71-9.735 9.452-18.064-.098-3.162-.825-6.987-1.616-8.5-3.852-7.375-13.344-11.673-19.68-8.912l-3.436 1.496 4.716.082c7.086.123 11.555 2.696 14.386 8.282 5.47 10.795.9 22.2-9.398 23.453-8.93 1.088-14.163-5.501-14.421-18.153-.083-4.065-.492-7.18-.909-6.922-1.535.949-2.124 9.643-.924 13.647 1.405 4.691 9.23 13.517 12.382 13.966 1.193.17 2.056.646 1.918 1.059-.137.412-.25 1.901-.25 3.309 0 1.451-.432 2.291-1 1.94-.55-.34-1-.14-1 .442 0 .582.675 1.059 1.5 1.059s1.5-.505 1.5-1.123zm119 .123c-1.958-1.266-3.282-1.266-2.5 0 .34.55 1.38.993 2.31.984 1.457-.013 1.483-.149.19-.984zm-62.015-3.75c-.011-2.002-.258-2.367-.907-1.341-.491.775-.661 2.013-.378 2.75.811 2.115 1.302 1.577 1.285-1.41zm89.015-.81c0-.857-.457-1.276-1.016-.93-.559.345-.757 1.047-.44 1.559.856 1.387 1.456 1.128 1.456-.628zm-76.654-4.628c4.953-3.436 10.439-8.87 14.448-14.312 5.509-7.477 9.245-11.409 13.887-14.614 4.375-3.021 7.653-3.511 13.076-1.956 1.784.511 3.243.56 3.243.107 0-2.348-10.262-2.79-15.357-.661-1.812.757-6.185 4.664-9.718 8.684-12.496 14.214-15.466 17.237-19.356 19.702-3.172 2.01-4.283 2.272-5.75 1.356-1.577-.984-1.819-.802-1.819 1.373 0 3.227 2.97 3.356 7.346.32zm-12.346-.371c0-.858-.457-1.277-1.016-.931-.559.345-.757 1.047-.44 1.559.856 1.387 1.456 1.128 1.456-.628zm89-17.441c0-.55-.476-1-1.059-1-.582 0-.78.45-.44 1s.816 1 1.058 1c.243 0 .441-.45.441-1zm-6.75-.926c.413-.041.75-.446.75-.901s-1.35-.629-3.001-.386c-1.652.242-4.014-.2-5.25-.984-6.103-3.867-10.116-5.979-8.959-4.713 2.495 2.727 11.733 7.7 13.71 7.381 1.1-.177 2.338-.356 2.75-.397zm-85.066-5.291c-.718-.718-1.184-.777-1.184-.15 0 .568.3 1.333.667 1.7.367.367.9.434 1.183.15.285-.284-.015-1.05-.666-1.7zm-83.254-3.092c-.068-2.113-.101-2.12-.93-.191-1.182 2.752-1.182 3.73 0 3 .55-.34.969-1.604.93-2.81zm149.57-.691c-.34-.55-1.154-.994-1.809-.985-.715.01-.592.402.31.985 1.92 1.241 2.267 1.241 1.5 0zm-98.475-4.565c.537-1.411.975-2.932.975-3.38 0-1.994-8.55-9.337-13.765-11.822l-5.735-2.733-.5-9.5-.5-9.5-4.686-.303c-5.826-.375-6.728.96-6.93 10.27-.161 7.45-.467 7.925-8.33 12.956-5.67 3.626-9.568 7.906-9.53 10.461.015.98 2.078-.629 5.25-4.096 4.407-4.816 6.157-5.972 11.166-7.376 5.145-1.442 6.875-1.498 12.92-.417 6.546 1.17 7.343 1.611 12.81 7.095 6.248 6.268 6.65 6.91 4.33 6.91-1.683 0-1.75.183-.893 2.418.896 2.334 2.312 1.926 3.418-.983zM96.882 91.23c-1.447-2.293-2.846-3.954-3.108-3.691-.263.262.67 2.168 2.072 4.234 1.402 2.066 2.585 4.256 2.628 4.867.053.741.239.72.56-.066.263-.647-.705-3.052-2.152-5.344zM86.364 72.5c-.048-1.136-5.023-4.529-5.679-3.873-.315.316.503 1.47 1.819 2.565 2.512 2.092 3.913 2.567 3.86 1.309zm-22.486-4.82c2.036-1.888 2.479-2.868 1.663-3.684-.612-.612-1.232-.915-1.379-.674-.147.241-1.588 1.899-3.204 3.684-3.634 4.015-1.274 4.56 2.92.673zm-7.988-3.668c8.088-1.81 5.686-3.174-5.745-3.263l-8.75-.069v2.713c0 2.583.203 2.694 4.25 2.336 2.338-.206 6.948-.979 10.245-1.717zm41.505-8.13c9.625-1.9 21.903-4.255 27.285-5.233 6.42-1.167 9.631-2.175 9.34-2.932-.243-.635-3.97-5.774-8.283-11.42-4.313-5.646-8.517-11.34-9.342-12.654-2.02-3.217-3.542-2.968-10 1.64a640.869 640.869 0 0 1-10.71 7.451c-7.356 4.98-15.964 13.505-20.452 20.254-2.107 3.17-3.833 6.067-3.834 6.44-.006 1.118 3.33 1.494 5.996.676 1.375-.422 10.375-2.322 20-4.222zm-42.703.265c-.791-.791-1.627-.8-2.95-.03-1.619.94-1.483 1.077 1.103 1.103 2.152.022 2.652-.268 1.847-1.073zm8.366-8.146c-.278-.688-.505-.125-.505 1.25s.227 1.937.505 1.25c.277-.688.277-1.813 0-2.5zm3.708-8.25l2.097-2-2.335-.333c-1.285-.183-3.528-.022-4.984.357-2.633.687-2.636.696-.399 1.551 1.38.528 2.28 1.742 2.33 3.142.051 1.492.272 1.763.636.783.307-.825 1.502-2.4 2.655-3.5zm93.13.5c-.34-.55-1.069-1-1.619-1s-.722.45-.382 1c.34.55 1.068 1 1.618 1s.722-.45.382-1z"/></svg>