<svg xmlns="http://www.w3.org/2000/svg" viewBox="0 0 512 512"><path d="M466 90v254.801H15V75c0-16.5 13.499-30 30-30h376c24.902 0 45 20.099 45 45z" fill="#cae8f9"/><path d="M421 30H45C20.098 30 0 50.099 0 75v254.801l31.802 31h414.401l34.797-31V90c0-32.999-27.001-60-60-60zm30 299.801H30V75c0-8.401 6.599-15 15-15h376c16.501 0 30 13.5 30 30v239.801z" fill="#57555c"/><path d="M466 90v254.801H241V45h180c24.902 0 45 20.099 45 45z" fill="#b7e0f6"/><path d="M481 90v239.801l-34.797 31H241v-31h210V90c0-16.5-13.499-30-30-30H241V30h180c32.999 0 60 27.001 60 60z" fill="#3c3a41"/><path d="M241 344.755c0 8.291-6.709 16-15 16H76c-8.291 0-15-7.709-15-16V301c0-49.629 40.371-90 90-90s90 40.371 90 90v43.755z" fill="#fd003a"/><path d="M330.099 492.201l-30-90c-1.802-6-7.8-10.201-14.099-10.201h-90c-6.299 0-12.297 4.2-14.099 10.201l-30 90C148.598 501.799 155.797 512 166 512h150c10.203 0 17.402-10.201 14.099-19.799z" fill="#57555c"/><path d="M151 241c-33.076 0-60-26.909-60-60s26.924-60 60-60 60 26.909 60 60-26.924 60-60 60z" fill="#fd3c65"/><path d="M316 512h-75V392h45c6.299 0 12.297 4.2 14.099 10.201l30 90C333.402 501.799 326.203 512 316 512z" fill="#3c3a41"/><path d="M467 0H287c-24.902 0-45 20.099-45 45v120c0 24.901 20.098 45 45 45h15v45c0 6 3.6 11.4 9.302 13.801C316.7 271.2 323.299 270 327.5 265.5l49.5-49.199 6.299-6.301H467c24.902 0 45-20.099 45-45V45c0-24.901-20.098-45-45-45z" fill="#18a7fc"/><path d="M512 45v120c0 24.901-20.098 45-45 45h-83.701L377 216.301V0h90c24.902 0 45 20.099 45 45z" fill="#1689fc"/><path d="M432.499 85.499L377 141l-4.501 4.499c-5.702 6-15.297 6-20.999 0l-30-30c-6.002-5.7-6.002-15.298 0-20.999 5.702-6 15.297-6 20.999 0L362 113.699l15-15L411.501 64.5c5.702-6 15.297-6 20.999 0 6.001 5.701 6.001 15.299-.001 20.999z" fill="#cae8f9"/><path d="M432.499 85.499L377 141V98.699L411.501 64.5c5.702-6 15.297-6 20.999 0 6.001 5.701 6.001 15.299-.001 20.999z" fill="#b7e0f6"/><path d="M0 329.801V377c0 24.901 20.098 45 45 45h391c24.902 0 45-20.099 45-45v-47.199H0z" fill="#787780"/><path d="M481 329.801V377c0 24.901-20.098 45-45 45H241v-92.199h240z" fill="#57555c"/><path d="M391 497c0 8.401-6.599 15-15 15H106c-8.401 0-15-6.599-15-15s6.599-15 15-15h270c8.401 0 15 6.599 15 15z" fill="#787780"/><path d="M391 497c0 8.401-6.599 15-15 15H241v-30h135c8.401 0 15 6.599 15 15z" fill="#57555c"/></svg>